<svg xmlns="http://www.w3.org/2000/svg" width="7.467" height="7.393" viewBox="0 0 7.000002 6.9307318"><defs><linearGradient id="b" gradientUnits="userSpaceOnUse" y2="62.82" x2="15.4" y1="-3.63" x1="7.73"><stop offset="0" stop-color="#fff"/><stop offset=".35" stop-color="#fff"/><stop offset=".83" stop-opacity=".216" stop-color="#fff"/><stop offset="1" stop-color="#fff"/></linearGradient><linearGradient id="d" gradientUnits="userSpaceOnUse" y2="8.98" x2=".7" y1="8.07" x1="23.53"><stop offset="0" stop-opacity=".161" stop-color="#fff"/><stop offset="1" stop-color="#fff"/></linearGradient><clipPath id="e"><path d="M815.264 1567.01l.336-.195.38-.22-1.22-.704-.38.22-.336.194 1.22.704"/></clipPath><clipPath id="f"><path d="M818.165 1568.684l.336-.193.38-.22-1.22-.705-.381.22-.336.194 1.22.704"/></clipPath><mask id="g" height="1" width="1" y="0" x="0" maskUnits="userSpaceOnUse"><g clip-path="url(#a)" transform="translate(845.794 1578.223)"><path d="M0 0h23.132v59.187H0V0z" fill="url(#b)"/></g></mask><clipPath id="a"><path d="M0 0h23.132v59.187H0V0z"/></clipPath><clipPath id="h"><path d="M845.794 1637.41v-45.835l23.126-13.352s-.024 19.295 0 30.949c.015 6.972 0 14.887 0 14.887l-23.125 13.352"/></clipPath><linearGradient id="i" gradientUnits="userSpaceOnUse" y2="1641.04" x2="861.19" y1="1574.59" x1="853.53"><stop offset="0" stop-color="#fee6db"/><stop offset=".35" stop-color="#fee6db"/><stop offset=".83" stop-color="#fff"/><stop offset="1" stop-color="#fff"/></linearGradient><mask id="j" height="1" width="1" y="0" x="0" maskUnits="userSpaceOnUse"><g clip-path="url(#c)" transform="translate(845.816 1615.56)"><path d="M0 0h23.104v16.045H0V0z" fill="url(#d)"/></g></mask><clipPath id="c"><path d="M0 0h23.104v16.045H0V0z"/></clipPath></defs><path d="M4.443 5.73L1.231 3.856l2.1-1.212 3.212 1.872-2.1 1.212z" fill="#693e4f"/><path d="M4.421 5.546l-3.03-1.75 1.77-1.02L6.19 4.525l-1.77 1.02z" fill="#edefef"/><path d="M4.421 5.02l-3.03-1.75 1.77-1.02L6.19 3.999 4.42 5.02z" fill="#c69bb0"/><path d="M4.07 4.77l-1.709-.987.998-.576 1.709.987-.998.576z" fill="#b3849d"/><path d="M1.392 3.27L3.16 2.25v.526l-1.768 1.02v-.525z" fill="#fee6db"/><path d="M1.392 3.797l3.03 1.749V5.02l-3.03-1.75v.527zm1.772-1.021l3.03 1.749v-.526l-3.03-1.75v.527z" fill="#f3d2d0"/><path d="M4.421 5.02L6.19 3.999v.526l-1.77 1.02V5.02z" fill="#fee6db"/><path d="M4.4 4.853L1.664 3.271l1.5-.866L5.9 3.987l-1.5.866zM3.16 2.25L1.392 3.27l3.03 1.75L6.19 3.999l-3.03-1.75z" fill="#edefef"/><path d="M6.19 3.998L3.16 2.25V.207l3.03 1.689v2.102z" fill="#dfbdce"/><path d="M3.545 2.13l-.317.172-.064-.036V.215l.381-.127V2.13z" fill="#f3d2d0"/><path d="M3.16.207L3.542 0l3.03 1.708-.382.188L3.16.206z" fill="#edefef"/><path d="M3.267 2.283l.275-.15L6.507 3.8l-.303.165-2.937-1.681z" fill="#c69bb0"/><path d="M6.571 3.791L6.19 4V1.896l.381-.188V3.79z" fill="#f3d2d0"/><path d="M6.04 3.807L3.312 2.258V.393L6.04 1.914v1.893zM3.16.207v2.068l3.03 1.723V1.896L3.16.206z" fill="#fee6db"/><path d="M3.885 5.175v-.068l.176-.103v.067l-.176.104zm-.201-.12v-.068l.176-.103v.068l-.176.103z" fill="#d97764"/><path d="M3.645 4.968v.068l.24.139v-.068l-.24-.139z" fill="#f6917a"/><path d="M4.06 5.004l-.046-.025-.14.088-.16-.093.146-.09-.037-.02-.178.104.24.139.176-.103z" fill="#f8aea0"/><path d="M1.903 4.03v-.067l.176-.103v.068l-.176.103zm-.2-.119v-.068l.175-.103v.068l-.175.103z" fill="#d97764"/><path d="M1.664 3.825v.068l.24.138v-.068l-.24-.138z" fill="#f6917a"/><path d="M2.079 3.86l-.046-.025-.14.089-.162-.094.147-.09-.037-.02-.177.105.24.138.175-.103zM3.88.85L3.64.712l.352-.203.24.138L3.88.85z" fill="#f8aea0"/><path d="M3.88.918V.85l.352-.203v.068L3.88.918z" fill="#d97764"/><path d="M3.64.712V.78l.24.138V.85L3.64.712z" fill="#f6917a"/><path d="M5.322 1.664l-.24-.138.352-.203.24.138-.352.203z" fill="#f8aea0"/><path d="M5.322 1.732v-.068l.351-.203v.068l-.351.203z" fill="#d97764"/><path d="M5.082 1.526v.068l.24.138v-.068l-.24-.138z" fill="#f6917a"/><path d="M3.35 4.537l-.071.042-.152-.088-.085.049-.549-.317.085-.05-.152-.087.072-.042-.067-.038-.133.077v.085l.107.062-.027.016v.085l.655.378.102-.058.181.105.133-.077v-.085l-.098-.057z" fill="#c86c8d"/><path d="M3.35 4.537l-.071.042-.152-.088-.085.049-.549-.317.085-.05-.152-.087.072-.042-.067-.038-.133.077.181.104-.101.059.655.378.102-.058.181.105.133-.077-.098-.057z" fill="#f495be"/><path d="M2.498 4.044v.084l-.072-.042.072-.042zm.08.13l-.085.049.085.049v-.098z" fill="#aa5b7f"/><path d="M2.91 1.979l-.105.118-.104.121c0 .2-.08.349-.08.502v.787c0 .022.003.037.008.044v.003l.137.15.065-.363.13-.149a.204.204 0 0 0 .035-.113v-.787c0-.153-.085-.113-.085-.313" fill="#63c4b0"/><path d="M2.756 3.72l-.136-.076v-.312l.136.077v.312z" fill="#fed5ac"/><path d="M2.665 2.149l.287-.204.126.089-.286.201-.127-.086z" fill="#816da6"/><path d="M3.129 3.044v-.602c0-.153-.084-.107-.084-.308l-.105.124-.104.116c0 .2-.08.343-.08.496v.788c0 .04.011.059.03.038l.31-.353a.204.204 0 0 0 .033-.114v-.185z" fill="#1ab59d"/><path d="M3.129 3.503l-.373.218v-.312l.373-.218v.312z" fill="#fdc282"/><path d="M3.078 2.034l-.286.201v.178l.286-.203v-.176z" fill="#685680"/><path d="M2.665 2.325l.127.088v-.178l-.127-.086v.176z" fill="#443560"/><path d="M3.594 3.635l.196-.112V3.08l-.196.113v.442z" fill="#bf3d39"/><path d="M3.618 3.244l.196-.113v-.23l-.196.112v.231zm-.312.226l.288.165v-.442l-.288-.166v.442z" fill="#e24b3f"/><path d="M3.279 3.05l.339.194v-.23l-.34-.194v.23z" fill="#bf3d39"/><path d="M3.279 2.822l.335.194.2-.116-.335-.193-.2.115z" fill="#672d2c"/><path d="M1.75 4.612l-.488-.281-.173-.1L0 4.859l.835.482 1.088-.628-.173-.1z" fill="#693e4f"/><path d="M.798 5.204l-.794-.458 1.036-.599.794.459-1.036.598z" fill="#16bab5"/><path d="M.004 4.746v.106l.794.459v-.107l-.794-.458z" fill="#d97764"/><g fill="none" stroke="#ca633a" stroke-width=".007" stroke-miterlimit="22.926"><path d="M.004 4.77l.794.458 1.036-.597"/><path d="M.004 4.79l.794.458 1.036-.596"/><path d="M.004 4.811l.794.458 1.036-.597"/><path d="M.004 4.831l.794.458 1.036-.597"/></g><path d="M.251 4.658a.011.011 0 1 1 0 .022.011.011 0 0 1 0-.022m-.06.035a.011.011 0 1 1 0 .022.011.011 0 0 1 0-.022m-.058.033a.011.011 0 1 1 0 .022.011.011 0 0 1 0-.022" fill="#4d4d4e"/><path d="M.798 5.31v-.106l1.036-.598v.107L.798 5.31z" fill="#f3d2d0"/><path d="M1.193 4.62c-.01.005-.021.006-.027.002-.006-.004-.004-.01.005-.015.009-.005.02-.006.027-.003.006.004.003.01-.005.016m-.05.005a.453.453 0 0 0-.147.055c-.008.005-.02.006-.025.002-.006-.003-.004-.01.004-.014.017-.01.054-.032.036-.044-.018-.01-.06.01-.076.019-.009.004-.02.005-.026.002-.006-.004-.004-.01.004-.015.017-.01.054-.032.035-.043-.018-.012-.059.009-.076.018-.008.005-.02.006-.025.002-.006-.003-.003-.01.005-.014.063-.035.107-.035.127-.023.011.007.015.018.005.033.026-.005.046-.002.057.005.009.005.013.013.01.024a.402.402 0 0 1 .104-.028c.012-.03.003-.059-.03-.079-.062-.038-.187-.027-.278.023-.092.05-.116.122-.053.16.062.038.187.028.278-.023a.21.21 0 0 0 .071-.06" fill="#fff"/><path d="M1.03 4.203a.011.011 0 1 1 0 .022.011.011 0 0 1 0-.022m-.062.038a.011.011 0 1 1 0 .022.011.011 0 0 1 0-.022m-.06.035a.011.011 0 1 1 0 .022.011.011 0 0 1 0-.022m-.12.069a.011.011 0 1 1 0 .022.011.011 0 0 1 0-.022m-.059.035a.011.011 0 1 1 0 .022.011.011 0 0 1 0-.022m-.06.035a.011.011 0 1 1 0 .022.011.011 0 0 1 0-.022M.61 4.45a.011.011 0 1 1 0 .021.011.011 0 0 1 0-.022m-.06.035a.011.011 0 1 1 0 .022.011.011 0 0 1 0-.022m-.06.035a.011.011 0 1 1 0 .022.011.011 0 0 1 0-.022m-.06.035a.011.011 0 1 1 0 .022.011.011 0 0 1 0-.022m-.058.033a.011.011 0 1 1 0 .022.011.011 0 0 1 0-.022m-.059.034a.011.011 0 1 1 0 .022.011.011 0 0 1 0-.022m.535-.311a.011.011 0 1 1 0 .022.011.011 0 0 1 0-.022" fill="#4d4d4e"/><g fill="#71cdde"><path d="M1.018 4.136a.05.05 0 0 1 .01.081c.005-.023-.003-.048-.023-.059-.02-.01-.044-.005-.062.012a.05.05 0 0 1 .075-.034"/><path d="M.958 4.17a.05.05 0 0 1 .01.082c.005-.024-.003-.048-.022-.059-.02-.011-.045-.006-.062.012a.05.05 0 0 1 .074-.034"/><path d="M.899 4.205a.05.05 0 0 1 .009.082.054.054 0 0 0-.022-.06.054.054 0 0 0-.062.012.05.05 0 0 1 .076-.034"/><path d="M.839 4.24a.05.05 0 0 1 .01.081c.005-.023-.003-.047-.023-.058-.02-.012-.044-.006-.062.011A.05.05 0 0 1 .84 4.24"/><path d="M.78 4.275a.05.05 0 0 1 .008.081c.006-.024-.002-.048-.022-.059a.053.053 0 0 0-.061.012.05.05 0 0 1 .074-.034"/><path d="M.72 4.31a.05.05 0 0 1 .009.081c.006-.024-.003-.048-.022-.059-.02-.011-.045-.006-.062.012a.05.05 0 0 1 .074-.034"/><path d="M.66 4.344a.05.05 0 0 1 .009.082c.006-.024-.002-.048-.022-.06a.054.054 0 0 0-.062.012.05.05 0 0 1 .075-.034"/><path d="M.6 4.38a.05.05 0 0 1 .01.08c.005-.023-.003-.047-.023-.059-.02-.01-.044-.005-.062.012A.05.05 0 0 1 .6 4.379"/><path d="M.54 4.414a.05.05 0 0 1 .01.081c.005-.024-.003-.048-.022-.059a.054.054 0 0 0-.062.012.05.05 0 0 1 .074-.034"/><path d="M.48 4.449a.05.05 0 0 1 .01.08.052.052 0 0 0-.022-.058c-.02-.011-.045-.006-.062.012a.05.05 0 0 1 .075-.034"/><path d="M.42 4.483a.05.05 0 0 1 .01.082c.006-.024-.002-.048-.022-.06-.02-.01-.044-.005-.062.012a.05.05 0 0 1 .075-.034"/><path d="M.361 4.518a.05.05 0 0 1 .01.081c.005-.023-.003-.048-.023-.059a.053.053 0 0 0-.061.012.05.05 0 0 1 .074-.034"/><path d="M.301 4.553a.05.05 0 0 1 .01.081c.006-.024-.003-.048-.022-.059a.053.053 0 0 0-.062.012.05.05 0 0 1 .073-.034"/><path d="M.242 4.587a.05.05 0 0 1 .009.082c.006-.024-.002-.048-.022-.06a.054.054 0 0 0-.062.012.05.05 0 0 1 .075-.034"/><path d="M.182 4.622a.05.05 0 0 1 .01.082c.005-.024-.003-.048-.023-.06-.02-.01-.044-.005-.062.012a.05.05 0 0 1 .075-.034"/><path d="M.122 4.657a.05.05 0 0 1 .01.081C.137 4.715.129 4.69.11 4.68a.054.054 0 0 0-.062.012.05.05 0 0 1 .074-.034"/></g><path d="M3.064 2.717c0 .01-.005.02-.01.024-.007.003-.012-.002-.012-.012s.006-.02.012-.024.01.002.01.012m-.019.045a.453.453 0 0 0-.027.155c0 .01-.005.02-.01.023-.006.003-.01-.002-.01-.011 0-.02-.002-.063-.02-.052-.02.01-.022.055-.022.075 0 .01-.005.02-.011.023h-.002c-.005.003-.01-.002-.01-.011 0-.02 0-.063-.02-.052-.018.01-.021.056-.021.075 0 .01-.005.02-.011.023-.006.003-.01-.002-.01-.012 0-.072.023-.11.043-.12.012-.007.024-.005.032.011.008-.025.02-.04.032-.047.01-.005.019-.005.026.003a.403.403 0 0 1 .028-.103c-.02-.026-.05-.032-.083-.014-.064.035-.117.148-.12.253-.001.104.049.16.113.126.063-.035.117-.149.119-.253a.209.209 0 0 0-.016-.092" fill="#fff"/><path d="M4.235 4.363l-.01-.006a.023.023 0 0 0-.021 0l-.014.008-.06.001v.038a.01.01 0 0 0 .004.005l.07.04.09-.052v-.035l-.059.001z" fill="#f6917a"/><path d="M4.294 4.362l-.07-.04a.023.023 0 0 0-.02-.001l-.071.04c-.005.004-.005.01.001.013l.07.04.09-.052z" fill="#f8aea0"/><path d="M4.403 4.471l-.09-.052-.076.044.09.052.076-.044z" fill="#cfd2d3"/><path d="M4.403 4.436l-.09-.053-.076.044.09.052.076-.043z" fill="#f4dcd7"/><g clip-path="url(#e)" transform="matrix(.0129 0 0 -.0129 -6.227 24.65)"><g fill="#c15a4c"><path d="M815.6 1566.815l-.336.194-1.22-.704.336-.194 1.22.704z"/><path d="M815.98 1566.596l-.38.22-1.22-.705.38-.22 1.22.705z"/></g></g><g clip-path="url(#f)" transform="matrix(.0129 0 0 -.0129 -6.227 24.65)"><path d="M818.5 1568.491l-.335.194-1.221-.705.336-.194 1.22.705zm.381-.22l-.38.22-1.221-.705.38-.22 1.221.705z" fill="#c15a4c"/></g><path d="M4.237 4.427v.036l.09.052v-.036l-.09-.052z" fill="#dfcddf"/><path d="M4.577 4.566v-.035l-.09-.02-.1-.058-.046.026-.045-.01v.036l.186.108a.023.023 0 0 0 .02 0l.071-.04a.009.009 0 0 0 .004-.007" fill="#f6917a"/><path d="M4.296 4.47l.186.107a.023.023 0 0 0 .02 0l.071-.04c.006-.003.005-.009 0-.012l-.187-.107-.09.052z" fill="#f8aea0"/><path d="M4.286 4.373v.022l-.074.043v-.022l.074-.043z" fill="#d97764"/><path d="M4.286 4.384v.011l-.074.043v-.011l.074-.043z" fill="#c15a4c"/><path d="M4.218 4.334v.003h-.004v-.004h.004m-.001.007c0 .005.003.012.007.02v.003l-.003-.001c-.001-.002-.005-.007-.008-.005s0 .007.001.01v.003H4.21c-.002-.003-.005-.008-.008-.006s0 .008.001.01v.003H4.2c-.005-.01-.004-.015 0-.017.001-.002.004-.002.007 0 0-.004 0-.006.002-.007a.006.006 0 0 1 .006-.001.032.032 0 0 1-.003-.014.02.02 0 0 0-.017.002c-.01.008-.012.024-.004.036.007.013.022.017.032.01.01-.007.012-.023.004-.036a.03.03 0 0 0-.01-.01" fill="#fff"/><path d="M2.827 5.047l-.092-.053-1.36.785-.088.099c-.004.005-.001.008.008.005l.173-.051 1.36-.785zm-.345-.128l-.092-.054-1.36.785-.088.1c-.005.005-.002.007.008.005l.172-.051 1.36-.785z" fill="#693e4f"/><path d="M1.432 5.828v-.04l1.36-.784v.04l-1.36.784z" fill="#4a3f60"/><path d="M1.25 5.878l.001-.038.046-.034.04.01v.04l-.077.023c-.006.002-.01.001-.01 0v-.001z" fill="#292929"/><path d="M1.34 5.735l-.088.1c-.005.005-.001.008.008.005l.172-.051.044-.075-.136.021z" fill="#fee6db"/><path d="M1.291 5.79l-.04.045c-.004.005 0 .008.009.005l.077-.023a.429.429 0 0 0-.046-.027" fill="#292929"/><path d="M1.34 5.735L2.7 4.95l.092.054-1.36.785a.969.969 0 0 0-.092-.054" fill="#55447d"/><path d="M1.432 5.789v.039l-.095.028v-.04l.095-.027z" fill="#f3d3d1"/><path d="M1.087 5.7v-.04l1.36-.785v.04l-1.36.785z" fill="#4a3f60"/><path d="M.904 5.75v-.001l.002-.037.046-.034.04.01v.04l-.077.023c-.007.002-.01 0-.01-.001z" fill="#9a5c80"/><path d="M.995 5.607l-.089.1c-.004.004 0 .007.009.004l.172-.05.044-.076-.136.022z" fill="#fee6db"/><path d="M.946 5.662l-.04.044c-.004.005 0 .008.009.005l.077-.023a.426.426 0 0 0-.046-.026" fill="#c86c8d"/><path d="M.995 5.607l1.36-.785.092.053-1.36.785a.972.972 0 0 0-.092-.053" fill="#55447d"/><path d="M1.087 5.66v.04l-.095.028v-.04l.095-.028z" fill="#f3d3d1"/><path d="M3.5 3.275c0 .005-.003.01-.006.01s-.005-.005-.005-.01.003-.01.006-.01.006.005.005.01m-.01.018a.18.18 0 0 0-.018.073c0 .005-.003.009-.006.009s-.005-.004-.005-.01c0-.01.001-.032-.008-.033-.01 0-.013.023-.013.033 0 .005-.003.009-.006.009h-.001c-.003 0-.005-.005-.005-.01 0-.01.001-.032-.009-.033-.01 0-.012.023-.013.033 0 .005-.003.009-.006.008-.003 0-.005-.004-.004-.009.002-.037.014-.05.025-.05.006 0 .012.005.015.016.005-.01.012-.015.018-.015.005 0 .01.004.013.01a.138.138 0 0 1 .017-.046c-.01-.02-.025-.032-.042-.032-.033-.001-.063.042-.067.096-.003.054.02.099.054.1.033 0 .062-.042.066-.096a.144.144 0 0 0-.006-.053" fill="#fff"/><path d="M3.177 4.032l-.115-.054.041-.36.095.054-.02.36z" fill="#128dac"/><path d="M3.245 3.563c-.01-.003-.012-.02-.012-.033v-.05c-.003-.021-.01-.051-.034-.04-.023.01-.04.045-.044.07-.008.035-.006.068-.008.1 0 .016.02.004.02-.012.002-.027.001-.054.005-.082a.101.101 0 0 1 .013-.04c.008-.014.016-.015.02-.006.018.033-.008.108.03.118.01.002.02-.024.01-.026" fill="#9a5c80"/><path d="M3.41 3.885l-.233.147.021-.36.17-.099.043.312z" fill="#54bedb"/><path d="M3.198 3.672l-.095-.054.171-.099.095.054-.171.099z" fill="#128dac"/><path d="M3.149 3.639l.047.027.148-.086-.047-.027-.148.086z" fill="#166f83"/><path d="M3.369 3.573l-.171.099-.016-.01.171-.098.016.01zm-.079-.045l-.17.1-.017-.01.171-.099.016.01z" fill="#8bd6f2"/><path d="M3.34 3.616c-.011-.002-.013-.018-.013-.032v-.049c-.003-.021-.01-.051-.033-.04-.024.01-.04.045-.045.07-.007.035-.006.068-.007.1 0 .016.02.004.02-.012.001-.027 0-.054.005-.082a.101.101 0 0 1 .012-.04c.01-.014.017-.015.021-.006.018.033-.009.108.03.118.01.002.02-.024.01-.027" fill="#9a5c80"/><path d="M3.342 3.723a.015.015 0 0 1-.004.01c-.003 0-.005-.001-.005-.005s.002-.009.005-.01c.002-.001.004 0 .004.005m-.008.017a.181.181 0 0 0-.01.063.012.012 0 0 1-.005.01c-.002 0-.004-.002-.004-.005 0-.008 0-.026-.008-.021-.007.004-.008.022-.008.03 0 .003-.002.008-.005.009-.003.001-.004 0-.004-.004 0-.008 0-.025-.008-.021s-.009.022-.009.03c0 .004-.002.008-.004.009-.003.001-.005 0-.004-.005 0-.029.009-.044.017-.048.005-.003.01-.002.013.005.003-.01.008-.017.013-.02a.01.01 0 0 1 .01.002.161.161 0 0 1 .011-.041c-.008-.01-.02-.013-.033-.006-.026.014-.047.06-.048.101 0 .042.02.065.045.05.026-.013.047-.059.048-.1a.084.084 0 0 0-.007-.037" fill="#fff"/><g fill="#fff"><path d="M2.08 5.33c0 .002 0 .005-.002.006-.002 0-.003 0-.003-.003l.003-.006c.001 0 .003 0 .002.003m-.004.01a.105.105 0 0 0-.006.037.005.005 0 0 1-.003.005c-.001 0-.002 0-.002-.003 0-.004 0-.014-.005-.012-.004.003-.005.013-.005.018 0 .002 0 .004-.002.005-.002 0-.003 0-.003-.002 0-.005 0-.015-.004-.013-.005.003-.006.013-.006.018 0 .002 0 .004-.002.005-.001 0-.003 0-.002-.003 0-.016.005-.025.01-.028.002-.001.005 0 .007.003.002-.006.005-.01.008-.01.002-.002.004-.002.005 0a.093.093 0 0 1 .007-.024c-.005-.006-.012-.007-.02-.003-.014.008-.026.034-.027.058 0 .025.011.038.026.03.015-.009.027-.035.028-.059a.049.049 0 0 0-.004-.021"/><text transform="matrix(.00748 -.00435 -.00008 .01215 2.087 5.36)" style="-inkscape-font-specification:CenturyGothic-Bold" font-weight="700" font-size="3.104" font-family="Century Gothic"><tspan x="0 2.9174006 3.7864137 5.7727289 6.6417418 8.6901293 9.5591421 10.862662 11.731675" y="0">m e p ´ s</tspan></text><text transform="matrix(.00748 -.00435 -.00008 .01215 2.198 5.296)" style="-inkscape-font-specification:CenturyGothic" font-weight="400" font-size="3.104" font-family="Century Gothic"><tspan x="0 2.9111934 3.7708955 5.7882471 6.6479492 8.7739267 9.6336288 10.254353 11.114055 13.146924 14.006626 15.21083 16.930235 18.947586 19.807287 20.781824 21.641525 23.658878 24.518579 26.526621 27.386322 28.438448 29.298151 29.918875 30.778576 32.497982 33.357681 35.390553 36.250256 37.454456 39.173862 41.290531 42.15023 44.037231 44.896935 47.013599 47.873302 48.494026 49.353729 49.974453 50.834152 52.842194 53.701897 54.32262 55.182323 56.234447 57.094151 59.213921 60.073624 61.007813 61.867516 62.488239 63.347939 65.380814 66.240509 67.444717" y="0">m e d i o s e f e c t i v o s p u b l i c i t a r i o s</tspan></text><text transform="matrix(.00748 -.00435 -.00008 .01215 2.087 5.38)" style="-inkscape-font-specification:CenturyGothic-Italic" font-style="italic" font-size="1.205" font-family="Century Gothic"><tspan x="0 0.27239519 0.60626006 1.7368206 2.0706854 2.8926921 3.226557 3.9593725 4.2932372 4.5342951 4.8681598 5.3358116 5.6696768 6.4928889 6.8267536 7.5619793 7.8958445 8.721467 9.0553322 9.8447962 10.512526 10.753583 11.087448 11.913071 12.246936 13.030373 13.364238 14.18745 14.521315" y="0">I m p u l s a n d o i d e a s</tspan></text></g><g fill="#fff"><path d="M1.74 5.201l-.002.006c-.002 0-.003 0-.003-.003 0-.002.001-.005.003-.005.001-.001.002 0 .002.002m-.004.011a.105.105 0 0 0-.006.036c0 .002-.002.004-.003.005-.001 0-.002 0-.002-.003 0-.004 0-.014-.005-.012-.004.003-.005.013-.005.018a.005.005 0 0 1-.003.005c-.001.001-.002 0-.002-.002 0-.005 0-.015-.005-.012-.004.002-.005.013-.005.017l-.002.005c-.002.001-.003 0-.003-.002 0-.017.006-.026.01-.028.003-.002.006-.001.008.002.002-.005.005-.009.007-.01.002-.002.005-.002.006 0a.093.093 0 0 1 .007-.024c-.005-.006-.012-.007-.02-.003-.014.008-.027.034-.027.059 0 .024.01.037.026.029.015-.008.027-.035.027-.059a.048.048 0 0 0-.003-.02"/><text transform="matrix(.00748 -.00435 -.00008 .01215 1.747 5.231)" style="-inkscape-font-specification:CenturyGothic-Bold" font-weight="700" font-size="3.104" font-family="Century Gothic"><tspan x="0 2.9174006 3.7864137 5.7727289 6.6417418 8.6901293 9.5591421 10.862662 11.731675" y="0">m e p ´ s</tspan></text><text transform="matrix(.00748 -.00435 -.00008 .01215 1.857 5.167)" style="-inkscape-font-specification:CenturyGothic" font-weight="400" font-size="3.104" font-family="Century Gothic"><tspan x="0 2.9111934 3.7708955 5.7882471 6.6479492 8.7739267 9.6336288 10.254353 11.114055 13.146924 14.006626 15.21083 16.930235 18.947586 19.807287 20.781824 21.641525 23.658878 24.518579 26.526621 27.386322 28.438448 29.298151 29.918875 30.778576 32.497982 33.357681 35.390553 36.250256 37.454456 39.173862 41.290531 42.15023 44.037231 44.896935 47.013599 47.873302 48.494026 49.353729 49.974453 50.834152 52.842194 53.701897 54.32262 55.182323 56.234447 57.094151 59.213921 60.073624 61.007813 61.867516 62.488239 63.347939 65.380814 66.240509 67.444717" y="0">m e d i o s e f e c t i v o s p u b l i c i t a r i o s</tspan></text><text transform="matrix(.00748 -.00435 -.00008 .01215 1.747 5.252)" style="-inkscape-font-specification:CenturyGothic-Italic" font-style="italic" font-size="1.205" font-family="Century Gothic"><tspan x="0 0.27239519 0.60626006 1.7368206 2.0706854 2.8926921 3.226557 3.9593725 4.2932372 4.5342951 4.8681598 5.3358116 5.6696768 6.4928889 6.8267536 7.5619793 7.8958445 8.721467 9.0553322 9.8447962 10.512526 10.753583 11.087448 11.913071 12.246936 13.030373 13.364238 14.18745 14.521315" y="0">I m p u l s a n d o i d e a s</tspan></text></g><path d="M4.855 4.061l.298.174v-.48l-.298-.174v.48z" fill="#fff" fill-opacity=".5"/><path d="M4.657 4.155l.361.21v-.718l-.361-.209v.717z" fill="#f8aea0"/><path d="M4.688 4.111l.299.172v-.591l-.299-.173v.592z" fill="#fff"/><path d="M4.987 4.283v-.157l-.13-.052-.169.037.299.172z" fill="#95a6a5"/><path d="M4.688 4.111l.299.172v-.48l-.299-.174v.482z" fill="#fff" fill-opacity=".5"/><path d="M4.857 4.074l-.169.037v-.482l.13-.035.04.023-.001.457z" fill="#95a6a5" fill-opacity=".5"/><path d="M4.745 3.83a.014.014 0 1 1 0 .028.014.014 0 0 1 0-.029m-.013-.089a.014.014 0 1 1 0 .029.014.014 0 0 1 0-.029" fill="#fedbc0"/><path d="M4.725 3.757a.003.003 0 1 1 0 .006.003.003 0 0 1 0-.006m.026.078a.003.003 0 1 1 0 .005.003.003 0 0 1 0-.005" fill="#f38c7d"/><path d="M5.018 4.364l.248-.141.002-.71-.25.136v.715z" fill="#f6917a"/><path d="M4.657 3.44l.361.21.25-.137-.362-.208-.25.136z" fill="#d97764"/><path d="M4.987 3.535l.074-.043v-.153l-.075.043v.153z" fill="#16bab5"/><path d="M4.859 3.462l.128.073-.001-.153-.127-.073v.153z" fill="#63c4b0"/><path d="M4.859 3.31l.127.072.075-.043-.127-.073-.075.043z" fill="#7ccbbb"/><path d="M4.688 3.63l.13-.036-.13-.075v.11z" fill="#e24b3f"/><path d="M4.967 3.34l.02-.011v-.04l-.02.011v.04z" fill="#16bab5"/><path d="M4.933 3.321l.034.02V3.3l-.034-.02v.04z" fill="#63c4b0"/><path d="M4.933 3.281l.034.02.02-.012-.034-.02-.02.012z" fill="#7ccbbb"/><path d="M4.96 3.282l.003-.002v-.006l-.003.002v.006z" fill="#16bab5"/><path d="M4.955 3.28l.005.002v-.006l-.005-.003v.006z" fill="#63c4b0"/><path d="M4.955 3.273l.005.003.003-.002-.005-.003-.003.002z" fill="#7ccbbb"/><path d="M4.961 3.111v.011l-.058.04-.01-.006.068-.045zm-.034.073v.012l-.042-.026v-.014l.042.028z" fill="#443560"/><path d="M4.936 3.184v.011l-.037.025-.009-.006.046-.03z" fill="#443560"/><path d="M4.89 3.214l.009.005.061.04v.017l-.078-.051v-.011h.008zm.071-.103v.011l.06.04.006-.007-.066-.044zm.033.072v.011l.042-.028v-.011l-.042.028z" fill="#443560"/><path d="M4.985 3.183v.013l.037.023.009-.006-.046-.03z" fill="#443560"/><path d="M5.04 3.213h-.01l-.07.047v.016l.08-.053v-.01z" fill="#443560"/><path d="M4.956 3.262l.005.003.079-.052-.046-.03.042-.028-.075-.05-.004.003.07.047-.042.028.046.03-.075.05z" fill="#8e5978"/><path d="M4.964 3.263l-.004.003-.078-.052.045-.03-.042-.028.076-.05.005.002-.072.048.042.028-.046.03.074.049z" fill="#8e5978"/><g mask="url(#g)" transform="matrix(.0129 0 0 -.0129 -6.227 24.65)"><g clip-path="url(#h)"><path d="M845.794 1637.41v-45.835l23.126-13.352s-.024 19.295 0 30.949c.015 6.972 0 14.887 0 14.887l-23.125 13.352" fill="url(#i)"/></g></g><path d="M4.905 3.827c0 .006-.003.01-.006.01s-.006-.005-.005-.01c0-.005.003-.01.006-.01.003.001.005.005.005.01m-.011.018a.18.18 0 0 0-.017.073c0 .005-.003.01-.006.01-.003-.001-.005-.005-.005-.01 0-.01.001-.033-.009-.033-.01 0-.012.022-.013.032 0 .005-.003.01-.006.009-.003 0-.006-.004-.005-.01 0-.009 0-.032-.009-.032-.01 0-.012.022-.013.032 0 .005-.003.009-.006.009S4.8 3.92 4.8 3.915c.003-.037.015-.05.025-.05.006 0 .012.006.016.017.005-.011.011-.015.018-.015.004 0 .009.003.012.01a.137.137 0 0 1 .017-.046c-.01-.02-.024-.032-.041-.033-.034-.001-.063.042-.067.096-.003.054.02.099.053.1.033.001.063-.042.067-.096a.144.144 0 0 0-.006-.053" fill="#63c4b0"/><path d="M4.79 3.68a.014.014 0 1 1 0 .029.014.014 0 0 1 0-.029m.143.023a.014.014 0 1 1 0 .028.014.014 0 0 1 0-.028" fill="#fedbc0"/><path d="M4.94 3.709a.003.003 0 1 1 0 .006.003.003 0 0 1 0-.006m-.152-.026a.005.005 0 1 1 0 .011.005.005 0 0 1 0-.01" fill="#f38c7d"/><path d="M4.934 4.18a.014.014 0 1 0 0 .028.014.014 0 0 0 0-.029m.013-.089a.014.014 0 1 0 0 .03.014.014 0 0 0 0-.03" fill="#fedbc0"/><path d="M4.954 4.108a.003.003 0 1 0 0 .005.003.003 0 0 0 0-.005m-.026.077a.003.003 0 1 0 0 .006.003.003 0 0 0 0-.006" fill="#f38c7d"/><path d="M4.936 4.077a.004.004 0 1 1 0 .009.004.004 0 0 1 0-.01" fill="#fedbc0"/><g mask="url(#j)" transform="matrix(.0129 0 0 -.0129 -6.227 24.65)"><path d="M845.816 1628.9l23.104-13.34v8.499l-13.07 7.546-10.034-2.706z" fill="#95a6a5"/></g><path d="M4.914 3.726a.007.007 0 1 0 0 .014.007.007 0 0 0 0-.014" fill="#fedbc0"/><path d="M4.91 3.729a.002.002 0 1 0 0 .003.002.002 0 1 0 0-.003" fill="#f38c7d"/><path d="M4.737 3.956a.014.014 0 1 0 0 .028.014.014 0 0 0 0-.028" fill="#fedbc0"/><path d="M4.74 3.959a.005.005 0 1 0 0 .01.005.005 0 0 0 0-.01" fill="#f38c7d"/><path d="M4.888 4.03a.014.014 0 1 0 0 .03.014.014 0 0 0 0-.03" fill="#fedbc0"/><path d="M4.891 4.034a.005.005 0 1 0 0 .01.005.005 0 0 0 0-.01" fill="#f38c7d"/><path d="M4.774 4.044a.014.014 0 1 0 0 .029.014.014 0 0 0 0-.03m.059.061a.014.014 0 1 0 0 .028.014.014 0 0 0 0-.028" fill="#fedbc0"/><path d="M4.777 4.047a.005.005 0 1 0 0 .01.005.005 0 0 0 0-.01m.063.073a.003.003 0 1 0 0 .006.003.003 0 0 0 0-.005" fill="#f38c7d"/><path d="M4.756 4.04a.003.003 0 1 0 0 .006.003.003 0 0 0 0-.006" fill="#fedbc0"/><path d="M4.757 4.043v.001" fill="#f38c7d"/><path d="M4.052 3.44l.264.15-.103.041-.264-.15.103-.042z" fill="#6ccce4"/><path d="M4.213 3.631l.103-.041v.544l-.103.041v-.544z" fill="#54bedb"/><path d="M4.213 4.05l.103-.042V3.74l-.103.041v.27z" fill="#edefef"/><path d="M3.95 3.48l.263.151v.544l-.264-.15V3.48z" fill="#25aedc"/><path d="M3.95 3.9l.263.15v-.27l-.264-.15v.27zm.025-.486l.219.124v.08l-.219-.125v-.079z" fill="#fee6db"/><path d="M3.98 3.414l.103-.041.213.124-.104.041-.212-.124z" fill="#dfbdce"/><path d="M4.194 3.538l.103-.041v.08l-.103.04v-.079z" fill="#edefef"/><path d="M4.254 3.431l-.103.042-.109-.062.104-.042.108.062z" fill="#6ccce4"/><path d="M4.254 3.431l-.103.042v.042l.103-.042v-.042z" fill="#54bedb"/><path d="M4.149 3.473v.042l-.11-.062V3.41l.11.062z" fill="#25aedc"/><path d="M4.222 3.169l-.084.033-.058-.033.083-.034.059.034z" fill="#816da6"/><path d="M4.138 3.202v.248l-.058-.033v-.248l.058.033z" fill="#685680"/><path d="M4.222 3.169v.249l-.084.032v-.248l.084-.033z" fill="#443560"/><path d="M4.148 3.773c0 .005-.004.009-.007.009s-.005-.005-.005-.01.003-.01.007-.009c.003 0 .005.004.005.01m-.011.017a.18.18 0 0 0-.018.073c0 .005-.003.01-.006.01-.003-.001-.005-.005-.005-.01.001-.01.002-.033-.008-.033s-.012.022-.013.032c0 .005-.003.01-.006.009-.004 0-.006-.004-.006-.01.001-.009.002-.032-.008-.032s-.013.022-.013.032c0 .005-.003.009-.006.009s-.005-.004-.005-.01c.002-.037.015-.05.025-.05.006.001.012.006.016.017.004-.011.011-.015.017-.015.005 0 .01.003.013.01a.138.138 0 0 1 .017-.046c-.01-.02-.025-.032-.042-.033-.033 0-.063.042-.066.096-.004.054.02.1.053.1.033.001.063-.042.066-.096a.144.144 0 0 0-.005-.053" fill="#1eb2e0"/><g fill="#693e4f" stroke="#693e4f" stroke-width=".003" stroke-miterlimit="22.926"><path d="M3.527 6.498c-.033.006-.448.05-.32.142a.939.939 0 0 0 .113.07c.027.01.148.05.159.052.01.003.099.05.193.016a2.37 2.37 0 0 1 .174-.056c.011-.003.175-.099.186-.11.01-.011.058-.028.052-.065a.238.238 0 0 0-.058-.115.624.624 0 0 0-.168-.063c-.039-.006-.035-.015-.06.01a.342.342 0 0 1-.117.06c-.038.013-.066.027-.13.045-.065.017-.16.02-.193.037-.033.016.17-.023.17-.023z"/><path d="M3.295 5.814c.038-.02.056.035.027.05a.029.029 0 0 1-.04-.013c-.008-.018-.002-.03.013-.037zm-.136-.332c.004.015-.006.011-.016.024-.016.02-.021.028-.042.046-.006.005-.022.028-.04.045-.011.011-.012.008-.022.022-.01.016-.03.028-.036.048l-.055.203c-.026.095-.019.046-.017.155v.085c-.003.051.003.113.003.168 0 .058.002.112.003.17 0 .056-.003.122.002.177.065-.003.175.003.265-.01.302-.024.534-.118.52-.115.003-.02-.037-.287-.043-.33l-.045-.331-.089-.193c-.006-.01-.018-.014-.027-.02l-.207-.119-.016-.009c-.049-.028-.043-.016-.035-.029-.038.018-.054.021-.103.013z"/><path d="M2.73 5.763c.031-.016.025.042.005.051-.016.007-.025-.004-.025-.02 0-.017.009-.026.02-.03zm.076.853c0-.003.032 0 .038 0 .02.004.027 0 .044.002.035.004.04.004.05.003 0 0 .002-.03-.001-.173-.001-.058-.003-.112-.003-.17 0-.055-.006-.117-.004-.168v-.085c0-.109-.008-.06.018-.155l.055-.203c.006-.02.025-.032.036-.048.01-.014.01-.01.022-.022.018-.017.034-.04.04-.045.02-.018.026-.026.042-.046.01-.013.02-.009.016-.024-.023-.01-.048-.013-.037-.048l-.127-.018c.03-.002.01 0 .017-.01H3c-.018.007-.023.002-.042.012l-.376.179c-.091.046-.06.01-.103.1-.01.023-.062.122-.066.137l-.007.093c-.002.03-.008.065-.01.095l-.034.376c.013.008.14.147.162.168.015.014.115.023.136.027.04.007.111.011.146.023zm1.075-.212l.022.007c.025.015.03.008.038.017l.05.034c.007.005.005.004.01.01.136.211-.393.302-.548.235-.09-.04-.176-.073-.206-.092l-.005-.001-.003-.002c-.002 0-.002-.001-.005-.009-.012.005-.014.012-.03.013l-.032.001c-.016.003-.052.01-.06-.008l-.016.012a.509.509 0 0 1-.096 0l-.015-.002h-.004l.004.004c.015.014.025.015.043.026l.124.064.026.011.036.017c.08.036.15.064.237.08.043.009.094.013.134.018a.787.787 0 0 0 .267-.03l.029-.01.053-.019c.078-.033.124-.052.2-.099.028-.017.04-.023.067-.045.043-.036.07-.062.068-.122 0-.054-.054-.105-.098-.131l-.047-.03a2.409 2.409 0 0 1-.024-.012l-.053-.024c-.063-.026-.098-.057-.108-.037-.004.008.003.03.005.06l-.011.015a.108.108 0 0 1-.032.035c-.001 0-.019.009-.02.014z"/><path d="M4.047 6.317l.053.024.024.013.047.029c.044.026.098.077.098.131.001.06-.025.086-.068.122-.027.022-.04.028-.067.045a1.297 1.297 0 0 1-.2.1L3.88 6.8l-.029.009a.787.787 0 0 1-.267.03c-.04-.005-.091-.01-.134-.017a1.01 1.01 0 0 1-.237-.08l-.036-.018-.026-.011-.124-.064c-.018-.011-.028-.012-.043-.026l-.004-.004-.003.003c-.032 0-.058 0-.09-.003-.017-.002-.024 0-.044-.003a.136.136 0 0 0-.038 0c0 .005-.004.001.008.01l.042.031c.06.043.096.066.163.103l.017.008.163.076c.135.052.296.092.448.084a1.567 1.567 0 0 0 .308-.077 2.28 2.28 0 0 0 .206-.083c.08-.04.237-.124.252-.223v-.03a.139.139 0 0 0-.043-.077c-.077-.078-.327-.183-.44-.205.002.01.005.016.005.024 0 .006-.002.03.003.03a.47.47 0 0 1 .11.03zM3 5.406l-.024.006c-.001 0 .015.002.019.004l.127.018c.037-.034.15-.037.15.016.014-.004.235.03.281.036l.047.007c.025.004.043.016.048.004l-.295-.122c-.03-.013-.038-.008-.082-.001l-.091.011-.18.021zm.295.408c-.015.007-.021.019-.014.037a.029.029 0 0 0 .041.013c.029-.015.011-.07-.027-.05zm-.565-.051c-.011.005-.02.014-.02.032 0 .015.01.026.025.02.02-.01.026-.068-.006-.052zm1.001-.083c-.017.029.006.065.025.054.018-.01.012-.058-.025-.053z"/><path d="M3.425 6.31c0 .01-.007.017-.017.017a.018.018 0 0 1-.018-.018c0-.02-.003-.065-.035-.065-.031 0-.034.046-.034.065 0 .01-.008.018-.018.018h-.002a.018.018 0 0 1-.018-.018c0-.02-.003-.065-.034-.065-.032 0-.035.046-.035.065 0 .01-.008.018-.018.018a.018.018 0 0 1-.017-.018c0-.074.036-.1.07-.1.02 0 .04.008.053.03a.062.062 0 0 1 .097-.012.2.2 0 0 1 .044-.092.191.191 0 0 0-.141-.062.194.194 0 0 0-.193.195c0 .107.086.195.193.195a.194.194 0 0 0 .163-.3.236.236 0 0 0-.04.146zm-.207.047h.004v.005a.015.015 0 0 1 .004-.004.012.012 0 0 1 .006-.002.01.01 0 0 1 .008.003l.002.004a.015.015 0 0 1 .005-.005.011.011 0 0 1 .006-.002.01.01 0 0 1 .01.006v.026H3.26v-.025a.006.006 0 0 0-.003-.003.007.007 0 0 0-.004-.001c-.002 0-.003 0-.005.002a.01.01 0 0 0-.003.004.029.029 0 0 0-.001.01v.012H3.24v-.016l-.001-.008a.006.006 0 0 0-.002-.003.007.007 0 0 0-.004-.001c-.002 0-.004 0-.006.002a.01.01 0 0 0-.003.004.024.024 0 0 0-.001.009v.013h-.004v-.031zm.081.02l.004.002a.018.018 0 0 1-.004.005.015.015 0 0 1-.01.004.014.014 0 0 1-.012-.005.017.017 0 0 1-.005-.01c0-.005.002-.008.004-.011a.014.014 0 0 1 .012-.006c.005 0 .01.002.012.006a.017.017 0 0 1 .004.01h-.028c0 .004.002.007.004.01a.01.01 0 0 0 .008.003.013.013 0 0 0 .008-.003.018.018 0 0 0 .003-.005zm0-.008a.01.01 0 0 0-.006-.008.012.012 0 0 0-.005-.001.011.011 0 0 0-.008.003.013.013 0 0 0-.003.006h.022zm.014-.012h.004v.006a.014.014 0 0 1 .012-.006c.005 0 .008 0 .011.004a.016.016 0 0 1 .005.011.016.016 0 0 1-.004.012.015.015 0 0 1-.012.004l-.006-.001a.017.017 0 0 1-.006-.005V6.4h-.004v-.042zm.016.003a.011.011 0 0 0-.008.003.012.012 0 0 0-.004.01c0 .002 0 .004.002.006a.012.012 0 0 0 .01.006c.002 0 .004 0 .006-.002a.012.012 0 0 0 .004-.005.013.013 0 0 0-.004-.016.012.012 0 0 0-.006-.002zm.028-.002h-.003v-.013h.004v.013zm.027.002l-.003.003-.006-.003-.003.001-.002.003.001.003.005.003a.018.018 0 0 1 .006.005.009.009 0 0 1-.001.011.009.009 0 0 1-.007.002.011.011 0 0 1-.009-.004l.003-.003c.002.002.004.004.006.004s.003 0 .004-.002a.005.005 0 0 0 0-.007l-.004-.003a.016.016 0 0 1-.006-.004.008.008 0 0 1-.001-.005c0-.002 0-.004.002-.006a.008.008 0 0 1 .006-.002c.003 0 .006.001.009.004zm.113-.233a.02.02 0 0 1-.019.019.019.019 0 0 1-.018-.019c0-.01.008-.018.018-.018.01 0 .019.008.019.018zm.234-.447c.037-.004.043.045.025.054-.02.011-.042-.025-.025-.053zm-.47-.21c-.007.012-.013 0 .036.028l.016.01.207.119c.009.005.021.01.027.019l.09.193.044.33c.006.044.046.31.044.33.02.001.061-.03.081-.04l.042-.028.007-.006.015-.01.007-.005.002-.003.002-.003c.001-.005.019-.014.02-.014a.108.108 0 0 0 .032-.035l.011-.014c-.002-.032-.007-.053-.009-.084-.003-.049-.012-.1-.016-.15l-.012-.114-.022-.234c-.005-.047.009-.026-.045-.08l-.174-.175a.07.07 0 0 0-.02-.008.828.828 0 0 1-.046-.003l-.047-.007c-.046-.006-.267-.04-.281-.036-.003.015-.005.008-.01.02z"/><path d="M3.199 5.405c.044 0 .08.019.08.042 0 .024-.036.043-.08.043-.044 0-.08-.02-.08-.043 0-.023.036-.042.08-.042z"/></g><path d="M3.533 6.454c-.033.006-.444.049-.317.14a.932.932 0 0 0 .112.067c.026.011.146.05.157.052.01.003.098.049.191.016a2.66 2.66 0 0 1 .173-.056c.011-.002.173-.097.184-.107.01-.011.058-.028.052-.065a.232.232 0 0 0-.058-.112.622.622 0 0 0-.166-.062c-.038-.006-.035-.014-.06.01a.34.34 0 0 1-.115.06c-.038.011-.066.026-.13.043-.064.017-.158.02-.19.036-.033.016.167-.022.167-.022" fill="#d2b69a"/><path d="M3.303 5.783c.038-.019.055.034.027.05a.029.029 0 0 1-.04-.013c-.008-.019-.001-.03.013-.037zm-.134-.325c.003.014-.006.01-.016.023-.016.02-.022.028-.042.045-.007.005-.022.027-.04.045-.011.01-.012.007-.021.02-.011.016-.03.029-.036.048l-.055.199c-.026.093-.018.045-.017.152v.083c-.002.05.003.112.004.165l.002.167c.001.055-.002.12.002.173.065-.002.173.003.262-.009.3-.024.53-.116.517-.114.002-.02-.037-.28-.043-.324l-.045-.324-.088-.189c-.006-.009-.018-.014-.027-.019l-.205-.117-.016-.008c-.048-.028-.043-.017-.035-.03a.133.133 0 0 1-.101.014" fill="#baa58a"/><path d="M2.743 5.733c.031-.016.025.04.005.05-.015.007-.024-.004-.024-.019 0-.017.008-.026.019-.03zm.076.836c0-.002.032 0 .037 0 .02.004.027.001.043.003.036.004.04.003.05.003 0 0 .002-.03 0-.17a4.65 4.65 0 0 1-.003-.167c0-.053-.006-.115-.004-.165V5.99c-.001-.107-.009-.059.017-.152l.055-.199c.006-.02.025-.032.036-.047.01-.014.01-.01.021-.021.018-.018.033-.04.04-.045.02-.017.026-.025.042-.045.01-.012.019-.009.016-.023-.024-.01-.048-.014-.037-.047l-.126-.019c.03 0 .01 0 .017-.009h-.012c-.018.007-.023.002-.042.011l-.372.176c-.09.046-.06.01-.102.099-.011.022-.062.119-.065.133l-.008.092c-.001.03-.007.064-.009.093l-.034.368c.012.009.138.145.16.166.015.013.114.023.135.026.04.007.11.01.145.022" fill="#d6b996"/><path d="M3.884 6.362l.021.006c.025.015.03.009.038.018l.05.033c.007.005.005.003.01.01.134.206-.39.296-.544.23-.089-.039-.173-.072-.203-.09l-.005-.002-.004-.001-.004-.01c-.012.006-.015.013-.03.013-.014 0-.019 0-.032.002-.016.002-.051.009-.059-.008l-.016.011a.51.51 0 0 1-.095 0l-.015-.001c0-.002-.002 0-.004 0l.004.004c.015.013.025.014.042.024l.124.063c.01.005.017.007.025.012l.036.017a.998.998 0 0 0 .235.078c.042.008.093.012.132.017.07.01.197-.008.265-.03l.029-.008.052-.02a1.29 1.29 0 0 0 .198-.096c.028-.017.04-.023.067-.045.042-.035.068-.061.067-.119 0-.054-.054-.103-.097-.129l-.046-.029A2.301 2.301 0 0 1 4.1 6.3l-.052-.023c-.062-.027-.097-.056-.107-.037-.004.008.003.029.005.06l-.01.014a.106.106 0 0 1-.032.033c-.002.001-.019.01-.02.015" fill="#b7a287"/><path d="M4.048 6.277L4.1 6.3l.025.012.046.029c.043.026.097.075.097.129.001.058-.025.084-.067.119-.028.022-.04.028-.067.045a1.29 1.29 0 0 1-.198.097l-.052.019-.029.009a.787.787 0 0 1-.265.03c-.04-.006-.09-.01-.132-.018a1.007 1.007 0 0 1-.235-.078l-.036-.017c-.008-.005-.015-.007-.025-.012l-.124-.063c-.017-.01-.027-.01-.042-.024l-.004-.005-.003.003c-.032 0-.057 0-.09-.003-.016-.002-.023.001-.043-.002a.137.137 0 0 0-.037 0c0 .004-.004 0 .007.01l.042.03c.06.042.095.065.162.101l.017.008.16.075c.134.05.294.09.445.082a1.566 1.566 0 0 0 .305-.076c.035-.01.17-.064.204-.081.08-.04.235-.122.25-.22V6.47a.136.136 0 0 0-.043-.075c-.076-.076-.324-.18-.436-.2.002.008.005.014.005.023 0 .005-.002.03.003.03a.47.47 0 0 1 .108.029" fill="#bba68c"/><path d="M3.01 5.383l-.023.005.019.004.126.019c.036-.034.147-.037.148.015.014-.004.234.03.279.035l.046.007c.025.004.043.016.047.004l-.292-.12c-.03-.012-.037-.007-.08-.001l-.091.012-.178.02z" fill="#bca88d"/><path d="M3.303 5.783c-.014.007-.021.018-.014.037a.029.029 0 0 0 .041.012c.028-.015.011-.068-.027-.05m-.56-.049a.035.035 0 0 0-.02.031c0 .015.01.026.025.02.02-.01.026-.067-.005-.05m.992-.081c-.017.027.006.062.025.052.017-.01.011-.057-.025-.052" fill="#844b33"/><path d="M3.735 5.653c.036-.005.042.042.025.052-.02.01-.042-.025-.025-.052zm-.465-.208c-.008.012-.013 0 .035.029l.016.008.205.117c.009.005.021.01.027.02l.088.188.045.324c.006.043.045.305.043.324.02 0 .06-.03.08-.04l.042-.027.007-.006.015-.01c.006-.003.003 0 .007-.005l.002-.003.002-.002c.001-.005.018-.014.02-.015a.106.106 0 0 0 .031-.033l.011-.014c-.002-.031-.007-.052-.009-.082-.003-.048-.012-.098-.016-.147l-.011-.112c-.009-.077-.014-.155-.022-.23-.005-.046.009-.026-.045-.079l-.172-.171a.054.054 0 0 0-.02-.007.825.825 0 0 1-.092-.01 3.773 3.773 0 0 0-.279-.036c-.003.015-.005.008-.01.019" fill="#d6b996"/><path d="M3.208 5.382c.043 0 .079.018.079.041 0 .023-.036.042-.079.042-.044 0-.079-.019-.079-.042 0-.023.035-.041.079-.041z" fill="#844b33" stroke="#844b33" stroke-width=".003" stroke-miterlimit="22.926"/><g fill="#693e4f"><path d="M6.213 2.556c-.103.042-.136.2-.074.354.063.154.197.245.3.203.103-.042.136-.2.073-.354-.062-.154-.196-.245-.3-.203"/><path d="M6.145 2.613l.043-.048c0-.001.095-.006.186.086.09.091.193.264.09.448-.263.155-.319-.486-.319-.486"/><path d="M6.638 3.118c-.008.006.111 0 .195-.064.071-.053.2-.245.094-.349-.034-.034.024-.188.026-.259.005-.13-.008-.186-.008-.186l-.034.004-.002-.059-.027-.189L6.92 2s-.126-.352-.263-.473c-.137-.122-.388-.234-.575-.065-.186.17-.126.403-.139.404l-.03.003.035.29.04-.007a1.176 1.176 0 0 0 .19.51c.023-.008.11.002.173.075.073.084.14.433-.089.39-.175-.032-.254-.177-.285-.301-.005-.023.01-.086.01-.086-.002-.029-.002-.039-.011-.058-.125-.27-.185-.464-.171-.47l.04-.015-.026-.306-.035.005s.037-.526.433-.45c.397.076.523.53.523.53l.013.073.037-.003.024.245-.03.01c.02.086.011.145-.016.285 0 0-.489.176-.13.533"/><path d="M6.752 2.566c.092.032.128.17.08.308-.048.137-.161.223-.253.19-.092-.031-.128-.169-.08-.306.047-.138.16-.224.253-.192"/><path d="M6.646 2.665c.044.015.062.081.039.147-.023.066-.078.107-.122.092-.044-.016-.061-.082-.038-.148.023-.066.077-.107.121-.091m-.513.149c.035-.02.087.008.117.062.03.054.025.113-.01.132-.034.02-.086-.009-.116-.062-.03-.054-.025-.113.01-.132"/></g><g fill="#292929"><path d="M6.246 2.556c-.103.042-.136.2-.074.354.062.154.197.245.3.203.103-.042.136-.2.073-.354-.062-.154-.196-.245-.3-.203"/><path d="M6.178 2.613l.043-.048c0-.001.095-.006.186.086.09.091.192.264.09.448-.263.155-.319-.486-.319-.486"/></g><path d="M6.67 3.118c-.007.006.112 0 .196-.064.071-.053.2-.245.094-.349-.034-.034.024-.188.026-.259.005-.13-.008-.186-.008-.186l-.034.004-.002-.059-.027-.189L6.952 2s-.126-.352-.263-.473c-.137-.122-.388-.234-.575-.065-.186.17-.126.403-.139.404l-.03.003.035.29.04-.007a1.176 1.176 0 0 0 .19.51c.023-.008.11.002.173.075.073.084.14.433-.089.39-.175-.032-.254-.177-.285-.301-.005-.023.01-.086.01-.086-.002-.029-.002-.039-.011-.058-.125-.27-.185-.464-.171-.47l.04-.015-.026-.306-.035.005s.037-.526.433-.45c.397.076.523.53.523.53l.013.073.037-.003.024.245-.03.01c.02.086.011.145-.016.285 0 0-.489.176-.13.533" fill="#606266"/><path d="M6.785 2.566c.092.032.128.17.08.308-.048.137-.161.223-.253.19-.092-.031-.128-.169-.08-.306.047-.138.16-.224.253-.192" fill="#292929"/><path d="M6.68 2.665c.043.015.06.081.038.147-.023.066-.078.107-.122.092-.044-.016-.061-.082-.038-.148.022-.066.077-.107.121-.091" fill="#292929"/><path d="M6.166 2.814c.035-.02.087.008.117.062.03.054.025.113-.01.132-.034.02-.086-.009-.116-.062-.03-.054-.025-.113.01-.132" fill="#95a6a5"/><path d="M6.398 3.08c.135.149.347.482.169.657a.435.435 0 0 1 .022.022c.134.14-.106.273.085.675.084.178.14.24.017.393-.052.066-.076.217-.03.292a.014.014 0 0 1-.022.016c-.055-.089-.03-.25.033-.328.112-.14.054-.198-.023-.36-.192-.405.036-.547-.08-.67a.387.387 0 0 0-.023-.022.286.286 0 0 1-.027.019c-.14.087-.129-.173.026-.055.168-.163-.044-.484-.166-.62a.014.014 0 1 1 .02-.02zm.125.657c-.097-.068-.099.063-.018.013a.258.258 0 0 0 .018-.013" fill="#292929"/><path d="M6.711 5.26c.013.051.008.025.016.078a.014.014 0 0 1-.028 0c-.008-.046-.003-.023-.014-.068a.014.014 0 0 1 .026-.01" fill="#4d4d4e"/><path d="M6.632 5.126c.02-.005.038-.018.058-.015.016.035.11.183-.004.177l-.028-.008-.039-.132a.018.018 0 0 1-.002-.006v-.009h.001l.001-.001V5.13h.002v-.001h.002v-.001h.001l.001-.001h.007zm.015.025l.035.11a.083.083 0 0 0 .033-.014c-.023-.069-.013-.036-.034-.109-.009.002-.022.009-.034.013m.138-2.133c.16.183.215.177.086.442-.166.34-.18.31-.117.714.02.13.034.193-.078.274a.01.01 0 0 1-.006.007.013.013 0 0 1-.016-.004c-.004-.007-.001-.014.006-.019.106-.07.088-.14.07-.254-.064-.408-.049-.382.119-.726.126-.258.07-.245-.084-.423-.004-.005-.002-.011.003-.014a.013.013 0 0 1 .017.003" fill="#292929"/><path d="M6.74 5.632l-.243-.142.159-.092.244.142-.16.092z" fill="#693e4f"/><path d="M3.81 5.998c0 .01-.005.021-.011.025-.006.003-.011-.003-.011-.013 0-.01.005-.02.011-.024.006-.003.011.002.011.012m-.02.046a.453.453 0 0 0-.026.155c0 .01-.005.02-.01.023h-.001c-.006.003-.01-.002-.01-.012 0-.019-.001-.062-.02-.052-.019.01-.021.056-.022.075 0 .01-.005.02-.01.023h-.002c-.006.004-.01-.001-.01-.01 0-.02-.001-.063-.02-.053-.019.01-.022.056-.022.075 0 .01-.005.02-.01.023-.007.003-.011-.002-.01-.011 0-.072.023-.11.043-.121.012-.007.023-.005.031.012.009-.026.021-.04.033-.047.009-.005.018-.005.026.003a.403.403 0 0 1 .028-.104c-.02-.025-.05-.032-.084-.013-.064.035-.117.148-.119.252-.002.105.048.161.112.126s.117-.148.12-.253a.209.209 0 0 0-.017-.091" fill="#844b33"/></svg>