<svg xmlns="http://www.w3.org/2000/svg" width="106.669" height="106.664" viewBox="0 0 100.00221 99.997219"><path d="M98.045 49.999c0 26.532-21.508 48.041-48.042 48.041-26.533 0-48.046-21.509-48.046-48.041 0-26.534 21.513-48.043 48.046-48.043 26.534 0 48.042 21.509 48.042 48.043z" fill="#fff" fill-opacity=".434"/><path d="M98.045 49.998c0 26.534-21.508 48.042-48.042 48.042-26.533 0-48.046-21.508-48.046-48.042 0-26.533 21.513-48.041 48.046-48.041 26.534 0 48.042 21.508 48.042 48.041z" fill="none" stroke="#fff" stroke-width="3.914" stroke-linecap="round"/><path d="M70.93 50.77L37.894 69.129c-.381.215-.709.24-.982.073-.273-.166-.41-.463-.41-.893V31.687c0-.43.137-.727.41-.893.273-.167.601-.142.982.073l33.036 18.36c.382.214.572.473.572.772 0 .297-.19.556-.572.771z" fill="#fff"/></svg>