<svg xmlns="http://www.w3.org/2000/svg" width="9.526" height="4.9" viewBox="0 0 8.9310227 4.5934878"><defs><clipPath id="l"><path d="M596.923 429.629c-9.848-11.358-27.039-12.581-38.397-2.733-11.357 9.848-12.58 27.04-2.732 38.397 9.848 11.357 27.039 12.58 38.396 2.733 11.358-9.849 12.581-27.04 2.733-38.397" clip-rule="evenodd"/></clipPath><clipPath id="m"><path d="M-338.712 3487.613h12.643v27.81h-12.643v-27.81z"/></clipPath><clipPath id="c"><path d="M0 0h12.643v27.81H0V0z"/></clipPath><clipPath id="a"><path d="M32768.075 32768.044v.03-.03z" clip-rule="evenodd"/></clipPath><linearGradient id="b" gradientUnits="userSpaceOnUse" y2="32768.059" x2="32768.07" y1="32768.059" x1="32768.07"><stop offset="0" stop-color="#373535"/><stop offset=".17" stop-color="#373535"/><stop offset=".65" stop-color="#fff"/><stop offset="1" stop-color="#fff"/></linearGradient><pattern id="d" height="65535" width="65535" patternUnits="userSpaceOnUse" patternTransform="matrix(-.06462 .00473 .00473 .06462 1378.595 1036.22)"><g clip-path="url(#a)"><path d="M32768.075 32768.044v.03-.03z" fill="url(#b)" fill-rule="evenodd"/></g></pattern><mask id="n" height="1" width="1" y="0" x="0" maskUnits="userSpaceOnUse"><g clip-path="url(#c)"><path d="M0 0h12.643v27.81H0V0z" fill="#fff" fill-rule="evenodd"/><path d="M0 0h12.643v27.81H0V0z" fill="url(#d)"/></g></mask><clipPath id="o"><path d="M-338.712 3487.613h12.643v27.81h-12.643v-27.81z"/></clipPath><clipPath id="p"><path d="M-342.128 3487.613h8.606v27.448h-8.606v-27.448z"/></clipPath><clipPath id="e"><path d="M0 0h8.606v27.447H0V0z"/></clipPath><mask id="q" height="1" width="1" y="0" x="0" maskUnits="userSpaceOnUse"><g clip-path="url(#e)"><path d="M0 0h8.606v27.447H0V0z" fill="#fff"/><path d="M0 0h8.606v27.447H0V0z" fill="url(#f)"/></g></mask><clipPath id="r"><path d="M-342.128 3487.613h8.606v27.448h-8.606v-27.448z"/></clipPath><clipPath id="s"><path d="M169.2 3487.613h12.644v27.81H169.2v-27.81z"/></clipPath><clipPath id="g"><path d="M0 0h12.643v27.81H0V0z"/></clipPath><clipPath id="f"><path d="M32768.075 32768.044v.03-.03z"/></clipPath><pattern id="h" height="65535" width="65535" patternUnits="userSpaceOnUse" patternTransform="matrix(.06462 .00473 -.00473 .06462 -2634.52 1036.22)"><g clip-path="url(#f)"><path d="M32768.075 32768.044v.03-.03z" fill="url(#b)"/></g></pattern><mask id="t" height="1" width="1" y="0" x="0" maskUnits="userSpaceOnUse"><g clip-path="url(#g)"><path d="M0 0h12.643v27.81H0V0z" fill="#fff"/><path d="M0 0h12.643v27.81H0V0z" fill="url(#h)"/></g></mask><clipPath id="u"><path d="M169.2 3487.613h12.644v27.81H169.2v-27.81z"/></clipPath><clipPath id="v"><path d="M176.654 3487.613h8.606v27.448h-8.606v-27.448z"/></clipPath><clipPath id="i"><path d="M0 0h8.606v27.447H0V0z"/></clipPath><mask id="w" height="1" width="1" y="0" x="0" maskUnits="userSpaceOnUse"><g clip-path="url(#i)"><path d="M0 0h8.606v27.447H0V0z" fill="#fff"/><path d="M0 0h8.606v27.447H0V0z" fill="url(#j)"/></g></mask><clipPath id="x"><path d="M176.654 3487.613h8.606v27.448h-8.606v-27.448z"/></clipPath><clipPath id="y"><path d="M445.438 259.536l1.279.001v14.318c0 .896.712 2.018 1.56 2.275-.204.06-.422.092-.648.092-1.148 0-2.198-1.063-2.197-2.288l.006-14.398z"/></clipPath><clipPath id="z"><path d="M439.566 259.536l1.278.001v14.318c0 .896.713 2.018 1.56 2.275-.203.06-.421.092-.647.092h-.001c-1.147 0-2.197-1.063-2.196-2.288l.006-14.398z"/></clipPath><clipPath id="A"><path d="M515.524 259.536l-1.278.001v14.318c0 .896-.712 2.018-1.56 2.275.204.06.422.092.648.092 1.147 0 2.197-1.063 2.197-2.288l-.006-14.398z"/></clipPath><clipPath id="B"><path d="M521.338 259.536l-1.279.001v14.318c0 .896-.712 2.018-1.56 2.275.204.06.422.092.648.092 1.147 0 2.197-1.063 2.197-2.288l-.006-14.398z"/></clipPath><clipPath id="C"><path d="M26.259 3469.011h30.207v19.404H26.26v-19.404z"/></clipPath><clipPath id="k"><path d="M0 0h30.208v19.403H0V0z"/></clipPath><mask id="D" height="1" width="1" y="0" x="0" maskUnits="userSpaceOnUse"><g clip-path="url(#k)"><path d="M0 0h30.208v19.403H0V0z" fill="#fff"/><path d="M0 0h30.208v19.403H0V0z" fill="url(#l)"/></g></mask><clipPath id="E"><path d="M26.259 3469.011h30.207v19.404H26.26v-19.404z"/></clipPath><clipPath id="j"><path d="M32768.075 32768.044v.03-.03z"/></clipPath></defs><path d="M4.465 4.593H0C0 2.056 2 0 4.465 0c2.467 0 4.466 2.056 4.466 4.593H4.465z" fill="#0b274c" fill-rule="evenodd"/><path d="M2696.896 751.55l15.266 54.704-.048-.175-.058-.236-.069-.292-.079-.343-.088-.393-.095-.438-.103-.477-.11-.517-.116-.551-.12-.58-.126-.607-.129-.63-.133-.648-.134-.664-.136-.675-.137-.684-.136-.687-.135-.688-.136-.686-.131-.678-.13-.669-.126-.654-.122-.636-.116-.614-.11-.589-.103-.56-.096-.528-.09-.49-.078-.451-.071-.407-.06-.36-16.098-58.856.075.45.09.508.098.564.11.613.12.66.13.7.14.736.144.769.152.794.157.818.163.835.164.848.168.857.17.86.17.86.172.855.17.843.168.831.165.81.161.787.157.759.15.725.146.687.137.645.13.6.119.546.11.49.097.43.086.365.073.294.06.22zm-980.668 46.548zm-264.25-56.744z" fill="#999" fill-rule="evenodd" stroke="#999" stroke-width="4.252" stroke-linecap="round" stroke-linejoin="round" stroke-miterlimit="22.926" transform="matrix(.00237 0 0 -.00233 -2.058 5.941)"/><path d="M1460.42 751.703l262.562 54.673.415.075.422.054.428.032.433.011h987.587l-15.241-54.63H1462.54l-.541-.014-.534-.04-.528-.068-.519-.093zm1397.105-21.062l-16.859 58.886-.058.38-.035.362-.02.349v.342l.01.336.018.34.026.346.031.355.033.372.033.394.027.418.021.45.013.483v.524l-.013.57-.03.619-.025.326-.035.332-.045.336-.054.34-.06.342-.07.344-.076.345-.082.344-.086.342-.09.339-.095.336-.097.33 16.67-56.212.121-.412.117-.422.113-.423.11-.427.101-.43.094-.431.086-.43.076-.428.068-.425.055-.42.045-.415.031-.407.038-.775.016-.711v-.656l-.016-.604-.027-.561-.034-.525-.041-.49-.04-.465-.038-.446-.033-.43-.024-.425-.011-.423v-.425l.024-.437.045-.453.072-.474z" fill="#999" fill-rule="evenodd" stroke="#999" stroke-width="4.252" stroke-linecap="round" stroke-linejoin="round" stroke-miterlimit="22.926" transform="matrix(.00237 0 0 -.00233 -2.058 5.941)"/><path d="M2853.609 751.918l-16.076 54.63h26.714l22.754-54.63h-33.392zm343.725 0l-84.822 54.63h7.581l86.715-54.63h-9.474z" fill="#999" fill-rule="evenodd" stroke="#999" stroke-width="4.252" stroke-linecap="round" stroke-linejoin="round" stroke-miterlimit="22.926" transform="matrix(.00237 0 0 -.00233 -2.058 5.941)"/><path d="M3197.35 750.19l-84.825 54.976-.013 1.382 84.821-54.63.016-1.729zm25.456 1.728l-89.915 54.63h16.76l94.105-54.63h-20.95zm0-1.139l-89.915 54.858v.911l89.915-54.63v-1.14zm606.889 47.319zm264.116-56.744zm-805.764-10.661l-102.963 58.876-.02.383-.015.355-.014.325-.011.293-.01.257-.01.222v.615l-.01.15-.01.178-.013.2-.014.22-.018.242-.022.262-.026.279-.031.294-.034.31-.041.323-.045.336-.051.345-.057.356-.062.364-.07.37-.075.374-.082.378-.09.382-.098.381-.106.382-.114.38-.123.378-.13.37-.14.367-.15.36-.159.349-.17.34-.18.328-.19.315-.439.63-.472.573-.5.518-.517.469-.526.42-.526.37-.518.328-.5.283 101.364-55.037.627-.355.646-.408.659-.464.657-.525.646-.585.625-.65.59-.716.548-.785.239-.395.223-.41.212-.425.2-.437.188-.449.173-.457.166-.465.153-.471.141-.475.133-.477.122-.477.113-.477.103-.473.096-.469.085-.462.079-.455.07-.444.063-.432.058-.42.049-.404.044-.386.038-.37.033-.347.027-.327.023-.303.02-.276.014-.25.01-.22.01-.19v-.54l.01-.227.01-.276.014-.322.016-.366.018-.407.018-.444.023-.479z" fill="#999" fill-rule="evenodd" stroke="#999" stroke-width="4.252" stroke-linecap="round" stroke-linejoin="round" stroke-miterlimit="22.926" transform="matrix(.00237 0 0 -.00233 -2.058 5.941)"/><path d="M3272.702 751.918l-99.894 54.63h648.436l.434-.01.427-.033.423-.054.414-.075 262.428-54.673-.519.093-.527.068-.534.04-.542.014h-810.545z" fill="#999" fill-rule="evenodd" stroke="#999" stroke-width="4.252" stroke-linecap="round" stroke-linejoin="round" stroke-miterlimit="22.926" transform="matrix(.00237 0 0 -.00233 -2.058 5.941)"/><path d="M5.336 1.93h.569v1.329h-.57v-1.33z" fill="#8e5978" fill-rule="evenodd"/><path d="M5.554 1.823h.224V3.26h-.224V1.823z" fill="#8e5978" fill-rule="evenodd"/><path d="M6.63 3.492l-.06.054v.028l.034.028h.074l.182-.168-.17.004-.06.055z" fill="#2e4160" fill-rule="evenodd"/><path d="M2.623 3.332h.604v.853h-.242v-.587h-.022l-.179-.16-.16-.003v-.102zm3.735 0h-.604v.853h.264v-.587l.179-.16.16-.003v-.102z" fill="#818181" fill-rule="evenodd"/><path d="M3.918 2.905a.02.02 0 0 1 .02.02.02.02 0 0 1-.02.02.02.02 0 0 1-.02-.02.02.02 0 0 1 .02-.02z" fill="#74ccd4" fill-rule="evenodd"/><path d="M4.17 3.272v-.705h-.257l-.148-.206v-.437h-.29v.429l-.15.214H3.07v.53l.145.003.174.156v-.072h-.056V3.13h.166v.06l.107-.096.324.005.189.17h.049l.004.002z" fill="#67a5b3" fill-rule="evenodd" stroke="#67a5b3" stroke-width=".01" stroke-linecap="round" stroke-linejoin="round" stroke-miterlimit="22.926"/><path d="M3.328 2.567h-.259V2.49h.05v.016L3.2 2.41l.077.093v-.01h.05v.073zm.794 0h-.21V2.49h.05v.01l.077-.092.083.099V2.49h.049v.077h-.05z" fill="#74ccd4" fill-rule="evenodd" stroke="#74ccd4" stroke-width=".01" stroke-linecap="round" stroke-linejoin="round" stroke-miterlimit="22.926"/><path d="M3.07 2.49l.027-.082.022.083h-.05zm.21 0l.027-.082.022.083h-.05zm.683 0l-.028-.082-.022.083h.05zm.208 0l-.028-.082-.022.083h.05z" fill="#0abab5" fill-rule="evenodd" stroke="#0abab5" stroke-width=".01" stroke-linecap="round" stroke-linejoin="round" stroke-miterlimit="22.926"/><path d="M3.328 2.567h-.259v.53l.145.003.114.102v-.635zm.843 0h-.259V3.1h.017l.189.17h.049l.004.002v-.705z" fill="#5294a5" fill-rule="evenodd" stroke="#5294a5" stroke-width=".01" stroke-linecap="round" stroke-linejoin="round" stroke-miterlimit="22.926"/><path d="M3.557 3.081h.127v-.134a.064.064 0 0 0-.064-.064.064.064 0 0 0-.063.064v.134z" fill="#fdc282" fill-rule="evenodd"/><path d="M3.582 3.116a.1.1 0 0 0-.075.068l.075-.068z" fill="#f28c7d" fill-rule="evenodd" stroke="#f28c7d" stroke-width=".01" stroke-linecap="round" stroke-linejoin="round" stroke-miterlimit="22.926"/><path d="M4.105 3.259v-.08a.064.064 0 1 0-.12-.028l.12.108zm-.657-.128v-.143a.032.032 0 0 0-.032-.031.032.032 0 0 0-.032.031v.143h.063zm.404-.032v-.11a.032.032 0 0 0-.032-.033.032.032 0 0 0-.031.032v.11h.063zm-.063-.265h.063v-.166a.032.032 0 0 0-.032-.031.032.032 0 0 0-.031.031v.166zm-.405 0h.063v-.166a.032.032 0 0 0-.031-.031.032.032 0 0 0-.032.031v.166z" fill="#edee9e" fill-rule="evenodd" stroke="#edee9e" stroke-width=".009" stroke-linecap="round" stroke-linejoin="round" stroke-miterlimit="22.926"/><path d="M3.209 3.06h.036v-.133a.017.017 0 0 0-.018-.018.017.017 0 0 0-.018.018v.134zm-.056 0h.035v-.133a.017.017 0 0 0-.017-.018.017.017 0 0 0-.018.018v.134zm-.011-.192h.044v-.164a.022.022 0 0 0-.022-.022.022.022 0 0 0-.022.022v.164zm.055-.267s-.021.006-.037.027a.141.141 0 0 0-.018.033c.011-.011.039-.015.056.009 0 0 .007-.013.021-.017.014-.003.034.008.034.008s-.007-.02-.021-.036c-.014-.014-.035-.023-.035-.023zm.857.267h.044v-.164a.022.022 0 0 0-.022-.022.022.022 0 0 0-.022.022v.164zm-.068 0h.043v-.164a.022.022 0 0 0-.022-.022.022.022 0 0 0-.021.022v.164zm.054-.267s-.021.006-.037.027a.141.141 0 0 0-.018.033.038.038 0 0 1 .056.009s.008-.013.021-.017c.015-.003.035.008.035.008s-.008-.02-.022-.036a.132.132 0 0 0-.034-.023z" fill="#edee9e" fill-rule="evenodd" stroke="#edee9e" stroke-width=".01" stroke-linecap="round" stroke-linejoin="round" stroke-miterlimit="22.926"/><path d="M3.62 2.411c.02.104.078.156.078.208 0 .052-.02.104-.078.104-.059 0-.078-.052-.078-.104s.059-.104.078-.208z" fill="#fcc22e" fill-rule="evenodd" stroke="#fcc22e" stroke-width=".01" stroke-linecap="round" stroke-linejoin="round" stroke-miterlimit="22.926"/><path d="M4.052 3.06h.036v-.133a.017.017 0 0 0-.018-.018.017.017 0 0 0-.018.018v.134zm-.056 0h.036v-.133a.017.017 0 0 0-.018-.018.017.017 0 0 0-.018.018v.134z" fill="#edee9e" fill-rule="evenodd" stroke="#edee9e" stroke-width=".01" stroke-linecap="round" stroke-linejoin="round" stroke-miterlimit="22.926"/><path d="M3.556 2.304h.127v-.196c0-.056-.062-.118-.062-.118s-.065.062-.065.118v.196z" fill="#edee9e" fill-rule="evenodd" stroke="#edee9e" stroke-width=".009" stroke-linecap="round" stroke-linejoin="round" stroke-miterlimit="22.926"/><path d="M3.731 1.771h-.02l-.092-.086-.093.086H3.51l.11-.364.111.364z" fill="#74ccd4" fill-rule="evenodd" stroke="#74ccd4" stroke-width=".009" stroke-linecap="round" stroke-linejoin="round" stroke-miterlimit="22.926"/><path d="M3.62 1.306v.104-.104z" fill="none" stroke="#fff" stroke-width=".01" stroke-linecap="round" stroke-linejoin="round" stroke-miterlimit="22.926"/><path d="M3.66 1.343h-.085.085z" fill="#fff" fill-rule="evenodd" stroke="#fff" stroke-width=".01" stroke-linecap="round" stroke-linejoin="round" stroke-miterlimit="22.926"/><path d="M3.767 1.916h-.028l.014-.101.014.1z" fill="#0abab5" fill-rule="evenodd" stroke="#0abab5" stroke-width=".006" stroke-linecap="round" stroke-linejoin="round" stroke-miterlimit="22.926"/><path d="M3.51 1.771h.016l.093-.086.093.086h.02v.153H3.51V1.77z" fill="#67a5b3" fill-rule="evenodd" stroke="#67a5b3" stroke-width=".01" stroke-miterlimit="22.926"/><path d="M3.5 1.916h-.028l.014-.101.014.1z" fill="#0abab5" fill-rule="evenodd" stroke="#0abab5" stroke-width=".006" stroke-linecap="round" stroke-linejoin="round" stroke-miterlimit="22.926"/><path d="M3.618 1.764a.057.057 0 1 1 0 .115.057.057 0 0 1 0-.115z" fill="#fff" fill-rule="evenodd" stroke="#fff" stroke-width=".01" stroke-miterlimit="22.926"/><path d="M3.613 1.795v.034h.034" fill="none" stroke="#292929" stroke-width=".01" stroke-linecap="round" stroke-linejoin="round" stroke-miterlimit="22.926"/><path d="M2.145 3.434l.168.004.12.108v.023l-.031.03h-.077l-.18-.164z" fill="#2e4160" fill-rule="evenodd"/><path d="M4.996.864A.322.322 0 1 1 4.51.442a.322.322 0 0 1 .486.422" fill="#e7e7e7" fill-rule="evenodd"/><g clip-path="url(#l)" transform="matrix(.01182 0 0 -.01182 -2.058 5.941)"><g fill-rule="evenodd"><path d="M592.64 414.071a8.348 8.348 0 1 0-8.362 14.45 8.348 8.348 0 0 0 8.362-14.45" fill="#ccc"/><path d="M557.119 448.755a8.348 8.348 0 1 0-8.362 14.45 8.348 8.348 0 0 0 8.362-14.45" fill="#e7e7e7"/></g></g><path d="M4.983.81a.085.085 0 0 1-.117-.032.085.085 0 0 1 .031-.117.085.085 0 0 1 .117.031.086.086 0 0 1-.031.117M4.765.498a.072.072 0 0 1-.097-.026.072.072 0 0 1 .026-.097A.072.072 0 0 1 4.79.4a.072.072 0 0 1-.026.097m.168.061a.05.05 0 0 1-.07-.019.05.05 0 0 1 .02-.07.05.05 0 0 1 .069.019.05.05 0 0 1-.019.07m-.102.1a.038.038 0 0 1-.05-.014.038.038 0 0 1 .014-.05.038.038 0 0 1 .05.013c.01.018.004.04-.013.051m-.09.246a.085.085 0 0 1-.116-.032.085.085 0 0 1 .03-.116.085.085 0 0 1 .117.031c.024.04.01.093-.03.117M4.69.652a.05.05 0 0 1-.069-.018.05.05 0 0 1 .019-.07.05.05 0 0 1 .07.018.05.05 0 0 1-.02.07m-.12.107a.038.038 0 0 1-.05-.014.038.038 0 0 1 .013-.05.038.038 0 0 1 .05.013c.01.018.005.04-.013.05" fill="#ccc" fill-rule="evenodd"/><path d="M4.312 3.39v-.003H4.25h.041v.002h.022z" fill="none" stroke="#292929" stroke-width=".01" stroke-linecap="round" stroke-linejoin="round" stroke-miterlimit="22.926"/><path d="M2.624 3.333h.607v.852h-.048v-.124h-.047v-.112h-.03v.112h-.048v.124h-.074v-.587l-.178-.16-.182-.004v-.101zm.303.213zm0 0l-.12-.108.12.108zm-.303-.112v-.101.101zm.013 0l.18.164h.001l-.132-.119-.04-.037-.01-.007zm.55.336a.102.102 0 1 1-.132 0 .074.074 0 1 1 .132 0z" fill="none" stroke="#818181" stroke-width=".01" stroke-linecap="round" stroke-linejoin="round" stroke-miterlimit="22.926"/><path d="M2.89 3.095h.078l.262.237h-.602l.262-.237z" fill="#213d45" fill-rule="evenodd" stroke="#213d45" stroke-width=".01" stroke-linecap="round" stroke-linejoin="round" stroke-miterlimit="22.926"/><path d="M3.232 4.185h.107v-.343h-.095l.088-.184h.008v-.325h.132-.24v.852z" fill="#4c4c4d" fill-rule="evenodd" stroke="#4c4c4d" stroke-width=".01" stroke-linecap="round" stroke-linejoin="round" stroke-miterlimit="22.926"/><path d="M2.844 3.47h.18v.168h-.04v-.04l-.14-.127zm0 0z" fill="#fcc22e" fill-rule="evenodd" stroke="#fcc22e" stroke-width=".01" stroke-linecap="round" stroke-linejoin="round" stroke-miterlimit="22.926"/><path d="M3.07 3.47h.103v.168H3.07v-.167z" fill="#ebed97" fill-rule="evenodd" stroke="#edee9e" stroke-width=".01" stroke-linecap="round" stroke-linejoin="round" stroke-miterlimit="22.926"/><path d="M2.985 3.675h.039v.142a.182.182 0 0 0-.005.026h-.035v-.168z" fill="#fcc22e" fill-rule="evenodd" stroke="#fcc22e" stroke-width=".01" stroke-linecap="round" stroke-linejoin="round" stroke-miterlimit="22.926"/><path d="M2.985 3.88h.039v.305h-.04V3.88z" fill="none" stroke="#292929" stroke-width=".01" stroke-miterlimit="22.926"/><path d="M3.173 3.934v.113h-.037V3.95h-.03v.098h-.037v-.113a.104.104 0 0 0 .052.015.1.1 0 0 0 .052-.015z" fill="#ebed97" fill-rule="evenodd" stroke="#edee9e" stroke-width=".01" stroke-miterlimit="22.926"/><path d="M2.685 3.42h.49v-.026h-.49v.026z" fill="#fcc22e" fill-rule="evenodd" stroke="#fcc22e" stroke-width=".01" stroke-linecap="round" stroke-linejoin="round" stroke-miterlimit="22.926"/><path d="M2.985 4.185h.039V3.88h-.04v.305z" fill="#fcc22e" fill-rule="evenodd" stroke="#fcc22e" stroke-width=".01" stroke-miterlimit="22.926"/><path d="M2.616 3.184h.057v.107l.044-.04.023-.02v-.047h.043V3.13h-.167v.053z" fill="#818181" fill-rule="evenodd" stroke="#818181" stroke-width=".01" stroke-linecap="round" stroke-linejoin="round" stroke-miterlimit="22.926"/><path d="M6.096 3.095h-.079l-.262.237h.603l-.262-.237z" fill="#213d45" fill-rule="evenodd" stroke="#213d45" stroke-width=".01" stroke-linecap="round" stroke-linejoin="round" stroke-miterlimit="22.926"/><path d="M5.754 4.185l-.096.003.025-.085V3.64h.071v.545zm-.24-.852h.24v.295l-.148-.171.04.047v-.171h-.132z" fill="#4c4c4d" fill-rule="evenodd" stroke="#4c4c4d" stroke-width=".01" stroke-linecap="round" stroke-linejoin="round" stroke-miterlimit="22.926"/><path d="M6.141 3.47h-.18v.168h.057v-.04l.123-.11v-.017z" fill="#fcc22e" fill-rule="evenodd" stroke="#fcc22e" stroke-width=".01" stroke-miterlimit="22.926"/><path d="M5.917 3.47h-.104v.168h.104v-.167zm.101.205h-.056v.141l.005.027h.051v-.168z" fill="#edee9e" fill-rule="evenodd" stroke="#edee9e" stroke-width=".01" stroke-miterlimit="22.926"/><path d="M6.018 3.88h-.056v.305h.056V3.88z" fill="none" stroke="#292929" stroke-width=".005" stroke-miterlimit="22.926"/><path d="M5.917 3.935a.096.096 0 0 1-.088.006c-.006-.002-.011-.003-.016-.007v.112h.037V3.95h.03v.097h.037v-.112z" fill="#ebed97" fill-rule="evenodd" stroke="#edee9e" stroke-width=".01" stroke-miterlimit="22.926"/><path d="M6.057 3.149a.071.071 0 1 0 0 .142.071.071 0 0 0 0-.142z" fill="#edee9e" fill-rule="evenodd" stroke="#213d45" stroke-width=".01" stroke-miterlimit="22.926"/><path d="M6.057 3.149v.142-.142zm-.072.071h.143-.143z" fill="none" stroke="#213d45" stroke-width=".01" stroke-miterlimit="22.926"/><path d="M5.68 3.399h-.034v.105l-.04-.047.074.085V3.4z" fill="#edee9e" fill-rule="evenodd" stroke="#edee9e" stroke-width=".01" stroke-linecap="round" stroke-linejoin="round" stroke-miterlimit="22.926"/><path d="M6.017 3.88v.305h-.055V3.88h.055z" fill="#fcc22e" fill-rule="evenodd" stroke="#fcc22e" stroke-width=".01" stroke-miterlimit="22.926"/><path d="M6.37 3.184h-.057v.107l-.045-.04-.022-.02v-.047h-.044V3.13h.167v.053z" fill="#818181" fill-rule="evenodd" stroke="#818181" stroke-width=".01" stroke-linecap="round" stroke-linejoin="round" stroke-miterlimit="22.926"/><path d="M5.302 3.095l-.245.005-.259.233h.241l.263-.237z" fill="#2e4160" fill-rule="evenodd"/><path d="M4.798 3.456v-.124h.241v.124h-.24z" fill="#693e4f" fill-rule="evenodd"/><path d="M4.964 3.399H4.86v.058h.104v-.058z" fill="#fcc22e" fill-rule="evenodd" stroke="#fcc22e" stroke-width=".01" stroke-linecap="round" stroke-linejoin="round" stroke-miterlimit="22.926"/><path d="M5.597 3.291v-.107h.057" fill="none" stroke="#292929" stroke-width=".01" stroke-linecap="round" stroke-linejoin="round" stroke-miterlimit="22.926"/><path d="M7.098 3.598h-.42v.59h.42v-.59z" fill="#3593a9" fill-rule="evenodd" stroke="#3593a9" stroke-width=".01" stroke-linecap="round" stroke-linejoin="round" stroke-miterlimit="22.926"/><path d="M6.914 3.434H6.86l-.18.164h.415l-.18-.164z" fill="#213d45" fill-rule="evenodd" stroke="#213d45" stroke-width=".01" stroke-linecap="round" stroke-linejoin="round" stroke-miterlimit="22.926"/><path d="M6.86 3.434l-.17.004-.096.087-.024.022v.023l.031.028h.078l.181-.163zm-.182.164l.182-.164-.17.004-.12.108v.024l.031.028h.077z" fill="#2e4160" fill-rule="evenodd" stroke="#2e4160" stroke-width=".01" stroke-linecap="round" stroke-linejoin="round" stroke-miterlimit="22.926"/><path d="M6.678 4.187h-.074v-.589h.074v.59z" fill="#274359" fill-rule="evenodd" stroke="#274359" stroke-width=".01" stroke-linecap="round" stroke-linejoin="round" stroke-miterlimit="22.926"/><path d="M7.056 3.694h-.072v.115h.072v-.115z" fill="#edee9e" fill-rule="evenodd" stroke="#edee9e" stroke-width=".01" stroke-miterlimit="22.926"/><path d="M6.946 3.694h-.124v.115h.124v-.115z" fill="#fcc22e" fill-rule="evenodd" stroke="#fcc22e" stroke-width=".01" stroke-miterlimit="22.926"/><path d="M6.79 3.694h-.07v.115h.071v-.115z" fill="#edee9e" fill-rule="evenodd" stroke="#edee9e" stroke-width=".01" stroke-miterlimit="22.926"/><path d="M7.056 3.835h-.072v.116h.072v-.116z" fill="#fcc22e" fill-rule="evenodd" stroke="#fcc22e" stroke-width=".01" stroke-miterlimit="22.926"/><path d="M6.946 3.835h-.124v.116h.124v-.116z" fill="#edee9e" fill-rule="evenodd" stroke="#edee9e" stroke-width=".01" stroke-miterlimit="22.926"/><path d="M6.79 3.835h-.07v.116h.071v-.116z" fill="#fcc22e" fill-rule="evenodd" stroke="#fcc22e" stroke-width=".01" stroke-miterlimit="22.926"/><path d="M7.056 3.976h-.072v.116h.072v-.116zm-.266 0h-.07v.116h.071v-.116z" fill="#edee9e" fill-rule="evenodd" stroke="#edee9e" stroke-width=".01" stroke-miterlimit="22.926"/><path d="M7.056 3.658h-.339v-.017h.339v.017z" fill="#ebed97" fill-rule="evenodd" stroke="#edee9e" stroke-width=".01" stroke-miterlimit="22.926"/><path d="M6.887 3.471a.05.05 0 1 0 0 .099.05.05 0 0 0 0-.099z" fill="#fcc22e" fill-rule="evenodd" stroke="#213d45" stroke-width=".01" stroke-miterlimit="22.926"/><path d="M6.887 3.471v.099-.099zm-.049.049h.098-.098z" fill="none" stroke="#213d45" stroke-width=".01" stroke-miterlimit="22.926"/><path d="M6.627 3.644h-.023v.116h.023v-.116z" fill="#edee9e" fill-rule="evenodd" stroke="#edee9e" stroke-width=".01" stroke-miterlimit="22.926"/><path d="M6.627 3.8h-.023v.116h.023V3.8z" fill="#fcc22e" fill-rule="evenodd" stroke="#fcc22e" stroke-width=".01" stroke-miterlimit="22.926"/><path d="M6.627 3.957h-.023v.115h.023v-.115z" fill="#edee9e" fill-rule="evenodd" stroke="#edee9e" stroke-width=".01" stroke-miterlimit="22.926"/><path d="M6.627 4.103h-.023v.074h.023v-.074z" fill="#fcc22e" fill-rule="evenodd" stroke="#fcc22e" stroke-width=".01" stroke-miterlimit="22.926"/><path d="M7.103 3.496h-.039v.074l-.046-.042v-.032h-.03v-.037h.115v.037z" fill="#818181" fill-rule="evenodd" stroke="#818181" stroke-width=".01" stroke-linecap="round" stroke-linejoin="round" stroke-miterlimit="22.926"/><path d="M6.604 3.598h-.42v.59h.42v-.59z" fill="#3593a9" fill-rule="evenodd" stroke="#3593a9" stroke-width=".01" stroke-linecap="round" stroke-linejoin="round" stroke-miterlimit="22.926"/><path d="M6.42 3.434h-.054l-.181.164h.416l-.18-.164z" fill="#213d45" stroke="#213d45" stroke-width=".01" stroke-linecap="round" stroke-linejoin="round" stroke-miterlimit="22.926"/><path d="M6.184 4.187h-.166v-.589h.166v.59z" fill="#274359" fill-rule="evenodd" stroke="#274359" stroke-width=".01" stroke-linecap="round" stroke-linejoin="round" stroke-miterlimit="22.926"/><path d="M6.562 3.694H6.49v.115h.072v-.115z" fill="#edee9e" fill-rule="evenodd" stroke="#edee9e" stroke-width=".01" stroke-miterlimit="22.926"/><path d="M6.452 3.694h-.124v.115h.124v-.115z" fill="#f8aea0" fill-rule="evenodd" stroke="#f8aea0" stroke-width=".01" stroke-miterlimit="22.926"/><path d="M6.297 3.694h-.072v.115h.072v-.115z" fill="#edee9e" fill-rule="evenodd" stroke="#edee9e" stroke-width=".01" stroke-miterlimit="22.926"/><path d="M6.562 3.835H6.49v.116h.072v-.116z" fill="#f8aea0" fill-rule="evenodd" stroke="#f8aea0" stroke-width=".01" stroke-miterlimit="22.926"/><path d="M6.452 3.835h-.124v.116h.124v-.116z" fill="#edee9e" fill-rule="evenodd" stroke="#edee9e" stroke-width=".01" stroke-miterlimit="22.926"/><path d="M6.297 3.835h-.072v.116h.072v-.116z" fill="#f8aea0" fill-rule="evenodd" stroke="#f8aea0" stroke-width=".01" stroke-miterlimit="22.926"/><path d="M6.562 3.976H6.49v.116h.072v-.116z" fill="#edee9e" fill-rule="evenodd" stroke="#edee9e" stroke-width=".01" stroke-miterlimit="22.926"/><path d="M6.452 3.976h-.124v.198h.124v-.198z" fill="none" stroke="#edee9e" stroke-width=".01" stroke-miterlimit="22.926"/><path d="M6.297 3.976h-.072v.116h.072v-.116z" fill="#edee9e" fill-rule="evenodd" stroke="#edee9e" stroke-width=".01" stroke-miterlimit="22.926"/><path d="M6.561 3.659h-.338V3.64h.338v.018z" fill="#fcc22e" fill-rule="evenodd" stroke="#fcc22e" stroke-width=".01" stroke-miterlimit="22.926"/><path d="M6.394 3.471a.05.05 0 1 0 0 .099.05.05 0 0 0 0-.099z" fill="#edee9e" fill-rule="evenodd" stroke="#213d45" stroke-width=".01" stroke-miterlimit="22.926"/><path d="M6.394 3.471v.099m-.05-.05h.099" fill="none" stroke="#213d45" stroke-width=".01" stroke-miterlimit="22.926"/><path d="M6.133 3.644h-.072v.116h.072v-.116z" fill="#fcc22e" fill-rule="evenodd" stroke="#fcc22e" stroke-width=".01" stroke-miterlimit="22.926"/><path d="M6.133 3.8h-.072v.116h.072V3.8z" fill="#ebed97" fill-rule="evenodd" stroke="#edee9e" stroke-width=".01" stroke-miterlimit="22.926"/><path d="M6.133 3.957h-.072v.115h.072v-.115z" fill="#fcc22e" fill-rule="evenodd" stroke="#fcc22e" stroke-width=".01" stroke-miterlimit="22.926"/><path d="M6.133 4.113h-.072v.074h.072v-.074z" fill="#ebed97" fill-rule="evenodd" stroke="#edee9e" stroke-width=".01" stroke-miterlimit="22.926"/><path d="M6.39 4.154h-.062m.242-.584v-.074h.04" fill="none" stroke="#292929" stroke-width=".01" stroke-miterlimit="22.926"/><path d="M2.266 4.387h1.803c.012 0 .022.01.022.022 0 .012-.01.022-.022.022H2.266a.022.022 0 0 1-.022-.022c0-.013.01-.022.022-.022zm-.345 0h.135c.013 0 .022.01.022.022 0 .012-.01.022-.022.022h-.135a.022.022 0 0 1-.022-.022c0-.013.01-.022.022-.022zm4.406 0h.957c.012 0 .022.01.022.022 0 .012-.01.022-.022.022h-.957a.022.022 0 0 1-.022-.022c0-.013.01-.022.022-.022z" fill="#4c4c4d" fill-rule="evenodd" stroke="#4c4c4d" stroke-width=".01" stroke-linecap="round" stroke-linejoin="round" stroke-miterlimit="22.926"/><path d="M5.988 4.387h.135c.012 0 .022.01.022.022 0 .012-.01.022-.022.022h-.135a.022.022 0 0 1-.022-.022c0-.013.01-.022.022-.022z" fill="#213d45" fill-rule="evenodd" stroke="#213d45" stroke-width=".01" stroke-linecap="round" stroke-linejoin="round" stroke-miterlimit="22.926"/><path d="M2.819 4.187h.166v-.589h-.166v.59z" fill="#274359" fill-rule="evenodd" stroke="#274359" stroke-width=".01" stroke-linecap="round" stroke-linejoin="round" stroke-miterlimit="22.926"/><path d="M2.403 3.598h.42v.59h-.42v-.59z" fill="#3593a9" fill-rule="evenodd"/><path d="M1.905 3.598h.42v.59h-.42v-.59z" fill="#3593a9" fill-rule="evenodd" stroke="#3593a9" stroke-width=".01" stroke-linecap="round" stroke-linejoin="round" stroke-miterlimit="22.926"/><path d="M2.089 3.434h.054l.18.164h-.415l.18-.164z" fill="#213d45" fill-rule="evenodd" stroke="#213d45" stroke-width=".01" stroke-linecap="round" stroke-linejoin="round" stroke-miterlimit="22.926"/><path d="M2.143 3.434h.002l.168.004.097.088.023.02v.024l-.031.029h-.077l-.11-.1-.072-.064zm.347.164h-.165l-.182-.164.17.004.12.108v.024l-.031.028h.088z" fill="none" stroke="#2e4160" stroke-width=".01" stroke-linecap="round" stroke-linejoin="round" stroke-miterlimit="22.926"/><path d="M2.325 4.187h.074v-.589h.092-.166v.59z" fill="#274359" fill-rule="evenodd" stroke="#274359" stroke-width=".01" stroke-linecap="round" stroke-linejoin="round" stroke-miterlimit="22.926"/><path d="M1.947 3.694h.072v.115h-.072v-.115z" fill="#fcc22e" fill-rule="evenodd" stroke="#fcc22e" stroke-width=".01" stroke-linecap="round" stroke-linejoin="round" stroke-miterlimit="22.926"/><path d="M2.057 3.694h.124v.115h-.124v-.115z" fill="#edee9e" fill-rule="evenodd" stroke="#edee9e" stroke-width=".01" stroke-linecap="round" stroke-linejoin="round" stroke-miterlimit="22.926"/><path d="M2.213 3.694h.071v.115h-.071v-.115z" fill="#fcc22e" fill-rule="evenodd" stroke="#fcc22e" stroke-width=".01" stroke-linecap="round" stroke-linejoin="round" stroke-miterlimit="22.926"/><path d="M1.947 3.835h.072v.116h-.072v-.116z" fill="#edee9e" fill-rule="evenodd" stroke="#edee9e" stroke-width=".01" stroke-linecap="round" stroke-linejoin="round" stroke-miterlimit="22.926"/><path d="M2.057 3.835h.124v.116h-.124v-.116z" fill="#fcc22e" fill-rule="evenodd" stroke="#fcc22e" stroke-width=".01" stroke-linecap="round" stroke-linejoin="round" stroke-miterlimit="22.926"/><path d="M2.213 3.835h.071v.116h-.071v-.116z" fill="#edee9e" fill-rule="evenodd" stroke="#edee9e" stroke-width=".01" stroke-linecap="round" stroke-linejoin="round" stroke-miterlimit="22.926"/><path d="M1.947 3.976h.072v.116h-.072v-.116z" fill="#fcc22e" fill-rule="evenodd" stroke="#fcc22e" stroke-width=".01" stroke-miterlimit="22.926"/><path d="M2.057 3.976h.124v.204h-.124v-.204z" fill="#213d45" fill-rule="evenodd" stroke="#213d45" stroke-width=".01" stroke-miterlimit="22.926"/><path d="M2.213 3.976h.071v.116h-.071v-.116z" fill="#fcc22e" fill-rule="evenodd" stroke="#fcc22e" stroke-width=".01" stroke-miterlimit="22.926"/><path d="M1.947 3.658h.339v-.017h-.339v.017z" fill="#ebed97" fill-rule="evenodd" stroke="#edee9e" stroke-width=".01" stroke-linecap="round" stroke-linejoin="round" stroke-miterlimit="22.926"/><path d="M2.207 3.492h.166-.166zm.061.053h.153-.153zm.153 0h.012-.012z" fill="none" stroke="#29333b" stroke-width=".01" stroke-linecap="round" stroke-linejoin="round" stroke-miterlimit="22.926"/><path d="M2.116 3.471a.05.05 0 1 1 0 .099.05.05 0 0 1 0-.099z" fill="#fcc22e" fill-rule="evenodd" stroke="#213d45" stroke-width=".01" stroke-linecap="round" stroke-linejoin="round" stroke-miterlimit="22.926"/><path d="M2.116 3.471v.099-.099zm.049.049h-.098.098z" fill="none" stroke="#213d45" stroke-width=".01" stroke-linecap="round" stroke-linejoin="round" stroke-miterlimit="22.926"/><path d="M2.376 3.644H2.4v.116h-.023v-.116z" fill="#fdc282" fill-rule="evenodd" stroke="#fdc282" stroke-width=".01" stroke-linecap="round" stroke-linejoin="round" stroke-miterlimit="22.926"/><path d="M2.376 3.8H2.4v.116h-.023V3.8z" fill="#edee9e" fill-rule="evenodd" stroke="#edee9e" stroke-width=".01" stroke-linecap="round" stroke-linejoin="round" stroke-miterlimit="22.926"/><path d="M2.376 3.957H2.4v.115h-.023v-.115z" fill="#fdc282" fill-rule="evenodd" stroke="#fdc282" stroke-width=".01" stroke-miterlimit="22.926"/><path d="M2.376 4.113H2.4v.074h-.023v-.074z" fill="#edee9e" fill-rule="evenodd" stroke="#edee9e" stroke-width=".01" stroke-miterlimit="22.926"/><path d="M2.122 3.971v.177l-.065.034h.13V3.97h-.065z" fill="#edee9e" fill-rule="evenodd"/><path d="M1.9 3.496h.04v.072l.045-.041v-.031h.03v-.037H1.9v.037z" fill="#818181" fill-rule="evenodd" stroke="#818181" stroke-width=".01" stroke-linecap="round" stroke-linejoin="round" stroke-miterlimit="22.926"/><path d="M2.441 3.694h.072v.115h-.072v-.115z" fill="#f8aea0" fill-rule="evenodd" stroke="#f8aea0" stroke-width=".01" stroke-linecap="round" stroke-linejoin="round" stroke-miterlimit="22.926"/><path d="M2.551 3.694h.124v.115h-.124v-.115z" fill="#edee9e" fill-rule="evenodd" stroke="#edee9e" stroke-width=".01" stroke-linecap="round" stroke-linejoin="round" stroke-miterlimit="22.926"/><path d="M2.707 3.694h.071v.115h-.071v-.115z" fill="#f8aea0" fill-rule="evenodd" stroke="#f8aea0" stroke-width=".01" stroke-linecap="round" stroke-linejoin="round" stroke-miterlimit="22.926"/><path d="M2.441 3.835h.072v.116h-.072v-.116z" fill="#edee9e" fill-rule="evenodd" stroke="#edee9e" stroke-width=".01" stroke-linecap="round" stroke-linejoin="round" stroke-miterlimit="22.926"/><path d="M2.551 3.835h.124v.116h-.124v-.116z" fill="#f8aea0" fill-rule="evenodd" stroke="#f8aea0" stroke-width=".01" stroke-linecap="round" stroke-linejoin="round" stroke-miterlimit="22.926"/><path d="M2.707 3.835h.071v.116h-.071v-.116z" fill="#edee9e" fill-rule="evenodd" stroke="#edee9e" stroke-width=".01" stroke-linecap="round" stroke-linejoin="round" stroke-miterlimit="22.926"/><path d="M2.441 3.976h.072v.116h-.072v-.116z" fill="#f28c7d" fill-rule="evenodd" stroke="#f28c7d" stroke-width=".01" stroke-miterlimit="22.926"/><path d="M2.551 3.976h.124v.211h-.124v-.21z" fill="#edee9e" fill-rule="evenodd" stroke="#edee9e" stroke-width=".01" stroke-miterlimit="22.926"/><path d="M2.707 3.976h.071v.116h-.071v-.116z" fill="#f28c7d" fill-rule="evenodd" stroke="#f28c7d" stroke-width=".01" stroke-miterlimit="22.926"/><path d="M2.44 3.659h.34V3.64h-.34v.018z" fill="#fcc22e" fill-rule="evenodd" stroke="#fcc22e" stroke-width=".01" stroke-linecap="round" stroke-linejoin="round" stroke-miterlimit="22.926"/><path d="M2.433 3.57v-.074h-.04" fill="none" stroke="#292929" stroke-width=".01" stroke-linecap="round" stroke-linejoin="round" stroke-miterlimit="22.926"/><path d="M3.059 4.06h.125v.125h-.125v-.124zm2.743.001h.125v.125h-.125v-.125z" fill="#74ccd4" fill-rule="evenodd"/><path d="M5.85 3.95h.03v.11h-.03v-.11z" fill="#693e4f" fill-rule="evenodd" stroke="#693e4f" stroke-width=".01" stroke-linecap="round" stroke-linejoin="round" stroke-miterlimit="22.926"/><path d="M5.802 4.061h.125v.125h-.125v-.125z" fill="none" stroke="#74ccd4" stroke-width=".01" stroke-linecap="round" stroke-linejoin="round" stroke-miterlimit="22.926"/><path d="M2.803 1.758a.02.02 0 0 1 .02.02.02.02 0 0 1-.02.02.02.02 0 0 1-.02-.02.02.02 0 0 1 .02-.02m.195.422a.02.02 0 0 1 .02.019.02.02 0 0 1-.02.02.02.02 0 0 1-.02-.02.02.02 0 0 1 .02-.02zm-.844.096a.02.02 0 0 1 .02.02.02.02 0 0 1-.02.019.02.02 0 0 1-.02-.02.02.02 0 0 1 .02-.02zm.409-.733a.02.02 0 0 1 .02.02.02.02 0 0 1-.02.019.02.02 0 0 1-.02-.02.02.02 0 0 1 .02-.02m-.28 1.428a.02.02 0 0 1 .02.019.02.02 0 0 1-.02.02.02.02 0 0 1-.02-.02.02.02 0 0 1 .02-.02m.912-1.633a.02.02 0 0 1 .02.02.02.02 0 0 1-.02.019.02.02 0 0 1-.02-.02.02.02 0 0 1 .02-.02M2.29 2.521a.02.02 0 0 1 .019.02.02.02 0 0 1-.02.02.02.02 0 0 1-.02-.02.02.02 0 0 1 .02-.02m1.7-1.372a.02.02 0 0 1 .02.02.02.02 0 0 1-.02.02.02.02 0 0 1-.02-.02.02.02 0 0 1 .02-.02M3.463.754a.02.02 0 0 1 .02.02.02.02 0 0 1-.02.02.02.02 0 0 1-.02-.02.02.02 0 0 1 .02-.02M4.168.46a.02.02 0 0 1 .02.02.02.02 0 0 1-.02.02.02.02 0 0 1-.02-.02.02.02 0 0 1 .02-.02m.437 1.097a.02.02 0 0 1 .02.02.02.02 0 0 1-.02.019.02.02 0 0 1-.02-.02.02.02 0 0 1 .02-.02m.745-.368a.02.02 0 0 1 .02.02.02.02 0 0 1-.02.02.02.02 0 0 1-.02-.02.02.02 0 0 1 .02-.02m.76.62a.02.02 0 0 1 .02.02.02.02 0 0 1-.02.02.02.02 0 0 1-.02-.02.02.02 0 0 1 .02-.02M6.076.869a.02.02 0 0 1 .02.02.02.02 0 0 1-.02.019.02.02 0 0 1-.02-.02.02.02 0 0 1 .02-.02m1.001.778a.02.02 0 0 1 .02.02.02.02 0 0 1-.02.02.02.02 0 0 1-.02-.02.02.02 0 0 1 .02-.02m-.668.881a.02.02 0 0 1 .02.02.02.02 0 0 1-.02.02.02.02 0 0 1-.02-.02.02.02 0 0 1 .02-.02m.75-.195a.02.02 0 0 1 .02.02.02.02 0 0 1-.02.019.02.02 0 0 1-.02-.02.02.02 0 0 1 .02-.02m-5.055.546a.02.02 0 0 1 .02.02.02.02 0 0 1-.02.02.02.02 0 0 1-.02-.02.02.02 0 0 1 .02-.02m2.68-1.105a.02.02 0 0 1 .02.02.02.02 0 0 1-.02.02.02.02 0 0 1-.02-.02.02.02 0 0 1 .02-.02m1.476-.185a.02.02 0 0 1 .02.02.02.02 0 0 1-.02.02.02.02 0 0 1-.02-.02.02.02 0 0 1 .02-.02m1.033.883a.02.02 0 0 1 .02.02.02.02 0 0 1-.02.02.02.02 0 0 1-.02-.02.02.02 0 0 1 .02-.02" fill="#fff" fill-rule="evenodd"/><path d="M3.507 3.184h-.052v.048l.052-.048z" fill="#67a5b3" fill-rule="evenodd" stroke="#292929" stroke-width=".001" stroke-miterlimit="22.926"/><path d="M5.37 1.93h.091v.086H5.37V1.93z" fill="#fedbc0" fill-rule="evenodd" stroke="#fedbc0" stroke-width=".01" stroke-linecap="round" stroke-linejoin="round" stroke-miterlimit="22.926"/><path d="M5.37 2.082h.091v.086H5.37v-.086z" fill="#fcc22e" fill-rule="evenodd" stroke="#fcc22e" stroke-width=".01" stroke-linecap="round" stroke-linejoin="round" stroke-miterlimit="22.926"/><path d="M5.37 2.234h.091v.086H5.37v-.086z" fill="#edee9e" fill-rule="evenodd" stroke="#edee9e" stroke-width=".01" stroke-linecap="round" stroke-linejoin="round" stroke-miterlimit="22.926"/><path d="M5.37 2.386h.091v.086H5.37v-.086z" fill="#fcc22e" fill-rule="evenodd" stroke="#fcc22e" stroke-width=".01" stroke-linecap="round" stroke-linejoin="round" stroke-miterlimit="22.926"/><path d="M5.37 2.538h.091v.086H5.37v-.086z" fill="#fedbc0" fill-rule="evenodd" stroke="#fedbc0" stroke-width=".01" stroke-linecap="round" stroke-linejoin="round" stroke-miterlimit="22.926"/><path d="M5.37 2.69h.091v.086H5.37V2.69z" fill="#fcc22e" fill-rule="evenodd" stroke="#fcc22e" stroke-width=".01" stroke-linecap="round" stroke-linejoin="round" stroke-miterlimit="22.926"/><path d="M5.37 2.842h.091v.086H5.37v-.086z" fill="#fedbc0" fill-rule="evenodd" stroke="#fedbc0" stroke-width=".01" stroke-linecap="round" stroke-linejoin="round" stroke-miterlimit="22.926"/><path d="M5.37 2.994h.091v.086H5.37v-.086z" fill="#edee9e" fill-rule="evenodd" stroke="#edee9e" stroke-width=".01" stroke-linecap="round" stroke-linejoin="round" stroke-miterlimit="22.926"/><path d="M5.77 2.082h.092v.086H5.77v-.086z" fill="#fcc22e" fill-rule="evenodd" stroke="#fcc22e" stroke-width=".01" stroke-linecap="round" stroke-linejoin="round" stroke-miterlimit="22.926"/><path d="M5.77 2.233h.092v.086H5.77v-.086z" fill="#edee9e" fill-rule="evenodd" stroke="#edee9e" stroke-width=".01" stroke-linecap="round" stroke-linejoin="round" stroke-miterlimit="22.926"/><path d="M5.77 2.384h.092v.086H5.77v-.086zm0 .151h.092v.086H5.77v-.086z" fill="#fedbc0" fill-rule="evenodd" stroke="#fedbc0" stroke-width=".01" stroke-linecap="round" stroke-linejoin="round" stroke-miterlimit="22.926"/><path d="M5.77 2.686h.092v.086H5.77v-.086z" fill="#edee9e" fill-rule="evenodd" stroke="#edee9e" stroke-width=".01" stroke-linecap="round" stroke-linejoin="round" stroke-miterlimit="22.926"/><path d="M5.77 2.837h.092v.086H5.77v-.086z" fill="#fedbc0" fill-rule="evenodd" stroke="#fedbc0" stroke-width=".01" stroke-linecap="round" stroke-linejoin="round" stroke-miterlimit="22.926"/><path d="M5.77 2.988h.092v.086H5.77v-.086z" fill="#fcc22e" fill-rule="evenodd" stroke="#fcc22e" stroke-width=".01" stroke-linecap="round" stroke-linejoin="round" stroke-miterlimit="22.926"/><path d="M4.823 2.487l.001.049.003.057.006.008-.004.023s.01.024.025.025c.014.001.014.013.014.013l.01.6.18-.163h.035l-.01-.413s0-.057-.018-.103l-.037-.088-.013-.033s.009-.004.005-.01c-.003-.006-.01-.01-.01-.016s.003-.004.002-.009c-.001-.005-.007-.01-.01-.013C5 2.41 5.006 2.41 4.998 2.4l-.016-.013a.112.112 0 0 1-.013-.012l-.01-.008c-.005-.005.003-.004-.01-.007a.21.21 0 0 1-.015-.005l-.014-.01h-.017l-.01-.05c0-.014-.015-.005-.015.013s.002.032.002.032-.017-.006-.027 0c-.01.006-.003-.015-.014-.008a.074.074 0 0 0-.017.021s-.02-.03-.023-.03c-.004 0-.01.01-.004.026.005.015.015.02.015.02l.004.021-.009.013c0 .003.008.005.008.005l-.006.011c-.004.004-.01.011-.008.018l.026.047z" fill="#7d78b7" fill-rule="evenodd" stroke="#7d78b7" stroke-width=".01" stroke-linecap="round" stroke-linejoin="round" stroke-miterlimit="22.926"/><path d="M4.607 2.554V2.6l.003.053.005.009-.004.02s.01.023.023.024c.013.002.014.012.014.012l.01.739h.14v-.125l.063-.056-.013-.536s0-.053-.017-.096l-.035-.082-.011-.031s.009-.004.005-.009c-.004-.006-.01-.01-.01-.015 0-.005.003-.004.001-.009 0-.005-.005-.008-.008-.012-.004-.004.002-.004-.005-.011l-.015-.013c-.009-.006-.009-.007-.012-.011l-.008-.006c-.005-.005.003-.004-.009-.008l-.014-.005-.013-.007-.016-.001s-.009-.034-.009-.047c0-.013-.014-.005-.015.011 0 .017.003.03.003.03s-.016-.006-.025 0c-.009.007-.004-.013-.014-.006a.064.064 0 0 0-.016.02s-.018-.028-.021-.028c-.004 0-.01.009-.004.024a.031.031 0 0 0 .014.019l.004.02s-.007.008-.007.01c0 .003.007.006.007.006s-.002.007-.006.011c-.003.004-.01.011-.008.016l.025.045z" fill="#7d78b7" fill-rule="evenodd" stroke="#7d78b7" stroke-width=".01" stroke-linecap="round" stroke-linejoin="round" stroke-miterlimit="22.926"/><path d="M4.409 2.645v.04l.002.049.005.008-.004.019s.009.02.021.021c.012.001.012.011.012.011l.01.664h.187l-.015-.643s0-.049-.016-.087l-.031-.075-.011-.028s.007-.002.003-.009c-.003-.005-.008-.008-.008-.013v-.008c0-.004-.004-.009-.007-.011-.002-.003.002-.004-.005-.01l-.013-.011a.132.132 0 0 1-.011-.01l-.007-.007c-.005-.003 0-.003-.01-.006a.123.123 0 0 1-.012-.004l-.013-.007h-.014s-.008-.031-.009-.043c0-.013-.013-.005-.013.011 0 .015.002.027.002.027s-.014-.006-.022 0c-.01.005-.004-.012-.013-.006a.057.057 0 0 0-.014.018s-.017-.026-.02-.026c-.004 0-.008.01-.004.022a.027.027 0 0 0 .013.017l.004.018-.007.01c0 .003.006.004.006.004l-.005.01c-.003.004-.009.01-.006.015l.022.04z" fill="#7d78b7" fill-rule="evenodd" stroke="#7d78b7" stroke-width=".01" stroke-linecap="round" stroke-linejoin="round" stroke-miterlimit="22.926"/><path d="M4.96 2.414l-.008.009.018.023-.007.05-.022.024-.001.025-.005.026.011.028-.009.042-.02.017-.015-.003-.035.004" fill="none" stroke="#fff" stroke-width=".01" stroke-linecap="round" stroke-linejoin="round" stroke-miterlimit="22.926"/><path d="M4.92 2.421s-.028-.013-.032.016c0 .003.013 0 .02-.004a.047.047 0 0 0 .012-.013zm-.02.176c.005 0 .009.004.009.009a.009.009 0 0 1-.01.008.009.009 0 0 1-.008-.008c0-.005.004-.01.009-.01z" fill="#fff" fill-rule="evenodd" stroke="#fff" stroke-width=".01" stroke-linecap="round" stroke-linejoin="round" stroke-miterlimit="22.926"/><path d="M4.736 2.486l-.01.008.018.022-.008.046-.02.023v.024l-.006.024.01.026-.009.04-.018.015-.015-.001-.032.004" fill="none" stroke="#fff" stroke-width=".01" stroke-linecap="round" stroke-linejoin="round" stroke-miterlimit="22.926"/><path d="M4.698 2.492s-.026-.012-.03.015c-.001.004.012.001.018-.003.009-.006.011-.01.011-.01zm-.019.165c.005 0 .008.004.008.007 0 .005-.003.008-.008.008s-.01-.004-.01-.008c0-.005.005-.007.01-.007z" fill="#fff" fill-rule="evenodd" stroke="#fff" stroke-width=".01" stroke-linecap="round" stroke-linejoin="round" stroke-miterlimit="22.926"/><path d="M4.525 2.582l-.007.008.015.02-.006.042-.018.02-.001.022-.004.022.009.023-.008.036-.016.014-.014-.001-.03.004" fill="none" stroke="#fff" stroke-width=".01" stroke-linecap="round" stroke-linejoin="round" stroke-miterlimit="22.926"/><path d="M4.49 2.589s-.023-.012-.026.013c0 .002.01 0 .016-.003a.03.03 0 0 0 .01-.01zm-.016.148c.004 0 .007.004.007.008a.008.008 0 0 1-.007.007.008.008 0 0 1-.008-.007c0-.004.004-.008.008-.008z" fill="#fff" fill-rule="evenodd" stroke="#fff" stroke-width=".01" stroke-linecap="round" stroke-linejoin="round" stroke-miterlimit="22.926"/><path d="M2.929 3.149a.071.071 0 1 1 0 .142.071.071 0 0 1 0-.142z" fill="#edee9e" fill-rule="evenodd" stroke="#213d45" stroke-width=".01" stroke-linecap="round" stroke-linejoin="round" stroke-miterlimit="22.926"/><path d="M3 3.22h-.142H3z" fill="#213d45" fill-rule="evenodd" stroke="#213d45" stroke-width=".01" stroke-linecap="round" stroke-linejoin="round" stroke-miterlimit="22.926"/><path d="M2.98 3.095l.233.005.17.153.005.037-.045.043h-.111l-.258-.237h.006z" fill="#2e4160" fill-rule="evenodd"/><path d="M2.929 3.149v.142-.142z" fill="none" stroke="#213d45" stroke-width=".01" stroke-linecap="round" stroke-linejoin="round" stroke-miterlimit="22.926"/><path d="M2.968 3.095h.013l.233.005.141.127.034.03v.034-.034L3.214 3.1l-.245-.005zm.503.237h.001-.24l-.264-.237.264.238.11-.001.046-.041-.045.041h.128z" fill="#2e4160" fill-rule="evenodd" stroke="#2e4160" stroke-width=".01" stroke-linecap="round" stroke-linejoin="round" stroke-miterlimit="22.926"/><path d="M2.644 3.437h.162l.179.161h-.162l-.179-.161zm1.049-.342l.233.005.192.17-.017.02-.046.043h-.11l-.258-.237h.006z" fill="#2e4160" fill-rule="evenodd"/><path d="M3.683 3.095l.246.005.189.17h-.033l-.108.063h-.03l-.264-.237z" fill="none" stroke="#2e4160" stroke-width=".01" stroke-linecap="round" stroke-linejoin="round" stroke-miterlimit="22.926"/><path d="M3.343 3.327h.608v.86h-.608v-.86z" fill="#7d78b7" fill-rule="evenodd"/><path d="M3.31 3.399h.033v.167H3.31V3.4zm0 .226h.033v.033h-.007l-.026.054v-.087zm0 .226h.033v.168H3.31v-.168zm-.01.227h.034v.107H3.3v-.107z" fill="#fcc22e" fill-rule="evenodd"/><path d="M3.4 3.47h.104v.168H3.4v-.167z" fill="#fedbc0" fill-rule="evenodd" stroke="#fedbc0" stroke-width=".01" stroke-miterlimit="22.926"/><path d="M3.56 3.47h.179v.168h-.18v-.167z" fill="#fcc22e" fill-rule="evenodd" stroke="#fcc22e" stroke-width=".01" stroke-miterlimit="22.926"/><path d="M3.784 3.47h.104v.168h-.104v-.167z" fill="#fedbc0" fill-rule="evenodd" stroke="#fedbc0" stroke-width=".01" stroke-miterlimit="22.926"/><path d="M3.4 3.42h.49v-.026H3.4v.026z" fill="#ebed97" fill-rule="evenodd" stroke="#edee9e" stroke-width=".01" stroke-miterlimit="22.926"/><path d="M3.567 4.188h.202V4.03a.101.101 0 0 0-.1-.1.101.101 0 0 0-.102.1v.16z" fill="#fcbd7f" fill-rule="evenodd" stroke="#fcbd7f" stroke-width=".01" stroke-linecap="round" stroke-linejoin="round" stroke-miterlimit="22.926"/><path d="M3.817 3.89h.066V4h-.066v-.11zm-.387 0h.066V4H3.43v-.11z" fill="#fcc22e" fill-rule="evenodd" stroke="#fcc22e" stroke-width=".01" stroke-linecap="round" stroke-linejoin="round" stroke-miterlimit="22.926"/><path d="M3.962 3.388h.328l.014.208-.039.045h.042l.036.546h-.434l.053-.799z" fill="#f495be" fill-rule="evenodd" stroke="#f495be" stroke-width=".01" stroke-linecap="round" stroke-linejoin="round" stroke-miterlimit="22.926"/><path d="M4.094 3.529h.066v.134h-.066V3.53z" fill="#fef4af" fill-rule="evenodd"/><path d="M4.035 3.95h.03v.112h-.03V3.95z" fill="#95a6a5" fill-rule="evenodd" stroke="#95a6a5" stroke-width=".01" stroke-linecap="round" stroke-linejoin="round" stroke-miterlimit="22.926"/><path d="M3.988 4.062h.125v.125h-.125v-.125z" fill="#74ccd4" fill-rule="evenodd" stroke="#74ccd4" stroke-width=".01" stroke-linecap="round" stroke-linejoin="round" stroke-miterlimit="22.926"/><path d="M3.327 3.658h.612l-.013.184H3.24l.088-.184z" fill="#29333b" fill-rule="evenodd"/><path d="M4.187 3.384h-.24v.162l.015-.162h.225zm-.21-.057h-.03v.018l.03-.018z" fill="#693e4f" fill-rule="evenodd"/><path d="M4.117 3.77a.102.102 0 1 1-.132 0 .074.074 0 1 1 .132 0z" fill="#63c4b0" fill-rule="evenodd" stroke="#63c4b0" stroke-width=".01" stroke-linecap="round" stroke-linejoin="round" stroke-miterlimit="22.926"/><path d="M4.29 3.39l.014.448.04-.084-.017-.364H4.29zm.014.448l.015.35.007-.003-.005-.38-.016.032z" fill="#a95b7e" fill-rule="evenodd" stroke="#a95b7e" stroke-width=".014" stroke-linecap="round" stroke-linejoin="round" stroke-miterlimit="22.926"/><path d="M4.086 3.27h.081l.203.118h-.487l.203-.118z" fill="#29333b" stroke="#29333b" stroke-width=".01" stroke-linecap="round" stroke-linejoin="round" stroke-miterlimit="22.926"/><path d="M4.343 4.187h.044c.003-.005.009-.02.013-.024a.087.087 0 0 1 .018-.014h.026l.042.001h.037v-.002s.001-.017.003-.02c.003-.002.003-.004.016-.004h.044c.007.001.018-.003.026.004.008.006.001.008.004.015.003.006.001.007.017.009.016.002-.004 0 .013 0 .017-.002 0-.003.028-.002.027.002.039 0 .05.004.012.005.013.003.016.009l.012.024h.075c0-.004 0-.007.002-.011l.003-.005v-.015l.405-.003v.032h.1c.12.007.226.012.345.01.003-.183.001-.366.001-.55H4.325v.247l.018.294z" fill="#f495be" fill-rule="evenodd" stroke="#f495be" stroke-width=".01" stroke-linecap="round" stroke-linejoin="round" stroke-miterlimit="22.926"/><path d="M4.405 3.84h.042v-.085h-.042v.086z" fill="#fcc22e" fill-rule="evenodd"/><path d="M4.671 3.687h.066v.11H4.67v-.11zm.278 0h.065v.11H4.95v-.11zm.277 0h.066v.11h-.066v-.11z" fill="#edee9e" fill-rule="evenodd"/><path d="M4.752 4.188h.013V4.03a.101.101 0 0 0-.101-.1.101.101 0 0 0-.101.1v.093h.023c.006.002.018-.002.026.005.008.006 0 .01.004.016.003.006-.011.003.004.006.016.002.009.004.026.002.016 0 0-.002.027 0 .028 0 .04-.002.051.003.011.005.013.004.016.009a.134.134 0 0 1 .011.025zm.103-.072v.03l.02-.04.035.006.03-.018.019.005.033-.025.026.004.018.023c-.005.003 0 .02.008.016h.014V4.03a.101.101 0 0 0-.1-.1.102.102 0 0 0-.102.1v.087zm.381.072h.1l-.001-.112v-.022h.017v-.025a.101.101 0 0 0-.101-.1.101.101 0 0 0-.101.1v.074c.002.002.002 0 .006.005.005.005.015.02.018.017a2.91 2.91 0 0 1 .01-.015l.01.005.016.014.02.019v.006h.006v.034z" fill="#fcc22e" fill-rule="evenodd" stroke="#fcc22e" stroke-width=".01" stroke-linecap="round" stroke-linejoin="round" stroke-miterlimit="22.926"/><path d="M5.547 3.921h.039v.087h-.039v-.087z" fill="#edee9e" fill-rule="evenodd"/><path d="M5.52 3.84h.073v-.137H5.52v.138z" fill="#fcc22e" fill-rule="evenodd"/><path d="M4.325 3.84h1.358v.022H4.325v-.021z" fill="#504272" fill-rule="evenodd" stroke="#504272" stroke-width=".01" stroke-linecap="round" stroke-linejoin="round" stroke-miterlimit="22.926"/><path d="M5.27 4.475h-.024a.009.009 0 0 0-.009-.009.009.009 0 0 0-.008.009h-.066a.009.009 0 0 0-.008-.009.009.009 0 0 0-.01.009H5.08a.009.009 0 0 0-.008-.009.009.009 0 0 0-.01.009h-.064a.009.009 0 0 0-.01-.009.009.009 0 0 0-.008.009h-.065a.009.009 0 0 0-.01-.009.009.009 0 0 0-.008.009h-.065a.009.009 0 0 0-.009-.009.009.009 0 0 0-.009.009H4.79a.009.009 0 0 0-.009.009c0 .005.004.008.009.008h.474a.009.009 0 0 0 .008-.008.009.009 0 0 0-.008-.009" fill="#4c4c4d" fill-rule="evenodd"/><path d="M4.669 4.184c.004 0 .006-.002.006-.006s-.002-.006-.006-.006h-.013c-.004 0-.007.002-.007.006s.003.006.007.006h.013zm.043 0a.051.051 0 0 1 .01.021c0 .004.004.005.006.005h.002c.003 0 .006-.004.005-.007-.004-.018-.015-.03-.015-.03-.002-.001-.003-.003-.005-.003h-.02c-.004 0-.006.003-.006.007 0 .003.002.006.006.006h.017z" fill="#292929" fill-rule="evenodd"/><path d="M4.762 4.37h-.385c-.004 0-.006.002-.006.006s.002.006.006.006h.034a.046.046 0 0 0 .032.08.046.046 0 0 0 .033-.08h.04v.033c0 .004.003.007.006.007h.093a.007.007 0 0 0 .007-.007v-.013c0-.004-.003-.006-.007-.006-.003 0-.006.002-.006.006v.006h-.08v-.026h.134a.046.046 0 0 0 .032.08.046.046 0 0 0 .033-.08h.033c.004 0 .007-.003.007-.006a.007.007 0 0 0-.007-.007zm-.285.046a.033.033 0 1 1-.067 0 .033.033 0 0 1 .067 0zm.252 0a.033.033 0 1 1-.067 0 .033.033 0 0 1 .067 0" fill="#bf3d39" fill-rule="evenodd"/><path d="M4.763 4.475h-.025a.009.009 0 0 0-.008-.009.009.009 0 0 0-.01.009h-.064a.009.009 0 0 0-.01-.009.009.009 0 0 0-.008.009h-.065a.009.009 0 0 0-.01-.009.009.009 0 0 0-.008.009H4.49a.009.009 0 0 0-.009-.009.009.009 0 0 0-.009.009h-.107a.009.009 0 0 0-.009.009c0 .005.004.008.009.008h.393a.009.009 0 0 0 .009-.008.009.009 0 0 0-.009-.009" fill="#4c4c4d" fill-rule="evenodd"/><path d="M4.404 3.755h.043v.01h-.043v-.01z" fill="#e985ad" fill-rule="evenodd"/><path d="M4.438 3.836v-.081h.009v.081h-.009zm.233-.149h.066v.01h-.066v-.01z" fill="#e985ad" fill-rule="evenodd"/><path d="M4.728 3.797v-.11h.008v.11h-.008zm.564-.11h-.065v.01h.065v-.01z" fill="#e985ad" fill-rule="evenodd"/><path d="M5.236 3.797v-.11h-.01v.11h.01zm-.287-.11h.066v.01h-.066v-.01z" fill="#e985ad" fill-rule="evenodd"/><path d="M5.005 3.797v-.11h.009v.11h-.009zm-.056 0v-.11h.008v.11H4.95zm.571-.094h.073v.01H5.52v-.01z" fill="#e985ad" fill-rule="evenodd"/><path d="M5.584 3.836v-.132h.008v.132h-.008zm-.037.085h.04v.01h-.04v-.01z" fill="#e985ad" fill-rule="evenodd"/><path d="M5.577 4.008v-.087h.008v.087h-.008zm-.869-.075a.108.108 0 0 0-.045-.01.104.104 0 0 0-.105.102v.092h.022v-.085a.104.104 0 0 1 .128-.099m.499 0a.108.108 0 0 1 .045-.01c.058 0 .105.046.105.102v.167h-.022v-.16a.104.104 0 0 0-.105-.102.085.085 0 0 0-.023.003" fill="#e985ad" fill-rule="evenodd"/><path d="M3.106 3.95h.03v.11h-.03v-.11z" fill="#693e4f" fill-rule="evenodd" stroke="#693e4f" stroke-width=".01" stroke-linecap="round" stroke-linejoin="round" stroke-miterlimit="22.926"/><path d="M3.059 4.06h.125v.126h-.125V4.06z" fill="none" stroke="#74ccd4" stroke-width=".01" stroke-linecap="round" stroke-linejoin="round" stroke-miterlimit="22.926"/><path d="M3.388 3.291v-.107h-.056" fill="none" stroke="#292929" stroke-width=".01" stroke-miterlimit="22.926"/><path d="M3.605 3.095h.078l.262.237h-.602l.262-.237z" fill="#213d45" fill-rule="evenodd" stroke="#213d45" stroke-width=".01" stroke-linecap="round" stroke-linejoin="round" stroke-miterlimit="22.926"/><path d="M3.644 3.149a.071.071 0 1 1 0 .142.071.071 0 0 1 0-.142z" fill="#fcc22e" fill-rule="evenodd" stroke="#213d45" stroke-width=".01" stroke-miterlimit="22.926"/><path d="M3.644 3.149v.142m.071-.071h-.142" fill="none" stroke="#213d45" stroke-width=".01" stroke-miterlimit="22.926"/><path d="M2.87 3.644h.072v.116H2.87v-.116z" fill="#edee9e" fill-rule="evenodd" stroke="#edee9e" stroke-width=".01" stroke-linecap="round" stroke-linejoin="round" stroke-miterlimit="22.926"/><path d="M2.87 3.8h.072v.116H2.87V3.8z" fill="#fdc282" fill-rule="evenodd" stroke="#fdc282" stroke-width=".01" stroke-linecap="round" stroke-linejoin="round" stroke-miterlimit="22.926"/><path d="M2.87 3.957h.072v.115H2.87v-.115z" fill="#edee9e" fill-rule="evenodd" stroke="#edee9e" stroke-width=".01" stroke-miterlimit="22.926"/><path d="M2.87 4.113h.072v.074H2.87v-.074z" fill="#fdc282" fill-rule="evenodd" stroke="#fdc282" stroke-width=".01" stroke-miterlimit="22.926"/><path d="M2.576 3.437h.063l.177.16H2.4l.176-.16z" fill="#213d45" stroke="#213d45" stroke-width=".01" stroke-linecap="round" stroke-linejoin="round" stroke-miterlimit="22.926"/><path d="M2.61 3.471a.05.05 0 1 1 0 .099.05.05 0 0 1 0-.099z" fill="#edee9e" fill-rule="evenodd" stroke="#213d45" stroke-width=".01" stroke-linecap="round" stroke-linejoin="round" stroke-miterlimit="22.926"/><path d="M2.66 3.52h-.1m.05-.049v.099" fill="none" stroke="#213d45" stroke-width=".01" stroke-linecap="round" stroke-linejoin="round" stroke-miterlimit="22.926"/><path d="M3.066 3.177h.225m-.143.078h.225" fill="none" stroke="#29333b" stroke-width=".014" stroke-linecap="round" stroke-linejoin="round" stroke-miterlimit="22.926"/><path d="M3.795 3.177h.214" fill="none" stroke="#29333b" stroke-width=".013" stroke-linecap="round" stroke-linejoin="round" stroke-miterlimit="22.926"/><path d="M3.88 3.255h.217" fill="none" stroke="#29333b" stroke-width=".014" stroke-linecap="round" stroke-linejoin="round" stroke-miterlimit="22.926"/><path d="M2.68 4.187v-.034h-.067l-.07.035h.137zm-.494-.039v.036h-.132l.06-.036h.072z" fill="#213d45" fill-rule="evenodd"/><path d="M2.546 3.971h.067v.182l-.067.034v-.216z" fill="#213d45" fill-rule="evenodd"/><path d="M1.406 4.188h2.916v.05H1.406a.025.025 0 0 1-.025-.025c0-.013.012-.025.025-.025zm2.91 0h.504v.05h-.504v-.05zm.812 0h2.49c.014 0 .025.012.025.025a.025.025 0 0 1-.025.025H5.164l-.036-.05z" fill="#4d4d4e" fill-rule="evenodd" stroke="#4c4c4d" stroke-width=".01" stroke-linecap="round" stroke-linejoin="round" stroke-miterlimit="22.926"/><path d="M5.2 3.177h-.207m.117.078h-.206" fill="none" stroke="#29333b" stroke-width=".013" stroke-linecap="round" stroke-linejoin="round" stroke-miterlimit="22.926"/><path d="M6.39 3.976v.178h-.062v-.178h.062z" fill="#edee9e" fill-rule="evenodd" stroke="#edee9e" stroke-width=".01" stroke-miterlimit="22.926"/><path d="M6.323 4.154h.067v-.182h.067v.211h-.134v-.03z" fill="#213d45" fill-rule="evenodd"/><path d="M6.946 3.976h-.124v.198h.124v-.198z" fill="none" stroke="#edee9e" stroke-width=".01" stroke-miterlimit="22.926"/><path d="M6.885 4.154h-.063" fill="none" stroke="#292929" stroke-width=".01" stroke-miterlimit="22.926"/><path d="M6.884 3.976v.177l-.062.001v-.178h.062z" fill="#edee9e" fill-rule="evenodd" stroke="#edee9e" stroke-width=".01" stroke-miterlimit="22.926"/><path d="M6.817 4.152h.067v-.18h.067v.21h-.134v-.03z" fill="#213d45" fill-rule="evenodd"/><path d="M7.532 3.874v.017h-.128v-.017h.128z" fill="#818181" fill-rule="evenodd" stroke="#4d4d4e" stroke-width=".007" stroke-linecap="round" stroke-linejoin="round" stroke-miterlimit="22.926"/><path d="M7.364 4.111L7.351 4.1h.06l.029.012h-.076z" fill="#818181" fill-rule="evenodd" stroke="#4d4d4e" stroke-width=".01" stroke-linecap="round" stroke-linejoin="round" stroke-miterlimit="22.926"/><path d="M7.364 4.187l-.013-.027v-.061l.013.012v.076zm.001-.076h.075v.076h-.075V4.11z" fill="#818181" fill-rule="evenodd" stroke="#4d4d4e" stroke-width=".01" stroke-linecap="round" stroke-linejoin="round" stroke-miterlimit="22.926"/><g clip-path="url(#m)" opacity=".4" transform="matrix(.01182 0 0 -.01182 5.438 45.475)"><g mask="url(#n)" transform="translate(-338.712 3487.613)"><g clip-path="url(#o)" transform="translate(338.712 -3487.613)"><path d="M-333.522 3514.854l-5.19-27.24 12.643 5.977-5.94 21.833-1.513-.57z" fill="#dca83a"/></g></g></g><g clip-path="url(#p)" opacity=".3" transform="matrix(.01182 0 0 -.01182 5.438 45.475)"><g mask="url(#q)" transform="translate(-342.128 3487.613)"><g clip-path="url(#r)" transform="translate(342.128 -3487.613)"><path d="M-333.522 3514.854l-5.19-27.24-3.416 1.986 7.651 25.46.955-.206z" fill="#dca83a"/></g></g></g><path d="M1.49 3.875v.017h.128v-.017H1.49z" fill="#818181" stroke="#4d4d4e" stroke-width=".007" stroke-linecap="round" stroke-linejoin="round" stroke-miterlimit="22.926"/><path d="M1.514 3.903h-.027l-.014.028h.054l-.013-.028z" fill="#818181" stroke="#4d4d4e" stroke-width=".01" stroke-linecap="round" stroke-linejoin="round" stroke-miterlimit="22.926"/><path d="M2.394 3.496h.04v.072l.045-.041v-.031h.03v-.037h-.115v.037z" fill="#818181" stroke="#818181" stroke-width=".01" stroke-linecap="round" stroke-linejoin="round" stroke-miterlimit="22.926"/><path d="M5.77 1.93h.091v.086H5.77V1.93z" fill="#fedbc0" stroke="#fedbc0" stroke-width=".01" stroke-linecap="round" stroke-linejoin="round" stroke-miterlimit="22.926"/><path d="M5.334 1.93h.124v-.107h.317v.107h.13v1.167V1.93h-.13v-.107h-.317v.107h-.124l.003 1.165-.003-1.165z" fill="none" stroke="#8e5978" stroke-width=".01" stroke-linecap="round" stroke-linejoin="round" stroke-miterlimit="22.926"/><path d="M6.3 3.42h-.49v-.026h.49v.026z" fill="#edee9e" stroke="#edee9e" stroke-width=".01" stroke-miterlimit="22.926"/><path d="M5.462 1.819h.112V3.13h-.087v.054h.044v.047l-.069-.063v-1.35zm.207 0h.1V3.1l-.1.091V1.819z" fill="#74ccd4"/><path d="M6.017 3.095l-.245.005-.14.126-.035.031v.034l.046.041h.112l.262-.237zm-.263.238l.265-.237-.265.237-.111-.001-.046-.041v-.034.034l.046.041h.111z" fill="#2e4160" stroke="#2e4160" stroke-width=".01" stroke-linecap="round" stroke-linejoin="round" stroke-miterlimit="22.926"/><path d="M5.925 3.177H5.7m.136.078H5.61" fill="none" stroke="#29333b" stroke-width=".013" stroke-linecap="round" stroke-linejoin="round" stroke-miterlimit="22.926"/><path d="M5.639 3.329l-.6.003v.125h.57l.033.043v-.17l-.004-.002z" fill="#7d78b7"/><path d="M5.585 3.42h-.49v-.026h.49v.026z" fill="#fcc22e" stroke="#fcc22e" stroke-width=".01" stroke-linecap="round" stroke-linejoin="round" stroke-miterlimit="22.926"/><path d="M4.425 3.457h1.18l.16.184h-1.5l.16-.184z" fill="#29333b" stroke="#29333b" stroke-width=".01" stroke-linecap="round" stroke-linejoin="round" stroke-miterlimit="22.926"/><path d="M5.38 3.095h-.078l-.265.238.606-.001-.262-.237z" fill="#213d45"/><path d="M5.341 3.149a.071.071 0 1 0 0 .142.071.071 0 0 0 0-.142z" fill="#fcc22e" stroke="#213d45" stroke-width=".01" stroke-linecap="round" stroke-linejoin="round" stroke-miterlimit="22.926"/><path d="M5.341 3.149v.142M5.27 3.22h.143" fill="none" stroke="#213d45" stroke-width=".01" stroke-linecap="round" stroke-linejoin="round" stroke-miterlimit="22.926"/><path d="M5.654 3.184h-.057v.107l-.044-.04-.022-.02v-.047h-.044V3.13h.167v.053z" fill="#818181" stroke="#818181" stroke-width=".01" stroke-linecap="round" stroke-linejoin="round" stroke-miterlimit="22.926"/><path d="M6.798 3.492h-.166.166zm-.061.053h-.153.153zm-.153 0h-.013.013z" fill="none" stroke="#29333b" stroke-width=".01" stroke-linecap="round" stroke-linejoin="round" stroke-miterlimit="22.926"/><path d="M6.61 3.496h-.04v.073l-.03-.027-.016-.013v-.033h-.03v-.037h.116v.037z" fill="#818181" stroke="#818181" stroke-width=".01" stroke-linecap="round" stroke-linejoin="round" stroke-miterlimit="22.926"/><path d="M4.415 4.356h.31c.001 0 .044-.016.044-.106s-.042-.105-.044-.105h-.103v-.007a.02.02 0 0 0-.02-.02h-.065a.02.02 0 0 0-.02.02v.186c0 .004.002.006.006.006s.006-.002.006-.006v-.185c0-.004.003-.007.006-.007h.067c.004 0 .006.003.006.007v.013c0 .004.003.006.006.006h.105c.005.003.035.02.035.093s-.03.09-.035.093h-.302c-.005-.003-.035-.02-.035-.093s.03-.09.035-.093h.018v.166c0 .004.003.006.006.006.004 0 .007-.002.007-.006v-.006h.046c.004 0 .006-.003.006-.007 0-.003-.002-.006-.006-.006h-.046V4.28h.046c.004 0 .006-.003.006-.007 0-.003-.002-.006-.006-.006h-.046V4.24h.046c.004 0 .006-.003.006-.007 0-.003-.002-.006-.006-.006h-.046v-.026h.046c.004 0 .006-.003.006-.007 0-.003-.002-.006-.006-.006h-.046v-.026h.046c.004 0 .006-.003.006-.007 0-.003-.002-.006-.006-.006h-.082c-.001.001-.044.016-.044.106s.042.105.044.106z" fill="#e14b3f" stroke="#e14b3f" stroke-width=".003" stroke-miterlimit="22.926"/><path d="M7.386 3.834h.015v.277h-.015v-.277z" fill="#818181" stroke="#4d4d4e" stroke-width=".009" stroke-linecap="round" stroke-linejoin="round" stroke-miterlimit="22.926"/><g clip-path="url(#s)" opacity=".4" transform="matrix(.01182 0 0 -.01182 5.438 45.475)"><g mask="url(#t)" transform="translate(169.2 3487.613)"><g clip-path="url(#u)" transform="translate(-169.2 -3487.613)"><path d="M176.654 3514.854l5.19-27.24-12.643 5.977 5.94 21.833 1.513-.57z" fill="#dca83a"/></g></g></g><g clip-path="url(#v)" opacity=".3" transform="matrix(.01182 0 0 -.01182 5.438 45.475)"><g mask="url(#w)" transform="translate(176.654 3487.613)"><g clip-path="url(#x)" transform="translate(-176.654 -3487.613)"><path d="M176.654 3514.854l5.19-27.24 3.416 1.986-7.651 25.46-.955-.206z" fill="#dca83a"/></g></g></g><path d="M7.508 3.903h.027l.013.027h-.054l.014-.027z" fill="#818181" stroke="#4d4d4e" stroke-width=".01" stroke-linecap="round" stroke-linejoin="round" stroke-miterlimit="22.926"/><path d="M1.702 4.063l.047-.017h.102l-.024.017h-.125z" fill="#253841" stroke="#253841" stroke-width=".01" stroke-linecap="round" stroke-linejoin="round" stroke-miterlimit="22.926"/><path d="M1.827 4.063l.024-.017v.102l-.024.04v-.125z" fill="#29333b" stroke="#29333b" stroke-width=".01" stroke-linecap="round" stroke-linejoin="round" stroke-miterlimit="22.926"/><path d="M1.702 4.063h.125v.125h-.125v-.125z" fill="#3593a9" stroke="#3593a9" stroke-width=".01" stroke-linecap="round" stroke-linejoin="round" stroke-miterlimit="22.926"/><path d="M1.657 4.111L1.67 4.1h-.06l-.029.012h.076z" fill="#818181" stroke="#4d4d4e" stroke-width=".01" stroke-linecap="round" stroke-linejoin="round" stroke-miterlimit="22.926"/><path d="M1.657 4.187l.013-.027v-.061l-.013.012v.076zm0-.076h-.075v.076h.075V4.11z" fill="#818181" stroke="#4d4d4e" stroke-width=".01" stroke-linecap="round" stroke-linejoin="round" stroke-miterlimit="22.926"/><path d="M1.635 3.834H1.62v.278h.015v-.278z" fill="#818181" stroke="#4d4d4e" stroke-width=".009" stroke-linecap="round" stroke-linejoin="round" stroke-miterlimit="22.926"/><path d="M1.763 3.951h.03v.103h-.03v-.103z" fill="#95a6a5" stroke="#95a6a5" stroke-width=".01" stroke-linecap="round" stroke-linejoin="round" stroke-miterlimit="22.926"/><path d="M1.844 3.772a.102.102 0 1 1-.132 0 .074.074 0 1 1 .132 0z" fill="#63c4b0" stroke="#63c4b0" stroke-width=".01" stroke-linecap="round" stroke-linejoin="round" stroke-miterlimit="22.926"/><path d="M7.157 4.063l.048-.017h.1l-.023.017h-.125z" fill="#253841" stroke="#253841" stroke-width=".01" stroke-linecap="round" stroke-linejoin="round" stroke-miterlimit="22.926"/><path d="M7.282 4.063l.024-.017v.102l-.024.04v-.125z" fill="#29333b" stroke="#29333b" stroke-width=".01" stroke-linecap="round" stroke-linejoin="round" stroke-miterlimit="22.926"/><path d="M7.157 4.063h.125v.125h-.125v-.125z" fill="#3593a9" stroke="#3593a9" stroke-width=".01" stroke-linecap="round" stroke-linejoin="round" stroke-miterlimit="22.926"/><path d="M7.218 3.951h.03v.103h-.03v-.103z" fill="#95a6a5" stroke="#95a6a5" stroke-width=".01" stroke-linecap="round" stroke-linejoin="round" stroke-miterlimit="22.926"/><path d="M7.3 3.772a.102.102 0 1 1-.132 0 .074.074 0 1 1 .132 0z" fill="#63c4b0" stroke="#63c4b0" stroke-width=".01" stroke-linecap="round" stroke-linejoin="round" stroke-miterlimit="22.926"/><path d="M5.336 4.167h.186v-.162h-.186v.162zm-.505-.011h.406v.219a.02.02 0 0 1-.02.02h-.009s0-.004-.006-.014c-.005-.01-.008-.008-.011-.014-.004-.007-.005-.004-.025-.012-.02-.007-.011-.003-.022-.003s-.008.003-.022.013c-.013.01-.007.01-.01.018-.002.004-.002.008-.002.011h-.15c0-.006.002-.014-.005-.02-.01-.008-.01-.02-.027-.023-.018-.002-.03-.006-.038.002-.009.007-.015.01-.018.018l-.01.021v.002h-.03v-.239z" fill="#e14b3f"/><path d="M5.76 4.21h.016v.07H5.76v-.07z" fill="#efc432"/><path d="M5.802 4.475h-.024a.009.009 0 0 0-.009-.009.009.009 0 0 0-.009.009h-.065a.009.009 0 0 0-.009-.009.009.009 0 0 0-.008.009h-.066a.009.009 0 0 0-.009-.009.009.009 0 0 0-.008.009h-.066a.009.009 0 0 0-.008-.009.009.009 0 0 0-.01.009h-.065a.009.009 0 0 0-.008-.009.009.009 0 0 0-.009.009h-.065a.009.009 0 0 0-.01-.009.009.009 0 0 0-.008.009h-.024a.009.009 0 0 0-.01.009c0 .005.005.008.01.008h.473a.009.009 0 0 0 .01-.008.009.009 0 0 0-.01-.009" fill="#4c4c4d"/><path d="M4.848 4.156l.385-.001-.043-.042-.017.005-.023-.019-.022.004-.01.017-.014-.013-.026-.002-.02.011-.022-.004-.009-.023-.008-.011s-.012-.01-.027-.004a.502.502 0 0 0-.028.01l-.005.014-.019-.005-.025.015-.011.004-.028-.006-.027.049z" fill="#bf3d39"/><path d="M5.27 4.295a.009.009 0 0 0-.008.009v.009h-.016v-.155c0-.004-.004-.008-.008-.01 0-.002 0-.003-.002-.005l-.042-.041c-.004-.004-.009-.004-.011 0l-.01.01c-.008-.01-.02-.02-.034-.02-.014 0-.024.012-.028.02a.064.064 0 0 1-.015-.01c-.011-.012-.034 0-.042.006l-.01-.001c-.002-.001-.002-.005-.002-.009 0-.022-.03-.032-.05-.032-.01 0-.02.01-.029.017l-.007.008c-.013-.009-.03 0-.032 0h-.001l-.02.014c-.007-.002-.017-.007-.024-.007-.013 0-.031.038-.034.043a.009.009 0 0 0 0 .006H4.83a.009.009 0 0 0-.01.009v.155h-.016v-.009a.009.009 0 0 0-.008-.008.009.009 0 0 0-.01.008v.033c0 .005.005.009.01.009a.009.009 0 0 0 .008-.009v-.009h.017V4.4c0 .005.004.008.009.008a.009.009 0 0 0 .008-.008v-.237h.392v.204h.017v-.04h.016v.008c0 .005.004.009.009.009a.009.009 0 0 0 .009-.01v-.032a.009.009 0 0 0-.01-.008zm-.051-.147H4.86a.354.354 0 0 1 .018-.034c.004 0 .014.006.02.009a.01.01 0 0 0 .01 0l.023-.017c.004-.002.013-.003.015 0a.013.013 0 0 0 .017 0l.012-.01c.005-.005.013-.013.017-.013.015 0 .033.008.033.016 0 .013.005.019.009.022.01.007.024.002.026.002h.002a.05.05 0 0 1 .023-.01.128.128 0 0 0 .026.019h.006c.003-.001.004-.003.005-.005.002-.004.008-.02.017-.02.009 0 .021.015.026.022a.007.007 0 0 0 .006.004.01.01 0 0 0 .007-.003l.01-.01.03.03z" fill="#bf3d39" stroke="#bf3d39" stroke-width=".003" stroke-miterlimit="22.926"/><path d="M4.82 4.146h.427v.264H4.82v-.264z" fill="#e14b3f"/><path d="M4.895 4.218h.276c.007 0 .013.006.013.014a.014.014 0 0 1-.013.014h-.276a.014.014 0 0 1-.014-.014c0-.008.006-.014.014-.014m0 .06h.276c.007 0 .013.006.013.014a.014.014 0 0 1-.013.014h-.276a.014.014 0 0 1-.014-.014c0-.008.006-.014.014-.014" fill="#f9eab0"/><path d="M4.912 4.36a.043.043 0 1 1 0 .086.043.043 0 0 1 0-.086m.255 0a.043.043 0 1 1 0 .086.043.043 0 0 1 0-.086m-.474.016a.043.043 0 1 1 0 .086.043.043 0 0 1 0-.086m-.249 0a.043.043 0 1 1 0 .085.043.043 0 0 1 0-.085" fill="#bf3d39"/><path d="M3.686 2.094V2.09c0-.056-.065-.118-.065-.118s-.068.063-.068.118v.004c.016-.048.068-.092.068-.092s.05.044.065.091" fill="#3593a9"/><path d="M3.847 2.837h.01v-.172c0-.018-.016-.032-.036-.032a.035.035 0 0 0-.033.02.037.037 0 0 1 .023-.007c.02 0 .036.015.036.033v.159zm-.457 0h-.01v-.172c0-.018.015-.032.035-.032.015 0 .028.008.033.02a.037.037 0 0 0-.023-.007c-.02 0-.036.015-.036.033v.159z" fill="#3593a9" stroke="#3593a9" stroke-width=".003" stroke-miterlimit="22.926"/><path d="M3.211 2.868h.044v-.164a.022.022 0 0 0-.022-.022.022.022 0 0 0-.022.022v.164z" fill="#edee9e" stroke="#edee9e" stroke-width=".01" stroke-linecap="round" stroke-linejoin="round" stroke-miterlimit="22.926"/><path d="M3.206 2.874h.015v-.17c0-.01.01-.023.019-.026a.028.028 0 0 0-.008-.001.027.027 0 0 0-.026.027v.17z" fill="#0abab5"/><g transform="matrix(.01182 0 0 -.01182 -2.058 5.941)" clip-path="url(#y)"><path d="M445.432 276.221l2.845-16.685m0 16.686l-2.845-16.686" fill="none" stroke="#0abab5" stroke-width=".216" stroke-miterlimit="22.926"/></g><path d="M3.137 2.874h.015v-.17c0-.01.009-.023.018-.026a.028.028 0 0 0-.007-.001.027.027 0 0 0-.026.027v.17z" fill="#0abab5"/><g transform="matrix(.01182 0 0 -.01182 -2.058 5.941)" clip-path="url(#z)"><path d="M439.56 276.221l2.845-16.685m0 16.686l-2.846-16.686" fill="none" stroke="#0abab5" stroke-width=".216" stroke-miterlimit="22.926"/></g><path d="M3.204 3.066h.015v-.14a.02.02 0 0 1 .017-.02.02.02 0 0 0-.018-.001c-.007.004-.014.011-.014.018v.143zm-.056 0h.015v-.14a.02.02 0 0 1 .017-.02.02.02 0 0 0-.018-.001c-.007.004-.014.011-.014.018v.143zm.886-.192H4.02v-.17c0-.01-.008-.023-.018-.026a.028.028 0 0 1 .007-.001c.014 0 .026.012.026.027v.17z" fill="#0abab5"/><g transform="matrix(.01182 0 0 -.01182 -2.058 5.941)" clip-path="url(#A)"><path d="M512.686 276.221l2.845-16.685m0 16.686l-2.845-16.686" fill="none" stroke="#0abab5" stroke-width=".216" stroke-miterlimit="22.926"/></g><path d="M4.103 2.874h-.015v-.17c0-.01-.009-.023-.018-.026a.028.028 0 0 1 .007-.001c.014 0 .026.012.026.027v.17z" fill="#0abab5"/><g transform="matrix(.01182 0 0 -.01182 -2.058 5.941)" clip-path="url(#B)"><path d="M518.499 276.221l2.845-16.685m0 16.686l-2.845-16.686" fill="none" stroke="#0abab5" stroke-width=".216" stroke-miterlimit="22.926"/></g><path d="M4.037 3.066h-.015v-.14a.02.02 0 0 0-.017-.02.02.02 0 0 1 .018-.001c.007.004.014.011.014.018v.143zm.056 0h-.015v-.14a.02.02 0 0 0-.017-.02.02.02 0 0 1 .018-.001c.007.004.014.011.014.018v.143z" fill="#0abab5"/><path d="M3.39 3.157h-.01v-.172c0-.018.015-.032.035-.032.015 0 .028.009.033.021a.037.037 0 0 0-.023-.007c-.02 0-.036.014-.036.032v.159z" fill="#3593a9" stroke="#3593a9" stroke-width=".003" stroke-miterlimit="22.926"/><path d="M3.332 3.184h.056v.107l.044-.04.023-.02v-.047h.043V3.13h-.167v.053z" fill="#818181" stroke="#818181" stroke-width=".01" stroke-linecap="round" stroke-linejoin="round" stroke-miterlimit="22.926"/><path d="M3.847 3.092h.01v-.107c0-.018-.016-.032-.036-.032a.035.035 0 0 0-.033.02.037.037 0 0 1 .023-.007c.02 0 .036.015.036.033v.094z" fill="#3593a9" stroke="#3593a9" stroke-width=".003" stroke-miterlimit="22.926"/><path d="M4.094 3.529h.066v.01h-.066v-.01z" fill="#e985ad"/><path d="M4.151 3.663V3.53h.009v.134h-.01z" fill="#e985ad"/><path d="M3.018 3.67v.178h.01V3.67h-.01zm.001.205v.309h.01v-.31h-.01z" fill="#4c4c4d"/><path d="M3.029 3.67h-.04v.01h.04v-.01zm0 .205h-.04v.01h.04v-.01zm.149-.409h-.114v.01h.114v-.01z" fill="#4c4c4d"/><path d="M3.168 3.466v.177h.01v-.177h-.01z" fill="#4c4c4d"/><path d="M3.774 4.023c0-.055-.048-.1-.106-.1a.104.104 0 0 0-.106.1.11.11 0 0 1 .106-.076.11.11 0 0 1 .106.076m.105-.018v-.12h.009v.12h-.01z" fill="#504272"/><path d="M3.888 3.894h-.076v-.008h.076v.008zm-.453.111v-.12h-.009v.12h.009z" fill="#504272"/><path d="M3.425 3.894h.076v-.008h-.076v.008zm.139-.251v-.177h-.009v.177h.009zm.18 0v-.177h-.009v.177h.009z" fill="#504272"/><path d="M3.738 3.466h-.177v.008h.177v-.008z" fill="#504272"/><path d="M3.019 3.466v.177h.01v-.177h-.01z" fill="#4c4c4d"/><path d="M3.029 3.466H2.84v.01h.188v-.01z" fill="#4c4c4d"/><path d="M-1500.084 2819.956l1.923 101.901 96.154 107.101.092-99.752-98.169-109.25z" fill="none" stroke="#2e4160" stroke-width="5.998" stroke-linecap="round" stroke-linejoin="round" stroke-miterlimit="22.926" transform="matrix(0 .00167 .00166 0 -2.058 5.941)"/><path d="M2.7 3.492h.167m-.105.053h.166" fill="none" stroke="#29333b" stroke-width=".01" stroke-linecap="round" stroke-linejoin="round" stroke-miterlimit="22.926"/><path d="M3.168 3.876v.176h.01v-.176h-.01z" fill="#4c4c4d"/><path d="M3.187 3.77a.102.102 0 1 1-.132 0 .074.074 0 1 1 .132 0z" fill="#0abab5" stroke="#0abab5" stroke-width=".01" stroke-linecap="round" stroke-linejoin="round" stroke-miterlimit="22.926"/><path d="M3.405 3.643v-.177h-.009v.177h.009z" fill="#504272"/><path d="M3.51 3.466h-.115v.008h.114v-.008zm.374.177v-.177h.009v.177h-.009z" fill="#504272"/><path d="M3.78 3.466h.114v.008h-.115v-.008z" fill="#504272"/><path d="M2.67 3.689v.125h.01V3.69h-.01zm-.124 0v.125h.01V3.69h-.01z" fill="#0c687d"/><path d="M2.68 3.689h-.126v.01h.126v-.01zm-.134.141v.126h.01V3.83h-.01zm.124 0v.126h.01V3.83h-.01z" fill="#0c687d"/><path d="M2.68 3.83h-.126v.01h.126v-.01zm.093-.141v.125h.01V3.69h-.01zm0 .141v.125h.01V3.83h-.01zm0 .141v.126h.01v-.126h-.01z" fill="#0c687d"/><path d="M2.783 3.689h-.082v.01h.082v-.01zm0 .141h-.082v.01h.082v-.01zm.001.138h-.082v.01h.082v-.01zm-.338-.279v.125h-.01V3.69h.01zm0 .141v.126h-.01V3.83h.01zm0 .141v.126h-.01v-.126h.01z" fill="#0c687d"/><path d="M2.436 3.689h.082v.01h-.082v-.01zm0 .141h.082v.01h-.082v-.01zm0 .138h.082v.01h-.082v-.01zm-.26-.279v.125h.01V3.69h-.01zm-.124 0v.125h.01V3.69h-.01z" fill="#0c687d"/><path d="M2.186 3.689H2.06v.01h.126v-.01zm-.01.141v.126h.01V3.83h-.01zm-.124 0v.126h.01V3.83h-.01z" fill="#0c687d"/><path d="M2.186 3.83H2.06v.01h.126v-.01zm.093-.141v.125h.01V3.69h-.01z" fill="#0c687d"/><path d="M2.29 3.689h-.083v.01h.082v-.01zm-.011.141v.126h.01V3.83h-.01z" fill="#0c687d"/><path d="M2.29 3.83h-.083v.01h.082v-.01zm-.011.141v.126h.01v-.126h-.01z" fill="#0c687d"/><path d="M2.29 3.971h-.083v.01h.082v-.01zm-.337-.141v.126h-.01V3.83h.01z" fill="#0c687d"/><path d="M1.943 3.83h.082v.01h-.082v-.01zm.01-.141v.126h-.01v-.126h.01z" fill="#0c687d"/><path d="M1.943 3.689h.082v.01h-.082v-.01zm.01.282v.126h-.01v-.126h.01z" fill="#0c687d"/><path d="M1.943 3.971h.082v.01h-.082v-.01zm4.287-.282v.125h-.01V3.69h.01z" fill="#0c687d"/><path d="M6.222 3.689h.08v.01h-.08v-.01zm.008.141v.126h-.01V3.83h.01z" fill="#0c687d"/><path d="M6.222 3.83h.08v.01h-.08v-.01zm.101 0h.134v.01h-.134v-.01zm0-.142h.134v.01h-.134v-.01z" fill="#0c687d"/><path d="M6.333 3.689v.125h-.01V3.69h.01zm.124 0v.125h-.01V3.69h.01zm.11 0v.125h-.01V3.69h.01z" fill="#0c687d"/><path d="M6.485 3.689h.082v.01h-.082v-.01zm.082.141v.126h-.01V3.83h.01z" fill="#0c687d"/><path d="M6.485 3.83h.082v.01h-.082v-.01zm.082.141v.126h-.01v-.126h.01z" fill="#0c687d"/><path d="M6.485 3.971h.082v.01h-.082v-.01zm-.152-.134v.119h-.01v-.12h.01z" fill="#0c687d"/><path d="M6.146 3.588v-.122h-.009v.122h.01z" fill="#4c4c4d"/><path d="M6.457 3.837v.119h-.01v-.12h.01zm-.227.134v.126h-.01v-.126h.01z" fill="#0c687d"/><path d="M6.222 3.971h.08v.01h-.08v-.01zm.595-.283h.134v.01h-.134v-.01z" fill="#0c687d"/><path d="M6.827 3.689v.125h-.01V3.69h.01zm.123 0v.125h-.01V3.69h.01zm-.133.141h.134v.01h-.134v-.01z" fill="#0c687d"/><path d="M6.827 3.83v.126h-.01V3.83h.01zm.123 0v.126h-.01V3.83h.01zm.11-.141v.125h-.01V3.69h.01z" fill="#0c687d"/><path d="M6.979 3.689h.082v.01h-.082v-.01zm.081.141v.126h-.01V3.83h.01z" fill="#0c687d"/><path d="M6.979 3.83h.082v.01h-.082v-.01zm.081.141v.126h-.01v-.126h.01z" fill="#0c687d"/><path d="M6.979 3.971h.082v.01h-.082v-.01zm-.255-.141v.126h-.01V3.83h.01z" fill="#0c687d"/><path d="M6.716 3.83h.08v.01h-.08v-.01zm.008.141v.126h-.01V3.97h.01z" fill="#0c687d"/><path d="M6.716 3.971h.08v.01h-.08v-.01z" fill="#0c687d"/><path d="M5.965 3.643v-.177h-.01v.177h.01z" fill="#4c4c4d"/><path d="M6.146 3.466h-.185v.008h.185v-.008z" fill="#4c4c4d"/><path d="M6.391 3.434l-.17.003-.179.16h.167l.182-.163z" fill="#2e4160" stroke="#2e4160" stroke-width=".01" stroke-linecap="round" stroke-linejoin="round" stroke-miterlimit="22.926"/><path d="M6.304 3.492h-.166m.106.053h-.167" fill="none" stroke="#29333b" stroke-width=".01" stroke-linecap="round" stroke-linejoin="round" stroke-miterlimit="22.926"/><path d="M5.808 3.466h.113v.01h-.113v-.01z" fill="#4c4c4d"/><path d="M5.818 3.466v.177h-.01v-.177h.01zm0 .41v.176h-.01v-.176h.01zm.148-.028V3.67h-.009v.178h.01z" fill="#4c4c4d"/><path d="M6.013 3.67h-.052v.009h.052V3.67zm-.047.513v-.307h-.009v.307h.01z" fill="#4c4c4d"/><path d="M5.755 4.248l.35.186v-.31l-.353.1.003.024z" fill="#fcc22e" fill-opacity=".5"/><g clip-path="url(#C)" opacity=".3" transform="matrix(.01182 0 0 -.01182 5.438 45.475)"><g mask="url(#D)" transform="translate(26.259 3469.011)"><g clip-path="url(#E)" transform="translate(-26.259 -3469.011)"><path d="M26.79 3488.414l29.677-15.764-3.332-3.639-26.876 18.268.531 1.135z" fill="#fcc22e"/></g></g></g><path d="M5.313 4.33h.452v-.163h-.452v.163zm.094.08a.046.046 0 1 0-.093 0 .046.046 0 0 0 .093 0m.128 0a.046.046 0 1 0-.093 0 .046.046 0 0 0 .093 0m.127 0a.046.046 0 1 0-.093 0 .046.046 0 0 0 .093 0m.128 0a.046.046 0 1 0-.093 0 .046.046 0 0 0 .093 0" fill="#bf3d39"/><path d="M5.626 4.167h.105v-.08h-.105v.08z" fill="#efc432"/><path d="M5.73 4.086h-.104l-.023-.04c-.005-.007.001-.018.01-.018h.132c.009 0 .015.01.01.018l-.025.04z" fill="#be9b3f"/><path d="M5.29 4.33v.07h.026a.046.046 0 0 1 .09 0h.038a.046.046 0 0 1 .09 0h.037a.046.046 0 0 1 .09 0h.038a.046.046 0 0 1 .09 0h.024v-.07H5.29z" fill="#e14b3f"/><path d="M5.546 4.016h-.232a.011.011 0 0 1-.011-.01c0-.007.005-.012.011-.012h.232c.006 0 .011.005.011.011a.011.011 0 0 1-.01.011" fill="#bf3d39"/><path d="M5.383 4.167h.093v-.116h-.093v.116zm.093.081a.046.046 0 1 0-.093 0 .046.046 0 0 0 .093 0" fill="#f4d65a"/><path d="M5.568 4.295a.013.013 0 0 1-.008-.004c-.005-.005-.005-.011 0-.016l.07-.07c.004-.005.01-.005.016 0 .005.005.005.011 0 .016l-.07.07a.011.011 0 0 1-.009.004m.071 0a.013.013 0 0 1-.009-.004c-.005-.005-.005-.011 0-.016l.07-.07c.005-.005.011-.005.016 0 .005.005.005.011 0 .016l-.07.07a.011.011 0 0 1-.008.004" fill="#f9eab0"/><path d="M6.013 3.875h-.052v.009h.052v-.01z" fill="#4c4c4d"/><path d="M5.93 3.77a.102.102 0 1 1-.132 0 .074.074 0 1 1 .132 0z" fill="#0abab5" stroke="#0abab5" stroke-width=".01" stroke-linecap="round" stroke-linejoin="round" stroke-miterlimit="22.926"/><path d="M5.063 4.023c0-.055-.048-.1-.106-.1a.104.104 0 0 0-.106.1.11.11 0 0 1 .106-.076.11.11 0 0 1 .106.076" fill="#e985ad"/><path d="M5.77 2.983h.097v.01H5.77v-.01z" fill="#504272"/><path d="M5.856 3.079v-.096h.01v.096h-.01zM5.77 2.68h.097v.01H5.77v-.01z" fill="#504272"/><path d="M5.856 2.777V2.68h.01v.096h-.01zm-.086-.398h.097v.01H5.77v-.01z" fill="#504272"/><path d="M5.856 2.475v-.096h.01v.096h-.01zm-.086-.398h.097v.01H5.77v-.01z" fill="#504272"/><path d="M5.856 2.172v-.095h.01v.095h-.01zm-.394-.24h-.097v.01h.097v-.01z" fill="#504272"/><path d="M5.375 2.02v-.088h-.01v.088h.01zm.087.209h-.097v.01h.097v-.01z" fill="#504272"/><path d="M5.375 2.325v-.096h-.01v.096h.01zm0 .304v-.096h-.01v.096h.01zm0 .304v-.096h-.01v.096h.01z" fill="#504272"/><path d="M5.462 2.533h-.098v.01h.098v-.01zm0 .304h-.098v.01h.098v-.01z" fill="#504272"/><path d="M4.52 4.15l-.048-.004-.054.002-.02.016-.018.033-.005.054.008.044.008.02.012.027.01.005.238.005.068-.005s.02-.01.022-.014c.001-.004.011-.017.013-.031l.01-.065-.005-.032-.013-.032-.023-.026-.072.002h-.036v-.018s-.01-.01-.028-.008c-.02 0-.047 0-.052.002-.005.003-.013.004-.013.008l-.001.015" fill="#e14b3f"/><path d="M4.723 4.347v-.204h-.015v.025h-.065v-.025h-.014l-.002.204h.017V4.29h.064v.057h.015zm-.08-.114h.065v.021h-.065v-.021zm0-.03h.065v.022h-.065v-.021zm.065-.028v.022h-.065v-.022h.065zm-.064.108V4.26h.064v.022h-.064zm.003.067h-.023a.003.003 0 0 0-.002.003v.002c0 .002 0 .003.002.003h.023a.003.003 0 0 0 .002-.003v-.002a.003.003 0 0 0-.002-.002m.08-.001h-.023a.003.003 0 0 0-.003.003v.002c0 .002.002.003.003.003h.023a.003.003 0 0 0 .002-.003v-.002a.003.003 0 0 0-.002-.002" fill="#95a6a5"/></svg>