<svg xmlns="http://www.w3.org/2000/svg" width="153.83" height="123.625" viewBox="0 0 144.21607 115.89841"><path d="M7.891 106.964L0 102.407l5.018-2.892 7.892 4.557-5.019 2.892zm131.307-72.34l-7.891-4.557 5.018-2.892 7.891 4.557-5.018 2.892zm-71.06 81.274l68.93-39.805-43.836-25.261-68.929 39.806 43.835 25.26z" fill="#95a6a5"/><path d="M60.327 67.279l-2.304-1.492V48.455l2.304 1.492V67.28z" fill="#584972"/><path d="M63.037 65.726l-2.71 1.553V49.947l2.71-1.592v17.37z" fill="#725c94"/><path d="M76.452 57.894l-2.439-1.492V39.07l2.44 1.492v17.332z" fill="#584972"/><path d="M79.027 56.34l-2.575 1.554V40.562l2.575-1.591v17.37z" fill="#725c94"/><path d="M44.336 56.801l-2.304-1.492V37.978l2.304 1.491v17.332z" fill="#584972"/><path d="M47.182 55.248l-2.846 1.553V39.469l2.846-1.591v17.37z" fill="#725c94"/><path d="M61.121 48.626L79.107 38.39 60.028 27.396 42.043 37.632 61.12 48.626z" fill="#8bd6f2"/><path d="M61.134 51.809l17.973-10.225V38.39L61.134 48.614v3.195z" fill="#157b91"/><path d="M42.043 40.815l19.09 10.994v-3.195l-19.09-10.982v3.183z" fill="#128cac"/><path d="M41.897 10.122l3.748 2.034-.14 27.45-3.608-2.033V10.122z" fill="#128cac" fill-rule="evenodd"/><path d="M63.037 1.937l-17.415 9.97-.15 27.576 17.565-10.095V1.937z" fill="#53bddb" fill-rule="evenodd"/><path d="M63.098 2.184l-17.324 9.972-3.732-2.061L59.366 0l3.732 2.184z" fill="#8bd6f2" fill-rule="evenodd"/><path d="M106.265 70.647l2.304-1.492V51.823l-2.304 1.492v17.332z" fill="#725c94"/><path d="M103.555 69.094l2.71 1.553V53.315l-2.71-1.592v17.37z" fill="#584972"/><path d="M90.14 61.262l2.439-1.492V42.438l-2.44 1.492v17.332z" fill="#725c94"/><path d="M87.565 59.709l2.574 1.553V43.93l-2.574-1.591v17.37z" fill="#584972"/><path d="M122.256 60.17l2.304-1.493V41.346l-2.304 1.492v17.331z" fill="#725c94"/><path d="M119.546 58.616l2.71 1.553V42.838l-2.71-1.592v17.37z" fill="#584972"/><path d="M105.621 51.994L87.636 41.758l19.078-10.994L124.699 41l-19.078 10.994z" fill="#8bd6f2"/><path d="M105.609 55.177L87.636 44.952v-3.194l17.973 10.224v3.195z" fill="#128cac"/><path d="M124.7 44.183l-19.091 10.994v-3.195L124.699 41v3.183z" fill="#157b91"/><path d="M124.695 13.242l-3.659 2.034v27.823l3.66-2.158V13.242z" fill="#128cac" fill-rule="evenodd"/><path d="M103.555 5.305l17.481 9.97v27.452l-17.48-9.971V5.305z" fill="#53bddb" fill-rule="evenodd"/><path d="M103.645 5.305l17.324 9.97 3.732-2.06-17.324-9.97-3.732 2.06z" fill="#8bd6f2" fill-rule="evenodd"/><path d="M68.864 103.917l-4.472-2.875V67.638l4.472 2.875v33.404z" fill="#493d5f"/><path d="M74.013 100.924l-5.15 2.993V70.513l5.15-3.068v33.48z" fill="#44355f"/><path d="M44.065 91.404l-4.608-2.875V55.124L44.065 58v33.404z" fill="#493d5f"/><path d="M49.079 88.411l-5.014 2.993V58l5.014-3.068v33.48z" fill="#44355f"/><path d="M114.938 77.033l-4.607-2.876V40.753l4.607 2.876v33.404z" fill="#493d5f"/><path d="M119.952 74.04l-5.014 2.993V43.629l5.014-3.068V74.04z" fill="#44355f"/><path d="M70.16 75.454l57.82-33.39-36.77-21.19-57.82 33.39 36.77 21.19z" fill="#725c94"/><path d="M70.184 81.59l57.797-33.37v-6.157L70.184 75.432v6.157z" fill="#685580"/><path d="M33.39 60.4l36.794 21.19v-6.158L33.39 54.265V60.4z" fill="#584972"/><path d="M43.523 108.41l2.304-1.491V89.587l-2.304 1.492v17.332z" fill="#725c94"/><path d="M40.813 106.857l2.71 1.554V91.079l-2.71-1.592v17.37z" fill="#584972"/><path d="M27.397 99.026l2.44-1.492V80.202l-2.44 1.492v17.332z" fill="#725c94"/><path d="M24.822 97.473l2.575 1.553V81.694l-2.575-1.592v17.37z" fill="#584972"/><path d="M59.513 97.933l2.304-1.492V79.109l-2.304 1.492v17.332z" fill="#725c94"/><path d="M56.803 96.38l2.71 1.553V80.601l-2.71-1.591v17.37z" fill="#584972"/><path d="M42.91 89.758L24.923 79.522l19.078-10.994 17.985 10.236L42.91 89.758z" fill="#8bd6f2"/><path d="M42.897 92.94L24.924 82.717v-3.194l17.973 10.224v3.195z" fill="#128cac"/><path d="M61.987 81.947L42.897 92.94v-3.195l19.09-10.982v3.183z" fill="#157b91"/><path d="M46.504 59.993l-3.659 2.073v27.976l3.66-2.073V59.993z" fill="#128cac" fill-rule="evenodd"/><path d="M24.958 51.904l17.887 10.162v27.976L24.958 79.88V51.904z" fill="#53bddb" fill-rule="evenodd"/><path d="M25.072 51.904l17.655 10.162 3.803-2.1-17.655-10.162-3.803 2.1z" fill="#8bd6f2" fill-rule="evenodd"/><path d="M97.728 106.924l-2.304-1.492V88.1l2.304 1.492v17.332z" fill="#584972"/><path d="M100.574 105.37l-2.846 1.554V89.592l2.846-1.591v17.37z" fill="#725c94"/><path d="M113.854 97.539l-2.44-1.492V78.715l2.44 1.493v17.331z" fill="#584972"/><path d="M116.564 95.986l-2.71 1.553V80.208l2.71-1.592v17.37z" fill="#725c94"/><path d="M81.873 96.446l-2.44-1.492V77.623l2.44 1.492v17.331z" fill="#584972"/><path d="M84.583 94.893l-2.71 1.553V79.115l2.71-1.592v17.37z" fill="#725c94"/><path d="M98.597 88.27l17.986-10.235-19.078-10.994-17.986 10.236L98.597 88.27z" fill="#8bd6f2"/><path d="M98.61 91.454l17.973-10.224v-3.195L98.61 88.259v3.195z" fill="#157b91"/><path d="M79.519 80.46l19.09 10.994V88.26L79.52 77.277v3.183z" fill="#128cac"/><path d="M94.882 58.507l3.66 2.072v27.976l-3.66-2.073V58.507z" fill="#128cac" fill-rule="evenodd"/><path d="M116.429 50.418L98.54 60.579v27.976l17.888-10.162V50.418z" fill="#53bddb" fill-rule="evenodd"/><path d="M116.435 50.418L98.78 60.579l-3.804-2.1 17.655-10.161 3.804 2.1z" fill="#8bd6f2" fill-rule="evenodd"/><path d="M138.493 33.78l4.11-2.348.977-5.395-5.845 1.338.758 6.406z" fill="#44355f"/><path d="M139.677 29.807l4.11-2.35v-2.38l-4.11 2.348v2.382zm-6.435.953l5.25 3.02.977-5.394-6.984-4.032.757 6.406z" fill="#685580"/><path d="M132.277 25.534l7.4 4.273v-2.382l-7.4-4.272v2.381z" fill="#8d9aca"/><path d="M143.788 25.076l-4.111 2.35-7.4-4.273 4.11-2.349 7.4 4.272z" fill="#725c94"/><path d="M142.227 25.268l-3.19 1.822-5.741-3.315 3.19-1.822 5.74 3.315z" fill="#aa5a7f"/><path d="M137.51 16.862a2.81 2.81 0 0 0 .047-.185l-.117-1.41.443-.956c.01-.044.018-.064.026-.058l.001-.003v.003c.01.01.02.064.029.17l.16.952c.299 1.434.928 3.88 1.17 5.365.148.91.032 1.774-.13 2.43l.085.826-.947 1.355-.107-1.292-.469-.25s-.486-1.667-.576-2.935c-.09-1.267.136-3.176.385-4.012" fill="#1ab59d"/><path d="M135.85 17.793l-.069-1.385.45-.99c.017-.057.03-.028.042.128.055.723.816 3.518 1.064 5.044.115.707.03 1.381-.093 1.9l.077.541-.868 1.45-.199-1.34-.173-.093s-.39-1.335-.462-2.35c-.062-.88.066-2.147.231-2.905m3.41 2.405l-.03-1.57.462-1.037v.006c.013-.02.023.02.032.143.053.691.78 3.365 1.018 4.824.142.87-.032 1.684-.196 2.203l.036 1-.705.562-.54-2.112-.002-.111a10.165 10.165 0 0 1-.236-1.439c-.052-.731.034-1.74.16-2.469" fill="#1ab59d"/><path d="M138.277 25.352s.85-1.713.54-3.618c-.31-1.904-1.259-5.394-1.328-6.296-.068-.903-.18 1.582-.43 2.418-.25.836-.476 2.745-.386 4.013.09 1.268.577 2.934.577 2.934l1.027.549z" fill="#62c4b0"/><path d="M136.453 24.481s.681-1.372.432-2.897c-.248-1.526-1.008-4.321-1.063-5.044-.056-.723-.146 1.267-.345 1.937-.2.67-.381 2.199-.31 3.214.073 1.016.463 2.351.463 2.351l.823.44z" fill="#62c4b0"/><path d="M139.877 26.329s.651-1.312.414-2.772c-.238-1.459-.966-4.132-1.018-4.823-.053-.692-.139 1.211-.33 1.852-.191.64-.364 2.103-.295 3.075.07.97.442 2.248.442 2.248l.787.42z" fill="#7ccbbc"/><path d="M6.897 106.21l4.11-2.348.977-5.394-5.845 1.337.758 6.406z" fill="#44355f"/><path d="M8.08 102.237l4.112-2.349v-2.381L8.08 99.856v2.38zm-6.434.953l5.25 3.02.977-5.393L.89 96.784l.757 6.406z" fill="#685580"/><path d="M.681 97.965l7.4 4.272v-2.381l-7.4-4.273v2.382z" fill="#8d9aca"/><path d="M12.192 97.507L8.08 99.856l-7.4-4.273 4.11-2.349 7.4 4.273z" fill="#725c94"/><path d="M10.63 97.698L7.442 99.52 1.7 96.205l3.19-1.822 5.74 3.315z" fill="#aa5a7f"/><path d="M5.914 89.292c.016-.055.032-.117.047-.185l-.117-1.41.443-.956c.01-.043.018-.064.026-.058l.001-.003v.003a.5.5 0 0 1 .03.17l.159.952c.299 1.435.928 3.88 1.17 5.365.148.91.032 1.775-.13 2.431l.085.825-.947 1.355-.107-1.292-.469-.25s-.486-1.666-.576-2.934c-.09-1.268.136-3.177.385-4.013" fill="#1ab59d"/><path d="M4.254 90.224l-.069-1.385.45-.99c.016-.058.03-.029.042.128.055.722.815 3.518 1.064 5.043.115.707.03 1.381-.093 1.901l.077.54-.868 1.45-.199-1.34-.173-.092s-.39-1.335-.462-2.351c-.062-.88.066-2.147.231-2.904m3.409 2.405l-.03-1.571.463-1.037v.006c.013-.02.023.02.032.143.053.691.78 3.365 1.018 4.824.142.87-.033 1.684-.196 2.203l.036 1-.705.562-.54-2.112-.002-.111a10.165 10.165 0 0 1-.236-1.439c-.052-.731.033-1.74.16-2.469" fill="#1ab59d"/><path d="M6.681 97.782s.85-1.713.54-3.618c-.31-1.904-1.259-5.393-1.328-6.296-.068-.902-.18 1.582-.43 2.418-.25.837-.476 2.745-.386 4.013.09 1.268.577 2.934.577 2.934l1.027.549z" fill="#62c4b0"/><path d="M4.857 96.912s.681-1.372.433-2.898c-.249-1.526-1.01-4.32-1.064-5.044-.055-.722-.146 1.267-.345 1.937-.2.67-.381 2.2-.31 3.215.073 1.015.463 2.35.463 2.35l.823.44z" fill="#62c4b0"/><path d="M8.28 98.76s.652-1.313.415-2.772c-.238-1.46-.966-4.133-1.018-4.824-.053-.691-.139 1.212-.33 1.853-.191.64-.364 2.103-.295 3.074.069.971.441 2.248.441 2.248l.788.42z" fill="#7ccbbc"/><path d="M78.25 39.902l7.664 4.823L71.948 53.1l-7.664-4.823 13.967-8.376z" fill="#393151"/><path d="M72.616 30.272v21.964l-4.89-2.823V27.448l4.89 2.824z" fill="#aa5b7f"/><path d="M69.685 48.281l-1.96 1.132 4.891 2.823-2.93-3.955z" fill="#f8aea0" fill-rule="evenodd"/><path d="M81.112 19.722v21.964l-13.387 7.729V27.45l.231-.672.237.257.364-.676.345.252.404-.64.257.246.354-.641.296.246.325-.591.237.246.276-.532.227.227.354-.542.188.236.305-.532.207.296.316-.601.216.295.335-.61.217.265.316-.561.217.216.345-.512.216.246.316-.493.305.129.316-.533.216.237.345-.582.214.237.338-.522.207.207.385-.582.246.217.394-.64.316.256.345-.533.236.188.365-.621.226.197.316-.552.217.266.387-.56.263.215.178-.414.236.266.07-.355.165.325z" fill="#f8aea0"/><path d="M67.726 27.449l2.132 1.23-.173 19.602-1.96 1.132V27.449z" fill="#fdc282" fill-rule="evenodd"/><path d="M72.616 30.272v21.964l-2.93-3.955.172-19.602 2.758 1.593zm8.496-10.552l2.132 1.23 2.759 1.593v21.964l-2.931-3.955-1.96 1.131V19.72z" fill="#ca633a" fill-rule="evenodd"/><path d="M86.003 22.543v21.964l-13.387 7.73V30.271l.231-.671.237.256.364-.675.345.251.404-.64.257.246.354-.64.296.246.325-.592.237.247.276-.533.226.227.355-.542.188.237.305-.533.207.296.315-.601.217.296.335-.611.217.266.316-.562.216.217.345-.513.217.247.316-.493.305.128.315-.532.217.236.345-.581.214.236.338-.522.207.207.385-.582.246.217.394-.64.316.256.344-.532.237.187.365-.621.226.197.316-.552.217.266.386-.559.264.214.177-.414.237.267.069-.355.166.324z" fill="#fdc282"/><path d="M79.849 36.959v9.667l-5.892 3.402v-9.667l5.892-3.402m2.799 4.181v3.717l-2.266 1.308v-3.717l2.266-1.308m2.497-9.262v1.468l-11.346 6.55V38.43l11.346-6.55m0-2.312v1.467l-11.346 6.55v-1.467l11.346-6.55m0-2.311v1.467l-11.346 6.551v-1.467l11.346-6.55" fill="#ca633a"/><path d="M78.804 40.568c-.003.145-.077.303-.166.351-.088.049-.158-.03-.155-.175.003-.145.077-.302.165-.35.089-.05.159.029.156.174m-.286.664c-.22.531-.367 1.348-.384 2.252-.003.138-.073.288-.158.334h-.001c-.085.047-.151-.027-.148-.166.005-.278-.012-.91-.286-.76-.274.15-.316.814-.321 1.093-.003.138-.073.288-.158.334-.003.003-.006.003-.01.005l-.009.006c-.084.046-.15-.029-.148-.167.005-.278-.012-.91-.286-.76-.274.15-.316.814-.32 1.093-.003.138-.074.288-.159.334-.084.047-.15-.028-.148-.166.02-1.052.342-1.6.637-1.762.17-.093.344-.064.457.178.125-.373.304-.595.474-.689.134-.073.27-.07.376.05.088-.59.23-1.107.41-1.508-.297-.371-.729-.47-1.215-.202-.93.51-1.706 2.156-1.735 3.678-.029 1.521.701 2.341 1.63 1.832.93-.51 1.706-2.157 1.735-3.678.01-.543-.076-.996-.233-1.332" fill="#fff"/><path d="M88.853 45.644l-2.974 1.872 5.42 3.25 2.974-1.871-5.42-3.25z" fill="#393151"/><path d="M90.986 50.374l1.315-.708-1.493-12.256-1.315.81 1.493 12.154z" fill="#c86c8d"/><path d="M86.246 47.637l4.74 2.737-1.492-12.154-1.756-1.014-1.492 10.431z" fill="#975579"/><path d="M90.808 37.41l-1.315.81-1.755-1.014 1.315-.809 1.755 1.014z" fill="#c86c8d"/><path d="M90.347 37.778l-.833.512-1.112-.641.833-.513 1.112.642z" fill="#93466c"/><path d="M86.521 33.894a.17.17 0 1 0 .307-.148.17.17 0 0 0-.306.148" fill="#f6917a"/><path d="M89.156 38.139s1.105-9.02 2.785-10.523L89.156 38.14z" fill="#63c4b0"/><path d="M91.818 29.023c-.773.304-1.154 1.176-1.154 1.176s.872.38 1.645.078c.773-.304 1.154-1.176 1.154-1.176s-.872-.38-1.645-.078m-.708 3.007c-.772.302-1.153 1.175-1.153 1.175s.871.38 1.645.078c.773-.303 1.154-1.175 1.154-1.175s-.872-.38-1.645-.078m-.531 3.007c-.773.302-1.154 1.174-1.154 1.174s.872.38 1.645.078c.773-.303 1.154-1.175 1.154-1.175s-.872-.38-1.645-.077m.344-6.862c.293.777-.1 1.644-.1 1.644s-.866-.393-1.159-1.17c-.292-.776.1-1.643.1-1.643s.866.392 1.16 1.17m1.823-.74c-.362.396-.976.421-.976.421s-.027-.614.336-1.008c.362-.396.976-.422.976-.422s.027.614-.336 1.009" fill="#63c4b0"/><path d="M92.028 27.092c.062.38-.195.737-.195.737s-.358-.258-.42-.637.194-.736.194-.736.36.256.42.636m-2.48 4.042c.57.605.54 1.557.54 1.557s-.952-.03-1.52-.635c-.569-.605-.539-1.555-.539-1.555s.95.029 1.52.633m-.531 2.476c.57.605.54 1.556.54 1.556s-.952-.029-1.52-.633c-.57-.606-.54-1.556-.54-1.556s.95.029 1.52.633m-1.213 1.933c.562.216.844.846.844.846s-.63.281-1.193.067c-.562-.216-.844-.847-.844-.847s.63-.28 1.193-.066m.909.284c-.133.424.104.876.104.876s.452-.236.584-.66c.134-.425-.102-.877-.102-.877s-.452.236-.586.661" fill="#63c4b0"/><path d="M89.623 38.202s-1.636-3.162-2.465-4.11l2.465 4.11zm-.853-3.335c-.155.3-.523.417-.523.417s-.117-.368.037-.667c.155-.3.523-.417.523-.417s.117.367-.038.667" fill="#63c4b0"/><path d="M92.228 52.697l-5.772-3.332-2.054-1.187-12.89 7.442 9.881 5.705 12.89-7.442-2.055-1.186z" fill="#3a3056"/><path d="M80.961 60.967v-1.262l12.27-7.084v1.262l-12.27 7.084z" fill="#5295a6"/><path d="M80.961 59.705l-9.407-5.43 12.27-7.085 9.407 5.43-12.27 7.085z" fill="#74ccd4"/><path d="M71.554 54.274v1.262l9.407 5.431v-1.262l-9.407-5.43z" fill="#66a5b3"/><path d="M78.901 56.33v-.551h-.955v.551h.955zm.549.317v-.552h-.955v.552h.955zm.548.316v-.55h-.955v.55h.955zm.548.317v-.551h-.954v.551h.954zm.549.317v-.552h-.955v.552h.955zm.548.316v-.55h-.954v.55h.954zm.549.317v-.551h-.955v.551h.955zm.548.317v-.552h-.955v.552h.955zm-8.227-4.75v-.551h-.954v.55h.954zm.549.317v-.552h-.955v.552h.955zm.548.316v-.551h-.955v.551h.955zm.549.317v-.551h-.955v.55h.955zm.548.316v-.55h-.955v.55h.955zm.549.317v-.551H76.3v.551h.955zm.548.317v-.552h-.955v.552h.955zm-.406.316v-.55h.955v.55h-.955z" fill="none" stroke="#fff" stroke-width=".271" stroke-linecap="round" stroke-linejoin="round" stroke-miterlimit="10"/><path d="M85.633 52.783c-.103.058-.244.07-.315.026-.07-.042-.043-.123.06-.18.104-.057.245-.07.315-.027.07.043.044.124-.06.181m-.583.069c-.465.06-1.1.29-1.744.645-.098.055-.233.066-.3.025-.067-.04-.042-.118.057-.172.198-.11.635-.379.418-.51-.217-.132-.702.108-.9.218-.098.054-.233.065-.3.024l-.007-.004c-.002-.003-.005-.003-.008-.005-.067-.04-.041-.117.058-.172.198-.11.635-.378.418-.51-.217-.132-.702.108-.9.218-.099.054-.233.066-.3.025-.067-.041-.041-.118.057-.173.75-.413 1.267-.41 1.5-.268.135.082.186.217.061.395.314-.063.543-.028.678.054.106.064.16.16.119.285.45-.178.873-.289 1.228-.325.141-.36.035-.704-.351-.938-.737-.448-2.214-.325-3.297.274-1.084.598-1.365 1.446-.628 1.894.737.447 2.213.324 3.297-.274.387-.214.67-.459.843-.706" fill="#ee2e6b"/><path d="M80.961 59.705l-.4.527.4.735v-1.262z" fill="#5295a6" fill-rule="evenodd"/><path d="M71.926 55.126l8.635 5.106.4.735-9.407-5.43.372-.411z" fill="#74ccd4" fill-rule="evenodd"/><g fill="#fff"><path d="M85.66 57.284c0 .026-.014.054-.03.062-.015.009-.028-.005-.027-.03 0-.026.013-.054.03-.063.015-.009.027.005.027.031m-.051.118a1.17 1.17 0 0 0-.068.4c0 .025-.013.051-.028.06-.016.008-.027-.006-.027-.03.001-.05-.002-.162-.05-.135-.05.027-.057.145-.058.194 0 .025-.013.051-.028.06h-.003c-.015.008-.027-.006-.026-.03 0-.05-.002-.162-.05-.135-.05.026-.057.144-.058.194 0 .025-.013.051-.028.06-.015.008-.027-.006-.026-.03.003-.187.06-.284.113-.313.03-.017.06-.012.081.031.022-.066.054-.105.084-.122.024-.013.048-.012.067.009.016-.105.04-.197.073-.268-.053-.066-.13-.083-.216-.036-.165.09-.303.383-.308.653-.005.27.124.416.29.326.164-.09.302-.383.307-.653a.54.54 0 0 0-.041-.237"/><text transform="matrix(.15522 -.09042 -.00157 .25223 85.726 57.601)" style="-inkscape-font-specification:CenturyGothic-Bold" font-weight="700" font-size="1.669" font-family="Century Gothic"><tspan x="0 1.5684569 2.0356567 3.1035423 3.5707424 4.6719995 5.1391993 5.8399992 6.307199" y="0">m e p ´ s</tspan></text><text transform="matrix(.15522 -.09042 -.00157 .25223 86.962 56.882)" style="-inkscape-font-specification:CenturyGothic" font-weight="400" font-size="1.669" font-family="Century Gothic"><tspan x="0 1.5651197 2.0273139 3.1118853 3.5740795 4.7170506 5.179245 5.512959 5.9751534 7.0680676 7.5302615 8.1776676 9.1020555 10.186626 10.648821 11.172752 11.634947 12.719518 13.181712 14.261277 14.723472 15.289118 15.751311 16.085026 16.54722 17.471609 17.933804 19.026716 19.488911 20.136316 21.060705 22.198671 22.660864 23.675356 24.13755 25.275517 25.737709 26.071424 26.533619 26.867332 27.329527 28.409092 28.871286 29.205 29.667194 30.232841 30.695034 31.834669 32.296864 32.799103 33.261299 33.595013 34.057205 35.15012 35.612312 36.25972" y="0">m e d i o s e f e c t i v o s p u b l i c i t a r i o s</tspan></text><text transform="matrix(.15522 -.09042 -.00157 .25223 85.735 57.848)" style="-inkscape-font-specification:CenturyGothic-Italic" font-style="italic" font-size=".648" font-family="Century Gothic"><tspan x="0 0.14641242 0.32586479 0.93354106 1.1129935 1.5548221 1.7342744 2.1281626 2.307615 2.4371836 2.616636 2.8679988 3.0474513 3.4899278 3.6693799 4.0645642 4.2440162 4.6877885 4.8672409 5.2915778 5.6504827 5.7800508 5.9595032 6.4032755 6.5827279 7.0038257 7.1832781 7.6257544 7.8052068" y="0">I m p u l s a n d o i d e a s</tspan></text></g><path d="M83.825 47.19l.575-.06.16.485.665-.004.247.53.564-.055.12.45.537-.055.131.44.528-.027.084.381.431-.058.099.364.468-.021.132.368.462-.005.114.337.513-.027.118.391.535.018.077.336.44-.043.107.358.438-.021.123.345.401-.022.083.301.435-.036.102.346.355-.073.07.32.308-.057-.016.225-.342.197-9.425-5.42.36-.208z" fill="#74ccd4" fill-rule="evenodd"/><path d="M86.703 33.857l-.002.003-.031-.034.004-.006a.322.322 0 0 0 .029.038zm-.836.54a.5.5 0 0 0 .771.164.5.5 0 1 0 .767-.64.5.5 0 0 0-.538-.835.5.5 0 0 0-.185.158.5.5 0 1 0-.763.635.498.498 0 0 0-.052.518" fill="#ee2e6b"/></svg>