<svg xmlns="http://www.w3.org/2000/svg" width="4.321" height="4.386" viewBox="0 0 4.0509403 4.1120059"><defs><clipPath id="d"><path d="M1624.538-3478.836h13.9v34.701h-13.9v-34.701z"/></clipPath><clipPath id="c"><path d="M1631.576-3478.836h11.032v35.268h-11.032v-35.268z"/></clipPath><clipPath id="e"><path d="M1468.47-3581.005h147.688v137.416H1468.47v-137.416z"/></clipPath><mask id="f" height="1" width="1" y="0" x="0" maskUnits="userSpaceOnUse"><g clip-path="url(#a)" fill-rule="evenodd"><path d="M0 0h147.689v137.416H0V0z" fill="#fff"/><path d="M0 0h147.689v137.416H0V0z" fill="url(#b)"/></g></mask><clipPath id="a"><path d="M0 0h147.689v137.416H0V0z"/></clipPath><clipPath id="g"><path d="M62.347 137.416l85.342-97.32L79.405 0 0 45.736l48.633 79.927 7.005 8.398 6.709 3.355z" clip-rule="evenodd"/></clipPath><linearGradient id="h" gradientUnits="userSpaceOnUse" y2="136.53" x2="57.34" y1=".34" x1="81.35"><stop offset="0" stop-color="#2784c5"/><stop offset=".17" stop-color="#2784c5"/><stop offset="1" stop-color="#fff"/></linearGradient><clipPath id="i"><path d="M1468.47-3581.005h79.404v134.062h-79.405v-134.062z"/></clipPath><mask id="j" height="1" width="1" y="0" x="0" maskUnits="userSpaceOnUse"><g clip-path="url(#b)" fill-rule="evenodd"><path d="M0 0h79.405v134.061H0V0z" fill="#fff"/><path d="M0 0h79.405v134.061H0V0z" fill="url(#c)"/></g></mask><clipPath id="b"><path d="M0 0h79.405v134.061H0V0z"/></clipPath><clipPath id="k"><path d="M55.638 134.061l-7.005-8.398L0 45.736 79.405 0 55.638 134.061z" clip-rule="evenodd"/></clipPath><linearGradient id="l" gradientUnits="userSpaceOnUse" y2="127.98" x2="21.17" y1="-6.1" x1="44.81"><stop offset="0" stop-color="#2784c5"/><stop offset=".17" stop-color="#2784c5"/><stop offset="1" stop-color="#fff"/></linearGradient></defs><path d="M2.596 1.917L.173 3.328l1.389.784 2.422-1.41-1.388-.785z" fill="#443560"/><path d="M2.796 3.011c-.139-.08-.139-.21 0-.29a.556.556 0 0 1 .504 0c.139.08.139.21 0 .29a.556.556 0 0 1-.504 0zm-.083.048a.74.74 0 0 0 .67 0c.185-.106.185-.28 0-.387a.74.74 0 0 0-.67 0c-.185.107-.185.28 0 .387" fill="#443560"/><path d="M3.392 3.004l-.105.06.246.143.106-.06-.247-.143z" fill="#443560"/><path d="M3.563 3.077l-.149.087.394.227c.047.027.12.03.16.007.042-.024.037-.066-.01-.093l-.395-.228z" fill="#443560"/><path d="M1.25 2.506l-.982.568-.26.155 1.397.806.264-.154.979-.568h-.001L1.25 2.506zm1.123-.657l-.14.09-.982.567 1.397.806.983-.567.139-.09-1.397-.806z" fill="#a95b7e"/><path d="M3.77 2.655l-2.365 1.38v.06l2.365-1.38v-.06z" fill="#e985ad"/><path d="M.008 3.229v.06l1.397.806v-.06L.008 3.23z" fill="#e985ad"/><path d="M.162 3.106v.195l1.15.664V3.77l-1.15-.664z" fill="#f2d1cf"/><path d="M3.272 2.638c-.252.162-.426.33-.526.442-.056.062-.198.075-.283.026L1.364 2.47l-.008.003c-.106.031-.128.114-.043.163l1.15.663c.085.05.227.037.283-.025.1-.111.274-.28.526-.442l.341-.197v-.194l-.34.196z" fill="#dfbdce"/><path d="M3.613 2.442l-.34.196a2.57 2.57 0 0 0-.527.442c-.056.062-.198.075-.283.026l-1.15-.664c-.085-.049-.063-.131.043-.163a4.58 4.58 0 0 0 .765-.303l.342-.198 1.15.664z" fill="#fee6db"/><path d="M2.514 3.381a.06.06 0 0 0 0-.017v-.2l-.176.13c-.189.06-.44.152-.683.278l-.343.198v.195l.343-.198c.28-.145.571-.245.764-.303.057-.017.09-.05.095-.083z" fill="#dfbdce"/><path d="M.162 3.106l.341-.197c.253-.161.427-.33.527-.442.055-.06.198-.074.282-.025l1.15.664c.085.049.063.131-.043.163a4.514 4.514 0 0 0-.764.303l-.343.198-1.15-.664z" fill="#ededed"/><path d="M2.297 2.809l.79-.457-.033-.019-.79.456.033.02zm-.079-.046l.79-.456-.032-.02-.79.457.032.02zm-.078-.045l.79-.457-.033-.019-.79.457.033.019zm-.079-.046l.79-.456-.033-.02-.79.457.033.02zm-.078-.045l.79-.456-.033-.02-.79.457.033.019zm-.112-.065l.79-.456.033.02-.79.456-.033-.02zm-.651.896l.79-.456-.033-.02-.79.457.033.02zm-.079-.045l.79-.456-.033-.02-.79.457.033.019zm-.078-.045l.79-.457-.033-.019-.79.456.033.02zm-.079-.046l.79-.456-.033-.02-.79.457.033.02zm-.079-.045l.79-.457-.033-.019-.79.457.033.019zm-.112-.065l.79-.456.034.019-.79.456-.034-.019z" fill="#e985ad"/><path d="M2.85 2.791c-.138-.08-.138-.21 0-.29a.556.556 0 0 1 .504 0c.139.08.139.21 0 .29a.556.556 0 0 1-.503 0zm-.083.049a.74.74 0 0 0 .67 0c.185-.107.185-.28 0-.387a.74.74 0 0 0-.67 0c-.185.106-.185.28 0 .387" fill="#443560"/><path d="M2.85 2.737c-.138-.08-.138-.21 0-.29a.556.556 0 0 1 .504 0c.139.08.139.21 0 .29a.556.556 0 0 1-.503 0zm-.083.048a.74.74 0 0 0 .67 0c.185-.107.185-.28 0-.387a.74.74 0 0 0-.67 0c-.185.107-.185.28 0 .387" fill="#715d94"/><path d="M3.341 2.79v.055l.246.142.106-.06-.352-.136z" fill="#19b59c"/><path d="M3.447 2.73l-.106.06.246.143.106-.061-.246-.142z" fill="#63c4b0"/><path d="M4.05 3.086l-.09-.03-.342-.199-.09.052-.06-.02v.055l.394.227a.18.18 0 0 0 .161.007c.018-.01.027-.024.028-.038v-.054z" fill="#443560"/><path d="M3.618 2.803l-.15.086.394.228c.048.027.12.03.161.007.041-.024.036-.066-.012-.093l-.393-.228z" fill="#715d94"/><path d="M3.499 2.22l-.481-.27.408-.236.53.307c.009.005.009.019 0 .024l-.403.175a.054.054 0 0 1-.054 0" fill="#443560"/><path d="M3.47 2.205l-.445-.256v-.725l.445.257v.724z" fill="#e985ad"/><path d="M3.41 1.515v.58l-.354-.206" fill="none" stroke="#fee6db" stroke-width=".086" stroke-linecap="round" stroke-linejoin="round" stroke-miterlimit="10" stroke-dasharray="50.4,9.6,50.4,50.4,9.6,50.4"/><path d="M3.47 1.48l.351-.149v.724l-.35.15v-.724z" fill="#a95b7e"/><path d="M3.375 1.075l-.35.15.446.256.35-.15-.446-.256z" fill="#fdc282"/><path d="M3.295 1.323l.16.092.096-.04-.16-.093-.096.041z" fill="#f1e7d1"/><path d="M3.39 1.14v.142l.161.092.142-.06-.302-.174z" fill="#e985ad"/><path d="M3.39 1.14v.142l-.095.041-.142-.081.238-.102z" fill="#a95b7e"/><path d="M3.672 1.996l.091-.046v-.342l-.091.046v.342z" fill="#55bdda"/><path d="M3.58 1.912l.092-.029v-.295l-.092.047v.277z" fill="#167b94"/><path d="M3.646 1.95l-.066-.038v-.278l.066.038v.278zm-.092-.363v.341l.118.068v-.342l-.118-.067z" fill="#1a8dab"/><path d="M3.554 1.587l.092-.047.117.068-.091.046-.118-.067z" fill="#8bd6f0"/><path d="M3.58 1.912l.066-.02v.058l-.066-.038z" fill="#136776"/><g clip-path="url(#d)" opacity=".3" transform="matrix(.0173 0 0 -.0173 -24.884 -58.85)"><path d="M1634.122-3470.168l1.956 6.588-4.502 19.116v.228l-.087-.063-.088.164v-.228l-.286-16.684-2.26-6.079-4.317-3.685 6.863-4.01v-.001l.175-.1 6.863-3.915-4.317 8.67z" fill="#faf9ee"/></g><g clip-path="url(#c)" opacity=".5" transform="matrix(.0173 0 0 -.0173 -24.884 -58.85)"><path d="M1638.438-3478.836l4.17.895-4.316 8.669 1.955 6.587-4.502 19.117-4.17-.896 4.503-19.116-1.956-6.588 4.316-8.668z" fill="#fff"/></g><path d="M.707 2.404L0 1.986l.461-.259.708.418-.462.26z" fill="#443560"/><path d="M1.082.428L.89.174.733.362l.19.251.219.493L1.3.917V.916l.159-.19-.377-.298z" fill="#e985ad"/><path d="M.415 1.1A.428.428 0 0 0 .222.765C.115.703.028.753.028.875c0 .124.087.274.194.336.107.062.193.012.193-.111" fill="#fee6db"/><path d="M.32 1.045A.219.219 0 0 0 .223.874C.167.842.122.868.122.93s.045.14.1.171c.054.032.099.006.099-.057" fill="#64527b"/><path d="M.808.661C.754.57.667.518.613.55L.231.77a.34.34 0 0 1 .064.053L.652.617C.684.598.737.629.77.684.8.74.8.8.769.818l-.362.21a.316.316 0 0 1 .008.072v.013L.808.886C.862.855.862.754.808.66m-.19 1.217l-.21-.719a.118.118 0 0 1-.034.055l.193.658c.017.059-.003.102-.045.098-.042-.005-.09-.056-.108-.114l-.188-.642-.004-.002a.318.318 0 0 1-.059-.044l.2.682c.029.098.11.183.18.19.07.008.104-.065.075-.162" fill="#f2d1cf"/><path d="M.858.528L.76.598a.317.317 0 0 1 .047.063L.906.59.858.528z" fill="#64527b"/><path d="M1.2 0L.89.174l.192.254.377.299.309-.175-.377-.298L1.2 0z" fill="#f495be"/><path d="M1.459.727l-.317.379.26-.147a.223.223 0 0 1-.047-.047l.06-.072.002-.002.06-.071.115-.058a.27.27 0 0 1 .02.03l.156-.187-.31.175z" fill="#64527b"/><path d="M.923.613l.159-.185L.89.174.733.362l.19.251z" fill="#a95b7e"/><path d="M.717.984L.716.986a.147.147 0 0 1-.011.026l-.003.005a.111.111 0 0 1-.006.008l-.003.004a.1.1 0 0 1-.01.01l.17.58a.641.641 0 0 1 .065.05L.717.984zm-.16.127l.128.44a.247.247 0 0 0-.05-.002l-.121-.415.042-.023z" fill="#fee6db"/><path d="M.32 1.705l-.061.034a.198.198 0 0 1 .067-.016l-.005-.018zM.824 1.6c-.09-.053-.163-.065-.24-.042a.18.18 0 0 0-.05.027l.075.255c.167.145.292.39.292.6l.309-.174A.85.85 0 0 0 .823 1.6zm-.332.01l.053.182-.029-.018a.38.38 0 0 0-.139-.05L.363 1.68l.128-.07z" fill="#dfbdce"/><path d="M.608 1.841l.01.036c.029.097-.005.17-.076.163-.07-.008-.15-.093-.179-.191l-.037-.126C.209 1.73.13 1.83.13 1.996l.77.445a.861.861 0 0 0-.292-.6zm-.093-.066c.01.005.02.012.029.018l.023.078c.017.059-.003.102-.045.098-.042-.005-.09-.056-.108-.114l-.038-.13a.38.38 0 0 1 .14.05M.966.71L.847.778C.852.828.84.868.808.886L.724.934V.94L.997.781.966.71zM.636.54L.797.448.845.51.734.575C.7.549.664.536.635.54" fill="#fee6db"/><path d="M.906.59L.808.662.923.613.906.591zm-.491.523c-.003.045-.018.08-.041.1l.275-.154a.092.092 0 0 0 .034-.02c.025-.022.04-.057.041-.105l-.31.18zm.3-.263A.46.46 0 0 0 .6.646L.295.823a.46.46 0 0 1 .112.205L.715.85zM.23.77L.22.765C.169.734.12.73.086.75l.3-.167C.42.557.471.557.53.59c.002 0 .004.002.005.003L.231.77z" fill="#dfbdce"/><path d="M1.476.767l-.06.071V.84l-.06.072a.185.185 0 0 0 .083.066c.06.02.098-.026.086-.102a.256.256 0 0 0-.049-.109" fill="#f3e8d2"/><path d="M1.64.818a.256.256 0 0 0-.048-.109l-.116.058c.024.032.042.07.049.109.007.046-.004.08-.026.097L1.6.922c.032-.011.049-.05.04-.104" fill="#faf9ee"/><g clip-path="url(#e)" opacity=".3" transform="matrix(.0173 0 0 -.0173 -24.884 -58.85)"><g mask="url(#f)" transform="translate(1468.47 -3581.005)"><g clip-path="url(#g)"><path d="M62.347 137.416l85.342-97.32L79.405 0 0 45.736l48.633 79.927 7.005 8.398 6.709 3.355z" fill="url(#h)" fill-rule="evenodd"/></g></g></g><g clip-path="url(#i)" opacity=".3" transform="matrix(.0173 0 0 -.0173 -24.884 -58.85)"><g mask="url(#j)" transform="translate(1468.47 -3581.005)"><g clip-path="url(#k)"><path d="M55.638 134.061l-7.005-8.398L0 45.736 79.405 0 55.638 134.061z" fill="url(#l)" fill-rule="evenodd"/></g></g></g><path d="M1.2 0L.89.174l.192.254.31-.174L1.2 0z" fill="#e985ad"/></svg>