<svg xmlns="http://www.w3.org/2000/svg" width="151.392" height="118.846" viewBox="0 0 141.92972 111.4179"><path d="M102.654 89.088l-48.866-28.28 38.088-21.99 49.391 28.585a1.327 1.327 0 0 1 0 2.297l-33.584 19.39a5.03 5.03 0 0 1-5.028 0" fill="#4d4d4e"/><path d="M85.778 39.792l45.447 26.239c.648.374.648.987 0 1.362L102.08 84.22c-.716.413-1.889.413-2.605 0L54.014 57.972c-.62-.357-.62-.942 0-1.3l29.237-16.88c.695-.401 1.832-.401 2.527 0" fill="#8bd6f2" fill-rule="evenodd"/><path d="M87.707 40.906l2.689 1.552-1.474.85c-.185.107-.424.07-.609-.036l-2.016-1.164c-.186-.107-.249-.245-.063-.352l1.473-.85zm37.343 23.26c-.185.107-.122.246.063.352l2.016 1.165c.185.106.424.143.61.036l1.473-.85-2.689-1.552-1.473.85z" fill="#48395f" fill-rule="evenodd"/><path d="M89.258 42.92c-.185.108-.54.138-.725.031l-1.68-.97c-.186-.107-.133-.311.053-.419l2.016-1.164c.186-.107.462-.092.647.015l1.68.97c.186.107.211.266.026.374l-2.017 1.164zm40.833 21.247c.185-.107.16-.267-.025-.374l-1.68-.97c-.186-.107-.462-.121-.648-.014l-2.016 1.164c-.186.107-.239.311-.053.419l1.68.97c.186.107.54.076.725-.031l2.017-1.164z" fill="#128cac" fill-rule="evenodd"/><path d="M84.843 1.022l48.256 27.557v36.906l-48.256-27.65V1.023z" fill="#8bd6f2" fill-rule="evenodd"/><path d="M84.911 1.022L87.127 0l48.15 27.649-2.076.93L84.91 1.022z" fill="#53bddb"/><path d="M131.049 67.465L102.004 84.25c-.742.428-1.841.375-2.583-.054L54.21 58.064c-.362-.21-.56-.396-.59-.637h-.144v3.147s-.026.43.7.733l45.229 26.097c.742.429 1.868.482 2.61.054l29.027-16.784c.377-.218.49-.5.49-.783v-3.147c0 .261-.133.52-.483.721" fill="#128cac" fill-rule="evenodd"/><path d="M89.306 7.15l39.088 22.444v29.9l-39.088-22.5V7.15z" fill="#63527b" fill-rule="evenodd"/><path d="M135.15 27.649l-2.05.93v36.906l2.05-1.036v-36.8z" fill="#128cac"/><path d="M90.995 36.219l37.52 21.604V29.594L90.995 8.043v28.176z" fill="#fee6db" fill-rule="evenodd"/><path d="M123.289 66.154l2.184 1.261-1.552.896-2.185-1.261 1.553-.896zm-4.463 2.576l2.184 1.261 2.135-1.232-2.185-1.26-2.134 1.231zm-2.717 1.569l2.185 1.26 2.134-1.231-2.184-1.262-2.135 1.233zm-2.91 1.68l2.184 1.261 2.329-1.344-2.185-1.261-2.328 1.344zm-2.522 1.456l2.184 1.261 2.134-1.232-2.184-1.261-2.134 1.232zm-3.105 1.793l2.185 1.26 2.328-1.344-2.185-1.26-2.328 1.344zm11.644-9.633l2.016 1.164 1.553-.896-2.017-1.164-1.552.896zm-5.431.225l4.537 2.62 2.134-1.233-4.537-2.62-2.134 1.233zm-1.036 2.538l2.856 1.65 2.135-1.233-2.857-1.649-2.134 1.232zm-4.759.614l4.705 2.716 2.328-1.344-4.705-2.717-2.328 1.345zm.166 3.008l2.017 1.164 2.134-1.232-2.017-1.164-2.134 1.232zm-3.104 1.792l2.016 1.165 2.328-1.345-2.016-1.164-2.328 1.344zm11.643-9.633l2.017 1.165 1.552-.896-2.016-1.165-1.553.896zm-2.352-1.358l1.848 1.067 1.552-.896-1.848-1.067-1.552.896zm-2.52-1.455l2.016 1.164 1.552-.896-2.017-1.164-1.552.896zm-2.353-1.358l1.848 1.067 1.552-.896-1.848-1.067-1.552.896zm-2.52-1.455l1.848 1.067 1.552-.896-1.848-1.068-1.553.897zm-2.353-1.358l1.848 1.067 1.552-.897-1.848-1.067-1.552.897zm-2.52-1.456l1.848 1.067 1.552-.896-1.848-1.067-1.553.896zm-2.353-1.358l1.848 1.067 1.552-.896-1.848-1.067-1.552.896zm-2.52-1.455l1.848 1.067 1.552-.896-1.849-1.067-1.552.896zm-2.521-1.456l2.016 1.165 1.552-.896-2.016-1.165-1.552.896zm-2.353-1.358l1.849 1.067 1.552-.896-1.849-1.067-1.552.896zm-2.52-1.455l2.016 1.164 1.552-.896-2.016-1.164-1.552.896zm-2.353-1.358l1.849 1.067 1.552-.896-1.849-1.067-1.552.896zm-2.52-1.455l1.848 1.067 1.552-.896-1.848-1.067-1.552.896zm-2.689-1.553l2.017 1.165 1.552-.897-2.017-1.164-1.552.896zm29.016 20.114l2.017 1.164 2.134-1.232-2.016-1.165-2.135 1.233zm-2.688-1.553l2.016 1.165 2.135-1.233-2.017-1.164-2.134 1.232zm-2.689-1.552l2.017 1.164 2.134-1.232-2.016-1.164-2.135 1.232zm-2.52-1.455l2.016 1.164 2.134-1.232-2.016-1.164-2.134 1.232zm-2.689-1.552l2.017 1.164 2.134-1.232-2.017-1.165-2.134 1.233zM97.99 56.7l2.016 1.164 2.134-1.233-2.016-1.164L97.99 56.7zm-2.69-1.552l2.016 1.164 2.135-1.232-2.017-1.164-2.134 1.232zm-2.689-1.552l2.185 1.261 2.134-1.232-2.184-1.261-2.135 1.232zm-2.52-1.455l2.016 1.164 2.135-1.232-2.017-1.164-2.134 1.232zm-2.689-1.552l2.017 1.164 2.134-1.233-2.016-1.164-2.135 1.233zm-2.688-1.553l2.016 1.165 2.135-1.233-2.017-1.164-2.134 1.232zm-2.689-1.552l2.017 1.164 2.134-1.232-2.016-1.164-2.135 1.232zm-2.688-1.552l2.016 1.164 2.134-1.232-2.016-1.164-2.134 1.232zM76.62 47.5l3.53 2.037 2.133-1.232-3.528-2.037L76.62 47.5zm-2.91 1.68l4.033 2.329 2.328-1.344-4.033-2.329-2.328 1.344zm-2.522 1.457l5.545 3.201 2.134-1.232-5.545-3.202-2.134 1.233zm-3.105 1.792l2.689 1.552 2.328-1.344-2.689-1.552-2.328 1.344zm12.402-2.697l2.185 1.26 2.134-1.232-2.185-1.26-2.134 1.232zm2.689 1.552l2.184 1.261 2.134-1.232-2.184-1.262-2.134 1.233zm2.688 1.552l2.185 1.261 2.134-1.232-2.184-1.261-2.135 1.232zm2.689 1.552l2.184 1.261 2.135-1.232-2.185-1.261-2.134 1.232zm2.688 1.552l2.185 1.262 2.134-1.233-2.184-1.26-2.135 1.231zm2.689 1.553l2.184 1.26 2.135-1.231-2.185-1.262-2.134 1.233zm2.688 1.552l2.353 1.358 2.134-1.232-2.352-1.358-2.135 1.232zm2.857 1.65l2.184 1.26 2.135-1.232-2.185-1.261-2.134 1.232zm2.689 1.551l2.184 1.262 2.134-1.233-2.184-1.26-2.134 1.231zm2.688 1.553l2.185 1.26 2.134-1.231-2.185-1.262-2.134 1.233zm2.689 1.552l2.184 1.261 2.134-1.232-2.184-1.261-2.134 1.232zm2.688 1.552l2.185 1.261 2.134-1.232-2.184-1.261-2.135 1.232zM78.248 51.8l2.184 1.261 2.329-1.344-2.185-1.261-2.328 1.344zm2.856 1.65l2.185 1.26 2.328-1.344-2.184-1.261-2.329 1.344zM83.793 55l2.184 1.262 2.329-1.345-2.185-1.261L83.793 55zm2.689 1.553l2.184 1.26 2.328-1.343-2.184-1.262-2.328 1.345zm2.688 1.552l2.184 1.261 2.329-1.344-2.184-1.261-2.329 1.344zm2.689 1.552l2.184 1.261 2.328-1.344-2.184-1.261-2.328 1.344zm2.688 1.552l2.185 1.262 2.328-1.345-2.184-1.261-2.329 1.344zm2.689 1.553l2.184 1.26 2.329-1.343-2.185-1.262-2.328 1.345zm2.688 1.552l2.185 1.261 2.328-1.344-2.184-1.262-2.329 1.345zm2.689 1.552l2.184 1.261 2.329-1.344-2.185-1.261-2.328 1.344zm2.688 1.552l2.185 1.262 2.328-1.345-2.184-1.261-2.329 1.344zM77.238 54.13l2.184 1.262 2.135-1.233-2.185-1.261-2.134 1.232zm2.688 1.553l2.185 1.26 2.134-1.231-2.184-1.262-2.135 1.233zm2.689 1.552l2.184 1.261 2.135-1.232-2.185-1.261-2.134 1.232zm2.688 1.552l2.185 1.261 2.134-1.232-2.184-1.261-2.135 1.232zm2.689 1.552l2.184 1.262 2.135-1.233-2.185-1.261-2.134 1.232zm2.689 1.553l2.184 1.26 2.134-1.231-2.184-1.262-2.134 1.233zm2.688 1.552l2.184 1.26 2.135-1.231-2.185-1.261-2.134 1.232zm2.689 1.552l2.352 1.358 2.134-1.232-2.352-1.358-2.134 1.232zm2.856 1.65l2.185 1.26 2.134-1.232-2.185-1.26-2.134 1.231zm2.689 1.551l2.184 1.262 2.135-1.233-2.185-1.26-2.134 1.231zm2.688 1.553l3.361 1.94 2.134-1.232-3.36-1.94-2.135 1.232zM71.445 54.37l2.184 1.262 2.329-1.345-2.185-1.26-2.328 1.344zm2.688 1.553l2.185 1.26 2.328-1.343-2.184-1.262-2.329 1.345zm2.689 1.552l2.184 1.261 2.329-1.344-2.185-1.261-2.328 1.344zm2.688 1.552l2.185 1.261 2.328-1.344-2.184-1.261-2.329 1.344zm2.689 1.552l2.184 1.262 2.329-1.345-2.185-1.26-2.328 1.343zm2.688 1.553l2.185 1.26 2.328-1.343-2.184-1.262-2.329 1.345zm2.689 1.552l2.185 1.261 2.328-1.344-2.185-1.261-2.328 1.344zm2.689 1.552l2.184 1.261 2.328-1.344-2.184-1.261-2.328 1.344zm2.688 1.552l2.185 1.262 2.328-1.345-2.184-1.26-2.329 1.343zm2.689 1.553l2.184 1.26 2.329-1.344-2.185-1.26-2.328 1.344zm2.688 1.552l3.361 1.94 2.328-1.344-3.36-1.94-2.329 1.344zm4.033 2.328l2.184 1.261 2.329-1.344-2.185-1.261-2.328 1.344zM87.41 73.48a.37.37 0 0 1-.332 0l-14.45-8.343c-.093-.053-.098-.138-.005-.192l7.225-4.171a.394.394 0 0 1 .346-.006l14.451 8.343c.093.053.083.146-.01.2l-7.225 4.172z" fill="#128cac" fill-rule="evenodd"/><path d="M72.045 65.47l6.89 3.978c.093.054.166.098.073.152l-1.176.679c-.093.053-.163.007-.255-.047l-6.89-3.977c-.093-.054-.173-.094-.08-.148l1.176-.679c.093-.053.17-.011.262.042zm7.468 4.42l-1.177.68c-.093.053-.012.094.08.147l6.89 3.978c.093.053.163.1.256.046l1.176-.679c.093-.053.019-.098-.074-.151l-6.889-3.978c-.093-.053-.17-.096-.262-.042" fill="#fff" fill-rule="evenodd"/><path d="M94.646 69.109l-14.037-8.104-6.822 3.938c-.092.053-.088.138.005.191l14.037 8.105 6.807-3.93c.093-.054.103-.147.01-.2" fill="#53bddb" fill-rule="evenodd"/><path d="M123.605 30.663v21.942M95.301 14.062v21.942" fill="none" stroke="#947bb7" stroke-width="2.902" stroke-linecap="round" stroke-linejoin="round" stroke-miterlimit="10" stroke-dasharray="62.5,6.25,62.5"/><path d="M73.7 106.107l-11.874-6.855 8.485-4.898 9.073 5.238c1.867 1.078 1.867 3.772 0 4.85l-2.884 1.665a2.8 2.8 0 0 1-2.8 0m12.63 5.311l-6.797-3.925 4.345-2.508 6.797 3.925-4.345 2.508zm-48.523-6.319l-32.8-18.484 41.682-24.336 32.428 18.797-41.31 24.023zm.5-46.322L4.03 38.399l44.603-26.04L83.54 32.684 38.307 58.777z" fill="#4d4d4e"/><path d="M67.671 96.606l7.068 4.08c.877.507 1.17 1.28 1.17 2.027 0 1.418-1.292 3.925-3.705 2.532l-4.533-2.617v-6.022z" fill="#f2d2cf"/><path d="M67.671 102.628l-7.068-4.08c-.877-.507-1.17-1.28-1.17-2.027 0-1.418 1.292-3.925 3.705-2.532l4.533 2.617v6.022z" fill="#1ab59d"/><path d="M77.942 98.866l-7.068-4.08-3.203 1.82 4.661 2.691 2.407 1.39c.877.506 1.17 1.28 1.17 2.026 0 .82-.433 2.006-1.265 2.59l2.906-1.649c.09-.042.176-.09.258-.146.858-.573 1.304-1.782 1.304-2.615 0-.747-.292-1.52-1.17-2.027" fill="#fee6db"/><path d="M66.342 92.169c-.953-.55-1.73-.491-2.322-.133h-.001l-3.109 1.766c.58-.31 1.326-.334 2.229.187l2.085 1.204 2.447 1.413 3.204-1.82-4.533-2.617z" fill="#62c4b0"/><path d="M40.884 59.748L0 83.352l34.669 20.016 40.884-23.604-34.67-20.016z" fill="#fee6db"/><path d="M75.553 79.764v.724l-40.884 23.604v-.724l40.884-23.604z" fill="#f2d2cf"/><path d="M0 83.352v.724l34.669 20.016v-.724L0 83.352z" fill="#e0bccd"/><path d="M74.786 36.544L36.961 58.382V46.834l37.825-21.461v11.17z" fill="#aa5a7f"/><path d="M39.958 56.651l-.433.25V45.353l.433-.25v11.548zm.927-12.083l-.433.25v11.548l.433-.25V44.568zm14.65-8.457l-.433.25v11.547l.432-.25V36.112zm.926-.536l-.432.25v11.548l.432-.25V35.575zm14.65-8.457l-.433.25v11.547l.433-.25V27.119zm.927-.536l-.433.25V38.38l.433-.25V26.582z" fill="#fff" fill-opacity=".5"/><path d="M35.148 47.783V56.1L4.589 37.804v-8.316l30.559 18.295z" fill="#fff"/><path d="M36.965 47.376L3.483 27.403l38.07-18.592 33.233 16.562-37.821 22.003z" fill="#e884ad"/><path d="M35.684 55.577L4.589 36.96v-.418l31.095 18.617v.418zm0-1.615L4.589 35.345v.419L35.684 54.38v-.419zm0-1.196L4.589 34.149v.418l31.095 18.617v-.418zm0-1.197L4.589 32.952v.419l31.095 18.617v-.419zm0-1.196L4.589 31.756v.418l31.095 18.617v-.418zm0-1.197L4.589 30.559v.419l31.095 18.616v-.418z" fill="#c6d0ce"/><path d="M26.39 50.351l1.293-.341 1.293 1.89v-8.123l-1.293-.775-1.293-.774v8.123z" fill="#1ab59d"/><path d="M3.483 38.301v-1.16L35.148 56.1v-8.317L3.483 28.825v-1.422l33.482 19.973v11.006L3.483 38.302z" fill="#fdc181"/><path d="M10.78 25.03l31.94 18.44v-9.75L10.78 15.596v9.433z" fill="#44355f"/><path d="M40.19 32.258l.365.21v9.752l-.365-.21v-9.752zm-.783 9.299l.365.21v-9.75l-.365-.211v9.751zm-12.37-7.142l.365.211v-9.751l-.365-.211v9.751zm-.783-.452l.365.211v-9.751l-.365-.211v9.751zm-12.37-7.142l.365.211v-9.751l-.365-.211v9.751zm-.783-.452l.365.211v-9.75l-.365-.211v9.751z" fill="#fff" fill-opacity=".5"/><path d="M44.252 34.52v7.023l25.804-15.45v-7.022L44.252 34.52z" fill="#fff"/><path d="M42.717 34.177L70.99 17.31 39.135.28 10.78 15.596l31.937 18.58z" fill="#725c94"/><path d="M43.799 40.749l26.257-15.721v.353l-26.257 15.72v-.352zm0-.658l26.257-15.72v-.353l-26.257 15.72v.353zm0-1.01l26.257-15.72v-.354l-26.257 15.72v.354zm0-1.01l26.257-15.72v-.354l-26.257 15.72v.354zm0-1.01L70.056 21.34v-.353l-26.257 15.72v.353zm0-1.011l26.257-15.72v-.354l-26.257 15.72v.354z" fill="#c6d0ce"/><path d="M51.647 36.69l-1.092-.29-1.092 1.596v-6.859l1.092-.654 1.092-.653v6.86z" fill="#32466e"/><path d="M70.99 26.514v-.98l-26.738 16.01V34.52L70.99 18.512V17.31L42.717 34.177v9.293L70.99 26.514z" fill="#685580"/><path d="M87.175 108.788l-2.654 1.478V86.099l2.654-1.515v24.204z" fill="#725c94"/><path d="M82.087 79.468l2.56-1.477 2.536 6.593-2.62 1.515-2.476-6.63z" fill="#fee6db"/><path d="M82.087 79.468l2.56-1.477.725 1.885-2.564 1.493-.721-1.9z" fill="#685580"/><path d="M84.563 110.304l-4.977-2.876V83.222l4.977 2.877v24.205z" fill="#44355f"/><path d="M83.164 109.493l-2.173-1.254V84.033l2.173 1.255v24.205z" fill="#1ab59d"/><path d="M82.07 79.484l1.255 3.31 1.238 3.305-2.494-1.443-2.483-1.434 1.228-1.877 1.255-1.86z" fill="#f2d2cf"/><path d="M82.077 79.512l.716 1.851-.71-.41-.722-.416.716-1.025z" fill="#44355f"/><path d="M58.638 78.379l-11.35-6.553-4.04-2.333L17.9 84.127l19.431 11.219 25.347-14.634-4.04-2.333z" fill="#3a3056"/><path d="M36.482 94.642v-2.481L60.61 78.229v2.482L36.48 94.642z" fill="#5295a6"/><path d="M36.482 92.16L17.984 81.48l24.129-13.93L60.61 78.23 36.48 92.16z" fill="#74ccd4"/><path d="M17.984 81.48v2.482l18.498 10.68V92.16L17.984 81.48z" fill="#66a5b3"/><path d="M32.434 85.5v-1.085h-1.878V85.5h1.878zm1.079.622v-1.084h-1.878v1.084h1.878zm1.078.623V85.66h-1.877v1.084h1.877zm1.079.622v-1.084h-1.878v1.084h1.878zm1.078.623v-1.084h-1.877v1.084h1.877zm1.08.623v-1.084h-1.879v1.084h1.878zm1.078.623V88.15h-1.878v1.085h1.878zm1.078.622v-1.084h-1.878v1.084h1.878zm-16.178-9.34v-1.085h-1.878v1.085h1.878zm1.078.622v-1.084h-1.877v1.084h1.877zm1.079.623v-1.084h-1.878v1.084h1.878zm1.078.623v-1.084h-1.877v1.084h1.877zm1.079.623v-1.085h-1.878v1.085h1.878zm1.078.622v-1.084h-1.877v1.084h1.877zm1.079.623V83.17h-1.878v1.084h1.878zm-.8.622v-1.083h1.879v1.084h-1.878z" fill="none" stroke="#fff" stroke-width=".345" stroke-miterlimit="10"/><path d="M45.67 78.55c-.204.111-.481.135-.62.05-.138-.084-.085-.243.119-.355.203-.113.48-.136.618-.052.139.085.086.244-.117.356m-1.15.135c-.911.12-2.16.57-3.426 1.27-.195.106-.458.128-.59.048L40.501 80c-.132-.08-.082-.232.112-.34.39-.214 1.25-.743.824-1.002-.428-.26-1.38.213-1.77.429-.194.107-.459.129-.59.048-.005-.006-.01-.006-.014-.009-.005 0-.01-.006-.015-.008-.132-.08-.082-.232.112-.339.39-.215 1.25-.744.823-1.003-.427-.26-1.38.213-1.77.429-.194.107-.458.129-.59.048-.131-.08-.081-.231.113-.338 1.474-.814 2.49-.806 2.95-.528.265.161.364.426.12.777.616-.126 1.067-.056 1.333.105.208.127.314.316.232.561.887-.35 1.717-.568 2.416-.639.277-.708.068-1.385-.69-1.845-1.45-.88-4.353-.639-6.484.539-2.132 1.177-2.684 2.844-1.235 3.724 1.45.88 4.353.639 6.484-.539.76-.42 1.319-.901 1.658-1.388" fill="#ee2e6b"/><path d="M36.482 92.16l-.786 1.036.786 1.446v-2.481z" fill="#5295a6" fill-rule="evenodd"/><path d="M18.715 83.156l16.98 10.04.787 1.446-18.498-10.68.731-.806z" fill="#74ccd4" fill-rule="evenodd"/><g fill="#fff"><path d="M45.722 87.4c-.002.05-.027.105-.058.122-.031.017-.056-.01-.055-.06.002-.051.027-.106.058-.123.031-.017.056.01.055.06m-.1.232c-.077.186-.129.471-.134.787-.001.048-.026.1-.056.117-.03.016-.053-.01-.052-.058.002-.097-.004-.318-.1-.265-.095.052-.11.284-.112.381 0 .048-.025.1-.055.117h-.007c-.03.016-.053-.01-.052-.058.002-.097-.004-.318-.1-.265-.095.052-.11.284-.111.381-.002.049-.026.1-.056.117-.03.016-.052-.01-.051-.058.007-.368.12-.559.222-.615.06-.033.12-.023.16.062.043-.13.106-.208.165-.24.047-.026.094-.026.132.017.03-.206.08-.387.143-.527-.104-.13-.255-.164-.425-.07-.324.177-.595.753-.605 1.284-.01.531.244.818.569.64.324-.178.596-.753.606-1.285a1.064 1.064 0 0 0-.082-.465"/><text style="-inkscape-font-specification:CenturyGothic-Bold" transform="matrix(.3362 -.19583 -.00339 .54629 45.852 88.024)" font-weight="700" font-size="1.512" font-family="Century Gothic"><tspan y="0" x="0 1.4215246 1.8449576 2.8128042 3.236237 4.2343287 4.6577616 5.2929111 5.7163439">m e p ´ s</tspan></text><text style="-inkscape-font-specification:CenturyGothic" transform="matrix(.3362 -.19583 -.00339 .54629 48.28 86.61)" font-weight="400" font-size="1.512" font-family="Century Gothic"><tspan y="0" x="0 1.4185002 1.8373963 2.8203654 3.2392616 4.2751598 4.694056 4.9965081 5.4154043 6.4059348 6.8248305 7.4115877 8.2493801 9.2323494 9.6512451 10.126095 10.544991 11.527961 11.946856 12.925289 13.344185 13.856841 14.275738 14.57819 14.997086 15.834878 16.253775 17.244305 17.6632 18.249958 19.087749 20.119112 20.538008 21.457462 21.876358 22.907719 23.326614 23.629066 24.047964 24.350416 24.769312 25.747744 26.166639 26.469091 26.887989 27.400644 27.81954 28.852415 29.271311 29.726501 30.145397 30.447849 30.866745 31.857275 32.276173 32.86293">m e d i o s e f e c t i v o s p u b l i c i t a r i o s</tspan></text><text style="-inkscape-font-specification:CenturyGothic-Italic" transform="matrix(.3362 -.19583 -.00339 .54629 45.869 88.509)" font-style="italic" font-size=".588" font-family="Century Gothic"><tspan y="0" x="0 0.13279265 0.29555178 0.84670007 1.0094591 1.4101875 1.5729465 1.930194 2.0929532 2.2104688 2.3732281 2.6012082 2.7639673 3.1652832 3.3280423 3.686465 3.8492241 4.2517152 4.4144745 4.7993379 5.124856 5.242372 5.4051309 5.807622 5.9703813 6.3523068 6.5150661 6.9163818 7.0791411">I m p u l s a n d o i d e a s</tspan></text></g><path d="M42.113 67.55l1.132-.12.315.955 1.307-.008.485 1.043 1.11-.109.236.886 1.055-.107.259.866 1.038-.056.165.75.847-.114.194.715.922-.04.26.722.907-.01.225.664 1.008-.054.233.77 1.05.034.154.661.865-.083.21.704.86-.043.242.68.79-.044.162.593.856-.071.2.68.698-.145.14.629.605-.11-.032.44-.673.39-18.534-10.66.709-.409z" fill="#74ccd4" fill-rule="evenodd"/><path d="M100.829 31.735l.768-.453-.087-10.011-.769.452.088 10.012z" fill="#fdc32d"/><path d="M101.597 31.282l6.68 3.78-.087-10.012-6.68-3.78.087 10.012z" fill="#dca83a"/><path d="M108.278 35.062l-.769.452-6.68-3.779.768-.453 6.68 3.78z" fill="#fabe2f"/><path d="M104.407 31.259l.336-.198.342.581-.335.198-.343-.581zm-.39-.22l.336-.199.343.582-.336.197-.342-.581zm-.389-.221l.336-.198.342.581-.335.198-.343-.581zm-.39-.22l.336-.198.343.581-.336.198-.342-.582zm-.389-.221l.336-.198.342.582-.335.197-.343-.581zm-.39-.22l.336-.198.343.581-.336.198-.343-.582zm-.389-.22l.336-.199.342.582-.335.198-.343-.582zm-.39-.221l.336-.198.343.582-.336.197-.343-.581zm5.843 3.305l.336-.197.343.581-.336.198-.343-.582zm-.39-.22l.337-.198.342.582-.335.197-.343-.581zm-.389-.22l.336-.198.343.581-.336.198-.343-.581zm-.39-.22l.336-.199.343.582-.336.198-.342-.582zm-.389-.221l.336-.198.342.582-.335.197-.343-.581zm-.39-.22l.336-.198.343.581-.336.198-.342-.581zm-.389-.22l.336-.199.342.582-.335.198-.343-.582zm-.047.36l.336-.198-.343-.58-.335.197.342.581z" fill="none" stroke="#fff" stroke-width=".124" stroke-miterlimit="10"/><path d="M101.597 31.282l-.177.433-.591.02.768-.453z" fill="#efc432" fill-rule="evenodd"/><path d="M107.626 35.14l-6.206-3.425-.591.02 6.68 3.78.117-.374zm.564-10.09l-.17-.372-.352.076-.236-.406-.412.04-.169-.363-.317.088-.159-.346-.315.078-.173-.332-.262.086-.119-.283-.257.07-.155-.293-.271.052-.163-.283-.246.05-.168-.32-.28.067-.203-.319-.232.074-.132-.284-.257.064-.143-.274-.255.048-.13-.252-.213.058-.135-.278-.247.062-.082-.243-.22.072-.077-.207-.13.09v.28l6.68 3.793-.004-.294z" fill="#dca83a" fill-rule="evenodd"/><path d="M104.8 39.418l.769-.453-.088-10.011-.768.452.088 10.012z" fill="#5295a6"/><path d="M105.569 38.965l6.68 3.78-.087-10.012-6.68-3.78.087 10.012z" fill="#74ccd4"/><path d="M112.25 42.744l-.769.453-6.68-3.78.768-.452 6.68 3.78z" fill="#66a5b3"/><path d="M108.38 38.942l.335-.198.342.581-.336.198-.342-.581zm-.39-.22l.335-.198.343.581-.336.198-.342-.582zm-.39-.22l.336-.199.342.582-.335.197-.343-.581zm-.39-.221l.336-.198.343.581-.336.198-.343-.581zm-.389-.22l.336-.198.342.581-.336.198-.342-.582zm-.39-.221l.336-.198.343.582-.336.197-.342-.581zm-.39-.22l.336-.198.343.581-.336.198-.342-.581zm-.389-.22l.336-.199.342.582-.335.197-.343-.581zm5.843 3.305l.336-.198.342.582-.335.197-.343-.581zm-.39-.22l.336-.198.343.581-.336.198-.342-.582zm-.389-.22l.336-.199.342.582-.335.198-.343-.582zm-.39-.221l.336-.198.343.581-.336.198-.342-.581zm-.389-.22l.336-.198.342.581-.335.198-.343-.582zm-.39-.221l.336-.198.343.582-.336.197-.342-.581zm-.389-.22l.336-.198.342.581-.335.198-.343-.581zm-.047.36l.336-.197-.343-.581-.335.197.342.582z" fill="none" stroke="#fff" stroke-width=".124" stroke-miterlimit="10"/><path d="M105.569 38.965l-.177.432-.591.02.768-.452z" fill="#5295a6" fill-rule="evenodd"/><path d="M111.597 42.824l-6.205-3.427-.591.02 6.68 3.78.116-.374zm.565-10.091l-.17-.373-.353.077-.236-.406-.41.04-.17-.364-.317.09-.16-.347-.315.078-.172-.332-.262.086-.12-.283-.256.07-.156-.293-.27.052-.163-.283-.247.051-.167-.321-.28.068-.203-.32-.233.074-.132-.283-.256.063-.144-.274-.254.049-.13-.253-.214.058-.134-.278-.247.062-.082-.242-.22.071-.077-.207-.13.09.002.28 6.68 3.793-.002-.294z" fill="#74ccd4" fill-rule="evenodd"/><path d="M109.619 36.748l.768-.452-.088-10.012-.768.453.088 10.011z" fill="#504272"/><path d="M110.387 36.296l6.68 3.78-.087-10.013-6.68-3.779.087 10.012z" fill="#c86c8d"/><path d="M117.067 40.075l-.768.453-6.68-3.78.768-.452 6.68 3.78z" fill="#55447d"/><path d="M113.197 36.272l.336-.198.343.582-.336.198-.343-.582zm-.39-.22l.337-.198.342.581-.336.198-.342-.581zm-.389-.22l.336-.198.342.581-.335.198-.343-.582zm-.39-.221l.336-.198.343.582-.336.197-.342-.581zm-.389-.22l.336-.198.343.581-.336.198-.343-.581zm-.39-.22l.336-.198.343.58-.336.199-.342-.582zm-.389-.221l.336-.198.342.582-.335.197-.343-.581zm-.39-.22l.336-.198.343.581-.336.198-.342-.581zm5.844 3.305l.335-.198.343.582-.336.198-.342-.582zm-.39-.22l.336-.198.342.582-.335.197-.343-.581zm-.39-.22l.336-.198.343.581-.336.198-.342-.582zm-.389-.221l.336-.198.342.582-.335.197-.343-.581zm-.39-.22l.336-.198.343.581-.336.198-.342-.581zm-.389-.22l.336-.198.342.581-.335.198-.343-.582zm-.39-.221l.336-.198.343.582-.336.197-.342-.581zm-.047.36l.336-.197-.342-.581-.336.198.342.581z" fill="none" stroke="#fff" stroke-width=".124" stroke-miterlimit="10"/><path d="M110.387 36.296l-.177.432-.591.02.768-.452z" fill="#7d78b7" fill-rule="evenodd"/><path d="M116.415 40.154l-6.205-3.426-.591.02 6.68 3.78.116-.374zm.565-10.091l-.17-.372-.353.077-.236-.406-.41.04-.17-.364-.317.089-.16-.347-.315.078-.172-.332-.262.086-.12-.283-.256.07-.156-.292-.27.051-.163-.282-.247.05-.167-.32-.28.067-.203-.319-.233.073-.132-.283-.256.064-.144-.274-.254.048-.13-.252-.214.058-.134-.278-.247.062-.083-.242-.22.071-.076-.207-.13.09.004.28 6.68 3.793-.004-.294z" fill="#c86c8d" fill-rule="evenodd"/><path d="M9.795 81.6l29.949 16.948M69.49 77.95l-34.8 20.493m10.398-34.578L11.236 83.8m28.168-20.687l29.95 16.948" fill="none" stroke="#55447d" stroke-width=".823" stroke-miterlimit="22.926" stroke-dasharray="3.5375,1.775"/></svg>