<svg xmlns="http://www.w3.org/2000/svg" width="217.518" height="227.359" viewBox="0 0 203.9227 213.14917"><path d="M8.638 184.254l44.552 28.895 150.733-87.211-50.257-25.124-145.028 83.44z" fill="#95a6a5"/><path d="M.118 159.64l26.661 14.975V57.17L.12 43.337V159.64z" fill="#e3a76f"/><path d="M26.78 174.71l55.895-32.29V24.977L26.779 57.265V174.71z" fill="#fcbc80"/><path d="M68.642 127.961l7.25-4.036v11.185l-7.25 4.036v-11.185zm0-5.593l7.25-4.036v-11.185l-7.25 4.036v11.185zm0-16.777l7.25-4.037V90.742l-7.25 4.036v10.813zm0-17.151l7.25-4.036V73.59l-7.25 4.037V88.44zm0-16.405l7.25-4.036V57.186l-7.25 4.036v10.813zm0-16.778l7.25-4.036V40.036l-7.25 4.036v11.185zm-11.927 90.831l7.25-4.036v-11.185l-7.25 4.036v11.185zm0-16.778l7.25-4.036V114.09l-7.25 4.036v11.185zm0-16.777l7.25-4.036V97.684l-7.25 4.036v10.813zm0-17.151l7.25-4.036V80.534l-7.25 4.036v10.812zm0-16.405l7.25-4.036V64.129l-7.25 4.036v10.812zm0-16.778l7.25-4.036V46.978l-7.25 4.036v11.185zm-11.226 90.509l6.782-4.036v-11.186l-6.782 4.036v11.186zm0-16.778l6.782-4.036v-11.186l-6.782 4.036v11.186zm0-16.778l6.782-4.036v-10.813l-6.782 4.037v10.812zm0-17.15l6.782-4.037V87.153l-6.782 4.036V102zm0-16.406l6.782-4.036V70.748l-6.782 4.036v10.812zm0-16.778l6.782-4.036V53.597l-6.782 4.036v11.185zM33.328 159.65l7.016-4.036v-11.186l-7.016 4.037v11.185zm0-16.778l7.016-4.036V127.65l-7.016 4.037v11.185zm0-16.778l7.016-4.036v-10.812l-7.016 4.036v10.812zm0-17.15l7.016-4.037V94.095l-7.016 4.036v10.812zm0-16.406l7.016-4.036V77.69l-7.016 4.036v10.812zm0-16.778l7.016-4.036V60.54l-7.016 4.036V75.76z" fill="#e3a76f"/><path d="M59.137 125.886l4.795-2.735v-9.062l-4.795 2.734v9.063zm0-50.334l4.795-2.734v-8.69l-4.795 2.735v8.689zm0 67.111l4.795-2.734v-9.062l-4.795 2.734v9.062zm0-33.555l4.795-2.734v-8.69l-4.795 2.734v8.69zm0-17.151l4.795-2.734v-8.69l-4.795 2.735v8.689zm0-33.183l4.795-2.734v-9.062l-4.795 2.734v9.062zM71.01 68.61l4.795-2.734v-8.69l-4.795 2.735v8.689zm0 50.334l4.795-2.735v-9.062l-4.795 2.734v9.063zm0-67.112l4.795-2.734v-9.062L71.01 42.77v9.062zm0 33.183l4.795-2.734v-8.69l-4.795 2.735v8.689zm0 17.151l4.795-2.734v-8.69l-4.795 2.734v8.69zm0 33.555l4.795-2.734v-9.062l-4.795 2.734v9.062zm-35.62-30.202l5.024-2.775v-8.65L35.39 96.87v8.649zm0-33.183l5.024-2.775v-9.022l-5.023 2.775v9.022zm0 50.334l5.024-2.776v-8.648l-5.023 2.774v8.65zm0-33.557l5.024-2.774v-8.65l-5.023 2.776v8.648zm0 67.112l5.024-2.775v-9.022l-5.023 2.775v9.022zm0-16.778l5.024-2.775v-9.022l-5.023 2.775v9.022zm12.33-40.871l4.567-2.69v-8.733l-4.567 2.69v8.733zm0-33.182l4.567-2.691v-9.106l-4.567 2.69v9.107zm0 16.777l4.567-2.69v-8.733l-4.567 2.69v8.733zm0 67.112l4.567-2.691v-9.106l-4.567 2.69v9.107zm0-16.778l4.567-2.69v-9.107L47.72 123.4v9.106zm0-16.778l4.567-2.69v-8.734l-4.567 2.691v8.733z" fill="#d09260"/><path d="M55.94 11.048l26.715 13.928-55.94 32.289L0 43.337l55.94-32.29z" fill="#fed5ac"/><path d="M40.028 46.73L58.58 36.022V9.228L40.028 19.934V46.73z" fill="#128cac"/><path d="M40.028 19.934L58.58 9.228 42.617 0 24.035 10.916l15.993 9.018z" fill="#53bddb"/><path d="M24.035 37.71l15.993 9.02V19.933l-15.993-9.018V37.71z" fill="#0d687d"/><path d="M77.676 145.575c0 .958.679 1.35 1.509.87l35.463-20.752c1.055-.61 1.908-2.102 1.908-3.317v-27.44c0-.957-.679-1.35-1.509-.87L78.85 115.242c-.646.373-1.174 1.288-1.174 2.034v28.299z" fill="#f38c7d"/><path d="M114.942 94.728c0-.646.457-.91 1.016-.587l24.49 14.14c.712.41 1.286 6.175 1.286 6.993v18.482c0 .645-.457.91-1.016.586l-24.985-14.425c-.435-.25-.791-.867-.791-1.37v-23.82z" fill="#eb4538"/><path d="M102.088 160.525c0 .958.679 1.35 1.509.87l36.362-20.993c1.055-.609 1.908-2.102 1.908-3.317v-27.439c0-.958-.68-1.35-1.51-.871l-37.095 21.417c-.646.373-1.174 1.288-1.174 2.034v28.299z" fill="#f38c7d"/><path d="M77.705 117.09c0-.646.457-.91 1.016-.587l24.491 14.14c.71.41 1.285 6.175 1.285 6.994v18.48c0 .646-.457.91-1.016.587L78.496 142.28c-.435-.25-.791-.867-.791-1.37v-23.82z" fill="#eb4538"/><path d="M144.743 139.57l-16.746 9.532c1.194.88 2.793 1.367 2.793 2.888l8.473-4.873 5.48-4.497v-3.05z" fill="#128cac"/><path d="M84.02 180.235c-.564-.694-.895-1.708-.895-3.008 0-3.636 2.593-8.094 5.772-9.93 1.266-.73 2.435-.933 3.39-.693l.006-.006.02.013a2.773 2.773 0 0 1 1.393.846l1.845 1.12-.89 1.466a7 7 0 0 1 .023.51c0 3.652-2.589 8.103-5.787 9.95a6.874 6.874 0 0 1-.83.404l-.946 1.555-1.876-1.342a2.775 2.775 0 0 1-1.212-.867l-.016-.011.002-.007z" fill="#e3a76f"/><path d="M91.209 168.839c3.188-1.84 5.787-.38 5.787 3.256 0 3.651-2.589 8.102-5.787 9.95-3.179 1.834-5.773.386-5.773-3.277 0-3.636 2.594-8.094 5.773-9.93" fill="#fcbc80"/><path d="M88.069 177.249c0-1.982 1.408-4.406 3.15-5.412 1.737-1.003 3.149-.207 3.149 1.775 0 1.999-1.412 4.418-3.15 5.421-1.741 1.006-3.15.208-3.15-1.784" fill="#d97763"/><path d="M88.069 177.249c0 .528.1.969.278 1.317.349-.049.725-.18 1.121-.408 1.737-1.003 3.149-3.422 3.149-5.421 0-.524-.1-.961-.278-1.308a3.13 3.13 0 0 0-1.12.408c-1.742 1.006-3.15 3.43-3.15 5.412" fill="#f69079"/><path d="M84.85 162.523l3.552-14.847v-3.38l11.661-6.588v27.766l3.263-2.023s.718-4.654 1.517-5.892l1.713 1.169-.812 3.204 14.654-8.469c-.884 2.032-1.407 3.851-1.407 5.372L97.383 171.31c0-4.184-3.108-6.08-6.933-3.871-2.695 1.555-5.019 4.697-6.166 7.928-.416 1.156-.681 2.297-.738 3.422-.008.181.27.527.27.527l-5.309 3.241v-13.091l6.343-6.942z" fill="#128cac"/><path d="M59.23 147.37l3.729-14.847v-3.38l11.242-6.588 25.712 15.153-11.511 6.588v3.38l-3.552 14.847-6.343 6.942v13.091l-25.796-15.152v-13.092l6.519-6.942z" fill="#0d687d"/><path d="M62.385 129.143l25.694 15.153 11.529-6.588-25.694-15.153-11.53 6.588z" fill="#8bd6f2"/><path d="M62.605 132.647v-3.504l25.797 15.153v3.504l-25.797-15.153z" fill="#0d687d"/><path d="M62.385 132.647l-3.71 14.723 25.693 15.153 3.71-14.723-25.693-15.153z" fill="#53bddb"/><path d="M58.674 147.37l-6.5 6.942 25.693 15.153 6.501-6.942-25.694-15.153z" fill="#8bd6f2"/><path d="M111.605 156.634l23.472-13.536c2.195-1.267 4.252-3.312 5.9-5.7l3.76 2.171-39.021 22.363.752-3.255.634.366 4.503-2.41zm-11.542-1.916v10.756l3.293-2.023s.773-3.336 1.487-5.892l-4.78-2.841z" fill="#0d687d"/><path d="M87.436 160.821l2.875-10.724 6.572-3.731v9.129l-9.447 5.326z" fill="#53bddb"/><path d="M90.133 150.097l5.69-3.158v7.897l-7.93 4.538 2.24-9.277zm-2.054-2.297l-3.396 13.473-24.691-14.562 3.395-13.472L88.08 147.8z" fill="#8bd6f2"/><path d="M117.802 158.347c0-3.636 2.593-8.094 5.772-9.93 1.713-.988 3.252-1.017 4.313-.274l.008-.006 2.692 1.78-1.227 1.774c-.01 3.648-2.593 8.086-5.786 9.929a6.22 6.22 0 0 1-1.52.638l-.665.962-1.615-1.048a2.734 2.734 0 0 1-.788-.511l-.04-.027.002-.01c-.716-.686-1.146-1.798-1.146-3.28" fill="#e3a76f"/><path d="M120.135 159.831c0 3.664 2.586 5.119 5.775 3.277 3.19-1.841 5.785-6.298 5.785-9.95 0-3.638-2.595-5.102-5.785-3.26-3.19 1.841-5.775 6.295-5.775 9.933" fill="#fcbc80"/><path d="M125.91 160.102c1.742-1.006 3.16-3.43 3.16-5.43 0-1.982-1.418-2.775-3.16-1.77-1.738 1.004-3.15 3.432-3.15 5.414 0 1.994 1.412 2.789 3.15 1.786" fill="#d97763"/><path d="M125.91 152.903c.4-.23.78-.362 1.132-.411.177.346.277.783.277 1.305 0 2-1.418 4.423-3.16 5.43a3.131 3.131 0 0 1-1.12.407c-.178-.349-.28-.79-.28-1.318 0-1.982 1.413-4.41 3.15-5.413" fill="#f69079"/><path d="M78.292 117.219c-.83-.48-.83-1.263 0-1.742l35.765-20.994c1.056-.61 1.632-.867 2.684-.26l24.333 13.986c.83.479.83 1.263 0 1.742l-36.523 21.417c-.645.373-.647.656-1.293.283l-24.966-14.432z" fill="#e24b3f"/><path d="M130.826 124.361c-.01.528-.28 1.1-.603 1.278-.322.177-.575-.109-.565-.637.01-.529.279-1.1.601-1.278.324-.177.577.108.567.637m-1.041 2.416c-.8 1.933-1.335 4.904-1.397 8.193-.01.504-.267 1.048-.574 1.217h-.005c-.307.169-.549-.102-.54-.607.02-1.012-.043-3.308-1.04-2.762-.995.547-1.148 2.961-1.167 3.973-.01.505-.267 1.05-.574 1.218l-.034.016c-.011.007-.023.016-.034.021-.307.169-.55-.102-.54-.606.02-1.012-.043-3.309-1.04-2.763-.996.547-1.149 2.962-1.168 3.974-.01.504-.266 1.049-.574 1.217-.307.17-.548-.102-.539-.606.073-3.828 1.244-5.82 2.316-6.408.618-.34 1.253-.236 1.665.646.455-1.357 1.105-2.166 1.724-2.506.485-.266.98-.259 1.369.18.32-2.143.833-4.027 1.49-5.484-1.081-1.352-2.652-1.709-4.421-.738-3.382 1.855-6.207 7.846-6.312 13.382-.105 5.536 2.55 8.52 5.932 6.666 3.381-1.855 6.207-7.846 6.312-13.383.037-1.973-.277-3.622-.849-4.843" fill="#fff"/></svg>