<svg xmlns="http://www.w3.org/2000/svg" width="8.747" height="7.798" viewBox="0 0 8.2003037 7.3107412"><path d="M6.175 5.71l1.877-1.1a.3.3 0 0 0-.002-.52L5.299 2.508 2.824 3.957 5.873 5.71a.3.3 0 0 0 .302-.001" fill="#4d4d4e"/><path d="M7.571 5.486l.601-.34-.642-.369-.6.34.641.37z" fill="#975579"/><path d="M4.972 2.544l2.906 1.678c.041.024.041.063 0 .087L6.014 5.385a.185.185 0 0 1-.166 0L2.94 3.707c-.04-.023-.04-.06 0-.083l1.87-1.08a.18.18 0 0 1 .161 0" fill="#f495be"/><path d="M7.492 4.103c-.012.007-.008.015.004.022l.129.075c.012.006.027.009.039.002l.094-.054-.172-.1-.094.055zM5.104 2.615l.172.1-.094.054c-.012.007-.027.005-.039-.002l-.129-.075c-.012-.007-.016-.015-.004-.022l.094-.055z" fill="#8c4b6d"/><path d="M7.814 4.103c.012-.007.01-.017-.001-.024l-.108-.062a.044.044 0 0 0-.041-.001l-.13.074c-.011.007-.014.02-.003.027l.108.062c.012.007.034.005.046-.002l.13-.074zm-2.61-1.359c-.012.007-.035.01-.047.002l-.107-.062c-.012-.007-.009-.02.003-.027l.129-.074a.044.044 0 0 1 .041 0l.108.063c.012.007.013.017.001.024l-.129.074z" fill="#e985ae"/><path d="M4.915.065l3.094 1.762v2.36L4.915 2.419V.065z" fill="#f495be"/><path d="M4.915.065L5.067 0l3.079 1.768-.133.06L4.915.064z" fill="#e985ae"/><path d="M7.873 4.314L6.017 5.387a.175.175 0 0 1-.164-.004l-2.89-1.67c-.024-.014-.036-.024-.038-.042h-.008v.202s-.002.027.044.047l2.892 1.668a.18.18 0 0 0 .166.004l1.854-1.073a.052.052 0 0 0 .029-.05v-.201c0 .016-.006.033-.029.046" fill="#aa5b7f"/><path d="M5.209.457l2.505 1.435v1.912L5.21 2.365V.457z" fill="#e985ae"/><path d="M8.133 1.768l-.124.06v2.359l.124-.066V1.768z" fill="#aa5b7f"/><path d="M5.316 2.316l2.398 1.381V1.892L5.316.514v1.802z" fill="#fee6db"/><path d="M5.45 1.22l-.134.06v1.04l.134-.066V1.22z" fill="#8c4b6d"/><path d="M5.45 2.254l2.268 1.288v.155l-2.4-1.377.132-.066zm.591 2.364l.14.08.149-.086-.14-.08-.149.086zm-.257-.15l.214.125.15-.086-.216-.124-.148.086zm-.172-.098l.14.08.148-.086-.14-.08-.148.086zm-.172-.1l.14.08.148-.085-.14-.08-.148.085zm-.172-.099l.14.08.148-.085-.14-.08-.148.085zm-.172-.1l.14.081.148-.086-.14-.08-.148.086zm-.172-.098l.14.08.149-.086-.14-.08-.149.086zm-.172-.1l.14.08.149-.085-.14-.08-.149.085zm-.172-.099l.14.08.149-.085-.14-.08-.149.085zm-.172-.1l.14.081.149-.086-.14-.08-.149.086zm-.172-.098l.14.08.149-.086-.14-.08-.149.086zm-.172-.1l.14.08.149-.085-.14-.08-.149.085zm2.1.984l.216.124.136-.08-.215-.123-.136.079zm-.171-.1l.14.081.136-.079-.14-.08-.136.078zm-.172-.099l.14.08.136-.078-.14-.08-.136.078zm-.183-.105l.15.087.137-.08-.15-.086-.137.079zm-.172-.1l.14.081.136-.079-.14-.08-.136.078zm-.172-.099l.14.08.137-.078-.14-.08-.137.078zm-.172-.1l.14.082.137-.08-.14-.08-.137.079zm-.171-.098l.14.08.136-.078-.14-.081-.136.079zm-.172-.1l.14.081.136-.079-.14-.08-.136.078zm-.172-.099l.14.08.136-.078-.14-.08-.136.078zm-.172-.1l.14.082.136-.08-.14-.08-.136.079zm1.794.85l.14.081.149-.086-.14-.08-.149.086zm-.172-.099l.14.081.149-.086-.14-.08-.149.085zm-.172-.099l.14.08.149-.085-.14-.08-.149.085zm-.171-.1l.14.082.148-.086-.14-.081-.148.086zm-.172-.098l.14.08.148-.086-.14-.08-.148.086zm-.172-.1l.14.081.148-.086-.14-.08-.148.085zm-.172-.099l.14.08.148-.085-.14-.08-.148.085zm-.172-.1l.14.082.148-.086-.14-.081-.148.086zm-.172-.098l.14.08.149-.086-.14-.08-.149.086zm-.172-.1l.14.081.149-.086-.14-.08-.149.085zM4.5 3.312l.14.08.149-.085-.14-.081-.149.086zm2.045.966l.14.08.136-.078-.14-.081-.136.079zm-.172-.1l.14.081.136-.079-.14-.08-.136.078zM6.2 4.08l.14.08.137-.078-.14-.08-.137.078zm-.171-.1l.14.082.136-.08-.14-.08-.136.079zm-.172-.098l.14.08.136-.078-.14-.081-.136.079zm-.183-.106l.15.087.137-.079-.15-.087-.137.08zm-.172-.099l.14.08.136-.078-.14-.08-.136.078zm-.172-.1l.14.081.136-.078-.14-.081-.136.079zm-.172-.099l.14.081.136-.079-.14-.08-.136.078zm-.172-.099l.14.08.137-.078-.14-.08-.137.078zm-.172-.099l.14.08.137-.078-.14-.08-.137.078zm-.171-.1l.14.081.136-.078-.14-.081-.136.079zm-.793.173l.172.1.148-.086-.172-.1-.148.086zm.198-.114l.355.204.136-.078-.354-.205-.137.079zm.161-.093l.258.148.15-.086-.259-.148-.149.086zm.186-.108l.226.13.137-.078-.226-.13-.137.078zm.174-.1l.13.074.136-.079-.13-.074-.136.079zm.172.1l.129.073.136-.078-.128-.075-.137.08zm.172.098l.129.075.136-.08-.129-.073-.136.078zm.172.1l.129.074.136-.079-.129-.074-.136.079zm.172.099l.129.074.136-.079-.129-.074-.136.079zm.16.093l.14.08.137-.078-.14-.08-.136.078zm.173.1l.129.074.136-.08-.129-.074-.136.08zm.172.098l.129.075.136-.079-.129-.074-.136.078zm.172.1l.129.074.136-.079-.129-.074-.136.079zm.172.099l.128.074.137-.079-.129-.074-.136.079zm.16.093l.13.074.136-.078-.129-.075-.136.079zm.173.1l.129.074.136-.08-.129-.074-.136.08zm.171.098l.13.075.136-.079-.129-.074-.137.078zM4.755 2.83l.13.075.098-.057-.129-.075-.099.057zm.172.1l.118.068.1-.057-.119-.069-.099.058zm.161.093l.118.068.1-.057-.118-.069-.1.058zm.15.086l.13.075.099-.057-.129-.075-.1.057zm.162.094l.118.068.1-.058-.119-.068-.1.058zm.15.086l.13.075.098-.057-.128-.075-.1.057zm.161.093l.119.069.099-.058-.118-.068-.1.057zm.162.093l.118.069.099-.058-.118-.068-.1.057zm.15.087l.118.069.1-.058-.119-.068-.099.057zm.161.093l.118.069.1-.058-.119-.068-.099.057zm.15.087l.119.068.099-.057-.118-.068-.1.057zm.162.093l.118.068.1-.057-.119-.068-.1.057zm.15.087l.13.075.098-.058-.129-.074-.099.057zm.161.093l.119.068.099-.057-.118-.068-.1.057zm.15.087l.13.074.099-.057-.129-.074-.1.057zm-.744.616l.13.074.148-.086-.129-.074-.149.086zm.199-.115l.129.075.136-.08-.129-.073-.136.078zm-.01-.192l.3.174.149-.086-.301-.174-.149.086zm.303-.04l.183.106.137-.079-.183-.105-.137.079zm.067-.162l.29.168.136-.079-.29-.167-.136.078zm.347-.014l.129.074.1-.057-.13-.074-.1.057zm-.745.616l.14.08.149-.085-.14-.081-.149.086zm.199-.115l.14.081.136-.079-.14-.08-.136.078zm.161-.093l.14.08.149-.085-.14-.08-.149.085zm.186-.107l.14.08.136-.078-.14-.081-.136.079zm.174-.1l.14.08.136-.079-.14-.08-.136.079zm.285-.165l.14.08-.1.058-.139-.08.1-.058z" fill="#aa5b7f"/><path d="M5.085 4.698a.023.023 0 0 1-.02 0l-.925-.533c-.006-.004-.006-.01 0-.013l.462-.266a.025.025 0 0 1 .022 0l.924.533c.006.003.005.01 0 .012l-.463.267z" fill="#e985ae"/><path d="M4.58 4.469l-.075.043c-.006.004 0 .006.005.01l.44.254c.007.003.011.006.017.003l.075-.044c.006-.003.002-.006-.004-.01l-.44-.254c-.007-.003-.012-.006-.018-.002zm-.477-.283l.44.254c.006.004.011.007.005.01l-.075.044c-.006.003-.01 0-.016-.003l-.441-.255c-.006-.003-.011-.006-.005-.01l.075-.043c.006-.003.011 0 .017.003" fill="#fee6db"/><path d="M7.58 4.687l-.918.53V5.01l.919-.529v.206z" fill="#e985ae"/><path d="M7.465 4.754l-.687.4v-.149l.687-.396v.145z" fill="#f495be"/><path d="M7.465 4.754l-.687.4v-.078l.687-.396v.074z" fill="#443560"/><path d="M6.794 5.048l.555-.314.707.394-.554.313-.708-.393z" fill="#fee6db"/><path d="M7.61 5.215l-.444-.257.076-.044.445.256-.077.045z" fill="#f6917a"/><path d="M7.873 5.232l-.71-.393.095-.053.707.393-.092.053z" fill="#443560"/><path d="M7.515 5.346l-.312-.18-.012.008.312.18.012-.008zm.038-.005l-.325-.188-.013.007.326.187.012-.006zm.014-.025l-.311-.18-.012.007.311.18.012-.007zm-.032-.046l-.255-.148-.012.007.255.148.012-.007zm.083.033l-.326-.188.016-.009.326.188-.016.01z" fill="#f6917a"/><path d="M7.609 5.191l-.15-.087.012-.007.15.087-.012.007z" fill="#443560"/><path d="M7.065 5.049a.045.045 0 0 1-.043 0L6.942 5c-.013-.007-.015-.018-.003-.025L7 4.94a.054.054 0 0 1 .047 0l.081.046c.013.008.01.02-.002.027l-.06.035z" fill="#d97764"/><path d="M8.053 5.128v.036l-.562.314v-.037l.562-.313z" fill="#dfbdce"/><path d="M6.787 5.048v.037l.704.393v-.037l-.704-.393z" fill="#f3d2d0"/><path d="M6.692 5.385l-.208.117-.255-.144.213-.118.25.145z" fill="#54bedb"/><path d="M6.225 5.358v.073l.259.144v-.073l-.259-.144z" fill="#8bd6f2"/><path d="M6.484 5.502v.073l.205-.117v-.073l-.205.117z" fill="#128dac"/><path d="M6.52 5.481v.073l.133.075v-.073L6.52 5.48z" fill="#725d95"/><path d="M6.787 5.482l-.13.074-.133-.075.128-.074.135.075z" fill="#443560"/><path d="M6.787 5.555l-.134.074v-.073l.134-.074v.073z" fill="#836e9c"/><path d="M6.874 5.603l-.131-.075-.065.038.069.04-.532.31a.03.03 0 0 0 0 .052c.023.013.036.03.036.045s-.013.032-.036.045a.243.243 0 0 1-.216 0l-.13-.072a.302.302 0 0 0-.276 0c-.043.025-.067.062-.067.1 0 .038.023.073.065.097l.172.1.016.01.173.099c.013.007.02.016.02.024 0 .007-.007.016-.02.024a.162.162 0 0 1-.144 0 .269.269 0 0 0-.256-.007l-.27.149a.213.213 0 0 1 .045.044l.255-.14c.054-.032.136-.028.2.009.057.03.144.03.2-.003.033-.018.051-.046.051-.076s-.018-.058-.05-.077l-.173-.1-.016-.009-.173-.1c-.022-.012-.034-.028-.034-.044 0-.016.013-.033.037-.047a.243.243 0 0 1 .216 0l.129.072a.302.302 0 0 0 .276 0c.043-.025.067-.06.067-.098a.099.099 0 0 0-.028-.067l.59-.343z" fill="#fee6db"/><path d="M5.363 6.864v-.161l-.096.02-.008-.004a.557.557 0 0 0-.504 0l-.317.182-.14.03v.114c-.013.06.02.124.101.17.14.08.365.08.505 0l.355-.205c.07-.04.105-.093.104-.146" fill="#213d45"/><path d="M5.259 6.848c.14-.08.14-.211 0-.291a.557.557 0 0 0-.504 0l-.356.205c-.14.08-.14.21 0 .291.14.08.365.08.505 0l.355-.205z" fill="#54bedb"/><path d="M5.077 6.735a.13.13 0 0 1-.118 0c-.032-.018-.032-.049 0-.068a.13.13 0 0 1 .118 0c.033.019.033.05 0 .068" fill="#443560"/><path d="M1.457 7.31l1.89-1.106-1.255-.737-1.89 1.107 1.255.737z" fill="#4d4d4e"/><path d="M1.97 5.854l-.328.354v.237L3.462 5.4v-.001l-.607-.342-.988.565.102.232z" fill="#4d4d4e"/><path d="M2.427 3.12l1.025.59v1.13l-1.025-.6V3.12z" fill="#f3d2d0"/><path d="M.894 5.326l.985.563 1.46-.821-1-.61-1.39.807-.055.061z" fill="#818181"/><path d="M.93 4.455l.302-.174v.312l-.303.174v-.312zm0-.398l.302-.173v.333l-.303.174v-.334zm.302.969L.93 5.2v-.34l.303-.175v.34zm.072-.383l.303-.174v.34l-.303.174v-.34zm0-.405l.303-.173v.312l-.303.174v-.313zm0-.397l.303-.174v.334l-.303.174V3.84zm.374.592l.303-.18v.34l-.303.181v-.34zm0-.404l.303-.18v.311l-.303.181V4.03zm0-.397l.303-.181v.333l-.303.181v-.333zm.357.582l.324-.182s.007.16.007.202a.239.239 0 0 1-.12.21 10.48 10.48 0 0 1-.211.117v-.347zm0-.398l.312-.18v.311l-.312.181v-.312zm0-.397l.312-.181v.333l-.312.181V3.42zm-1.49.968v-.103l.313-.188v.334l-.233.14.02.05.213-.126v.312l-.1.064.03.067.07-.046v.217l.08.157-.004.006a146.07 146.07 0 0 0 1.37-.792.27.27 0 0 0 .123-.238v-1.12L.481 4.244l.065.143z" fill="#fee6db"/><path d="M1.667 6.963c0-.133.094-.296.21-.363.116-.067.21-.013.21.121a.464.464 0 0 1-.21.364c-.116.066-.21.012-.21-.122" fill="#465060"/><path d="M1.667 6.963c0-.133.095-.296.21-.363.063-.036.104-.037.158-.01l-.046-.036c-.036-.053-.105-.063-.183-.018a.46.46 0 0 0-.21.361c0 .054.015.091.041.118.002.009.005.007.008.01l.06.054a.165.165 0 0 1-.038-.116" fill="#637288"/><path d="M.638 6.417c0-.134.094-.296.21-.363.116-.067.21-.013.21.12a.464.464 0 0 1-.21.364c-.116.067-.21.013-.21-.12" fill="#465060"/><path d="M.638 6.417a.46.46 0 0 1 .208-.363c.062-.036.119-.037.154-.01l-.042-.036C.922 5.955.854 5.945.776 5.99a.461.461 0 0 0-.21.362c0 .054.016.092.042.12.002 0 .005.005.008.007l.06.054a.167.167 0 0 1-.038-.116" fill="#637288"/><path d="M.721 6.369a.28.28 0 0 1 .127-.22c.07-.04.127-.007.127.074a.28.28 0 0 1-.127.22c-.07.04-.127.007-.127-.074" fill="#353e4a"/><path d="M.848 6.15a.28.28 0 0 0-.127.219c0 .01.001.018.003.026a.118.118 0 0 0 .053-.017.28.28 0 0 0 .127-.219.103.103 0 0 0-.003-.026.117.117 0 0 0-.053.017" fill="#2c323a"/><path d="M3.05 6.169c0-.134.094-.297.21-.364.116-.067.21-.012.21.121a.464.464 0 0 1-.21.364c-.116.067-.21.013-.21-.121" fill="#465060"/><path d="M3.05 6.169c0-.134.094-.297.21-.364.063-.036.121-.037.157-.009l-.045-.037c-.036-.053-.104-.063-.183-.018a.46.46 0 0 0-.21.362c0 .054.016.1.041.118.003 0 .006.007.008.01l.06.054a.166.166 0 0 1-.038-.116" fill="#637288"/><path d="M3.134 6.12a.28.28 0 0 1 .126-.219c.07-.04.127-.007.127.074a.28.28 0 0 1-.127.219c-.07.04-.126.007-.126-.073" fill="#353e4a"/><path d="M3.26 5.901a.28.28 0 0 0-.126.22c0 .01 0 .018.002.026a.118.118 0 0 0 .053-.017.28.28 0 0 0 .127-.22c0-.009 0-.018-.002-.026a.117.117 0 0 0-.054.017" fill="#2c323a"/><path d="M1.75 6.915a.28.28 0 0 1 .127-.219c.07-.04.126-.008.126.073a.28.28 0 0 1-.126.22c-.07.04-.127.007-.127-.074" fill="#353e4a"/><path d="M1.877 6.696a.28.28 0 0 0-.127.22l.002.026a.118.118 0 0 0 .054-.017.28.28 0 0 0 .126-.22c0-.01 0-.018-.002-.026a.117.117 0 0 0-.053.017" fill="#2c323a"/><path d="M1.786 6.579c.048-.028.088-.042.124-.03v-.132l-.25.149v.14c.045-.053.077-.099.126-.127zm1.265-.675v-.14l.268-.15v.137c-.045-.013-.087.003-.137.032a.427.427 0 0 0-.13.121" fill="#353e4a"/><path d="M1.33 5.074l.829.478v-.253l-.828-.47v.245z" fill="#32466e"/><path d="M1.391 5.108l.01.006V4.86l-.01-.005v.252zm.02.012l.01.006v-.253l-.01-.006v.253zm.321.185l.01.006v-.253l-.01-.006v.253zm.02.012l.01.005V5.07l-.01-.006v.253zm.32.185l.01.006v-.253l-.01-.006v.253zm.021-.241l.01.005v.253l-.01-.005V5.26zm.106.059v.182l.668-.4v-.183l-.668.4z" fill="#fff"/><path d="M2.159 5.31l.733-.436-.834-.407-.727.362.828.482z" fill="#2b3b57"/><path d="M2.187 5.36l.68-.408v-.01l-.68.408v.01zm0 .026l.68-.408v-.01l-.68.408v.01zm0 .026l.68-.408v-.009l-.68.408v.009zm0 .026l.68-.408v-.009l-.68.408v.009zm0 .026l.68-.407v-.01l-.68.408v.01zm0 .017l.68-.407v.009l-.68.407v-.009z" fill="#c8d1ce"/><path d="M2.39 5.376l-.028-.008-.028.042v-.178l.028-.017.028-.017v.178z" fill="#b1c444"/><path d="M2.892 5.112v-.025l-.693.415V5.32l.693-.415v-.031l-.733.437v.24l.733-.439z" fill="#396890"/><path d="M2.732 4.822l-.7.403v-.213l.7-.397v.207z" fill="#7b6592"/><path d="M2.681 4.637l-.008.005v.214l.008-.005v-.214zm-.017.01l-.008.005v.213l.008-.004v-.214zm-.27.157l-.009.004v.214l.008-.005v-.213zm-.018.01l-.008.004v.214l.008-.005v-.213zm-.27.156l-.009.005v.213l.008-.005V4.97zm-.018.223l-.008.005v-.214l.008-.004v.213zM2 5.03v.153l-.566-.338V4.69L2 5.03z" fill="#fff"/><path d="M2.033 5.022l-.62-.37.705-.343.614.306-.7.407z" fill="#483960"/><path d="M2.01 5.055l-.576-.344v.008l.575.344v-.008zm0 .022l-.576-.344v.008l.575.344v-.008zm0 .022l-.576-.344v.008l.575.344V5.1zm0 .022l-.576-.344v.008l.575.344v-.008zm0 .023l-.576-.345v.008l.575.344v-.007zm0 .03l-.576-.345v-.007l.575.344v.007z" fill="#c8d1ce"/><path d="M1.837 5.077l.024-.006.024.034v-.15l-.024-.014-.024-.014v.15z" fill="#32466e"/><path d="M1.414 4.854v-.021l.585.35V5.03l-.585-.35v-.026l.619.369v.203l-.62-.37z" fill="#b39bc9"/><path d="M2.703 4.573V4.7l-.48.277V4.85l.48-.277z" fill="#fff"/><path d="M1.507 4.614l.687.396v-.166l-.687-.396v.166z" fill="#2b3b57"/><path d="M1.781 4.74l.133.077c.006.004.011 0 .011-.009v-.07c0-.008-.005-.018-.011-.021L1.78 4.64c-.006-.004-.011 0-.011.009v.07c0 .008.005.018.011.021" fill="#e4e1d1"/><path d="M1.628 4.683l.02.011v-.163l-.02-.012v.164zm.042.024l.028.016V4.56l-.028-.017v.164zm.308.177l.035.02v-.162l-.035-.02v.162zm.057-.13l.08.046v.164l-.08-.046v-.164z" fill="#b1c444"/><path d="M2.194 4.844l.526-.303-.686-.396-.527.303.687.396z" fill="#396890"/><path d="M2.214 4.878l.489-.282v-.007l-.489.283v.006zm0 .018l.489-.282v-.007l-.489.283v.006zm0 .018l.489-.282v-.006l-.489.282v.006zm0 .018l.489-.282v-.006l-.489.282v.006zm0 .018l.489-.282v-.006l-.489.282v.006zm0 .012l.489-.282v.006l-.489.283v-.007z" fill="#c8d1ce"/><path d="M2.36 4.89l-.02-.006-.02.029V4.79l.02-.012.02-.012v.123z" fill="#2b3b57"/><path d="M2.72 4.707v-.018l-.497.287V4.85l.497-.287v-.022l-.526.303v.167l.526-.304z" fill="#396890"/><path d="M2.162 3.414l.03.026a.19.19 0 0 0 .058.035l.05.018-.45.259-.137-.08.45-.258z" fill="#fff"/><path d="M1.754 3.696l.01.006.438-.253a.384.384 0 0 1-.01-.006l-.438.253zm-.015-.008l.01.005.438-.253a.225.225 0 0 1-.008-.006l-.44.254zm-.014-.009l.01.006.44-.255a.12.12 0 0 1-.008-.006l-.442.255zm.044.026l.01.005.437-.252a.547.547 0 0 1-.01-.006l-.437.253zm.015.008l.009.006.437-.253a.422.422 0 0 1-.01-.005l-.436.252zm.058.034l.008.005.26-.151.187-.108s-.004 0-.011-.003l-.444.257zm-.03-.017l.01.005.44-.254a.34.34 0 0 1-.01-.004l-.44.253zm.352-.31a.023.023 0 0 1-.005-.006l-.186.107-.26.151.007.004.444-.256zm-.366.302l.01.005.438-.253a.411.411 0 0 1-.01-.005l-.438.253zm.038.022l-.009-.006.441-.254a.29.29 0 0 0 .012.004l-.444.256z" fill="#d8d8d8"/><path d="M1.845 3.78v.809l-.18-.104v-.81l.18.105z" fill="#32466e"/><path d="M2.338 3.495v.81l-.493.284v-.81l.493-.284z" fill="#2b3b57"/><path d="M2.158 3.391l.021.013-.466.269.137.079.466-.27.022.013-.493.285-.18-.104.493-.285z" fill="#396890"/><path d="M1.868 4.074l.07-.113.07.032v-.308l-.14.08v.309z" fill="#2b3b57"/><path d="M2.423 3.498l.03.026a.19.19 0 0 0 .058.034l.049.019-.449.259-.137-.08.45-.258z" fill="#fff"/><path d="M2.015 3.78l.01.006.438-.253a.377.377 0 0 1-.01-.006l-.438.253zM2 3.772l.01.005.438-.253a.231.231 0 0 1-.008-.006L2 3.772zm-.014-.009l.01.006.44-.255a.12.12 0 0 1-.007-.006l-.443.255zm.044.026l.01.005.437-.252a.537.537 0 0 1-.01-.006l-.437.253zm.015.008l.01.006.437-.253a.44.44 0 0 1-.01-.005l-.437.252zm.058.034l.008.005.261-.151.187-.108s-.005 0-.012-.003l-.444.257zm-.03-.017l.01.005.44-.254a.33.33 0 0 1-.01-.005l-.44.254zm.352-.31a.023.023 0 0 1-.004-.006l-.187.107-.26.15.007.005.444-.256zm-.366.301l.01.006.438-.253a.398.398 0 0 1-.01-.005l-.438.252zm.039.023l-.01-.006.441-.254a.3.3 0 0 0 .012.004l-.443.256z" fill="#d8d8d8"/><path d="M2.106 3.864v.809l-.18-.104v-.81l.18.105z" fill="#d97764"/><path d="M2.599 3.579v.81l-.493.284v-.81l.493-.284z" fill="#c15a4c"/><path d="M2.419 3.475l.021.013-.466.269.137.079.466-.27.022.013-.493.285-.18-.104.493-.285z" fill="#f6917a"/><path d="M2.129 4.161l.07-.112.07.031v-.308l-.14.081v.308z" fill="#8bd6f2"/><path d="M.79 5.267l1.03.589-.302.342L.474 5.61l.317-.342z" fill="#4d4d4e"/><path d="M.474 5.61v.449l1.044.588v-.449L.474 5.61zm.86-.816L.305 4.205l.486 1.062 1.029.589-.486-1.062z" fill="#9a9a9a"/><path d="M.26 4.07l1.029.59-.037.148-1.029-.59.037-.147z" fill="#a73847"/><path d="M.24 3.999c-.03-.02-.056-.03-.1-.005a.31.31 0 0 0-.14.242c0 .051.02.085.052.096l1.008.577c-.02-.016-.034-.046-.033-.087a.31.31 0 0 1 .145-.24.114.114 0 0 1 .077-.016l.003-.005-.947-.523-.066-.04m1.013.81l.037-.148.14-.027.54 1.221-.327.354v.237L3.462 5.4v.131L1.64 6.576l-.122.071v-.449l.295-.342-.482-1.062-.08.014z" fill="#fee6db"/><path d="M1.027 4.822a.31.31 0 0 1 .145-.24c.078-.042.14-.005.138.084a.31.31 0 0 1-.144.24c-.079.043-.14.005-.139-.084" fill="#f3d2d0"/><path d="M1.954 5.044l.313-.174v.312l-.313.174v-.312zm0-.398l.313-.173v.333l-.313.174v-.334zm.313.969l-.313.174v-.34l.313-.175v.34zm.062-.383l.303-.174v.34l-.303.174v-.34zm0-.405l.303-.174v.313l-.303.173v-.312zm0-.397l.303-.174v.334l-.303.173V4.43zm.357.592l.32-.18v.34l-.32.18v-.34zm0-.404l.32-.181v.312l-.32.181v-.312zm0-.397l.32-.181v.333l-.32.181v-.333zm.374.581l.324-.18s.01.16.01.201a.239.239 0 0 1-.12.21 12.51 12.51 0 0 1-.214.117v-.348zm0-.397l.339-.18v.311l-.339.181v-.312zm0-.397l.339-.181v.333l-.339.181v-.333zm-1.489.968v-.103l.339-.188v.334l-.252.144.023.05.229-.13v.312l-.117.067.033.067.084-.05v.24l.06.135c-.036.02.953-.531 1.363-.786.087-.054.12-.145.12-.238V3.71L1.506 4.833l.064.143z" fill="#fee6db"/><path d="M7.098 2.555l-.024.021a.154.154 0 0 1-.048.029l-.04.015.366.21.112-.064-.366-.21z" fill="#fff"/><path d="M7.074 2.58a.29.29 0 0 1-.008.004l.356.206.009-.005-.357-.206zm.01-.009a.179.179 0 0 1-.006.005l.357.207.008-.005-.359-.207zm.01-.008a.098.098 0 0 1-.006.006l.359.207.007-.005-.36-.208zm-.032.024a.477.477 0 0 1-.008.004l.357.206.007-.005-.356-.205zm-.012.007a.305.305 0 0 1-.007.004l.356.206.007-.005-.356-.205zm-.053.023l-.009.003.152.088.212.122.007-.004-.362-.209zm.028-.01a.293.293 0 0 1-.008.003l.358.207.008-.004-.358-.207zm.433.162l.007-.003-.213-.123-.152-.088s0 .002-.003.005l.361.21zm-.42-.169a.323.323 0 0 1-.008.004l.357.206.008-.004-.357-.206zm-.035.016a.242.242 0 0 0 .009-.004l.359.208-.008.004-.36-.208z" fill="#d8d8d8"/><path d="M7.357 2.853v.66l.146-.086V2.77l-.146.084z" fill="#d97764"/><path d="M6.955 2.622v.658l.402.232v-.659l-.402-.231z" fill="#c15a4c"/><path d="M7.102 2.537l-.018.01.38.22-.112.063-.38-.219-.017.01.402.232.146-.084-.401-.232z" fill="#f6917a"/><path d="M7.018 2.978l.287.166m-.296-.077l.287.166" fill="none" stroke="#f6917a" stroke-width=".031" stroke-miterlimit="10"/><path d="M7.338 3.096l-.057-.092-.057.026v-.251l.114.066v.25z" fill="#8bd6f2"/><path d="M6.401 2.086l-.024.021a.154.154 0 0 1-.048.028l-.04.015.366.211.111-.064-.365-.211z" fill="#fff"/><path d="M6.377 2.11a.293.293 0 0 1-.008.005l.356.206.008-.005-.356-.206zm.01-.008a.178.178 0 0 1-.007.005l.358.206.007-.004-.358-.207zm.01-.008a.096.096 0 0 1-.006.005l.358.208.008-.005-.36-.208zm-.032.023a.467.467 0 0 1-.008.005l.356.205.008-.004-.356-.206zm-.012.007a.293.293 0 0 1-.008.005l.356.205.008-.004-.356-.206zm-.053.024l-.01.003.153.088.212.122.007-.004-.362-.209zm.028-.01a.274.274 0 0 1-.009.003l.359.207.008-.005-.358-.206zm.433.162l.006-.004-.212-.122-.152-.088s0 .002-.003.005l.361.209zm-.42-.17a.342.342 0 0 1-.008.005l.357.206.007-.004-.356-.206zm-.036.016a.238.238 0 0 0 .01-.003l.359.207-.008.005-.36-.209z" fill="#d8d8d8"/><path d="M6.66 2.384v.659l.146-.085V2.3l-.147.085z" fill="#d97764"/><path d="M6.258 2.152v.66l.402.23v-.658l-.402-.232z" fill="#c15a4c"/><path d="M6.405 2.068l-.018.01.38.219-.112.064-.38-.219-.017.01.402.232.146-.085-.401-.231z" fill="#f6917a"/><path d="M6.32 2.509l.288.166m-.297-.077l.288.166" fill="none" stroke="#f6917a" stroke-width=".031" stroke-miterlimit="10"/><path d="M6.64 2.626l-.057-.091-.057.026V2.31l.115.065v.251z" fill="#8bd6f2"/><path d="M7.296 1.651L6.93 1.44l-.668.38.367.212.667-.38zm-.744-.429l-.377-.218-.667.38.377.218.667-.38zm-1.41-.049L4.763.955l.667-.38.378.218-.668.38z" fill="#54bedb"/><path d="M7.719 1.892l-.423-.24-.667.38.377.218.713-.358zm-.79-.452l-.377-.218-.667.38.377.218.668-.38zm-1.421-.055l-.367-.212.668-.38.366.211-.667.38z" fill="#443560"/><path d="M6.464 2.116l.17-.084-.37-.212-.17.085c0 .135.084.295.185.349h.001c.102.062.184-.003.184-.138zm-.748-.43l.17-.084-.378-.218-.17.084c0 .135.083.292.184.35l.012.007c.102.058.182-.004.182-.139zm-.924-.29l-.01-.007c-.102-.059-.184-.215-.184-.35l.17-.084.377.218-.17.084c0 .135-.081.197-.183.138" fill="#8bd6f2"/><path d="M6.842 2.333l.17-.084-.378-.217-.17.083c0 .135.082.292.183.35l.011.007c.101.058.184-.004.184-.139zm-.748-.43l.17-.083-.378-.218-.17.084c0 .135.083.292.184.35l.012.006c.101.059.182-.003.182-.138zm-.937-.3c-.1-.054-.181-.212-.181-.347l.17-.083.362.211-.17.084c0 .135-.08.197-.181.135" fill="#725d95"/></svg>