<svg xmlns="http://www.w3.org/2000/svg" width="11.105" height="14.237" viewBox="0 0 10.411258 13.347612"><defs><clipPath id="a"><path d="M1527.89 2956.854h8.015v20.008h-8.015v-20.008z"/></clipPath><clipPath id="b"><path d="M1531.948 2956.854h6.36v20.334h-6.36v-20.334z"/></clipPath></defs><path d="M.898 4.811c.39-.225.71-.777.71-1.229 0-.45-.32-.635-.71-.41-.39.226-.71.778-.71 1.23 0 .451.32.635.71.41" fill="#3a3056" fill-rule="evenodd"/><path d="M6.75 13.348L0 9.45l2.868-1.656 6.75 3.898-2.869 1.656zm2.113-6.13l1.353.78-1.463 1.35L6.53 8.063l2.332-.846z" fill="#3a3056"/><path d="M6.69 6.165l.141.075v.427l-.14-.075v-.427z" fill="#8f496c"/><path d="M7.636 6.918l-.142-.075v-.657l.142.017v.715z" fill="#7a3054"/><path d="M6.831 6.24v.427l.805-.464v.715l.37-.339V5.563L6.83 6.24z" fill="#aa5b7f"/><path d="M8.005 5.563l-.141-.076-1.174.678.141.075 1.174-.677z" fill="#d776a3"/><path d="M9.37 6.836l-.113.06v-.634l.113-.06v.634z" fill="#aa5b7f"/><path d="M9.27 6.959l-.214-.123v-.633l.214.122v.634z" fill="#8f496c"/><path d="M6.154 7.11l2.222 1.283v.377L6.154 7.487v-.376z" fill="#f3d2d0"/><path d="M8.487 6.264l1.352.781-1.463 1.348-2.222-1.282 2.333-.847z" fill="#edefef"/><path d="M8.373 7.16v.426l.804-.464v.715l.37-.339V6.482l-1.174.678z" fill="#d1b8cf"/><path d="M10.273 4.84L8.051 3.556l.138-.126 2.222 1.283-.138.125z" fill="#edefef"/><path d="M9.838 6.781l-1.352-.78-.435-2.444 2.222 1.282-.435 1.942z" fill="#f3d2d0"/><path d="M9.614 6.31l-.956-.553-.307-1.728 1.57.907-.307 1.373z" fill="#edefef"/><path d="M9.976 6.656l-.138.125.435-1.942.138-.125-.435 1.942zm-1.6 1.737v.377L9.84 7.422v-.377L8.376 8.393z" fill="#fee6db"/><path d="M8.373 7.16l.141.075v.427l-.14-.076V7.16z" fill="#8f496c"/><path d="M9.319 7.913l-.142-.076V7.18l.142.017v.716z" fill="#7a3054"/><path d="M8.514 7.235v.427l.805-.465v.716l.37-.34V6.558l-1.175.678z" fill="#aa5b7f"/><path d="M9.688 6.557l-.141-.075-1.174.678.141.075 1.174-.678z" fill="#d776a3"/><path d="M9.332 11.612l-2.785 1.606v-3.012l2.785-1.607v3.013z" fill="#aa5b7f"/><path d="M4.096 8.595L1.31 10.2V7.19l2.786-1.607v3.013z" fill="#731349"/><path d="M6.799 9.95L.25 6.169l2.782-1.607L9.58 8.343 6.8 9.95z" fill="#f495be"/><path d="M6.796 10.364L.251 6.585V6.17l6.545 3.778v.417z" fill="#d776a3"/><path d="M.5 6.715v3.012l.81.468V8.161l4.427 2.555v2.034l.81.468v-3.012L.5 6.715z" fill="#8f496c"/><path d="M9.581 8.758l-2.785 1.606v-.417l2.785-1.604v.415z" fill="#e985ae"/><path d="M4.947 3.194l.437 4.096.505-.34-.669-3.7z" fill="#fff" fill-opacity=".685" fill-rule="evenodd"/><path d="M4.944 2.658l-.243-.14-.262-.152-.124.597.386.224.387.223-.144-.752z" fill="#725d95"/><path d="M4.44 2.366l.212-.112.506.291-.214.113-.505-.292z" fill="#8e9aca"/><path d="M5.088 3.41l.214-.113-.144-.752-.214.113.144.752z" fill="#584972"/><path d="M4.857 0v2.513l-.193-.109V0h.193z" fill="#7dcbbb"/><path d="M4.998 2.45V0h-.141v2.52l.14-.07z" fill="#63c4b0"/><path d="M4.143 6.607l1.924 1.11-1.186.685-1.924-1.11 1.186-.685z" fill="#aa5b7f"/><path d="M4.017 6.494l1.924 1.11-1.186.685-1.924-1.11 1.186-.685z" fill="#edefef"/><path d="M4.025 7.75l.073-.042-.074-.043-.074.043.075.043zm-.096-.055l.074-.042-.075-.043-.074.042.075.043zm-.474-.273l.074-.043-.075-.043-.073.043.074.043zm-.096-.055l.074-.043-.075-.043-.073.043.074.043zm-.096-.056l.074-.042-.074-.043-.074.042.074.043zm-.095-.055l.073-.043-.074-.043-.074.043.075.043zm.67.387l.074-.042-.074-.043-.074.042.074.043zm-.096-.055l.074-.043-.074-.043-.074.043.074.043zm-.095-.055l.073-.043-.074-.043-.074.043.075.043zm-.096-.056l.074-.042-.075-.043-.074.042.075.043zm1.144.661l.074-.043-.074-.043-.074.043.074.043zM4.6 8.083l.074-.043-.074-.043-.074.043.074.043zm-.095-.056l.073-.042-.074-.043-.074.042.075.043zm-.096-.055l.074-.043-.075-.043-.074.043.075.043zm-.096-.055l.074-.043-.075-.043-.073.043.074.043zm-.096-.056l.074-.042-.075-.043-.073.042.074.043zm-.17-.098l.074-.043.074.044-.074.042-.074-.043zm.083-.073l.073-.042-.075-.043-.073.042.074.043zm-.097-.055l.074-.042-.075-.043-.073.042.074.043zm-.473-.273l.073-.043-.074-.043-.074.043.075.043zm.383.22l.074-.042-.075-.043-.074.043.075.043zm-.096-.054l.074-.043-.075-.043-.074.043.075.043zm-.096-.056l.074-.042-.075-.043-.073.042.074.043zm-.096-.055l.074-.043-.074-.043-.074.043.074.043zm1.145.66l.074-.042-.075-.043-.074.043.075.043zm-.096-.055l.074-.042-.075-.043-.074.042.075.043zm-.096-.055l.074-.043-.075-.043-.073.043.074.043zm-.096-.055l.074-.043-.074-.043-.074.043.074.043zm-.095-.056l.073-.042-.074-.043-.074.042.075.043zm-.096-.055l.073-.043-.074-.043-.074.043.075.043zm-.096-.055l.074-.043-.075-.043-.074.043.075.043zm-.932-.538l.165.095.074-.042-.165-.096-.074.043zm-.022-.098l.075.043-.074.043-.074-.043.073-.043zm.882.48l.074-.042-.075-.043-.074.043.075.043zm-.096-.055l.074-.042-.075-.043-.073.042.074.043zm-.59-.34l.073-.043-.075-.043-.073.042.074.043zm.1.058l.074-.043-.074-.043-.074.043.074.043zm.389.224l.074-.043-.075-.043-.074.043.075.043zm-.096-.055l.074-.043-.075-.043-.073.043.074.043zm-.096-.056l.074-.042-.074-.043-.074.042.074.043zm-.1-.058l.073-.043-.075-.043-.073.043.074.043zm1.08.624l.074-.043-.075-.043-.074.043.075.043zm-.101-.059l.073-.042-.074-.043-.074.042.075.043zm-.096-.055l.074-.043-.075-.043-.074.043.075.043zm-.096-.055l.074-.043-.075-.043-.074.043.075.043zm-.101-.059l.074-.042-.075-.043-.074.042.075.043zm-.096-.055l.074-.043-.075-.043-.073.043.074.043zm.644.372l.074-.043-.139-.08-.073.043.138.08zM3.37 7.053l.074.043-.074.043-.074-.043.074-.043zm.93.502l.074-.043-.075-.043-.074.043.075.043zm-.101-.058l.074-.043-.075-.043-.074.042.075.044zm-.107-.062l.074-.043-.074-.043-.074.043.074.043zm-.1-.058l.073-.043-.075-.043-.073.043.074.043zm-.107-.062l.074-.042-.075-.043-.074.042.075.043zm-.107-.061l.074-.043-.074-.043-.074.043.074.043zm1.044.602l.073-.043-.074-.043-.074.043.075.043zm-.102-.058l.074-.043-.074-.043-.074.043.074.043zm-.106-.062l.074-.042-.075-.043-.073.042.074.043zm-.101-.058l.074-.043-.075-.043-.074.043.075.043zm-.107-.062l.074-.042-.074-.043-.074.042.074.043zm-.734-.424l.074-.042-.176-.102-.074.043.176.101zm1.33.769l.074-.043-.16-.092-.073.042.16.093zm-1.528-.968l.075.043-.074.043-.075-.043.074-.043zm.763.291l.073-.042-.074-.043-.074.042.075.043zm-.107-.061l.074-.043-.075-.043-.073.043.074.043zm-.1-.059l.073-.042-.133-.077-.074.042.133.077zm.739.427l.074-.042-.5-.289-.074.043.5.288zm.436.252l.074-.042-.117-.068-.074.043.117.067zm-.223-.129l.074.043.074-.042-.074-.043-.074.042zm-.096-.055l.075.043.073-.042-.074-.044-.074.043zm-.096-.055l.075.043.074-.043-.075-.043-.074.043zm-.995-.575l.074.043.074-.043-.074-.043-.074.043zm-.096-.055l.075.043.073-.043-.074-.043-.074.043zm-.022-.098l.075.043-.074.042-.075-.043.074-.042zm.769.65l.074-.043-.075-.043-.073.043.074.043zm-.106-.062l.074-.042-.075-.043-.074.042.075.043zm-.101-.058l.073-.043-.074-.043-.074.043.075.043zm-.107-.062l.074-.042-.075-.043-.073.042.074.043zm-.106-.061l.073-.043-.074-.043-.074.043.075.043zm-.107-.061l.074-.043-.075-.043-.073.043.074.043zm.948.547l.073-.043-.074-.043-.074.043.075.043zm-.107-.062l.074-.042-.074-.044-.074.043.074.043zm-.106-.061l.074-.043-.075-.043-.074.043.075.043zm-.101-.059l.073-.042-.074-.043-.074.042.075.043zm-.724-.418l.074-.042-.139-.08-.074.042.139.08zm1.272.735l.074-.043-.213-.123-.074.043.213.123zm-1.506-.87l.074.043.074-.042-.075-.044-.073.043zm-.023-.098l.075.043-.074.043-.074-.043.073-.043zm.738.22l.252-.146.5.29-.252.145-.5-.29zm.276-.16l.043-.025.24.139-.043.025-.24-.139zm.261.151l.043-.025.24.138-.043.025-.24-.138z" fill="#dfbdce"/><path d="M4.755 8.29l.06-.036V7.001l-.06.035V8.29z" fill="#fee6db"/><path d="M2.835 7.184l1.924 1.11V7.043L2.835 5.93v1.253z" fill="#f3d2d0"/><path d="M5.941 7.604v.111L4.755 8.4v-.11l1.186-.686z" fill="#fee6db"/><path d="M2.831 7.179v.11L4.755 8.4v-.11L2.831 7.178z" fill="#f3d2d0"/><path d="M2.835 5.93l.057-.04 1.924 1.111-.057.04-1.924-1.11z" fill="#fff6f3"/><path d="M5.682 8.09l.1.058v.023l-.1-.058V8.09z" fill="#aa5b7f"/><path d="M5.777 8.034l.1.058-.095.056-.1-.058.095-.056z" fill="#aa5b7f"/><path d="M5.8 8.064l.02.012-.063.036-.02-.012.063-.036zm.077.028v.024l-.095.055v-.023l.095-.056z" fill="#aa5b7f"/><path d="M5.75 8.147l.29.167v.024l-.29-.167v-.024z" fill="#aa5b7f"/><path d="M6.124 8.27c.054.07.166.178.037.24a.37.37 0 0 0-.072.045c-.026.021-.049.047-.088.06-.07.023-.17-.004-.191-.047-.02-.04.051-.057.102-.067.048-.01.1-.016.143-.034.105-.043.104-.132.05-.191-.005-.006-.022-.002-.016.004.04.046.049.1.004.146-.038.039-.104.049-.172.062-.049.01-.106.02-.128.05-.023.03.021.066.064.082.051.018.12.018.169-.002.033-.013.056-.038.079-.057.026-.022.062-.037.094-.056.048-.028.044-.073.032-.109-.016-.046-.057-.088-.09-.13-.005-.007-.022-.003-.017.004" fill="#aa5b7f"/><path d="M5.877 8.074l.29.167-.127.073-.29-.167.127-.073z" fill="#aa5b7f"/><path d="M6.093 8.198l.074.043-.127.073-.073-.043.126-.073z" fill="#aa5b7f"/><path d="M6.167 8.24v.025l-.127.073v-.024l.127-.073z" fill="#aa5b7f"/><path d="M5.67 8.078l.1.058v.022l-.1-.057v-.023z" fill="#fdc282"/><path d="M5.765 8.022l.1.057-.095.057-.1-.058.095-.056z" fill="#fedbc0"/><path d="M5.787 8.051l.021.012-.063.037-.021-.012.063-.037z" fill="#e3a76f"/><path d="M5.865 8.08v.024l-.095.054v-.022l.095-.057z" fill="none" stroke="#424242" stroke-width=".018" stroke-miterlimit="10"/><path d="M5.738 8.134l.29.167v.025l-.29-.168v-.024z" fill="#1ab59d"/><path d="M6.111 8.257c.055.07.166.178.038.241a.37.37 0 0 0-.072.044c-.026.021-.05.047-.089.06-.07.024-.169-.004-.19-.046-.021-.04.05-.057.102-.068.048-.01.1-.016.143-.033.105-.043.104-.132.05-.192-.006-.006-.022-.001-.017.005.041.045.05.1.005.145-.038.04-.104.05-.173.062-.048.01-.106.021-.128.05-.023.031.022.066.065.082.05.019.12.018.168-.001.034-.014.056-.039.079-.058.027-.022.062-.036.095-.055.048-.028.044-.073.031-.11-.016-.045-.057-.088-.09-.13-.005-.007-.022-.002-.017.004" fill="#1ab59d"/><path d="M5.865 8.061l.29.167-.127.073-.29-.167.127-.073z" fill="#96d4c6"/><path d="M6.08 8.186l.074.042-.126.073-.074-.042.127-.073z" fill="#e3a76f"/><path d="M6.154 8.228v.025l-.126.073V8.3l.126-.073z" fill="#63c4b0"/><path d="M7.304 7.977l.748.376-.975.646-.747-.377.974-.645z" fill="#aa5b7f"/><path d="M7.894 8.402l-.652-.328m-.054.035l.652.328m-.705-.292l.652.328m-.054.035l-.652-.328m-.053.036l.651.328m-.053.035l-.652-.328m.598.364l-.652-.328m.599.363l-.652-.328m.598.364l-.652-.328m.598.363l-.651-.328m.598.364l-.652-.328m.598.363l-.652-.328m.287.337l.2.1m.112-.073L6.599 8.5l.652.328z" fill="#aa5b7f"/><path d="M7.48 7.95l.821.32-.83.71-.821-.32.83-.71zm.675.38l-.717-.28m.671.319l-.716-.28m.67.319l-.716-.28m.67.319l-.716-.28m.671.319l-.716-.28m-.046.04l.717.279m-.046.039l-.716-.28m.67.32l-.716-.28m.67.318l-.716-.279m-.045.04l.716.278m-.045.04l-.717-.28m.671.318l-.717-.279m.356.314l.22.085m.095-.08l-.716-.28.716.28z" fill="#aa5b7f"/><path d="M7.254 7.977L8 8.353l-.974.646-.748-.377.975-.645z" fill="#f9fafa"/><path d="M7.844 8.402l-.652-.328m-.054.035l.652.328m-.705-.292l.651.328m-.053.035L7.03 8.18m-.054.036l.652.328m-.053.035l-.652-.328m.598.364l-.652-.328m.598.363l-.651-.328m.598.364l-.652-.328m.598.363l-.652-.328m.599.364l-.652-.328m.598.363l-.652-.328m.287.337l.2.1m.111-.073L6.55 8.5" fill="none" stroke="#d4d4d4" stroke-width=".013" stroke-miterlimit="10"/><path d="M7.429 7.95l.822.32-.83.71-.822-.32.83-.71z" fill="#f9fafa"/><path d="M8.105 8.33l-.717-.28m.671.319l-.717-.28m.671.319l-.716-.28m.67.319l-.716-.28m.671.319l-.716-.28m-.046.04l.717.279m-.046.039l-.717-.28m.671.32l-.716-.28m.67.318l-.716-.279m-.046.04l.717.278m-.046.04l-.716-.28m.67.318l-.716-.279m.356.314l.22.085m.095-.08l-.716-.28" fill="none" stroke="#d4d4d4" stroke-width=".013" stroke-miterlimit="10"/><path d="M.772 4.699c.391-.226.71-.778.71-1.23 0-.45-.319-.635-.71-.41-.39.226-.71.779-.71 1.23 0 .451.32.635.71.41" fill="#584972"/><path d="M.885 4.668c.359-.207.65-.713.65-1.127 0-.413-.291-.582-.65-.375-.358.207-.65.713-.65 1.126 0 .414.292.583.65.376" fill="#edefef"/><path d="M1.22 4.326l-.028-.041c-.008-.012-.026-.007-.04.01-.014.018-.02.042-.011.054l.029.04a1.128 1.128 0 0 1-.255.227v-.067c0-.019-.013-.026-.03-.017a.065.065 0 0 0-.03.051v.067a.533.533 0 0 1-.254.068l.029-.074c.008-.021.003-.04-.011-.04-.014-.002-.032.014-.04.035l-.03.075a.306.306 0 0 1-.186-.108l.05-.062c.014-.018.019-.042.01-.053-.007-.012-.025-.007-.04.01l-.05.063a.534.534 0 0 1-.068-.255l.058-.033a.065.065 0 0 0 .03-.052c0-.018-.014-.026-.03-.017l-.058.034c.005-.109.029-.222.069-.334l.05.004c.014.001.032-.015.04-.036.008-.02.003-.038-.011-.04l-.05-.004a1.506 1.506 0 0 1 .187-.324l.029.041c.008.012.026.007.04-.01.014-.018.019-.042.01-.053l-.028-.041c.077-.09.163-.168.255-.226v.066c0 .02.013.027.03.017a.065.065 0 0 0 .029-.05v-.067a.534.534 0 0 1 .255-.069l-.029.075c-.008.02-.003.039.01.04.015.001.033-.015.041-.036l.029-.074a.306.306 0 0 1 .187.108l-.05.062c-.014.017-.02.04-.011.052.008.012.026.007.04-.01l.05-.062c.04.066.064.151.068.255l-.057.033a.065.065 0 0 0-.03.051c0 .019.013.027.03.017l.057-.033a1.143 1.143 0 0 1-.068.334l-.05-.005c-.014 0-.032.015-.04.036-.008.021-.003.039.01.04l.05.005a1.506 1.506 0 0 1-.186.323zm.345-.802c0-.217-.076-.37-.199-.44a.341.341 0 0 0-.14-.043.585.585 0 0 0-.34.09 1.25 1.25 0 0 0-.34.302H.544a1.64 1.64 0 0 0-.14.206 1.39 1.39 0 0 0-.2.67c0 .143.034.258.091.34a.33.33 0 0 0 .108.1c.123.072.293.061.481-.047a1.25 1.25 0 0 0 .34-.301 1.64 1.64 0 0 0 .141-.206c.123-.214.2-.454.2-.67" fill="#725d95"/><path d="M1.104 3.582l-.206.31-.413.02c-.014 0-.032.018-.039.039-.007.02 0 .037.015.037l.43-.02h.004l.003-.002H.9a.037.037 0 0 0 .01-.007l.002-.002a.06.06 0 0 0 .008-.01l.001-.001.22-.332c.013-.019.015-.041.005-.05-.01-.009-.03 0-.042.019" fill="#725d95"/><path d="M2.981 5.444a.02.02 0 0 1 .019 0l.494.286c.006.003.006.008 0 .01l-.239.139a.02.02 0 0 1-.018 0l-.495-.286c-.005-.003-.005-.008 0-.01l.239-.139z" fill="#aa5b7f"/><path d="M3.237 5.879c.005.003.007 0 .004-.004l-.116-.203a.027.027 0 0 0-.016-.012l-.366-.07c-.006-.002-.006 0-.001.003l.495.286z" fill="#aa5b7f"/><path d="M2.956 5.444a.02.02 0 0 1 .019 0l.494.286c.005.003.005.008 0 .01l-.239.139a.02.02 0 0 1-.018 0l-.495-.286c-.005-.003-.005-.008 0-.01l.239-.139z" fill="#63c4b0"/><path d="M3.212 5.879c.005.003.007 0 .004-.004L3.1 5.672a.027.027 0 0 0-.016-.012l-.366-.07c-.006-.002-.006 0-.001.003l.495.286z" fill="#7dcbbb"/><path d="M6.898 7.548l-.254.108.324.186.254-.108-.324-.186z" fill="#aa5b7f"/><path d="M6.95 7.821l-.28-.161v-.457l.28.161v.457z" fill="#1ab59d"/><path d="M6.95 7.364l.221-.094v.457l-.22.094v-.457z" fill="#63c4b0"/><path d="M6.89 7.109l-.22.094.28.161.221-.094-.28-.161z" fill="#96d4c6"/><path d="M6.84 7.265l.1.058.061-.025-.101-.059-.06.026z" fill="#fedbc0"/><path d="M6.9 7.15v.09l.101.058.09-.039-.191-.11z" fill="#1ab59d"/><path d="M6.9 7.15v.09l-.06.025-.09-.051.15-.064z" fill="#63c4b0"/><path d="M7.077 7.69l.058-.03v-.215l-.058.029v.215zm-.057-.053l.057-.019v-.186l-.057.03v.175z" fill="#fdc282"/><path d="M7.061 7.66l-.041-.024v-.175l.041.024v.175zm-.058-.229v.216l.074.042v-.215l-.074-.043z" fill="#e3a76f"/><path d="M7.003 7.431l.058-.03.074.044-.058.029-.074-.043z" fill="#fedbc0"/><path d="M7.02 7.636l.041-.013v.037l-.041-.024z" fill="#d09563"/><g clip-path="url(#a)" opacity=".3" transform="matrix(.01891 0 0 -.01891 -22.108 63.183)"><path d="M1533.416 2961.852l1.127 3.798-2.595 11.022v.131l-.05-.036-.05.095v-.131l-.166-9.62-1.303-3.505-2.489-2.124 3.957-2.313.101-.058 3.957-2.257-2.489 4.998z" fill="#fafaef"/></g><g clip-path="url(#b)" opacity=".5" transform="matrix(.01891 0 0 -.01891 -22.108 63.183)"><path d="M1535.905 2956.854l2.404.516-2.489 4.998 1.128 3.798-2.596 11.022-2.404-.516 2.596-11.022-1.128-3.798 2.489-4.998z" fill="#fff"/></g><path d="M3.793 7.222c-.001.009-.008.013-.015.009-.007-.004-.01-.014-.009-.023.004-.019.01-.062-.012-.075-.021-.012-.032.029-.035.047-.002.009-.01.013-.016.01v-.001h-.001c-.007-.004-.01-.015-.01-.024.005-.018.01-.062-.011-.074-.022-.013-.032.028-.036.046-.002.01-.008.013-.015.01-.007-.004-.01-.015-.009-.024.014-.068.043-.079.066-.065.014.008.026.024.031.05.014-.015.03-.015.043-.007.01.006.02.017.026.034a.146.146 0 0 1 .047-.067.21.21 0 0 0-.085-.114c-.074-.043-.149.004-.168.103-.02.1.024.215.097.257.073.043.148-.004.168-.103a.272.272 0 0 0-.002-.108c-.022.017-.042.06-.054.119zm-.075.008c-.002-.002-.004-.002-.006 0-.002 0-.004.003-.004.006a.017.017 0 0 0 .002.013.012.012 0 0 0 .004.004h.004a.007.007 0 0 0 .004-.002.011.011 0 0 0 .002-.005V7.24a.017.017 0 0 0-.002-.006.011.011 0 0 0-.004-.004zm-.01-.01l.003.002-.001.006a.008.008 0 0 1 .004-.003l.005.001a.016.016 0 0 1 .007.01.022.022 0 0 1 .001.011c0 .005-.003.008-.005.01h-.009a.013.013 0 0 1-.004-.005.023.023 0 0 1-.003-.006l-.003.015L3.7 7.26l.008-.04zm.03.02l-.002-.002.002-.012.003.002-.003.011zm.017.012l-.002.001c0-.002-.002-.004-.003-.005h-.003l-.001.002v.003a.02.02 0 0 0 .003.005.023.023 0 0 1 .003.006v.005c0 .003-.001.004-.003.005h-.005a.01.01 0 0 1-.003-.003.015.015 0 0 1-.002-.005l.002-.001c0 .003.002.005.004.006h.003l.001-.003v-.003a.022.022 0 0 0-.003-.005.02.02 0 0 1-.003-.006v-.005c0-.002.002-.004.003-.005h.004c.002.002.004.004.005.008zm-.059-.025a.02.02 0 0 0 0-.006.015.015 0 0 0-.003-.004.011.011 0 0 0-.003-.004h-.006l-.003.004.015.01zm-.001.007l.002.003a.01.01 0 0 1-.004.003l-.004.001-.004-.001a.016.016 0 0 1-.007-.01.024.024 0 0 1-.001-.011c0-.004.002-.007.004-.009.003-.002.006-.002.01 0a.017.017 0 0 1 .007.01.024.024 0 0 1 0 .011l-.018-.01v.009a.012.012 0 0 0 .005.006l.004.001h.003l.003-.003zm-.053-.051l.003.001v.005a.008.008 0 0 1 .003-.002h.004a.01.01 0 0 1 .003.003l.002.004v.004a.008.008 0 0 1 .005-.003h.005a.01.01 0 0 1 .003.005l.002.005v.009l-.004.015-.003-.001.003-.016.001-.007-.001-.003a.007.007 0 0 0-.003-.003h-.003a.006.006 0 0 0-.004.002.03.03 0 0 0-.002.009l-.002.01H3.65l.003-.015a.035.035 0 0 0 0-.007.01.01 0 0 0 0-.004.007.007 0 0 0-.003-.003h-.004a.006.006 0 0 0-.003.002.025.025 0 0 0-.002.008l-.002.012-.003-.002.005-.028zm.233-.101c-.002.01-.009.014-.016.01-.007-.004-.01-.015-.009-.025.002-.01.009-.014.016-.01.007.004.011.015.01.025" fill="#ee2e6b"/><path d="M4.333 2.97l.633.374.422 3.955-2.336-1.354z" fill="#fff" fill-opacity=".626" fill-rule="evenodd"/></svg>