<svg xmlns="http://www.w3.org/2000/svg" width="1797.72" height="983.633" viewBox="0 0 1685.3628 922.15582"><defs><clipPath id="a"><path d="M27.81 0s-5.76-2.623-9.403-5.296c-2.833-2.078-6.011-5.547-6.011-5.547-.268 1.33 2.381 4.32 3.335 5.507C9.082-9.9 8.94-15.03 8.94-15.03c-3.238-1.29-5.779-4.882-7.67-9.276 0 0 3.32 4.182 5.135 4.907C3.921-23.92 0-31.971.75-39.595c.666 6.684 2.478 12.926 6.547 18.835-.83-18.878 2.759-30.215 9.22-39.069-7.473 13.364-8.024 28.186-5.53 41.922.115-.067 6.843-4.062 11.672-6.709 4.159-2.28 13.073-7.3 13.073-7.3L13.376-15.05s4.597 2.955 11.847 5.518c6.632 2.344 14.032 3.17 17.342 3.405 3.05.217 9.636.309 9.636.309s-3.319.281-4.475.347c-1.155.065-7.661.437-12.731-.086-7.443-.737-14.602-2.376-21.363-5.865 2.003 2.79 4.668 5.128 6.908 6.89C22.983-2.61 27.81 0 27.81 0z" clip-rule="evenodd"/></clipPath><clipPath id="b"><path d="M0-59.829h52.201V0H0v-59.829z"/></clipPath><linearGradient x1="7.896" y1="-15.166" x2="40.839" y2="-36.346" gradientUnits="userSpaceOnUse" id="c"><stop offset="0" stop-color="#f30"/><stop offset="1" stop-color="#ff0"/></linearGradient></defs><path d="M1323.928 266.868c-4.391.124-10.533 2.556-18.236 7.91-12.974 9.016-28.401 25.352-28.401 25.352s15.17-2.192 34.998-11.208c19.828-9.016 21.308-14.63 18.125-19.26-1.292-1.88-3.48-2.878-6.486-2.794zm-118.125.364s-7.828 1.09-15.049 1.578c-7.222.488-12.974.13-13.464.253-.489.122-1.35.475-.983.963.368.487 1.47 3.663 1.348 5.857-.122 2.193-5.628 19.739-9.055 28.999-3.427 9.26-11.38 28.143-14.684 34.967-3.305 6.823-14.926 31.92-20.679 44.47-5.752 12.55-12.488 23.397-14.447 33.388-1.958 9.99-2.689 17.551 1.84 20.476 4.529 2.923 15.049 8.527 20.679 5.603 5.63-2.923 10.137-5.633 10.137-5.633 3.102-1.952 6.316-2.137 6.316-2.137 1.748-.335.826-3.274-.659-2.838-1.224.365-5.755 1.095-8.325-.49-2.57-1.584-6.375-2.804-6.375-13.891 0-11.088 2.699-16.438 5.392-23.017 2.692-6.579 28.4-61.412 35.743-76.643 7.344-15.23 16.763-34.722 18.966-40.57 2.203-5.85 4.04-8.656 3.917-9.63a4.306 4.306 0 0 0-.618-1.705zm343.64 46.711c-8.11-.015-18.428 1.17-31.523 4.215-52.386 12.184-77.85 53.85-77.85 81.142 0 27.293 28.408 45.086 52.398 45.086 23.987 0 36.224-5.6 39.406-6.82 3.183-1.217 13.702-5.367 13.702-5.367l12.24-24.121c-9.139 7.114-23.314 26.428-52.14 28.51-23.497.269-36.652-8.452-39.66-21.927-3.428-15.353 3.68-36.31 3.68-36.31s5.445-1.524 14.747-2.194c9.302-.67 21.476.491 47.667-6.82 52.386-14.62 47.501-35.099 46.766-40.46-.55-4.02-5.094-14.888-29.432-14.934zm-268.664.443c-.411.007-.83.027-1.253.047-14.931.675-41.372 4.307-60.989 3.236-1.714-.244-1.459.253-1.459.253s-8.567 18.029-9.547 20.222c-.978 2.193.828 1.807.828 1.807 23.255-15.84 28.536-15.87 51.789-16.678 21.052-.73 23.024 14.386 22.534 23.159-.275 4.928-1.967 11.106-3.17 14.997-9.178-.246-28.354.382-51.667 7.656-32.801 10.235-56.803 22.418-60.72 49.712-3.916 27.292 27.667 29 47.495 23.395 14.884-4.208 33.77-17.603 42.261-24.027-.239 10.527 2.604 18.26 6.946 22.812 4.65 4.873 11.021 2.43 11.021 2.43l19.57-12.423s1.725-3.891-.968-1.942-6.128-.492-9.8-3.173c-3.673-2.68-1.47-9.51 3.917-26.08 5.384-16.57 12.172-30.503 18.6-47.264 6.33-16.498.515-38.644-25.388-38.14zm118.046.33c-11.895.022-24.867 1.735-35.363 6.852-31.093 15.161-22.279 34.857-16.16 42.655 6.12 7.798 24.102 13.858 38.917 19.733 30.11 11.94 24.583 34.045-.983 47.028-24.625 12.503-54.337 1.22-61.926-7.31-6.567-7.381-8.325-19.243-8.325-19.243l-1.22.237-11.26 31.92s6.85-1.465 14.684-.49c7.303.909 17.865 6.551 39.406 6.551 21.544 0 36.48-1.43 51.412-11.176 14.934-9.747 23.248-22.171 23.248-35.33 0-13.158-5.384-21.2-20.805-26.805-15.422-5.605-34.545-10.694-41.12-18.044-6.942-7.759-3.995-26.567 22.69-29.484 26.744-2.925 32.258 4.643 38.506 8.299 7.078 4.14 6.612 14.618 6.612 14.618l1.714-.49 7.595-24.374c-2.447.975-9.912 1.736-14.7-.489-4.13-1.92-17.627-4.685-32.922-4.657zm282.366 2.322c-27.675.033-44.802 19.94-46.366 21.456-1.562 1.515-4.434 4.875-9.295 9.643-3.206 3.144-3.263-2.643-3.263-2.643s3.12-10.026 3.12-15.875c0-5.848-5.883-6.093-5.883-6.093h-23.183c-1.651 0-2.61 2.196-.462 3.157 6.761 3.022 7.023 5.841 7.275 11.374.423 9.303-2.231 14.705-2.231 14.705l-39.168 88.215h23.501s19.582-48.003 23.01-56.532c3.427-8.529 5.624-14.384 18.11-30.467 12.485-16.084 20.572-19.73 31.59-20.949 11.015-1.219 17.38 3.9 17.38 3.9l10.037-19.75a56.606 56.606 0 0 0-4.172-.141zm-141.294 4.215c5.122.036 9.707 1.368 13.273 4.467 13.465 11.697-5.876 30.463-27.417 38.992-21.541 8.53-52.378 4.862-52.378 4.862s7.988-19.868 26.926-32.898c11.444-7.874 26.386-15.095 38.567-15.408.346-.008.688-.018 1.029-.015zm-274.358 48.637c2.44.01 4.74.153 6.852.427 2.546 17.24-27.13 54.89-49.208 61.882-24.968 7.31-34.76-7.067-29.13-25.101 11.074-25.018 47.915-37.294 71.486-37.208z" fill="#ee1d27" fill-opacity=".86" fill-rule="evenodd"/><path d="M1045.115 477.522c-1.555.023-3.345.104-5.423.22-14.785.834-33.461 15.32-37.014 34.004-3.316 17.448 9.335 28.92 28.53 28.084 11.396.211 19.258-6.296 26.149-10.45 2.304-2.023.272-4.847-2.173-3.3-13.075 9.662-19.604 9.559-23.85 9.788-12.508.676-22.418-7.843-18.489-25.574 2.995-13.523 14.337-24.904 23.802-27.5 9.462-2.595 17.516-1.96 22.598 5.036 1.364 2.305 1.729 4.49 1.68 5.778-.047 1.288 1.97 2.815 3.616 1.405 1.645-1.41.622-3.222 1.045-5.352.427-2.129 1.534-3.161 1.395-4.404-.142-1.366-1.112-2.1-2.282-2.463-8.574-3.52-9.96-5.21-18.11-5.272a57.16 57.16 0 0 0-1.474 0zm-449.7.031c-13.622.205-23.683 7.387-23.85 17.286.183 6.53 6.944 11.17 10.625 13.829 3.68 2.659 11.452 7.458 11.576 13.56.183 9.029-12.693 14.858-19.046 14.335-6.352-.523-8.671-3.604-9.324-5.968-.705-2.062-.273-4.156 0-5.099.234-.387.371-.85.349-1.342-.065-1.265-1.093-2.239-2.3-2.178-1.06.053-1.904.882-2.061 1.942v.015c-.04.099-.065.196-.08.284-.118.71-.424 3.132-.602 4.136-.178 1.005-1 2.592-1.95 4.01-.006.007-.013.01-.016.016a1.625 1.625 0 0 0-.19.394 2.345 2.345 0 0 0-.16.948 2.358 2.358 0 0 0 1.666 2.131c2.137.65 6.179 5.968 18.348 4.61 16.002-1.788 23.263-13.595 23.263-21.217 0-7.623-5.648-11.577-11.227-16.481-5.58-4.905-11.612-8.386-10.419-12.724 1.619-5.884 8.33-8.109 12.005-8.446 3.675-.337 9.556.437 10.386 3.852.44 1.669.679 3.184.397 3.947-.214.313-.351.69-.365 1.089-.028 1.024.828 2.085 1.808 2.036.862-.043 1.613-.721 1.808-1.578v-.016c.038-.08.062-.15.08-.221.14-.574.536-2.534.744-3.347.209-.813.98-2.104 1.84-3.252.006-.005.013-.01.016-.015.071-.099.13-.204.174-.316.11-.238.182-.488.19-.758a1.737 1.737 0 0 0-1.205-1.736c-3.9-1.112-5.624-3.878-12.48-3.726zm848.89 1.279c-1.98.006-5.318.478-6.024.742-.548.273-5.505.22-6.74-.19-.927-.307-1.688-.422-3.155-.442a8.697 8.697 0 0 0-1.41.08c-1.782.272-1.336 2.868-.651 3.14.996.506 1.011-.29 3.614 1.074 2.603 1.365.625 4.344.477 6.11 0 0-9.409 33.741-10.47 37.697-1.06 3.956-1.862 5.977-3.68 7.34-2.404.901-5.8 1.158-6.119 2.48-.471 1.945.067 3.272 2.425 2.683 3.015-1.196 9.317-1.792 13.053-.963 4.267.946 5.82.99 5.852-1.184.055-2.243-4.045-2.044-4.867-3-1.148-1.546-.239-4.561-.239-4.561.7-2.42 12.006-43.358 12.417-44.313 2.42-3.78 5.187-3.047 6.263-3.315.85-.213 1.466-2.699.635-3.205-.21-.126-.722-.175-1.382-.173zm38.648 0c-1.981.006-5.32.478-6.03.742-.548.273-5.5.22-6.74-.19-.922-.307-1.688-.422-3.155-.442a8.705 8.705 0 0 0-1.41.08c-1.78.272-1.336 2.868-.651 3.14.996.506 1.011-.29 3.619 1.074 2.603 1.365.624 4.344.473 6.11l-2.615 9.392c-.663.525-1.73.49-1.73.49h-24.387c-1.38 0-3.24.539-3.24 2.21 0 1.67 1.621 1.72 1.621 1.72s22.602-.236 24.28-.236c1.068 0 1.609.926 1.854 1.594-2.721 9.776-5.65 20.3-6.25 22.527-1.057 3.956-1.859 5.977-3.676 7.34-2.407.901-5.8 1.158-6.12 2.48-.471 1.945.06 3.272 2.425 2.683 3.014-1.196 9.312-1.792 13.053-.963 4.261.946 5.818.99 5.85-1.184.055-2.243-4.045-2.044-4.872-3-1.14-1.546-.233-4.561-.233-4.561.701-2.42 12.002-43.358 12.412-44.313 2.42-3.78 5.193-3.047 6.267-3.315.853-.213 1.465-2.699.634-3.205-.207-.126-.719-.175-1.379-.173zm-700.144.19a8.68 8.68 0 0 0-1.41.078c-1.784.273-1.1 2.869-.414 3.142.685.273 2.057.135 4.663 1.5 2.603 1.364.951 5.872.951 5.872s-9.187 33.16-11.244 38.755c-.992 2.7-2.744 4.471-4.297 5.589-.048.03-.095.064-.142.094-2.704 1.655-7.146 2.333-8.976 2.431-6.162.334-9.635-4.933-8.389-10.387 1.519-6.651 6.633-11.442 11.1-12.803 3.685-1.122 6.88-.935 8.817 1.01.007.01.01.023.017.032a1.8 1.8 0 0 0 1.537.726 1.821 1.821 0 0 0 1.746-1.894v-.016a1.818 1.818 0 0 0-.968-1.5c-2.833-2.17-5.225-2.355-8.388-2.415-.274-.005-.55 0-.84 0-.292 0-.6.005-.905.016-9.455.411-18.303 7.732-19.774 16.354-1.473 8.623 4.99 15.267 14.445 14.856 5.815 0 8.881-1.99 11.308-3.615 1.224.84 2.241 3.174 2.901 3.393.823.273 3.149-1.915 4.52-2.052 1.37-.136 3.832.959 5.614 1.231 1.782.273 2.467-2.595 1.92-3.14-.551-.547-3.143-.403-3.967-1.359-.823-.955-.825-5.193-.825-5.193s12.609-45.441 13.021-46.396c.41-.956 1.778-2.313 1.094-3.268-.685-.956-3.02-.952-3.57-.68-.545.274-4.378.679-5.61.27-.928-.308-2.47-.613-3.934-.632zm89.28 0c-.49-.007-.966.01-1.412.078-1.78.273-1.097 2.869-.413 3.142.687.273 2.06.135 4.662 1.5 2.605 1.364.967 5.872.967 5.872s-9.186 33.16-11.242 38.755c-.994 2.704-2.757 4.472-4.312 5.589-.048.029-.082.066-.128.094-2.704 1.655-7.163 2.333-8.992 2.431-6.162.334-9.635-4.933-8.389-10.387 1.518-6.651 6.633-11.442 11.1-12.803 3.685-1.122 6.88-.935 8.817 1.01.006.01.008.023.015.032.353.467.91.756 1.54.726a1.818 1.818 0 0 0 1.743-1.894v-.016a1.818 1.818 0 0 0-.967-1.5c-2.832-2.17-5.224-2.355-8.388-2.415-.275-.005-.551 0-.84 0a25.4 25.4 0 0 0-.905.016c-9.456.411-18.304 7.732-19.774 16.354-1.473 8.623 4.99 15.267 14.446 14.856 5.807 0 8.882-1.99 11.307-3.615 1.223.84 2.242 3.174 2.902 3.393.822.273 3.149-1.915 4.518-2.052 1.371-.136 3.85.959 5.63 1.231 1.782.273 2.467-2.595 1.919-3.14-.548-.547-3.158-.403-3.98-1.359-.822-.955-.824-5.193-.824-5.193s12.608-45.441 13.018-46.396c.412-.956 1.781-2.313 1.094-3.268-.684-.956-3.001-.952-3.552-.68-.548.274-4.395.679-5.63.27-.924-.308-2.466-.613-3.93-.632zm61.72 0a8.696 8.696 0 0 0-1.412.078c-1.782.273-1.098 2.869-.414 3.142.686.273 2.059.135 4.664 1.5 2.603 1.364.967 5.872.967 5.872s-9.188 33.16-11.243 38.755c-1.002 2.724-2.781 4.505-4.345 5.62-.034.02-.063.043-.096.063-2.702 1.655-7.145 2.333-8.976 2.431-6.162.334-9.634-4.933-8.388-10.387 1.518-6.651 6.631-11.442 11.1-12.803 3.684-1.122 6.882-.935 8.818 1.01.007.01-.006.023 0 .032a1.8 1.8 0 0 0 1.538.726 1.82 1.82 0 0 0 1.745-1.894v-.016a1.817 1.817 0 0 0-.969-1.5c-2.833-2.17-5.224-2.355-8.389-2.415-.267-.005-.54 0-.824 0h-.015c-.287 0-.586.006-.887.016-9.455.411-18.303 7.732-19.776 16.354-1.47 8.623 4.992 15.268 14.447 14.856 5.808 0 8.865-1.99 11.29-3.615 1.226.84 2.242 3.174 2.902 3.393.822.273 3.149-1.915 4.52-2.052 1.372-.136 3.848.959 5.631 1.231 1.78.273 2.467-2.595 1.918-3.14-.548-.547-3.157-.403-3.98-1.359-.822-.955-.826-5.193-.826-5.193s12.609-45.441 13.021-46.396c.41-.956 1.794-2.313 1.11-3.268-.687-.956-3.02-.952-3.569-.68-.547.274-4.397.679-5.629.27-.927-.307-2.469-.613-3.932-.632zm388.631 0a8.674 8.674 0 0 0-1.41.078c-1.787.273-1.103 2.869-.417 3.142.684.273 2.06.135 4.662 1.5 2.605 1.364.97 5.872.97 5.872s-9.19 33.16-11.246 38.755c-.998 2.725-2.779 4.505-4.343 5.62-.029.02-.06.043-.095.063-2.706 1.655-7.145 2.333-8.977 2.431-6.161.334-9.632-4.933-8.388-10.387 1.518-6.651 6.632-11.442 11.102-12.803 3.684-1.122 6.882-.935 8.814 1.01.011.01-.005.023 0 .032.35.467.91.756 1.537.726 1.01-.048 1.797-.891 1.748-1.894v-.016a1.826 1.826 0 0 0-.965-1.5c-2.837-2.17-5.226-2.355-8.392-2.415-.266-.005-.54 0-.823 0h-.015c-.29 0-.589.006-.89.016-9.453.411-18.302 7.732-19.773 16.354-1.474 8.623 4.992 15.268 14.445 14.856 5.805 0 8.867-1.99 11.292-3.615 1.223.84 2.242 3.174 2.902 3.393.822.273 3.146-1.915 4.516-2.052 1.371-.136 3.847.959 5.634 1.231 1.78.273 2.465-2.595 1.917-3.14-.548-.547-3.16-.403-3.983-1.359-.822-.955-.822-5.193-.822-5.193s12.605-45.441 13.021-46.396c.41-.956 1.792-2.313 1.105-3.268-.684-.956-3.017-.952-3.565-.68-.549.274-4.395.679-5.63.27-.926-.308-2.464-.613-3.93-.632zm74.528.204c-.358.02-.653.081-.806.158-.548.273-2.837.782-4.395.695-.923-.307-2.563-.817-4.022-.837a8.78 8.78 0 0 0-1.418.079c-1.78.273-1.096 2.869-.41 3.142.685.273.918-.086 3.522 1.278 2.602 1.365.893 3.997.746 5.762 0 0-9.369 33.145-11.023 38.866-1.653 5.722-1.871 6.57-3.394 6.757-1.923.147-5.466.44-6.059 2.352-.588 1.912 0 3.24 2.365 2.652 3.015-1.196 8.853-1.807 12.588-.979 4.268.947 5.714.627 5.74-1.547.487-2.458-4.044-1.728-4.866-2.684-.822-.955.066-5.193.066-5.193s12.605-45.22 13.015-46.175c.412-.955 1.798-2.534 1.112-3.489-.426-.597-1.503-.82-2.38-.837-.131 0-.259-.006-.381 0zm171.953 0c-.362.02-.656.081-.812.158-.548.273-2.832.782-4.39.695-.93-.307-2.582-.817-4.045-.837a8.58 8.58 0 0 0-1.41.079c-1.788.273-1.102 2.869-.417 3.142.686.273.934-.086 3.537 1.278 2.604 1.365.893 3.997.746 5.762 0 0-9.366 33.145-11.022 38.866-1.649 5.722-1.872 6.57-3.394 6.757-1.92.147-5.467.44-6.055 2.352-.593 1.912 0 3.24 2.36 2.652 3.015-1.196 8.84-1.807 12.576-.979 4.266.947 5.729.627 5.758-1.547.487-2.458-4.045-1.728-4.865-2.684-.83-.955.06-5.193.06-5.193s12.61-45.22 13.021-46.175c.41-.955 1.792-2.534 1.105-3.489-.425-.597-1.495-.82-2.373-.837-.133 0-.265-.006-.38 0zm-339.285 7.404c-1.716.021-3.724 1.457-5.948 3.063-2.734 1.976-7.672 7.533-8.194 8.13-.528.596-.645 1.197-.162 1.831.79.783 1.887-.158 1.887-.158s2.536-2.334 4.521-3.978c2.25-1.865 4.502-3.331 6.076-3.741 1.57-.41 2.729.04 4.26-1.153 1.538-1.193.651-2.9-1.299-3.757a2.716 2.716 0 0 0-1.14-.237zm-529.843 8.872c-1.95-.022-5.436 3.71-5.52 5.51-.083 1.799 2.172 4.079 4.361 4.136 2.19.056 6.227-3.463 6.106-5.4-.111-1.77-3-4.224-4.947-4.246zm379.718 0c-1.948-.022-5.433 3.71-5.521 5.51-.082 1.799 2.17 4.079 4.363 4.136 2.189.056 6.228-3.463 6.105-5.4-.112-1.77-2.997-4.224-4.947-4.246zm460.911 0c-1.95-.022-5.435 3.71-5.517 5.51-.085 1.799 2.167 4.079 4.36 4.136 2.187.056 6.227-3.463 6.105-5.4-.113-1.77-3-4.224-4.948-4.246zm-342.152 4.768a11.49 11.49 0 0 0-1.932.11c-2.639.342-5.61.75-9.202 4.01-1.745 1.586-3.003 2.87-3.93 3.946-8.558.597-16.37 5.413-17.713 11.067-.72 3.038.58 5.723 3.233 7.561-7.739 2.838-13.822 8.31-15.158 14.445-1.897 8.69 6.45 15.396 18.615 14.981 12.168-.415 23.544-7.791 25.438-16.48l.03-.096c1.188-5.666-1.98-10.478-7.706-13.008 4.093-2.061 7.113-5.093 7.9-8.414l.03-.063c1.178-5.173-3.491-9.296-10.754-9.977.352-.353.73-.7 1.158-1.026 2.394-1.818 4.972-2.13 5.917-2.005.942.126 3.339 1.317 4.598 0 1.258-1.317 3.215-2.439 2.583-3.567-.473-.847-1.431-1.414-3.107-1.484zm-84.79 7.593c-1.217.059-2.492.434-3.112.915-1.403 1.102-5.134 5.306-7.244 8.21-.981 1.343-1.944 1.952-2.71 2.225.617-1.713 1.359-3.37 2.074-4.846.843-1.74-.73-2.816-1.695-3.236-.963-.42-3.005.536-4.328.536-1.33 0-3.029-.3-4.237-.6a1.245 1.245 0 0 0-.441-.031c-1.045.111-2.014 1.428-2.335 2.32-.361 1.02 2.968 1.874 3.933 1.91 1.569.06 1.141 2.353 1.141 2.353s-4.688 15.514-4.932 16.354c-.238.84-2.36 1.806-3.866 1.926-1.51.12-3.066.18-2.523 2.1.432 2.21 2.543 1.7 5.948 1.058 2.249-.426 8.317-.442 10.193.11 1.509.36 1.812-2.216 1.27-2.936-.544-.72-2.054-.3-3.137-.6-1.086-.3-1.38-1.72-1.014-2.62.167-.429.867-2.938 1.597-5.636 3.437-5.462 10.582-10.857 12.405-12.488 2.008-1.801 5.727-2.917 5.932-5.32.11-1.35-1.355-1.78-2.92-1.704zm-295.5.158c-4.721 0-10.68 1.559-11.068 1.752-.388.193-2.906.7-3.487 2.826-.584 2.125.836 2.255 1.807 2.383.97.13 2.988-1.35 3.441-1.673.452-.322 4.268-2.189 8.992-1.673 4.722.515 4.064 4.695 3.742 6.756-.324 2.061-3.093 8.442-4.71 12.693-1.145 3.006-5.334 4.64-7.707 5.351-.963.023-1.85 0-2.49.032-5.42.248-8.675-3.3-7.58-7.373 1.335-4.967 5-7.903 8.928-8.92 3.241-.837 5.273-.252 6.978 1.2.435.354.904.58 1.363.569.888-.036 1.908-.345 2.125-1.673-1.837-3.433-7.023-3.158-9.579-3.11-8.317.307-16.1 5.779-17.395 12.218-1.295 6.44 4.4 11.39 12.717 11.083 5.745 0 8.451-1.869 10.722-3.126 1.199.156 1.609 1.955 3.013 2.178.582.064 2.393-1.211 4.074-1.404 1.682-.194 3.233 1.023 4.98 1.152 1.747.128 2.209-1.67 2.012-2.7-.193-1.03-2.534-1.295-4.216-2.068-1.683-.773-1.094-3.663-1.094-3.663l3.695-11.397s1.16-2.128.967-4.704c-.314-4.177-5.506-6.71-10.23-6.71zm435.617 0c-4.725 0-10.665 1.559-11.051 1.752-.385.193-2.908.7-3.485 2.826-.584 2.125.835 2.255 1.804 2.383.97.13 2.976-1.35 3.426-1.673.452-.322 4.267-2.189 8.993-1.673 4.72.515 4.079 4.695 3.754 6.756-.324 2.061-3.105 8.442-4.724 12.693-1.146 3.008-5.337 4.642-7.71 5.351-.961.023-1.844 0-2.484.032-5.427.248-8.677-3.3-7.581-7.373 1.335-4.967 4.998-7.903 8.925-8.92 3.242-.837 5.273-.252 6.977 1.2.437.354.91.58 1.366.569.888-.036 1.909-.345 2.126-1.673-1.838-3.433-7.023-3.158-9.58-3.11-8.318.307-16.103 5.779-17.395 12.218-1.296 6.44 4.398 11.39 12.715 11.083 5.75 0 8.455-1.869 10.724-3.126 1.196.156 1.607 1.955 3.012 2.178.58.064 2.392-1.211 4.076-1.404 1.679-.194 3.232 1.023 4.979 1.152 1.745.128 2.207-1.67 2.015-2.7-.194-1.03-2.523-1.295-4.203-2.068-1.684-.773-1.112-3.663-1.112-3.663l3.695-11.397s1.163-2.128.969-4.704c-.314-4.177-5.507-6.71-10.231-6.71zm343.071 0c-4.72 0-10.661 1.559-11.052 1.752-.387.193-2.923.7-3.502 2.826-.584 2.125.838 2.255 1.806 2.383.97.13 2.988-1.35 3.441-1.673.452-.322 4.268-2.189 8.993-1.673 4.724.515 4.064 4.695 3.739 6.756-.32 2.061-3.091 8.442-4.71 12.693-1.14 3.006-5.332 4.64-7.704 5.351-.968.023-1.851 0-2.49.032-5.42.248-8.678-3.3-7.583-7.373 1.336-4.967 5-7.903 8.929-8.92 3.242-.837 5.277-.252 6.982 1.2.432.354.901.58 1.36.569.888-.036 1.907-.345 2.125-1.673-1.837-3.433-7.022-3.158-9.576-3.11-8.321.307-16.101 5.779-17.4 12.218-1.293 6.44 4.405 11.39 12.722 11.083 5.745 0 8.449-1.869 10.717-3.126 1.198.156 1.609 1.955 3.016 2.178.583.064 2.395-1.211 4.073-1.404 1.684-.194 3.233 1.023 4.979 1.152 1.744.128 2.208-1.67 2.014-2.7-.191-1.03-2.535-1.295-4.216-2.068-1.686-.773-1.097-3.663-1.097-3.663l3.695-11.397s1.161-2.128.97-4.704c-.314-4.177-5.507-6.71-10.231-6.71zm-970.266.237c-.32 0-.641.018-.968.031-10.501.423-20.344 7.933-21.979 16.781-1.635 8.849 5.563 15.672 16.064 15.25 10.502-.423 20.329-7.933 21.963-16.781l.032-.095c1.514-8.532-5.187-15.163-15.113-15.186zm103.029.11c-6.22-.053-11.145 2.048-15.7 5.194-5.607 3.871-8.293 9.46-8.293 13.181 0 3.722 1.102 9.119 6.881 11.793 7.382 3.263 13.425 1.182 16.652.252 2.813-.811 5.844-2.625 6.739-3.173a1.67 1.67 0 0 0 .951-1.594v-.016c-.05-.922-1.118-1.165-2.045-1.121-3.773 2.46-7.852 3.76-12.02 3.805-4.19 0-10.117-2.81-10.117-10.072 0-6.753 7.86-14.924 16.856-14.807 8.64.11 8.604 7.216 8.453 8.477-.15 1.26-1.56 1.543-1.682 1.752-.121.21-16.76 0-16.76 0v.031a1.619 1.619 0 0 0-.413-.03c-.932.043-1.663.824-1.618 1.751a1.69 1.69 0 0 0 1.776 1.595c.023 0 .041-.014.063-.016h.048l21.535.048s3.585.181 3.585-5.73c0-5.193-3.418-9.807-10.356-10.925a30.078 30.078 0 0 0-4.535-.395zm237.854 0c-6.223-.053-11.145 2.048-15.7 5.194-5.607 3.871-8.294 9.46-8.294 13.181 0 3.722 1.103 9.119 6.881 11.793 7.383 3.263 13.409 1.182 16.636.252 2.814-.811 5.861-2.625 6.757-3.173.593-.283.982-.899.951-1.594v-.016c-.05-.922-1.119-1.165-2.048-1.121-3.77 2.46-7.851 3.76-12.018 3.805-4.192 0-10.117-2.81-10.117-10.072 0-6.753 7.859-14.924 16.856-14.807 8.64.11 8.602 7.216 8.453 8.477-.15 1.26-1.56 1.543-1.683 1.752-.12.21-16.76 0-16.76 0v.031a1.625 1.625 0 0 0-.413-.03c-.931.043-1.662.824-1.618 1.751a1.69 1.69 0 0 0 1.777 1.595c.021 0 .038-.014.064-.016h.047l21.534.048s3.586.181 3.586-5.73c0-5.193-3.419-9.807-10.357-10.925a30.075 30.075 0 0 0-4.534-.395zm389.356 0c-6.216-.053-11.142 2.048-15.695 5.194-5.607 3.871-8.297 9.46-8.297 13.181 0 3.722 1.1 9.119 6.886 11.793 7.379 3.263 13.422 1.182 16.65.252 2.812-.811 5.84-2.625 6.739-3.173.595-.283.984-.899.949-1.594v-.016c-.051-.922-1.117-1.165-2.047-1.121-3.768 2.46-7.848 3.76-12.02 3.805-4.187 0-10.112-2.81-10.112-10.072 0-6.753 7.859-14.924 16.856-14.807 8.638.11 8.602 7.216 8.45 8.477-.147 1.26-1.557 1.543-1.68 1.752-.123.21-16.76 0-16.76 0v.031a1.638 1.638 0 0 0-.413-.03c-.934.043-1.664.824-1.618 1.751a1.69 1.69 0 0 0 1.777 1.595c.02 0 .038-.014.06-.016h.05l21.537.048s3.584.181 3.584-5.73c0-5.193-3.421-9.807-10.359-10.925a30.055 30.055 0 0 0-4.537-.395zm-689.485.047c-.32.006-.643.006-.983.016-10.501.423-20.328 7.933-21.963 16.781-1.635 8.848 5.547 15.672 16.048 15.25 8.058 0 11.403-3.09 14.494-4.752.725-.307 1.178-.936 1.143-1.69v-.015c-.047-.857-.678-1.43-1.539-1.39a2.025 2.025 0 0 0-1.253.522c-2.715 2.24-8.762 3.121-11.069 3.236-6.844.342-11.881-5.532-10.498-11.13 1.687-6.824 7.36-11.737 12.322-13.134 4.962-1.396 10.534-.215 11.813 2.92.562 1.308 1.103 2.467.953 3.064-.146.245-.21.54-.175.852.093.802.826 1.412 1.65 1.373.722-.033 1.28-.56 1.348-1.23v-.017c.023-.062.026-.117.031-.173.054-.45.17-1.984.253-2.62.083-.637.594-1.644 1.19-2.543.004-.004 0-.01 0-.015a.796.796 0 0 0 .11-.237 1.35 1.35 0 0 0 .08-.6c-.073-.644-.579-1.175-1.222-1.357-5.147-2.237-7.923-3.162-12.733-3.11zm21.916 1.216c-1.044.112-2.015 1.428-2.331 2.32-.362 1.021 2.967 1.874 3.932 1.91 1.569.06 1.142 2.353 1.142 2.353s-5.182 16.92-5.423 17.76c-.24.84-1.87 1.206-3.378 1.326-1.506.12-3.556.779-3.012 2.699.328 1.21 2.54 1.701 5.946 1.058 2.252-.426 8.205-.837 10.085-.284 1.508.36 1.812-2.216 1.27-2.937-.544-.72-2.056-.3-3.14-.6-1.085-.3-1.266-1.325-.904-2.226.36-.9 3.444-12.245 4.107-14.286.662-2.04 1.566-4.022 2.41-5.762.844-1.74-.733-2.816-1.697-3.236-.965-.42-3.003.536-4.329.536-1.327 0-3.028-.3-4.234-.6a1.251 1.251 0 0 0-.444-.03zm379.717 0c-1.04.112-2.015 1.428-2.33 2.32-.36 1.021 2.97 1.874 3.932 1.91 1.569.06 1.143 2.353 1.143 2.353s-5.18 16.92-5.425 17.76c-.24.84-1.868 1.206-3.377 1.326-1.506.12-3.555.779-3.014 2.699.331 1.21 2.544 1.701 5.949 1.058 2.248-.426 8.205-.837 10.084-.284 1.507.36 1.812-2.216 1.267-2.937-.54-.72-2.054-.3-3.135-.6-1.085-.3-1.268-1.325-.91-2.226.367-.9 3.449-12.245 4.112-14.286.66-2.04 1.563-4.022 2.41-5.762.842-1.74-.736-2.816-1.699-3.236-.964-.42-3 .536-4.33.536-1.323 0-3.024-.3-4.232-.6a1.253 1.253 0 0 0-.445-.03zm142.438 0c-1.045.112-2.015 1.428-2.332 2.32-.363 1.021 2.964 1.874 3.934 1.91 1.569.06 1.143 2.353 1.143 2.353s-5.18 16.92-5.427 17.76c-.243.84-1.872 1.206-3.378 1.326-1.506.12-3.552.779-3.009 2.699.324 1.21 2.541 1.701 5.947 1.058 2.248-.426 8.2-.837 10.083-.284 1.507.36 1.812-2.216 1.268-2.937-.543-.72-2.054-.3-3.14-.6-1.087-.3-1.263-1.325-.905-2.226.362-.9 3.446-12.245 4.112-14.286.66-2.04 1.563-4.022 2.404-5.762.848-1.74-.73-2.816-1.693-3.236-.965-.42-3.007.536-4.33.536-1.324 0-3.029-.3-4.232-.6a1.253 1.253 0 0 0-.445-.03zm318.471 0c-1.04.112-2.01 1.428-2.329 2.32-.36 1.021 2.969 1.874 3.934 1.91 1.566.06 1.14 2.353 1.14 2.353s-5.18 16.92-5.423 17.76c-.24.84-1.868 1.206-3.374 1.326-1.509.12-3.56.779-3.015 2.699.33 1.21 2.542 1.701 5.948 1.058 2.248-.426 8.204-.837 10.082-.284 1.508.36 1.811-2.216 1.27-2.937-.544-.72-2.058-.3-3.138-.6-1.086-.3-1.268-1.325-.903-2.226.362-.9 3.441-12.245 4.106-14.286.665-2.04 1.568-4.022 2.41-5.762.843-1.74-.73-2.816-1.696-3.236-.969-.42-3.003.536-4.331.536-1.326 0-3.025-.3-4.232-.6a1.277 1.277 0 0 0-.449-.03zm-409.276.995c-.071-.005-.148.007-.219.015-1.045.11-1.972.923-2.269 1.8-.339 1.002 2.634 1.842 3.6 1.878 1.568.06 2.094 2.305 2.094 2.305-1.892 6.539-3.475 12.91-4.633 17.697-.608 2.74 1.818 5.359 5.837 5.478 3.723.11 7.429-1.424 9.866-2.258 2.435-.833 4.148-4.178.62-2.51-3.732 1.762-6.711 1.197-8.539.363-2.329-2.354-.398-6.773 1.067-11.65 1.467-4.878 2.334-8.598 3.141-10.309.802-1.71-.787-1.829-1.76-2.241-.975-.413-3.005.3-4.328.3-1.33 0-3.04-.526-4.255-.821-.076-.018-.147-.043-.222-.048zm22.648 0c-.077-.005-.148.008-.223.015-1.04.11-1.97.923-2.27 1.8-.34 1.002 2.635 1.842 3.605 1.878 1.566.06 2.09 2.305 2.09 2.305s-4.806 16.619-5.03 17.444c-1.308 1.257-1.673 3.095-.537 4.483 2.425-.399 7.936-.284 9.753.237 1.516.354 1.766-2.18 1.207-2.889-.557-.707-2.064-.29-3.155-.584-1.092-.295-1.295-1.294-.955-2.178.346-.885 3.172-12.045 3.792-14.05.62-2.005 1.477-3.941 2.284-5.652.807-1.71-.787-1.813-1.763-2.225-.975-.413-2.997.284-4.328.284-1.323 0-3.035-.526-4.248-.821-.075-.018-.151-.043-.222-.048zm339.312 0c-.075-.005-.15.007-.222.015-1.041.11-1.972.923-2.269 1.8-.339 1.002 2.635 1.842 3.6 1.878 1.568.06 2.094 2.305 2.094 2.305-1.887 6.539-3.475 12.91-4.633 17.697-.609 2.74 1.819 5.359 5.837 5.478 3.723.11 7.429-1.424 9.866-2.258 2.435-.833 4.148-4.178.62-2.51-3.732 1.762-6.706 1.197-8.532.363-2.336-2.354-.405-6.773 1.06-11.65 1.467-4.878 2.334-8.598 3.141-10.309.802-1.71-.787-1.829-1.76-2.241-.975-.413-3.005.3-4.328.3-1.33 0-3.04-.526-4.255-.821-.076-.018-.147-.043-.219-.048zm22.645 0c-.07-.005-.148.008-.223.015-1.042.11-1.97.923-2.27 1.8-.333 1.002 2.635 1.842 3.605 1.878 1.566.06 2.09 2.305 2.09 2.305s-4.806 16.619-5.025 17.444c-1.313 1.257-1.678 3.095-.542 4.483 2.425-.399 7.936-.284 9.752.237 1.517.354 1.767-2.18 1.208-2.889-.558-.707-2.064-.29-3.155-.584-1.092-.295-1.296-1.293-.955-2.178.346-.884 3.172-12.045 3.792-14.05.62-2.005 1.482-3.941 2.284-5.652.807-1.71-.787-1.813-1.763-2.225-.974-.413-2.997.284-4.328.284-1.323 0-3.035-.526-4.248-.821-.075-.018-.151-.043-.222-.048zm-319.934.378c4.612.2 7.312 3.42 6.104 7.53l-.015.048c-1.32 4.394-6.582 8.125-11.768 8.335-5.18.21-8.312-3.167-6.992-7.562 1.06-3.524 4.652-6.629 8.706-7.83-.521 1.268-.62 2.46.666 3.016 0 0 1.578.13 2.267-1.437.27-.603.59-1.334 1.032-2.1zm-558.184.316c6.436.019 10.269 5.38 8.627 12.282l-.032.079c-1.745 7.157-8.697 13.234-15.54 13.576-6.845.342-10.975-5.172-9.23-12.329 1.744-7.157 8.696-13.25 15.54-13.592.214-.01.427-.017.635-.016zm552.617 17.27c7.357.018 11.757 5.037 9.879 11.509l-.045.079c-1.994 6.712-9.937 12.403-17.761 12.723-7.824.32-12.56-4.843-10.566-11.555 2-6.713 9.958-12.42 17.782-12.74.243-.01.472-.016.711-.015zM289.404 188.079c-2.094-.006-4.21.052-6.36.158-69.03 3.38-139.338 63.518-157.04 134.327-17.702 70.807 23.897 125.47 92.928 122.09 69.03-3.38 139.355-63.534 157.056-134.341l.19-.79c16.665-68.276-21.861-121.26-86.774-121.444zm-3.773 13.813c44.446.165 67.985 47.46 52.9 108.39l-.173.693c-15.93 63.19-67.32 116.865-114.78 119.882-47.46 3.016-73.019-45.77-57.088-108.957 15.93-63.19 67.32-116.85 114.78-119.866a65.11 65.11 0 0 1 4.36-.142z" fill="#137578" fill-rule="evenodd"/><path d="M369.204 325.26s12.502.563 22.303-7.052c10.758-8.358 19.993-23.887 24.979-30.417 4.985-6.53 18.316-19.212 31.172-20.518 12.858-1.306 28.72 1.214 30.556 2.26 1.837 1.044 11.427 1.397 11.427 1.397s-3.319 8.594-7.255 15.124c-3.936 6.53-8.843 14.315-10.417 15.62-1.575 1.307.67-12.733-1.468-16.481-2.138-3.748-5.89-6.022-12.976-5.5-7.083.523-14.589 5.865-21.411 16.052-6.823 10.187-9.971 18.551-9.971 18.551l-1.575 3.651 26.764-.261s-6.298 10.71-8.133 11.493c-1.837.784-23.879.523-23.879.523l-40.408 100.303s-8.134 19.59-17.055 34.48c-8.921 14.888-21.778 34.216-43.032 45.186-21.254 10.97-27.813 9.927-27.813 9.927s20.729-19.328 26.501-28.992c5.773-9.667 24.402-41.272 32.536-62.953 8.134-21.68 41.983-98.212 41.983-98.212h-24.14l1.312-4.18zm395.526-57.902l-55.33 2.873s-.962 2.87.635 3.189h11.848s6.39.312 6.39 8.272-8.643 24.832-8.643 24.832l-47.336 104.758s-1.984 5.067-1.854 10.198c0 .016-.003.032 0 .047-.114 6.976 2.178 22.796 25.278 22.796l36.17-20.301s2.695-3.508 0-3.189c-2.694.318-13.85 11.78-26.15 3.82-3.175-2.055-3.083-7.873-2.156-13.291.004-.016.014-.033.015-.049 1.172-5.137 3.14-11.386 6.438-18.5 9.596-20.697 48.938-109.527 48.938-109.527s6.395-11.789 5.756-15.928zm-233.46 6.646l-28.513 7.277c.553 7.346-3.371 16.965-7.326 22.985l-.112-.19c-3.829 5.19-8.004 10.403-16.365 16.119-8.36 5.716-21.868 5.067-21.868 5.067l-1.316 4.184h23.55c-5.356 11.35-19.832 42.28-29.75 65.797-12.246 29.035-6.91 49.08 19.14 49.08 28.928 0 30.28-9.844 39.185-18.044 4.804-4.423 9.598-6.117 13.004-6.756a51.6 51.6 0 0 0 .444 8.319c2.721 20.591 48.978 25.256 88.329-6.567.582 7.85 4.062 23.048 22.327 23.048l30.066-20.301s2.24-3.508 0-3.19c-2.238.32-11.513 6.365-16.95 2.227-4.724-3.595-2.203-17.967-1.46-21.691 5.058-15.065 15.061-30.54 18.093-36.577 6.078-12.099 10.555-22.915 3.838-36.924-5.842-12.188-19.503-13.188-24.42-13.134a22.784 22.784 0 0 0-1.808.079h-65.89l-18.554 39.15c13.433-15.602 37.434-27.374 53.425-27.374 15.992 0 28.881 2.866 28.465 19.417-.201 8.037-1.683 11.135-2.664 14.003-9.609-.05-27.912 1.062-51.395 8.287-29.772 9.162-56.48 20.036-61.148 44.676-8.583 7.635-19.241 11.982-29.513 11.982-11.132 0-16.999-4.219-17-13.972 0-9.752 5.142-24.394 19.014-50.09 12.46-23.077 12.687-31.698 12.687-31.698h30.939c6.011-3.768 7.136-12.898 7.136-12.898h-31.4l17.81-42.291zm341.898 39.213c-36.138.595-71.648 38.203-71.648 38.203s3.84-14.32 5.44-25.463c1.599-11.144-9.593-9.882-9.593-9.882l-32.637.962s-1.921 3.505 2.236 3.505 11.53 4.769 11.53 14.003c0 9.233-4.172 19.748-4.172 19.748s-28.781 61.45-32.62 69.729c-3.838 8.277-5.755 15.533-5.755 15.533h21.107c7.035 0 9.593-7.577 9.593-7.577s14.717-39.481 35.507-65.908c21.966-27.924 39.34-35.03 54.695-35.03 15.352 0 13.753 14.328 11.193 20.696-2.559 6.368-23.341 49.996-29.098 63.05a605.464 605.464 0 0 0-10.244 24.77h25.91c4.645-5.945 10.809-21.691 33.255-61.71 16.46-29.346 42.218-47.122 62.371-47.122 20.146 0 11.194 22.922 11.194 22.922s-12.148 24.516-23.342 47.122c-1.787 3.608-2.947 6.918-3.648 9.93-3.367 10.092-8.145 33.625 20.664 33.625l30.416-18.075s2.695-3.508 0-3.189c-2.695.318-8.094 9.554-20.395 1.594-6.5-4.206.7-24.2.7-24.2l-.526.094 28.435-60.903c-.004 0 7.37-26.427-24.294-26.427-31.666 0-71.982 35.346-71.982 35.346s14.408-35.983-24.292-35.346zm199.585.821a62.71 62.71 0 0 0-3.247.079c-35.193 1.722-69.572 32.353-76.784 68.418-7.215 36.066 15.458 63.904 50.65 62.182 35.186-1.72 69.565-32.352 76.784-68.418l.08-.394c6.749-34.775-14.305-61.773-47.483-61.867zm1.446 13.529c19.478.075 29.047 21.484 21.472 49.064l-.082.315c-7.978 28.604-31.366 52.893-52.216 54.258-20.852 1.366-31.28-20.714-23.297-49.316 7.98-28.602 31.355-52.892 52.205-54.258.646-.043 1.29-.066 1.919-.063zm-447.846 45.085s-2.867 15.011-14.033 30.563c-11.168 15.553-29.715 33.429-53.743 22.448-13.422-6.133-5.824-30.12 17.555-40.633 23.379-10.515 50.221-12.378 50.221-12.378z" fill="#137578" fill-rule="evenodd"/><path d="M956.456 585.735l7.085 1.143c-1.384 4.091-3.458 7.218-6.223 9.381-2.765 2.163-6.004 3.244-9.716 3.244-4.177 0-7.442-1.343-9.797-4.029-2.353-2.685-3.53-6.577-3.53-11.676 0-4.145.788-7.937 2.366-11.374 1.578-3.437 3.765-6.068 6.56-7.893 2.796-1.825 5.84-2.738 9.134-2.738 3.697 0 6.687 1.057 8.97 3.17 2.282 2.114 3.625 4.993 4.028 8.638l-6.732.702c-.373-2.124-1.092-3.663-2.156-4.616-1.065-.954-2.483-1.43-4.255-1.43-1.94 0-3.753.63-5.438 1.891-1.686 1.261-3.032 3.23-4.04 5.904-1.01 2.675-1.513 5.346-1.513 8.016 0 2.914.656 5.167 1.968 6.757 1.312 1.59 2.946 2.386 4.902 2.386 1.818 0 3.484-.63 4.998-1.887 1.514-1.259 2.643-3.122 3.389-5.59zm10.5 2.157c0-4.887 1.294-8.784 3.88-11.693 2.587-2.909 5.986-4.363 10.199-4.363 3.646 0 6.495 1.073 8.547 3.219 2.053 2.146 3.08 5.033 3.08 8.661 0 4.277-1.282 7.972-3.845 11.089-2.564 3.115-5.998 4.673-10.302 4.673-2.329 0-4.394-.497-6.197-1.49-1.802-.995-3.146-2.403-4.032-4.225-.886-1.822-1.33-3.78-1.33-5.871zm19.065-5.09c0-1.69-.462-3.044-1.386-4.066-.925-1.021-2.117-1.532-3.577-1.532-1.445 0-2.727.477-3.845 1.43-1.119.953-1.99 2.337-2.612 4.15-.623 1.815-.935 3.484-.935 5.01 0 1.89.483 3.39 1.448 4.502.965 1.111 2.175 1.667 3.63 1.667 1.834 0 3.373-.84 4.62-2.517 1.771-2.37 2.657-5.251 2.657-8.645zm13.84-10.345h6.296l-.628 3.21c2.451-2.554 5.03-3.831 7.736-3.831 1.864 0 3.3.415 4.309 1.246 1.008.83 1.653 1.973 1.934 3.427.852-1.323 2.08-2.433 3.68-3.33 1.6-.895 3.262-1.343 4.982-1.343 1.976 0 3.516.563 4.619 1.691 1.103 1.128 1.654 2.62 1.654 4.478 0 .91-.217 2.484-.651 4.723l-3.17 16.13h-6.687l3.163-16.13c.393-2.021.59-3.165.59-3.432 0-.73-.207-1.306-.62-1.728-.415-.423-1.032-.634-1.855-.634-1.659 0-3.142.937-4.45 2.811-.95 1.34-1.756 3.718-2.42 7.133l-2.359 11.98h-6.686l3.125-15.959c.357-1.841.536-3.034.536-3.579 0-.697-.22-1.269-.663-1.716-.441-.446-1.053-.67-1.834-.67-.725 0-1.477.232-2.256.695-.778.463-1.459 1.1-2.041 1.912-.582.812-1.083 1.857-1.502 3.138-.183.593-.487 1.944-.91 4.053l-2.375 12.125h-6.687l5.17-26.4zm42.157 0h6.342l-.536 2.712c1.348-1.193 2.612-2.046 3.795-2.561a9.42 9.42 0 0 1 3.803-.772c2.594 0 4.678.953 6.254 2.86 1.575 1.906 2.363 4.75 2.363 8.53 0 4.756-1.359 8.773-4.075 12.053-2.333 2.8-5.091 4.2-8.272 4.2-3.278 0-5.757-1.417-7.437-4.25l-2.673 13.695h-6.687l7.123-36.467zm4.036 15.14c0 2.054.47 3.649 1.41 4.785.94 1.136 2.045 1.704 3.317 1.704 1.102 0 2.166-.427 3.194-1.28 1.026-.852 1.876-2.268 2.55-4.248.674-1.98 1.011-3.818 1.011-5.512 0-1.972-.441-3.483-1.326-4.535-.883-1.051-2.009-1.577-3.377-1.577-1.276 0-2.438.485-3.485 1.455-1.047.97-1.857 2.394-2.432 4.273-.574 1.88-.862 3.525-.862 4.936zm24.725-15.14h6.242l-.995 5.123c2.328-3.83 4.85-5.744 7.568-5.744.965 0 1.998.258 3.101.776l-2.566 5.842a5.28 5.28 0 0 0-1.93-.351c-1.149 0-2.318.464-3.508 1.393s-2.117 2.167-2.783 3.714c-.667 1.547-1.327 4.004-1.982 7.37l-1.63 8.277h-6.688l5.17-26.4zm14.805 15.435c0-4.887 1.294-8.784 3.88-11.693 2.586-2.909 5.986-4.363 10.198-4.363 3.646 0 6.496 1.073 8.549 3.219 2.051 2.146 3.078 5.033 3.078 8.661 0 4.277-1.282 7.972-3.845 11.089-2.564 3.115-5.997 4.673-10.302 4.673-2.328 0-4.393-.497-6.195-1.49-1.804-.995-3.148-2.403-4.034-4.225-.886-1.822-1.329-3.78-1.329-5.871zm19.064-5.09c0-1.69-.461-3.044-1.386-4.066-.925-1.021-2.117-1.532-3.577-1.532-1.445 0-2.726.477-3.844 1.43-1.12.953-1.99 2.337-2.613 4.15-.623 1.815-.934 3.484-.934 5.01 0 1.89.482 3.39 1.448 4.502.965 1.111 2.175 1.667 3.63 1.667 1.834 0 3.372-.84 4.618-2.517 1.772-2.37 2.658-5.251 2.658-8.645zm13.841-10.345h6.297l-.63 3.21c2.451-2.554 5.03-3.831 7.736-3.831 1.865 0 3.3.415 4.31 1.246 1.008.83 1.651 1.973 1.934 3.427.851-1.323 2.08-2.433 3.679-3.33 1.601-.895 3.262-1.343 4.983-1.343 1.976 0 3.515.563 4.618 1.691 1.103 1.128 1.654 2.62 1.654 4.478 0 .91-.216 2.484-.65 4.723l-3.171 16.13h-6.687l3.164-16.13c.393-2.021.59-3.165.59-3.432 0-.73-.208-1.306-.622-1.728-.412-.423-1.03-.634-1.853-.634-1.66 0-3.143.937-4.45 2.811-.95 1.34-1.756 3.718-2.42 7.133l-2.359 11.98h-6.687l3.125-15.959c.357-1.841.536-3.034.536-3.579 0-.697-.22-1.269-.662-1.716-.442-.446-1.053-.67-1.835-.67-.725 0-1.476.232-2.255.695-.78.463-1.459 1.1-2.041 1.912-.583.812-1.084 1.857-1.502 3.138-.184.593-.488 1.944-.91 4.053l-2.375 12.125h-6.687l5.17-26.4zm61.29 15.41h-16.774a11.03 11.03 0 0 0-.022.654c0 1.754.47 3.169 1.408 4.245.941 1.076 2.084 1.614 3.432 1.614 2.222 0 3.956-1.226 5.202-3.677l5.98 1.07c-1.163 2.571-2.721 4.498-4.669 5.781-1.948 1.283-4.133 1.924-6.56 1.924-3.323 0-6.026-1.122-8.107-3.366-2.08-2.244-3.12-5.216-3.12-8.915 0-3.611.938-6.825 2.819-9.642 2.563-3.813 6.219-5.72 10.975-5.72 3.026 0 5.436.999 7.223 2.995 1.787 1.997 2.68 4.795 2.68 8.396 0 1.721-.156 3.268-.468 4.641zm-5.637-4.347c.014-.316.023-.555.023-.719 0-1.955-.412-3.422-1.237-4.4-.825-.978-1.928-1.467-3.305-1.467-1.383 0-2.622.556-3.72 1.667-1.095 1.111-1.835 2.751-2.223 4.92h10.462zm9.688-5.769l1.028-5.294h3.262l.82-4.225 7.66-4.919-1.794 9.144h4.083l-1.026 5.294h-4.105l-2.168 11.064c-.389 2.005-.582 3.149-.582 3.432 0 .545.162.97.49 1.279.325.307.916.462 1.77.462.294 0 1.034-.06 2.213-.18l-1.043 5.295c-1.152.25-2.336.375-3.546.375-2.357 0-4.074-.484-5.145-1.454-1.074-.97-1.61-2.315-1.61-4.036 0-.812.288-2.686.865-5.622l2.068-10.615h-3.24zm21.14-15.337h6.687l-1.256 6.464h-6.686l1.255-6.464zm-1.953 10.043h6.686l-5.177 26.4h-6.687l5.178-26.4zm30.92 26.4h-6.342l.56-2.86c-1.21 1.242-2.402 2.133-3.572 2.672-1.172.54-2.496.81-3.972.81-2.565 0-4.641-.932-6.235-2.795-1.593-1.863-2.39-4.62-2.39-8.27 0-4.221 1.117-8.04 3.355-11.455 2.238-3.416 5.195-5.123 8.876-5.123 3.325 0 5.818 1.408 7.484 4.224l2.674-13.646h6.686l-7.123 36.443zm-15.447-10.736c0 1.89.446 3.365 1.34 4.424.893 1.06 1.991 1.59 3.293 1.59 1.21 0 2.34-.443 3.39-1.328 1.049-.885 1.887-2.24 2.516-4.065.628-1.825.94-3.574.94-5.246 0-1.907-.48-3.448-1.442-4.625-.963-1.177-2.073-1.765-3.33-1.765-1.954 0-3.56 1.16-4.82 3.48-1.258 2.322-1.887 4.832-1.887 7.535zm22.488-.23c0-4.886 1.292-8.783 3.878-11.692 2.587-2.909 5.985-4.363 10.2-4.363 3.646 0 6.493 1.073 8.546 3.219 2.053 2.146 3.08 5.033 3.08 8.661 0 4.277-1.282 7.972-3.844 11.089-2.565 3.115-5.998 4.673-10.303 4.673-2.328 0-4.395-.497-6.197-1.49-1.804-.995-3.147-2.403-4.032-4.225-.887-1.822-1.328-3.78-1.328-5.871zm19.062-5.09c0-1.689-.461-3.043-1.386-4.065-.924-1.021-2.116-1.532-3.576-1.532-1.446 0-2.728.477-3.845 1.43-1.118.953-1.99 2.337-2.611 4.15-.624 1.815-.937 3.484-.937 5.01 0 1.89.485 3.39 1.449 4.502.965 1.111 2.175 1.667 3.63 1.667 1.832 0 3.373-.84 4.617-2.517 1.775-2.37 2.66-5.251 2.66-8.645zm8.021 8.678l6.478-1.095c.572 1.454 1.286 2.484 2.142 3.089.855.604 2.02.907 3.497.907 1.521 0 2.738-.363 3.651-1.087.64-.501.959-1.106.959-1.814 0-.485-.162-.918-.49-1.3-.344-.364-1.266-.81-2.772-1.34-4.04-1.427-6.538-2.554-7.499-3.382-1.507-1.291-2.26-2.98-2.26-5.066 0-2.087.73-3.884 2.19-5.393 2.033-2.108 5.052-3.162 9.062-3.162 3.18 0 5.587.622 7.218 1.867 1.63 1.244 2.665 2.926 3.1 5.045l-6.176 1.144c-.325-.958-.853-1.68-1.584-2.165-.992-.643-2.186-.964-3.585-.964-1.398 0-2.405.248-3.019.743-.612.496-.917 1.068-.917 1.716 0 .665.312 1.212.934 1.643.387.261 1.635.724 3.746 1.389 3.262 1.013 5.446 2.007 6.547 2.982 1.554 1.373 2.328 3.029 2.328 4.968 0 2.506-.985 4.678-2.957 6.517-1.97 1.838-4.75 2.757-8.339 2.757-3.574 0-6.335-.7-8.283-2.1-1.948-1.4-3.274-3.366-3.97-5.9zm57.344-2.566l6.496 1.12c-1.072 3.083-2.657 5.428-4.754 7.035-2.094 1.607-4.525 2.41-7.287 2.41-3.155 0-5.658-1.002-7.505-3.007-1.85-2.004-2.775-4.763-2.775-8.277 0-2.865.56-5.574 1.679-8.126 1.118-2.552 2.803-4.562 5.054-6.03a13.306 13.306 0 0 1 7.414-2.202c2.921 0 5.253.813 6.991 2.439 1.737 1.626 2.716 3.762 2.937 6.41l-6.364.727c-.154-1.476-.578-2.563-1.268-3.26-.694-.698-1.6-1.046-2.717-1.046-1.291 0-2.497.513-3.614 1.54-1.12 1.027-1.975 2.565-2.575 4.613-.597 2.048-.896 3.965-.896 5.752 0 1.558.359 2.76 1.072 3.608.715.847 1.609 1.27 2.68 1.27 1.073 0 2.107-.415 3.1-1.246.992-.83 1.77-2.074 2.332-3.73zm10.67-1.021c0-4.887 1.293-8.784 3.88-11.693 2.585-2.909 5.986-4.363 10.198-4.363 3.646 0 6.494 1.073 8.548 3.219 2.053 2.146 3.077 5.033 3.077 8.661 0 4.277-1.28 7.972-3.843 11.089-2.563 3.115-5.997 4.673-10.303 4.673-2.328 0-4.393-.497-6.195-1.49-1.803-.995-3.146-2.403-4.034-4.225-.885-1.822-1.328-3.78-1.328-5.871zm19.062-5.09c0-1.69-.46-3.044-1.386-4.066-.922-1.021-2.114-1.532-3.576-1.532-1.444 0-2.726.477-3.845 1.43-1.118.953-1.99 2.337-2.611 4.15-.624 1.815-.934 3.484-.934 5.01 0 1.89.482 3.39 1.446 4.502.965 1.111 2.175 1.667 3.63 1.667 1.835 0 3.375-.84 4.62-2.517 1.772-2.37 2.656-5.251 2.656-8.645zm14.149-10.345h6.334l-.65 3.431c1.581-1.454 3.06-2.493 4.436-3.117a10.415 10.415 0 0 1 4.348-.935c2.037 0 3.641.622 4.813 1.867 1.172 1.244 1.758 2.894 1.758 4.947 0 .926-.257 2.683-.773 5.27l-2.91 14.937h-6.688l2.935-14.986c.44-2.238.658-3.573.658-4.003 0-.91-.252-1.626-.758-2.15-.506-.522-1.21-.784-2.115-.784-.974 0-2.06.439-3.258 1.316-1.197.877-2.138 2.037-2.815 3.48-.5 1.03-1.062 3.127-1.684 6.293l-2.116 10.834h-6.684l5.169-26.4zm36.028 19.022l6.482-1.095c.57 1.454 1.285 2.484 2.138 3.089.857.604 2.022.907 3.497.907 1.522 0 2.74-.363 3.655-1.087.637-.501.956-1.106.956-1.814a1.94 1.94 0 0 0-.49-1.3c-.34-.364-1.266-.81-2.772-1.34-4.039-1.427-6.54-2.554-7.5-3.382-1.504-1.291-2.257-2.98-2.257-5.066 0-2.087.73-3.884 2.188-5.393 2.033-2.108 5.055-3.162 9.061-3.162 3.183 0 5.59.622 7.222 1.867 1.63 1.244 2.662 2.926 3.096 5.045l-6.172 1.144c-.328-.958-.856-1.68-1.587-2.165-.99-.643-2.184-.964-3.584-.964-1.399 0-2.404.248-3.017.743-.613.496-.92 1.068-.92 1.716 0 .665.312 1.212.936 1.643.387.261 1.636.724 3.743 1.389 3.263 1.013 5.447 2.007 6.55 2.982 1.551 1.373 2.329 3.029 2.329 4.968 0 2.506-.987 4.678-2.957 6.517-1.97 1.838-4.75 2.757-8.341 2.757-3.576 0-6.336-.7-8.284-2.1-1.947-1.4-3.271-3.366-3.972-5.9zm32.462-19.022h6.687l-3.058 15.64c-.372 1.873-.56 3.041-.56 3.504 0 .763.267 1.417.795 1.962.53.544 1.206.817 2.028.817.588 0 1.172-.12 1.745-.36.58-.24 1.168-.603 1.77-1.09a9.757 9.757 0 0 0 1.634-1.676c.482-.63.934-1.458 1.352-2.488.293-.763.612-2.005.958-3.726l2.467-12.583h6.682l-5.165 26.4h-6.246l.699-3.578c-2.736 2.8-5.71 4.2-8.925 4.2-2.037 0-3.637-.622-4.803-1.864-1.163-1.242-1.744-2.909-1.744-5 0-.91.262-2.724.788-5.442l2.896-14.716zm54.15 26.4h-7.501l-6.124-36.443h7.008l4.333 27.57 14.148-27.57h6.963l-18.827 36.443zm19.907-36.443h6.688l-1.257 6.464h-6.69l1.26-6.464zm-1.954 10.043h6.69l-5.182 26.4h-6.682l5.174-26.4zm7.203 19.022l6.477-1.095c.57 1.454 1.287 2.484 2.142 3.089.853.604 2.02.907 3.497.907 1.521 0 2.736-.363 3.654-1.087.633-.501.955-1.106.955-1.814 0-.485-.163-.918-.49-1.3-.344-.364-1.267-.81-2.773-1.34-4.04-1.427-6.536-2.554-7.497-3.382-1.506-1.291-2.262-2.98-2.262-5.066 0-2.087.73-3.884 2.193-5.393 2.034-2.108 5.054-3.162 9.061-3.162 3.183 0 5.59.622 7.218 1.867 1.633 1.244 2.663 2.926 3.1 5.045l-6.175 1.144c-.326-.958-.854-1.68-1.585-2.165-.99-.643-2.185-.964-3.588-.964-1.395 0-2.404.248-3.012.743-.615.496-.921 1.068-.921 1.716 0 .665.31 1.212.934 1.643.388.261 1.635.724 3.746 1.389 3.262 1.013 5.445 2.007 6.545 2.982 1.554 1.373 2.332 3.029 2.332 4.968 0 2.506-.985 4.678-2.956 6.517-1.972 1.838-4.753 2.757-8.341 2.757-3.58 0-6.338-.7-8.287-2.1-1.945-1.4-3.268-3.366-3.967-5.9zm34.455-29.065h6.687l-1.252 6.464h-6.688l1.253-6.464zm-1.948 10.043h6.682l-5.176 26.4h-6.688l5.182-26.4zm9.036 15.435c0-4.887 1.291-8.784 3.878-11.693 2.587-2.909 5.988-4.363 10.2-4.363 3.644 0 6.495 1.073 8.546 3.219 2.055 2.146 3.08 5.033 3.08 8.661 0 4.277-1.284 7.972-3.846 11.089-2.563 3.115-6 4.673-10.303 4.673-2.328 0-4.394-.497-6.195-1.49-1.803-.995-3.146-2.403-4.034-4.225-.884-1.822-1.326-3.78-1.326-5.871zm19.06-5.09c0-1.69-.461-3.044-1.386-4.066-.922-1.021-2.114-1.532-3.576-1.532-1.442 0-2.726.477-3.843 1.43-1.12.953-1.987 2.337-2.61 4.15-.627 1.815-.935 3.484-.935 5.01 0 1.89.482 3.39 1.446 4.502.963 1.111 2.176 1.667 3.633 1.667 1.831 0 3.37-.84 4.617-2.517 1.772-2.37 2.654-5.251 2.654-8.645zm-3.495-21.131h7.128l-7.546 7.46h-4.455l4.873-7.46zm17.644 10.786h6.332l-.648 3.431c1.581-1.454 3.063-2.493 4.439-3.117a10.412 10.412 0 0 1 4.345-.935c2.039 0 3.643.622 4.815 1.867 1.173 1.244 1.755 2.894 1.755 4.947 0 .926-.252 2.683-.77 5.27l-2.914 14.937h-6.683l2.932-14.986c.437-2.238.66-3.573.66-4.003 0-.91-.252-1.626-.76-2.15-.503-.522-1.207-.784-2.11-.784-.981 0-2.066.439-3.266 1.316-1.196.877-2.13 2.037-2.81 3.48-.5 1.03-1.064 3.127-1.684 6.293l-2.117 10.834h-6.688l5.172-26.4z" fill="#ee1d27" fill-rule="evenodd"/><g clip-path="url(#a)" transform="matrix(15.41328 0 0 -15.41328 -10.098 0)"><g clip-path="url(#b)"><path d="M27.81 0s-5.76-2.623-9.403-5.296c-2.833-2.078-6.011-5.547-6.011-5.547-.268 1.33 2.381 4.32 3.335 5.507C9.082-9.9 8.94-15.03 8.94-15.03c-3.238-1.29-5.779-4.882-7.67-9.276 0 0 3.32 4.182 5.135 4.907C3.921-23.92 0-31.971.75-39.595c.666 6.684 2.478 12.926 6.547 18.835-.83-18.878 2.759-30.215 9.22-39.069-7.473 13.364-8.024 28.186-5.53 41.922.115-.067 6.843-4.062 11.672-6.709 4.159-2.28 13.073-7.3 13.073-7.3L13.376-15.05s4.597 2.955 11.847 5.518c6.632 2.344 14.032 3.17 17.342 3.405 3.05.217 9.636.309 9.636.309s-3.319.281-4.475.347c-1.155.065-7.661.437-12.731-.086-7.443-.737-14.602-2.376-21.363-5.865 2.003 2.79 4.668 5.128 6.908 6.89C22.983-2.61 27.81 0 27.81 0z" fill="url(#c)" fill-rule="evenodd"/></g></g><path d="M258.671 157.264s-65.523 31.242-71.043 33.988c-5.52 2.746-8.626 7.377-8.658 11.619-.04 5.344 9.864-.427 9.864-.427l69.837-45.18zM152.455 233.07c-1.697.096-3.339 1.047-4.773 3.457-3.636 6.108.977 10.134 4.076 11.524 3.098 1.39 119.997 71.039 119.997 71.039s-108.34-80.532-112.037-83.02c-2.195-1.478-4.782-3.141-7.263-3zm-45.75 50.027c-3.1.153-7.21 5.372-9.594 10.592-2.63 5.76-32.62 66.509-32.62 66.509l41.04-68.071s5.266-7.856 2.11-8.904a2.547 2.547 0 0 0-.936-.126z" fill="#fff" fill-rule="evenodd"/></svg>