<svg xmlns="http://www.w3.org/2000/svg" width="135.803" height="104.726" viewBox="0 0 127.31577 98.180981"><path d="M53.889 52.248l9.005-5.153-8.043-4.643-9.005 5.153 8.043 4.643z" fill="#d97763"/><path d="M99.933 61.832l9.32-5.382 18.063 10.764L73.679 98.18 54.764 87.26l9.32-5.381 9.595 5.539 34.996-20.205-8.742-5.382z" fill="#95a6a5"/><path d="M27.413 58.366l-8.117-4.686L0 65.52l46.71 26.967 16.471-9.51-8.116-4.686-8.356 4.824L16.233 65.52l11.18-7.154z" fill="#95a6a5"/><path d="M72.135 67.514l-17.19-9.837L70.3 48.813l17.189 9.837-15.353 8.864z" fill="#d97763"/><path d="M36.524 37.766l-8.116-4.686L0 49.48l46.71 26.97 16.471-9.51-8.116-4.686-8.356 4.823-30.476-17.595 20.291-11.715z" fill="#7ccbbc"/><path d="M36.524 37.766v6.432l-14.72 8.499-5.571-3.216 20.291-11.715z" fill="#1ab59d"/><path d="M0 49.48v6.414L46.71 91.15V76.449L0 49.48z" fill="#62c4b0"/><path d="M0 54.26v9.904L46.71 91.15v-9.924L0 54.259z" fill="#54447d"/><path d="M63.181 66.939v6.432L46.71 91.15V76.449l16.472-9.51z" fill="#1ab59d"/><path d="M63.181 71.717v9.924l-16.472 9.51v-9.924l16.472-9.51z" fill="#4a3f5f"/><path d="M125.063 68.377l-.844-.422v-6.917l.844-.239v7.578zm-5.065-4.658l-.844.24v6.916l.844.422V63.72zm-5.17 2.969l-.844.239v6.917l.844.422v-7.578zm-5.17 2.968l-.844.24v6.916l.844.422v-7.578zm-5.064 2.969l-.845.239v6.917l.845.422v-7.578zm-5.065 2.968l-.844.24v6.916l.844.423v-7.579zm-5.17 2.998l-.844.24v6.916l.844.422v-7.578zm-5.065 2.89l-.844.24v6.917l.844.422v-7.578zm-5.17 2.97l-.844.239v6.916l.844.423V84.45zm-5.17 2.968l-.844.24v6.916l.844.422V87.42zm-5.17 2.969l-.844.239v6.917l.844.422v-7.578z" fill="#675580"/><path d="M124.993 61.703l2.31-1.265v6.674l-2.31 1.265v-6.674zm-4.967 9.594l2.08-1.216v-6.674l-2.08 1.216v6.674zm-41.12 23.7L81.1 93.78v-6.673l-2.195 1.216v6.674zm5.198-2.968l2.079-1.217v-6.674l-2.08 1.217v6.674zm5.082-2.97l2.08-1.216V81.17l-2.08 1.217v6.674zm5.198-2.919l2.079-1.265V78.2l-2.08 1.265v6.674zm5.082-2.968l2.195-1.266v-6.674l-2.195 1.266v6.674zm5.083-2.969l2.194-1.265v-6.674l-2.194 1.265v6.674zm5.082-2.969l2.079-1.216v-6.674l-2.08 1.216v6.674zm5.313-2.968l2.08-1.217v-6.674l-2.08 1.217v6.674zm-41.236 23.7l2.195-1.217v-6.674l-2.195 1.217v6.674zm-14.59-8.364l.844-.422v-6.917l-.844-.24v7.579zm5.17 2.968l.844-.422v-6.917l-.844-.239v7.578zm5.17 2.969l.844-.422V88.2l-.844-.24v7.579z" fill="#735f8e"/><path d="M64.237 85.896l-2.195-1.216v6.674l2.195 1.216v-6.674zm-5.083-2.968l-2.079-1.217v6.674l2.08 1.217v-6.674zm10.28 5.937l-2.079-1.217v6.674l2.08 1.217v-6.674z" fill="#675580"/><path d="M85.374 39.621l9.32-5.38 32.622 18.833-53.637 30.968-18.915-10.92 9.32-5.382 9.595 5.54 34.996-20.206-23.3-13.453z" fill="#7ccbbc"/><path d="M85.374 39.621v7.387l16.904 9.76 6.397-3.694-23.3-13.453z" fill="#1ab59d"/><path d="M127.316 53.074v7.364l-53.637 30.99v-7.386l53.637-30.968z" fill="#62c4b0"/><path d="M127.316 58.561v1.877l-53.637 30.99v-1.9l53.637-30.967z" fill="#54447d"/><path d="M54.764 73.121v7.386l18.915 10.92v-7.385l-18.915-10.92z" fill="#1ab59d"/><path d="M54.764 78.608v1.9l18.915 10.92v-1.9l-18.915-10.92z" fill="#4a3f5f"/><path d="M101.158 48.084l7.38-4.223-6.592-3.806-7.38 4.223 6.592 3.806zm15.175 10.466l7.38-4.224-6.592-3.806-7.38 4.223 6.592 3.806zM96.49 70.105l7.381-4.224-6.592-3.806-7.38 4.224 6.592 3.806zm-19.187 10.78l7.38-4.223-6.591-3.806-7.38 4.223 6.591 3.806z" fill="#1ab59d"/><path d="M87.37 58.115l-15.481 8.77v-3.792l15.481-8.77v3.792z" fill="#f2d2cf"/><path d="M72.135 66.885l-17.1-9.837v-3.791l17.1 9.836v3.792z" fill="#fee6db"/><path d="M72.135 63.188l-17.19-9.837L70.3 44.487l17.189 9.836-15.353 8.865z" fill="#725c94"/><path d="M62.966 50.864h2.713c3.391-1.848 8.745-1.848 12.136 0h2.824v3.277c.115 1.46-.668 2.972-2.606 4.09-3.428 1.98-9.025 1.98-12.453 0-1.622-.936-2.482-2.147-2.569-3.373h-.045v-3.994z" fill="#1ab59d"/><path d="M65.54 54.538c3.428 1.98 8.986 1.98 12.414 0 3.428-1.979 3.428-5.188 0-7.167s-8.986-1.979-12.414 0c-3.428 1.98-3.428 5.188 0 7.167" fill="#62c4b0"/><path d="M65.047 46.184l4.414-12.228.02-.005-.001-.008 12.291-7.976 1.003 1.005-11.255 8.936-5.47 11.28-1.002-1.004z" fill="#62c4b0"/><path d="M66.05 47.189l4.414-12.229.02-.005v-.008l12.29-7.975.166 3.18-10.417 6.76-3.898 9.696-2.575.58z" fill="#1ab59d"/><path d="M47.434 47.012l6.647 3.765v-5.426l-6.647-3.766v5.427z" fill="#f2d2cf"/><path d="M53.976 50.777l7.342-4.223v-5.427l-7.342 4.224v5.426z" fill="#fee6db"/><path d="M53.976 45.391l7.38-4.223-6.592-3.806-7.38 4.223 6.592 3.806z" fill="#ebeded"/><path d="M56.677 38.505L49.315 42.7v1.494l2.17 1.25v-1.493l7.38-4.224-2.188-1.222z" fill="#bc71a0"/><path d="M63.416 41.642l-6.647 3.765v-5.426l6.647-3.766v5.427z" fill="#f2d2cf"/><path d="M56.874 45.407l-7.342-4.223v-5.427l7.342 4.224v5.426z" fill="#fee6db"/><path d="M56.874 40.021l-7.38-4.223 6.592-3.806 7.38 4.223-6.592 3.806z" fill="#ebeded"/><path d="M54.173 33.135l7.362 4.195v1.494l-2.17 1.251v-1.494l-7.38-4.224 2.188-1.222z" fill="#bc71a0"/><path d="M47.434 36.272l6.647 3.765v-5.426l-6.647-3.766v5.427z" fill="#f2d2cf"/><path d="M53.976 40.037l7.342-4.223v-5.427l-7.342 4.224v5.426z" fill="#fee6db"/><path d="M53.976 34.651l7.38-4.223-6.592-3.806-7.38 4.223 6.592 3.806z" fill="#ebeded"/><path d="M56.677 27.765l-7.362 4.195v1.494l2.17 1.251v-1.494l7.38-4.224-2.188-1.222z" fill="#bc71a0"/><path d="M63.416 30.902l-6.647 3.765v-5.426l6.647-3.766v5.427z" fill="#f2d2cf"/><path d="M56.874 34.667l-7.342-4.223v-5.427l7.342 4.224v5.426z" fill="#fee6db"/><path d="M56.874 29.281l-7.38-4.223 6.592-3.806 7.38 4.223-6.592 3.806z" fill="#ebeded"/><path d="M54.173 22.395l7.362 4.195v1.494l-2.17 1.251v-1.494l-7.38-4.224 2.188-1.222z" fill="#bc71a0"/><path d="M78.358 50.882l-6.376 3.647v-6.785l6.376-3.647v6.785z" fill="#685580"/><path d="M71.982 54.529l-7.068-4.09v-6.785l7.068 4.09v6.785z" fill="#725c94"/><path d="M71.982 47.783l-7.106-4.09 6.384-3.685 7.147 4.09-6.425 3.685z" fill="#8d9aca"/><path d="M76.875 48.329c0-1.087-.763-1.528-1.705-.984-.941.543-1.704 1.865-1.704 2.952s.763 1.528 1.704.984c.942-.543 1.705-1.865 1.705-2.952" fill="#f2d2cf"/><path d="M77.178 48.48c0-1.087-.764-1.527-1.705-.984-.941.544-1.705 1.866-1.705 2.953 0 1.087.764 1.527 1.705.984.941-.544 1.705-1.866 1.705-2.953" fill="#fee6db"/><path d="M19.359 9.29L21.73 0h-3.658L11.85 7.683l.028.028-.028.03 14.472 18.005 2.217-2.408-9.18-14.048z" fill="#54447d"/><path d="M17.355 9.77L19.726 0h-3.659L9.845 8.164l.029.028-.029.03 14.473 18.005 2.216-2.408-9.18-14.048z" fill="#54447d"/><path d="M16.47 9.497l2.25-8.392-2.333-.063-5.384 7.285.02.02-.02.023 12.695 15.982 1.459-1.356-8.686-13.5z" fill="#4a3f5f"/><path d="M22.077 21.73c0-1.08.757-1.516 1.69-.977.935.54 1.692 1.85 1.692 2.93 0 1.078-.757 1.515-1.691.976-.934-.54-1.691-1.851-1.691-2.93" fill="#f2d2cf"/><path d="M28.539 23.338l-2.005.48-9.18-14.047 2.005-.481 9.18 14.048zM16.067 0h5.663-5.663z" fill="#8d9aca"/><path d="M19.359 9.29l-2.004.48L19.726 0h2.004l-2.37 9.29zm4.959 16.937l2.004-.481 2.217-2.408-2.005.48-2.216 2.409z" fill="#4a3f5f"/><path d="M27.824 28.275v-4.22l-2.737 1.61v2.039l-1.079.5-.531 1.003v1.262l.572 1.047 1.845-.487c.502-.119.61-.94.61-.94l.27 1.583-.27.836.188.481 1.86-.446a.19.19 0 0 0 .145-.035c.306-.246.474-.685.474-1.237 0-1.02-.562-2.214-1.347-2.996" fill="#4a3f5f"/><path d="M25.82 28.756l.068-4.294-1.457 1.604v1.888c-.785-.124-1.348.42-1.348 1.44 0 .553.17 1.189.477 1.79a.73.73 0 0 0 .266.297c.08.045.158.06.223.035.147-.058.166-.3.043-.54-.203-.397-.315-.816-.315-1.182 0-.858.605-1.207 1.348-.778.743.43 1.348 1.477 1.348 2.335 0 .364-.111.654-.313.817-.123.098-.104.363.043.59.147.226.366.33.49.231.306-.246.474-.685.474-1.237 0-1.02-.562-2.214-1.348-2.996" fill="#54447d"/><path d="M82.89 25.846V42.8l-3.775-2.18V23.668l3.774 2.179z" fill="#aa5b7f"/><path d="M80.627 39.747l-1.512.874 3.774 2.179-2.262-3.053z" fill="#aa5b7f" fill-rule="evenodd"/><path d="M89.448 17.702v16.954l-10.334 5.966V23.668l.179-.518.182.198.282-.521.266.194.312-.495.198.19.273-.494.229.19.25-.456.183.19.213-.41.175.174.274-.418.145.182.236-.41.16.228.243-.464.167.228.259-.472.167.206.244-.434.167.167.266-.395.168.19.243-.38.236.098.243-.41.168.182.266-.449.165.183.261-.403.16.16.296-.45.19.168.305-.495.243.198.267-.41.182.144.282-.48.175.153.243-.426.168.205.298-.431.204.165.137-.32.182.206.053-.274.129.25z" fill="#f2d2cf"/><path d="M79.115 23.667l1.645.95-.133 15.13-1.512.874V23.667z" fill="#fee6db" fill-rule="evenodd"/><path d="M82.89 25.846V42.8l-2.263-3.053.133-15.13 2.13 1.229zm6.558-8.146l1.645.95 2.13 1.23v16.954L90.96 33.78l-1.512.874V17.7z" fill="#bc71a0" fill-rule="evenodd"/><path d="M93.223 19.88v16.954L82.889 42.8V25.846l.179-.518.182.198.282-.521.266.193.312-.494.198.19.274-.494.228.19.251-.457.183.19.213-.41.175.175.273-.419.145.183.236-.41.16.227.243-.464.167.229.259-.472.167.205.244-.433.167.167.266-.396.168.19.243-.38.236.1.243-.412.168.183.266-.449.165.183.261-.404.16.16.297-.449.19.168.304-.495.244.198.266-.41.183.144.281-.48.175.153.243-.426.168.205.298-.432.204.166.137-.32.182.206.054-.274.128.25z" fill="#fee6db"/><path d="M88.472 31.008v7.462l-4.548 2.626v-7.462l4.548-2.626m2.161 3.227v2.87l-1.749 1.009v-2.87l1.749-1.009m1.927-7.149v1.133l-8.758 5.056v-1.132l8.759-5.057m-.001-1.784v1.133l-8.758 5.057v-1.133l8.759-5.057m-.001-1.783v1.133l-8.758 5.056v-1.133l8.759-5.056" fill="#bc71a0"/><path d="M87.666 33.794c-.002.112-.06.233-.128.27-.068.038-.122-.022-.12-.134.002-.113.06-.234.128-.271.068-.038.122.023.12.135m-.221.512c-.17.41-.283 1.04-.296 1.738-.002.107-.057.223-.122.258l-.001.001c-.065.036-.117-.022-.115-.129.005-.214-.009-.702-.22-.586-.211.116-.244.628-.248.843-.002.107-.056.223-.122.258-.002 0-.005 0-.007.005-.002 0-.005.005-.007.005-.065.035-.117-.022-.115-.13.004-.214-.009-.701-.22-.585-.212.116-.244.628-.248.843-.002.107-.057.222-.122.258-.065.036-.116-.022-.114-.129.015-.812.264-1.234.491-1.359.131-.072.266-.05.353.137.097-.288.235-.46.366-.531.103-.057.208-.055.29.037.068-.454.177-.854.316-1.163-.229-.287-.562-.362-.937-.157-.718.394-1.317 1.665-1.34 2.84-.022 1.174.542 1.807 1.26 1.413.716-.393 1.316-1.664 1.338-2.838.008-.42-.059-.769-.18-1.028" fill="#fff"/><path d="M57.032 67.904l-3.126-1.805-1.113-.643-6.982 4.031 5.352 3.09 6.982-4.03-1.113-.643z" fill="#3a3056"/><path d="M50.929 72.384V71.7l6.646-3.837v.683l-6.646 3.838z" fill="#5295a6"/><path d="M50.929 71.7l-5.095-2.942 6.646-3.837 5.095 2.942L50.93 71.7z" fill="#74ccd4"/><path d="M45.834 68.758v.684l5.095 2.942V71.7l-5.095-2.942z" fill="#66a5b3"/><path d="M49.839 69.82v-.299h-.518v.299h.518zm.297.171v-.298h-.518v.298h.518zm.297.172v-.299h-.518v.299h.518zm.297.171v-.298h-.517v.298h.517zm.297.172v-.299h-.517v.299h.517zm.297.171v-.298h-.517v.298h.517zm.297.172v-.299h-.517v.299h.517zm.297.171v-.298h-.517v.298h.517zm-4.456-2.573v-.298h-.518v.298h.518zm.297.172v-.299h-.517v.299h.517zm.297.171v-.298h-.517v.298h.517zm.297.172v-.299h-.517v.299h.517zm.297.171v-.298h-.517v.298h.517zm.297.172v-.299h-.517v.299h.517zm.297.171v-.298h-.517v.298h.517zm-.22.172v-.299h.517v.3h-.517z" fill="none" stroke="#fff" stroke-width=".095" stroke-miterlimit="10"/><path d="M53.46 67.95c-.056.032-.133.038-.17.015-.039-.023-.024-.067.032-.098.056-.03.132-.037.17-.014.038.023.024.067-.032.098m-.317.037c-.25.033-.595.157-.944.35-.053.029-.126.035-.162.013-.037-.023-.023-.064.03-.094.108-.06.345-.205.227-.276-.118-.072-.38.059-.487.118-.054.03-.127.036-.163.013-.001 0-.002 0-.004-.004-.001 0-.003 0-.004-.005-.036-.022-.023-.064.031-.093.107-.06.345-.205.227-.277-.118-.071-.38.06-.488.119-.053.03-.126.035-.162.013-.036-.022-.023-.063.03-.093.407-.224.687-.222.813-.145.073.044.1.117.033.214.17-.035.294-.016.368.029.057.034.086.087.064.154.244-.096.473-.156.665-.176.077-.195.019-.381-.19-.508-.4-.242-1.2-.176-1.786.148-.587.325-.74.784-.34 1.026.4.243 1.199.176 1.786-.148.209-.116.363-.249.456-.382" fill="#ee2e6b"/><path d="M50.929 71.7l-.217.285.217.399V71.7z" fill="#5295a6" fill-rule="evenodd"/><path d="M46.035 69.22l4.677 2.765.217.399-5.095-2.942.2-.222z" fill="#74ccd4" fill-rule="evenodd"/><g fill="#fff"><path d="M53.474 70.389c0 .013-.007.029-.016.033-.008.005-.015-.004-.015-.017 0-.014.008-.029.016-.033.009-.005.015.004.015.017m-.027.064a.634.634 0 0 0-.037.216c0 .014-.007.028-.016.032-.008.005-.014-.004-.014-.016 0-.027-.001-.087-.027-.073-.027.015-.03.078-.031.105 0 .014-.007.028-.016.033h-.001c-.008.005-.015-.005-.015-.016 0-.027 0-.088-.027-.073-.026.014-.03.078-.03.105-.001.013-.008.027-.016.032-.008.005-.015-.005-.014-.016.001-.101.032-.154.06-.17.017-.008.034-.006.045.018.012-.036.03-.058.045-.067.013-.007.026-.007.037.005a.564.564 0 0 1 .04-.145c-.03-.036-.071-.045-.118-.02-.09.05-.164.208-.167.354-.003.147.068.226.157.177.09-.05.164-.208.167-.354a.294.294 0 0 0-.022-.128"/><text transform="matrix(.26765 -.1559 -.0027 .43491 53.51 70.56)" style="-inkscape-font-specification:CenturyGothic-Bold" font-weight="700" font-size=".522" font-family="Century Gothic"><tspan x="0 0.49036407 0.63642997 0.97029483 1.1163608 1.4606589 1.6067247 1.8258237 1.9718895" y="0">m e p ´ s</tspan></text><text transform="matrix(.26765 -.1559 -.0027 .43491 54.177 70.172)" style="-inkscape-font-specification:CenturyGothic" font-weight="400" font-size=".522" font-family="Century Gothic"><tspan x="0 0.48932073 0.63382161 0.97290313 1.1174041 1.4747438 1.6192447 1.7235775 1.8680784 2.2097683 2.3542693 2.5566747 2.8456764 3.1847579 3.3292589 3.4930613 3.6375623 3.9766438 4.1211448 4.4586611 4.6031623 4.7800064 4.9245071 5.0288401 5.1733408 5.4623427 5.6068435 5.9485335 6.0930343 6.2954397 6.5844417 6.9402165 7.0847173 7.4018888 7.5463901 7.9021645 8.0466652 8.1509981 8.2954988 8.3998318 8.5443325 8.8818493 9.02635 9.1306829 9.2751837 9.4520283 9.596529 9.9528255 10.097326 10.254347 10.398848 10.503181 10.647681 10.989371 11.133872 11.336278" y="0">m e d i o s e f e c t i v o s p u b l i c i t a r i o s</tspan></text><text transform="matrix(.26765 -.1559 -.0027 .43491 53.515 70.694)" style="-inkscape-font-specification:CenturyGothic-Italic" font-style="italic" font-size=".202" font-family="Century Gothic"><tspan x="0 0.04554107 0.10135911 0.2903747 0.34619272 0.48362198 0.53944004 0.66195756 0.71777564 0.75807744 0.81389546 0.89208102 0.94789904 1.0855298 1.1413479 1.2642684 1.3200865 1.4581202 1.5139383 1.6459268 1.7575629 1.7978647 1.8536828 1.9917165 2.0475345 2.1785154 2.2343335 2.3719642 2.4277823" y="0">I m p u l s a n d o i d e a s</tspan></text></g><path d="M52.48 64.92l.312-.032.087.263h.36l.133.287.306-.03.065.244.29-.03.072.24.286-.016.045.206.234-.031.053.197.254-.011.072.199.25-.005.062.183.277-.015.064.212.29.01.042.182.238-.024.058.195.237-.012.067.187.217-.012.045.163.236-.02.055.188.192-.04.038.173.167-.03-.009.122-.185.107-5.105-2.936.195-.113z" fill="#74ccd4" fill-rule="evenodd"/><path d="M73.72 49.67l4.414-12.228.02-.005-.001-.008 12.291-7.976 1.003 1.005-11.255 8.936-5.47 11.28-1.002-1.004z" fill="#62c4b0"/><path d="M74.723 50.675l4.414-12.23.02-.004-.001-.008 12.291-7.975.166 3.18-10.417 6.76-3.898 9.696-2.575.58z" fill="#1ab59d"/><path d="M101.05 37.415v10.447l-2.327-1.343V36.072l2.326 1.343z" fill="#aa5b7f"/><path d="M99.655 45.981l-.932.538 2.326 1.343-1.394-1.88z" fill="#aa5b7f" fill-rule="evenodd"/><path d="M105.09 32.396v10.448l-6.367 3.676V36.073l.11-.32.112.122.174-.32.164.119.192-.305.122.117.169-.304.14.117.155-.282.112.118.132-.253.108.107.168-.257.09.112.145-.253.098.14.15-.286.103.141.16-.29.103.126.15-.267.103.103.164-.244.103.117.15-.234.146.06.15-.252.103.112.164-.276.101.112.161-.248.099.098.182-.276.118.103.187-.305.15.122.164-.253.113.089.173-.296.108.094.15-.262.103.126.184-.266.126.102.084-.197.113.127.032-.169.08.154z" fill="#f2d2cf"/><path d="M98.723 36.072l1.014.585-.082 9.324-.932.538V36.072z" fill="#fee6db" fill-rule="evenodd"/><path d="M101.05 37.415v10.447l-1.395-1.88.082-9.325 1.312.758zm4.04-5.02l1.014.586 1.313.757v10.448l-1.394-1.881-.932.538V32.395z" fill="#bc71a0" fill-rule="evenodd"/><path d="M107.417 33.738v10.448l-6.368 3.676V37.415l.11-.32.112.122.174-.32.164.119.192-.305.122.117.169-.305.14.118.155-.282.113.118.131-.254.108.108.169-.258.089.113.145-.253.099.14.15-.285.103.14.16-.29.102.126.15-.267.103.103.164-.244.104.117.15-.234.145.06.15-.252.103.112.164-.276.102.112.16-.248.1.098.182-.276.117.103.188-.305.15.122.164-.253.112.089.174-.296.108.094.15-.262.103.126.184-.266.125.102.085-.197.112.127.033-.169.079.154z" fill="#fee6db"/><path d="M104.49 40.596v4.598l-2.803 1.618v-4.598l2.803-1.618m1.33 1.988v1.768l-1.077.623v-1.769l1.078-.622m1.188-4.405v.698l-5.397 3.116v-.698l5.397-3.116m0-1.099v.698l-5.397 3.116v-.698l5.397-3.116m0-1.1v.699l-5.397 3.116v-.698l5.397-3.116" fill="#bc71a0"/><path d="M103.992 42.312c-.001.07-.036.144-.078.167-.042.024-.076-.014-.074-.083.001-.07.036-.144.078-.167.043-.023.076.014.074.083m-.136.316c-.104.253-.174.641-.182 1.071-.001.066-.035.137-.075.16-.041.022-.073-.014-.072-.08.003-.132-.005-.432-.135-.36-.13.07-.15.386-.153.519-.001.066-.035.137-.075.159h-.005c-.001 0-.003 0-.004.004-.04.023-.072-.013-.07-.079.001-.132-.007-.432-.137-.36-.13.07-.15.386-.153.519 0 .065-.034.137-.075.159-.04.022-.071-.014-.07-.08.01-.5.163-.76.303-.837.08-.045.163-.031.217.084.06-.177.145-.283.226-.327.063-.035.128-.034.179.023.041-.28.109-.526.194-.717-.14-.177-.346-.223-.577-.096-.442.242-.812 1.026-.826 1.75-.013.723.334 1.113.776.87.442-.242.811-1.025.825-1.749a1.445 1.445 0 0 0-.111-.633" fill="#fff"/><path d="M116.222 47.716v10.447l-2.326-1.343V46.373l2.326 1.343z" fill="#aa5b7f"/><path d="M114.828 56.282l-.932.538 2.326 1.343-1.394-1.881z" fill="#aa5b7f" fill-rule="evenodd"/><path d="M120.263 42.697v10.448l-6.368 3.676V46.374l.11-.32.113.122.173-.321.164.12.193-.305.122.117.168-.305.14.118.156-.282.112.118.131-.254.108.108.169-.258.089.113.145-.253.099.14.15-.286.103.141.16-.29.102.126.15-.267.104.103.164-.244.103.117.15-.234.145.06.15-.252.103.112.165-.276.101.112.16-.248.1.098.182-.277.117.104.188-.305.15.122.164-.253.113.089.173-.296.108.094.15-.262.103.126.184-.266.125.102.085-.197.112.127.033-.17.08.155z" fill="#f2d2cf"/><path d="M113.896 46.373l1.014.585-.082 9.324-.932.538V46.373z" fill="#fee6db" fill-rule="evenodd"/><path d="M116.222 47.716v10.447l-1.394-1.881.082-9.324 1.312.758zm4.041-5.02l1.014.585 1.312.758v10.448l-1.394-1.882-.932.539V42.696z" fill="#bc71a0" fill-rule="evenodd"/><path d="M122.59 44.04v10.447l-6.368 3.676V47.716l.11-.32.112.122.174-.321.164.12.192-.305.122.117.169-.305.14.118.155-.282.112.118.132-.254.108.108.168-.258.09.113.145-.253.098.14.15-.286.103.141.16-.29.103.126.15-.267.103.103.164-.244.103.117.15-.234.146.06.15-.252.103.112.164-.276.101.112.161-.248.099.098.183-.276.117.103.187-.305.15.122.165-.253.112.089.173-.296.108.094.15-.262.104.126.183-.266.126.102.084-.197.113.127.033-.17.079.155z" fill="#fee6db"/><path d="M119.662 50.896v4.599l-2.803 1.618v-4.598l2.803-1.619m1.332 1.989v1.768l-1.078.622v-1.768l1.078-.622m1.187-4.405v.698l-5.397 3.116v-.698l5.397-3.116m0-1.1v.699l-5.397 3.116v-.698l5.397-3.116m0-1.099v.698l-5.397 3.116v-.699l5.397-3.115" fill="#bc71a0"/><path d="M119.165 52.613c-.001.07-.036.144-.079.167-.042.023-.075-.014-.074-.083.002-.07.037-.144.08-.167.041-.023.074.014.073.083m-.135.316c-.106.253-.175.641-.184 1.071-.001.066-.034.137-.075.16-.04.022-.072-.014-.07-.08.002-.132-.006-.432-.137-.361-.13.072-.15.387-.152.52-.001.065-.035.137-.075.159h-.005c-.001 0-.003 0-.005.004-.04.023-.071-.013-.07-.079.002-.132-.006-.432-.136-.361-.13.071-.15.387-.153.52-.001.065-.035.137-.075.159-.04.022-.072-.014-.07-.08.01-.5.162-.76.302-.837.081-.045.164-.031.218.084.06-.177.145-.283.225-.328.064-.034.129-.033.18.024.041-.28.108-.526.194-.717-.141-.177-.346-.223-.578-.096-.442.242-.811 1.025-.825 1.749-.014.724.334 1.114.776.871.442-.242.811-1.025.825-1.749a1.449 1.449 0 0 0-.111-.633" fill="#fff"/><path d="M96.76 59.276v10.447l-2.326-1.343V57.933l2.326 1.343z" fill="#aa5b7f"/><path d="M95.366 67.842l-.932.538 2.326 1.343-1.394-1.88z" fill="#aa5b7f" fill-rule="evenodd"/><path d="M100.801 54.257v10.448l-6.368 3.676V57.934l.11-.32.113.122.173-.32.164.119.193-.305.121.117.17-.304.14.117.155-.282.112.118.131-.254.108.108.169-.258.089.113.145-.253.099.14.15-.285.103.14.16-.29.102.126.15-.267.104.103.164-.244.103.117.15-.234.145.06.15-.252.103.112.165-.276.101.112.161-.248.098.098.183-.277.118.104.187-.305.15.122.164-.253.113.089.173-.296.108.094.15-.262.103.126.184-.266.126.102.084-.197.112.127.033-.169.08.154z" fill="#f2d2cf"/><path d="M94.434 57.933l1.014.585-.082 9.324-.932.538V57.933z" fill="#fee6db" fill-rule="evenodd"/><path d="M96.76 59.276v10.447l-1.394-1.88.082-9.325 1.312.758zm4.041-5.02l1.014.586 1.312.757v10.448l-1.394-1.881-.932.538V54.256z" fill="#bc71a0" fill-rule="evenodd"/><path d="M103.128 55.6v10.447l-6.368 3.676V59.276l.11-.32.112.122.174-.32.164.119.192-.305.122.117.169-.304.14.117.155-.282.113.118.13-.254.109.108.168-.258.09.113.145-.253.098.14.15-.286.103.141.16-.29.103.126.15-.267.103.103.164-.244.103.117.15-.234.146.06.15-.252.103.112.164-.276.101.112.161-.248.099.098.183-.276.117.103.188-.305.15.122.164-.253.112.089.174-.296.107.094.15-.262.103.126.185-.266.125.102.084-.197.113.127.033-.169.079.154z" fill="#fee6db"/><path d="M100.2 62.456v4.599l-2.803 1.618v-4.598l2.803-1.619m1.332 1.989v1.768l-1.078.622v-1.767l1.078-.623m1.188-4.405v.698l-5.397 3.116v-.698l5.396-3.116m.001-1.1v.699l-5.397 3.116v-.698l5.396-3.116m.001-1.099v.698l-5.397 3.116v-.698l5.396-3.116" fill="#bc71a0"/><path d="M99.703 64.173c-.001.07-.036.144-.079.167-.042.023-.075-.014-.074-.083.002-.069.037-.144.08-.167.041-.023.075.014.073.083m-.136.316c-.105.253-.174.641-.183 1.071-.001.066-.034.137-.075.16-.04.022-.072-.014-.07-.08.002-.132-.006-.432-.137-.36-.13.07-.15.386-.152.519-.002.066-.035.137-.075.159h-.005s-.003 0-.004.004c-.04.023-.072-.013-.07-.079.002-.132-.007-.432-.137-.361-.13.072-.15.387-.152.52-.002.065-.035.137-.075.159-.04.022-.072-.014-.07-.08.008-.5.162-.76.302-.837.08-.045.164-.031.217.084.06-.177.145-.283.226-.328.063-.034.128-.033.179.024.042-.28.109-.526.195-.717-.142-.177-.347-.223-.578-.096-.442.242-.812 1.025-.825 1.749-.014.724.333 1.114.775.871.442-.242.811-1.025.825-1.749a1.446 1.446 0 0 0-.11-.633" fill="#fff"/><path d="M77.519 69.95v10.448l-2.327-1.343V68.607l2.327 1.343z" fill="#aa5b7f"/><path d="M76.125 78.517l-.933.538 2.327 1.343-1.394-1.881z" fill="#aa5b7f" fill-rule="evenodd"/><path d="M81.56 64.932V75.38l-6.368 3.676V68.608l.11-.319.113.122.173-.321.164.12.192-.305.122.117.169-.305.14.117.155-.28.113.116.131-.253.108.108.169-.258.089.113.145-.253.099.14.15-.286.103.14.16-.29.102.127.15-.267.103.103.165-.244.103.117.15-.234.145.06.15-.253.103.113.164-.277.102.113.16-.249.1.099.182-.277.117.103.188-.304.15.122.164-.254.112.09.174-.296.108.094.15-.263.103.127.184-.266.125.102.085-.197.112.127.033-.17.079.155z" fill="#f2d2cf"/><path d="M75.192 68.608l1.014.585-.081 9.324-.933.538V68.608z" fill="#f2d2cf" fill-rule="evenodd"/><path d="M77.519 69.95v10.448l-1.394-1.881.081-9.324 1.313.757zm4.041-5.02l1.014.586 1.312.758V76.72l-1.394-1.88-.932.538V64.93z" fill="#bc71a0" fill-rule="evenodd"/><path d="M83.886 66.274v10.448l-6.367 3.676V69.95l.11-.319.112.122.174-.321.164.12.192-.305.122.117.168-.305.141.117.155-.28.112.116.131-.253.108.108.17-.258.088.113.146-.253.098.14.15-.286.103.14.16-.29.103.127.15-.267.103.103.164-.244.103.117.15-.234.145.06.15-.253.104.113.164-.277.101.113.161-.249.099.099.182-.277.118.103.187-.304.15.122.164-.254.113.09.173-.296.108.094.15-.263.103.127.184-.266.126.102.084-.197.113.126.032-.168.08.154z" fill="#fee6db"/><path d="M80.959 73.131v4.599l-2.803 1.618v-4.599l2.803-1.618m1.331 1.989v1.768l-1.077.622v-1.768l1.077-.622m1.188-4.405v.698l-5.397 3.116v-.699l5.397-3.115m0-1.1v.698l-5.397 3.116v-.698l5.397-3.116m0-1.099v.698l-5.397 3.116v-.698l5.397-3.116" fill="#bc71a0"/><path d="M80.462 74.848c-.001.069-.037.144-.079.167-.042.023-.075-.014-.074-.083.002-.07.037-.144.079-.167.042-.023.075.014.074.083m-.136.316c-.105.252-.175.64-.183 1.07-.001.067-.035.138-.075.16-.04.022-.072-.013-.07-.079.001-.132-.007-.433-.137-.361-.13.071-.15.387-.153.52 0 .065-.034.136-.075.158h-.004c-.002 0-.003 0-.005.005-.04.022-.072-.013-.07-.08.002-.132-.006-.432-.136-.36-.13.071-.15.387-.153.52-.002.065-.035.136-.075.158-.04.022-.072-.013-.07-.079.009-.5.162-.76.302-.838.081-.044.164-.03.218.085.06-.178.144-.283.225-.328.064-.034.128-.034.18.024a2.79 2.79 0 0 1 .194-.717c-.141-.177-.347-.224-.578-.097-.442.243-.811 1.026-.825 1.75-.014.724.333 1.114.775.871.442-.242.812-1.025.826-1.75a1.448 1.448 0 0 0-.111-.632" fill="#fff"/><path d="M39.411 63.653l-3.126-1.805-1.113-.643-6.982 4.03 5.352 3.091 6.982-4.03-1.113-.643z" fill="#3a3056"/><path d="M33.308 68.132v-.683l6.647-3.838v.684l-6.647 3.837z" fill="#5295a6"/><path d="M33.308 67.449l-5.095-2.942 6.646-3.837 5.096 2.941-6.647 3.838z" fill="#74ccd4"/><path d="M28.213 64.507v.684l5.095 2.941v-.683l-5.095-2.942z" fill="#66a5b3"/><path d="M32.217 65.568v-.299h-.518v.3h.518zm.297.172v-.299h-.517v.299h.517zm.297.171v-.298h-.517v.298h.517zm.297.172v-.299h-.517v.299h.517zm.297.171v-.298h-.517v.298h.517zm.297.172v-.299h-.517v.299h.517zm.297.171V66.3h-.517v.298H34zm.297.172v-.299h-.517v.299h.517zm-4.456-2.573v-.299h-.518v.299h.518zm.297.171v-.298h-.517v.298h.517zm.297.172v-.299h-.517v.299h.517zm.297.171v-.298h-.517v.298h.517zm.297.172v-.299h-.517v.3h.517zm.297.172v-.3h-.517v.3h.517zm.297.171v-.299h-.517v.3h.517zm-.22.172v-.299h.518v.299h-.518z" fill="none" stroke="#fff" stroke-width=".095" stroke-miterlimit="10"/><path d="M35.84 63.7c-.057.03-.133.037-.171.014-.039-.023-.024-.067.032-.098s.132-.038.17-.015c.039.024.024.068-.032.098m-.316.038c-.252.033-.596.157-.944.35-.054.029-.127.035-.163.013-.037-.023-.023-.064.03-.094.108-.059.345-.205.227-.276-.117-.071-.38.059-.487.118-.054.03-.126.036-.163.013-.001 0-.002 0-.003-.004h-.004c-.037-.022-.023-.064.03-.094.108-.059.345-.204.227-.276-.117-.071-.38.059-.487.118-.054.03-.126.036-.163.014-.036-.022-.022-.064.031-.094.406-.224.686-.222.813-.145.073.045.1.117.033.214.17-.035.294-.015.367.03.057.034.087.086.064.154.244-.097.473-.157.666-.176.076-.195.018-.382-.19-.509-.4-.242-1.2-.175-1.787.149-.587.324-.74.783-.34 1.026.4.242 1.2.176 1.786-.149.21-.115.364-.248.457-.382" fill="#ee2e6b"/><path d="M33.308 67.449l-.216.285.216.398v-.683z" fill="#5295a6" fill-rule="evenodd"/><path d="M28.414 64.969l4.678 2.765.216.398-5.095-2.941.201-.222z" fill="#74ccd4" fill-rule="evenodd"/><g fill="#fff"><path d="M35.853 66.137c0 .014-.007.03-.015.034-.009.005-.016-.004-.015-.017 0-.014.007-.029.015-.034.009-.004.016.005.015.017m-.027.064a.64.64 0 0 0-.037.217c0 .013-.007.028-.015.032-.009.005-.015-.004-.015-.016 0-.027 0-.087-.027-.073-.026.015-.03.078-.03.105-.001.014-.008.028-.016.033h-.002c-.008.005-.014-.005-.014-.016 0-.027-.002-.088-.028-.073-.026.014-.03.078-.03.105 0 .013-.008.028-.016.032-.008.005-.014-.004-.014-.016.002-.101.033-.154.061-.17.017-.009.033-.006.044.018a.122.122 0 0 1 .046-.067c.013-.006.026-.006.036.006a.564.564 0 0 1 .04-.146c-.03-.035-.07-.045-.117-.019-.09.05-.165.208-.167.354-.003.146.067.225.156.176.09-.049.164-.207.167-.354a.293.293 0 0 0-.022-.128"/><text transform="matrix(.26765 -.1559 -.0027 .43491 35.89 66.31)" style="-inkscape-font-specification:CenturyGothic-Bold" font-weight="700" font-size=".522" font-family="Century Gothic"><tspan x="0 0.49036407 0.63642997 0.97029483 1.1163608 1.4606589 1.6067247 1.8258237 1.9718895" y="0">m e p ´ s</tspan></text><text transform="matrix(.26765 -.1559 -.0027 .43491 36.556 65.92)" style="-inkscape-font-specification:CenturyGothic" font-weight="400" font-size=".522" font-family="Century Gothic"><tspan x="0 0.48932073 0.63382161 0.97290313 1.1174041 1.4747438 1.6192447 1.7235775 1.8680784 2.2097683 2.3542693 2.5566747 2.8456764 3.1847579 3.3292589 3.4930613 3.6375623 3.9766438 4.1211448 4.4586611 4.6031623 4.7800064 4.9245071 5.0288401 5.1733408 5.4623427 5.6068435 5.9485335 6.0930343 6.2954397 6.5844417 6.9402165 7.0847173 7.4018888 7.5463901 7.9021645 8.0466652 8.1509981 8.2954988 8.3998318 8.5443325 8.8818493 9.02635 9.1306829 9.2751837 9.4520283 9.596529 9.9528255 10.097326 10.254347 10.398848 10.503181 10.647681 10.989371 11.133872 11.336278" y="0">m e d i o s e f e c t i v o s p u b l i c i t a r i o s</tspan></text><text transform="matrix(.26765 -.1559 -.0027 .43491 35.894 66.443)" style="-inkscape-font-specification:CenturyGothic-Italic" font-style="italic" font-size=".202" font-family="Century Gothic"><tspan x="0 0.04554107 0.10135911 0.2903747 0.34619272 0.48362198 0.53944004 0.66195756 0.71777564 0.75807744 0.81389546 0.89208102 0.94789904 1.0855298 1.1413479 1.2642684 1.3200865 1.4581202 1.5139383 1.6459268 1.7575629 1.7978647 1.8536828 1.9917165 2.0475345 2.1785154 2.2343335 2.3719642 2.4277823" y="0">I m p u l s a n d o i d e a s</tspan></text></g><path d="M34.86 60.67l.311-.033.087.263h.36l.134.287.306-.03.064.244.291-.03.071.239.286-.015.046.206.233-.031.053.197.254-.011.072.199.25-.005.062.183.277-.015.065.212.29.01.041.182.239-.024.058.194.236-.011.067.187.218-.012.044.163.236-.019.055.187.192-.04.039.174.167-.03-.01.12-.185.108-5.105-2.936.195-.113z" fill="#74ccd4" fill-rule="evenodd"/><path d="M25.792 55.882l-3.127-1.805-1.113-.643-6.982 4.031 5.353 3.09 6.982-4.03-1.113-.643z" fill="#3a3056"/><path d="M19.688 60.362v-.684l6.647-3.837v.683l-6.647 3.838z" fill="#5295a6"/><path d="M19.688 59.678l-5.095-2.942L21.24 52.9l5.095 2.942-6.647 3.837z" fill="#74ccd4"/><path d="M14.593 56.736v.684l5.095 2.942v-.684l-5.095-2.942z" fill="#66a5b3"/><path d="M18.596 57.797v-.299h-.517v.299h.517zm.297.171v-.298h-.517v.298h.517zm.297.172v-.299h-.517v.299h.517zm.297.172v-.3h-.517v.3h.517zm.297.171v-.299h-.517v.3h.517zm.297.172v-.299h-.517v.299h.517zm.298.171v-.299h-.518v.3h.518zm.297.172v-.299h-.518v.299h.518zm-4.457-2.573v-.299h-.517v.299h.517zm.297.171v-.298H16v.298h.517zm.297.172v-.299h-.517v.299h.517zm.297.171v-.298h-.517v.298h.517zm.297.172v-.299h-.517v.299h.517zm.298.171v-.298h-.518v.298h.518zm.297.172v-.299h-.518v.299h.518zm-.22.171v-.298h.517v.298h-.517z" fill="none" stroke="#fff" stroke-width=".095" stroke-miterlimit="10"/><path d="M22.22 55.929c-.057.03-.133.037-.171.014-.038-.023-.024-.067.032-.098.056-.03.133-.037.17-.014.039.023.024.067-.032.098m-.316.037c-.251.033-.595.157-.944.35-.054.03-.126.035-.163.013-.036-.023-.023-.064.03-.094.108-.059.345-.205.228-.276-.118-.071-.38.059-.488.118-.053.03-.126.036-.162.013-.002 0-.003 0-.004-.004h-.005c-.036-.022-.022-.064.031-.094.108-.059.345-.204.227-.276-.118-.071-.38.059-.488.118-.053.03-.126.036-.162.014-.036-.023-.022-.064.031-.094.406-.224.686-.222.812-.145.074.044.101.117.033.214.17-.034.295-.015.368.029.057.035.086.087.064.154.244-.096.473-.156.665-.176.077-.195.02-.381-.19-.508-.4-.242-1.199-.176-1.786.148-.587.325-.74.784-.34 1.026.4.243 1.199.176 1.786-.148a1.34 1.34 0 0 0 .457-.382" fill="#ee2e6b"/><path d="M19.688 59.678l-.216.285.216.399v-.684z" fill="#5295a6" fill-rule="evenodd"/><path d="M14.795 57.198l4.677 2.765.216.399-5.095-2.942.202-.222z" fill="#74ccd4" fill-rule="evenodd"/><g fill="#fff"><path d="M22.234 58.367c0 .014-.008.029-.016.033-.009.005-.015-.004-.015-.016 0-.014.007-.03.016-.034.008-.005.015.005.015.017m-.028.063a.638.638 0 0 0-.037.217c0 .014-.007.028-.015.033-.008.004-.015-.005-.014-.017 0-.026-.001-.087-.028-.073-.026.015-.03.079-.03.105-.001.014-.008.028-.016.033h-.002c-.008.005-.014-.005-.014-.016 0-.027-.001-.088-.028-.073-.026.015-.03.078-.03.105 0 .013-.007.028-.016.032-.008.004-.014-.005-.014-.016.002-.102.033-.154.061-.17.017-.009.033-.006.044.017.012-.036.03-.057.046-.066.013-.007.026-.007.036.005a.557.557 0 0 1 .04-.145c-.03-.036-.07-.046-.117-.02-.09.05-.164.208-.167.354-.003.146.067.225.157.176.089-.049.164-.207.167-.353a.292.292 0 0 0-.023-.129"/><text transform="matrix(.26765 -.1559 -.0027 .43491 22.27 58.539)" style="-inkscape-font-specification:CenturyGothic-Bold" font-weight="700" font-size=".522" font-family="Century Gothic"><tspan x="0 0.49036407 0.63642997 0.97029483 1.1163608 1.4606589 1.6067247 1.8258237 1.9718895" y="0">m e p ´ s</tspan></text><text transform="matrix(.26765 -.1559 -.0027 .43491 22.937 58.15)" style="-inkscape-font-specification:CenturyGothic" font-weight="400" font-size=".522" font-family="Century Gothic"><tspan x="0 0.48932073 0.63382161 0.97290313 1.1174041 1.4747438 1.6192447 1.7235775 1.8680784 2.2097683 2.3542693 2.5566747 2.8456764 3.1847579 3.3292589 3.4930613 3.6375623 3.9766438 4.1211448 4.4586611 4.6031623 4.7800064 4.9245071 5.0288401 5.1733408 5.4623427 5.6068435 5.9485335 6.0930343 6.2954397 6.5844417 6.9402165 7.0847173 7.4018888 7.5463901 7.9021645 8.0466652 8.1509981 8.2954988 8.3998318 8.5443325 8.8818493 9.02635 9.1306829 9.2751837 9.4520283 9.596529 9.9528255 10.097326 10.254347 10.398848 10.503181 10.647681 10.989371 11.133872 11.336278" y="0">m e d i o s e f e c t i v o s p u b l i c i t a r i o s</tspan></text><text transform="matrix(.26765 -.1559 -.0027 .43491 22.274 58.672)" style="-inkscape-font-specification:CenturyGothic-Italic" font-style="italic" font-size=".202" font-family="Century Gothic"><tspan x="0 0.04554107 0.10135911 0.2903747 0.34619272 0.48362198 0.53944004 0.66195756 0.71777564 0.75807744 0.81389546 0.89208102 0.94789904 1.0855298 1.1413479 1.2642684 1.3200865 1.4581202 1.5139383 1.6459268 1.7575629 1.7978647 1.8536828 1.9917165 2.0475345 2.1785154 2.2343335 2.3719642 2.4277823" y="0">I m p u l s a n d o i d e a s</tspan></text></g><path d="M21.24 52.899l.312-.033.086.263h.36l.134.287.306-.03.064.244.291-.03.071.239.287-.015.045.206.233-.031.054.197.254-.011.071.199.25-.005.062.183.278-.015.064.212.29.01.041.182.239-.024.058.194.237-.012.066.187.218-.012.044.164.236-.02.055.188.193-.04.038.173.167-.03-.009.121-.185.107-5.106-2.936.196-.113z" fill="#74ccd4" fill-rule="evenodd"/><path d="M31.637 37.841l-3.127-1.805-1.113-.642-6.982 4.03 5.353 3.09 6.982-4.03-1.113-.643z" fill="#3a3056"/><path d="M25.533 42.321v-.683L32.18 37.8v.684l-6.647 3.837z" fill="#5295a6"/><path d="M25.533 41.638l-5.095-2.942 6.647-3.838L32.18 37.8l-6.647 3.838z" fill="#74ccd4"/><path d="M20.438 38.696v.683l5.095 2.942v-.683l-5.095-2.942z" fill="#66a5b3"/><path d="M24.441 39.755v-.299h-.517v.299h.517zm.298.172v-.299h-.518v.299h.518zm.297.171V39.8h-.518v.298h.518zm.297.172v-.299h-.518v.299h.518zm.297.171v-.298h-.518v.298h.518zm.297.172v-.299h-.517v.299h.517zm.297.171v-.298h-.517v.298h.517zm.297.172v-.299h-.517v.299h.517zm-4.457-2.573v-.299h-.517v.299h.517zm.298.171v-.298h-.518v.298h.518zm.297.172v-.299h-.518v.299h.518zm.297.171V38.6h-.518v.298h.518zm.297.172v-.299h-.517v.299h.517zm.297.171v-.298h-.517v.298h.517zm.297.172v-.299h-.517v.299h.517zm-.22.171v-.298h.517v.299h-.517z" fill="none" stroke="#fff" stroke-width=".095" stroke-miterlimit="10"/><path d="M28.064 37.888c-.056.031-.132.038-.17.014-.038-.023-.024-.066.032-.097s.133-.038.17-.015c.039.023.024.067-.032.098m-.316.037c-.251.034-.595.157-.944.35-.054.03-.126.035-.163.013-.036-.022-.023-.064.03-.093.108-.06.345-.205.228-.277-.118-.071-.38.06-.488.118-.053.03-.126.036-.162.014-.002 0-.003 0-.004-.005h-.004c-.037-.022-.023-.064.03-.093.108-.06.345-.205.227-.276-.117-.072-.38.058-.487.118-.054.03-.126.035-.163.013-.036-.022-.022-.064.031-.093.406-.224.686-.222.813-.145.073.044.1.117.033.213.17-.034.294-.015.367.03.057.034.086.086.064.154.244-.096.473-.156.666-.176.076-.195.018-.382-.19-.508-.4-.243-1.2-.176-1.787.148-.587.324-.739.784-.34 1.026.4.242 1.2.176 1.786-.148.21-.116.364-.249.457-.383" fill="#ee2e6b"/><path d="M25.533 41.638l-.216.285.216.398v-.683z" fill="#5295a6" fill-rule="evenodd"/><path d="M20.64 39.157l4.677 2.766.216.398-5.095-2.942.202-.222z" fill="#74ccd4" fill-rule="evenodd"/><g fill="#fff"><path d="M28.079 40.326c0 .014-.008.03-.016.034-.009.005-.016-.005-.015-.017 0-.014.007-.029.016-.033.008-.005.015.004.015.017m-.028.063a.63.63 0 0 0-.037.217c0 .013-.007.027-.015.032-.008.005-.015-.005-.014-.016 0-.027-.002-.088-.028-.073-.026.014-.03.078-.03.105 0 .013-.008.028-.016.032h-.002c-.008.005-.014-.004-.014-.015 0-.027-.001-.088-.028-.073-.026.014-.03.078-.03.105 0 .013-.007.027-.016.032-.008.005-.014-.005-.014-.016.002-.101.033-.154.061-.17.017-.009.034-.006.044.018.012-.037.03-.058.046-.067.013-.007.026-.007.036.005a.568.568 0 0 1 .04-.145c-.029-.036-.07-.045-.117-.02-.09.05-.164.208-.167.354-.003.147.067.226.157.177.09-.05.164-.208.166-.354a.296.296 0 0 0-.022-.128"/><text transform="matrix(.26765 -.1559 -.0027 .43491 28.115 40.498)" style="-inkscape-font-specification:CenturyGothic-Bold" font-weight="700" font-size=".522" font-family="Century Gothic"><tspan x="0 0.49036407 0.63642997 0.97029483 1.1163608 1.4606589 1.6067247 1.8258237 1.9718895" y="0">m e p ´ s</tspan></text><text transform="matrix(.26765 -.1559 -.0027 .43491 28.782 40.11)" style="-inkscape-font-specification:CenturyGothic" font-weight="400" font-size=".522" font-family="Century Gothic"><tspan x="0 0.48932073 0.63382161 0.97290313 1.1174041 1.4747438 1.6192447 1.7235775 1.8680784 2.2097683 2.3542693 2.5566747 2.8456764 3.1847579 3.3292589 3.4930613 3.6375623 3.9766438 4.1211448 4.4586611 4.6031623 4.7800064 4.9245071 5.0288401 5.1733408 5.4623427 5.6068435 5.9485335 6.0930343 6.2954397 6.5844417 6.9402165 7.0847173 7.4018888 7.5463901 7.9021645 8.0466652 8.1509981 8.2954988 8.3998318 8.5443325 8.8818493 9.02635 9.1306829 9.2751837 9.4520283 9.596529 9.9528255 10.097326 10.254347 10.398848 10.503181 10.647681 10.989371 11.133872 11.336278" y="0">m e d i o s e f e c t i v o s p u b l i c i t a r i o s</tspan></text><text transform="matrix(.26765 -.1559 -.0027 .43491 28.12 40.632)" style="-inkscape-font-specification:CenturyGothic-Italic" font-style="italic" font-size=".202" font-family="Century Gothic"><tspan x="0 0.04554107 0.10135911 0.2903747 0.34619272 0.48362198 0.53944004 0.66195756 0.71777564 0.75807744 0.81389546 0.89208102 0.94789904 1.0855298 1.1413479 1.2642684 1.3200865 1.4581202 1.5139383 1.6459268 1.7575629 1.7978647 1.8536828 1.9917165 2.0475345 2.1785154 2.2343335 2.3719642 2.4277823" y="0">I m p u l s a n d o i d e a s</tspan></text></g><path d="M27.085 34.858l.312-.032.086.262h.36l.134.288.306-.03.065.243.29-.03.072.24.286-.016.045.207.233-.032.054.197.254-.011.071.2.25-.005.062.182.278-.015.064.212.29.01.042.182.238-.023.058.194.237-.012.066.187.218-.012.044.164.236-.02.055.188.193-.04.038.173.167-.03-.009.12-.185.108-5.106-2.936.196-.113z" fill="#74ccd4" fill-rule="evenodd"/><path d="M15.798 47.136l-3.126-1.805-1.113-.643-6.982 4.031 5.352 3.09 6.982-4.03-1.113-.643z" fill="#3a3056"/><path d="M9.695 51.616v-.684l6.647-3.837v.683l-6.647 3.838z" fill="#5295a6"/><path d="M9.695 50.932L4.6 47.99l6.646-3.837 5.096 2.942-6.647 3.837z" fill="#74ccd4"/><path d="M4.6 47.99v.684l5.095 2.942v-.684L4.6 47.99z" fill="#66a5b3"/><path d="M8.602 49.05v-.298h-.517v.298h.517zm.297.172v-.299h-.517v.299h.517zm.297.171v-.298H8.68v.298h.517zm.297.172v-.299h-.517v.299h.517zm.297.171v-.298h-.517v.298h.517zm.298.172v-.299H9.57v.299h.518zm.297.171v-.298h-.518v.298h.518zm.297.172v-.299h-.517v.299h.517zm-4.457-2.573v-.299h-.517v.299h.517zm.297.171v-.298h-.517v.298h.517zm.297.172v-.299h-.517v.299h.517zm.297.171v-.298H6.6v.298h.517zm.297.172v-.299h-.517v.299h.517zm.298.172v-.3h-.518v.3h.518zm.297.171v-.299H7.49v.3h.518zm-.22.172v-.299h.517v.299h-.517z" fill="none" stroke="#fff" stroke-width=".095" stroke-miterlimit="10"/><path d="M12.226 47.183c-.056.03-.132.037-.17.014-.039-.023-.024-.067.032-.098.056-.03.132-.037.17-.014.039.023.024.067-.032.098m-.316.037c-.252.033-.596.157-.944.35-.054.029-.127.035-.163.013-.037-.023-.023-.064.03-.094.108-.06.345-.205.227-.276-.117-.072-.38.059-.487.118-.054.03-.126.036-.163.013-.001 0-.002 0-.003-.004-.002 0-.004 0-.004-.005-.037-.022-.023-.064.03-.093.108-.06.345-.205.227-.277-.117-.07-.38.06-.487.119-.054.03-.127.035-.163.013-.036-.022-.022-.064.031-.093.406-.225.686-.222.813-.146.073.045.1.118.033.214.17-.034.294-.015.367.03.057.034.086.086.064.154.244-.096.473-.157.665-.176.077-.195.02-.382-.19-.508-.4-.243-1.199-.176-1.786.148-.587.324-.74.784-.34 1.026.4.242 1.199.176 1.786-.149a1.34 1.34 0 0 0 .457-.382" fill="#ee2e6b"/><path d="M9.695 50.932l-.216.285.216.399v-.684z" fill="#5295a6" fill-rule="evenodd"/><path d="M4.801 48.452l4.678 2.765.216.399L4.6 48.674l.201-.222z" fill="#74ccd4" fill-rule="evenodd"/><g fill="#fff"><path d="M12.24 49.62c0 .014-.007.03-.016.034-.008.005-.015-.004-.014-.016 0-.014.007-.03.015-.034.009-.005.016.005.015.017m-.027.064a.637.637 0 0 0-.037.216c0 .014-.007.028-.015.033-.008.004-.015-.005-.015-.017 0-.026 0-.087-.027-.073-.026.015-.03.079-.031.105 0 .014-.007.028-.015.033h-.002c-.008.005-.015-.005-.014-.016 0-.027-.001-.088-.028-.073-.026.014-.03.078-.03.105 0 .013-.008.028-.016.032-.008.005-.014-.004-.014-.016.002-.1.033-.153.061-.169.017-.01.033-.006.044.017.012-.036.03-.057.046-.066.013-.007.026-.007.036.004a.556.556 0 0 1 .04-.145c-.03-.035-.07-.045-.118-.019-.089.049-.164.208-.166.354-.003.146.067.225.156.176.09-.049.165-.207.167-.354a.292.292 0 0 0-.022-.128"/><text transform="matrix(.26765 -.1559 -.0027 .43491 12.276 49.793)" style="-inkscape-font-specification:CenturyGothic-Bold" font-weight="700" font-size=".522" font-family="Century Gothic"><tspan x="0 0.49036407 0.63642997 0.97029483 1.1163608 1.4606589 1.6067247 1.8258237 1.9718895" y="0">m e p ´ s</tspan></text><text transform="matrix(.26765 -.1559 -.0027 .43491 12.943 49.404)" style="-inkscape-font-specification:CenturyGothic" font-weight="400" font-size=".522" font-family="Century Gothic"><tspan x="0 0.48932073 0.63382161 0.97290313 1.1174041 1.4747438 1.6192447 1.7235775 1.8680784 2.2097683 2.3542693 2.5566747 2.8456764 3.1847579 3.3292589 3.4930613 3.6375623 3.9766438 4.1211448 4.4586611 4.6031623 4.7800064 4.9245071 5.0288401 5.1733408 5.4623427 5.6068435 5.9485335 6.0930343 6.2954397 6.5844417 6.9402165 7.0847173 7.4018888 7.5463901 7.9021645 8.0466652 8.1509981 8.2954988 8.3998318 8.5443325 8.8818493 9.02635 9.1306829 9.2751837 9.4520283 9.596529 9.9528255 10.097326 10.254347 10.398848 10.503181 10.647681 10.989371 11.133872 11.336278" y="0">m e d i o s e f e c t i v o s p u b l i c i t a r i o s</tspan></text><text transform="matrix(.26765 -.1559 -.0027 .43491 12.281 49.926)" style="-inkscape-font-specification:CenturyGothic-Italic" font-style="italic" font-size=".202" font-family="Century Gothic"><tspan x="0 0.04554107 0.10135911 0.2903747 0.34619272 0.48362198 0.53944004 0.66195756 0.71777564 0.75807744 0.81389546 0.89208102 0.94789904 1.0855298 1.1413479 1.2642684 1.3200865 1.4581202 1.5139383 1.6459268 1.7575629 1.7978647 1.8536828 1.9917165 2.0475345 2.1785154 2.2343335 2.3719642 2.4277823" y="0">I m p u l s a n d o i d e a s</tspan></text></g><path d="M11.246 44.153l.312-.033.087.263h.36l.134.287.305-.03.065.244.291-.03.071.239.286-.016.046.207.233-.031.053.197.254-.012.072.2.25-.005.062.183.277-.015.065.212.29.01.041.181.239-.023.058.194.236-.012.067.187.218-.012.044.163.236-.019.055.187.192-.04.039.174.167-.03-.01.12-.185.108-5.105-2.937.195-.112z" fill="#74ccd4" fill-rule="evenodd"/></svg>