<svg xmlns="http://www.w3.org/2000/svg" width="5.333" height="7.454" viewBox="0 0 4.9999981 6.9881716"><path d="M2.328 3.418l1.277.803-2.328 1.396L0 4.814l2.328-1.396z" fill="#393151"/><path d="M1.389 1.812v3.661l-.815-.47V1.342l.815.47z" fill="#aa5b7f"/><path d="M.9 4.814l-.326.189.815.47L.9 4.814z" fill="#5295a6"/><path d="M2.805.054v3.66L.574 5.005V1.341l.038-.112.04.043.06-.112.058.041.067-.106.043.04.059-.106.05.041.053-.099.04.042.046-.09.038.039.059-.09.031.039.05-.089.035.05.053-.1.036.048.056-.101.036.044.053-.094.036.036.057-.085.036.041.053-.082.05.021.054-.088.036.039.057-.097.036.04.056-.088.035.035.064-.097.04.036.066-.107.053.043.058-.089L2.4.26l.06-.104.04.034.052-.092.036.044.065-.093.044.036.03-.07.039.045.011-.06.028.054z" fill="#253d39"/><path d="M.574 1.342l.355.205L.9 4.814l-.326.189V1.342z" fill="#818181"/><path d="M1.389 1.812v3.661L.9 4.814l.03-3.267.46.265zM2.805.054l.355.205.46.265v3.661l-.489-.66-.326.19V.053z" fill="#0d687d"/><path d="M3.62.524v3.661L1.389 5.473v-3.66l.038-.112.04.042.06-.112.058.042.067-.107.043.041.06-.107.048.041.055-.098.039.04.046-.088.038.038.059-.09.031.039.051-.089.035.05.052-.1.036.049.056-.102.036.044.053-.094.036.037.057-.086.037.041.052-.082.051.021.053-.088.036.04.057-.098.036.04.056-.087.035.034.064-.097.04.036.067-.106.052.042L3.177.7l.04.03.06-.103.038.033.052-.092.036.045.065-.094.044.036.03-.069.039.044.011-.059.028.054z" fill="#95a6a5"/><path d="M2.594 2.927v1.611l-.982.567v-1.61l.982-.568m.466.697v.62l-.377.217v-.62l.378-.217m.416-1.544v.245L1.586 3.417v-.245L3.477 2.08m0-.385v.245L1.586 3.032v-.245l1.891-1.092m0-.385v.245L1.586 2.646v-.244L3.477 1.31" fill="#0d687d"/><path d="M2.42 3.529c0 .024-.013.05-.028.058-.014.008-.026-.005-.025-.03 0-.023.012-.05.027-.058s.027.005.026.03m-.048.111a1.099 1.099 0 0 0-.064.375c0 .023-.012.048-.026.055-.014.008-.025-.004-.025-.027.001-.047-.002-.152-.047-.127-.046.025-.053.136-.054.182 0 .023-.012.048-.026.056h-.002l-.001.002c-.014.007-.026-.005-.025-.028 0-.047-.002-.152-.048-.127-.045.025-.052.136-.053.182 0 .023-.012.048-.027.056-.014.008-.025-.005-.024-.028.003-.175.057-.266.106-.293.028-.016.057-.011.076.03.02-.063.05-.1.08-.115.021-.013.044-.012.062.008a.976.976 0 0 1 .068-.251c-.05-.062-.121-.079-.202-.034-.155.085-.285.36-.29.613-.004.253.117.39.272.305.155-.085.284-.36.29-.613a.507.507 0 0 0-.04-.222" fill="#fff"/><path d="M4.095 4.375l-.496.312.904.541.495-.312-.903-.541z" fill="#393151"/><path d="M4.45 5.163l.22-.118-.25-2.043-.218.135.249 2.026z" fill="#c86c8d"/><path d="M3.66 4.707l.79.456-.248-2.026-.293-.169-.249 1.739z" fill="#aa5b7f"/><path d="M4.42 3.002l-.218.135-.293-.169.22-.135.292.17z" fill="#c86c8d"/><path d="M4.344 3.064l-.139.085-.185-.107.139-.085.185.107z" fill="#93466c"/><path d="M3.706 2.416a.028.028 0 1 0 .051-.024.028.028 0 0 0-.051.025" fill="#f6917a"/><path d="M4.145 3.124S4.33 1.62 4.61 1.37l-.465 1.754z" fill="#63c4b0"/><path d="M4.59 1.604a.406.406 0 0 0-.193.196s.145.064.274.013a.4.4 0 0 0 .192-.196s-.145-.063-.274-.013m-.118.501c-.128.05-.192.196-.192.196s.145.064.274.013a.4.4 0 0 0 .192-.195s-.145-.064-.274-.014m-.088.502a.4.4 0 0 0-.192.195.4.4 0 0 0 .274.013.405.405 0 0 0 .192-.195s-.145-.064-.274-.013m.057-1.144c.049.13-.016.274-.016.274s-.145-.065-.194-.195c-.048-.13.017-.274.017-.274s.144.065.193.195m.304-.123a.26.26 0 0 1-.163.07s-.004-.102.056-.168c.06-.066.163-.07.163-.07s.005.102-.056.168" fill="#63c4b0"/><path d="M4.624 1.282c.01.064-.032.123-.032.123s-.06-.043-.07-.106a.187.187 0 0 1 .032-.123s.06.043.07.106m-.414.674c.096.101.09.26.09.26s-.158-.005-.253-.106c-.094-.1-.09-.26-.09-.26s.159.005.254.106m-.089.413c.095.1.09.26.09.26s-.158-.006-.253-.106c-.095-.101-.09-.26-.09-.26s.158.005.253.106m-.202.322c.094.036.14.141.14.141s-.104.047-.198.011c-.094-.036-.14-.14-.14-.14s.104-.048.198-.012m.152.047a.216.216 0 0 0 .017.146s.075-.039.097-.11a.216.216 0 0 0-.017-.146s-.075.04-.097.11" fill="#63c4b0"/><path d="M4.223 3.134s-.272-.527-.41-.685l.41.685zm-.142-.556a.164.164 0 0 1-.087.07s-.02-.061.006-.111c.026-.05.087-.07.087-.07s.02.061-.006.111" fill="#63c4b0"/><path d="M4.658 5.55l-.962-.555-.343-.198-2.148 1.24 1.647.951L5 5.748l-.342-.198z" fill="#3a3056"/><path d="M2.78 6.929v-.21l2.045-1.182v.21L2.78 6.93z" fill="#7bb34e"/><path d="M2.78 6.718l-1.568-.905 2.045-1.18 1.568.904L2.78 6.718z" fill="#88c24c"/><path d="M1.212 5.813v.21l1.568.906v-.21l-1.568-.906z" fill="#7bb34e"/><path d="M2.438 6.156v-.094h-.164v.094h.164zm.094.054v-.094h-.164v.094h.164zm.094.055V6.17h-.163v.095h.163zm.094.054v-.095h-.163v.095h.163zm.094.054V6.28h-.163v.094h.163zm.094.055v-.095h-.163v.095h.163zm.094.054v-.095H2.84v.095h.163zm.094.054v-.094h-.163v.094h.163zm-1.41-.814v-.095h-.164v.095h.164zm.094.054v-.095h-.164v.095h.164zm.094.054v-.094H1.71v.094h.164zm.094.055V5.79h-.164v.095h.164zm.094.054v-.095h-.164v.095h.164zm.094.054V5.9h-.164v.094h.164zm.094.054v-.094h-.164v.094h.164zm-.07.055v-.095h.164v.095H2.18z" fill="none" stroke="#7bb34e" stroke-width=".025" stroke-miterlimit="10"/><path d="M3.558 5.565c-.017.01-.04.011-.052.004-.012-.007-.007-.02.01-.03.017-.01.04-.012.052-.005.012.008.008.021-.01.03m-.097.012a.894.894 0 0 0-.29.108c-.017.009-.04.01-.05.004-.012-.007-.008-.02.009-.03.033-.017.106-.062.07-.084-.037-.022-.117.018-.15.036-.017.01-.04.011-.05.004h-.001l-.002-.001c-.011-.007-.007-.02.01-.029.033-.018.106-.063.07-.085-.037-.022-.118.018-.15.036-.017.01-.04.011-.05.005-.012-.007-.007-.02.009-.03.125-.068.211-.067.25-.044.022.014.03.036.01.066.052-.01.09-.005.113.009.018.01.027.027.02.047a.794.794 0 0 1 .205-.054c.023-.06.005-.117-.059-.156-.123-.075-.369-.054-.55.046-.18.1-.227.24-.104.315.123.075.369.054.55-.045a.413.413 0 0 0 .14-.118" fill="#ee2e6b"/><path d="M1.212 5.813l.062.142-.062.068v-.21zm1.568.905l-.067.088.067.123v-.21z" fill="#0d687d"/><path d="M1.274 5.955l1.439.851.067.123-1.568-.906.062-.068z" fill="#88c24c"/><g fill="#fff"><path d="M3.563 6.315c0 .004-.003.009-.005.01-.003.002-.005 0-.005-.005 0-.004.003-.009.005-.01.003-.002.005 0 .005.005m-.009.019a.195.195 0 0 0-.011.067c0 .004-.002.009-.005.01-.002.001-.004 0-.004-.005 0-.008 0-.027-.009-.022-.008.004-.009.024-.01.032 0 .004-.001.008-.004.01-.003.001-.005 0-.005-.005 0-.008 0-.027-.008-.022-.008.004-.01.024-.01.032 0 .004-.002.009-.004.01-.003.001-.005-.001-.005-.005 0-.031.01-.047.02-.052.004-.003.01-.002.013.005.003-.011.009-.018.014-.02.004-.002.008-.002.01.001a.173.173 0 0 1 .013-.044c-.009-.011-.022-.014-.036-.006-.028.015-.05.063-.051.108-.001.045.02.07.048.055.027-.015.05-.064.051-.11a.09.09 0 0 0-.007-.039"/><text transform="matrix(.00736 -.00429 -.00007 .01196 3.574 6.368)" style="-inkscape-font-specification:CenturyGothic-Bold" font-weight="700" font-size="5.868" font-family="Century Gothic"><tspan x="0 5.5161533 7.1592627 10.914941 12.558051 16.431095 18.074203 20.538868 22.181978" y="0">m e p ´ s</tspan></text><text transform="matrix(.00736 -.00429 -.00007 .01196 3.78 6.248)" style="-inkscape-font-specification:CenturyGothic" font-weight="400" font-size="5.868" font-family="Century Gothic"><tspan x="0 5.5044165 7.1299214 10.944283 12.569787 16.589537 18.215042 19.388691 21.014196 24.857899 26.483402 28.760283 32.011292 35.825653 37.45116 39.293789 40.919292 44.733654 46.359158 50.155914 51.781422 53.770756 55.396259 56.569912 58.195415 61.446426 63.07193 66.915634 68.541138 70.818016 74.069023 78.071175 79.696678 83.264572 84.890076 88.89222 90.517723 91.691376 93.316879 94.490532 96.116035 99.912788 101.53829 102.71194 104.33745 106.32678 107.95229 111.9603 113.58581 115.35215 116.97765 118.15131 119.77681 123.62051 125.24602 127.5229" y="0">m e d i o s e f e c t i v o s p u b l i c i t a r i o s</tspan></text><text transform="matrix(.00736 -.00429 -.00007 .01196 3.575 6.409)" style="-inkscape-font-specification:CenturyGothic-Italic" font-style="italic" font-size="2.279" font-family="Century Gothic"><tspan x="0 0.51499712 1.1462104 3.2836764 3.9148898 5.468996 6.1002097 7.4856887 8.1169014 8.5726519 9.2038651 10.088019 10.719233 12.275618 12.906831 14.296867 14.928081 16.489023 17.120237 18.612818 19.875244 20.330994 20.962206 22.523149 23.154362 24.63555 25.266762 26.823147 27.454361" y="0">I m p u l s a n d o i d e a s</tspan></text></g><path d="M3.257 4.632l.096-.01.027.081h.11l.041.088.095-.01.02.076.089-.01.022.074.088-.005.014.064.072-.01.016.06.078-.003.022.062.077-.001.02.056.085-.005.02.066.088.003.013.056.074-.007.018.06.072-.004.021.057.067-.004.014.05.072-.005.017.057.06-.012.011.053.051-.009-.002.037-.057.033-1.571-.903.06-.035z" fill="#88c24c"/><path d="M3.737 2.41l-.006-.005v-.001a.053.053 0 0 0 .006.006zm-.14.09a.083.083 0 0 0 .129.027.083.083 0 1 0 .128-.106.083.083 0 0 0-.09-.14.083.083 0 0 0-.03.027.083.083 0 1 0-.128.106.083.083 0 0 0-.009.086" fill="#ee3338"/></svg>