<svg xmlns="http://www.w3.org/2000/svg" width="120.926" height="169.01" viewBox="0 0 113.36804 158.44723"><path d="M52.78 77.488l28.962 18.226-52.78 31.654L0 109.14l52.78-31.653z" fill="#393151"/><path d="M31.488 41.096V124.1l-18.481-10.67V30.426l18.48 10.67z" fill="#aa5b7f"/><path d="M20.412 109.155l-7.406 4.276L31.488 124.1l-11.076-14.945z" fill="#f8aea0" fill-rule="evenodd"/><path d="M63.596 1.225V84.23l-50.591 29.21V30.433l.872-2.537.894.968 1.378-2.55 1.304.949 1.527-2.421.969.931 1.34-2.421 1.118.931 1.229-2.235.894.932 1.043-2.012.856.857 1.341-2.048.708.893 1.155-2.01.782 1.117 1.192-2.272.819 1.117 1.266-2.31.82 1.006 1.192-2.123.819.82 1.304-1.937.82.931 1.19-1.862 1.156.484 1.191-2.011.82.894 1.303-2.198.807.894 1.28-1.974.781.782 1.453-2.197.931.82 1.49-2.422 1.192.968 1.303-2.01.894.707 1.378-2.347.857.745 1.192-2.085.82 1.005 1.461-2.114.997.81.67-1.564.894 1.006.26-1.341.629 1.225z" fill="#f8aea0"/><path d="M13.006 30.426l8.057 4.651-.65 74.078-7.407 4.276V30.426z" fill="#fdc282" fill-rule="evenodd"/><path d="M31.488 41.096V124.1l-11.076-14.945.65-74.078 10.426 6.019zm32.108-39.88l8.056 4.651 10.425 6.019V94.89L71 79.945l-7.405 4.276V1.216z" fill="#ca633a" fill-rule="evenodd"/><path d="M82.079 11.887v83.004L31.488 124.1V41.096l.873-2.537.893.968 1.378-2.551 1.304.95 1.527-2.421.968.931 1.341-2.421 1.118.931 1.229-2.235.894.931 1.043-2.01.856.856 1.341-2.049.708.894 1.154-2.01.783 1.116 1.192-2.272.819 1.118 1.266-2.31.82 1.006 1.192-2.123.819.82 1.304-1.937.819.931 1.192-1.862 1.154.484 1.192-2.011.82.894 1.303-2.198.807.894 1.28-1.974.781.782 1.453-2.197.931.819 1.49-2.421 1.192.968 1.303-2.01.894.707L74.3 14.2l.857.745 1.192-2.086.82 1.006 1.461-2.114.997.81.67-1.564.894 1.006.26-1.341.629 1.225z" fill="#fdc282"/><path d="M58.82 66.367V102.9l-22.267 12.856V79.223l22.268-12.856m10.578 15.801v14.046l-8.562 4.943V87.11l8.562-4.942m9.436-35.001v5.546L35.957 77.468v-5.545l42.878-24.756m0-8.732v5.545L35.957 68.736V63.19l42.878-24.755m0-8.733v5.546L35.957 60.004v-5.546l42.878-24.756" fill="#ca633a"/><path d="M54.872 80.006c-.01.548-.29 1.143-.626 1.327-.335.184-.598-.113-.587-.662.01-.549.29-1.143.625-1.326.335-.185.598.112.588.66m-1.082 2.51c-.831 2.007-1.386 5.094-1.45 8.51-.01.523-.277 1.089-.597 1.264h-.006c-.32.175-.571-.106-.561-.63.02-1.051-.045-3.437-1.08-2.869-1.035.567-1.193 3.075-1.213 4.127-.01.523-.277 1.09-.596 1.264-.012.007-.024.011-.035.016-.012.008-.024.017-.036.023-.319.175-.57-.106-.56-.63.02-1.051-.046-3.437-1.08-2.869-1.035.568-1.194 3.076-1.214 4.127-.01.524-.276 1.09-.596 1.265-.32.175-.57-.107-.56-.63.075-3.976 1.292-6.046 2.405-6.656.643-.353 1.302-.245 1.73.671.472-1.41 1.148-2.25 1.79-2.603.504-.276 1.018-.268 1.422.187.332-2.226.866-4.183 1.547-5.696-1.122-1.404-2.754-1.775-4.591-.767-3.512 1.927-6.447 8.15-6.556 13.9-.108 5.75 2.65 8.85 6.161 6.923 3.512-1.926 6.447-8.15 6.556-13.9.039-2.049-.287-3.762-.882-5.03" fill="#fff"/><path d="M92.849 99.19l-11.239 7.072 20.482 12.284 11.239-7.074L92.849 99.19z" fill="#393151"/><path d="M100.91 117.063l4.97-2.676-5.642-46.314-4.97 3.058 5.642 45.932z" fill="#c86c8d"/><path d="M82.995 106.72l17.915 10.343-5.641-45.932-6.633-3.83-5.641 39.419z" fill="#975579"/><path d="M100.238 68.073l-4.97 3.058-6.632-3.829 4.97-3.058 6.632 3.829z" fill="#c86c8d"/><path d="M98.494 69.46l-3.148 1.938-4.201-2.426 3.148-1.937 4.2 2.426z" fill="#93466c"/><path d="M84.037 54.785a.643.643 0 1 0 1.158-.56.644.644 0 0 0-1.158.56" fill="#f6917a"/><path d="M93.991 70.825s4.177-34.083 10.526-39.765L93.99 70.825z" fill="#63c4b0"/><path d="M104.054 36.377c-2.92 1.147-4.363 4.442-4.363 4.442s3.296 1.44 6.219.296c2.921-1.148 4.36-4.443 4.36-4.443s-3.295-1.437-6.216-.295m-2.674 11.361c-2.919 1.145-4.36 4.44-4.36 4.44s3.293 1.441 6.217.297c2.921-1.144 4.36-4.44 4.36-4.44s-3.294-1.44-6.216-.297m-2.006 11.364c-2.92 1.144-4.36 4.44-4.36 4.44s3.295 1.436 6.213.293c2.923-1.146 4.363-4.44 4.363-4.44s-3.294-1.438-6.216-.293m1.301-25.93c1.105 2.936-.377 6.213-.377 6.213s-3.273-1.485-4.38-4.422c-1.107-2.935.377-6.21.377-6.21s3.273 1.482 4.38 4.42m6.892-2.794c-1.37 1.495-3.69 1.592-3.69 1.592s-.1-2.32 1.27-3.811c1.37-1.495 3.689-1.594 3.689-1.594s.102 2.32-1.269 3.813" fill="#63c4b0"/><path d="M104.846 29.078c.234 1.434-.738 2.786-.738 2.786s-1.352-.974-1.584-2.406c-.235-1.434.733-2.783.733-2.783s1.356.968 1.589 2.403m-9.373 15.277c2.15 2.285 2.04 5.881 2.04 5.881s-3.598-.11-5.746-2.396c-2.149-2.287-2.036-5.88-2.036-5.88s3.59.11 5.742 2.395m-2.006 9.355c2.152 2.286 2.042 5.882 2.042 5.882s-3.598-.11-5.745-2.395c-2.15-2.288-2.042-5.88-2.042-5.88s3.595.11 5.745 2.393m-4.585 7.306c2.126.815 3.191 3.197 3.191 3.197s-2.381 1.063-4.508.252c-2.125-.815-3.19-3.198-3.19-3.198s2.38-1.061 4.507-.25m3.439 1.073c-.504 1.602.39 3.31.39 3.31s1.709-.894 2.21-2.498c.505-1.603-.388-3.31-.388-3.31s-1.707.892-2.212 2.498" fill="#63c4b0"/><path d="M95.76 71.065s-6.186-11.949-9.316-15.536l9.316 15.536zm-3.229-12.603c-.582 1.131-1.973 1.575-1.973 1.575s-.443-1.39.14-2.521c.586-1.13 1.975-1.574 1.975-1.574s.443 1.387-.142 2.52" fill="#63c4b0"/><path d="M105.603 125.84l-21.811-12.592-7.766-4.483-48.71 28.123 37.342 21.56 48.71-28.124-7.765-4.483z" fill="#3a3056"/><path d="M63.023 157.095v-4.769l46.37-26.772v4.769l-46.37 26.772z" fill="#5295a6"/><path d="M63.023 152.326l-35.547-20.524 46.37-26.772 35.548 20.524-46.37 26.772z" fill="#74ccd4"/><path d="M27.476 131.802v4.77l35.547 20.523v-4.77l-35.547-20.523z" fill="#66a5b3"/><path d="M55.241 139.558v-2.084h-3.608v2.084h3.608zm2.073 1.196v-2.083h-3.608v2.083h3.608zm2.072 1.197v-2.083h-3.608v2.083h3.608zm2.073 1.197v-2.084h-3.608v2.084h3.608zm2.073 1.196v-2.083h-3.609v2.083h3.609zm2.073 1.197v-2.083h-3.609v2.083h3.609zm2.072 1.196v-2.083h-3.608v2.083h3.608zm2.073 1.197v-2.083h-3.61v2.083h3.609zm-31.09-17.95v-2.083h-3.61v2.083h3.609zm2.073 1.197v-2.083h-3.609v2.083h3.609zm2.072 1.197v-2.084h-3.608v2.084h3.608zm2.073 1.196v-2.083h-3.609v2.083h3.609zm2.072 1.197v-2.083h-3.608v2.083h3.608zm2.073 1.197v-2.084h-3.608v2.084h3.608zm2.073 1.196v-2.083h-3.609v2.083h3.609zm-1.536 1.197v-2.083h3.608v2.083H49.56z" fill="none" stroke="#fff" stroke-width=".663" stroke-miterlimit="10"/><path d="M80.68 126.168c-.39.216-.923.26-1.19.1-.265-.162-.163-.468.228-.684.391-.216.923-.26 1.189-.099.266.162.165.467-.226.683m-2.208.259c-1.753.231-4.153 1.096-6.586 2.44-.373.206-.88.248-1.134.094h-.006c-.254-.154-.158-.445.215-.651.75-.414 2.403-1.43 1.582-1.929-.82-.498-2.652.411-3.4.825-.374.206-.881.248-1.134.094l-.026-.018c-.01-.006-.021-.01-.03-.016-.254-.154-.158-.445.215-.651.75-.414 2.403-1.43 1.582-1.928-.82-.499-2.652.41-3.4.824-.374.206-.881.248-1.134.094-.254-.154-.157-.445.216-.651 2.832-1.564 4.785-1.549 5.668-1.013.51.31.701.818.23 1.492 1.186-.24 2.053-.106 2.563.203.4.242.603.607.447 1.078 1.703-.672 3.299-1.092 4.642-1.228.533-1.362.13-2.662-1.327-3.547-2.786-1.69-8.365-1.226-12.46 1.036-4.096 2.262-5.159 5.467-2.373 7.157 2.787 1.691 8.365 1.228 12.46-1.035 1.46-.806 2.535-1.733 3.187-2.667" fill="#ee2e6b"/><path d="M63.023 152.326l-1.51 1.99 1.51 2.779v-4.769z" fill="#5295a6" fill-rule="evenodd"/><path d="M28.881 135.021l32.632 19.295 1.51 2.779-35.547-20.524 1.405-1.55z" fill="#74ccd4" fill-rule="evenodd"/><g fill="#fff"><path d="M80.78 143.177c-.001.097-.051.203-.11.236-.06.032-.107-.02-.105-.118.002-.097.051-.203.111-.235.06-.033.106.02.105.117m-.192.446c-.148.356-.247.904-.258 1.51-.002.094-.05.194-.106.225-.057.032-.102-.018-.1-.111.003-.187-.008-.61-.192-.51-.184.101-.212.547-.215.733-.002.093-.05.194-.106.225l-.007.003c-.002 0-.004.004-.006.004-.057.031-.101-.019-.1-.112.004-.186-.007-.61-.191-.51-.184.102-.212.547-.216.734-.001.093-.049.193-.106.224-.056.032-.1-.019-.1-.112.014-.706.23-1.073.428-1.182.114-.062.231-.043.307.12.084-.25.204-.4.318-.463.09-.049.18-.047.253.034.059-.396.153-.743.274-1.012-.199-.25-.489-.315-.815-.136-.624.342-1.145 1.447-1.164 2.468-.02 1.022.47 1.572 1.094 1.23.624-.342 1.145-1.447 1.164-2.468.007-.365-.05-.669-.156-.894"/><text style="-inkscape-font-specification:CenturyGothic-Bold" transform="matrix(.19197 -.11182 -.00194 .31193 81.03 144.376)" font-weight="700" font-size="5.1" font-family="Century Gothic"><tspan y="0" x="0 4.7938838 6.2218494 9.4857702 10.913736 14.279655 15.70762 17.849567 19.277534">m e p ´ s</tspan></text><text style="-inkscape-font-specification:CenturyGothic" transform="matrix(.19197 -.11182 -.00194 .31193 85.704 141.654)" font-weight="400" font-size="5.1" font-family="Century Gothic"><tspan y="0" x="0 4.7836843 6.1963501 9.5112696 10.923936 14.417351 15.830017 16.849993 18.262659 21.603077 23.015743 24.994495 27.819826 31.134747 32.547413 34.148773 35.56144 38.876358 40.289024 43.588646 45.001312 46.730171 48.142834 49.162811 50.575478 53.400806 54.813473 58.153893 59.566559 61.545311 64.370644 67.848755 69.261421 72.362152 73.774818 77.25293 78.665596 79.68557 81.098236 82.11821 83.530876 86.830498 88.243164 89.263138 90.675804 92.404663 93.817329 97.300545 98.713211 100.24828 101.66094 102.68092 104.09358 107.434 108.84666 110.82542">m e d i o s e f e c t i v o s p u b l i c i t a r i o s</tspan></text><text style="-inkscape-font-specification:CenturyGothic-Italic" transform="matrix(.19197 -.11182 -.00194 .31193 81.064 145.308)" font-style="italic" font-size="1.981" font-family="Century Gothic"><tspan y="0" x="0 0.44774958 0.99654001 2.8548989 3.4036894 4.7548628 5.3036532 6.5082183 7.0570087 7.4532475 8.002038 8.7707405 9.3195314 10.672686 11.221477 12.430004 12.978794 14.335912 14.884702 16.182383 17.279964 17.676203 18.224993 19.582109 20.130899 21.418676 21.967466 23.320621 23.869411">I m p u l s a n d o i d e a s</tspan></text></g><path d="M73.846 105.03l2.176-.23.604 1.836 2.512-.015.932 2.003 2.134-.208.452 1.701 2.029-.206.497 1.664 1.996-.106.316 1.441 1.628-.22.372 1.375 1.772-.078.499 1.389 1.745-.018.432 1.275 1.936-.103.447 1.48 2.02.065.294 1.27 1.664-.16.403 1.353 1.653-.082.465 1.305 1.517-.083.312 1.139 1.645-.136.384 1.308 1.342-.28.268 1.209 1.163-.211-.061.847-1.294.747-35.616-20.484 1.362-.787z" fill="#74ccd4" fill-rule="evenodd"/><path d="M84.723 54.646c0 .003-.004.005-.008.007-.036-.044-.077-.086-.117-.127.006-.007.01-.016.016-.026.033.053.07.1.109.145zm-3.16 2.037a1.892 1.892 0 0 0 2.527.88c.143-.07.272-.161.388-.26a1.89 1.89 0 0 0 2.276.498 1.893 1.893 0 0 0 .876-2.528 1.934 1.934 0 0 0-.256-.387 1.89 1.89 0 0 0 .496-2.276 1.892 1.892 0 0 0-2.527-.878 1.89 1.89 0 0 0-.699.596 1.887 1.887 0 0 0-3.253 1.893c.094.194.223.362.369.507a1.883 1.883 0 0 0-.198 1.955" fill="#ee2e6b"/></svg>