<svg xmlns="http://www.w3.org/2000/svg" width="114.267" height="85.266" viewBox="0 0 107.12528 79.936647"><path d="M52.767 28.657L1.732 60.775 33.83 79.937l51.035-32.119-32.098-19.161z" fill="#4d4d4e"/><path d="M0 28.787l31.826 19.265v30.683L0 59.471V28.787z" fill="#aa5a7f"/><path d="M0 28.787l31.826 19.265v6.253L0 35.041v-6.254z" fill="#f9a879"/><path d="M42.553 4.36l31.826 19.265v30.683L42.553 35.044V4.361z" fill="#aa5a7f"/><path d="M46.496 1.958l31.826 19.264-46.496 26.83L0 28.787 46.496 1.958z" fill="#f494be"/><path d="M35.785 76.558l-3.959 2.276V53.767l3.959-2.276v25.067zM78.322 52l-3.943 2.276V29.209l3.943-2.277v25.067z" fill="#c76c8d"/><path d="M50.47 61.33l-14.685 8.477V51.661l14.684-8.478v18.146z" fill="#aa5a7f"/><path d="M36.813 52.007v5.158l12.628-7.291v-5.158l-12.628 7.29zm9.063-2.318l-5.498 3.174v-.67l5.498-3.175v.67zm-9.063 7.873v5.158l12.628-7.29v-5.16l-12.628 7.29zm9.063-2.318l-5.498 3.174v-.67l5.498-3.175v.67zm-9.063 7.873v5.157l12.628-7.29v-5.158l-12.628 7.29zm9.063-2.318l-5.498 3.174v-.67l5.498-3.175v.67z" fill="#f69079"/><path d="M78.322 27.467L31.826 54.302v-6.329L78.322 21.14v6.328z" fill="#fcbc80"/><path d="M38.931 17.963L15.211 31.78l13.596 7.674 23.71-13.809-13.586-7.68z" fill="#4d4d4e"/><g fill="#4d4d4e"><path d="M40.074 29.15c1.812 1.045 4.749 1.045 6.56 0 1.812-1.047 1.812-2.743 0-3.789-1.811-1.046-4.748-1.046-6.56 0-1.812 1.046-1.812 2.742 0 3.788zm.817-.473c-1.36-.785-1.36-2.058 0-2.844 1.36-.785 3.566-.785 4.926 0 1.36.786 1.36 2.059 0 2.844-1.36.786-3.565.786-4.926 0"/><path d="M46.725 28.606l-1.032.595 2.412 1.393 1.031-.596-2.411-1.392z"/><path d="M48.4 29.324l-1.463.844 3.856 2.226c.466.27 1.172.299 1.575.066.404-.233.354-.64-.113-.91L48.4 29.324z"/></g><path d="M25.757 23.736l-9.621 5.555-2.54 1.517 13.673 7.894 2.56-1.528 9.606-5.547-.008.002-13.67-7.892zM36.748 17.3l-1.38.886-9.606 5.547h.008l13.67 7.892 9.621-5.555 1.36-.875-13.673-7.894z" fill="#aa5a7f"/><path d="M50.421 25.194L27.27 38.702v.589l23.15-13.508v-.59z" fill="#f28a7c"/><path d="M13.596 30.808v.588l13.673 7.895v-.59l-13.673-7.893z" fill="#e884ad"/><path d="M15.107 29.607v1.906l11.257 6.499v-1.907l-11.257-6.498z" fill="#f2d2cf"/><path d="M45.549 25.028c-2.471 1.582-4.173 3.234-5.154 4.326-.54.601-1.937.726-2.766.247l-10.756-6.21-.077.024c-1.041.312-1.257 1.118-.428 1.596h.007L37.63 31.51c.829.478 2.225.354 2.766-.247.981-1.092 2.683-2.745 5.154-4.326l3.336-1.926v-1.907L45.55 25.03z" fill="#e0bccd"/><path d="M48.885 23.102l-3.336 1.926c-2.471 1.582-4.173 3.234-5.154 4.326-.54.601-1.937.726-2.766.247l-11.254-6.497h-.007c-.83-.48-.613-1.285.428-1.597 1.889-.566 4.745-1.546 7.48-2.97l3.353-1.935L48.885 23.1z" fill="#fee6db"/><path d="M38.126 32.299a.589.589 0 0 0 0-.166v-1.955l-1.723 1.268c-1.845.586-4.311 1.488-6.687 2.724l-3.352 1.935v1.907l3.352-1.936c2.736-1.423 5.592-2.403 7.48-2.97.561-.167.882-.478.93-.804v-.003z" fill="#e0bccd"/><path d="M15.107 29.607l3.337-1.927c2.47-1.581 4.172-3.233 5.154-4.326.54-.6 1.936-.725 2.766-.246l11.253 6.497h.007c.83.479.614 1.285-.427 1.597-1.89.566-4.745 1.546-7.48 2.97l-3.353 1.935-11.257-6.5z" fill="#ebeded"/><path d="M31.828 24.283l7.738-4.468.327.189-7.738 4.467-.327-.188zm1.097.633l7.737-4.468-.326-.188-7.738 4.467.327.189zm.77.444l7.737-4.467-.326-.189-7.738 4.468.326.188zm.77.445l7.737-4.468-.327-.188-7.737 4.467.326.189zm.77.444l7.737-4.467-.327-.189-7.738 4.468.327.188zm.769.445l7.738-4.468-.327-.188-7.738 4.467.327.189z" fill="#e884ad"/><path d="M40.605 26.997c1.811 1.046 4.749 1.046 6.56 0 1.812-1.046 1.812-2.742 0-3.788-1.811-1.046-4.749-1.046-6.56 0-1.812 1.046-1.812 2.742 0 3.788zm.817-.472c-1.36-.786-1.36-2.059 0-2.844 1.36-.785 3.566-.785 4.926 0 1.36.785 1.36 2.058 0 2.844-1.36.785-3.566.785-4.926 0" fill="#44355f"/><path d="M40.605 26.466c1.811 1.046 4.749 1.046 6.56 0 1.812-1.046 1.812-2.742 0-3.788-1.811-1.046-4.749-1.046-6.56 0-1.812 1.046-1.812 2.742 0 3.788zm.817-.472c-1.36-.785-1.36-2.058 0-2.844 1.36-.785 3.566-.785 4.926 0 1.36.786 1.36 2.059 0 2.844-1.36.785-3.566.785-4.926 0" fill="#725c94"/><path d="M46.224 26.518v.53l2.411 1.393 1.032-.595-3.443-1.328z" fill="#1ab59d"/><path d="M47.256 25.923l-1.032.595 2.411 1.392 1.032-.595-2.411-1.392z" fill="#62c4b0"/><path d="M53.172 29.407l-.887-.299-3.354-1.936-.883.509-.58-.196v.531l3.855 2.226c.467.27 1.172.298 1.576.065.174-.1.263-.233.272-.373v-.527z" fill="#44355f"/><path d="M48.93 26.64l-1.462.845 3.855 2.226c.467.27 1.172.299 1.576.066.404-.234.353-.641-.113-.91l-3.855-2.226z" fill="#725c94"/><path d="M52.328 11.103l-1.12.72-7.795 4.501h.006l11.093 6.405 7.808-4.508 1.104-.71-11.096-6.406z" fill="#4d4d4e"/><path d="M60.877 16.629l-9.076 5.24v-2.771l9.076-5.15v2.68z" fill="#7b6490"/><path d="M52.52 21.453l-.103.06v-2.77l.104-.06v2.77zm.223-2.899l-.104.06v2.771l.104-.06v-2.77zm3.515-2.029l-.104.06v2.77l.104-.06v-2.77zm.222-.128l-.104.06v2.77l.104-.06v-2.77zm3.515-2.03l-.104.06v2.771l.104-.06v-2.77zm.223-.128l-.104.06v2.77l.104-.06v-2.77z" fill="#fff" fill-opacity=".5"/><path d="M51.366 19.326v1.995l-7.332-4.39v-1.995l7.332 4.39z" fill="#fff"/><path d="M51.802 19.228l-8.033-4.792 9.134-4.461 7.974 3.974-9.075 5.279z" fill="#48395f"/><path d="M51.495 21.196l-7.46-4.467v-.1l7.46 4.466v.1zm0-.388l-7.46-4.467v.1l7.46 4.468v-.1zm0-.287l-7.46-4.467v.1l7.46 4.467v-.1zm0-.287l-7.46-4.467v.1l7.46 4.467v-.1zm0-.287l-7.46-4.467v.1l7.46 4.467v-.1zm0-.287l-7.46-4.467v.1l7.46 4.467v-.1z" fill="#c6d0ce"/><path d="M43.769 17.05v-.278l7.597 4.55v-1.996l-7.597-4.549v-.341l8.033 4.792v2.64l-8.033-4.817z" fill="#b39bc9"/><path d="M44.656 14.264l7.663 4.424v-2.34L44.656 12v2.264z" fill="#128cac"/><path d="M51.712 15.998l.088.05v2.34l-.088-.05v-2.34zm-.188 2.231l.088.05V15.94l-.088-.05v2.34zm-2.968-1.713l.088.05v-2.34l-.088-.05v2.34zm-.188-.109l.088.05v-2.339l-.088-.05v2.34zM45.4 14.694l.088.05v-2.34l-.088-.05v2.34zm-.188-.109l.088.05v-2.339l-.088-.05v2.34z" fill="#fff" fill-opacity=".5"/><path d="M52.687 16.541v1.685l6.19-3.707v-1.685l-6.19 3.707z" fill="#fff"/><path d="M52.318 16.459l6.784-4.047-7.713-3.767L44.656 12l7.662 4.459z" fill="#8bd6f2"/><path d="M52.578 18.035l6.3-3.772v.085l-6.3 3.772v-.085zm0-.157l6.3-3.772v-.085l-6.3 3.772v.085zm0-.243l6.3-3.772v-.084l-6.3 3.772v.084zm0-.242l6.3-3.772v-.085l-6.3 3.772v.085zm0-.243l6.3-3.771v-.085l-6.3 3.772v.084zm0-.242l6.3-3.772v-.085l-6.3 3.772v.085z" fill="#c6d0ce"/><path d="M59.102 14.62v-.235l-6.415 3.84v-1.684l6.415-3.841v-.288l-6.784 4.047v2.23l6.784-4.07z" fill="#128cac"/><path d="M49.791.278L49.422.6a2.329 2.329 0 0 1-.717.427l-.6.224 5.53 3.19 1.685-.973-5.529-3.19z" fill="#fff"/><path d="M48.346 1.193c.042-.015.089-.032.141-.053l5.434 3.138-.116.067-5.459-3.152zm.54-.235a4.487 4.487 0 0 1-.125.062l5.401 3.119.116-.067L48.886.958zm6.358 2.556l.093-.054-3.213-1.855L49.826.278s-.009.025-.054.076l5.472 3.16zm-6.552-2.461c-.046.02-.09.04-.132.057l5.424 3.132.116-.067-5.408-3.122zm-.425.166c-.09.03-.141.04-.141.04l2.298 1.327 3.214 1.855.105-.06-5.476-3.162zm.803-.36l-.119.065 5.39 3.112.116-.067L49.07.859zm.176-.105a5.974 5.974 0 0 1-.114.068l5.387 3.11.116-.067-5.389-3.11zm.481-.353c-.024.024-.054.05-.09.081l5.429 3.135.116-.067L49.727.4zm-.143.123c-.03.024-.064.049-.102.075l5.405 3.121.116-.067-5.42-3.129zm-.159.115a4.76 4.76 0 0 1-.119.078l5.392 3.112.127-.073-5.4-3.117z" fill="#d8d8d8"/><path d="M53.706 4.79v9.967l2.22-1.281V3.508l-2.22 1.281z" fill="#aa5a7f"/><path d="M47.63 1.281v9.968l6.076 3.508V4.79L47.63 1.281z" fill="#e884ad"/><path d="M48.425 3.032v7.371l4.493 2.594" fill="none" stroke="#aa5a7f" stroke-width=".621" stroke-linecap="round" stroke-linejoin="round" stroke-miterlimit="10" stroke-dasharray="323.48,8.09,80.87"/><path d="M49.85 0l-.267.154 5.74 3.314-1.685.973-5.74-3.314-.268.154 6.076 3.508 2.22-1.281L49.848 0z" fill="#fdc181"/><path d="M53.418 8.412l-.863-1.385-.864.387V3.617l1.727.997v3.798z" fill="#fdc181"/><path d="M29.06 32.684l-7.627-4.597 1.197-.691 7.628 4.597-1.198.69z" fill="#4d4d4e"/><path d="M23.665 28.03l-.975.564V22.85l.975-.563v5.743z" fill="#128cac"/><path d="M22.69 28.594l-1.155-.675v-5.742l1.155.674v5.743z" fill="#0d687d"/><path d="M22.666 22.857l-1.168-.674.985-.57 1.168.675-.985.569z" fill="#53bddb"/><path d="M25.253 28.882l-1.01.563v-3.661l1.01-.563v3.661z" fill="#128cac"/><path d="M24.242 29.445l-1.155-.674V25.11l1.155.674v3.661z" fill="#0d687d"/><path d="M24.258 25.79l-1.167-.674.985-.569 1.168.674-.986.569z" fill="#53bddb"/><path d="M26.841 29.955l-.974.563v-5.743l.974-.563v5.743z" fill="#128cac"/><path d="M25.867 30.518l-1.156-.675V24.1l1.156.675v5.743z" fill="#0d687d"/><path d="M25.851 24.78l-1.168-.673.986-.57 1.168.675-.986.569z" fill="#53bddb"/><path d="M28.43 30.932l-1.011.563v-4.181l1.01-.563v4.181z" fill="#128cac"/><path d="M27.419 31.495l-1.155-.674V26.64l1.155.674v4.181z" fill="#0d687d"/><path d="M27.432 27.32l-1.167-.674.985-.57 1.168.675-.986.569z" fill="#53bddb"/><path d="M30.054 31.895l-1.047.562v-2.273l1.047-.563v2.274z" fill="#128cac"/><path d="M29.043 32.457l-1.191-.674V29.51l1.191.674v2.273z" fill="#0d687d"/><path d="M29.021 30.19l-1.168-.674.986-.569 1.167.674-.985.569z" fill="#53bddb"/><path d="M28.986 31.086c-3.653-.76-6.808-2.707-6.502-6.92.11 4.202 2.78 5.918 6.544 6.648a.137.137 0 1 1-.042.272" fill="#eb4538" fill-rule="evenodd"/><path d="M22.064 24.516c.7-1.002.35-.665.825.074a.138.138 0 0 1-.133.234c-.1-.046-.198-.254-.271-.438-.045.08-.06.09-.244.34a.138.138 0 0 1-.177-.21" fill="#eb4538" fill-rule="evenodd"/><path d="M84.95 68.15l-10.83-6.27 5.313-3.067 10.828 6.269-5.313 3.067zm16.863-.328l-10.828-6.268 5.312-3.067 10.828 6.268-5.312 3.067zM88.93 79.447l10.828-6.269-5.313-3.067-10.828 6.269 5.313 3.067z" fill="#4a3f5f"/><path d="M82.859 76.271l5.356 3.035v-4.373l-5.356-3.035v4.373z" fill="#81546d"/><path d="M88.13 79.306l10.797-6.269v-4.373L88.13 74.933v4.373z" fill="#995b80"/><path d="M88.13 74.965l10.828-6.268-5.312-3.067-10.828 6.268 5.312 3.067z" fill="#bc71a0"/><path d="M95.188 66.55l-10.814 6.247V74l1.75 1.008v-1.204l10.827-6.269-1.763-.985z" fill="#fedcc0"/><path d="M105.973 64.857l-5.356 3.035v-4.373l5.356-3.035v4.373z" fill="#81546d"/><path d="M100.702 67.892l-10.798-6.269V57.25l10.798 6.269v4.373z" fill="#995b80"/><path d="M100.702 63.551l-10.829-6.268 5.313-3.067 10.828 6.268-5.312 3.067z" fill="#bc71a0"/><path d="M93.644 55.137l10.814 6.245v1.205l-1.75 1.008v-1.204l-10.827-6.269 1.763-.985z" fill="#fedcc0"/><path d="M89.075 65.199l-5.357 3.035V63.86l5.357-3.034v4.373z" fill="#81546d"/><path d="M83.803 68.234l-10.797-6.27v-4.372l10.797 6.268v4.374z" fill="#995b80"/><path d="M83.803 63.893l-10.828-6.269 5.312-3.067 10.829 6.269-5.313 3.067z" fill="#bc71a0"/><path d="M76.746 55.478l10.813 6.246v1.204l-1.749 1.008v-1.204l-10.828-6.268 1.764-.986z" fill="#fedcc0"/></svg>