<svg xmlns="http://www.w3.org/2000/svg" width="116.489" height="153.976" viewBox="0 0 109.20879 144.35246"><defs><clipPath id="a"><path d="M102.942 209.882l-.174-61.096 36.386-20.483.172 61.096-36.384 20.483z"/></clipPath></defs><path d="M109.209 104.491l-43.35 25.192-43.635-25.192L65.574 79.3l43.635 25.192z" fill="#bdbdbf"/><path d="M55.57 109.934l17.04-9.903.09-9.48-17.041 9.903-.09 9.48z" fill="#482e2e"/><path d="M55.659 100.454l17.04-9.903-9.471-5.307-17.04 9.903 9.47 5.307z" fill="#bf3d39"/><path d="M46.188 95.147l-.09 9.48 9.472 5.307.089-9.48-9.471-5.307z" fill="#e24b3f"/><path d="M67.106 116.316l17.04-9.903.09-9.48-17.04 9.903-.09 9.48z" fill="#482e2e"/><path d="M67.195 106.836l17.04-9.903-9.47-5.307-17.04 9.903 9.47 5.307z" fill="#bf3d39"/><path d="M57.725 101.53l-.09 9.48 9.471 5.306.09-9.48-9.471-5.307z" fill="#e24b3f"/><path d="M52.032 69.4l5.833-3.37.054-20.233-5.834 3.372-.053 20.231z" fill="#fcbc85"/><path d="M52.085 49.169l5.834-3.372-5.69-3.186-5.832 3.37 5.688 3.188z" fill="#dedfe1"/><path d="M46.397 45.982l-.053 20.232 5.688 3.186.053-20.231-5.688-3.187z" fill="#fdcd9c"/><path d="M54.003 65.236l6.043-3.511.033-26.228-6.042 3.512-.034 26.227z" fill="#cfd2d3"/><path d="M50.949 37.238a5.968 5.968 0 0 0-.712-.31l-.06-.021a5.035 5.035 0 0 0-.29-.09l-.169-.042-.078-.019a4.717 4.717 0 0 0-.244-.045l-.009-.001a4.008 4.008 0 0 0-.218-.027l-.072-.005a5.504 5.504 0 0 0-.156-.008c-.022 0-.045 0-.068-.002-.053 0-.106 0-.159.003-.018 0-.036 0-.055.002-.068.003-.135.01-.201.018-.014 0-.028.004-.043.005a4.22 4.22 0 0 0-.16.026l-.053.012a2.57 2.57 0 0 0-.178.044l-.008.001c-.066.02-.126.04-.186.062l-.048.018a3.519 3.519 0 0 0-.18.079 2.7 2.7 0 0 0-.177.093l6.042-3.511.02-.012c.058-.032.108-.058.158-.082l.037-.017c.028-.013.056-.027.085-.038a.51.51 0 0 1 .057-.022l.049-.02a2.56 2.56 0 0 1 .179-.06h.002l.012-.003c.059-.016.119-.031.179-.044l.054-.01c.018-.004.037-.009.056-.012.034-.006.069-.01.103-.015l.042-.006c.06-.008.12-.013.18-.017h.022l.055-.003c.052-.002.105-.002.159-.002h.068l.053.002.103.008.071.004c.072.007.146.016.219.027h.006l.004.001c.08.013.16.028.243.046l.078.019c.051.011.102.023.154.037l.015.005c.095.026.192.056.29.089l.059.022c.08.028.159.058.239.09l.031.013a5.972 5.972 0 0 1 .442.206c.022.01.043.022.065.033.082.044.165.088.248.136l2.775 1.602-6.042 3.512-2.775-1.602a6.173 6.173 0 0 0-.25-.136l-.063-.034" fill="#482e2e"/><path d="M51.262 37.407c-2.979-1.72-5.402-.34-5.411 3.084l-.015 20.03 8.167 4.715.034-26.227-2.775-1.602z" fill="#672d2c"/><path d="M61.99 96.635l9.352-5.404.086-13.056-9.351 5.405-.087 13.055z" fill="#fcbc85"/><path d="M62.077 83.58l9.351-5.405-9.12-5.11-9.351 5.405 9.12 5.11z" fill="#d2b69a"/><path d="M52.957 78.47l-.086 13.056 9.12 5.11.086-13.056-9.12-5.11z" fill="#fdcd9c"/><path d="M73.642 102.87l9.351-5.405.086-13.056-9.35 5.405-.087 13.055z" fill="#fcbc85"/><path d="M73.728 89.814l9.351-5.405-9.119-5.11-9.352 5.405 9.12 5.11z" fill="#d2b69a"/><path d="M64.608 84.704l-.086 13.055 9.12 5.11.086-13.055-9.12-5.11z" fill="#fdcd9c"/><path d="M61.99 83.871l9.352-5.404.086-13.056-9.351 5.405-.087 13.055z" fill="#29302f"/><path d="M62.077 70.816l9.351-5.405-9.12-5.11-9.351 5.405 9.12 5.11z" fill="#dedfe1"/><path d="M52.957 65.706l-.086 13.056 9.12 5.11.086-13.056-9.12-5.11z" fill="#253d39"/><path d="M73.642 90.106l9.351-5.405.086-13.056-9.35 5.405-.087 13.056z" fill="#29302f"/><path d="M73.728 77.05l9.351-5.405-9.119-5.11-9.352 5.405 9.12 5.11z" fill="#dedfe1"/><path d="M64.608 71.94l-.086 13.055 9.12 5.11.086-13.055-9.12-5.11z" fill="#253d39"/><path d="M71.458 78.467l13.078-7.527.09-31.374-13.08 7.527-.088 31.374z" fill="#482e2e"/><path d="M71.547 47.093l13.079-7.527L65.94 29.047l-13.079 7.527 18.685 10.519z" fill="#482e2e"/><path d="M67.424 44.772l5.514-3.173-7.877-4.434-5.513 3.173 7.876 4.434z" fill="#fcbc85"/><path d="M52.862 36.574l-.089 31.374 18.685 10.519.089-31.374-18.685-10.519z" fill="#672d2c"/><g clip-path="url(#a)" transform="matrix(.51352 0 0 -.51352 0 144.352)"><path d="M108.353 191.79h2.759v16.77h-2.76v-16.77zm22.757-12.633h2.76v16.77h-2.76v-16.77zm-28.921-1.864l8.443-4.875-1.312-2.273-8.444 4.875 1.313 2.273zm30.75-13.781l8.443-4.875-1.312-2.273-8.444 4.875 1.313 2.273z" fill="#fff" fill-rule="evenodd"/></g><path d="M82.259 83.299l5.833-3.371.054-20.232-5.833 3.37-.054 20.233z" fill="#fcbc85"/><path d="M82.313 63.067l5.833-3.37-5.689-3.188-5.833 3.371 5.689 3.187z" fill="#dedfe1"/><path d="M76.624 59.88l-.054 20.232 5.689 3.187.054-20.232-5.689-3.187z" fill="#fdcd9c"/><path d="M83.402 58.398a8.34 8.34 0 0 0-.014-.21l-.008-.106a7.077 7.077 0 0 0-.021-.207l-.011-.1-.021-.145a8.768 8.768 0 0 0-.033-.218l-.026-.146a7.643 7.643 0 0 0-.077-.38 10.91 10.91 0 0 0-.078-.327l-.036-.139a7.911 7.911 0 0 0-.064-.223l-.024-.084a11.34 11.34 0 0 0-.456-1.245l-.024-.057c-.061-.14-.125-.278-.19-.415l-.053-.108a12.801 12.801 0 0 0-.484-.9 10.738 10.738 0 0 0-.21-.341c-.02-.033-.04-.067-.062-.1-.089-.137-.18-.273-.273-.407-.014-.02-.03-.04-.043-.06a12.86 12.86 0 0 0-.3-.407l-.047-.062-.097-.122-.124-.153-.102-.121a12.04 12.04 0 0 0-.375-.422l-.013-.014a10.544 10.544 0 0 0-.453-.454l-.05-.049a11.569 11.569 0 0 0-.238-.215c-.022-.02-.044-.037-.066-.056l-.177-.15-.09-.072a10.964 10.964 0 0 0-.159-.124l-.096-.073-.16-.115-.095-.067a6.985 6.985 0 0 0-.174-.115l-.083-.054a8.698 8.698 0 0 0-.259-.157l-2.774-1.602 6.043-3.511 2.774 1.601c.087.05.173.103.259.157l.083.055c.058.037.116.075.173.114l.096.067.16.116.096.072.159.125.09.072c.059.049.118.098.176.15l.067.056c.08.07.159.141.237.215l.05.047a9.531 9.531 0 0 1 .72.75l.025.028c.033.037.064.076.096.113.035.04.069.08.102.122.043.05.083.101.124.152l.098.123.018.023c.01.012.018.026.029.039.102.133.202.269.3.406l.03.041.013.02c.093.134.184.27.272.407l.027.039.036.06c.072.113.141.227.21.342l.032.054a14.331 14.331 0 0 1 .235.422c.006.01.013.021.018.032l.034.067c.057.108.111.216.165.324.01.023.023.045.033.068l.02.04c.065.138.128.276.19.415l.005.013.018.045c.054.126.105.251.154.377l.026.062.018.05c.057.15.111.3.161.45l.002.006c.034.101.066.2.095.3l.025.083.049.17.014.053.036.14c.017.06.032.123.046.185l.033.141.023.1.013.069a7.67 7.67 0 0 1 .067.357c.012.074.023.146.032.218.005.035.012.068.016.103l.005.043.011.1.021.207.009.106c.005.07.01.14.013.209l.004.094c.004.1.006.198.005.296l-.015 20.03-6.042 3.512.015-20.03a7.43 7.43 0 0 0-.01-.39" fill="#482e2e"/><path d="M75.262 47.876l-.033 26.228 8.167 4.714.016-20.03c.01-3.423-2.398-7.59-5.376-9.31l-2.774-1.602z" fill="#672d2c"/><path d="M69.783 43.36l5.41-3.113.036-4.931-5.409 3.113-.037 4.93z" fill="#957757"/><path d="M69.82 38.429l5.409-3.113-7.728-4.351-5.409 3.113 7.728 4.35z" fill="#dedfe1"/><path d="M62.092 34.078l-.036 4.931 7.727 4.35.037-4.93-7.728-4.351z" fill="#bd9764"/><path d="M72.737 43.36l14.007-8.06.094-24.035-14.005 8.06-.096 24.035z" fill="#fcbc85"/><path d="M72.833 19.326l14.005-8.061L66.828 0 52.824 8.06l20.01 11.266z" fill="#844b33"/><path d="M52.823 8.06l-.095 24.035 20.01 11.265.095-24.034L52.823 8.06z" fill="#fdcd9c"/><path d="M52.823 8.06v9.227l1.41.815c.006-.319.12-6.374 2.417-5.048 2.294 1.325 3.102 4.28 4.95 5.348 1.782 1.029 2.156 1.244 2.19 1.265 1.813 1.046 2.637-.969 4.931.356 2.295 1.325 2.376 7.493 2.38 7.817l1.732 1.007v-9.521L52.823 8.06z" fill="#844b33"/><path d="M72.797 28.396l.036.451s.422-3.137 2.803-3.137c2.382 0 1.915 5.122.514 6.141-1.401 1.019.242 9.405.242 9.405L86.744 35.3l.094-24.034-14.005 8.06-.036 9.071z" fill="#3b312c"/><g fill-rule="evenodd"><path d="M58.753 23.511c.327-.573.073-1.275-.568-1.567-.64-.292-1.426-.065-1.753.508-.327.574-.073 1.276.568 1.568.641.292 1.426.065 1.753-.509" fill="#3b312c"/><path d="M57.695 22.451c.09-.156.007-.354-.185-.442-.191-.087-.42-.031-.509.125-.089.157-.006.355.186.442.191.088.42.032.508-.125" fill="#fff"/></g><path d="M55.503 20.661c.584.247 1.636-.901 3.78.046.39.173.758-1.546-1.618-1.506-2.057.035-2.515 1.31-2.162 1.46" fill="#844b33" fill-rule="evenodd"/><g fill-rule="evenodd"><path d="M67.965 27.358c.327-.573.073-1.275-.568-1.567-.641-.293-1.426-.065-1.753.508-.327.574-.073 1.275.568 1.568.64.292 1.426.064 1.753-.509" fill="#3b312c"/><path d="M66.907 26.298c.09-.157.006-.354-.186-.442-.191-.087-.419-.031-.508.125-.09.157-.007.355.185.442.192.087.42.032.509-.125" fill="#fff"/></g><path d="M69.408 26.033c-.633-.239-.496-1.656-2.854-2.509-.43-.155.675-1.467 2.414.153 1.505 1.403.823 2.5.44 2.356" fill="#844b33" fill-rule="evenodd"/><path d="M60.853 27.948c-1.193-.407-1.583-1.388-1.742-1.032-.159.356-.115 1.15 1.45 1.685 1.567.535 2.214-.024 2.373-.38.158-.356-.888.135-2.081-.273m-.889 4.926c-.407-.157-.528-.501-.588-.38-.06.12-.056.396.479.602.534.205.765.021.825-.1.06-.12-.31.035-.716-.122" fill="#fcbc85" fill-rule="evenodd"/><path d="M60.45 31.852c-1.864-.718-2.68-1.775-2.757-1.617-.078.158.153.988 2.602 1.932 2.448.943 3.294.529 3.372.37.078-.158-1.353.034-3.217-.685" fill="#ca633a" fill-rule="evenodd"/><path d="M52.735 30.34l9.345 5.208 10.665 5.943-.008 1.869-20.01-11.265.008-1.755z" fill="#844b33" fill-rule="evenodd"/><path d="M70.472 38.817l2.278 1.292-.006 1.659-2.285-1.127.013-1.824zM52.744 28.695l2.265 1.275.014 1.68-2.293-1.131.014-1.824z" fill="#844b33" fill-rule="evenodd"/><path d="M76.392 41.256l-.415-2.487-3.227 1.34-.013 3.25 3.655-2.103z" fill="#844b33" fill-rule="evenodd"/><path d="M55.641 42.834l-.063 30.34 13.101 7.375.062-30.34-13.1-7.375z" fill="#fff"/><path d="M62.423 144.352L0 108.303 26.526 92.99l62.424 36.049-26.527 15.314z" fill="#9a9a9a"/><path d="M56.92 86.668l20.548 11.864v3.482L56.92 90.15v-3.482z" fill="#f3d2d0"/><path d="M86.312 128.3l-25.76 14.857v-27.861l25.76-14.858V128.3z" fill="#bd9764"/><path d="M37.88 100.395l-25.76 14.858V87.39l25.76-14.857v27.861z" fill="#d2b69a"/><path d="M62.88 112.927L2.32 77.955l25.734-14.857L88.613 98.07 62.88 112.927z" fill="#bd9764"/><path d="M62.854 116.758L2.321 81.808v-3.853l60.533 34.949v3.854z" fill="#fee6db"/><path d="M4.623 83.005v27.861l7.497 4.329V96.384l40.935 23.634v18.81l7.498 4.33v-27.862L4.623 83.005z" fill="#844b33"/><path d="M88.613 101.9l-25.759 14.858v-3.854l25.76-14.834v3.83z" fill="#f2d2cf"/><path d="M73.007 98.61l-6.028-3.033m-.496.328l6.028 3.033m-6.523-2.704l6.028 3.032m-.496.329l-6.028-3.033m-.496.329l6.028 3.032m-.495.328L64.5 97.22m5.532 3.36l-6.028-3.032m5.533 3.361l-6.029-3.032m5.533 3.36l-6.028-3.032m5.532 3.361l-6.028-3.032m5.533 3.36l-6.028-3.032m5.532 3.361l-6.028-3.032m2.65 3.11l1.853.932m1.03-.682l-6.029-3.032 6.028 3.032z" fill="#aa5b7f"/><path d="M69.172 94.431l7.604 2.962-7.671 6.565-7.604-2.961 7.67-6.566zm6.25 3.513l-6.628-2.581M75 98.305l-6.628-2.581m6.206 2.943l-6.628-2.582m6.206 2.943l-6.627-2.582m6.206 2.942l-6.628-2.581m-.422.36l6.627 2.582m-.421.362l-6.628-2.582m6.206 2.943L65.84 97.89m6.206 2.943l-6.628-2.582m-.422.361l6.628 2.582m-.422.361l-6.628-2.582m6.206 2.943l-6.628-2.581m3.293 2.898l2.037.794m.876-.75l-6.628-2.581 6.628 2.581z" fill="#aa5b7f"/><path d="M68.708 94.431l7.603 2.962-7.67 6.565-7.605-2.961 7.672-6.566z" fill="#f9fafa"/><path d="M74.957 97.944l-6.628-2.581m6.206 2.942l-6.628-2.581m6.206 2.943l-6.627-2.582m6.205 2.943l-6.627-2.582m6.206 2.942l-6.628-2.581m-.422.36l6.628 2.582m-.422.362l-6.628-2.582m6.206 2.943l-6.628-2.582m6.207 2.943l-6.629-2.582m-.421.361l6.627 2.582m-.422.361l-6.627-2.582m6.206 2.943l-6.628-2.581m3.292 2.898l2.037.794m.877-.75l-6.628-2.581" fill="none" stroke="#d4d4d4" stroke-width=".358" stroke-miterlimit="10"/><path d="M21.675 67.265l7.065 4.446-12.875 7.722L8.8 74.987l12.875-7.722z" fill="#844b33"/><path d="M16.481 58.388v20.248l-4.508-2.603V55.785l4.508 2.603z" fill="#aa5b7f"/><path d="M13.78 74.99l-1.807 1.043 4.508 2.603-2.701-3.646z" fill="#f8aea0" fill-rule="evenodd"/><path d="M24.313 48.662V68.91l-12.34 7.125V55.787l.212-.618.219.236.336-.623.318.232.372-.59.236.227.328-.591.272.227.3-.545.218.227.254-.49.21.209.326-.5.173.218.282-.49.19.272.291-.554.2.272.309-.563.2.245.29-.518.2.2.319-.472.2.227.29-.454.282.118.29-.49.2.217.318-.536.197.218.312-.481.19.19.355-.536.227.2.364-.59.29.236.319-.49.218.172.336-.572.209.181.29-.509.2.246.357-.516.243.198.164-.382.218.245.063-.327.153.3z" fill="#f8aea0"/><path d="M11.973 55.785l1.965 1.135-.158 18.07-1.807 1.043V55.785z" fill="#fdc282" fill-rule="evenodd"/><path d="M16.481 58.388v20.248L13.78 74.99l.158-18.07 2.543 1.468zm7.832-9.728l1.966 1.135 2.543 1.468V71.51l-2.702-3.645-1.807 1.043V48.66z" fill="#ca633a" fill-rule="evenodd"/><path d="M28.822 51.263v20.248l-12.34 7.125V58.388l.212-.619.218.237.336-.623.318.232.373-.59.236.226.327-.59.273.227.3-.545.218.227.254-.49.209.208.327-.5.173.219.281-.49.191.272.29-.555.2.273.31-.563.2.245.29-.518.2.2.318-.472.2.227.29-.455.282.119.291-.491.2.218.318-.536.197.218.312-.482.19.191.355-.536.227.2.364-.59.29.236.318-.49.218.172.336-.573.21.182.29-.509.2.246.357-.516.243.198.163-.382.218.245.064-.327.153.299z" fill="#fdc282"/><path d="M23.149 64.553v8.911l-5.432 3.137v-8.912l5.432-3.136m2.58 3.854v3.426l-2.088 1.206v-3.426l2.088-1.206m2.302-8.537v1.352l-10.46 6.039v-1.353l10.46-6.039m0-2.13v1.353l-10.46 6.039v-1.353l10.46-6.04m0-2.129v1.353L17.571 63v-1.352l10.46-6.04" fill="#ca633a"/><path d="M22.185 67.88c-.002.134-.07.279-.152.323-.082.045-.146-.027-.143-.161.002-.134.07-.279.152-.324.082-.045.146.028.143.162m-.263.612c-.203.49-.339 1.242-.354 2.075-.003.128-.068.266-.146.309-.079.043-.14-.025-.138-.153.005-.257-.01-.839-.263-.7-.252.138-.291.75-.296 1.007-.002.127-.068.265-.145.308l-.009.004-.009.006c-.077.042-.139-.026-.136-.154.005-.256-.011-.838-.264-.7-.252.139-.29.75-.296 1.007-.002.128-.067.265-.145.308-.078.043-.14-.026-.137-.153.019-.97.315-1.475.587-1.624.157-.086.317-.06.422.164.115-.344.28-.55.437-.635.123-.067.248-.066.346.045.081-.543.212-1.02.378-1.389-.274-.343-.672-.433-1.12-.187-.857.47-1.573 1.988-1.6 3.39-.026 1.403.647 2.16 1.503 1.69.857-.47 1.573-1.988 1.6-3.391.01-.5-.07-.918-.215-1.227" fill="#fff"/><path d="M26.916 79.007l5.122 3.224-9.335 5.598-5.123-3.224 9.336-5.598z" fill="#844b33"/><path d="M23.15 72.57v14.681l-3.27-1.887v-14.68l3.27 1.887z" fill="#aa5b7f"/><path d="M21.19 84.608l-1.31.756 3.27 1.887-1.96-2.643z" fill="#f8aea0" fill-rule="evenodd"/><path d="M28.828 65.519v14.68l-8.947 5.167V70.685l.154-.449.158.171.244-.45.23.167.27-.428.172.165.237-.428.198.164.217-.395.158.165.184-.356.152.151.237-.362.125.158.205-.355.138.197.21-.402.146.198.224-.409.144.178.211-.375.145.145.23-.343.146.165.21-.33.205.086.21-.356.145.159.23-.39.144.159.226-.35.138.14.257-.39.165.145.263-.428.211.171.23-.355.159.125.244-.415.151.132.21-.37.146.179.258-.374.177.143.118-.277.158.178.046-.237.111.217z" fill="#f8aea0"/><path d="M19.88 70.683l1.426.823-.115 13.102-1.31.756v-14.68z" fill="#fdc282" fill-rule="evenodd"/><path d="M23.15 72.57v14.681l-1.96-2.643.116-13.102 1.844 1.065zm5.678-7.053l1.425.823 1.844 1.064v14.681l-1.959-2.643-1.31.756v-14.68z" fill="#ca633a" fill-rule="evenodd"/><path d="M32.097 67.404v14.681l-8.947 5.166v-14.68l.154-.45.158.172.244-.451.23.168.27-.428.172.164.237-.428.198.165.217-.395.158.164.184-.355.152.151.237-.362.125.158.204-.356.139.198.21-.402.146.198.224-.409.145.178.21-.375.145.144.23-.342.146.165.21-.33.205.086.21-.356.145.158.231-.388.143.158.226-.35.138.139.257-.389.165.145.263-.428.211.171.23-.356.159.126.244-.415.151.131.21-.368.146.177.258-.374.177.144.118-.277.158.178.046-.237.111.216z" fill="#fdc282"/><path d="M27.984 77.04v6.462l-3.938 2.274v-6.462l3.938-2.274m1.871 2.795v2.484l-1.514.874V80.71l1.514-.874m1.669-6.192v.981l-7.584 4.379v-.981l7.584-4.379m0-1.544v.98l-7.584 4.38v-.982l7.584-4.378m0-1.545v.981l-7.584 4.379v-.981l7.584-4.379" fill="#ca633a"/><path d="M27.286 79.452c-.002.097-.052.203-.111.235-.06.033-.106-.02-.104-.117.002-.097.051-.202.11-.235.06-.032.106.02.105.117m-.192.444c-.147.355-.245.901-.256 1.505-.002.093-.05.193-.106.224-.057.031-.102-.018-.1-.111.004-.186-.008-.608-.19-.508-.184.1-.212.544-.215.73-.002.093-.05.193-.106.224l-.006.003a.04.04 0 0 0-.006.004c-.057.031-.101-.019-.1-.111.004-.186-.007-.608-.19-.508-.184.1-.212.544-.215.73-.002.093-.049.193-.106.224-.056.031-.1-.019-.099-.111.014-.704.229-1.07.426-1.178.114-.062.23-.043.306.12.083-.25.203-.399.317-.461.089-.05.18-.048.25.033.06-.394.154-.74.274-1.008-.198-.248-.486-.314-.811-.135-.622.34-1.14 1.441-1.16 2.458-.02 1.017.469 1.565 1.09 1.225.62-.341 1.14-1.442 1.16-2.459.006-.362-.052-.665-.157-.89" fill="#fff"/><path d="M70.576 98.433l7.064 4.446-12.875 7.721-7.064-4.446 12.875-7.721z" fill="#844b33"/><path d="M65.382 89.555v20.248l-4.509-2.603V86.952l4.509 2.603z" fill="#aa5b7f"/><path d="M62.68 106.157l-1.807 1.043 4.509 2.603-2.702-3.646z" fill="#f8aea0" fill-rule="evenodd"/><path d="M73.214 79.83v20.247l-12.341 7.125V86.955l.213-.62.218.237.336-.623.318.232.373-.59.236.227.327-.59.272.226.3-.545.218.227.255-.49.209.209.327-.5.172.218.282-.49.19.272.292-.554.2.272.308-.563.2.245.291-.517.2.2.318-.473.2.227.29-.454.282.118.29-.49.2.217.319-.536.197.218.311-.481.191.19.355-.536.227.2.363-.59.291.236.318-.49.218.172.336-.572.21.181.29-.508.2.245.356-.516.243.198.164-.382.218.246.064-.327.153.298z" fill="#f8aea0"/><path d="M60.873 86.953l1.966 1.134-.16 18.07-1.806 1.043V86.953z" fill="#fdc282" fill-rule="evenodd"/><path d="M65.382 89.555v20.248l-2.702-3.646.159-18.07 2.543 1.468zm7.832-9.728l1.965 1.135 2.543 1.468v20.248l-2.702-3.646-1.806 1.043V79.827z" fill="#ca633a" fill-rule="evenodd"/><path d="M77.723 82.43v20.248l-12.341 7.125V89.555l.212-.619.219.237.336-.623.318.232.372-.59.236.227.327-.591.273.227.3-.545.218.227.254-.49.21.208.326-.5.173.219.282-.49.19.272.291-.554.2.272.309-.563.2.245.29-.518.2.2.318-.472.2.227.291-.454.282.118.29-.49.2.217.318-.536.197.218.312-.481.191.19.354-.536.227.2.364-.59.29.236.319-.49.218.172.336-.572.209.181.29-.509.2.246.357-.516.243.198.164-.382.218.245.063-.327.154.3z" fill="#fdc282"/><path d="M72.049 95.72v8.912l-5.432 3.136v-8.912l5.432-3.136m2.581 3.854v3.427l-2.089 1.205v-3.426l2.088-1.206m2.302-8.538v1.353l-10.46 6.039v-1.353l10.46-6.039m0-2.13v1.353l-10.46 6.039v-1.353l10.46-6.039m0-2.13v1.353l-10.46 6.039v-1.353l10.46-6.039" fill="#ca633a"/><path d="M71.086 99.047c-.003.134-.071.279-.153.323-.082.045-.146-.027-.143-.16.002-.135.07-.28.152-.325.082-.044.146.028.144.162m-.264.612c-.203.49-.338 1.242-.354 2.076-.003.127-.068.265-.145.308h-.001c-.078.043-.14-.025-.137-.153.005-.256-.011-.838-.263-.7-.253.139-.291.75-.296 1.007-.003.128-.068.266-.146.308l-.008.004a.106.106 0 0 1-.009.006c-.078.042-.14-.026-.137-.154.005-.256-.01-.838-.263-.7-.253.139-.291.75-.296 1.007-.003.128-.068.266-.146.308-.078.043-.139-.026-.136-.153.018-.97.315-1.475.587-1.624.156-.086.317-.06.421.164.116-.344.28-.549.437-.635.123-.067.248-.066.347.045.08-.542.211-1.02.377-1.389-.273-.342-.671-.433-1.12-.187-.856.47-1.572 1.988-1.599 3.39-.026 1.403.647 2.16 1.503 1.69.857-.47 1.573-1.988 1.6-3.391.009-.5-.07-.918-.216-1.227" fill="#fff"/><path d="M71.5 63.806l3.744-1.84.002-1.535-3.742 1.826-.004 1.55z" fill="#fff" fill-rule="evenodd"/></svg>