<svg xmlns="http://www.w3.org/2000/svg" width="103.092" height="139.015" viewBox="0 0 96.648755 130.32682"><path d="M34.84 77.032l-9.69 5.538 61.453 35.48 9.69-5.538-61.453-35.48z" fill="#44355f"/><path d="M65.661 74.471l7.65-4.16 6.57 32.835-7.65 4.16-6.57-32.835zM46.417 92.468l7.65-4.16 6.375-24.78-7.65 4.16-6.375 24.78z" fill="#f2d2cf"/><path d="M67.67 104.738l-6.553-32.89 4.544 2.623 6.57 32.835-.247-.078-4.313-2.49zm-21.253-12.27l6.554-25.324-4.545-2.623-6.57 25.248 4.561 2.699z" fill="#fee6db"/><path d="M89 88.222l-61.453-35.48V49.01l61.452 35.48v3.732z" fill="#f494be"/><path d="M89 88.485l-61.453-35.48v-3.733l61.452 35.48v3.733z" fill="#128cac"/><path d="M96.649 80.592l-7.65 4.16v3.733l7.65-4.16v-3.733z" fill="#53bddb"/><path d="M35.196 45.113l-7.65 4.16L89 84.752l7.65-4.16-61.453-35.48z" fill="#8bd6f2"/><path d="M91.783 77.876l-7.65 4.16V40.563l7.65-4.16v41.473z" fill="#f2d2cf"/><path d="M84.133 82.036l-51.72-29.861V10.702l51.72 29.86v41.474z" fill="#fee6db"/><path d="M89 43.372L27.546 7.892V4.16l61.452 35.48v3.732z" fill="#128cac"/><path d="M96.649 35.48l-7.65 4.16v3.732l7.65-4.16V35.48z" fill="#53bddb"/><path d="M35.196 0l-7.65 4.16L89 39.64l7.65-4.16L35.196 0z" fill="#8bd6f2"/><g fill="#44355f"><path d="M18.354 102.594l13.785 6.934-17.961 11.902-13.785-6.934 17.961-11.902z"/><path d="M21.582 102.1l15.156 5.903-15.29 13.085-15.156-5.903 15.29-13.085z"/></g><path d="M77.314 44.333l-4.673-1.134 1.405 2.25-18.109 8.888L48.72 40.49l-12.787 4.857.974 1.94 11.059-4.032 7.282 13.975 19.958-9.922 1.613 2.583.495-5.557z" fill="#c59bb0"/><path d="M16.571 86.91l12.718 6.398-16.571 10.981L0 97.892 16.571 86.91z" fill="#f7f8f9"/><path d="M15.665 101.385L4.579 95.809m5.786 5.116l3.407 1.714m2.804-1.858L5.491 95.205m11.996 4.972L6.402 94.601m11.997 4.972L7.313 93.997M19.31 98.97L8.225 93.392m11.997 4.973L9.136 92.79m11.997 4.971l-11.085-5.576m11.997 4.972l-11.086-5.576m.911-.604l11.086 5.576m.912-.603l-11.086-5.577m.911-.604l11.086 5.576m-10.174-6.18l11.085 5.576m.912-.604l-11.086-5.576" fill="none" stroke="#d4d4d4" stroke-width=".355" stroke-miterlimit="10"/><path d="M12.718 120.39v-16.1L0 97.891v16.216l12.718 6.281z" fill="#e0bccd"/><path d="M12.718 120.39v-16.1l16.57-10.982v16.1l-16.57 10.981z" fill="#c59bb0"/><path d="M19.55 86.455L33.531 91.9l-14.107 12.073-13.983-5.446L19.55 86.455z" fill="#f7f8f9"/><path d="M21.732 100.883L9.543 96.135m6.832 4.667l3.746 1.46m2.387-2.043L10.319 95.47m12.965 4.085l-12.189-4.748m.776-.664l12.189 4.748m.776-.665L12.647 93.48m12.965 4.082l-12.189-4.747m12.965 4.083l-12.189-4.747m.776-.664l12.189 4.747m.776-.664l-12.19-4.747m12.964 4.084l-12.187-4.748m12.963 4.084l-12.187-4.748m12.963 4.084L18.078 88.83m12.964 4.085l-12.188-4.748" fill="none" stroke="#d4d4d4" stroke-width=".355" stroke-miterlimit="10"/><path d="M33.532 91.901v16.1l-14.107 12.073v-16.1l14.107-12.073z" fill="#f2d2cf"/><path d="M5.442 98.528v16.1l13.983 5.446v-16.1L5.442 98.528z" fill="#fee6db"/><g fill="#44355f"><path d="M57.929 108.536l-12.718 6.397 16.571 10.981 12.718-6.397-16.571-10.981z"/><path d="M54.95 108.08l-13.982 5.446L55.074 125.6l13.983-5.446-14.106-12.073z"/></g><path d="M56.945 107.946l-12.718 6.397 16.571 10.981 12.718-6.397-16.571-10.981z" fill="#53bddb"/><path d="M53.967 107.49l-13.983 5.446 14.106 12.073 13.983-5.447-14.106-12.073z" fill="#8bd6f2"/><g fill="#4d4d4e"><path d="M51.252 125.11c2.725 1.574 7.143 1.574 9.868 0 2.725-1.573 2.725-4.124 0-5.697-2.725-1.573-7.143-1.573-9.868 0-2.725 1.573-2.725 4.124 0 5.697zm1.23-.71c-2.046-1.18-2.046-3.096 0-4.277 2.045-1.181 5.362-1.181 7.408 0 2.046 1.181 2.046 3.096 0 4.278-2.046 1.18-5.363 1.18-7.408 0"/><path d="M61.256 124.293l-1.551.896 3.626 2.094 1.552-.896-3.627-2.094z"/><path d="M63.776 125.373l-2.2 1.27 5.799 3.349c.701.405 1.762.449 2.37.098.607-.35.531-.963-.17-1.368l-5.8-3.349z"/></g><path d="M52.05 121.873c2.725 1.573 7.143 1.573 9.868 0 2.725-1.574 2.725-4.124 0-5.698-2.725-1.573-7.143-1.573-9.868 0-2.725 1.574-2.725 4.124 0 5.698zm1.23-.71c-2.046-1.181-2.046-3.096 0-4.278 2.046-1.18 5.363-1.18 7.409 0 2.046 1.182 2.046 3.097 0 4.278-2.046 1.181-5.363 1.181-7.41 0" fill="#44355f"/><path d="M52.05 121.074c2.725 1.574 7.143 1.574 9.868 0 2.725-1.573 2.725-4.124 0-5.697-2.725-1.573-7.143-1.573-9.868 0-2.725 1.573-2.725 4.124 0 5.697zm1.23-.71c-2.046-1.18-2.046-3.096 0-4.277s5.363-1.181 7.409 0c2.046 1.181 2.046 3.096 0 4.278-2.046 1.18-5.363 1.18-7.41 0" fill="#725c94"/><path d="M60.503 121.153v.798l3.627 2.094 1.551-.896-5.178-1.996z" fill="#1ab59d"/><path d="M62.054 120.257l-1.551.896 3.627 2.094 1.551-.896-3.627-2.094z" fill="#62c4b0"/><path d="M70.953 125.498l-1.334-.45-5.045-2.912-1.327.766-.873-.294v.798l5.799 3.348c.702.405 1.763.45 2.37.098.261-.15.396-.35.408-.56l.003-.001v-.793z" fill="#44355f"/><path d="M64.574 121.337l-2.2 1.27 5.799 3.349c.702.405 1.763.449 2.37.098.608-.35.532-.963-.17-1.368l-5.8-3.349z" fill="#725c94"/></svg>