<?xml version="1.0" encoding="UTF-8" standalone="no"?>
<!-- Created with Inkscape (http://www.inkscape.org/) -->

<svg
   xmlns:dc="http://purl.org/dc/elements/1.1/"
   xmlns:cc="http://creativecommons.org/ns#"
   xmlns:rdf="http://www.w3.org/1999/02/22-rdf-syntax-ns#"
   xmlns:svg="http://www.w3.org/2000/svg"
   xmlns="http://www.w3.org/2000/svg"
   xmlns:sodipodi="http://sodipodi.sourceforge.net/DTD/sodipodi-0.dtd"
   xmlns:inkscape="http://www.inkscape.org/namespaces/inkscape"
   width="40.700981mm"
   height="32.709106mm"
   viewBox="0 0 144.21607 115.89841"
   id="svg10975"
   version="1.1"
   inkscape:version="0.91 r13725"
   sodipodi:docname="comofunciona.svg">
  <defs
     id="defs10977" />
  <sodipodi:namedview
     id="base"
     pagecolor="#ffffff"
     bordercolor="#666666"
     borderopacity="1.0"
     inkscape:pageopacity="0.0"
     inkscape:pageshadow="2"
     inkscape:zoom="0.35"
     inkscape:cx="328.53661"
     inkscape:cy="-303.01394"
     inkscape:document-units="px"
     inkscape:current-layer="layer1"
     showgrid="false"
     fit-margin-top="0"
     fit-margin-left="0"
     fit-margin-right="0"
     fit-margin-bottom="0"
     inkscape:window-width="1366"
     inkscape:window-height="705"
     inkscape:window-x="-8"
     inkscape:window-y="-8"
     inkscape:window-maximized="1" />
  <metadata
     id="metadata10980">
    <rdf:RDF>
      <cc:Work
         rdf:about="">
        <dc:format>image/svg+xml</dc:format>
        <dc:type
           rdf:resource="http://purl.org/dc/dcmitype/StillImage" />
        <dc:title></dc:title>
      </cc:Work>
    </rdf:RDF>
  </metadata>
  <g
     inkscape:label="Capa 1"
     inkscape:groupmode="layer"
     id="layer1"
     transform="translate(-46.463392,-113.44986)">
    <g
       id="g4226"
       transform="matrix(0.26794506,0,0,-0.26794506,27.297657,789.38141)">
      <path
         d="m 100.9794,2123.4475 -29.4508,17.0073 18.7291,10.7929 29.4508,-17.0073 -18.7291,-10.7929 z"
         style="fill:#95a6a5;fill-opacity:1;fill-rule:nonzero;stroke:none"
         id="path4228"
         inkscape:connector-curvature="0" />
      <path
         d="m 591.0296,2393.43 -29.4509,17.0078 18.7291,10.7927 29.4508,-17.0076 -18.729,-10.7929 z"
         style="fill:#95a6a5;fill-opacity:1;fill-rule:nonzero;stroke:none"
         id="path4230"
         inkscape:connector-curvature="0" />
      <path
         d="m 325.8283,2090.1044 257.2501,148.5599 -163.5979,94.2749 -257.25,-148.5598 163.5978,-94.275 z"
         style="fill:#95a6a5;fill-opacity:1;fill-rule:nonzero;stroke:none"
         id="path4232"
         inkscape:connector-curvature="0" />
      <g
         id="g4234">
        <g
           id="g4236">
          <path
             d="m 296.6737,2271.5589 -8.598,5.5681 0,64.6832 8.598,-5.5684 0,-64.6829 z"
             style="fill:#584972;fill-opacity:1;fill-rule:nonzero;stroke:none"
             id="path4238"
             inkscape:connector-curvature="0" />
          <path
             d="m 306.7886,2277.3549 -10.1149,-5.796 0,64.6829 10.1149,5.9406 0,-64.8275 z"
             style="fill:#725c94;fill-opacity:1;fill-rule:nonzero;stroke:none"
             id="path4240"
             inkscape:connector-curvature="0" />
        </g>
        <g
           id="g4242">
          <path
             d="m 356.8575,2306.5841 -9.1035,5.5683 0,64.683 9.1035,-5.5681 0,-64.6832 z"
             style="fill:#584972;fill-opacity:1;fill-rule:nonzero;stroke:none"
             id="path4244"
             inkscape:connector-curvature="0" />
          <path
             d="m 366.467,2312.3801 -9.6095,-5.796 0,64.6832 9.6095,5.9403 0,-64.8275 z"
             style="fill:#725c94;fill-opacity:1;fill-rule:nonzero;stroke:none"
             id="path4246"
             inkscape:connector-curvature="0" />
        </g>
        <g
           id="g4248">
          <path
             d="m 236.9951,2310.6623 -8.5978,5.5683 0,64.683 8.5978,-5.5681 0,-64.6832 z"
             style="fill:#584972;fill-opacity:1;fill-rule:nonzero;stroke:none"
             id="path4250"
             inkscape:connector-curvature="0" />
          <path
             d="m 247.6159,2316.4583 -10.6208,-5.796 0,64.6832 10.6208,5.9403 0,-64.8275 z"
             style="fill:#725c94;fill-opacity:1;fill-rule:nonzero;stroke:none"
             id="path4252"
             inkscape:connector-curvature="0" />
        </g>
        <path
           d="m 299.6391,2341.1735 67.1241,38.2017 -71.2018,41.0309 -67.1244,-38.2016 71.2021,-41.031 z"
           style="fill:#8bd6f2;fill-opacity:1;fill-rule:nonzero;stroke:none"
           id="path4254"
           inkscape:connector-curvature="0" />
        <path
           d="m 299.6858,2329.2938 67.0774,38.1589 0,11.9225 -67.0774,-38.1589 0,-11.9225 z"
           style="fill:#157b91;fill-opacity:1;fill-rule:nonzero;stroke:none"
           id="path4256"
           inkscape:connector-curvature="0" />
        <path
           d="m 228.437,2370.3245 71.2488,-41.0307 0,11.9225 -71.2488,40.9882 0,-11.88 z"
           style="fill:#128cac;fill-opacity:1;fill-rule:nonzero;stroke:none"
           id="path4258"
           inkscape:connector-curvature="0" />
        <path
           d="m 227.8916,2484.8734 13.9879,-7.5895 -0.5208,-102.4506 -13.4671,7.5892 0,102.4509 z"
           style="fill:#128cac;fill-opacity:1;fill-rule:evenodd;stroke:none"
           id="path4260"
           inkscape:connector-curvature="0" />
        <path
           d="m 306.7886,2515.4218 -64.9936,-37.2133 -0.563,-102.9129 65.5566,37.6755 0,102.4507 z"
           style="fill:#53bddb;fill-opacity:1;fill-rule:evenodd;stroke:none"
           id="path4262"
           inkscape:connector-curvature="0" />
        <path
           d="m 307.0162,2514.4971 -64.6548,-37.2132 -13.9292,7.6904 64.6549,37.6755 13.9291,-8.1527 z"
           style="fill:#8bd6f2;fill-opacity:1;fill-rule:evenodd;stroke:none"
           id="path4264"
           inkscape:connector-curvature="0" />
      </g>
      <g
         id="g4266">
        <g
           id="g4268">
          <path
             d="m 468.1225,2258.9887 8.598,5.5683 0,64.683 -8.598,-5.5681 0,-64.6832 z"
             style="fill:#725c94;fill-opacity:1;fill-rule:nonzero;stroke:none"
             id="path4270"
             inkscape:connector-curvature="0" />
          <path
             d="m 458.0076,2264.7847 10.1149,-5.796 0,64.6832 -10.1149,5.9403 0,-64.8275 z"
             style="fill:#584972;fill-opacity:1;fill-rule:nonzero;stroke:none"
             id="path4272"
             inkscape:connector-curvature="0" />
        </g>
        <g
           id="g4274">
          <path
             d="m 407.9384,2294.0141 9.1035,5.5681 0,64.6832 -9.1035,-5.5684 0,-64.6829 z"
             style="fill:#725c94;fill-opacity:1;fill-rule:nonzero;stroke:none"
             id="path4276"
             inkscape:connector-curvature="0" />
          <path
             d="m 398.3292,2299.8101 9.6092,-5.796 0,64.6829 -9.6092,5.9406 0,-64.8275 z"
             style="fill:#584972;fill-opacity:1;fill-rule:nonzero;stroke:none"
             id="path4278"
             inkscape:connector-curvature="0" />
        </g>
        <g
           id="g4280">
          <path
             d="m 527.8011,2298.0923 8.5978,5.5684 0,64.6829 -8.5978,-5.5684 0,-64.6829 z"
             style="fill:#725c94;fill-opacity:1;fill-rule:nonzero;stroke:none"
             id="path4282"
             inkscape:connector-curvature="0" />
          <path
             d="m 517.6862,2303.8883 10.1149,-5.796 0,64.6829 -10.1149,5.9406 0,-64.8275 z"
             style="fill:#584972;fill-opacity:1;fill-rule:nonzero;stroke:none"
             id="path4284"
             inkscape:connector-curvature="0" />
        </g>
        <path
           d="m 465.7187,2328.6036 -67.1244,38.2017 71.202,41.0306 67.1241,-38.2014 -71.2017,-41.0309 z"
           style="fill:#8bd6f2;fill-opacity:1;fill-rule:nonzero;stroke:none"
           id="path4286"
           inkscape:connector-curvature="0" />
        <path
           d="m 465.6719,2316.7236 -67.0776,38.1589 0,11.9228 67.0776,-38.1589 0,-11.9228 z"
           style="fill:#128cac;fill-opacity:1;fill-rule:nonzero;stroke:none"
           id="path4288"
           inkscape:connector-curvature="0" />
        <path
           d="m 536.9204,2357.7545 -71.2485,-41.0309 0,11.9228 71.2485,40.9881 0,-11.88 z"
           style="fill:#157b91;fill-opacity:1;fill-rule:nonzero;stroke:none"
           id="path4290"
           inkscape:connector-curvature="0" />
        <path
           d="m 536.9046,2473.2281 -13.6554,-7.5895 0,-103.8379 13.6554,8.0518 0,103.3756 z"
           style="fill:#128cac;fill-opacity:1;fill-rule:evenodd;stroke:none"
           id="path4292"
           inkscape:connector-curvature="0" />
        <path
           d="m 458.0076,2502.8518 65.2416,-37.2132 0,-102.4509 -65.2416,37.2132 0,102.4509 z"
           style="fill:#53bddb;fill-opacity:1;fill-rule:evenodd;stroke:none"
           id="path4294"
           inkscape:connector-curvature="0" />
        <path
           d="m 458.3415,2502.8518 64.6549,-37.2132 13.9291,7.6904 -64.6548,37.2129 -13.9292,-7.6901 z"
           style="fill:#8bd6f2;fill-opacity:1;fill-rule:evenodd;stroke:none"
           id="path4296"
           inkscape:connector-curvature="0" />
      </g>
      <g
         id="g4298">
        <g
           id="g4300">
          <path
             d="m 328.5357,2134.819 -16.6895,10.732 0,124.6682 16.6895,-10.7319 0,-124.6683 z"
             style="fill:#493d5f;fill-opacity:1;fill-rule:nonzero;stroke:none"
             id="path4302"
             inkscape:connector-curvature="0" />
          <path
             d="m 347.754,2145.99 -19.2183,-11.171 0,124.6683 19.2183,11.4494 0,-124.9467 z"
             style="fill:#44355f;fill-opacity:1;fill-rule:nonzero;stroke:none"
             id="path4304"
             inkscape:connector-curvature="0" />
        </g>
        <g
           id="g4306">
          <path
             d="m 235.9837,2181.5189 -17.1955,10.732 0,124.6686 17.1955,-10.7323 0,-124.6683 z"
             style="fill:#493d5f;fill-opacity:1;fill-rule:nonzero;stroke:none"
             id="path4308"
             inkscape:connector-curvature="0" />
          <path
             d="m 254.6963,2192.69 -18.7126,-11.1711 0,124.6683 18.7126,11.4494 0,-124.9466 z"
             style="fill:#44355f;fill-opacity:1;fill-rule:nonzero;stroke:none"
             id="path4310"
             inkscape:connector-curvature="0" />
        </g>
        <g
           id="g4312">
          <path
             d="m 500.4907,2235.1547 -17.1955,10.7317 0,124.6685 17.1955,-10.7319 0,-124.6683 z"
             style="fill:#493d5f;fill-opacity:1;fill-rule:nonzero;stroke:none"
             id="path4314"
             inkscape:connector-curvature="0" />
          <path
             d="m 519.2033,2246.3257 -18.7126,-11.171 0,124.6683 18.7126,11.4494 0,-124.9467 z"
             style="fill:#44355f;fill-opacity:1;fill-rule:nonzero;stroke:none"
             id="path4316"
             inkscape:connector-curvature="0" />
        </g>
        <path
           d="m 333.3747,2241.0465 215.792,124.6184 -137.2329,79.0818 -215.7916,-124.6184 137.2325,-79.0818 z"
           style="fill:#725c94;fill-opacity:1;fill-rule:nonzero;stroke:none"
           id="path4318"
           inkscape:connector-curvature="0" />
        <path
           d="m 333.4646,2218.1496 215.7021,124.5357 0,22.9796 -215.7021,-124.5356 0,-22.9797 z"
           style="fill:#685580;fill-opacity:1;fill-rule:nonzero;stroke:none"
           id="path4320"
           inkscape:connector-curvature="0" />
        <path
           d="m 196.1422,2297.2314 137.3224,-79.0818 0,22.9797 -137.3224,78.999 0,-22.8969 z"
           style="fill:#584972;fill-opacity:1;fill-rule:nonzero;stroke:none"
           id="path4322"
           inkscape:connector-curvature="0" />
      </g>
      <g
         id="g4324">
        <g
           id="g4326">
          <path
             d="m 233.9606,2118.0498 8.5978,5.5684 0,64.6829 -8.5978,-5.5681 0,-64.6832 z"
             style="fill:#725c94;fill-opacity:1;fill-rule:nonzero;stroke:none"
             id="path4328"
             inkscape:connector-curvature="0" />
          <path
             d="m 223.8457,2123.8461 10.1149,-5.7963 0,64.6832 -10.1149,5.9403 0,-64.8272 z"
             style="fill:#584972;fill-opacity:1;fill-rule:nonzero;stroke:none"
             id="path4330"
             inkscape:connector-curvature="0" />
        </g>
        <g
           id="g4332">
          <path
             d="m 173.7765,2153.0752 9.1035,5.5681 0,64.6833 -9.1035,-5.5684 0,-64.683 z"
             style="fill:#725c94;fill-opacity:1;fill-rule:nonzero;stroke:none"
             id="path4334"
             inkscape:connector-curvature="0" />
          <path
             d="m 164.1671,2158.8712 9.6094,-5.796 0,64.683 -9.6094,5.9405 0,-64.8275 z"
             style="fill:#584972;fill-opacity:1;fill-rule:nonzero;stroke:none"
             id="path4336"
             inkscape:connector-curvature="0" />
        </g>
        <g
           id="g4338">
          <path
             d="m 293.639,2157.1534 8.5977,5.5684 0,64.683 -8.5977,-5.5681 0,-64.6833 z"
             style="fill:#725c94;fill-opacity:1;fill-rule:nonzero;stroke:none"
             id="path4340"
             inkscape:connector-curvature="0" />
          <path
             d="m 283.5241,2162.9497 10.1149,-5.7963 0,64.6833 -10.1149,5.9402 0,-64.8272 z"
             style="fill:#584972;fill-opacity:1;fill-rule:nonzero;stroke:none"
             id="path4342"
             inkscape:connector-curvature="0" />
        </g>
        <path
           d="m 231.6705,2187.6647 -67.1241,38.2017 71.202,41.0309 67.1241,-38.2016 -71.202,-41.031 z"
           style="fill:#8bd6f2;fill-opacity:1;fill-rule:nonzero;stroke:none"
           id="path4344"
           inkscape:connector-curvature="0" />
        <path
           d="m 231.624,2175.785 -67.0776,38.1586 0,11.9228 67.0776,-38.1586 0,-11.9228 z"
           style="fill:#128cac;fill-opacity:1;fill-rule:nonzero;stroke:none"
           id="path4346"
           inkscape:connector-curvature="0" />
        <path
           d="m 302.8725,2216.8159 -71.2485,-41.0309 0,11.9228 71.2485,40.9879 0,-11.8798 z"
           style="fill:#157b91;fill-opacity:1;fill-rule:nonzero;stroke:none"
           id="path4348"
           inkscape:connector-curvature="0" />
        <path
           d="m 245.0871,2298.7477 -13.6553,-7.7346 0,-104.4082 13.6553,7.7346 0,104.4082 z"
           style="fill:#128cac;fill-opacity:1;fill-rule:evenodd;stroke:none"
           id="path4350"
           inkscape:connector-curvature="0" />
        <path
           d="m 164.6731,2328.9375 66.7587,-37.9244 0,-104.4082 -66.7587,37.9244 0,104.4082 z"
           style="fill:#53bddb;fill-opacity:1;fill-rule:evenodd;stroke:none"
           id="path4352"
           inkscape:connector-curvature="0" />
        <path
           d="m 165.0991,2328.9375 65.8899,-37.9244 14.1954,7.8375 -65.8902,37.9241 -14.1951,-7.8372 z"
           style="fill:#8bd6f2;fill-opacity:1;fill-rule:evenodd;stroke:none"
           id="path4354"
           inkscape:connector-curvature="0" />
      </g>
      <g
         id="g4356">
        <g
           id="g4358">
          <path
             d="m 436.2605,2123.5983 -8.5978,5.5684 0,64.6829 8.5978,-5.5681 0,-64.6832 z"
             style="fill:#584972;fill-opacity:1;fill-rule:nonzero;stroke:none"
             id="path4360"
             inkscape:connector-curvature="0" />
          <path
             d="m 446.881,2129.3946 -10.6205,-5.7963 0,64.6832 10.6205,5.9403 0,-64.8272 z"
             style="fill:#725c94;fill-opacity:1;fill-rule:nonzero;stroke:none"
             id="path4362"
             inkscape:connector-curvature="0" />
        </g>
        <g
           id="g4364">
          <path
             d="m 496.4445,2158.6238 -9.1034,5.5681 0,64.6832 9.1034,-5.5684 0,-64.6829 z"
             style="fill:#584972;fill-opacity:1;fill-rule:nonzero;stroke:none"
             id="path4366"
             inkscape:connector-curvature="0" />
          <path
             d="m 506.5597,2164.4198 -10.1152,-5.796 0,64.6829 10.1152,5.9406 0,-64.8275 z"
             style="fill:#725c94;fill-opacity:1;fill-rule:nonzero;stroke:none"
             id="path4368"
             inkscape:connector-curvature="0" />
        </g>
        <g
           id="g4370">
          <path
             d="m 377.0875,2162.702 -9.1034,5.5684 0,64.6829 9.1034,-5.5681 0,-64.6832 z"
             style="fill:#584972;fill-opacity:1;fill-rule:nonzero;stroke:none"
             id="path4372"
             inkscape:connector-curvature="0" />
          <path
             d="m 387.2027,2168.4983 -10.1152,-5.7963 0,64.6832 10.1152,5.9403 0,-64.8272 z"
             style="fill:#725c94;fill-opacity:1;fill-rule:nonzero;stroke:none"
             id="path4374"
             inkscape:connector-curvature="0" />
        </g>
        <path
           d="m 439.5042,2193.2133 67.1241,38.2016 -71.2018,41.031 -67.1244,-38.2017 71.2021,-41.0309 z"
           style="fill:#8bd6f2;fill-opacity:1;fill-rule:nonzero;stroke:none"
           id="path4376"
           inkscape:connector-curvature="0" />
        <path
           d="m 439.5506,2181.3333 67.0777,38.1588 0,11.9228 -67.0777,-38.1588 0,-11.9228 z"
           style="fill:#157b91;fill-opacity:1;fill-rule:nonzero;stroke:none"
           id="path4378"
           inkscape:connector-curvature="0" />
        <path
           d="m 368.3021,2222.3645 71.2485,-41.0312 0,11.9228 -71.2485,40.9881 0,-11.8797 z"
           style="fill:#128cac;fill-opacity:1;fill-rule:nonzero;stroke:none"
           id="path4380"
           inkscape:connector-curvature="0" />
        <path
           d="m 425.6396,2304.2962 13.6554,-7.7346 0,-104.4082 -13.6554,7.7346 0,104.4082 z"
           style="fill:#128cac;fill-opacity:1;fill-rule:evenodd;stroke:none"
           id="path4382"
           inkscape:connector-curvature="0" />
        <path
           d="m 506.054,2334.4858 -66.759,-37.9242 0,-104.4082 66.759,37.9241 0,104.4083 z"
           style="fill:#53bddb;fill-opacity:1;fill-rule:evenodd;stroke:none"
           id="path4384"
           inkscape:connector-curvature="0" />
        <path
           d="m 506.0758,2334.4858 -65.8905,-37.9242 -14.195,7.8375 65.8902,37.9242 14.1953,-7.8375 z"
           style="fill:#8bd6f2;fill-opacity:1;fill-rule:evenodd;stroke:none"
           id="path4386"
           inkscape:connector-curvature="0" />
      </g>
      <g
         id="g4388">
        <path
           d="m 588.3982,2396.5767 15.3411,8.7664 3.645,20.132 -21.8131,-4.9904 2.827,-23.908 z"
           style="fill:#44355f;fill-opacity:1;fill-rule:nonzero;stroke:none"
           id="path4390"
           inkscape:connector-curvature="0" />
        <path
           d="m 592.8182,2411.4084 15.3411,8.7664 0,8.8869 -15.3411,-8.7664 0,-8.8869 z"
           style="fill:#685580;fill-opacity:1;fill-rule:nonzero;stroke:none"
           id="path4392"
           inkscape:connector-curvature="0" />
        <path
           d="m 568.8031,2407.8504 19.5951,-11.2737 3.6448,20.1319 -26.0669,15.0497 2.827,-23.9079 z"
           style="fill:#685580;fill-opacity:1;fill-rule:nonzero;stroke:none"
           id="path4394"
           inkscape:connector-curvature="0" />
        <path
           d="m 565.2011,2427.353 27.6171,-15.9446 0,8.8869 -27.6171,15.9449 0,-8.8872 z"
           style="fill:#8d9aca;fill-opacity:1;fill-rule:nonzero;stroke:none"
           id="path4396"
           inkscape:connector-curvature="0" />
        <path
           d="m 608.1593,2429.0617 -15.3411,-8.7664 -27.6171,15.9449 15.3411,8.7661 27.6171,-15.9446 z"
           style="fill:#725c94;fill-opacity:1;fill-rule:nonzero;stroke:none"
           id="path4398"
           inkscape:connector-curvature="0" />
        <path
           d="m 602.3347,2428.3485 -11.9035,-6.8017 -21.4288,12.3718 11.9035,6.802 21.4288,-12.3721 z"
           style="fill:#aa5a7f;fill-opacity:1;fill-rule:nonzero;stroke:none"
           id="path4400"
           inkscape:connector-curvature="0" />
        <path
           d="m 584.731,2459.7184 c 0.0612,0.2053 0.1202,0.4385 0.1769,0.6914 l -0.4366,5.2602 1.6504,3.5711 c 0.0357,0.1613 0.0689,0.2387 0.0997,0.2163 l 0.003,0.01 0.001,-0.01 c 0.0386,-0.039 0.074,-0.2389 0.1066,-0.6363 l 0.5961,-3.5507 c 1.1152,-5.3547 3.4657,-14.4848 4.3676,-20.0239 0.5528,-3.394 0.1177,-6.6229 -0.4878,-9.0723 l 0.3192,-3.0796 -3.5325,-5.057 -0.4003,4.8215 -1.7495,0.934 c 0,0 -1.8142,6.2192 -2.151,10.9511 -0.3364,4.7313 0.5069,11.855 1.4372,14.9765"
           style="fill:#1ab59d;fill-opacity:1;fill-rule:nonzero;stroke:none"
           id="path4402"
           inkscape:connector-curvature="0" />
        <path
           d="m 578.5356,2456.2429 -0.2568,5.1689 1.6809,3.6967 c 0.0595,0.2126 0.1103,0.1043 0.1548,-0.4799 0.2049,-2.6972 3.0435,-13.1292 3.9708,-18.8226 0.4297,-2.6394 0.1139,-5.1543 -0.3484,-7.094 l 0.2885,-2.0163 -3.24,-5.413 -0.7415,5.004 -0.6449,0.3441 c 0,0 -1.4539,4.9825 -1.724,8.7727 -0.2339,3.2865 0.2435,8.0112 0.8606,10.8394"
           style="fill:#1ab59d;fill-opacity:1;fill-rule:nonzero;stroke:none"
           id="path4404"
           inkscape:connector-curvature="0" />
        <path
           d="m 591.2603,2447.2678 -0.1131,5.8626 1.7289,3.8685 0.001,-0.022 c 0.0442,0.072 0.0831,-0.077 0.1179,-0.5346 0.1965,-2.5801 2.9112,-12.5572 3.7982,-18.0031 0.5283,-3.2457 -0.1214,-6.2867 -0.7328,-8.2222 l 0.1344,-3.7309 -2.6314,-2.0985 -2.0138,7.8826 -0.008,0.4149 c -0.3676,1.6155 -0.7546,3.6224 -0.8793,5.3691 -0.1942,2.7295 0.1244,6.4973 0.5981,9.2132"
           style="fill:#1ab59d;fill-opacity:1;fill-rule:nonzero;stroke:none"
           id="path4406"
           inkscape:connector-curvature="0" />
        <path
           d="m 587.5946,2428.035 c 0,0 3.1736,6.3927 2.0162,13.5006 -1.1574,7.1079 -4.7007,20.1308 -4.9569,23.4984 -0.2565,3.3681 -0.6766,-5.9029 -1.6078,-9.0239 -0.9304,-3.1218 -1.7739,-10.2458 -1.4372,-14.9768 0.3365,-4.7319 2.1509,-10.9514 2.1509,-10.9514 l 3.8348,-2.0469 z"
           style="fill:#62c4b0;fill-opacity:1;fill-rule:nonzero;stroke:none"
           id="path4408"
           inkscape:connector-curvature="0" />
        <path
           d="m 580.7854,2431.2827 c 0,0 2.5422,5.1208 1.6147,10.8147 -0.9272,5.6934 -3.7656,16.1255 -3.9705,18.8226 -0.2058,2.698 -0.5423,-4.7279 -1.2878,-7.2286 -0.7458,-2.5002 -1.4213,-8.2066 -1.152,-11.9962 0.2704,-3.7905 1.7243,-8.773 1.7243,-8.773 l 3.0713,-1.6395 z"
           style="fill:#62c4b0;fill-opacity:1;fill-rule:nonzero;stroke:none"
           id="path4410"
           inkscape:connector-curvature="0" />
        <path
           d="m 593.5635,2424.388 c 0,0 2.4315,4.8971 1.5448,10.3427 -0.8869,5.446 -3.6019,15.4233 -3.7981,18.0034 -0.1964,2.5801 -0.5179,-4.5226 -1.2311,-6.9142 -0.7137,-2.391 -1.3598,-7.8489 -1.1018,-11.4738 0.2585,-3.6252 1.6486,-8.39 1.6486,-8.39 l 2.9376,-1.5681 z"
           style="fill:#7ccbbc;fill-opacity:1;fill-rule:nonzero;stroke:none"
           id="path4412"
           inkscape:connector-curvature="0" />
      </g>
      <g
         id="g4414">
        <path
           d="m 97.2675,2126.2592 15.3408,8.7662 3.6453,20.1319 -21.8131,-4.9904 2.827,-23.9077 z"
           style="fill:#44355f;fill-opacity:1;fill-rule:nonzero;stroke:none"
           id="path4416"
           inkscape:connector-curvature="0" />
        <path
           d="m 101.6875,2141.0906 15.3411,8.7665 0,8.8869 -15.3411,-8.7662 0,-8.8872 z"
           style="fill:#685580;fill-opacity:1;fill-rule:nonzero;stroke:none"
           id="path4418"
           inkscape:connector-curvature="0" />
        <path
           d="m 77.6724,2137.5326 19.5951,-11.2734 3.645,20.1317 -26.0671,15.0497 2.827,-23.908 z"
           style="fill:#685580;fill-opacity:1;fill-rule:nonzero;stroke:none"
           id="path4420"
           inkscape:connector-curvature="0" />
        <path
           d="m 74.0704,2157.0352 27.6171,-15.9446 0,8.8872 -27.6171,15.9446 0,-8.8872 z"
           style="fill:#8d9aca;fill-opacity:1;fill-rule:nonzero;stroke:none"
           id="path4422"
           inkscape:connector-curvature="0" />
        <path
           d="m 117.0286,2158.744 -15.3411,-8.7662 -27.6171,15.9446 15.3411,8.7665 27.6171,-15.9449 z"
           style="fill:#725c94;fill-opacity:1;fill-rule:nonzero;stroke:none"
           id="path4424"
           inkscape:connector-curvature="0" />
        <path
           d="m 111.2043,2158.0311 -11.9035,-6.8021 -21.4291,12.3719 11.9038,6.802 21.4288,-12.3718 z"
           style="fill:#aa5a7f;fill-opacity:1;fill-rule:nonzero;stroke:none"
           id="path4426"
           inkscape:connector-curvature="0" />
        <path
           d="m 93.6003,2189.4007 c 0.0612,0.2052 0.1202,0.4385 0.1771,0.6913 l -0.4365,5.2603 1.6501,3.5711 c 0.0357,0.1613 0.0688,0.2386 0.0997,0.2163 l 0.0026,0.01 0.0014,-0.01 c 0.0386,-0.039 0.074,-0.239 0.1069,-0.6364 l 0.5958,-3.5507 c 1.1152,-5.3546 3.4657,-14.4847 4.3676,-20.0239 0.5528,-3.3939 0.1177,-6.6226 -0.4878,-9.0723 l 0.3192,-3.0795 -3.5326,-5.0571 -0.4002,4.8215 -1.7493,0.934 c 0,0 -1.8144,6.2192 -2.1512,10.9511 -0.3365,4.7313 0.5069,11.855 1.4372,14.9766"
           style="fill:#1ab59d;fill-opacity:1;fill-rule:nonzero;stroke:none"
           id="path4428"
           inkscape:connector-curvature="0" />
        <path
           d="m 87.4049,2185.9251 -0.2568,5.1693 1.6809,3.6966 c 0.0595,0.2123 0.1103,0.1041 0.1548,-0.4802 0.2049,-2.6971 3.0433,-13.1292 3.9708,-18.8226 0.4297,-2.639 0.1139,-5.1542 -0.3484,-7.0942 l 0.2885,-2.016 -3.24,-5.4131 -0.7412,5.004 -0.6452,0.3441 c 0,0 -1.4539,4.9825 -1.724,8.773 -0.2339,3.2862 0.2438,8.011 0.8606,10.8391"
           style="fill:#1ab59d;fill-opacity:1;fill-rule:nonzero;stroke:none"
           id="path4430"
           inkscape:connector-curvature="0" />
        <path
           d="m 100.1296,2176.95 -0.1131,5.8627 1.7289,3.8684 10e-4,-0.021 c 0.0442,0.072 0.083,-0.077 0.1179,-0.5347 0.1965,-2.58 2.9112,-12.5574 3.7982,-18.0031 0.5286,-3.2456 -0.1214,-6.2867 -0.7328,-8.2219 l 0.1346,-3.7312 -2.6316,-2.0988 -2.0138,7.8829 -0.008,0.415 c -0.368,1.6154 -0.7552,3.6227 -0.8796,5.3691 -0.1939,2.7297 0.1242,6.4973 0.5981,9.2131"
           style="fill:#1ab59d;fill-opacity:1;fill-rule:nonzero;stroke:none"
           id="path4432"
           inkscape:connector-curvature="0" />
        <path
           d="m 96.4638,2157.7175 c 0,0 3.1737,6.3925 2.0163,13.5006 -1.1574,7.1076 -4.7007,20.1305 -4.9569,23.4981 -0.2566,3.3681 -0.6766,-5.9029 -1.6078,-9.0238 -0.9304,-3.1218 -1.774,-10.2456 -1.4372,-14.9769 0.3368,-4.7318 2.1512,-10.9511 2.1512,-10.9511 l 3.8344,-2.0469 z"
           style="fill:#62c4b0;fill-opacity:1;fill-rule:nonzero;stroke:none"
           id="path4434"
           inkscape:connector-curvature="0" />
        <path
           d="m 89.6547,2160.9652 c 0,0 2.5422,5.1205 1.6149,10.8145 -0.9275,5.6933 -3.7658,16.1254 -3.9707,18.8226 -0.2055,2.698 -0.5423,-4.7279 -1.2878,-7.2287 -0.7455,-2.5004 -1.4213,-8.2065 -1.152,-11.9962 0.2704,-3.7905 1.7243,-8.7729 1.7243,-8.7729 l 3.0713,-1.6393 z"
           style="fill:#62c4b0;fill-opacity:1;fill-rule:nonzero;stroke:none"
           id="path4436"
           inkscape:connector-curvature="0" />
        <path
           d="m 102.4328,2154.0702 c 0,0 2.4315,4.8971 1.5448,10.3428 -0.8869,5.4459 -3.6017,15.4233 -3.7981,18.0034 -0.1962,2.5801 -0.5179,-4.5227 -1.2308,-6.9143 -0.7141,-2.391 -1.3598,-7.8488 -1.1021,-11.4738 0.2585,-3.6255 1.6483,-8.39 1.6483,-8.39 l 2.9379,-1.5681 z"
           style="fill:#7ccbbc;fill-opacity:1;fill-rule:nonzero;stroke:none"
           id="path4438"
           inkscape:connector-curvature="0" />
      </g>
      <path
         d="m 363.568,2373.7317 28.6015,-17.9997 -52.1246,-31.2599 -28.6015,18.0006 52.1246,31.259 z"
         style="fill:#393151;fill-opacity:1;fill-rule:nonzero;stroke:none"
         id="path4440"
         inkscape:connector-curvature="0" />
      <path
         d="m 342.5397,2409.6716 0,-81.9725 -18.2514,10.5375 0,81.9725 18.2514,-10.5375 z"
         style="fill:#aa5b7f;fill-opacity:1;fill-rule:nonzero;stroke:none"
         id="path4442"
         inkscape:connector-curvature="0" />
      <path
         d="m 331.6022,2342.4585 -7.3139,-4.2225 18.2517,-10.5369 -10.9378,14.7594 z"
         style="fill:#f8aea0;fill-opacity:1;fill-rule:evenodd;stroke:none"
         id="path4444"
         inkscape:connector-curvature="0" />
      <path
         d="m 374.2489,2449.0468 0,-81.9725 -49.9623,-28.8457 0,81.9723 0,0 0.862,2.5056 0.8827,-0.9565 1.3609,2.5198 1.2875,-0.938 1.508,2.3907 0.9565,-0.9195 1.324,2.391 1.1035,-0.9196 1.2138,2.2068 0.883,-0.9196 1.0299,1.9863 0.8458,-0.8462 1.3244,2.0231 0.6987,-0.8827 1.1404,1.9862 0.7724,-1.1035 1.177,2.2439 0.8093,-1.1035 1.2506,2.2805 0.8093,-0.993 1.1769,2.0965 0.8093,-0.8093 1.2875,1.9128 0.809,-0.9195 1.1773,1.8391 1.1401,-0.4782 1.1772,1.9862 0.8093,-0.8827 1.2872,2.1702 0.7971,-0.8827 1.2628,1.9494 0.7725,-0.7725 1.4343,2.1703 0.9198,-0.8093 1.4712,2.391 1.177,-0.9564 1.2875,1.9862 0.8827,-0.6987 1.3612,2.3173 0.8458,-0.7359 1.1773,2.06 0.809,-0.9933 1.4437,2.0874 0.9841,-0.7999 0.6619,1.5449 0.883,-0.993 0.2574,1.3241 0.6205,-1.2099 z"
         style="fill:#f8aea0;fill-opacity:1;fill-rule:nonzero;stroke:none"
         id="path4446"
         inkscape:connector-curvature="0" />
      <path
         d="m 324.2883,2420.2086 7.9563,-4.593 -0.6424,-73.1571 -7.3139,-4.2225 0,81.9726 z"
         style="fill:#fdc282;fill-opacity:1;fill-rule:evenodd;stroke:none"
         id="path4448"
         inkscape:connector-curvature="0" />
      <path
         d="m 342.5397,2409.6716 0,-81.9725 -10.9375,14.7594 0.6424,73.1571 10.2951,-5.944 z"
         style="fill:#ca633a;fill-opacity:1;fill-rule:evenodd;stroke:none"
         id="path4450"
         inkscape:connector-curvature="0" />
      <path
         d="m 374.2486,2449.0553 7.9563,-4.5929 10.2952,-5.944 0,-81.9726 -10.9378,14.7597 -7.3137,-4.2227 0,81.9725 z"
         style="fill:#ca633a;fill-opacity:1;fill-rule:evenodd;stroke:none"
         id="path4452"
         inkscape:connector-curvature="0" />
      <path
         d="m 392.502,2438.5173 0,-81.9726 -49.962,-28.8456 0,81.9725 -3e-4,0 0.862,2.5053 0.8827,-0.9564 1.361,2.5197 1.2875,-0.938 1.508,2.391 0.9564,-0.9195 1.3243,2.3907 1.1036,-0.9195 1.2138,2.207 0.8827,-0.9196 1.0298,1.9863 0.8461,-0.8462 1.3241,2.0231 0.699,-0.8827 1.1401,1.9863 0.7725,-1.1036 1.1772,2.2439 0.809,-1.1035 1.2506,2.2805 0.8093,-0.9933 1.177,2.0968 0.8093,-0.8093 1.2875,1.9128 0.8093,-0.9198 1.1769,1.8394 1.1404,-0.4782 1.1769,1.9862 0.8093,-0.8827 1.2872,2.1702 0.7971,-0.883 1.2629,1.9497 0.7724,-0.7724 1.4346,2.1702 0.9196,-0.8093 1.4712,2.3907 1.1772,-0.9561 1.2872,1.9862 0.883,-0.699 1.3609,2.3173 0.8459,-0.7356 1.1772,2.06 0.8093,-0.9933 1.4437,2.0874 0.9839,-0.7999 0.6621,1.5449 0.8828,-0.9933 0.2573,1.3241 0.6205,-1.2098 z"
         style="fill:#fdc282;fill-opacity:1;fill-rule:nonzero;stroke:none"
         id="path4454"
         inkscape:connector-curvature="0" />
      <path
         d="m 369.5332,2384.7151 0,-36.0802 -21.9909,-12.6964 0,36.08 0,0 c 0,0 21.9909,12.6966 21.9909,12.6966"
         style="fill:#ca633a;fill-opacity:1;fill-rule:nonzero;stroke:none"
         id="path4456"
         inkscape:connector-curvature="0" />
      <path
         d="m 379.9794,2369.1104 0,-13.8716 -8.4549,-4.8816 0,13.8719 0,0 c 0,0 8.4549,4.8813 8.4549,4.8813"
         style="fill:#ca633a;fill-opacity:1;fill-rule:nonzero;stroke:none"
         id="path4458"
         inkscape:connector-curvature="0" />
      <path
         d="m 389.2989,2403.6761 0,-5.4769 -42.3451,-24.4479 0,5.4768 0,0 c 0,0 42.3451,24.448 42.3451,24.448"
         style="fill:#ca633a;fill-opacity:1;fill-rule:nonzero;stroke:none"
         id="path4460"
         inkscape:connector-curvature="0" />
      <path
         d="m 389.2989,2412.2999 0,-5.4768 -42.3451,-24.448 0,5.4766 0,0 c 0,0 42.3451,24.4482 42.3451,24.4482"
         style="fill:#ca633a;fill-opacity:1;fill-rule:nonzero;stroke:none"
         id="path4462"
         inkscape:connector-curvature="0" />
      <path
         d="m 389.2989,2420.9235 0,-5.4766 -42.3451,-24.4482 0,5.4768 0,0 c 0,0 42.3451,24.448 42.3451,24.448"
         style="fill:#ca633a;fill-opacity:1;fill-rule:nonzero;stroke:none"
         id="path4464"
         inkscape:connector-curvature="0" />
      <path
         d="m 365.6333,2371.2454 c -0.0102,-0.5419 -0.2866,-1.129 -0.6182,-1.3107 -0.3308,-0.1817 -0.5905,0.1114 -0.58,0.6534 0.0102,0.5423 0.2863,1.1288 0.6171,1.3102 0.3316,0.1817 0.5913,-0.1106 0.5811,-0.6529"
         style="fill:#ffffff;fill-opacity:1;fill-rule:nonzero;stroke:none"
         id="path4466"
         inkscape:connector-curvature="0" />
      <path
         d="m 364.5655,2368.7677 c -0.8212,-1.9828 -1.3694,-5.0307 -1.4332,-8.4039 -0.01,-0.5173 -0.2733,-1.0757 -0.5888,-1.2489 l -0.002,-9e-4 -0.002,0 c -0.3152,-0.1729 -0.5633,0.1049 -0.5536,0.6219 0.0195,1.0384 -0.0445,3.3942 -1.0667,2.8335 -1.0216,-0.5604 -1.1778,-3.037 -1.1973,-4.0753 -0.01,-0.5171 -0.2739,-1.0761 -0.5894,-1.249 -0.011,-0.01 -0.0229,-0.011 -0.0346,-0.016 -0.0116,-0.01 -0.0235,-0.016 -0.0348,-0.022 -0.3152,-0.1729 -0.5635,0.1049 -0.5536,0.6223 0.0195,1.0383 -0.0448,3.3939 -1.0667,2.8332 -1.0222,-0.5607 -1.1786,-3.0373 -1.1982,-4.0757 -0.01,-0.5173 -0.2733,-1.0757 -0.5888,-1.2486 -0.3155,-0.1732 -0.5626,0.1051 -0.553,0.6222 0.0743,3.9262 1.2759,5.97 2.3754,6.5729 0.6344,0.3481 1.285,0.2413 1.7076,-0.6635 0.4666,1.3926 1.1342,2.2226 1.7688,2.5707 0.4975,0.273 1.0044,0.2656 1.404,-0.184 0.3274,2.198 0.855,4.1307 1.5276,5.6254 -1.1083,1.3867 -2.7195,1.7521 -4.5343,0.7566 -3.4682,-1.9024 -6.3663,-8.0482 -6.4737,-13.7263 -0.1077,-5.6786 2.6161,-8.74 6.0843,-6.8374 3.4684,1.9026 6.3666,8.0478 6.474,13.7265 0.0383,2.0242 -0.2835,3.7156 -0.8705,4.968"
         style="fill:#ffffff;fill-opacity:1;fill-rule:nonzero;stroke:none"
         id="path4468"
         inkscape:connector-curvature="0" />
      <path
         d="m 403.1385,2352.3001 -11.0991,-6.9849 20.2272,-12.1305 11.0991,6.9851 -20.2272,12.1303 z"
         style="fill:#393151;fill-opacity:1;fill-rule:nonzero;stroke:none"
         id="path4470"
         inkscape:connector-curvature="0" />
      <path
         d="m 411.099,2334.6488 4.9076,2.6424 -5.5709,45.7387 -4.9079,-3.0203 5.5712,-45.3608 z"
         style="fill:#c86c8d;fill-opacity:1;fill-rule:nonzero;stroke:none"
         id="path4472"
         inkscape:connector-curvature="0" />
      <path
         d="m 393.4069,2344.8631 17.6918,-10.2143 -5.5706,45.3608 -6.55,3.782 -5.5712,-38.9285 z"
         style="fill:#975579;fill-opacity:1;fill-rule:nonzero;stroke:none"
         id="path4474"
         inkscape:connector-curvature="0" />
      <path
         d="m 410.4357,2383.0296 -4.9079,-3.02 -6.55,3.7817 4.9076,3.0203 6.5503,-3.782 z"
         style="fill:#c86c8d;fill-opacity:1;fill-rule:nonzero;stroke:none"
         id="path4476"
         inkscape:connector-curvature="0" />
      <path
         d="m 408.7131,2381.6591 -3.1088,-1.9128 -4.149,2.3952 3.1087,1.9131 4.1491,-2.3955 z"
         style="fill:#93466c;fill-opacity:1;fill-rule:nonzero;stroke:none"
         id="path4478"
         inkscape:connector-curvature="0" />
      <path
         d="m 394.4356,2396.1529 c 0.1525,-0.3172 0.5317,-0.4487 0.8504,-0.2954 0.3169,0.154 0.4475,0.533 0.2933,0.849 -0.1533,0.3186 -0.5317,0.4519 -0.8484,0.2982 -0.318,-0.1542 -0.4498,-0.5337 -0.2953,-0.8518"
         style="fill:#f6917a;fill-opacity:1;fill-rule:nonzero;stroke:none"
         id="path4480"
         inkscape:connector-curvature="0" />
      <path
         d="m 404.2667,2380.3115 c 0,0 4.1244,33.66 10.3946,39.2712 l -10.3946,-39.2712 z"
         style="fill:#63c4b0;fill-opacity:1;fill-rule:nonzero;stroke:none"
         id="path4482"
         inkscape:connector-curvature="0" />
      <path
         d="m 414.2038,2414.3318 c -2.8837,-1.1325 -4.3081,-4.3866 -4.3081,-4.3866 0,0 3.255,-1.4216 6.1413,-0.2923 2.8851,1.1333 4.305,4.3875 4.305,4.3875 0,0 -3.2528,1.4196 -6.1382,0.2914"
         style="fill:#63c4b0;fill-opacity:1;fill-rule:nonzero;stroke:none"
         id="path4484"
         inkscape:connector-curvature="0" />
      <path
         d="m 411.5639,2403.1117 c -2.8831,-1.1302 -4.3067,-4.3852 -4.3067,-4.3852 0,0 3.2525,-1.4224 6.1402,-0.2923 2.8851,1.1296 4.3049,4.3838 4.3049,4.3838 0,0 -3.2524,1.423 -6.1384,0.2937"
         style="fill:#63c4b0;fill-opacity:1;fill-rule:nonzero;stroke:none"
         id="path4486"
         inkscape:connector-curvature="0" />
      <path
         d="m 409.5833,2391.8896 c -2.8836,-1.1302 -4.3055,-4.3849 -4.3055,-4.3849 0,0 3.2542,-1.4187 6.1359,-0.2894 2.8859,1.1313 4.3081,4.3852 4.3081,4.3852 0,0 -3.2525,1.4198 -6.1385,0.2891"
         style="fill:#63c4b0;fill-opacity:1;fill-rule:nonzero;stroke:none"
         id="path4488"
         inkscape:connector-curvature="0" />
      <path
         d="m 410.8683,2417.4964 c 1.0908,-2.899 -0.3725,-6.135 -0.3725,-6.135 0,0 -3.2326,1.4663 -4.3262,4.3664 -1.0928,2.8988 0.3733,6.1336 0.3733,6.1336 0,0 3.2318,-1.464 4.3254,-4.365"
         style="fill:#63c4b0;fill-opacity:1;fill-rule:nonzero;stroke:none"
         id="path4490"
         inkscape:connector-curvature="0" />
      <path
         d="m 417.6748,2420.2559 c -1.3529,-1.4771 -3.6445,-1.5732 -3.6445,-1.5732 0,0 -0.0992,2.2915 1.2535,3.7644 1.3544,1.4763 3.6437,1.5738 3.6437,1.5738 0,0 0.1003,-2.2915 -1.2527,-3.765"
         style="fill:#63c4b0;fill-opacity:1;fill-rule:nonzero;stroke:none"
         id="path4492"
         inkscape:connector-curvature="0" />
      <path
         d="m 414.9859,2421.54 c 0.2319,-1.4165 -0.7279,-2.7516 -0.7279,-2.7516 0,0 -1.3357,0.9624 -1.5653,2.3763 -0.2316,1.4162 0.7242,2.749 0.7242,2.749 0,0 1.3397,-0.9564 1.569,-2.3737"
         style="fill:#63c4b0;fill-opacity:1;fill-rule:nonzero;stroke:none"
         id="path4494"
         inkscape:connector-curvature="0" />
      <path
         d="m 405.7294,2406.4532 c 2.1234,-2.2564 2.0154,-5.8085 2.0154,-5.8085 0,0 -3.5541,0.11 -5.6753,2.3669 -2.1217,2.2581 -2.0109,5.8068 -2.0109,5.8068 0,0 3.5462,-0.1083 5.6708,-2.3652"
         style="fill:#63c4b0;fill-opacity:1;fill-rule:nonzero;stroke:none"
         id="path4496"
         inkscape:connector-curvature="0" />
      <path
         d="m 403.7488,2397.2142 c 2.1254,-2.2572 2.0166,-5.8085 2.0166,-5.8085 0,0 -3.5533,0.108 -5.6733,2.365 -2.1237,2.2595 -2.0169,5.8067 -2.0169,5.8067 0,0 3.5504,-0.1082 5.6736,-2.3632"
         style="fill:#63c4b0;fill-opacity:1;fill-rule:nonzero;stroke:none"
         id="path4498"
         inkscape:connector-curvature="0" />
      <path
         d="m 399.221,2389.9989 c 2.0993,-0.8048 3.151,-3.1575 3.151,-3.1575 0,0 -2.3513,-1.0491 -4.4521,-0.2486 -2.0979,0.8047 -3.1499,3.1586 -3.1499,3.1586 0,0 2.3505,1.048 4.451,0.2475"
         style="fill:#63c4b0;fill-opacity:1;fill-rule:nonzero;stroke:none"
         id="path4500"
         inkscape:connector-curvature="0" />
      <path
         d="m 402.6169,2388.939 c -0.4975,-1.5826 0.3847,-3.2692 0.3847,-3.2692 0,0 1.6877,0.8825 2.1824,2.4662 0.4989,1.584 -0.3827,3.2697 -0.3827,3.2697 0,0 -1.6858,-0.8815 -2.1844,-2.4667"
         style="fill:#63c4b0;fill-opacity:1;fill-rule:nonzero;stroke:none"
         id="path4502"
         inkscape:connector-curvature="0" />
      <path
         d="m 406.0128,2380.0748 c 0,0 -6.1089,11.8006 -9.1998,15.3431 l 9.1998,-15.3431 z"
         style="fill:#63c4b0;fill-opacity:1;fill-rule:nonzero;stroke:none"
         id="path4504"
         inkscape:connector-curvature="0" />
      <path
         d="m 402.8244,2392.5217 c -0.5751,-1.1177 -1.948,-1.5553 -1.948,-1.5553 0,0 -0.4379,1.3728 0.1384,2.4896 0.5777,1.1163 1.9496,1.554 1.9496,1.554 0,0 0.4374,-1.3697 -0.14,-2.4883"
         style="fill:#63c4b0;fill-opacity:1;fill-rule:nonzero;stroke:none"
         id="path4506"
         inkscape:connector-curvature="0" />
      <path
         d="m 415.7334,2325.9798 c 0,0 -21.5399,12.4362 -21.5399,12.4362 l -7.6686,4.4274 -48.1048,-27.773 36.8776,-21.2916 48.1048,27.7733 -7.6691,4.4277 z"
         style="fill:#3a3056;fill-opacity:1;fill-rule:nonzero;stroke:none"
         id="path4508"
         inkscape:connector-curvature="0" />
      <path
         d="m 373.6837,2295.1145 0,4.7095 45.7937,26.439 0,-4.7095 -45.7937,-26.439 z"
         style="fill:#5295a6;fill-opacity:1;fill-rule:nonzero;stroke:none"
         id="path4510"
         inkscape:connector-curvature="0" />
      <path
         d="m 373.6837,2299.824 -35.1063,20.2686 45.7937,26.439 35.1063,-20.2683 -45.7937,-26.4393 z"
         style="fill:#74ccd4;fill-opacity:1;fill-rule:nonzero;stroke:none"
         id="path4512"
         inkscape:connector-curvature="0" />
      <path
         d="m 338.5774,2320.0926 0,-4.7095 35.1063,-20.2686 0,4.7098 -35.1063,20.2683 z"
         style="fill:#66a5b3;fill-opacity:1;fill-rule:nonzero;stroke:none"
         id="path4514"
         inkscape:connector-curvature="0" />
      <g
         id="g4516"
         transform="scale(0.15953,0.15953)">
        <path
           d="m 2294.2137,14495.204 0,12.896 -22.3387,0 0,-12.896 22.3387,0 z m 12.8327,-7.408 0,12.896 -22.3387,0 0,-12.896 22.3387,0 z m 12.8287,-7.408 0,12.897 -22.3387,0 0,-12.897 22.3387,0 z m 12.8308,-7.408 0,12.897 -22.337,0 0,-12.897 22.337,0 z m 12.829,-7.407 0,12.896 -22.337,0 0,-12.896 22.337,0 z m 12.8325,-7.408 0,12.896 -22.337,0 0,-12.896 22.337,0 z m 12.8307,-7.408 0,12.897 -22.337,0 0,-12.897 22.3387,0 z m 12.8308,-7.409 0,12.898 -22.3388,0 0,-12.898 22.3388,0 z m -192.4626,111.119 0,12.897 -22.337,0 0,-12.897 22.337,0 z m 12.8325,-7.409 0,12.898 -22.3387,0 0,-12.898 22.3387,0 z m 12.8287,-7.406 0,12.896 -22.3387,0 0,-12.896 22.3387,0 z m 12.8328,-7.41 0,12.897 -22.3388,0 0,-12.897 22.3388,0 z m 12.8287,-7.406 0,12.897 -22.3387,0 0,-12.897 22.3387,0 z m 12.8307,-7.409 0,12.898 -22.3367,0 0,-12.898 22.3367,0 z m 12.8291,-7.406 0,12.896 -22.337,0 0,-12.896 22.337,0 z m -9.5046,-7.408 0,12.895 22.337,0 0,-12.897 -22.337,0 z"
           style="fill:none;stroke:#ffffff;stroke-width:6.34450006;stroke-linecap:round;stroke-linejoin:round;stroke-miterlimit:10.00000095;stroke-dasharray:none;stroke-opacity:1"
           id="path4518"
           inkscape:connector-curvature="0" />
      </g>
      <path
         d="m 391.1213,2325.6564 c -0.3861,-0.2132 -0.9122,-0.2571 -1.1753,-0.097 -0.2624,0.1593 -0.1612,0.4612 0.2246,0.6744 0.3863,0.2134 0.9119,0.2573 1.1743,0.098 0.2628,-0.1596 0.1625,-0.4614 -0.2236,-0.6749"
         style="fill:#ee2e6b;fill-opacity:1;fill-rule:nonzero;stroke:none"
         id="path4520"
         inkscape:connector-curvature="0" />
      <path
         d="m 388.9412,2325.401 c -1.7314,-0.2279 -4.1021,-1.0817 -6.5047,-2.4089 -0.3682,-0.2035 -0.8691,-0.2452 -1.1194,-0.093 l -10e-4,8e-4 -0.002,0 c -0.25,0.1519 -0.1553,0.4399 0.2132,0.6431 0.7395,0.4088 2.3731,1.4123 1.5624,1.9043 -0.8104,0.4919 -2.6192,-0.4056 -3.3587,-0.8141 -0.3683,-0.2035 -0.8697,-0.2449 -1.1197,-0.093 -0.009,0.01 -0.017,0.012 -0.0255,0.018 -0.01,0.01 -0.0207,0.01 -0.0298,0.016 -0.25,0.1519 -0.1553,0.4397 0.2132,0.6432 0.7395,0.4085 2.3731,1.4122 1.5624,1.9043 -0.811,0.4921 -2.6195,-0.4053 -3.359,-0.8138 -0.3685,-0.2035 -0.8691,-0.2452 -1.1194,-0.093 -0.2503,0.152 -0.1548,0.4394 0.2134,0.6429 2.7967,1.5449 4.7256,1.5296 5.5976,1.0004 0.5034,-0.3056 0.6928,-0.8076 0.2273,-1.4732 1.171,0.2375 2.0274,0.1049 2.5308,-0.2007 0.3946,-0.2395 0.5958,-0.5995 0.4413,-1.0641 1.6821,0.6636 3.2582,1.078 4.5851,1.2121 0.5264,1.345 0.1284,2.6288 -1.3113,3.5027 -2.7513,1.6697 -8.2607,1.2116 -12.3052,-1.0224 -4.0451,-2.2343 -5.0939,-5.3989 -2.3426,-7.0688 2.7516,-1.6699 8.2605,-1.2118 12.3055,1.0225 1.442,0.7965 2.5027,1.7113 3.1465,2.6345"
         style="fill:#ee2e6b;fill-opacity:1;fill-rule:nonzero;stroke:none"
         id="path4522"
         inkscape:connector-curvature="0" />
      <path
         d="m 373.6837,2299.824 -1.4919,-1.9653 1.4919,-2.7442 0,4.7095 z"
         style="fill:#5295a6;fill-opacity:1;fill-rule:evenodd;stroke:none"
         id="path4524"
         inkscape:connector-curvature="0" />
      <path
         d="m 339.9659,2316.9135 32.2259,-19.0548 1.4919,-2.7442 -35.1063,20.2686 1.3885,1.5304 z"
         style="fill:#74ccd4;fill-opacity:1;fill-rule:evenodd;stroke:none"
         id="path4526"
         inkscape:connector-curvature="0" />
      <g
         id="g4528">
        <g
           id="g4530">
          <path
             d="m 391.2199,2308.8594 c -0.002,-0.096 -0.051,-0.2004 -0.1099,-0.2327 -0.0587,-0.032 -0.1046,0.02 -0.1029,0.1159 0.002,0.096 0.0507,0.2005 0.1097,0.2328 0.0586,0.032 0.1048,-0.02 0.1031,-0.116"
             style="fill:#ffffff;fill-opacity:1;fill-rule:nonzero;stroke:none"
             id="path4532"
             inkscape:connector-curvature="0" />
          <path
             d="m 391.0303,2308.4192 c -0.146,-0.3521 -0.2432,-0.8932 -0.2546,-1.4924 -0.002,-0.092 -0.0484,-0.1911 -0.1046,-0.2217 l -2e-4,-3e-4 -6e-4,-3e-4 c -0.0558,-0.031 -0.1001,0.019 -0.0984,0.1106 0.004,0.1845 -0.008,0.6029 -0.1893,0.5031 -0.1814,-0.1 -0.2092,-0.5394 -0.2126,-0.7236 -0.002,-0.092 -0.0488,-0.1911 -0.1046,-0.222 -0.002,-9e-4 -0.004,0 -0.006,0 -0.002,0 -0.004,0 -0.006,0 -0.0558,-0.031 -0.1,0.019 -0.0983,0.1105 0.004,0.1846 -0.008,0.603 -0.1894,0.5032 -0.1817,-0.099 -0.2092,-0.5394 -0.2129,-0.7237 -0.002,-0.092 -0.0485,-0.191 -0.1046,-0.2219 -0.0558,-0.031 -0.0998,0.019 -0.0981,0.1105 0.0131,0.6973 0.2265,1.0605 0.4218,1.1676 0.1129,0.062 0.2282,0.043 0.3033,-0.1179 0.0828,0.2472 0.2016,0.3946 0.3141,0.4564 0.0885,0.048 0.1783,0.047 0.2495,-0.033 0.0581,0.3903 0.1516,0.7336 0.2712,0.9989 -0.197,0.2463 -0.483,0.3112 -0.8053,0.1346 -0.6159,-0.3379 -1.1307,-1.4295 -1.1497,-2.4378 -0.019,-1.0085 0.4646,-1.5522 1.0806,-1.2143 0.6159,0.3379 1.1307,1.4292 1.1497,2.4378 0.007,0.3594 -0.0502,0.6599 -0.1545,0.8821"
             style="fill:#ffffff;fill-opacity:1;fill-rule:nonzero;stroke:none"
             id="path4534"
             inkscape:connector-curvature="0" />
        </g>
        <text
           transform="matrix(0.57931362,0.3374462,-0.00584093,-0.94134481,391.4668,2307.6748)"
           style="font-variant:normal;font-weight:bold;font-size:1.66857111px;font-family:'Century Gothic';-inkscape-font-specification:CenturyGothic-Bold;writing-mode:lr-tb;fill:#ffffff;fill-opacity:1;fill-rule:nonzero;stroke:none"
           id="text4536">
          <tspan
             x="0 1.5684569 2.0356567 3.1035423 3.5707424 4.6719995 5.1391993 5.8399992 6.307199"
             y="0"
             sodipodi:role="line"
             id="tspan4538">m e p ´ s</tspan>
        </text>
        <text
           transform="matrix(0.57931362,0.3374462,-0.00584093,-0.94134481,396.07894,2310.3613)"
           style="font-variant:normal;font-weight:normal;font-size:1.66857111px;font-family:'Century Gothic';-inkscape-font-specification:CenturyGothic;writing-mode:lr-tb;fill:#ffffff;fill-opacity:1;fill-rule:nonzero;stroke:none"
           id="text4540">
          <tspan
             x="0 1.5651197 2.0273139 3.1118853 3.5740795 4.7170506 5.179245 5.512959 5.9751534 7.0680676 7.5302615 8.1776676 9.1020555 10.186626 10.648821 11.172752 11.634947 12.719518 13.181712 14.261277 14.723472 15.289118 15.751311 16.085026 16.54722 17.471609 17.933804 19.026716 19.488911 20.136316 21.060705 22.198671 22.660864 23.675356 24.13755 25.275517 25.737709 26.071424 26.533619 26.867332 27.329527 28.409092 28.871286 29.205 29.667194 30.232841 30.695034 31.834669 32.296864 32.799103 33.261299 33.595013 34.057205 35.15012 35.612312 36.25972"
             y="0"
             sodipodi:role="line"
             id="tspan4542">m e d i o s e f e c t i v o s p u b l i c i t a r i o s</tspan>
        </text>
        <text
           transform="matrix(0.57931362,0.3374462,-0.00584093,-0.94134481,391.4994,2306.7547)"
           style="font-style:italic;font-variant:normal;font-size:0.64784253px;font-family:'Century Gothic';-inkscape-font-specification:CenturyGothic-Italic;writing-mode:lr-tb;fill:#ffffff;fill-opacity:1;fill-rule:nonzero;stroke:none"
           id="text4544">
          <tspan
             x="0 0.14641242 0.32586479 0.93354106 1.1129935 1.5548221 1.7342744 2.1281626 2.307615 2.4371836 2.616636 2.8679988 3.0474513 3.4899278 3.6693799 4.0645642 4.2440162 4.6877885 4.8672409 5.2915778 5.6504827 5.7800508 5.9595032 6.4032755 6.5827279 7.0038257 7.1832781 7.6257544 7.8052068"
             y="0"
             sodipodi:role="line"
             id="tspan4546">I m p u l s a n d o i d e a s</tspan>
        </text>
      </g>
      <path
         d="m 384.3711,2346.5316 2.1493,0.2268 0.5967,-1.8119 2.4809,0.015 0.9198,-1.9783 2.1081,0.2058 0.4462,-1.6804 2.0035,0.2033 0.4907,-1.6433 1.9712,0.1046 0.3124,-1.423 1.6078,0.2166 0.3677,-1.3572 1.7495,0.077 0.4927,-1.3717 1.7231,0.018 0.4269,-1.2589 1.9117,0.1017 0.4422,-1.4609 1.9953,-0.065 0.2897,-1.2538 1.6427,0.1582 0.3988,-1.3368 1.6322,0.081 0.4595,-1.2892 1.4979,0.083 0.3081,-1.1254 1.6245,0.1344 0.3796,-1.2915 1.3252,0.2759 0.2639,-1.1934 1.1494,0.2086 -0.0609,-0.8371 -1.2776,-0.7373 -35.1734,20.2295 1.3447,0.7764 z"
         style="fill:#74ccd4;fill-opacity:1;fill-rule:evenodd;stroke:none"
         id="path4548"
         inkscape:connector-curvature="0" />
      <path
         d="m 395.113,2396.2904 c -2e-4,0 -0.004,-0.01 -0.007,-0.01 -0.0366,0.043 -0.0769,0.084 -0.1163,0.1253 0.006,0.01 0.01,0.015 0.0165,0.025 0.0323,-0.052 0.0686,-0.098 0.1068,-0.1431 z m -3.1209,-2.0123 c 0.4499,-0.9304 1.5684,-1.3178 2.4959,-0.8683 0.142,0.069 0.2684,0.1588 0.3832,0.2563 0.5349,-0.6463 1.4582,-0.8731 2.2479,-0.4915 0.9272,0.449 1.3142,1.5681 0.8652,2.4956 -0.0686,0.1414 -0.1568,0.2676 -0.2523,0.3829 0.6449,0.5378 0.8713,1.4576 0.4898,2.2479 -0.4496,0.9286 -1.567,1.3164 -2.4962,0.8668 -0.2857,-0.1389 -0.5148,-0.3475 -0.6902,-0.5884 -0.514,0.7477 -1.5038,1.0349 -2.3468,0.6276 -0.9284,-0.4502 -1.3173,-1.5667 -0.866,-2.4971 0.093,-0.1922 0.2202,-0.358 0.3645,-0.5006 -0.4065,-0.5422 -0.5102,-1.281 -0.195,-1.9312"
         style="fill:#ee2e6b;fill-opacity:1;fill-rule:nonzero;stroke:none"
         id="path4550"
         inkscape:connector-curvature="0" />
    </g>
  </g>
</svg>
