<?xml version="1.0" encoding="UTF-8" standalone="no"?>
<!-- Created with Inkscape (http://www.inkscape.org/) -->

<svg
   xmlns:dc="http://purl.org/dc/elements/1.1/"
   xmlns:cc="http://creativecommons.org/ns#"
   xmlns:rdf="http://www.w3.org/1999/02/22-rdf-syntax-ns#"
   xmlns:svg="http://www.w3.org/2000/svg"
   xmlns="http://www.w3.org/2000/svg"
   xmlns:sodipodi="http://sodipodi.sourceforge.net/DTD/sodipodi-0.dtd"
   xmlns:inkscape="http://www.inkscape.org/namespaces/inkscape"
   width="40.055721mm"
   height="31.444607mm"
   viewBox="0 0 141.92972 111.4179"
   id="svg11427"
   version="1.1"
   inkscape:version="0.91 r13725"
   sodipodi:docname="diseño.svg">
  <defs
     id="defs11429" />
  <sodipodi:namedview
     id="base"
     pagecolor="#ffffff"
     bordercolor="#666666"
     borderopacity="1.0"
     inkscape:pageopacity="0.0"
     inkscape:pageshadow="2"
     inkscape:zoom="0.35"
     inkscape:cx="190.71241"
     inkscape:cy="-360.00534"
     inkscape:document-units="px"
     inkscape:current-layer="layer1"
     showgrid="false"
     fit-margin-top="0"
     fit-margin-left="0"
     fit-margin-right="0"
     fit-margin-bottom="0"
     inkscape:window-width="1366"
     inkscape:window-height="705"
     inkscape:window-x="-8"
     inkscape:window-y="-8"
     inkscape:window-maximized="1" />
  <metadata
     id="metadata11432">
    <rdf:RDF>
      <cc:Work
         rdf:about="">
        <dc:format>image/svg+xml</dc:format>
        <dc:type
           rdf:resource="http://purl.org/dc/dcmitype/StillImage" />
        <dc:title></dc:title>
      </cc:Work>
    </rdf:RDF>
  </metadata>
  <g
     inkscape:label="Capa 1"
     inkscape:groupmode="layer"
     id="layer1"
     transform="translate(-184.28759,-60.938964)">
    <g
       transform="matrix(0.46426189,0,0,0.46426189,-552.50183,-389.299)"
       id="g9695">
      <path
         inkscape:connector-curvature="0"
         id="path4552"
         style="fill:#4d4d4e;fill-opacity:1;fill-rule:nonzero;stroke:none"
         d="m 1808.1238,1161.6844 -105.2533,-60.9119 82.0389,-47.3651 106.3867,61.5678 c 1.9032,1.1016 1.9018,3.8498 0,4.9492 l -72.3393,41.7654 c -3.3513,1.935 -7.481,1.9329 -10.8302,0" />
      <path
         inkscape:connector-curvature="0"
         id="path4554"
         style="fill:#8bd6f2;fill-opacity:1;fill-rule:evenodd;stroke:none"
         d="m 1771.774,1055.5033 97.8906,56.5171 c 1.3975,0.8068 1.3975,2.127 0,2.9339 l -62.7767,36.2441 c -1.5428,0.8908 -4.0678,0.8908 -5.6105,0 l -97.9218,-56.5352 c -1.3341,-0.7704 -1.3341,-2.0307 0,-2.8011 l 62.9759,-36.3588 c 1.4966,-0.8643 3.9458,-0.8643 5.4425,0" />
      <path
         inkscape:connector-curvature="0"
         id="path4556"
         style="fill:#48395f;fill-opacity:1;fill-rule:evenodd;stroke:none"
         d="m 1775.9296,1057.9024 5.7912,3.3435 -3.1738,1.8323 c -0.3979,0.2296 -0.9134,0.1512 -1.3117,-0.079 l -4.3434,-2.5075 c -0.3996,-0.2308 -0.5354,-0.5266 -0.1356,-0.7573 l 3.1733,-1.8322 z m 80.4345,50.1031 0,0 c -0.3983,0.2299 -0.2622,0.5275 0.136,0.7575 l 4.343,2.5077 c 0.3984,0.2299 0.9139,0.3082 1.3122,0.079 l 3.1733,-1.8319 -5.7911,-3.3435 -3.1734,1.832 z" />
      <path
         inkscape:connector-curvature="0"
         id="path4558"
         style="fill:#128cac;fill-opacity:1;fill-rule:evenodd;stroke:none"
         d="m 1779.2709,1062.2423 c -0.3996,0.2306 -1.1618,0.2965 -1.5615,0.066 l -3.6195,-2.0898 c -0.3996,-0.2307 -0.2855,-0.6708 0.1141,-0.9018 l 4.343,-2.5072 c 0.4001,-0.231 0.9943,-0.1999 1.394,0.031 l 3.6195,2.0899 c 0.3996,0.2306 0.4535,0.5736 0.054,0.8046 l -4.3435,2.5076 z m 87.9514,45.7632 0,0 c 0.3996,-0.2307 0.3457,-0.5737 -0.054,-0.8047 l -3.6195,-2.0895 c -0.3998,-0.231 -0.9939,-0.2619 -1.3937,-0.031 l -4.3433,2.5076 c -0.3997,0.2307 -0.5138,0.6708 -0.1142,0.9018 l 3.6195,2.0895 c 0.3998,0.231 1.1619,0.1651 1.5615,-0.066 l 4.3435,-2.5075 z" />
      <path
         inkscape:connector-curvature="0"
         id="path4560"
         style="fill:#8bd6f2;fill-opacity:1;fill-rule:evenodd;stroke:none"
         d="m 1769.76,971.99527 103.9429,59.35503 0,79.4941 -103.9429,-59.5553 0,-79.29383 z" />
      <path
         inkscape:connector-curvature="0"
         id="path4562"
         style="fill:#53bddb;fill-opacity:1;fill-rule:nonzero;stroke:none"
         d="m 1769.9078,971.99527 4.7731,-2.2022 103.7144,59.55423 -4.4738,2.003 -104.0137,-59.35503 z" />
      <path
         inkscape:connector-curvature="0"
         id="path4564"
         style="fill:#128cac;fill-opacity:1;fill-rule:evenodd;stroke:none"
         d="m 1869.2855,1115.1105 -62.561,36.1506 c -1.5991,0.9234 -3.9654,0.8082 -5.5644,-0.115 l -97.3825,-56.2861 c -0.7796,-0.45 -1.204,-0.8529 -1.2692,-1.3726 l -0.3111,0 0,6.4945 c 0,0.095 0,0.1902 0,0.2859 0,0 -0.056,0.9245 1.5062,1.5786 l 97.4225,56.2117 c 1.5991,0.9234 4.0231,1.0382 5.6223,0.115 l 62.522,-36.151 c 0.8135,-0.4695 1.0545,-1.0792 1.0545,-1.6858 l 0,-6.7794 c 0,0.5622 -0.2853,1.1179 -1.0393,1.5534" />
      <path
         inkscape:connector-curvature="0"
         id="path4566"
         style="fill:#63527b;fill-opacity:1;fill-rule:evenodd;stroke:none"
         d="m 1779.3748,985.19267 84.1936,48.34523 0,64.4046 -84.1936,-48.464 0,-64.28583 z" />
      <path
         inkscape:connector-curvature="0"
         id="path4568"
         style="fill:#128cac;fill-opacity:1;fill-rule:nonzero;stroke:none"
         d="m 1878.1204,1029.3473 -4.4175,2.003 0,79.4941 4.4175,-2.2313 0,-79.2658 z" />
      <path
         inkscape:connector-curvature="0"
         id="path4570"
         style="fill:#fee6db;fill-opacity:1;fill-rule:evenodd;stroke:none"
         d="m 1783.0126,1047.8068 80.8158,46.5353 0,-60.8042 -80.8158,-46.42133 0,60.69023 z" />
      <path
         inkscape:connector-curvature="0"
         id="path4572"
         style="fill:#128cac;fill-opacity:1;fill-rule:evenodd;stroke:none"
         d="m 1852.5706,1112.2854 4.7052,2.7167 -3.3435,1.9301 -4.7052,-2.7164 3.3435,-1.9304 z m -9.6122,5.5499 0,0 4.7051,2.7164 4.5971,-2.6544 -4.7052,-2.7163 -4.597,2.6543 z m -5.8511,3.3779 0,0 4.7051,2.7166 4.5971,-2.6543 -4.7051,-2.7166 -4.5971,2.6543 z m -6.2692,3.6195 0,0 4.7052,2.7166 5.0152,-2.8956 -4.7052,-2.7167 -5.0152,2.8957 z m -5.433,3.1368 0,0 4.7052,2.7163 4.5975,-2.6539 -4.7055,-2.7166 -4.5972,2.6542 z m -6.6868,3.8608 0,0 4.7051,2.7164 5.0152,-2.8957 -4.7052,-2.7162 -5.0151,2.8955 z m 25.0798,-20.7489 0,0 4.3434,2.5076 3.3435,-1.9303 -4.3435,-2.5077 -3.3434,1.9304 z m -11.6978,0.4848 0,0 9.772,5.642 4.5975,-2.6543 -9.7725,-5.642 -4.597,2.6543 z m -2.232,5.4676 0,0 6.153,3.5526 4.5973,-2.6544 -6.1528,-3.5521 -4.5975,2.6539 z m -10.25,1.321 0,0 10.1341,5.851 5.0152,-2.8955 -10.1342,-5.8511 -5.0151,2.8956 z m 0.3578,6.4804 0,0 4.3434,2.5076 4.597,-2.6544 -4.3434,-2.5076 -4.597,2.6544 z m -6.687,3.8603 0,0 4.3434,2.5077 5.0153,-2.8957 -4.3434,-2.5072 -5.0153,2.8952 z m 25.0799,-20.7488 0,0 4.3434,2.5076 3.3435,-1.93 -4.3434,-2.508 -3.3435,1.9304 z m -5.0672,-2.9254 0,0 3.9816,2.2986 3.3431,-1.9305 -3.9812,-2.2985 -3.3435,1.9304 z m -5.429,-3.1344 0,0 4.3433,2.5076 3.3434,-1.9303 -4.3434,-2.5077 -3.3433,1.9304 z m -5.067,-2.9257 0,0 3.9812,2.2986 3.3435,-1.9302 -3.9812,-2.2988 -3.3435,1.9304 z m -5.429,-3.1344 0,0 3.9812,2.2985 3.3435,-1.9304 -3.9814,-2.2985 -3.3433,1.9304 z m -5.0674,-2.9254 0,0 3.9814,2.2986 3.3433,-1.9305 -3.9812,-2.2985 -3.3435,1.9304 z m -5.429,-3.1347 0,0 3.9812,2.2988 3.3435,-1.9304 -3.9812,-2.2988 -3.3435,1.9304 z m -5.0673,-2.9254 0,0 3.9813,2.2986 3.3437,-1.9305 -3.9816,-2.2985 -3.3434,1.9304 z m -5.4291,-3.1344 0,0 3.9813,2.2985 3.3435,-1.9304 -3.9813,-2.2985 -3.3435,1.9304 z m -5.429,-3.1348 0,0 4.3434,2.5077 3.3435,-1.9302 -4.3434,-2.5075 -3.3435,1.93 z m -5.067,-2.9253 0,0 3.9814,2.2985 3.3434,-1.9304 -3.9817,-2.2985 -3.3431,1.9304 z m -5.4294,-3.1344 0,0 4.3434,2.5076 3.3435,-1.9305 -4.3434,-2.5075 -3.3435,1.9304 z m -5.0668,-2.9258 0,0 3.9812,2.2989 3.3435,-1.9304 -3.9814,-2.2988 -3.3433,1.9303 z m -5.4292,-3.1343 0,0 3.9813,2.2985 3.3435,-1.93 -3.9813,-2.2989 -3.3435,1.9304 z m -5.7911,-3.3435 0,0 4.3434,2.5076 3.3435,-1.9304 -4.3434,-2.5076 -3.3435,1.9304 z m 62.4993,43.323 0,0 4.3435,2.5075 4.5973,-2.6543 -4.3433,-2.5076 -4.5975,2.6544 z m -5.7908,-3.3435 0,0 4.3434,2.5076 4.5971,-2.6544 -4.3434,-2.5075 -4.5971,2.6543 z m -5.7912,-3.3435 0,0 4.3435,2.5076 4.597,-2.6542 -4.343,-2.5077 -4.5975,2.6543 z m -5.429,-3.1344 0,0 4.3433,2.5076 4.5972,-2.6543 -4.343,-2.5075 -4.5975,2.6542 z m -5.7909,-3.3435 0,0 4.3431,2.5076 4.5974,-2.6542 -4.3434,-2.5076 -4.5971,2.6542 z m -5.7911,-3.3434 0,0 4.3433,2.5075 4.5972,-2.6542 -4.3432,-2.5076 -4.5973,2.6543 z m -5.7909,-3.3435 0,0 4.3431,2.5076 4.5974,-2.6543 -4.3434,-2.5076 -4.5971,2.6543 z m -5.7911,-3.3435 0,0 4.7051,2.7166 4.5975,-2.6542 -4.7053,-2.7166 -4.5973,2.6542 z m -5.4292,-3.1344 0,0 4.3435,2.5077 4.597,-2.6544 -4.3433,-2.5076 -4.5972,2.6543 z m -5.7911,-3.3434 0,0 4.3434,2.5076 4.5975,-2.6543 -4.3435,-2.5076 -4.5974,2.6543 z m -5.7909,-3.3435 0,0 4.3432,2.5076 4.5973,-2.6543 -4.3433,-2.5076 -4.5972,2.6543 z m -5.7911,-3.3434 0,0 4.3434,2.5075 4.5971,-2.6543 -4.3431,-2.5076 -4.5974,2.6544 z m -5.7909,-3.3435 0,0 4.3432,2.5076 4.5973,-2.6544 -4.3433,-2.5075 -4.5972,2.6543 z m -5.851,3.3781 0,0 7.6008,4.3881 4.597,-2.654 -7.6008,-4.3883 -4.597,2.6542 z m -6.2688,3.6193 0,0 8.6865,5.0151 5.0151,-2.8953 -8.6864,-5.0151 -5.0152,2.8953 z m -5.4333,3.1368 0,0 11.9441,6.896 4.5972,-2.6543 -11.9439,-6.896 -4.5974,2.6543 z m -6.687,3.8608 0,0 5.7913,3.3435 5.0151,-2.8956 -5.7911,-3.3435 -5.0153,2.8956 z m 26.7138,-5.8106 0,0 4.7051,2.7166 4.5971,-2.6543 -4.7051,-2.7167 -4.5971,2.6544 z m 5.7908,3.3433 0,0 4.7052,2.7168 4.5973,-2.6544 -4.7051,-2.7166 -4.5974,2.6542 z m 5.7912,3.3435 0,0 4.7051,2.7167 4.5971,-2.6543 -4.7051,-2.7166 -4.5971,2.6542 z m 5.7908,3.3435 0,0 4.7055,2.7163 4.597,-2.6539 -4.7051,-2.7167 -4.5974,2.6543 z m 5.7912,3.3434 0,0 4.7051,2.7164 4.5971,-2.654 -4.7051,-2.7166 -4.5971,2.6542 z m 5.7912,3.3435 0,0 4.7051,2.7164 4.597,-2.654 -4.7051,-2.7166 -4.597,2.6542 z m 5.7908,3.3435 0,0 5.0672,2.9254 4.5971,-2.6544 -5.0672,-2.9252 -4.5971,2.6542 z m 6.153,3.5521 0,0 4.7051,2.7167 4.5975,-2.6543 -4.7053,-2.7162 -4.5973,2.6538 z m 5.7911,3.3435 0,0 4.7051,2.7167 4.5971,-2.6543 -4.7051,-2.7166 -4.5971,2.6542 z m 5.7909,3.3435 0,0 4.7051,2.7166 4.5975,-2.6542 -4.7053,-2.7167 -4.5973,2.6543 z m 5.7911,3.3434 0,0 4.7052,2.7168 4.597,-2.6544 -4.7051,-2.7166 -4.5971,2.6542 z m 5.7909,3.3435 0,0 4.7051,2.7166 4.5975,-2.6542 -4.7053,-2.7166 -4.5973,2.6542 z m -68.8844,-32.5315 0,0 4.7051,2.7164 5.0153,-2.8956 -4.7052,-2.7163 -5.0152,2.8955 z m 6.153,3.5522 0,0 4.7051,2.7167 5.0151,-2.8956 -4.7051,-2.7163 -5.0151,2.8952 z m 5.7911,3.3434 0,0 4.7051,2.7168 5.0153,-2.8956 -4.7051,-2.7167 -5.0153,2.8955 z m 5.7909,3.3435 0,0 4.7051,2.7167 5.0151,-2.8955 -4.7051,-2.7168 -5.0151,2.8956 z m 5.7911,3.3435 0,0 4.7051,2.7167 5.0153,-2.8957 -4.7051,-2.7166 -5.0153,2.8956 z m 5.7909,3.3435 0,0 4.7051,2.7166 5.0155,-2.8956 -4.7055,-2.7166 -5.0151,2.8956 z m 5.7911,3.3434 0,0 4.7051,2.7168 5.0153,-2.8957 -4.7051,-2.7166 -5.0153,2.8955 z m 5.7909,3.3435 0,0 4.7055,2.7166 5.0151,-2.8955 -4.7051,-2.7167 -5.0155,2.8956 z m 5.7911,3.3435 0,0 4.7051,2.7166 5.0153,-2.8956 -4.7051,-2.7166 -5.0153,2.8956 z m 5.7913,3.3434 0,0 4.7051,2.7167 5.0151,-2.8956 -4.7051,-2.7166 -5.0151,2.8955 z m 5.7907,3.3435 0,0 4.7053,2.7166 5.0151,-2.8955 -4.7051,-2.7167 -5.0153,2.8956 z m -60.4477,-28.626 0,0 4.7051,2.7166 4.5975,-2.6542 -4.7051,-2.7167 -4.5975,2.6543 z m 5.7912,3.3435 0,0 4.7051,2.7166 4.5972,-2.6542 -4.7053,-2.7168 -4.597,2.6544 z m 5.7908,3.3434 0,0 4.7052,2.7167 4.5974,-2.6544 -4.7051,-2.7166 -4.5975,2.6543 z m 5.7912,3.3435 0,0 4.7051,2.7166 4.5972,-2.6543 -4.7053,-2.7166 -4.597,2.6543 z m 5.7908,3.3435 0,0 4.7052,2.7166 4.5974,-2.6543 -4.7051,-2.7166 -4.5975,2.6543 z m 5.7912,3.3435 0,0 4.7051,2.7166 4.5972,-2.6543 -4.7053,-2.7167 -4.597,2.6544 z m 5.7908,3.3433 0,0 4.7052,2.7164 4.5974,-2.654 -4.7051,-2.7166 -4.5975,2.6542 z m 5.7912,3.3435 0,0 5.0669,2.9254 4.5975,-2.6542 -5.0673,-2.9254 -4.5971,2.6542 z m 6.1529,3.5522 0,0 4.7052,2.7167 4.5974,-2.6544 -4.7055,-2.7162 -4.5971,2.6539 z m 5.7909,3.3435 0,0 4.7055,2.7166 4.5971,-2.6543 -4.7051,-2.7162 -4.5975,2.6539 z m 5.7912,3.3435 0,0 7.2389,4.1792 4.5971,-2.6539 -7.2386,-4.1793 -4.5974,2.654 z m -70.75,-33.126 0,0 4.7051,2.7166 5.0153,-2.8956 -4.7051,-2.7167 -5.0153,2.8957 z m 5.7909,3.3433 0,0 4.7051,2.7164 5.0153,-2.8952 -4.7053,-2.7167 -5.0151,2.8955 z m 5.7911,3.3435 0,0 4.7051,2.7163 5.0153,-2.8951 -4.7051,-2.7168 -5.0153,2.8956 z m 5.7909,3.3435 0,0 4.7051,2.7163 5.0153,-2.8953 -4.7053,-2.7166 -5.0151,2.8956 z m 5.7911,3.3434 0,0 4.7053,2.7164 5.0151,-2.8953 -4.7051,-2.7166 -5.0153,2.8955 z m 5.7909,3.3435 0,0 4.7051,2.7164 5.0153,-2.8953 -4.7053,-2.7167 -5.0151,2.8956 z m 5.7911,3.3435 0,0 4.7053,2.7163 5.0151,-2.8955 -4.7051,-2.7164 -5.0153,2.8956 z m 5.7909,3.3435 0,0 4.7055,2.7163 5.0149,-2.8957 -4.7052,-2.7162 -5.0152,2.8956 z m 5.7911,3.3431 0,0 4.7053,2.7167 5.0151,-2.8957 -4.7051,-2.7162 -5.0153,2.8952 z m 5.7909,3.3434 0,0 4.7055,2.7166 5.0152,-2.8955 -4.7055,-2.7163 -5.0152,2.8952 z m 5.7911,3.3435 0,0 7.239,4.1794 5.0149,-2.8953 -7.2386,-4.1793 -5.0153,2.8952 z m 8.6865,5.0153 0,0 4.7051,2.7166 5.0155,-2.8956 -4.7055,-2.7167 -5.0151,2.8957 z" />
      <path
         inkscape:connector-curvature="0"
         id="path4574"
         style="fill:#128cac;fill-opacity:1;fill-rule:evenodd;stroke:none"
         d="m 1775.29,1128.0663 c -0.1999,0.115 -0.5145,0.11 -0.7142,0 l -31.127,-17.971 c -0.1998,-0.115 -0.209,-0.2969 -0.01,-0.4125 l 15.5632,-8.9854 c 0.1999,-0.115 0.5453,-0.128 0.7455,-0.013 l 31.1265,17.971 c 0.1999,0.115 0.1783,0.315 -0.022,0.4305 l -15.5632,8.9855 z" />
      <path
         inkscape:connector-curvature="0"
         id="path4576"
         style="fill:#ffffff;fill-opacity:1;fill-rule:evenodd;stroke:none"
         d="m 1742.1951,1110.8135 14.8394,8.5678 c 0.1999,0.115 0.3586,0.2108 0.1588,0.3263 l -2.5334,1.4627 c -0.2003,0.115 -0.3509,0.015 -0.5506,-0.1 l -14.8398,-8.5674 c -0.1999,-0.115 -0.3731,-0.2024 -0.1732,-0.3179 l 2.5337,-1.4626 c 0.1999,-0.115 0.3654,-0.024 0.5651,0.091 z m 16.0839,9.5209 0,0 -2.5335,1.4628 c -0.1999,0.115 -0.027,0.2026 0.1733,0.3177 l 14.8393,8.5678 c 0.1999,0.115 0.3508,0.2153 0.5507,0.1 l 2.5335,-1.4627 c 0.1998,-0.115 0.041,-0.2108 -0.1584,-0.3263 l -14.8394,-8.5678 c -0.2002,-0.115 -0.3657,-0.2069 -0.5655,-0.091" />
      <path
         inkscape:connector-curvature="0"
         id="path4578"
         style="fill:#53bddb;fill-opacity:1;fill-rule:evenodd;stroke:none"
         d="m 1790.8749,1118.6503 -30.2346,-17.4561 -14.693,8.483 c -0.1999,0.115 -0.1908,0.2969 0.01,0.4124 l 30.2351,17.4562 14.6617,-8.465 c 0.1999,-0.115 0.2215,-0.315 0.022,-0.4305" />
      <path
         inkscape:connector-curvature="0"
         id="path4580"
         style="fill:none;stroke:#947bb7;stroke-width:6.25;stroke-linecap:round;stroke-linejoin:round;stroke-miterlimit:10.00000286;stroke-dasharray:62.5, 6.25, 62.5;stroke-dashoffset:0;stroke-opacity:1"
         d="m 1853.2516,1035.8389 0,47.2631" />
      <path
         inkscape:connector-curvature="0"
         id="path4582"
         style="fill:none;stroke:#947bb7;stroke-width:6.25;stroke-linecap:round;stroke-linejoin:round;stroke-miterlimit:10.00000286;stroke-dasharray:62.5, 6.25, 62.5;stroke-dashoffset:0;stroke-opacity:1"
         d="m 1792.2869,1000.0816 0,47.2632" />
      <path
         inkscape:connector-curvature="0"
         id="path4584"
         style="fill:#4d4d4e;fill-opacity:1;fill-rule:nonzero;stroke:none"
         d="m 1745.7586,1198.3435 -25.5748,-14.7657 18.2746,-10.5509 19.5442,11.284 c 4.0205,2.3212 4.0205,8.1241 0,10.4454 l -6.2132,3.5872 c -1.8659,1.0775 -4.1648,1.0775 -6.0308,0" />
      <path
         inkscape:connector-curvature="0"
         id="path4586"
         style="fill:#4d4d4e;fill-opacity:1;fill-rule:nonzero;stroke:none"
         d="m 1772.9639,1209.7824 -14.6406,-8.453 9.3578,-5.4028 14.641,8.4529 -9.3582,5.4029 z" />
      <path
         inkscape:connector-curvature="0"
         id="path4588"
         style="fill:#4d4d4e;fill-opacity:1;fill-rule:nonzero;stroke:none"
         d="m 1668.4463,1196.1711 -70.6504,-39.814 89.7824,-52.418 69.8478,40.4873 -88.9798,51.7447 z" />
      <path
         inkscape:connector-curvature="0"
         id="path4590"
         style="fill:#4d4d4e;fill-opacity:1;fill-rule:nonzero;stroke:none"
         d="m 1669.5248,1096.3958 -73.8308,-43.893 96.0714,-56.08993 75.1882,43.77983 -97.4288,56.2031 z" />
      <g
         transform="matrix(1.25,0,0,-1.25,1393.819,3081.1389)"
         id="g4592">
        <path
           inkscape:connector-curvature="0"
           id="path4594"
           style="fill:#f2d2cf;fill-opacity:1;fill-rule:nonzero;stroke:none"
           d="m 271.1633,1522.6087 12.1788,-7.0317 c 1.512,-0.8727 2.016,-2.2056 2.016,-3.4914 0,-2.4446 -2.226,-6.7646 -6.3839,-4.3642 l -7.8109,4.5099 0,10.3774 z" />
        <path
           inkscape:connector-curvature="0"
           id="path4596"
           style="fill:#1ab59d;fill-opacity:1;fill-rule:nonzero;stroke:none"
           d="m 271.1633,1512.2313 -12.1787,7.0313 c -1.5117,0.8728 -2.016,2.206 -2.016,3.4918 0,2.4443 2.226,6.7643 6.3839,4.3639 l 7.8108,-4.5096 0,-10.3774 z" />
        <path
           inkscape:connector-curvature="0"
           id="path4598"
           style="fill:#fee6db;fill-opacity:1;fill-rule:nonzero;stroke:none"
           d="m 288.8623,1518.7136 -12.1791,7.0313 -5.5199,-3.1362 8.0317,-4.6372 0,0 4.1471,-2.3945 c 1.512,-0.8727 2.016,-2.2056 2.016,-3.4914 0,-1.4145 -0.7455,-3.4568 -2.179,-4.462 l 5.0077,2.8395 c 0.1545,0.073 0.3025,0.157 0.4442,0.2517 l 0,0 c 1.4777,0.987 2.247,3.0707 2.247,4.5071 0,1.2858 -0.504,2.6186 -2.0157,3.4917" />
        <path
           inkscape:connector-curvature="0"
           id="path4600"
           style="fill:#62c4b0;fill-opacity:1;fill-rule:nonzero;stroke:none"
           d="m 268.8724,1530.2546 c -1.6413,0.9476 -2.9804,0.8464 -4.0014,0.2284 l -10e-4,9e-4 -5.3567,-3.043 c 0.9995,0.5326 2.2842,0.5751 3.8396,-0.3226 l 3.5943,-2.0752 4.2165,-2.4344 5.5199,3.1362 -7.8108,4.5097 z" />
      </g>
      <path
         inkscape:connector-curvature="0"
         id="path4602"
         style="fill:#fee6db;fill-opacity:1;fill-rule:nonzero;stroke:none"
         d="m 1675.0746,1098.4878 -88.0621,50.8426 74.6755,43.1139 88.0619,-50.8426 -74.6753,-43.1139 z" />
      <path
         inkscape:connector-curvature="0"
         id="path4604"
         style="fill:#f2d2cf;fill-opacity:1;fill-rule:nonzero;stroke:none"
         d="m 1749.7499,1141.6017 0,1.5591 -88.0619,50.8428 0,-1.5593 88.0619,-50.8426 z" />
      <path
         inkscape:connector-curvature="0"
         id="path4606"
         style="fill:#e0bccd;fill-opacity:1;fill-rule:nonzero;stroke:none"
         d="m 1587.0125,1149.3304 0,1.5594 74.6755,43.1138 0,-1.5593 -74.6755,-43.1139 z" />
      <g
         transform="matrix(1.25,0,0,-1.25,1393.819,3081.1389)"
         id="g4608">
        <path
           inkscape:connector-curvature="0"
           id="path4610"
           style="fill:#aa5a7f;fill-opacity:1;fill-rule:nonzero;stroke:none"
           d="m 283.4235,1626.1061 -65.1796,-37.6313 0,19.8989 65.1796,36.9814 0,-19.249 z" />
        <g
           id="g4612">
          <path
             inkscape:connector-curvature="0"
             id="path4614"
             style="fill:#ffffff;fill-opacity:0.5;fill-rule:nonzero;stroke:none"
             d="m 223.4089,1591.4568 -0.7455,-0.4306 0,19.8992 0.7455,0.4303 0,-19.8989 z m 1.5979,20.8213 0,0 -0.7458,-0.4303 0,-19.8992 0.7458,0.4306 0,19.8989 z m 25.2428,14.5741 0,0 -0.7455,-0.4306 0,-19.8989 0.7455,0.4303 0,19.8992 z m 1.5976,0.9224 0,0 -0.7455,-0.4306 0,-19.8989 0.7455,0.4303 0,19.8992 z m 25.2428,14.5737 0,0 -0.7455,-0.4303 0,-19.8989 0.7455,0.4303 0,19.8989 z m 1.5976,0.9227 0,0 -0.7455,-0.4306 0,-19.8989 0.7455,0.4303 0,19.8992 z" />
        </g>
        <path
           inkscape:connector-curvature="0"
           id="path4616"
           style="fill:#ffffff;fill-opacity:1;fill-rule:nonzero;stroke:none"
           d="m 215.1201,1606.7381 0,-14.3305 -52.6569,31.5266 0,14.3306 52.6569,-31.5267 z" />
        <path
           inkscape:connector-curvature="0"
           id="path4618"
           style="fill:#e884ad;fill-opacity:1;fill-rule:nonzero;stroke:none"
           d="m 218.2516,1607.4394 -57.6947,34.4171 65.5996,32.0378 57.267,-28.5392 -65.1719,-37.9157 z" />
        <path
           inkscape:connector-curvature="0"
           id="path4620"
           style="fill:#c6d0ce;fill-opacity:1;fill-rule:nonzero;stroke:none"
           d="m 216.0439,1593.3084 -53.5807,32.0794 0,0.7211 53.5807,-32.0796 0,-0.7209 z m 0,2.7825 0,0 -53.5807,32.0797 0,-0.7209 53.5807,-32.0797 0,0.7209 z m 0,2.0619 0,0 -53.5807,32.0797 0,-0.7208 53.5807,-32.0797 0,0.7208 z m 0,2.0617 0,0 -53.5807,32.0796 0,-0.7208 53.5807,-32.0797 0,0.7209 z m 0,2.0619 0,0 -53.5807,32.0797 0,-0.7209 53.5807,-32.0797 0,0.7209 z m 0,2.0619 0,0 -53.5807,32.0797 0,-0.7209 53.5807,-32.0797 0,0.7209 z" />
        <path
           inkscape:connector-curvature="0"
           id="path4622"
           style="fill:#1ab59d;fill-opacity:1;fill-rule:nonzero;stroke:none"
           d="m 200.0293,1602.3129 2.2281,0.5885 2.228,-3.2564 0,6.9987 0,6.9988 -2.228,1.3339 -2.2281,1.334 0,-6.9987 0,-6.9988 z" />
        <path
           inkscape:connector-curvature="0"
           id="path4624"
           style="fill:#fdc181;fill-opacity:1;fill-rule:nonzero;stroke:none"
           d="m 160.5569,1623.0776 0,1.9981 54.5632,-32.6681 0,14.3305 -54.5632,32.6682 0,2.4502 57.6947,-34.4171 0,-18.9646 -57.6947,34.6028 z" />
      </g>
      <g
         transform="matrix(1.25,0,0,-1.25,1393.819,3081.1389)"
         id="g4626">
        <path
           inkscape:connector-curvature="0"
           id="path4628"
           style="fill:#44355f;fill-opacity:1;fill-rule:nonzero;stroke:none"
           d="m 173.1305,1645.9469 55.0395,-31.7769 0,16.8032 -55.0395,31.2282 0,-16.2545 z" />
        <g
           id="g4630">
          <path
             inkscape:connector-curvature="0"
             id="path4632"
             style="fill:#ffffff;fill-opacity:0.5;fill-rule:nonzero;stroke:none"
             d="m 223.8086,1633.4912 0.6293,-0.3634 0,-16.8032 -0.6293,0.3634 0,16.8032 z m -1.3493,-16.0242 0,0 0.6296,-0.3634 0,16.8032 -0.6296,0.3634 0,-16.8032 z m -21.3157,12.3066 0,0 0.6296,-0.3634 0,16.8032 -0.6296,0.3637 0,-16.8035 z m -1.349,0.7789 0,0 0.6296,-0.3634 0,16.8032 -0.6296,0.3634 0,-16.8032 z m -21.3157,12.3066 0,0 0.6293,-0.3634 0,16.8033 -0.6293,0.3634 0,-16.8033 z m -1.3493,0.779 0,0 0.6296,-0.3634 0,16.8032 -0.6296,0.3634 0,-16.8032 z" />
        </g>
        <path
           inkscape:connector-curvature="0"
           id="path4634"
           style="fill:#ffffff;fill-opacity:1;fill-rule:nonzero;stroke:none"
           d="m 230.8076,1629.5922 0,-12.1011 44.4651,26.6218 0,12.1014 -44.4651,-26.6221 z" />
        <path
           inkscape:connector-curvature="0"
           id="path4636"
           style="fill:#725c94;fill-opacity:1;fill-rule:nonzero;stroke:none"
           d="m 228.1637,1630.1843 48.7191,29.0628 -54.8926,29.3459 -48.8597,-26.3916 55.0332,-32.0171 z" />
        <path
           inkscape:connector-curvature="0"
           id="path4638"
           style="fill:#c6d0ce;fill-opacity:1;fill-rule:nonzero;stroke:none"
           d="m 230.0278,1618.8602 45.2449,27.089 0,-0.6086 -45.2449,-27.089 0,0.6086 z m 0,1.1324 0,0 45.2449,27.089 0,0.6086 -45.2449,-27.0887 0,-0.6089 z m 0,1.7411 0,0 45.2449,27.089 0,0.6086 -45.2449,-27.0887 0,-0.6089 z m 0,1.741 0,0 45.2449,27.089 0,0.6086 -45.2449,-27.0887 0,-0.6089 z m 0,1.741 0,0 45.2449,27.0891 0,0.6086 -45.2449,-27.0888 0,-0.6089 z m 0,1.7411 0,0 45.2449,27.089 0,0.6086 -45.2449,-27.0887 0,-0.6089 z" />
        <path
           inkscape:connector-curvature="0"
           id="path4640"
           style="fill:#32466e;fill-opacity:1;fill-rule:nonzero;stroke:none"
           d="m 243.5508,1625.8552 -1.8814,0.4972 -1.8813,-2.7498 0,5.9099 0,5.9097 1.8813,1.1265 1.8814,1.1264 0,-5.9099 0,-5.91 z" />
        <path
           inkscape:connector-curvature="0"
           id="path4642"
           style="fill:#685580;fill-opacity:1;fill-rule:nonzero;stroke:none"
           d="m 276.8828,1643.3895 0,1.6875 -46.0752,-27.5859 0,12.1011 46.0752,27.5859 0,2.069 -48.7191,-29.0628 0,-16.0143 48.7191,29.2195 z" />
      </g>
      <g
         transform="matrix(1.25,0,0,-1.25,1393.819,3081.1389)"
         id="g4644">
        <path
           inkscape:connector-curvature="0"
           id="path4646"
           style="fill:#725c94;fill-opacity:1;fill-rule:nonzero;stroke:none"
           d="m 304.7715,1501.6175 -4.5735,-2.5466 0,41.6432 4.5735,2.6102 0,-41.7068 z" />
        <path
           inkscape:connector-curvature="0"
           id="path4648"
           style="fill:#fee6db;fill-opacity:1;fill-rule:nonzero;stroke:none"
           d="m 296.0039,1552.1394 4.411,2.5467 4.3699,-11.3618 -4.5139,-2.6102 -4.267,11.4253 z" />
        <path
           inkscape:connector-curvature="0"
           id="path4650"
           style="fill:#685580;fill-opacity:1;fill-rule:nonzero;stroke:none"
           d="m 296.0039,1552.1394 4.411,2.5467 1.2498,-3.2497 -4.4181,-2.5727 -1.2427,3.2757 z" />
        <path
           inkscape:connector-curvature="0"
           id="path4652"
           style="fill:#44355f;fill-opacity:1;fill-rule:nonzero;stroke:none"
           d="m 300.2709,1499.004 -8.5768,4.9572 0,41.7101 8.5768,-4.9572 0,-41.7101 z" />
        <path
           inkscape:connector-curvature="0"
           id="path4654"
           style="fill:#1ab59d;fill-opacity:1;fill-rule:nonzero;stroke:none"
           d="m 297.8595,1500.4018 -3.7446,2.1619 0,41.7102 3.7446,-2.162 0,-41.7101 z" />
        <path
           inkscape:connector-curvature="0"
           id="path4656"
           style="fill:#f2d2cf;fill-opacity:1;fill-rule:nonzero;stroke:none"
           d="m 295.9739,1552.1122 2.1634,-5.7047 2.1336,-5.6934 -4.297,2.4863 -4.2792,2.4707 2.1158,3.2343 2.1634,3.2068 z" />
        <path
           inkscape:connector-curvature="0"
           id="path4658"
           style="fill:#44355f;fill-opacity:1;fill-rule:nonzero;stroke:none"
           d="m 295.9872,1552.0652 1.2331,-3.191 -1.2238,0.7067 -1.2424,0.7171 1.2331,1.7672 z" />
      </g>
      <g
         transform="matrix(1.25,0,0,-1.25,1393.819,3081.1389)"
         id="g4660">
        <path
           inkscape:connector-curvature="0"
           id="path4662"
           style="fill:#3a3056;fill-opacity:1;fill-rule:nonzero;stroke:none"
           d="m 255.598,1554.0174 c 0,0 -19.5573,11.2912 -19.5573,11.2912 l -6.9631,4.0201 -43.677,-25.217 33.4834,-19.3317 43.677,25.217 -6.963,4.0204 z" />
        <path
           inkscape:connector-curvature="0"
           id="path4664"
           style="fill:#5295a6;fill-opacity:1;fill-rule:nonzero;stroke:none"
           d="m 217.4185,1525.9927 0,4.276 41.5785,24.0058 0,-4.2761 -41.5785,-24.0057 z" />
        <path
           inkscape:connector-curvature="0"
           id="path4666"
           style="fill:#74ccd4;fill-opacity:1;fill-rule:nonzero;stroke:none"
           d="m 217.4185,1530.269 -31.8748,18.4028 41.5786,24.0055 31.8747,-18.4028 -41.5785,-24.0055 z" />
        <path
           inkscape:connector-curvature="0"
           id="path4668"
           style="fill:#66a5b3;fill-opacity:1;fill-rule:nonzero;stroke:none"
           d="m 185.5437,1548.6718 0,-4.2761 31.8748,-18.403 0,4.2763 -31.8748,18.4028 z" />
        <g
           transform="scale(0.14485,0.14485)"
           id="g4670">
          <path
             inkscape:connector-curvature="0"
             id="path4672"
             style="fill:none;stroke:#ffffff;stroke-width:4.10290003;stroke-linecap:butt;stroke-linejoin:miter;stroke-miterlimit:10.00000095;stroke-dasharray:none;stroke-opacity:1"
             d="m 1452.8438,10643.75 0,12.897 -22.339,0 0,-12.897 22.339,0 z m 12.8319,-7.409 0,12.897 -22.339,0 0,-12.897 22.339,0 z m 12.8281,-7.407 0,12.897 -22.337,0 0,-12.897 22.337,0 z m 12.8319,-7.407 0,12.896 -22.337,0 0,-12.896 22.337,0 z m 12.8302,-7.407 0,12.896 -22.339,0 0,-12.896 22.339,0 z m 12.8319,-7.41 0,12.897 -22.339,0 0,-12.897 22.339,0 z m 12.8301,-7.407 0,12.897 -22.3373,0 0,-12.897 22.3392,0 z m 12.8299,-7.409 0,12.898 -22.337,0 0,-12.898 22.337,0 z m -192.4619,111.12 0,12.897 -22.3373,0 0,-12.897 22.3373,0 z m 12.8318,-7.409 0,12.896 -22.337,0 0,-12.896 22.337,0 z m 12.8299,-7.407 0,12.898 -22.339,0 0,-12.898 22.339,0 z m 12.8322,-7.41 0,12.897 -22.339,0 0,-12.897 22.339,0 z m 12.8279,-7.407 0,12.899 -22.337,0 0,-12.899 22.337,0 z m 12.8322,-7.407 0,12.896 -22.3373,0 0,-12.896 22.3373,0 z m 12.8298,-7.407 0,12.896 -22.3389,0 0,-12.896 22.337,0 z m -9.5071,-7.407 0,12.894 22.3393,0 0,-12.896 -22.3393,0 z" />
        </g>
        <path
           inkscape:connector-curvature="0"
           id="path4674"
           style="fill:#ee2e6b;fill-opacity:1;fill-rule:nonzero;stroke:none"
           d="m 233.2511,1553.7234 c -0.3507,-0.1933 -0.8283,-0.2333 -1.067,-0.088 -0.2384,0.1446 -0.1465,0.4187 0.2038,0.6123 0.3507,0.1939 0.8278,0.2338 1.0661,0.089 0.2387,-0.1452 0.1477,-0.4193 -0.2029,-0.6132" />
        <path
           inkscape:connector-curvature="0"
           id="path4676"
           style="fill:#ee2e6b;fill-opacity:1;fill-rule:nonzero;stroke:none"
           d="m 231.2717,1553.4916 c -1.5721,-0.207 -3.7245,-0.9822 -5.906,-2.1873 -0.3345,-0.1848 -0.7892,-0.2225 -1.0163,-0.084 l -0.001,8e-4 -0.002,9e-4 c -0.227,0.1377 -0.1411,0.3994 0.1934,0.5842 0.6715,0.3708 2.1549,1.2818 1.4187,1.7288 -0.7359,0.4465 -2.378,-0.3682 -3.0495,-0.7392 -0.3345,-0.1848 -0.7898,-0.2223 -1.0168,-0.084 -0.008,0.01 -0.0153,0.011 -0.023,0.016 -0.009,0 -0.019,0.01 -0.0272,0.014 -0.227,0.1378 -0.1409,0.3991 0.1936,0.5839 0.6716,0.3708 2.1546,1.2822 1.4188,1.7289 -0.7365,0.4467 -2.3786,-0.3679 -3.0501,-0.739 -0.3345,-0.1845 -0.7892,-0.2225 -1.0162,-0.084 -0.2274,0.1378 -0.1406,0.3989 0.1939,0.5837 2.539,1.4026 4.2905,1.3887 5.0822,0.9082 0.4569,-0.2772 0.629,-0.733 0.2064,-1.3377 1.0629,0.216 1.8405,0.096 2.2977,-0.1819 0.3583,-0.2175 0.5409,-0.5446 0.4008,-0.9664 1.5273,0.6027 2.9586,0.9788 4.1633,1.1007 0.4776,1.2212 0.1165,2.3868 -1.1909,3.1802 -2.4981,1.516 -7.5001,1.1001 -11.1724,-0.9283 -3.6729,-2.0285 -4.625,-4.902 -2.1271,-6.418 2.4984,-1.5162 7.5001,-1.1004 11.1727,0.9284 1.3093,0.7231 2.2725,1.5537 2.8571,2.3919" />
        <path
           inkscape:connector-curvature="0"
           id="path4678"
           style="fill:#5295a6;fill-opacity:1;fill-rule:evenodd;stroke:none"
           d="m 217.4185,1530.2687 -1.3544,-1.7844 1.3544,-2.4916 0,4.276 z" />
        <path
           inkscape:connector-curvature="0"
           id="path4680"
           style="fill:#74ccd4;fill-opacity:1;fill-rule:evenodd;stroke:none"
           d="m 186.804,1545.7853 29.2601,-17.301 1.3544,-2.4916 -31.8748,18.403 1.2603,1.3896 z" />
        <g
           id="g4682">
          <g
             id="g4684">
            <path
               inkscape:connector-curvature="0"
               id="path4686"
               style="fill:#ffffff;fill-opacity:1;fill-rule:nonzero;stroke:none"
               d="m 233.3407,1538.4725 c -0.002,-0.087 -0.0462,-0.182 -0.0998,-0.2112 -0.0533,-0.029 -0.0953,0.018 -0.0936,0.1052 0.002,0.087 0.0462,0.1819 0.0995,0.2114 0.0536,0.029 0.0956,-0.018 0.0939,-0.1054" />
            <path
               inkscape:connector-curvature="0"
               id="path4688"
               style="fill:#ffffff;fill-opacity:1;fill-rule:nonzero;stroke:none"
               d="m 233.1683,1538.0731 c -0.1324,-0.3198 -0.2208,-0.8113 -0.231,-1.3553 -0.001,-0.083 -0.0439,-0.1735 -0.095,-0.2012 l -3e-4,-3e-4 -2e-4,-3e-4 c -0.0511,-0.028 -0.091,0.017 -0.0893,0.1003 0.003,0.1676 -0.007,0.5474 -0.1721,0.457 -0.1647,-0.09 -0.1899,-0.4898 -0.193,-0.6571 -0.002,-0.083 -0.0443,-0.1735 -0.095,-0.2015 -0.002,-9e-4 -0.004,0 -0.006,0 -0.002,0 -0.004,0 -0.006,0 -0.0508,-0.028 -0.091,0.017 -0.0893,0.1001 0.003,0.1675 -0.007,0.5474 -0.1721,0.4569 -0.1647,-0.09 -0.1899,-0.4898 -0.193,-0.657 -0.002,-0.084 -0.0442,-0.1735 -0.095,-0.2016 -0.051,-0.028 -0.0907,0.017 -0.0893,0.1004 0.0119,0.6332 0.2058,0.9626 0.383,1.0598 0.1023,0.056 0.2072,0.039 0.2755,-0.1068 0.0751,0.2245 0.1828,0.3583 0.2852,0.4144 0.0802,0.044 0.1618,0.043 0.2265,-0.03 0.0527,0.3543 0.1377,0.6659 0.2463,0.9071 -0.1789,0.2234 -0.4385,0.2823 -0.7313,0.1219 -0.5593,-0.3067 -1.0265,-1.2977 -1.0438,-2.2133 -0.0175,-0.9159 0.4218,-1.4094 0.9811,-1.1027 0.5593,0.307 1.0264,1.2977 1.044,2.2136 0.006,0.3263 -0.0459,0.599 -0.1406,0.8011" />
          </g>
          <text
             id="text4690"
             style="font-variant:normal;font-weight:bold;font-size:1.51226032px;font-family:'Century Gothic';-inkscape-font-specification:CenturyGothic-Bold;writing-mode:lr-tb;fill:#ffffff;fill-opacity:1;fill-rule:nonzero;stroke:none"
             transform="matrix(0.57931362,0.3374462,-0.00584093,-0.94134481,233.5649,1537.397)">
            <tspan
               id="tspan4692"
               sodipodi:role="line"
               y="0"
               x="0 1.4215246 1.8449576 2.8128042 3.236237 4.2343287 4.6577616 5.2929111 5.7163439">m e p ´ s</tspan>
          </text>
          <text
             id="text4694"
             style="font-variant:normal;font-weight:normal;font-size:1.51226032px;font-family:'Century Gothic';-inkscape-font-specification:CenturyGothic;writing-mode:lr-tb;fill:#ffffff;fill-opacity:1;fill-rule:nonzero;stroke:none"
             transform="matrix(0.57931362,0.3374462,-0.00584093,-0.94134481,237.74808,1539.8337)">
            <tspan
               id="tspan4696"
               sodipodi:role="line"
               y="0"
               x="0 1.4185002 1.8373963 2.8203654 3.2392616 4.2751598 4.694056 4.9965081 5.4154043 6.4059348 6.8248305 7.4115877 8.2493801 9.2323494 9.6512451 10.126095 10.544991 11.527961 11.946856 12.925289 13.344185 13.856841 14.275738 14.57819 14.997086 15.834878 16.253775 17.244305 17.6632 18.249958 19.087749 20.119112 20.538008 21.457462 21.876358 22.907719 23.326614 23.629066 24.047964 24.350416 24.769312 25.747744 26.166639 26.469091 26.887989 27.400644 27.81954 28.852415 29.271311 29.726501 30.145397 30.447849 30.866745 31.857275 32.276173 32.86293">m e d i o s e f e c t i v o s p u b l i c i t a r i o s</tspan>
          </text>
          <text
             id="text4698"
             style="font-style:italic;font-variant:normal;font-size:0.58757812px;font-family:'Century Gothic';-inkscape-font-specification:CenturyGothic-Italic;writing-mode:lr-tb;fill:#ffffff;fill-opacity:1;fill-rule:nonzero;stroke:none"
             transform="matrix(0.57931362,0.3374462,-0.00584093,-0.94134481,233.5946,1536.5616)">
            <tspan
               id="tspan4700"
               sodipodi:role="line"
               y="0"
               x="0 0.13279265 0.29555178 0.84670007 1.0094591 1.4101875 1.5729465 1.930194 2.0929532 2.2104688 2.3732281 2.6012082 2.7639673 3.1652832 3.3280423 3.686465 3.8492241 4.2517152 4.4144745 4.7993379 5.124856 5.242372 5.4051309 5.807622 5.9703813 6.3523068 6.5150661 6.9163818 7.0791411">I m p u l s a n d o i d e a s</tspan>
          </text>
        </g>
        <path
           inkscape:connector-curvature="0"
           id="path4702"
           style="fill:#74ccd4;fill-opacity:1;fill-rule:evenodd;stroke:none"
           d="m 227.1223,1572.6773 1.9514,0.2058 0.5417,-1.645 2.2524,0.013 0.8353,-1.7964 1.9143,0.1869 0.4051,-1.5257 1.8189,0.1846 0.4457,-1.4919 1.7895,0.095 0.2837,-1.292 1.4599,0.1967 0.3336,-1.2322 1.5888,0.07 0.4473,-1.2453 1.5645,0.016 0.3877,-1.1432 1.7357,0.093 0.4014,-1.3266 1.8116,-0.059 0.2631,-1.1384 1.4915,0.1434 0.362,-1.2135 1.4823,0.074 0.4169,-1.1704 1.3601,0.075 0.2798,-1.0216 1.4749,0.1219 0.3446,-1.1727 1.2034,0.2506 0.2395,-1.0837 1.0434,0.1894 -0.0553,-0.7597 -1.1599,-0.6698 -31.936,18.3676 1.2212,0.705 z" />
      </g>
      <path
         inkscape:connector-curvature="0"
         id="path4704"
         style="fill:#fdc32d;fill-opacity:1;fill-rule:nonzero;stroke:none"
         d="m 1804.1939,1038.1485 1.6547,-0.9749 -0.1885,-21.5645 -1.6551,0.9748 0.1889,21.5646 z" />
      <path
         inkscape:connector-curvature="0"
         id="path4706"
         style="fill:#dca83a;fill-opacity:1;fill-rule:nonzero;stroke:none"
         d="m 1805.8486,1037.1736 14.3893,8.1408 -0.1888,-21.5645 -14.389,-8.1408 0.1885,21.5645 z" />
      <path
         inkscape:connector-curvature="0"
         id="path4708"
         style="fill:#fabe2f;fill-opacity:1;fill-rule:nonzero;stroke:none"
         d="m 1820.2379,1045.3144 -1.655,0.9749 -14.389,-8.1405 1.6547,-0.9752 14.3893,8.1408 z" />
      <g
         transform="matrix(-0.033025,-0.0560625,0.0560625,-0.033025,1393.819,3081.1389)"
         id="g4710">
        <path
           inkscape:connector-curvature="0"
           id="path4712"
           style="fill:none;stroke:#ffffff;stroke-width:4.10290003;stroke-linecap:butt;stroke-linejoin:miter;stroke-miterlimit:10.00000095;stroke-dasharray:none;stroke-opacity:1"
           d="m 23805.796,21480.815 0,12.9 -22.339,0 0,-12.9 22.338,0 z m 12.833,-7.407 0,12.899 -22.336,0 0,-12.895 22.338,0 z m 12.831,-7.403 0,12.892 -22.339,0 0,-12.895 22.343,0 z m 12.829,-7.411 0,12.895 -22.338,0 0,-12.895 22.338,0 z m 12.833,-7.407 0,12.9 -22.343,0 0,-12.9 22.343,0 z m 12.829,-7.411 0,12.9 -22.335,0 0,-12.895 22.338,0 z m 12.83,-7.403 0,12.896 -22.338,0 0,-12.895 22.338,0 z m 12.829,-7.41 0,12.895 -22.337,0 0,-12.895 22.338,0 z m -192.46,111.12 0,12.895 -22.338,0 0,-12.896 22.338,0 z m 12.834,-7.408 0,12.895 -22.343,0 0,-12.892 22.339,0 z m 12.828,-7.41 0,12.899 -22.338,0 0,-12.899 22.338,0 z m 12.834,-7.408 0,12.9 -22.34,0 0,-12.892 22.339,0 z m 12.826,-7.406 0,12.895 -22.338,0 0,-12.895 22.338,0 z m 12.833,-7.407 0,12.895 -22.338,0 0,-12.895 22.338,0 z m 12.829,-7.411 0,12.9 -22.338,0 0,-12.9 22.338,0 z m -9.505,-7.406 0,12.895 22.336,0 0,-12.9 -22.338,0 z" />
      </g>
      <path
         inkscape:connector-curvature="0"
         id="path4714"
         style="fill:#efc432;fill-opacity:1;fill-rule:evenodd;stroke:none"
         d="m 1805.8486,1037.1736 -0.3816,0.9313 -1.2731,0.044 1.6547,-0.9751 z" />
      <path
         inkscape:connector-curvature="0"
         id="path4716"
         style="fill:#dca83a;fill-opacity:1;fill-rule:evenodd;stroke:none"
         d="m 1818.8334,1045.4845 -13.3664,-7.3796 -1.2731,0.044 14.389,8.1406 0.2505,-0.8048 z" />
      <path
         inkscape:connector-curvature="0"
         id="path4718"
         style="fill:#dca83a;fill-opacity:1;fill-rule:evenodd;stroke:none"
         d="m 1820.0491,1023.7499 -0.365,-0.8023 -0.7603,0.1655 -0.5085,-0.8748 -0.8855,0.086 -0.3639,-0.7834 -0.6828,0.191 -0.3433,-0.7458 -0.6793,0.1675 -0.3714,-0.7143 -0.5643,0.1849 -0.2569,-0.6098 -0.5528,0.1517 -0.3352,-0.6307 -0.584,0.11 -0.3504,-0.6091 -0.5307,0.11 -0.36,-0.6927 -0.6049,0.147 -0.4363,-0.6874 -0.5002,0.1577 -0.2845,-0.6102 -0.5524,0.1367 -0.3094,-0.5906 -0.5481,0.105 -0.281,-0.5436 -0.4592,0.125 -0.2888,-0.5988 -0.5326,0.1339 -0.1771,-0.5226 -0.4742,0.1541 -0.1647,-0.4467 -0.2813,0.1945 0,0.6016 14.3894,8.1722 -0.01,-0.6331 z" />
      <g
         transform="matrix(1.25,0,0,-1.25,1393.819,3081.1389)"
         id="g4720">
        <path
           inkscape:connector-curvature="0"
           id="path4722"
           style="fill:#5295a6;fill-opacity:1;fill-rule:nonzero;stroke:none"
           d="m 335.1436,1621.1534 1.324,0.7798 -0.1511,17.2517 -1.3237,-0.7798 0.1508,-17.2517 z" />
        <path
           inkscape:connector-curvature="0"
           id="path4724"
           style="fill:#74ccd4;fill-opacity:1;fill-rule:nonzero;stroke:none"
           d="m 336.4676,1621.9332 11.5112,-6.5123 -0.1508,17.2517 -11.5115,6.5123 0.1511,-17.2517 z" />
        <path
           inkscape:connector-curvature="0"
           id="path4726"
           style="fill:#66a5b3;fill-opacity:1;fill-rule:nonzero;stroke:none"
           d="m 347.9788,1615.4209 -1.3237,-0.7801 -11.5115,6.5126 1.324,0.7798 11.5112,-6.5123 z" />
        <g
           transform="matrix(-0.02642,0.04485,0.04485,0.02642,0,0)"
           id="g4728">
          <path
             inkscape:connector-curvature="0"
             id="path4730"
             style="fill:none;stroke:#ffffff;stroke-width:4.10290003;stroke-linecap:butt;stroke-linejoin:miter;stroke-miterlimit:10.00000095;stroke-dasharray:none;stroke-opacity:1"
             d="m 23519.908,21465.013 0,12.895 -22.338,0 0,-12.9 22.336,0 z m 12.833,-7.408 0,12.893 -22.338,0 0,-12.892 22.338,0 z m 12.829,-7.41 0,12.9 -22.336,0 0,-12.895 22.338,0 z m 12.833,-7.407 0,12.899 -22.34,0 0,-12.895 22.342,0 z m 12.826,-7.406 0,12.895 -22.338,0 0,-12.9 22.335,0 z m 12.834,-7.408 0,12.895 -22.343,0 0,-12.892 22.338,0 z m 12.828,-7.41 0,12.895 -22.338,0 0,-12.895 22.338,0 z m 12.834,-7.408 0,12.9 -22.335,0 0,-12.895 22.338,0 z m -192.465,111.117 0,12.895 -22.339,0 0,-12.895 22.338,0 z m 12.833,-7.408 0,12.9 -22.335,0 0,-12.895 22.337,0 z m 12.826,-7.405 0,12.895 -22.338,0 0,-12.9 22.335,0 z m 12.834,-7.408 0,12.895 -22.338,0 0,-12.9 22.335,0 z m 12.829,-7.41 0,12.895 -22.338,0 0,-12.895 22.338,0 z m 12.833,-7.408 0,12.9 -22.336,0 0,-12.895 22.338,0 z m 12.826,-7.406 10e-4,12.895 -22.338,10e-4 0,-12.897 22.331,0 z m -9.505,-7.406 0,12.895 22.338,0 0,-12.895 -22.338,0 z" />
        </g>
        <path
           inkscape:connector-curvature="0"
           id="path4732"
           style="fill:#5295a6;fill-opacity:1;fill-rule:evenodd;stroke:none"
           d="m 336.4676,1621.9332 -0.3056,-0.7446 -1.0184,-0.035 1.324,0.7798 z" />
        <path
           inkscape:connector-curvature="0"
           id="path4734"
           style="fill:#74ccd4;fill-opacity:1;fill-rule:evenodd;stroke:none"
           d="m 346.8552,1615.2846 -10.6932,5.904 -1.0184,-0.035 11.5115,-6.5126 0.2001,0.6438 z" />
        <path
           inkscape:connector-curvature="0"
           id="path4736"
           style="fill:#74ccd4;fill-opacity:1;fill-rule:evenodd;stroke:none"
           d="m 347.828,1632.6726 -0.2922,0.6417 -0.6081,-0.1323 -0.4067,0.6998 -0.7084,-0.069 -0.2914,0.6267 -0.5462,-0.1528 -0.2747,0.5967 -0.5431,-0.1341 -0.2971,0.5715 -0.4518,-0.1477 -0.2053,0.4879 -0.4425,-0.1217 -0.2681,0.5049 -0.4672,-0.089 -0.2803,0.4872 -0.4246,-0.088 -0.288,0.5542 -0.4839,-0.1177 -0.3487,0.5502 -0.4005,-0.1261 -0.2276,0.4878 -0.4417,-0.1091 -0.2474,0.4723 -0.4386,-0.084 -0.2248,0.4345 -0.3673,-0.099 -0.2313,0.4788 -0.4258,-0.1071 -0.142,0.4181 -0.3793,-0.1233 -0.1315,0.3577 -0.2254,-0.1559 0.004,-0.4811 11.5115,-6.5381 -0.004,0.5069 z" />
      </g>
      <path
         inkscape:connector-curvature="0"
         id="path4738"
         style="fill:#504272;fill-opacity:1;fill-rule:nonzero;stroke:none"
         d="m 1823.1265,1048.947 1.6546,-0.9747 -0.1885,-21.5645 -1.655,0.9747 0.1889,21.5645 z" />
      <path
         inkscape:connector-curvature="0"
         id="path4740"
         style="fill:#c86c8d;fill-opacity:1;fill-rule:nonzero;stroke:none"
         d="m 1824.7811,1047.9723 14.3894,8.1407 -0.1889,-21.5645 -14.389,-8.1407 0.1885,21.5645 z" />
      <path
         inkscape:connector-curvature="0"
         id="path4742"
         style="fill:#55447d;fill-opacity:1;fill-rule:nonzero;stroke:none"
         d="m 1839.1705,1056.113 -1.655,0.9748 -14.3894,-8.1404 1.655,-0.9751 14.3894,8.1407 z" />
      <g
         transform="matrix(-0.033025,-0.0560625,0.0560625,-0.033025,1393.819,3081.1389)"
         id="g4744">
        <path
           inkscape:connector-curvature="0"
           id="path4746"
           style="fill:none;stroke:#ffffff;stroke-width:4.10290003;stroke-linecap:butt;stroke-linejoin:miter;stroke-miterlimit:10.00000095;stroke-dasharray:none;stroke-opacity:1"
           d="m 23515.094,21647.299 0,12.899 -22.336,0 0,-12.895 22.338,0 z m 12.834,-7.408 0,12.9 -22.335,0 0,-12.895 22.338,0 z m 12.83,-7.403 0,12.893 -22.338,0 0,-12.894 22.342,0 z m 12.829,-7.41 0,12.895 -22.338,10e-4 0,-12.895 22.338,0 z m 12.833,-7.408 -10e-4,12.9 -22.34,0 0,-12.895 22.342,0 z m 12.829,-7.41 0,12.9 -22.336,0 0,-12.895 22.338,0 z m 12.831,-7.403 10e-4,12.895 -22.338,0 0,-12.895 22.338,0 z m 12.829,-7.41 0,12.895 -22.338,0 0,-12.9 22.336,0 z m -192.461,111.119 0,12.895 -22.338,0 0,-12.899 22.335,0 z m 12.834,-7.407 0,12.894 -22.343,0 0,-12.892 22.338,0 z m 12.828,-7.411 0,12.9 -22.335,0 0,-12.895 22.338,0 z m 12.834,-7.407 0,12.895 -22.342,0 0,-12.893 22.338,0 z m 12.826,-7.406 0,12.895 -22.338,10e-4 0,-12.9 22.335,0 z m 12.833,-7.408 0,12.895 -22.338,0 0,-12.895 22.338,0 z m 12.829,-7.41 0,12.9 -22.335,0 0,-12.895 22.338,0 z m -9.505,-7.407 0,12.895 22.335,0 0,-12.9 -22.338,0 z" />
      </g>
      <path
         inkscape:connector-curvature="0"
         id="path4748"
         style="fill:#7d78b7;fill-opacity:1;fill-rule:evenodd;stroke:none"
         d="m 1824.7811,1047.9723 -0.3818,0.9312 -1.2732,0.044 1.655,-0.9752 z" />
      <path
         inkscape:connector-curvature="0"
         id="path4750"
         style="fill:#c86c8d;fill-opacity:1;fill-rule:evenodd;stroke:none"
         d="m 1837.766,1056.2831 -13.3667,-7.3796 -1.2732,0.044 14.3894,8.1403 0.2505,-0.8046 z" />
      <path
         inkscape:connector-curvature="0"
         id="path4752"
         style="fill:#c86c8d;fill-opacity:1;fill-rule:evenodd;stroke:none"
         d="m 1838.9816,1034.5485 -0.3648,-0.8022 -0.7604,0.1655 -0.5085,-0.8749 -0.8855,0.086 -0.3639,-0.7835 -0.6831,0.191 -0.343,-0.7458 -0.6793,0.1676 -0.3713,-0.7144 -0.5645,0.185 -0.2569,-0.6097 -0.5528,0.1516 -0.3351,-0.6308 -0.584,0.1113 -0.3504,-0.6091 -0.5308,0.11 -0.36,-0.6927 -0.6048,0.147 -0.4362,-0.6873 -0.5007,0.1576 -0.2841,-0.6101 -0.5525,0.1367 -0.3092,-0.5906 -0.5483,0.105 -0.2809,-0.5435 -0.4592,0.125 -0.2888,-0.5989 -0.5326,0.134 -0.1775,-0.5226 -0.4737,0.1541 -0.1648,-0.4469 -0.2814,0.1947 0.01,0.6016 14.3894,8.1722 -0.01,-0.6331 z" />
      <path
         inkscape:connector-curvature="0"
         id="path4754"
         style="fill:none;stroke:#55447d;stroke-width:1.77162504;stroke-linecap:butt;stroke-linejoin:miter;stroke-miterlimit:22.92558479;stroke-dasharray:3.5375, 1.775;stroke-dashoffset:0;stroke-opacity:1"
         d="m 1608.1098,1145.5547 64.5093,36.5066" />
      <path
         inkscape:connector-curvature="0"
         id="path4756"
         style="fill:none;stroke:#55447d;stroke-width:1.77162504;stroke-linecap:butt;stroke-linejoin:miter;stroke-miterlimit:22.92558479;stroke-dasharray:3.5375, 1.775;stroke-dashoffset:0;stroke-opacity:1"
         d="m 1736.6896,1137.6924 -74.9572,44.1429" />
      <path
         inkscape:connector-curvature="0"
         id="path4758"
         style="fill:none;stroke:#55447d;stroke-width:1.77162504;stroke-linecap:butt;stroke-linejoin:miter;stroke-miterlimit:22.92558479;stroke-dasharray:3.5375, 1.775;stroke-dashoffset:0;stroke-opacity:1"
         d="m 1684.1306,1107.3545 -72.9155,42.9404" />
      <path
         inkscape:connector-curvature="0"
         id="path4760"
         style="fill:none;stroke:#55447d;stroke-width:1.77162504;stroke-linecap:butt;stroke-linejoin:miter;stroke-miterlimit:22.92558479;stroke-dasharray:3.5375, 1.775;stroke-dashoffset:0;stroke-opacity:1"
         d="m 1671.8868,1105.7349 64.5097,36.5067" />
    </g>
  </g>
</svg>
