<?xml version="1.0" encoding="UTF-8" standalone="no"?>
<!-- Created with Inkscape (http://www.inkscape.org/) -->

<svg
   xmlns:dc="http://purl.org/dc/elements/1.1/"
   xmlns:cc="http://creativecommons.org/ns#"
   xmlns:rdf="http://www.w3.org/1999/02/22-rdf-syntax-ns#"
   xmlns:svg="http://www.w3.org/2000/svg"
   xmlns="http://www.w3.org/2000/svg"
   xmlns:sodipodi="http://sodipodi.sourceforge.net/DTD/sodipodi-0.dtd"
   xmlns:inkscape="http://www.inkscape.org/namespaces/inkscape"
   width="57.551517mm"
   height="60.155434mm"
   viewBox="0 0 203.9227 213.14917"
   id="svg12521"
   version="1.1"
   inkscape:version="0.91 r13725"
   sodipodi:docname="distribucion.svg">
  <defs
     id="defs12523" />
  <sodipodi:namedview
     id="base"
     pagecolor="#ffffff"
     bordercolor="#666666"
     borderopacity="1.0"
     inkscape:pageopacity="0.0"
     inkscape:pageshadow="2"
     inkscape:zoom="0.35"
     inkscape:cx="256.96129"
     inkscape:cy="-126.52138"
     inkscape:document-units="px"
     inkscape:current-layer="layer1"
     showgrid="false"
     fit-margin-top="0"
     fit-margin-left="0"
     fit-margin-right="0"
     fit-margin-bottom="0"
     inkscape:window-width="1366"
     inkscape:window-height="705"
     inkscape:window-x="-8"
     inkscape:window-y="-8"
     inkscape:window-maximized="1" />
  <metadata
     id="metadata12526">
    <rdf:RDF>
      <cc:Work
         rdf:about="">
        <dc:format>image/svg+xml</dc:format>
        <dc:type
           rdf:resource="http://purl.org/dc/dcmitype/StillImage" />
        <dc:title></dc:title>
      </cc:Work>
    </rdf:RDF>
  </metadata>
  <g
     inkscape:label="Capa 1"
     inkscape:groupmode="layer"
     id="layer1"
     transform="translate(-118.03871,-192.69166)">
    <g
       transform="matrix(0.50485576,0,0,0.50485576,-658.72797,-945.33231)"
       id="g9909">
      <path
         inkscape:connector-curvature="0"
         id="path3640"
         style="fill:#95a6a5;fill-opacity:1;fill-rule:nonzero;stroke:none"
         d="m 1555.7004,2619.1194 88.2475,57.2354 298.5661,-172.7448 -99.547,-49.7644 -287.2666,165.2738 z" />
      <g
         transform="matrix(1.25,0,0,-1.25,1319.0678,3806.4284)"
         id="g3642">
        <path
           inkscape:connector-curvature="0"
           id="path3644"
           style="fill:#e3a76f;fill-opacity:1;fill-rule:nonzero;stroke:none"
           d="m 175.8061,988.85 42.2476,-23.7291 0,186.1044 -42.2476,21.92 0,-184.2953 z" />
        <path
           inkscape:connector-curvature="0"
           id="path3646"
           style="fill:#fcbc80;fill-opacity:1;fill-rule:nonzero;stroke:none"
           d="m 218.0537,964.9706 88.5722,51.1654 0,186.1044 -88.5722,-51.1653 0,-186.1045 z" />
        <path
           inkscape:connector-curvature="0"
           id="path3648"
           style="fill:#e3a76f;fill-opacity:1;fill-rule:nonzero;stroke:none"
           d="m 284.3901,1039.049 11.4885,6.3958 0,-17.7245 -11.4885,-6.3955 0,17.7242 z m 0,8.862 0,0 11.4885,6.3958 0,17.7242 -11.4885,-6.3956 0,-17.7244 z m 0,26.5864 0,0 11.4885,6.3958 0,17.1334 -11.4885,-6.3958 0,-17.1334 z m 0,27.1772 0,0 11.4885,6.3958 0,17.1334 -11.4885,-6.3958 0,-17.1334 z m 0,25.9956 0,0 11.4885,6.3956 0,17.1334 -11.4885,-6.3955 0,-17.1335 z m 0,26.5862 0,0 11.4885,6.3958 0,17.7242 -11.4885,-6.3955 0,-17.7245 z m -18.9003,-143.9323 0,0 11.4885,6.3958 0,17.7242 -11.4885,-6.3958 0,-17.7242 z m 0,26.5865 0,0 11.4885,6.3955 0,17.7242 -11.4885,-6.3956 0,-17.7241 z m 0,26.5864 0,0 11.4885,6.3955 0,17.1335 -11.4885,-6.3959 0,-17.1331 z m 0,27.1771 0,0 11.4885,6.3956 0,17.1334 -11.4885,-6.3958 0,-17.1332 z m 0,25.9954 0,0 11.4885,6.3959 0,17.1331 -11.4885,-6.3955 0,-17.1335 z m 0,26.5865 0,0 11.4885,6.3955 0,17.7245 -11.4885,-6.3958 0,-17.7242 z m -17.7885,-143.4206 0,0 10.7472,6.3955 0,17.7242 -10.7472,-6.3955 0,-17.7242 z m 0,26.5861 0,0 10.7472,6.3958 0,17.7242 -10.7472,-6.3955 0,-17.7245 z m 0,26.5864 0,0 10.7472,6.3958 0,17.1335 -10.7472,-6.3958 0,-17.1335 z m 0,27.1772 0,0 10.7472,6.3958 0,17.1335 -10.7472,-6.3958 0,-17.1335 z m 0,25.9954 0,0 10.7472,6.3958 0,17.1335 -10.7472,-6.3956 0,-17.1337 z m 0,26.5864 0,0 10.7472,6.3958 0,17.7242 -10.7472,-6.3958 0,-17.7242 z m -19.2708,-143.9322 0,0 11.1178,6.3958 0,17.7242 -11.1178,-6.3958 0,-17.7242 z m 0,26.5864 0,0 11.1178,6.3955 0,17.7245 -11.1178,-6.3958 0,-17.7242 z m 0,26.5861 0,0 11.1178,6.3959 0,17.1334 -11.1178,-6.3955 0,-17.1338 z m 0,27.1772 0,0 11.1178,6.3958 0,17.1335 -11.1178,-6.3956 0,-17.1337 z m 0,25.9957 0,0 11.1178,6.3955 0,17.1338 -11.1178,-6.3959 0,-17.1334 z m 0,26.5864 0,0 11.1178,6.3955 0,17.7242 -11.1178,-6.3955 0,-17.7242 z" />
        <g
           id="g3650">
          <path
             inkscape:connector-curvature="0"
             id="path3652"
             style="fill:#d09260;fill-opacity:1;fill-rule:nonzero;stroke:none"
             d="m 269.3276,1042.3378 7.598,4.3324 0,14.3601 -7.598,-4.3325 0,-14.36 z" />
          <path
             inkscape:connector-curvature="0"
             id="path3654"
             style="fill:#d09260;fill-opacity:1;fill-rule:nonzero;stroke:none"
             d="m 269.3276,1122.0968 7.598,4.3324 0,13.7693 -7.598,-4.3325 0,-13.7692 z" />
          <path
             inkscape:connector-curvature="0"
             id="path3656"
             style="fill:#d09260;fill-opacity:1;fill-rule:nonzero;stroke:none"
             d="m 269.3276,1015.7513 7.598,4.3325 0,14.3603 -7.598,-4.3324 0,-14.3604 z" />
          <path
             inkscape:connector-curvature="0"
             id="path3658"
             style="fill:#d09260;fill-opacity:1;fill-rule:nonzero;stroke:none"
             d="m 269.3276,1068.9242 7.598,4.3325 0,13.7693 -7.598,-4.3325 0,-13.7693 z" />
          <path
             inkscape:connector-curvature="0"
             id="path3660"
             style="fill:#d09260;fill-opacity:1;fill-rule:nonzero;stroke:none"
             d="m 269.3276,1096.1014 7.598,4.3324 0,13.7693 -7.598,-4.3325 0,-13.7692 z" />
          <path
             inkscape:connector-curvature="0"
             id="path3662"
             style="fill:#d09260;fill-opacity:1;fill-rule:nonzero;stroke:none"
             d="m 269.3276,1148.6832 7.598,4.3325 0,14.3603 -7.598,-4.3328 0,-14.36 z" />
          <path
             inkscape:connector-curvature="0"
             id="path3664"
             style="fill:#d09260;fill-opacity:1;fill-rule:nonzero;stroke:none"
             d="m 288.1417,1133.0974 7.598,4.3325 0,13.7693 -7.598,-4.3325 0,-13.7693 z" />
          <path
             inkscape:connector-curvature="0"
             id="path3666"
             style="fill:#d09260;fill-opacity:1;fill-rule:nonzero;stroke:none"
             d="m 288.1417,1053.3382 7.598,4.3327 0,14.3601 -7.598,-4.3325 0,-14.3603 z" />
          <path
             inkscape:connector-curvature="0"
             id="path3668"
             style="fill:#d09260;fill-opacity:1;fill-rule:nonzero;stroke:none"
             d="m 288.1417,1159.6836 7.598,4.3327 0,14.3601 -7.598,-4.3325 0,-14.3603 z" />
          <path
             inkscape:connector-curvature="0"
             id="path3670"
             style="fill:#d09260;fill-opacity:1;fill-rule:nonzero;stroke:none"
             d="m 288.1417,1107.1018 7.598,4.3327 0,13.7693 -7.598,-4.3327 0,-13.7693 z" />
          <path
             inkscape:connector-curvature="0"
             id="path3672"
             style="fill:#d09260;fill-opacity:1;fill-rule:nonzero;stroke:none"
             d="m 288.1417,1079.9246 7.598,4.3325 0,13.7695 -7.598,-4.3327 0,-13.7693 z" />
          <path
             inkscape:connector-curvature="0"
             id="path3674"
             style="fill:#d09260;fill-opacity:1;fill-rule:nonzero;stroke:none"
             d="m 288.1417,1026.752 7.598,4.3325 0,14.3603 -7.598,-4.3327 0,-14.3601 z" />
          <path
             inkscape:connector-curvature="0"
             id="path3676"
             style="fill:#d09260;fill-opacity:1;fill-rule:nonzero;stroke:none"
             d="m 231.6994,1074.6116 7.9597,4.3971 0,13.705 -7.9597,-4.3971 0,-13.705 z" />
          <path
             inkscape:connector-curvature="0"
             id="path3678"
             style="fill:#d09260;fill-opacity:1;fill-rule:nonzero;stroke:none"
             d="m 231.6994,1127.1937 7.9597,4.3969 0,14.2956 -7.9597,-4.3968 0,-14.2957 z" />
          <path
             inkscape:connector-curvature="0"
             id="path3680"
             style="fill:#d09260;fill-opacity:1;fill-rule:nonzero;stroke:none"
             d="m 231.6994,1047.4345 7.9597,4.3971 0,13.7049 -7.9597,-4.3971 0,-13.7049 z" />
          <path
             inkscape:connector-curvature="0"
             id="path3682"
             style="fill:#d09260;fill-opacity:1;fill-rule:nonzero;stroke:none"
             d="m 231.6994,1100.6073 7.9597,4.3968 0,13.7053 -7.9597,-4.3971 0,-13.705 z" />
          <path
             inkscape:connector-curvature="0"
             id="path3684"
             style="fill:#d09260;fill-opacity:1;fill-rule:nonzero;stroke:none"
             d="m 231.6994,994.2619 7.9597,4.3971 0,14.2957 -7.9597,-4.3971 0,-14.2957 z" />
          <path
             inkscape:connector-curvature="0"
             id="path3686"
             style="fill:#d09260;fill-opacity:1;fill-rule:nonzero;stroke:none"
             d="m 231.6994,1020.8483 7.9597,4.3968 0,14.296 -7.9597,-4.3971 0,-14.2957 z" />
          <path
             inkscape:connector-curvature="0"
             id="path3688"
             style="fill:#d09260;fill-opacity:1;fill-rule:nonzero;stroke:none"
             d="m 251.2372,1085.6123 7.236,4.2639 0,13.8382 -7.236,-4.2639 0,-13.8382 z" />
          <path
             inkscape:connector-curvature="0"
             id="path3690"
             style="fill:#d09260;fill-opacity:1;fill-rule:nonzero;stroke:none"
             d="m 251.2372,1138.1941 7.236,4.2639 0,14.4289 -7.236,-4.2638 0,-14.429 z" />
          <path
             inkscape:connector-curvature="0"
             id="path3692"
             style="fill:#d09260;fill-opacity:1;fill-rule:nonzero;stroke:none"
             d="m 251.2372,1111.6077 7.236,4.2639 0,13.8382 -7.236,-4.2639 0,-13.8382 z" />
          <path
             inkscape:connector-curvature="0"
             id="path3694"
             style="fill:#d09260;fill-opacity:1;fill-rule:nonzero;stroke:none"
             d="m 251.2372,1005.2626 7.236,4.2636 0,14.4289 -7.236,-4.2636 0,-14.4289 z" />
          <path
             inkscape:connector-curvature="0"
             id="path3696"
             style="fill:#d09260;fill-opacity:1;fill-rule:nonzero;stroke:none"
             d="m 251.2372,1031.8487 7.236,4.2639 0,14.4289 -7.236,-4.2639 0,-14.4289 z" />
          <path
             inkscape:connector-curvature="0"
             id="path3698"
             style="fill:#d09260;fill-opacity:1;fill-rule:nonzero;stroke:none"
             d="m 251.2372,1058.4351 7.236,4.2639 0,13.8382 -7.236,-4.2639 0,-13.8382 z" />
        </g>
        <path
           inkscape:connector-curvature="0"
           id="path3700"
           style="fill:#fed5ac;fill-opacity:1;fill-rule:nonzero;stroke:none"
           d="m 264.2624,1224.311 42.3317,-22.0706 -88.6436,-51.1653 -42.3317,22.0702 88.6436,51.1657 z" />
        <path
           inkscape:connector-curvature="0"
           id="path3702"
           style="fill:#128cac;fill-opacity:1;fill-rule:nonzero;stroke:none"
           d="m 239.0479,1167.7697 29.3973,16.9656 0,42.4596 -29.3973,-16.9659 0,-42.4593 z" />
        <path
           inkscape:connector-curvature="0"
           id="path3704"
           style="fill:#53bddb;fill-opacity:1;fill-rule:nonzero;stroke:none"
           d="m 239.0479,1210.229 29.3973,16.9659 -25.2955,14.6225 -29.4449,-17.2978 25.3431,-14.2906 z" />
        <path
           inkscape:connector-curvature="0"
           id="path3706"
           style="fill:#0d687d;fill-opacity:1;fill-rule:nonzero;stroke:none"
           d="m 213.7048,1182.0603 25.3431,-14.2906 0,42.4593 -25.3431,14.2906 0,-42.4593 z" />
      </g>
      <g
         transform="matrix(1.25,0,0,-1.25,1319.0678,3806.4284)"
         id="g4762">
        <path
           inkscape:connector-curvature="0"
           id="path4764"
           style="fill:#f38c7d;fill-opacity:1;fill-rule:nonzero;stroke:none"
           d="m 298.7048,1011.1382 c 0,-1.5185 1.076,-2.1396 2.391,-1.3804 l 56.1957,32.8853 c 1.6719,0.9652 3.0234,3.3309 3.0234,5.2557 l 0,43.4806 c 0,1.5182 -1.076,2.1396 -2.391,1.3805 l -57.3582,-33.5566 c -1.0236,-0.591 -1.8609,-2.0412 -1.8609,-3.223 l 0,-44.8421 z" />
        <path
           inkscape:connector-curvature="0"
           id="path4766"
           style="fill:#eb4538;fill-opacity:1;fill-rule:nonzero;stroke:none"
           d="m 357.7569,1091.7111 c 0,1.0227 0.7246,1.4411 1.6101,0.9297 l 38.8086,-22.4062 c 1.1262,-0.6502 2.0367,-9.786 2.0367,-11.0823 l 0,-29.2856 c 0,-1.0227 -0.7246,-1.4411 -1.6104,-0.9297 l -39.5918,22.8583 c -0.6891,0.3977 -1.2532,1.3748 -1.2532,2.1707 l 0,37.7451 z" />
        <path
           inkscape:connector-curvature="0"
           id="path4768"
           style="fill:#f38c7d;fill-opacity:1;fill-rule:nonzero;stroke:none"
           d="m 337.3886,987.4485 c 0,-1.5185 1.0757,-2.1396 2.3907,-1.3804 l 57.6193,33.2665 c 1.6719,0.9652 3.0237,3.331 3.0237,5.256 l 0,43.4804 c 0,1.5182 -1.076,2.1396 -2.391,1.3804 l -58.782,-33.9378 c -1.0233,-0.591 -1.8607,-2.0412 -1.8607,-3.223 l 0,-44.8421 z" />
        <path
           inkscape:connector-curvature="0"
           id="path4770"
           style="fill:#eb4538;fill-opacity:1;fill-rule:nonzero;stroke:none"
           d="m 298.751,1056.276 c 0,1.0225 0.7245,1.4411 1.61,0.9295 l 38.8086,-22.4059 c 1.1262,-0.6503 2.0367,-9.7861 2.0367,-11.0826 l 0,-29.2856 c 0,-1.0225 -0.7245,-1.4408 -1.6104,-0.9295 l -39.5917,22.8583 c -0.6891,0.3977 -1.2532,1.3748 -1.2532,2.1708 l 0,37.745 z" />
        <path
           inkscape:connector-curvature="0"
           id="path4772"
           style="fill:#128cac;fill-opacity:1;fill-rule:nonzero;stroke:none"
           d="m 404.9804,1020.6541 -26.5359,-15.1052 c 1.8912,-1.3938 4.4251,-2.1657 4.4251,-4.5766 l 13.4261,7.7213 8.6847,7.1272 0,4.8333 z" />
        <g
           id="g4774">
          <path
             inkscape:connector-curvature="0"
             id="path4776"
             style="fill:#e3a76f;fill-opacity:1;fill-rule:nonzero;stroke:none"
             d="m 308.7564,956.215 c -0.8923,1.1001 -1.4173,2.7071 -1.4173,4.7662 0,5.7625 4.1097,12.8265 9.1465,15.7345 2.0061,1.1583 3.8588,1.4794 5.3711,1.0999 l 0.01,0.008 0.0326,-0.0199 c 0.8606,-0.2248 1.6121,-0.6712 2.2077,-1.3405 l 2.9225,-1.7742 -1.4105,-2.3235 c 0.019,-0.2639 0.0368,-0.529 0.0368,-0.8093 0,-5.7864 -4.1017,-12.8395 -9.1701,-15.766 -0.4481,-0.2586 -0.8852,-0.4618 -1.3164,-0.6393 l -1.4969,-2.4655 -2.9727,2.1265 c -0.7509,0.269 -1.3967,0.7376 -1.9211,1.3743 l -0.0258,0.0184 0.004,0.0102 z" />
          <path
             inkscape:connector-curvature="0"
             id="path4778"
             style="fill:#fcbc80;fill-opacity:1;fill-rule:nonzero;stroke:none"
             d="m 320.1491,974.2734 c 5.0522,2.9168 9.1701,0.6029 9.1701,-5.1594 0,-5.786 -4.1017,-12.8395 -9.1701,-15.7657 -5.0368,-2.908 -9.1468,-0.6134 -9.1468,5.1908 0,5.7623 4.11,12.8262 9.1468,15.7343" />
          <path
             inkscape:connector-curvature="0"
             id="path4780"
             style="fill:#d97763;fill-opacity:1;fill-rule:nonzero;stroke:none"
             d="m 315.1732,960.9469 c 0,3.1408 2.2314,6.982 4.9915,8.5756 2.7527,1.5894 4.9899,0.328 4.9899,-2.8128 0,-3.1671 -2.2372,-7.0007 -4.9899,-8.5901 -2.7601,-1.5936 -4.9915,-0.3302 -4.9915,2.8273" />
          <path
             inkscape:connector-curvature="0"
             id="path4782"
             style="fill:#f69079;fill-opacity:1;fill-rule:nonzero;stroke:none"
             d="m 315.1732,960.9469 c 0,-0.8363 0.1602,-1.5353 0.4419,-2.0878 0.5519,0.0783 1.1489,0.2858 1.7756,0.6475 2.7525,1.5894 4.9899,5.4229 4.9899,8.5901 0,0.8294 -0.1596,1.523 -0.4397,2.0724 -0.5527,-0.078 -1.1497,-0.2849 -1.7762,-0.6466 -2.7601,-1.5933 -4.9915,-5.4348 -4.9915,-8.5756" />
        </g>
        <path
           inkscape:connector-curvature="0"
           id="path4784"
           style="fill:#128cac;fill-opacity:1;fill-rule:nonzero;stroke:none"
           d="m 310.0725,984.2822 5.6288,23.5265 0,5.356 18.4788,10.4397 0,-43.9996 5.1701,3.2065 c 0,0 1.1372,7.3741 2.4035,9.3359 l 2.715,-1.8515 -1.2864,-5.0783 23.2212,13.4206 c -1.4015,-3.2199 -2.2295,-6.1021 -2.2295,-8.513 l -34.2414,-19.7657 c 0,6.63 -4.9252,9.6341 -10.9865,6.1345 -4.2704,-2.4653 -7.9517,-7.4427 -9.7704,-12.5629 -0.6591,-1.8323 -1.0792,-3.6403 -1.1685,-5.4227 -0.0133,-0.2871 0.4278,-0.8359 0.4278,-0.8359 l -8.4127,-5.1355 0,20.7447 10.0502,11.0007 z" />
        <path
           inkscape:connector-curvature="0"
           id="path4786"
           style="fill:#0d687d;fill-opacity:1;fill-rule:nonzero;stroke:none"
           d="m 269.4753,1008.2934 5.9088,23.5264 0,5.3561 17.8146,10.4397 40.7433,-24.0112 -18.2407,-10.4397 0,-5.356 -5.6288,-23.5265 -10.0502,-11.0007 0,-20.7447 -40.8773,24.0111 0,20.7448 10.3303,11.0007 z" />
        <path
           inkscape:connector-curvature="0"
           id="path4788"
           style="fill:#8bd6f2;fill-opacity:1;fill-rule:nonzero;stroke:none"
           d="m 274.4745,1037.1759 40.7146,-24.0112 18.2695,10.4397 -40.7145,24.0112 -18.2696,-10.4397 z" />
        <path
           inkscape:connector-curvature="0"
           id="path4790"
           style="fill:#0d687d;fill-opacity:1;fill-rule:nonzero;stroke:none"
           d="m 274.824,1031.6228 0,5.5531 40.8773,-24.0112 0,-5.553 -40.8773,24.0111 z" />
        <path
           inkscape:connector-curvature="0"
           id="path4792"
           style="fill:#53bddb;fill-opacity:1;fill-rule:nonzero;stroke:none"
           d="m 274.4745,1031.6228 -5.8796,-23.3294 40.7143,-24.0112 5.8799,23.3295 -40.7146,24.0111 z" />
        <path
           inkscape:connector-curvature="0"
           id="path4794"
           style="fill:#8bd6f2;fill-opacity:1;fill-rule:nonzero;stroke:none"
           d="m 268.5949,1008.2934 -10.3017,-11.0007 40.7146,-24.0112 10.3014,11.0007 -40.7143,24.0112 z" />
        <path
           inkscape:connector-curvature="0"
           id="path4796"
           style="fill:#0d687d;fill-opacity:1;fill-rule:nonzero;stroke:none"
           d="m 352.4695,993.6139 37.1936,21.4483 c 3.4784,2.0084 6.7374,5.2484 9.3487,9.0335 l 5.9582,-3.4416 -61.8327,-35.4361 1.1914,5.1584 1.0054,-0.5805 7.1354,3.818 z m -18.2894,3.0362 0,0 0,-17.0453 5.218,3.2065 c 0,0 1.2245,5.2861 2.3556,9.3359 l -7.5736,4.5029 z" />
        <path
           inkscape:connector-curvature="0"
           id="path4798"
           style="fill:#53bddb;fill-opacity:1;fill-rule:nonzero;stroke:none"
           d="m 314.1711,986.9783 4.5553,16.9942 10.4139,5.9117 0,-14.4655 -14.9692,-8.4404 z" />
        <path
           inkscape:connector-curvature="0"
           id="path4800"
           style="fill:#8bd6f2;fill-opacity:1;fill-rule:nonzero;stroke:none"
           d="m 318.4438,1003.9725 9.0167,5.0032 0,-12.5133 -12.5648,-7.1901 3.5481,14.7002 z" />
        <path
           inkscape:connector-curvature="0"
           id="path4802"
           style="fill:#8bd6f2;fill-opacity:1;fill-rule:nonzero;stroke:none"
           d="m 315.1891,1007.6117 -5.3805,-21.3486 -39.126,23.0743 5.3807,21.3486 39.1258,-23.0743 z" />
        <g
           id="g4804">
          <path
             inkscape:connector-curvature="0"
             id="path4806"
             style="fill:#e3a76f;fill-opacity:1;fill-rule:nonzero;stroke:none"
             d="m 362.289,990.8983 c 0,5.7626 4.1096,12.8265 9.1465,15.7346 2.7148,1.5672 5.1526,1.6123 6.8338,0.4354 l 0.013,0.01 4.2656,-2.8208 -1.9437,-2.8114 c -0.015,-5.7804 -4.1097,-12.8126 -9.1687,-15.7334 -0.8342,-0.4819 -1.639,-0.8076 -2.408,-1.0114 l -1.0542,-1.5248 -2.5597,1.6617 c -0.4595,0.1956 -0.8767,0.4671 -1.2481,0.8101 l -0.0643,0.042 0.004,0.0156 c -1.135,1.0871 -1.8161,2.8488 -1.8161,5.1973" />
          <path
             inkscape:connector-curvature="0"
             id="path4808"
             style="fill:#fcbc80;fill-opacity:1;fill-rule:nonzero;stroke:none"
             d="m 365.9868,988.5472 c 0,-5.8064 4.0963,-8.1107 9.1502,-5.1927 5.0547,2.9182 9.1664,9.9793 9.1664,15.7677 0,5.7645 -4.1117,8.0835 -9.1664,5.1653 -5.0539,-2.9177 -9.1502,-9.976 -9.1502,-15.7403" />
          <path
             inkscape:connector-curvature="0"
             id="path4810"
             style="fill:#d97763;fill-opacity:1;fill-rule:nonzero;stroke:none"
             d="m 375.137,988.1186 c 2.7612,1.5943 5.0085,5.4346 5.0085,8.6029 0,3.1422 -2.2473,4.3985 -5.0085,2.8043 -2.7536,-1.5896 -4.9921,-5.4363 -4.9921,-8.5782 0,-3.1586 2.2385,-4.4189 4.9921,-2.829" />
          <path
             inkscape:connector-curvature="0"
             id="path4812"
             style="fill:#f69079;fill-opacity:1;fill-rule:nonzero;stroke:none"
             d="m 375.137,999.5258 c 0.6327,0.3654 1.2362,0.574 1.7941,0.6517 0.28,-0.5482 0.4393,-1.2407 0.4393,-2.0684 0,-3.168 -2.2473,-7.0087 -5.0085,-8.6032 -0.6256,-0.3608 -1.222,-0.568 -1.7745,-0.646 -0.282,0.5525 -0.4425,1.2512 -0.4425,2.088 0,3.1416 2.2385,6.9883 4.9921,8.5779" />
        </g>
        <path
           inkscape:connector-curvature="0"
           id="path4814"
           style="fill:#e24b3f;fill-opacity:1;fill-rule:nonzero;stroke:none"
           d="m 299.6813,1056.0716 c -1.3153,0.7591 -1.3153,2.0013 -3e-4,2.7604 l 56.6745,33.2668 c 1.6719,0.9652 2.5855,1.3729 4.2525,0.4105 l 38.5577,-22.1604 c 1.315,-0.7591 1.315,-2.0016 0,-2.7607 l -57.8735,-33.9378 c -1.0233,-0.5907 -1.0256,-1.0389 -2.0492,-0.4481 l -39.5617,22.8693 z" />
        <g
           id="g4816">
          <path
             inkscape:connector-curvature="0"
             id="path4818"
             style="fill:#ffffff;fill-opacity:1;fill-rule:nonzero;stroke:none"
             d="m 382.9272,1044.7534 c -0.0159,-0.8367 -0.4428,-1.7438 -0.955,-2.0247 -0.5111,-0.2804 -0.9119,0.1723 -0.896,1.0094 0.0155,0.8376 0.4422,1.7439 0.9532,2.0242 0.5123,0.2809 0.9137,-0.1709 0.8978,-1.0089" />
          <path
             inkscape:connector-curvature="0"
             id="path4820"
             style="fill:#ffffff;fill-opacity:1;fill-rule:nonzero;stroke:none"
             d="m 381.2777,1040.9258 c -1.2691,-3.0631 -2.1155,-7.7717 -2.2141,-12.9829 -0.0153,-0.7988 -0.4221,-1.6617 -0.9097,-1.929 l -0.003,0 -0.004,0 c -0.487,-0.267 -0.8705,0.1622 -0.8555,0.9612 0.0306,1.6039 -0.0686,5.2433 -1.6478,4.377 -1.578,-0.8657 -1.8195,-4.6919 -1.8498,-6.2957 -0.0151,-0.7991 -0.423,-1.6625 -0.9103,-1.9296 -0.0172,-0.01 -0.0357,-0.017 -0.0535,-0.025 -0.0179,-0.012 -0.0366,-0.025 -0.0539,-0.034 -0.487,-0.2673 -0.8705,0.1621 -0.8552,0.9609 0.0303,1.6041 -0.0692,5.2433 -1.6481,4.3773 -1.5789,-0.8663 -1.8204,-4.6925 -1.8507,-6.2966 -0.0153,-0.7988 -0.4224,-1.6617 -0.9096,-1.929 -0.4876,-0.2676 -0.8694,0.1624 -0.8544,0.9615 0.1148,6.0653 1.9712,9.2228 3.6694,10.1543 0.9803,0.5377 1.9857,0.3727 2.6383,-1.025 0.7208,2.1512 1.752,3.4333 2.7326,3.9713 0.7684,0.4215 1.5514,0.4105 2.1687,-0.2846 0.506,3.3959 1.3207,6.3814 2.3602,8.6905 -1.7124,2.1424 -4.2013,2.7071 -7.005,1.1693 -5.3578,-2.9393 -9.8351,-12.4336 -10.0012,-21.2055 -0.1661,-8.7729 4.0419,-13.5019 9.3997,-10.563 5.3583,2.9393 9.8353,12.4331 10.0015,21.2057 0.0592,3.1272 -0.438,5.7402 -1.3448,7.6748" />
        </g>
      </g>
    </g>
  </g>
</svg>
