<?xml version="1.0" encoding="UTF-8" standalone="no"?>
<!-- Created with Inkscape (http://www.inkscape.org/) -->

<svg
   xmlns:dc="http://purl.org/dc/elements/1.1/"
   xmlns:cc="http://creativecommons.org/ns#"
   xmlns:rdf="http://www.w3.org/1999/02/22-rdf-syntax-ns#"
   xmlns:svg="http://www.w3.org/2000/svg"
   xmlns="http://www.w3.org/2000/svg"
   xmlns:sodipodi="http://sodipodi.sourceforge.net/DTD/sodipodi-0.dtd"
   xmlns:inkscape="http://www.inkscape.org/namespaces/inkscape"
   width="2.3143079mm"
   height="2.0632536mm"
   viewBox="0 0 8.2003037 7.3107412"
   id="svg4947"
   version="1.1"
   inkscape:version="0.91 r13725"
   sodipodi:docname="marketing.svg">
  <defs
     id="defs4949" />
  <sodipodi:namedview
     id="base"
     pagecolor="#ffffff"
     bordercolor="#666666"
     borderopacity="1.0"
     inkscape:pageopacity="0.0"
     inkscape:pageshadow="2"
     inkscape:zoom="15.839192"
     inkscape:cx="-0.25006365"
     inkscape:cy="8.7063215"
     inkscape:document-units="px"
     inkscape:current-layer="layer1"
     showgrid="false"
     fit-margin-top="0"
     fit-margin-left="0"
     fit-margin-right="0"
     fit-margin-bottom="0"
     inkscape:window-width="1366"
     inkscape:window-height="705"
     inkscape:window-x="-8"
     inkscape:window-y="-8"
     inkscape:window-maximized="1" />
  <metadata
     id="metadata4952">
    <rdf:RDF>
      <cc:Work
         rdf:about="">
        <dc:format>image/svg+xml</dc:format>
        <dc:type
           rdf:resource="http://purl.org/dc/dcmitype/StillImage" />
        <dc:title></dc:title>
      </cc:Work>
    </rdf:RDF>
  </metadata>
  <g
     inkscape:label="Capa 1"
     inkscape:groupmode="layer"
     id="layer1"
     transform="translate(-45.127492,-105.42759)">
    <g
       id="g4489"
       transform="matrix(0.01244698,0,0,0.01244698,48.955668,107.51294)">
      <path
         d="m 188.53059,291.18507 150.77975,-88.26725 c 16.003,-9.3685 15.91513,-32.52975 -0.158,-41.77662 L 118.13859,33.992705 -80.651657,150.36482 164.28584,291.27657 c 7.5125,4.32175 16.76513,4.28663 24.24475,-0.0915"
         style="fill:#4d4d4e;fill-opacity:1;fill-rule:nonzero;stroke:none"
         id="path5536"
         inkscape:connector-curvature="0" />
      <path
         d="m 300.70209,273.24745 48.30138,-27.30863 -51.55663,-29.65987 -48.30125,27.30862 51.5565,29.65988 z"
         style="fill:#975579;fill-opacity:1;fill-rule:nonzero;stroke:none"
         id="path5538"
         inkscape:connector-curvature="0" />
      <path
         d="M 91.895723,36.867075 325.34972,171.65132 c 3.33287,1.92438 3.33287,5.07288 0,6.99725 l -149.71288,86.4365 c -3.67937,2.12463 -9.70087,2.12463 -13.38062,0 L -71.271777,130.2577 c -3.1815,-1.83725 -3.1815,-4.843 0,-6.6795 L 78.915843,36.867085 c 3.56925,-2.06075 9.41037,-2.06075 12.97988,0"
         style="fill:#f495be;fill-opacity:1;fill-rule:nonzero;stroke:none"
         id="path5540"
         inkscape:connector-curvature="0" />
      <path
         d="m 294.34647,162.07732 c -0.94925,0.54813 -0.625,1.25825 0.32425,1.80638 l 10.35775,5.98 c 0.94962,0.54812 2.1795,0.73525 3.12875,0.18712 l 7.56787,-4.36925 -13.81012,-7.9735 -7.5685,4.36925 z M 102.52284,42.588455 l 13.81038,7.97387 -7.56813,4.36925 c -0.94925,0.54813 -2.1785,0.36113 -3.12875,-0.18712 l -10.357747,-5.98 c -0.9535,-0.55025 -1.27775,-1.25575 -0.32425,-1.80675 l 7.568497,-4.36925 z"
         style="fill:#8c4b6d;fill-opacity:1;fill-rule:nonzero;stroke:none"
         id="path5542"
         inkscape:connector-curvature="0" />
      <path
         d="m 320.24134,162.07732 c 0.9535,-0.55062 0.82487,-1.3685 -0.12863,-1.91912 l -8.63187,-4.98325 c -0.95312,-0.551 -2.37012,-0.62538 -3.32362,-0.0744 l -10.35775,5.98 c -0.95388,0.55063 -1.22563,1.60013 -0.27213,2.15038 l 8.63187,4.98337 c 0.9535,0.55063 2.77088,0.394 3.72438,-0.157 l 10.35775,-5.98 z m -209.75,-109.138865 c -0.9535,0.55025 -2.77125,0.70725 -3.72437,0.157 l -8.631877,-4.98338 c -0.95312,-0.55062 -0.68137,-1.60012 0.27225,-2.15037 l 10.357747,-5.98075 c 0.9535,-0.55025 2.3705,-0.4755 3.324,0.0744 l 8.63175,4.984 c 0.95325,0.55038 1.08188,1.3685 0.12838,1.91838 l -10.35788,5.98072 z"
         style="fill:#e985ae;fill-opacity:1;fill-rule:nonzero;stroke:none"
         id="path5544"
         inkscape:connector-curvature="0" />
      <path
         d="m 87.291593,-162.28693 248.569747,141.552635 0,189.581115 -248.569747,-142.029615 0,-189.104125 z"
         style="fill:#f495be;fill-opacity:1;fill-rule:nonzero;stroke:none"
         id="path5546"
         inkscape:connector-curvature="0" />
      <path
         d="m 87.291593,-162.28693 12.25313,-5.25187 247.342997,142.028135 -10.66963,4.77637 L 87.291593,-162.28693 Z"
         style="fill:#e985ae;fill-opacity:1;fill-rule:nonzero;stroke:none"
         id="path5548"
         inkscape:connector-curvature="0" />
      <path
         d="m 324.97447,179.02132 -149.1045,86.21438 c -3.81325,2.20187 -9.41025,1.92687 -13.224,-0.275 L -69.572407,130.71195 c -1.85912,-1.07287 -2.84812,-1.85637 -3.00362,-3.2885 l -0.59313,0 0,15.51825 0,0.68237 c 0,0 -0.208,2.20463 3.51775,3.76476 L 162.64922,281.44532 c 3.814,2.20175 9.57612,2.47638 13.38975,0.2745 l 148.90825,-86.21425 c 1.94025,-1.12 2.31837,-2.57462 2.31837,-4.02099 l 0,-16.16775 c 0,1.3405 -0.4925,2.666 -2.29112,3.7045"
         style="fill:#aa5b7f;fill-opacity:1;fill-rule:nonzero;stroke:none"
         id="path5550"
         inkscape:connector-curvature="0" />
      <path
         d="m 110.93072,-130.81318 201.29137,115.296755 0,153.594875 -201.29137,-115.579125 0,-153.312505 z"
         style="fill:#e985ae;fill-opacity:1;fill-rule:nonzero;stroke:none"
         id="path5552"
         inkscape:connector-curvature="0" />
      <path
         d="m 345.89022,-25.510675 -10.02863,4.77638 0,189.581115 10.02863,-5.32062 0,-189.036875 z"
         style="fill:#aa5b7f;fill-opacity:1;fill-rule:nonzero;stroke:none"
         id="path5554"
         inkscape:connector-curvature="0" />
      <path
         d="m 119.52684,18.512455 192.69525,110.978865 0,-145.008115 -192.69525,-110.707505 0,144.736755 z"
         style="fill:#fee6db;fill-opacity:1;fill-rule:nonzero;stroke:none"
         id="path5556"
         inkscape:connector-curvature="0" />
      <path
         d="m 130.27184,-69.510795 -10.74538,4.77637 0,83.60963 10.74538,-5.32125 0,-83.06475 z"
         style="fill:#8c4b6d;fill-opacity:1;fill-rule:nonzero;stroke:none"
         id="path5558"
         inkscape:connector-curvature="0" />
      <path
         d="m 130.30272,13.554205 182.1975,103.440115 0,12.49725 -192.73288,-110.616365 10.53538,-5.321 z"
         style="fill:#aa5b7f;fill-opacity:1;fill-rule:nonzero;stroke:none"
         id="path5560"
         inkscape:connector-curvature="0" />
      <path
         d="m 177.80859,203.44607 11.22088,6.47901 11.96075,-6.90601 -11.22163,-6.47812 -11.96,6.90512 z m -20.716,-11.96 17.263,9.96663 11.96112,-6.90525 -17.26375,-9.96738 -11.96037,6.906 z m -13.81075,-7.97387 11.221,6.47825 11.96113,-6.90488 -11.22201,-6.479 -11.96012,6.90563 z m -13.81075,-7.9735 11.221,6.47825 11.96075,-6.90525 -11.22162,-6.479 -11.96013,6.906 z m -13.81075,-7.9735 11.22163,6.4785 11.96012,-6.9055 -11.221,-6.47825 -11.96075,6.90525 z m -13.81075,-7.97387 11.22125,6.47849 11.9605,-6.9055 -11.221,-6.47825 -11.96075,6.90526 z m -13.810367,-7.97388 11.22087,6.47888 11.960497,-6.90588 -11.220997,-6.47787 -11.96037,6.90487 z m -13.81075,-7.9735 11.221,6.47888 11.96037,-6.90588 -11.22125,-6.47825 -11.96012,6.90525 z m -13.81075,-7.97387 11.221,6.479 11.96075,-6.90526 -11.22163,-6.47862 -11.96012,6.90488 z m -13.81075,-7.97351 11.221,6.47863 11.96075,-6.90488 -11.221,-6.479 -11.96075,6.90525 z m -13.81113,-7.97312 11.222,6.47825 11.96013,-6.90525 -11.221,-6.47863 -11.96113,6.90563 z m -13.81075,-7.97387 11.22163,6.47824 11.96012,-6.90487 -11.221,-6.47888 -11.96075,6.9055 z m 168.728747,79.00125 17.26338,9.96662 10.96362,-6.33012 -17.26362,-9.96663 -10.96338,6.33013 z m -13.81075,-7.97388 11.221,6.47825 10.96325,-6.3295 -11.22087,-6.4785 -10.96338,6.32975 z m -13.81075,-7.9735 11.221,6.4785 10.964,-6.32975 -11.22162,-6.47888 -10.96338,6.33013 z m -14.67387,-8.47175 12.08412,6.97675 10.964,-6.32975 -12.08475,-6.97713 -10.96337,6.33013 z m -13.81075,-7.97387 11.221,6.47825 10.964,-6.32976 -11.221,-6.47824 -10.964,6.32975 z m -13.81075,-7.9735 11.22162,6.47825 10.96338,-6.33013 -11.22125,-6.47825 -10.96375,6.33013 z m -13.81113,-7.97375 11.22163,6.47887 10.96375,-6.33012 -11.22125,-6.47863 -10.96413,6.32988 z m -13.809997,-7.97363 11.220877,6.47863 10.96337,-6.32975 -11.22087,-6.47888 -10.963377,6.33 z m -13.81075,-7.97375 11.22088,6.47888 10.96412,-6.33013 -11.22162,-6.4785 -10.96338,6.32975 z m -13.81112,-7.97387 11.22125,6.47887 10.96412,-6.32975 -11.22162,-6.47888 -10.96375,6.32976 z m -13.81075,-7.97351 11.22125,6.47888 10.96412,-6.33012 -11.221,-6.4785 -10.96437,6.32975 z m 144.159117,68.26888 11.22125,6.47887 11.9605,-6.90587 -11.221,-6.47825 -11.96075,6.90525 z m -13.81112,-7.97388 11.22162,6.479 11.9605,-6.906 -11.221,-6.47825 -11.96112,6.90525 z m -13.81,-7.9735 11.22087,6.47863 11.9605,-6.90563 -11.22137,-6.47824 -11.96,6.90525 z m -13.81075,-7.97387 11.22087,6.479 11.96013,-6.90525 -11.221,-6.47863 -11.96,6.90488 z m -13.81075,-7.9735 11.22087,6.47862 11.96088,-6.90487 -11.22175,-6.47888 -11.96,6.90513 z m -13.81113,-7.97313 11.22088,6.47825 11.96125,-6.90525 -11.22175,-6.47887 -11.96038,6.90587 z m -13.81075,-7.9735 11.22163,6.47825 11.96012,-6.90525 -11.221,-6.47887 -11.96075,6.90587 z m -13.810747,-7.97387 11.221627,6.47825 11.96012,-6.90525 -11.221,-6.47888 -11.960747,6.90588 z m -13.81,-7.9735 11.22088,6.47787 11.960117,-6.90487 -11.220997,-6.47888 -11.96,6.90588 z m -13.81112,-7.97388 11.22125,6.479 11.96012,-6.906 -11.221,-6.47812 -11.96037,6.90512 z m -14.67388,-8.471615 11.22088,6.478115 11.9605,-6.905115 -11.221,-6.479 -11.96038,6.906 z m 164.278627,77.582365 11.22162,6.47863 10.96338,-6.32975 -11.22088,-6.479 -10.96412,6.33012 z m -13.81113,-7.97312 11.222,6.47825 10.96338,-6.32975 -11.22088,-6.47825 -10.9645,6.32975 z m -13.81,-7.9735 11.221,6.47825 10.96363,-6.33013 -11.22088,-6.47787 -10.96375,6.32975 z m -13.81075,-7.97388 11.221,6.47825 10.964,-6.33012 -11.22162,-6.47788 -10.96338,6.32975 z m -13.81075,-7.9735 11.221,6.47825 10.964,-6.33012 -11.22162,-6.47825 -10.96338,6.33012 z m -14.67387,-8.47237 12.08412,6.9775 10.964,-6.32975 -12.08475,-6.97713 -10.96337,6.32938 z m -13.81113,-7.97312 11.22138,6.47824 10.964,-6.33012 -11.221,-6.47788 -10.96438,6.32976 z m -13.81037,-7.97351 11.22125,6.47825 10.96375,-6.33012 -11.221,-6.47825 -10.964,6.33012 z m -13.81113,-7.97387 11.222,6.47825 10.963,-6.33013 -11.22087,-6.47825 -10.96413,6.33013 z m -13.809997,-7.9735 11.220877,6.47863 10.96337,-6.32976 -11.22087,-6.478995 -10.963377,6.330125 z m -13.81075,-7.973875 11.22088,6.479005 10.964117,-6.330125 -11.221617,-6.47863 -10.96338,6.32975 z m -13.81075,-7.97387 11.22088,6.479 10.96412,-6.33013 -11.22162,-6.47862 -10.96338,6.32975 z M 1.7220932,101.7822 l 13.8107498,7.97387 11.9605,-6.90475 -13.81112,-7.973865 -11.9601298,6.904745 z m 15.9473798,-9.206495 28.48462,16.445115 10.96338,-6.32975 -28.48463,-16.445495 -10.96337,6.33013 z m 12.95712,-7.481 20.716,11.96012 11.96013,-6.90525 -20.716,-11.96012 -11.96013,6.90525 z m 14.95038,-8.63188 18.12675,10.4655 10.96337,-6.33012 -18.1265,-10.4655 -10.96362,6.33012 z m 13.95387,-8.056 10.35813,5.98 10.96375,-6.32975 -10.3585,-5.98037 -10.96338,6.33012 z m 13.81075,7.9735 10.35813,5.98038 10.96337,-6.33013 -10.35787,-5.98 -10.96363,6.32975 z m 13.81113,7.97375 10.35775,5.98013 10.963367,-6.33012 -10.357867,-5.97975 -10.96325,6.32975 z m 13.809997,7.97363 10.3585,5.98037 10.96337,-6.33012 -10.35787,-5.98013 -10.964,6.32988 z m 13.81075,7.973115 10.35812,5.98076 10.96413,-6.329755 -10.35825,-5.9805 -10.964,6.329495 z m 12.94762,7.47563 11.22088,6.47863 10.9645,-6.32976 -11.22175,-6.479 -10.96363,6.33013 z m 13.81113,7.97387 10.35775,5.98 10.96375,-6.33012 -10.35825,-5.98 -10.96325,6.33012 z m 13.81075,7.9735 10.35812,5.98 10.963,-6.33012 -10.35787,-5.97963 -10.96325,6.32975 z m 13.81,7.97351 10.35812,5.98037 10.964,-6.33013 -10.35775,-5.98 -10.96437,6.32976 z m 13.81075,7.97387 10.35812,5.98 10.964,-6.32975 -10.35812,-5.98038 -10.964,6.33013 z m 12.94787,7.475 10.35788,5.98 10.964,-6.32975 -10.3585,-5.98038 -10.96338,6.33013 z m 13.81075,7.97375 10.35825,5.97975 10.96325,-6.32975 -10.35812,-5.98013 -10.96338,6.33013 z m 13.81075,7.9735 10.35825,5.98013 10.96325,-6.32975 -10.35775,-5.98013 -10.96375,6.32975 z M 74.481473,59.774955 l 10.35775,5.98 7.97387,-4.60313 -10.35775,-5.97999 -7.97387,4.60312 z m 13.81075,7.9735 9.495,5.48213 7.973497,-4.60375 -9.494627,-5.48226 -7.97387,4.60388 z m 12.947247,7.475 9.49462,5.48213 7.97388,-4.60313 -9.49463,-5.48212 -7.97387,4.60312 z m 12.08475,6.97713 10.35787,5.98075 7.9735,-4.60388 -10.35787,-5.98 -7.9735,4.60313 z m 12.94687,7.47562 9.495,5.48188 7.9735,-4.60388 -9.495,-5.48187 -7.9735,4.60387 z m 12.08488,6.97675 10.35775,5.979995 7.97387,-4.603115 -10.35812,-5.98075 -7.9735,4.60387 z m 12.94762,7.475625 9.495,5.48125 7.97313,-4.60313 -9.49438,-5.481865 -7.97375,4.603745 z m 12.94725,7.475 9.49463,5.48187 7.97387,-4.6035 -9.49475,-5.48212 -7.97375,4.60375 z m 12.08475,6.97675 9.49463,5.48225 7.97387,-4.60388 -9.495,-5.48212 -7.9735,4.60375 z m 12.94688,7.475 9.495,5.48225 7.97387,-4.6035 -9.495,-5.48188 -7.97387,4.60313 z m 12.08487,6.97712 9.495,5.48188 7.9735,-4.60313 -9.49475,-5.48225 -7.97375,4.6035 z m 12.94713,7.47525 9.49475,5.48225 7.97375,-4.60375 -9.495,-5.48225 -7.9735,4.60375 z m 12.0845,6.97688 10.35812,5.98037 7.9735,-4.6035 -10.35775,-5.98037 -7.97387,4.6035 z m 12.948,7.47525 9.495,5.48187 7.9735,-4.60312 -9.495,-5.48188 -7.9735,4.60313 z m 12.084,6.97675 10.35787,5.98075 7.97388,-4.60375 -10.35788,-5.98013 -7.97387,4.60313 z m -59.81163,49.48337 10.35813,5.98 11.96,-6.90512 -10.35775,-5.98075 -11.96038,6.90587 z m 15.94725,-9.20687 10.35825,5.98 10.96325,-6.33013 -10.35775,-5.98 -10.96375,6.33013 z m -0.8535,-15.45488 24.1685,13.95388 11.9605,-6.90513 -24.169,-13.95425 -11.96,6.9055 z m 24.44525,-3.14962 14.67388,8.47162 10.96375,-6.32975 -14.67425,-8.472 -10.96338,6.33013 z m 5.322,-13.04013 23.30575,13.45575 10.96413,-6.33012 -23.30575,-13.45538 -10.96413,6.32975 z m 27.89825,-1.15612 10.35813,5.98 7.9735,-4.60313 -10.35775,-5.98075 -7.97388,4.60388 z m -59.812,49.48262 11.22163,6.4785 11.96,-6.90475 -11.22088,-6.479 -11.96075,6.90525 z m 15.94725,-9.20725 11.22175,6.47888 10.96325,-6.32975 -11.22087,-6.479 -10.96413,6.32987 z m 12.95788,-7.48075 11.221,6.47863 11.96012,-6.9055 -11.221,-6.47825 -11.96012,6.90512 z m 14.94962,-8.63175 11.222,6.4785 10.963,-6.32975 -11.221,-6.47825 -10.964,6.3295 z m 13.95463,-8.05612 11.22087,6.479 10.96338,-6.33013 -11.22088,-6.47862 -10.96337,6.32975 z m 22.92375,-13.235 11.22125,6.47825 -7.9735,4.60387 -11.22163,-6.479 7.97388,-4.60312 z"
         style="fill:#aa5b7f;fill-opacity:1;fill-rule:nonzero;stroke:none"
         id="path5562"
         inkscape:connector-curvature="0" />
      <path
         d="m 100.99747,209.91833 c -0.47701,0.27562 -1.227377,0.26224 -1.703627,-0.0131 l -74.233,-42.85812 c -0.47662,-0.27451 -0.49887,-0.70825 -0.0228,-0.98363 l 37.11688,-21.4285 c 0.47625,-0.27563 1.30037,-0.30537 1.77737,-0.0297 l 74.232247,42.85812 c 0.477,0.27525 0.4255,0.75113 -0.0514,1.0265 l -37.11575,21.42851 z"
         style="fill:#e985ae;fill-opacity:1;fill-rule:nonzero;stroke:none"
         id="path5564"
         inkscape:connector-curvature="0" />
      <path
         d="m 60.428723,191.4797 -6.04213,3.488 c -0.47725,0.27562 -0.0634,0.48287 0.41325,0.75862 l 35.3895,20.43175 c 0.47687,0.27538 0.8365,0.51375 1.31313,0.23913 l 6.04275,-3.48838 c 0.47625,-0.27525 0.0978,-0.50312 -0.37913,-0.77875 l -35.3895,-20.4325 c -0.47662,-0.275 -0.871,-0.49362 -1.34787,-0.21787 z m -38.35775,-22.70587 35.3895,20.43212 c 0.47687,0.27525 0.85499,0.5035 0.37812,0.77875 l -6.04175,3.48838 c -0.47662,0.27462 -0.83625,0.0361 -1.31313,-0.23913 l -35.38987,-20.43213 c -0.47688,-0.27537 -0.89012,-0.48299 -0.41313,-0.75825 l 6.042,-3.48837 c 0.47625,-0.27538 0.87175,-0.0568 1.34826,0.21862"
         style="fill:#fee6db;fill-opacity:1;fill-rule:nonzero;stroke:none"
         id="path5566"
         inkscape:connector-curvature="0" />
      <path
         d="m 301.47709,208.99807 -73.783,42.57 0,-16.616 73.783,-42.46225 0,16.50825 z"
         style="fill:#e985ae;fill-opacity:1;fill-rule:nonzero;stroke:none"
         id="path5568"
         inkscape:connector-curvature="0" />
      <path
         d="m 292.16484,214.36732 -55.15825,32.21638 0,-11.98488 55.15825,-31.816 0,11.5845 z"
         style="fill:#f495be;fill-opacity:1;fill-rule:nonzero;stroke:none"
         id="path5570"
         inkscape:connector-curvature="0" />
      <path
         d="m 292.16484,214.36732 -55.15825,32.21638 0,-6.32163 55.15825,-31.81712 0,5.92237 z"
         style="fill:#443560;fill-opacity:1;fill-rule:nonzero;stroke:none"
         id="path5572"
         inkscape:connector-curvature="0" />
      <path
         d="m 238.27934,238.01032 44.57263,-25.19675 56.85312,31.61475 -44.57337,25.19688 -56.85238,-31.61488 z"
         style="fill:#fee6db;fill-opacity:1;fill-rule:nonzero;stroke:none"
         id="path5574"
         inkscape:connector-curvature="0" />
      <path
         d="m 303.82097,251.41782 -35.69563,-20.60925 6.16637,-3.55962 35.69563,20.60863 -6.16637,3.56025 z"
         style="fill:#f6917a;fill-opacity:1;fill-rule:nonzero;stroke:none"
         id="path5576"
         inkscape:connector-curvature="0" />
      <path
         d="m 324.93059,252.82457 -56.95975,-31.59887 7.61813,-4.2225 56.80587,31.51125 -7.46425,4.31012 z"
         style="fill:#443560;fill-opacity:1;fill-rule:nonzero;stroke:none"
         id="path5578"
         inkscape:connector-curvature="0" />
      <path
         d="m 296.17909,261.99607 -25.01462,-14.4425 -0.97375,0.56263 25.01462,14.44187 0.97375,-0.56199 z m 3.07137,-0.47475 -26.13937,-15.09175 -0.97375,0.562 26.13938,15.09163 0.97374,-0.56188 z m 1.14763,-1.96062 -25.01462,-14.44287 -0.97375,0.56199 25.01474,14.44288 0.97363,-0.562 z m -2.54938,-3.72113 -20.51862,-11.84637 -0.97363,0.56275 20.51813,11.84563 0.97412,-0.56201 z m 6.59438,2.68338 -26.13887,-15.09163 1.29824,-0.74987 26.13963,15.09175 -1.299,0.74975 z"
         style="fill:#f6917a;fill-opacity:1;fill-rule:nonzero;stroke:none"
         id="path5580"
         inkscape:connector-curvature="0" />
      <path
         d="m 303.75722,249.50732 -12.08588,-6.9775 0.97363,-0.56262 12.08587,6.97812 -0.97362,0.562 z"
         style="fill:#443560;fill-opacity:1;fill-rule:nonzero;stroke:none"
         id="path5582"
         inkscape:connector-curvature="0" />
      <path
         d="m 260.05797,238.0632 c -1.00213,0.57862 -2.43575,0.54812 -3.43713,-0.0305 l -6.5005,-3.75313 c -1.00237,-0.57787 -1.1835,-1.47962 -0.18075,-2.05824 l 4.837,-2.79326 c 1.00213,-0.57862 2.7805,-0.59812 3.78175,-0.0205 l 6.50063,3.75338 c 1.00125,0.57825 0.83862,1.53038 -0.16338,2.10937 l -4.83762,2.79288 z"
         style="fill:#d97764;fill-opacity:1;fill-rule:nonzero;stroke:none"
         id="path5584"
         inkscape:connector-curvature="0" />
      <path
         d="m 339.44322,244.42832 0,2.95013 -45.12938,25.19575 0,-2.94938 45.12937,-25.1965 z"
         style="fill:#dfbdce;fill-opacity:1;fill-rule:nonzero;stroke:none"
         id="path5586"
         inkscape:connector-curvature="0" />
      <path
         d="m 237.72272,238.01032 0,2.95025 56.59087,31.61401 0,-2.94938 -56.59087,-31.61488 z"
         style="fill:#f3d2d0;fill-opacity:1;fill-rule:nonzero;stroke:none"
         id="path5588"
         inkscape:connector-curvature="0" />
      <path
         d="m 230.07734,265.06132 -16.7315,9.45363 -20.45163,-11.60863 17.06526,-9.4535 20.11787,11.6085 z"
         style="fill:#54bedb;fill-opacity:1;fill-rule:nonzero;stroke:none"
         id="path5590"
         inkscape:connector-curvature="0" />
      <path
         d="m 192.59372,262.90632 0,5.86563 20.77362,11.60825 0,-5.86525 -20.77362,-11.60863 z"
         style="fill:#8bd6f2;fill-opacity:1;fill-rule:nonzero;stroke:none"
         id="path5592"
         inkscape:connector-curvature="0" />
      <path
         d="m 213.36734,274.51495 0,5.86525 16.47575,-9.45325 0,-5.86563 -16.47575,9.45363 z"
         style="fill:#128dac;fill-opacity:1;fill-rule:nonzero;stroke:none"
         id="path5594"
         inkscape:connector-curvature="0" />
      <path
         d="m 216.23284,272.82157 0,5.86563 10.74513,5.9875 0,-5.86563 -10.74513,-5.9875 z"
         style="fill:#725d95;fill-opacity:1;fill-rule:nonzero;stroke:none"
         id="path5596"
         inkscape:connector-curvature="0" />
      <path
         d="m 237.70209,272.8832 -10.38287,5.92625 -10.69475,-5.9875 10.2645,-5.92625 10.81312,5.9875 z"
         style="fill:#443560;fill-opacity:1;fill-rule:nonzero;stroke:none"
         id="path5598"
         inkscape:connector-curvature="0" />
      <path
         d="m 237.72272,278.74845 -10.74513,5.92625 0,-5.86563 10.74513,-5.92587 0,5.86525 z"
         style="fill:#836e9c;fill-opacity:1;fill-rule:nonzero;stroke:none"
         id="path5600"
         inkscape:connector-curvature="0" />
      <path
         d="m 244.69909,282.61032 -10.53037,-5.99912 -5.19938,3.00187 5.49875,3.28925 -42.72087,24.82225 c -1.62388,0.94363 -1.62075,3.29025 0.006,4.22963 1.82875,1.05587 2.87825,2.368 2.87825,3.59862 0,1.23025 -1.0495,2.54163 -2.8775,3.59713 -4.702,2.71487 -12.64825,2.71412 -17.35125,-7.5e-4 l -10.366,-5.7415 c -6.2365,-3.58863 -15.99088,-3.58475 -22.21938,0.0112 -3.45287,1.99337 -5.4325,4.91625 -5.4325,8.0195 0,3.06812 1.85138,5.82737 5.21363,7.76875 l 13.83262,7.98625 1.32275,0.78875 13.84725,7.99475 c 1.03425,0.59775 1.67738,1.3355 1.67738,1.92575 0,0.59038 -0.64238,1.328 -1.67738,1.92512 -3.13187,1.80888 -8.42487,1.80888 -11.5575,0 l -0.002,0.003 c -6.592,-3.64713 -14.81037,-3.87988 -20.57637,-0.55101 l -21.6185,11.952 c 1.48112,1.12176 2.67775,2.32826 3.5855,3.58826 l 20.47712,-11.30701 c 4.33988,-2.50549 10.93863,-2.19574 16.0455,0.75301 l 0.004,-0.006 c 4.61975,2.46087 11.594,2.39425 16.08688,-0.19951 2.61887,-1.51187 4.12125,-3.75662 4.12125,-6.15787 0,-2.40125 -1.50238,-4.646 -4.12125,-6.15825 l -13.80225,-7.96888 -1.32263,-0.78949 -13.87737,-8.01175 c -1.761,-1.01663 -2.7705,-2.30525 -2.7705,-3.53588 0,-1.30963 1.08912,-2.69012 2.98837,-3.78675 4.70275,-2.71488 12.64863,-2.7145 17.352,3.8e-4 l 10.36588,5.74187 c 6.23625,3.58875 15.99025,3.58513 22.21862,-0.0113 3.43175,-1.98112 5.32213,-4.76187 5.32213,-7.83 0,-1.96125 -0.77213,-3.80487 -2.22563,-5.39787 l 47.40525,-27.54463 z"
         style="fill:#fee6db;fill-opacity:1;fill-rule:nonzero;stroke:none"
         id="path5602"
         inkscape:connector-curvature="0" />
      <path
         d="m 123.34797,383.90457 0,-12.95612 -7.76488,1.66787 c -0.208,-0.1275 -0.41175,-0.25687 -0.62787,-0.38162 -11.18938,-6.46013 -29.332497,-6.46013 -40.523747,0.001 l -25.42388,14.67849 -11.32513,2.43138 0,9.14 c -0.98574,4.854 1.73863,9.91163 8.1885,13.63538 11.19125,6.46112 29.33438,6.46187 40.52526,6.2e-4 l 28.559747,-16.48875 c 5.60862,-3.23825 8.40537,-7.48412 8.392,-11.72838"
         style="fill:#213d45;fill-opacity:1;fill-rule:nonzero;stroke:none"
         id="path5604"
         inkscape:connector-curvature="0" />
      <path
         d="m 114.95634,382.61845 c 11.19113,-6.46088 11.19013,-16.936 -7.5e-4,-23.39725 -11.19012,-6.4605 -29.333247,-6.46088 -40.524497,0 l -28.55975,16.48875 c -11.19075,6.462 -11.19012,16.93675 -6.2e-4,23.39687 11.19112,6.46163 29.33425,6.46163 40.52587,7.5e-4 l 28.559747,-16.48912 z"
         style="fill:#54bedb;fill-opacity:1;fill-rule:nonzero;stroke:none"
         id="path5606"
         inkscape:connector-curvature="0" />
      <path
         d="m 100.34722,373.58332 c -2.620247,1.51225 -6.866877,1.51338 -9.487507,0 -2.61887,-1.51225 -2.61787,-3.9635 0.001,-5.47625 2.61988,-1.51262 6.86688,-1.51325 9.485747,-0.001 2.62063,1.51262 2.62,3.96499 0,5.47762"
         style="fill:#443560;fill-opacity:1;fill-rule:nonzero;stroke:none"
         id="path5608"
         inkscape:connector-curvature="0" />
      <path
         d="m -190.48741,419.81182 151.882753,-88.91299 -100.902753,-59.214 -151.88199,88.91299 100.90199,59.21401 z"
         style="fill:#4d4d4e;fill-opacity:1;fill-rule:nonzero;stroke:none"
         id="path5610"
         inkscape:connector-curvature="0" />
      <path
         d="m -149.33328,302.79757 -26.27188,28.4085 0,19.02788 146.133383,-83.97 0,-0.0478 -48.74663,-27.50925 -79.308123,45.438 8.19325,18.65262 z"
         style="fill:#4d4d4e;fill-opacity:1;fill-rule:nonzero;stroke:none"
         id="path5612"
         inkscape:connector-curvature="0" />
      <path
         d="m -112.56728,83.196575 82.379493,47.312375 0,90.91837 -82.379493,-48.20062 0,-90.030125 z"
         style="fill:#f3d2d0;fill-opacity:1;fill-rule:nonzero;stroke:none"
         id="path5614"
         inkscape:connector-curvature="0" />
      <path
         d="m -235.71803,260.3612 79.11212,45.22462 117.311383,-65.97137 -80.368133,-48.95513 -111.72225,64.82588 -4.33312,4.876 z"
         style="fill:#818181;fill-opacity:1;fill-rule:nonzero;stroke:none"
         id="path5616"
         inkscape:connector-curvature="0" />
      <path
         d="m -232.91253,190.36107 24.356,-13.96562 0,25.08125 -24.356,13.96562 0,-25.08125 z m 0,-31.92099 24.356,-13.96563 0,26.791 -24.356,13.96525 0,-26.79063 z m 24.356,77.80787 -24.356,13.9655 0,-27.36063 24.356,-13.966 0,27.36113 z m 5.73024,-30.7815 24.356,-13.9655 0,27.36138 -24.356,13.96562 0,-27.3615 z m 0,-32.491 24.356,-13.96562 0,25.08062 -24.356,13.96563 0,-25.08063 z m 0,-31.92163 24.356,-13.96562 0,26.79125 -24.356,13.966 0,-26.79163 z m 30.08625,47.59688 24.356,-14.53538 0,27.36075 -24.356,14.53601 0,-27.36138 z m 0,-32.49075 24.356,-14.53637 0,25.08125 -24.356,14.53575 0,-25.08063 z m 0,-31.922 24.356,-14.53538 0,26.791 -24.356,14.536 0,-26.79162 z m 28.65363,46.74188 26.0185,-14.553 c 0,0 0.61125,12.83625 0.61125,16.23437 0,5.25225 -2.23513,12.4855 -9.7275,16.8105 -7.49125,4.32525 -16.90225,9.43963 -16.90225,9.43963 l 0,-27.9315 z m 0,-31.92088 25.07175,-14.53537 0,25.08025 -25.07175,14.53562 0,-25.0805 z m 0,-31.92137 25.07175,-14.535995 0,26.791615 -25.07175,14.53538 0,-26.791 z m -119.62837,77.80712 0,-8.264 25.07175,-15.10587 0,26.79137 -18.71512,11.27188 1.59137,4.0685 17.12375,-10.21013 0,25.08063 -8.03625,5.107 2.37262,5.38187 5.66363,-3.65837 0,17.43512 6.374,12.6425 -0.2225,0.47063 c 18.074,-10.2295 103.82137,-59.78525 110.04312,-63.65375 6.95725,-4.32575 9.88112,-11.66075 9.88112,-19.07538 l 0,-90.030495 -156.31299,90.221495 5.1655,11.527 z"
         style="fill:#fee6db;fill-opacity:1;fill-rule:nonzero;stroke:none"
         id="path5618"
         inkscape:connector-curvature="0" />
      <path
         d="m -173.63653,391.90607 c 0,-10.74999 7.54762,-23.82087 16.85737,-29.19612 9.30963,-5.3755 16.85575,-1.018 16.85575,9.73175 0,10.75 -7.54612,23.8205 -16.85575,29.19575 -9.30975,5.37487 -16.85737,1.01875 -16.85737,-9.73138"
         style="fill:#465060;fill-opacity:1;fill-rule:nonzero;stroke:none"
         id="path5620"
         inkscape:connector-curvature="0" />
      <path
         d="m -173.63653,391.90607 c 0,-10.74999 7.59975,-23.82162 16.90875,-29.19612 5.00775,-2.891 8.343,-2.96287 12.64137,-0.74263 l 0,-10e-4 -3.6645,-2.96463 c -2.89412,-4.23575 -8.40575,-5.05737 -14.7025,-1.42199 -9.31012,5.3745 -16.8705,18.26937 -16.8705,29.019 0,4.31074 1.22775,7.30312 3.2815,9.45212 l -0.0125,0 c 0.2115,0.71612 0.4255,0.58425 0.65438,0.7675 l 4.80187,4.38313 c -1.9105,-2.05301 -3.03837,-5.15163 -3.03837,-9.29526"
         style="fill:#637288;fill-opacity:1;fill-rule:nonzero;stroke:none"
         id="path5622"
         inkscape:connector-curvature="0" />
      <path
         d="m -256.29015,348.01407 c 0,-10.75 7.54724,-23.82162 16.85687,-29.1965 9.31012,-5.37512 16.85587,-1.01762 16.85587,9.73238 0,10.75012 -7.54575,23.82025 -16.85587,29.1955 -9.30963,5.3745 -16.85687,1.01837 -16.85687,-9.73138"
         style="fill:#465060;fill-opacity:1;fill-rule:nonzero;stroke:none"
         id="path5624"
         inkscape:connector-curvature="0" />
      <path
         d="m -256.29015,348.01407 c 0,-10.75 7.37787,-23.82162 16.68749,-29.19612 5.00775,-2.891 9.55563,-2.96288 12.42113,-0.74263 l 0,-10e-4 -3.44375,-2.96463 c -2.89413,-4.23575 -8.296,-5.05737 -14.59275,-1.422 -9.30962,5.37488 -16.81437,18.3675 -16.81437,29.1165 0,4.31076 1.25112,7.40051 3.30512,9.54951 l 0.004,0 c 0.2115,0 0.43363,0.48687 0.66288,0.66999 l 4.8055,4.33463 c -1.91063,-2.05237 -3.0345,-5.20087 -3.0345,-9.34413"
         style="fill:#637288;fill-opacity:1;fill-rule:nonzero;stroke:none"
         id="path5626"
         inkscape:connector-curvature="0" />
      <path
         d="m -249.60116,344.15195 c 0,-6.484 4.5525,-14.36888 10.16763,-17.611 5.61612,-3.24175 10.1685,-0.614 10.1685,5.87025 0,6.48387 -4.55238,14.36875 -10.1685,17.61087 -5.61513,3.24288 -10.16763,0.61413 -10.16763,-5.87012"
         style="fill:#353e4a;fill-opacity:1;fill-rule:nonzero;stroke:none"
         id="path5628"
         inkscape:connector-curvature="0" />
      <path
         d="m -239.43328,326.54095 c -5.61575,3.24212 -10.1675,11.12675 -10.1675,17.611 0,0.76138 0.0645,1.46825 0.185,2.12062 1.30175,-0.0528 2.75212,-0.49675 4.28237,-1.38012 5.61513,-3.24213 10.16763,-11.12738 10.16763,-17.61163 0,-0.7615 -0.0653,-1.468 -0.185,-2.12 -1.30188,0.0521 -2.75213,0.49675 -4.2825,1.38013"
         style="fill:#2c323a;fill-opacity:1;fill-rule:nonzero;stroke:none"
         id="path5630"
         inkscape:connector-curvature="0" />
      <path
         d="m -62.481157,328.0632 c 0,-10.75013 7.54725,-23.82175 16.85688,-29.1965 9.31012,-5.37525 16.85587,-1.01763 16.85587,9.732 0,10.75 -7.54575,23.82062 -16.85587,29.19575 -9.30963,5.37487 -16.85688,1.01875 -16.85688,-9.73125"
         style="fill:#465060;fill-opacity:1;fill-rule:nonzero;stroke:none"
         id="path5632"
         inkscape:connector-curvature="0" />
      <path
         d="m -62.481157,328.0632 c 0,-10.75013 7.538,-23.82175 16.848,-29.1965 5.00713,-2.89063 9.714,-2.96263 12.5795,-0.74238 l 0,-0.001 -3.60325,-2.96475 c -2.89413,-4.23562 -8.37563,-5.05737 -14.67275,-1.42187 -9.30975,5.3745 -16.8545,18.31388 -16.8545,29.06388 0,4.30975 1.225,8.06324 3.279,9.49537 l -0.004,0 c 0.21162,0 0.43025,0.54038 0.6595,0.72362 l 4.804,4.36138 c -1.91125,-2.053 -3.03625,-5.17462 -3.03625,-9.31775"
         style="fill:#637288;fill-opacity:1;fill-rule:nonzero;stroke:none"
         id="path5634"
         inkscape:connector-curvature="0" />
      <path
         d="m -55.792157,324.20095 c 0,-6.48388 4.5525,-14.36888 10.1675,-17.611 5.61588,-3.24175 10.16863,-0.614 10.16863,5.87025 0,6.48425 -4.55275,14.36888 -10.16863,17.611 -5.615,3.24237 -10.1675,0.614 -10.1675,-5.87025"
         style="fill:#353e4a;fill-opacity:1;fill-rule:nonzero;stroke:none"
         id="path5636"
         inkscape:connector-curvature="0" />
      <path
         d="m -45.624277,306.58995 c -5.61576,3.24212 -10.16751,11.12675 -10.16751,17.611 0,0.7615 0.0645,1.46837 0.18501,2.12062 1.30174,-0.0528 2.75199,-0.49675 4.28237,-1.38037 5.61512,-3.24188 10.1675,-11.1275 10.1675,-17.61138 0,-0.76137 -0.0651,-1.468 -0.18488,-2.12 -1.30187,0.0517 -2.75212,0.4965 -4.2825,1.38013"
         style="fill:#2c323a;fill-opacity:1;fill-rule:nonzero;stroke:none"
         id="path5638"
         inkscape:connector-curvature="0" />
      <path
         d="m -166.94703,388.04395 c 0,-6.484 4.55237,-14.36888 10.1675,-17.611 5.61575,-3.24175 10.16825,-0.614 10.16825,5.87025 0,6.48425 -4.5525,14.36875 -10.16825,17.61087 -5.61513,3.24251 -10.1675,0.61413 -10.1675,-5.87012"
         style="fill:#353e4a;fill-opacity:1;fill-rule:nonzero;stroke:none"
         id="path5640"
         inkscape:connector-curvature="0" />
      <path
         d="m -156.77916,370.43295 c -5.61588,3.24213 -10.16762,11.12675 -10.16762,17.611 0,0.76137 0.0645,1.46825 0.185,2.12062 1.30187,-0.0527 2.75212,-0.49675 4.2825,-1.3805 5.615,-3.24175 10.1675,-11.12737 10.1675,-17.61125 0,-0.7615 -0.0652,-1.468 -0.18538,-2.11999 -1.30175,0.0517 -2.75175,0.49637 -4.282,1.38012"
         style="fill:#2c323a;fill-opacity:1;fill-rule:nonzero;stroke:none"
         id="path5642"
         inkscape:connector-curvature="0" />
      <path
         d="m -164.06953,360.99957 c 3.87675,-2.23787 7.089,-3.35437 9.95412,-2.45862 l 0,-10.568 -20.05725,11.97 0,11.27375 c 3.58163,-4.2785 6.15863,-7.9395 10.10313,-10.21713 z m 101.645753,-54.19762 0,-11.27163 21.49012,-11.97075 0,10.91088 c -3.58125,-1.053 -6.97962,0.29375 -11.01262,2.62175 -3.7885,2.18725 -7.612,5.64875 -10.4775,9.70975"
         style="fill:#353e4a;fill-opacity:1;fill-rule:nonzero;stroke:none"
         id="path5644"
         inkscape:connector-curvature="0" />
      <path
         d="m -200.63866,240.08245 66.52275,38.407 0,-20.30913 -66.52275,-37.74375 0,19.64588 z"
         style="fill:#32466e;fill-opacity:1;fill-rule:nonzero;stroke:none"
         id="path5646"
         inkscape:connector-curvature="0" />
      <path
         d="m -195.80516,242.8732 0.76075,0.43937 0,-20.3095 -0.76075,-0.43937 0,20.3095 z m 1.63063,0.94112 0.76075,0.43976 0,-20.30963 -0.76075,-0.43937 0,20.30924 z m 25.763,14.87438 0.76075,0.43937 0,-20.3095 -0.76075,-0.43862 0,20.30875 z m 1.63062,0.9415 0.76075,0.43937 0,-20.3095 -0.76075,-0.43875 0,20.30888 z m 25.763,14.87412 0.76075,0.43938 0,-20.30888 -0.76075,-0.43937 0,20.30887 z m 1.63062,-19.36737 0.76113,0.43862 0,20.3095 -0.76113,-0.43937 0,-20.30875 z"
         style="fill:#ffffff;fill-opacity:1;fill-rule:nonzero;stroke:none"
         id="path5648"
         inkscape:connector-curvature="0" />
      <path
         d="m -130.92791,259.84957 0,14.62563 53.742753,-32.176 0,-14.6265 -53.742753,32.17687 z"
         style="fill:#ffffff;fill-opacity:1;fill-rule:nonzero;stroke:none"
         id="path5650"
         inkscape:connector-curvature="0" />
      <path
         d="m -134.12366,259.13382 58.883753,-35.12625 -66.951503,-32.69837 -58.44725,29.12775 66.515,38.69687 z"
         style="fill:#2b3b57;fill-opacity:1;fill-rule:nonzero;stroke:none"
         id="path5652"
         inkscape:connector-curvature="0" />
      <path
         d="m -131.87053,263.03457 54.684623,-32.7405 0,-0.73587 -54.684623,32.7405 0,0.73587 z m 0,2.10438 54.684623,-32.7405 0,-0.73625 -54.684623,32.74087 0,0.73588 z m 0,2.10437 54.684623,-32.74087 0,-0.73588 -54.684623,32.7405 0,0.73625 z m 0,2.104 54.684623,-32.7405 0,-0.73587 -54.684623,32.7405 0,0.73587 z m 0,2.10438 54.684623,-32.7405 0,-0.73625 -54.684623,32.7415 0,0.73525 z m 0,1.36913 54.684623,-32.7415 0,0.73587 -54.684623,32.74087 0,-0.73524 z"
         style="fill:#c8d1ce;fill-opacity:1;fill-rule:nonzero;stroke:none"
         id="path5654"
         inkscape:connector-curvature="0" />
      <path
         d="m -115.52591,264.36582 -2.27375,-0.601 -2.27412,3.324 0,-7.14287 0,-7.143 2.27412,-1.36162 2.27375,-1.36138 0,7.14288 0,7.143 z"
         style="fill:#b1c444;fill-opacity:1;fill-rule:nonzero;stroke:none"
         id="path5656"
         inkscape:connector-curvature="0" />
      <path
         d="m -75.239907,243.1737 0,-2.03988 -55.688003,33.34138 0,-14.62563 55.688003,-33.3415 0,-2.50087 -58.883753,35.12687 0,19.35538 58.883753,-35.31575 z"
         style="fill:#396890;fill-opacity:1;fill-rule:nonzero;stroke:none"
         id="path5658"
         inkscape:connector-curvature="0" />
      <path
         d="m -88.072657,219.83282 -56.173873,32.43151 0,-17.14888 56.173873,-31.872 0,16.58937 z"
         style="fill:#7b6592;fill-opacity:1;fill-rule:nonzero;stroke:none"
         id="path5660"
         inkscape:connector-curvature="0" />
      <path
         d="m -92.154277,205.03957 -0.64238,0.371 0,17.14951 0.64238,-0.37063 0,-17.14987 z m -1.37688,0.79513 -0.64237,0.37087 0,17.15 0.64237,-0.37162 0,-17.14925 z m -21.754873,12.55987 -0.64238,0.37138 0,17.14925 0.64238,-0.371 0,-17.14963 z m -1.37688,0.79513 -0.6425,0.371 0,17.14962 0.6425,-0.371 0,-17.14962 z m -21.75487,12.56037 -0.64313,0.371 0,17.14951 0.64313,-0.37088 0,-17.14962 z m -1.377,17.94438 -0.643,0.371 0,-17.14925 0.643,-0.371 0,17.14925 z"
         style="fill:#ffffff;fill-opacity:1;fill-rule:nonzero;stroke:none"
         id="path5662"
         inkscape:connector-curvature="0" />
      <path
         d="m -146.93879,236.5247 0,12.35013 -45.38124,-27.17038 0,-12.35025 45.38124,27.1705 z"
         style="fill:#ffffff;fill-opacity:1;fill-rule:nonzero;stroke:none"
         id="path5664"
         inkscape:connector-curvature="0" />
      <path
         d="m -144.24016,235.9202 -49.72287,-29.66175 56.536,-27.61125 49.354003,24.59625 -56.167133,32.67675 z"
         style="fill:#483960;fill-opacity:1;fill-rule:nonzero;stroke:none"
         id="path5666"
         inkscape:connector-curvature="0" />
      <path
         d="m -146.14253,238.59282 -46.1775,-27.64725 0,0.62113 46.1775,27.64738 0,-0.62126 z m 0,1.77663 -46.1775,-27.647 0,0.62112 46.1775,27.64738 0,-0.6215 z m 0,1.777 -46.1775,-27.64663 0,0.6215 46.1775,27.64625 0,-0.62112 z m 0,1.777 -46.1775,-27.647 0,0.6215 46.1775,27.64738 0,-0.62188 z m 0,1.77725 -46.1775,-27.64725 0,0.62112 46.1775,27.64763 0,-0.6215 z m 0,2.39812 -46.1775,-27.64737 0,-0.62113 46.1775,27.64738 0,0.62112 z"
         style="fill:#c8d1ce;fill-opacity:1;fill-rule:nonzero;stroke:none"
         id="path5668"
         inkscape:connector-curvature="0" />
      <path
         d="m -159.94441,240.33832 1.92037,-0.50737 1.92013,2.80662 0,-6.03137 0,-6.03212 -1.92013,-1.14988 -1.92037,-1.14938 0,6.03213 0,6.03137 z"
         style="fill:#32466e;fill-opacity:1;fill-rule:nonzero;stroke:none"
         id="path5670"
         inkscape:connector-curvature="0" />
      <path
         d="m -193.96303,222.44282 0,-1.722 47.02425,28.15475 0,-12.35124 -47.02425,-28.1545 0,-2.11138 49.72287,29.66175 0,16.34413 -49.72287,-29.8215 z"
         style="fill:#b39bc9;fill-opacity:1;fill-rule:nonzero;stroke:none"
         id="path5672"
         inkscape:connector-curvature="0" />
      <path
         d="m -90.400657,199.86482 0,10.129 -38.595123,22.28238 0,-10.1285 38.595123,-22.28288 z"
         style="fill:#ffffff;fill-opacity:1;fill-rule:nonzero;stroke:none"
         id="path5674"
         inkscape:connector-curvature="0" />
      <path
         d="m -186.47891,203.17182 55.1885,31.81613 0,-13.336 -55.1885,-31.8415 0,13.36137 z"
         style="fill:#2b3b57;fill-opacity:1;fill-rule:nonzero;stroke:none"
         id="path5676"
         inkscape:connector-curvature="0" />
      <path
         d="m -164.45966,213.30782 10.66075,6.1555 c 0.506,0.2915 0.91975,-0.0214 0.91975,-0.69525 l 0,-5.619 c 0,-0.67387 -0.41375,-1.46437 -0.91975,-1.75637 l -10.66075,-6.1555 c -0.50562,-0.29188 -0.9195,0.0213 -0.9195,0.69525 l 0,5.619 c 0,0.67387 0.41388,1.46437 0.9195,1.75637"
         style="fill:#e4e1d1;fill-opacity:1;fill-rule:nonzero;stroke:none"
         id="path5678"
         inkscape:connector-curvature="0" />
      <path
         d="m -176.76203,208.6817 1.61287,0.93088 0,-13.14538 -1.61287,-0.93112 0,13.14562 z m 3.36012,1.94 2.28475,1.31912 0,-13.14562 -2.28475,-1.31963 0,13.14613 z m 24.73088,14.20437 2.82225,1.62925 0,-12.998 -2.82225,-1.62912 0,12.99788 z m 4.56937,-10.43399 6.452,3.72512 0,13.14562 -6.452,-3.72475 0,-13.14599 z"
         style="fill:#b1c444;fill-opacity:1;fill-rule:nonzero;stroke:none"
         id="path5680"
         inkscape:connector-curvature="0" />
      <path
         d="m -131.29078,221.65232 42.286873,-24.32587 -55.150873,-31.84125 -42.32438,24.3255 55.18838,31.84162 z"
         style="fill:#396890;fill-opacity:1;fill-rule:nonzero;stroke:none"
         id="path5682"
         inkscape:connector-curvature="0" />
      <path
         d="m -129.67253,224.35345 39.271503,-22.67337 0,-0.50988 -39.271503,22.674 0,0.50925 z m 0,1.45725 39.271503,-22.67325 0,-0.50988 -39.271503,22.674 0,0.50913 z m 0,1.45737 39.271503,-22.67325 0,-0.50987 -39.271503,22.674 0,0.50913 z m 0,1.45738 39.271503,-22.674 0,-0.50913 -39.271503,22.67325 0,0.50988 z m 0,1.45738 39.271503,-22.674 0,-0.5095 -39.271503,22.67324 0,0.51026 z m 0,0.94712 39.271503,-22.67325 0,0.50913 -39.271503,22.674 0,-0.50988 z"
         style="fill:#c8d1ce;fill-opacity:1;fill-rule:nonzero;stroke:none"
         id="path5684"
         inkscape:connector-curvature="0" />
      <path
         d="m -117.93466,225.27532 -1.6335,-0.41562 -1.63237,2.301 0,-4.946 0,-4.9465 1.63237,-0.94362 1.6335,-0.94288 0,4.94725 0,4.94638 z"
         style="fill:#2b3b57;fill-opacity:1;fill-rule:nonzero;stroke:none"
         id="path5686"
         inkscape:connector-curvature="0" />
      <path
         d="m -89.003527,210.59932 0,-1.41275 -39.992253,23.08963 0,-10.1285 39.992253,-23.08963 0,-1.73124 -42.286883,24.32549 0,13.40363 42.286883,-24.45663 z"
         style="fill:#396890;fill-opacity:1;fill-rule:nonzero;stroke:none"
         id="path5688"
         inkscape:connector-curvature="0" />
      <path
         d="m -133.84053,106.72195 2.40587,2.09837 c 1.37913,1.20225 2.96363,2.14613 4.67713,2.7865 l 3.90762,1.46013 -36.056,20.80425 -10.99025,-6.345 36.05563,-20.80425 z"
         style="fill:#ffffff;fill-opacity:1;fill-rule:nonzero;stroke:none"
         id="path5690"
         inkscape:connector-curvature="0" />
      <path
         d="m -166.66503,129.40195 0.828,0.47837 35.15675,-20.29825 c -0.28063,-0.17787 -0.53888,-0.34725 -0.77638,-0.508 l -35.20837,20.32788 z m -1.16438,-0.67212 0.75725,0.43687 35.24563,-20.34888 c -0.24738,-0.17462 -0.46738,-0.33837 -0.66363,-0.49075 l -35.33925,20.40275 z m -1.164,-0.67188 0.75688,0.43687 35.40512,-20.44087 c -0.241,-0.19988 -0.43687,-0.377 -0.59425,-0.53125 l -35.56775,20.53525 z m 3.5635,2.05688 0.75725,0.43725 35.12725,-20.28075 c -0.26212,-0.1535 -0.50987,-0.30263 -0.743,-0.44538 l -35.1415,20.28888 z m 1.16438,0.67187 0.75687,0.43763 35.14538,-20.29075 c -0.25163,-0.13463 -0.51063,-0.2775 -0.77463,-0.42775 l -35.12762,20.28087 z m 4.65625,2.68863 0.68525,0.39612 20.95512,-12.09925 14.98538,-8.65138 c 0,0 -0.32913,-0.0719 -0.91875,-0.26037 l -35.707,20.61487 z m -2.32825,-1.344 0.75712,0.437 35.36688,-20.41875 c -0.27175,-0.11338 -0.55813,-0.23913 -0.86038,-0.37763 l -35.26362,20.35937 z m 28.22275,-24.9115 c -0.29513,-0.33413 -0.35188,-0.49825 -0.35188,-0.49825 l -14.985,8.6525 -20.95575,12.09825 0.60688,0.35075 35.68575,-20.60325 z m -29.38675,24.23975 0.75687,0.43687 35.2215,-20.335 c -0.26187,-0.1255 -0.53325,-0.2605 -0.81387,-0.40462 l -35.16451,20.30275 z m 3.08512,1.78125 -0.75687,-0.43725 35.436,-20.45913 c 0.339,0.13463 0.647,0.24838 0.91912,0.34338 l -35.59825,20.553 z"
         style="fill:#d8d8d8;fill-opacity:1;fill-rule:nonzero;stroke:none"
         id="path5692"
         inkscape:connector-curvature="0" />
      <path
         d="m -159.36766,136.1382 0,65.00087 -14.47325,-8.35587 0,-65.00088 14.47325,8.35588 z"
         style="fill:#32466e;fill-opacity:1;fill-rule:nonzero;stroke:none"
         id="path5694"
         inkscape:connector-curvature="0" />
      <path
         d="m -119.74953,113.26433 0,65.00087 -39.61813,22.8735 0,-65.00087 39.61813,-22.8735 z"
         style="fill:#2b3b57;fill-opacity:1;fill-rule:nonzero;stroke:none"
         id="path5696"
         inkscape:connector-curvature="0" />
      <path
         d="m -134.22216,104.90845 1.74113,1.00562 -37.43325,21.61175 10.99025,6.34563 37.43362,-21.61237 1.74125,1.00525 -39.61875,22.87349 -14.47237,-8.35587 39.61812,-22.8735 z"
         style="fill:#396890;fill-opacity:1;fill-rule:nonzero;stroke:none"
         id="path5698"
         inkscape:connector-curvature="0" />
      <path
         d="m -157.49353,159.76132 5.63212,-9.03362 5.63275,2.53 0,-24.76288 -11.26487,6.50413 0,24.76238 z"
         style="fill:#2b3b57;fill-opacity:1;fill-rule:nonzero;stroke:none"
         id="path5700"
         inkscape:connector-curvature="0" />
      <path
         d="m -112.87766,113.45957 2.40625,2.09838 c 1.37875,1.20225 2.96325,2.14612 4.67687,2.78637 l 3.9075,1.46025 -36.056,20.80413 -10.99024,-6.345 36.05562,-20.80413 z"
         style="fill:#ffffff;fill-opacity:1;fill-rule:nonzero;stroke:none"
         id="path5702"
         inkscape:connector-curvature="0" />
      <path
         d="m -145.68403,136.13957 0.828,0.47838 35.15675,-20.29825 c -0.28063,-0.17788 -0.539,-0.34725 -0.77638,-0.50813 l -35.20837,20.328 z m -1.16438,-0.67187 0.75725,0.43662 35.24525,-20.34887 c -0.247,-0.17438 -0.467,-0.33875 -0.66325,-0.49075 l -35.33925,20.403 z m -1.164,-0.67213 0.75688,0.43688 35.40512,-20.44125 c -0.24137,-0.1995 -0.43687,-0.37713 -0.59425,-0.53088 l -35.56775,20.53525 z m 3.5635,2.05688 0.75725,0.43762 35.12725,-20.28112 c -0.26212,-0.1535 -0.50987,-0.30262 -0.743,-0.4455 l -35.1415,20.289 z m 1.16438,0.67225 0.75687,0.43725 35.14538,-20.29113 c -0.252,-0.135 -0.51063,-0.27712 -0.775,-0.42737 l -35.12725,20.28125 z m 4.65625,2.68862 0.68525,0.39575 20.95512,-12.09924 14.98538,-8.65176 c 0,0 -0.32913,-0.0716 -0.91875,-0.26012 l -35.707,20.61537 z m -2.32825,-1.34437 0.75712,0.43687 35.3665,-20.419 c -0.27137,-0.11299 -0.55812,-0.23874 -0.86038,-0.37737 l -35.26324,20.3595 z m 28.22275,-24.91188 c -0.2955,-0.33412 -0.35188,-0.49787 -0.35188,-0.49787 l -14.985,8.65212 -20.95575,12.0985 0.60688,0.3505 35.68575,-20.60325 z m -29.38675,24.24013 0.75712,0.4365 35.22088,-20.335 c -0.2615,-0.12513 -0.53288,-0.26013 -0.8135,-0.40438 l -35.1645,20.30288 z m 3.08512,1.7815 -0.75687,-0.4375 35.436,-20.45913 c 0.339,0.13426 0.647,0.24838 0.91875,0.34338 l -35.59788,20.55325 z"
         style="fill:#d8d8d8;fill-opacity:1;fill-rule:nonzero;stroke:none"
         id="path5704"
         inkscape:connector-curvature="0" />
      <path
         d="m -138.38703,142.87545 0,65.00125 -14.47263,-8.35588 0,-65.00125 14.47263,8.35588 z"
         style="fill:#d97764;fill-opacity:1;fill-rule:nonzero;stroke:none"
         id="path5706"
         inkscape:connector-curvature="0" />
      <path
         d="m -98.768527,120.00195 0,65.00087 -39.618133,22.87388 0,-65.00125 39.618133,-22.8735 z"
         style="fill:#c15a4c;fill-opacity:1;fill-rule:nonzero;stroke:none"
         id="path5708"
         inkscape:connector-curvature="0" />
      <path
         d="m -113.24116,111.64608 1.74113,1.00524 -37.43325,21.61213 10.99025,6.34562 37.43362,-21.61275 1.741253,1.00563 -39.618873,22.8735 -14.47225,-8.35588 39.61812,-22.8735 z"
         style="fill:#f6917a;fill-opacity:1;fill-rule:nonzero;stroke:none"
         id="path5710"
         inkscape:connector-curvature="0" />
      <path
         d="m -136.51291,166.7877 5.63238,-9.03363 5.63287,2.53 0,-24.7625 -11.26525,6.50413 0,24.762 z"
         style="fill:#8bd6f2;fill-opacity:1;fill-rule:nonzero;stroke:none"
         id="path5712"
         inkscape:connector-curvature="0" />
      <path
         d="m -244.02928,255.60358 82.654,47.31274 -24.25888,27.50813 -83.81199,-47.31238 25.41687,-27.50849 z"
         style="fill:#4d4d4e;fill-opacity:1;fill-rule:nonzero;stroke:none"
         id="path5714"
         inkscape:connector-curvature="0" />
      <path
         d="m -269.44615,283.11207 0,36.10275 83.81199,47.31163 0,-36.102 -83.81199,-47.31238 z"
         style="fill:#9a9a9a;fill-opacity:1;fill-rule:nonzero;stroke:none"
         id="path5716"
         inkscape:connector-curvature="0" />
      <path
         d="m -200.36503,217.63845 -82.65412,-47.31238 38.98949,85.27788 82.65413,47.312 -38.9895,-85.2775 z"
         style="fill:#9a9a9a;fill-opacity:1;fill-rule:nonzero;stroke:none"
         id="path5718"
         inkscape:connector-curvature="0" />
      <path
         d="m -286.68965,159.50732 82.65412,47.31238 -2.9435,11.89487 -82.65325,-47.31162 2.94263,-11.89563 z"
         style="fill:#a73847;fill-opacity:1;fill-rule:nonzero;stroke:none"
         id="path5720"
         inkscape:connector-curvature="0" />
      <path
         d="m -288.3184,153.7222 c -2.40525,-1.57225 -4.432,-2.4555 -8.00338,-0.39338 -6.206,3.58263 -11.23687,12.29675 -11.23687,19.46338 0,4.08725 1.63812,6.78512 4.19525,7.68687 l -2.5e-4,0 81.00487,46.41275 c -1.71888,-1.31312 -2.7325,-3.71975 -2.6695,-7.0055 0.13825,-7.16525 5.33625,-15.7805 11.61037,-19.243 2.30988,-1.27525 4.44225,-1.671 6.20925,-1.3085 l 0.23,-0.42375 -76.03762,-41.9985 c 0,0 -4.57012,-2.71237 -5.30212,-3.19037"
         style="fill:#fee6db;fill-opacity:1;fill-rule:nonzero;stroke:none"
         id="path5722"
         inkscape:connector-curvature="0" />
      <path
         d="m -206.97866,218.71457 2.94275,-11.89562 11.23825,-2.16213 43.464,98.14075 -26.2715,28.4085 0,19.08851 146.133123,-84.07838 0,10.531 -146.360623,84.04125 -9.80187,5.738 0,-10.767 0,-25.33538 23.71075,-27.50849 -38.71525,-85.2775 -6.33963,1.07649 z"
         style="fill:#fee6db;fill-opacity:1;fill-rule:nonzero;stroke:none"
         id="path5724"
         inkscape:connector-curvature="0" />
      <path
         d="m -225.02791,219.88707 c 0.13813,-7.16562 5.33625,-15.78087 11.61038,-19.24375 6.2745,-3.4635 11.24925,-0.46237 11.11112,6.70288 -0.13787,7.16462 -5.33737,15.78125 -11.61187,19.24475 -6.27413,3.4625 -11.24813,0.46037 -11.10963,-6.70387"
         style="fill:#f3d2d0;fill-opacity:1;fill-rule:nonzero;stroke:none"
         id="path5726"
         inkscape:connector-curvature="0" />
      <path
         d="m -150.53341,237.67345 25.07213,-13.96563 0,25.08125 -25.07213,13.96563 0,-25.08125 z m 0,-31.92138 25.07213,-13.96562 0,26.791 -25.07213,13.96562 0,-26.791 z m 25.07213,77.80788 -25.07213,13.96587 0,-27.361 25.07213,-13.96562 0,27.36075 z m 5.01412,-30.78113 24.355873,-13.96587 0,27.36137 -24.355873,13.966 0,-27.3615 z m 0,-32.491 24.355873,-13.96562 0,25.08062 -24.355873,13.96563 0,-25.08063 z m 0,-31.92162 24.355873,-13.966 0,26.79162 -24.355873,13.96563 0,-26.79125 z m 28.653253,47.59687 25.78887,-14.53537 0,27.36075 -25.78887,14.536 0,-27.36138 z m 0,-32.49112 25.78887,-14.536 0,25.08125 -25.78887,14.53537 0,-25.08062 z m 0,-31.92163 25.78887,-14.53537 0,26.79062 -25.78887,14.53638 0,-26.79163 z m 30.08625,46.74188 26.03162,-14.55338 c 0,0 0.805,12.83663 0.805,16.23463 0,5.252 -2.2145,12.48525 -9.70587,16.81062 -7.4915,4.32488 -17.13075,9.43938 -17.13075,9.43938 l 0,-27.93125 z m 0,-31.92088 27.22137,-14.53575 0,25.08063 -27.22137,14.53525 0,-25.08013 z m 0,-31.92212 27.22137,-14.53525 0,26.79162 -27.22137,14.53538 0,-26.79175 z m -119.628133,77.80787 0,-8.264 27.22038,-15.10625 0,26.79163 -20.24213,11.56475 1.83475,4.06875 18.40738,-10.5035 0,25.08062 -9.39013,5.4305 2.61463,5.38188 6.7755,-3.98163 -0.0531,19.16125 4.83525,10.9165 c -2.8365,1.58713 76.634633,-42.699 109.579633,-63.1835 6.95725,-4.32562 9.5655,-11.66037 9.5655,-19.07537 l 0,-90.03012 -156.312633,90.22137 5.165,11.52713 z"
         style="fill:#fee6db;fill-opacity:1;fill-rule:nonzero;stroke:none"
         id="path5728"
         inkscape:connector-curvature="0" />
      <path
         d="m 262.71684,37.750455 -1.95875,1.70825 c -1.12325,0.979 -2.413,1.74787 -3.80875,2.2695 l -3.18113,1.18875 29.35801,16.9395 8.949,-5.1665 -29.35838,-16.9395 z"
         style="fill:#ffffff;fill-opacity:1;fill-rule:nonzero;stroke:none"
         id="path5730"
         inkscape:connector-curvature="0" />
      <path
         d="m 260.76084,39.665955 c -0.19275,0.13112 -0.40312,0.26862 -0.63175,0.4135 l 28.62638,16.527 0.674,-0.38938 -28.66863,-16.55112 z m 0.84225,-0.60913 c -0.1605,0.12475 -0.33937,0.258 -0.541,0.40013 l 28.69863,16.56912 0.61687,-0.35575 -28.7745,-16.6135 z m 0.7615,-0.65412 c -0.12787,0.12512 -0.288,0.26975 -0.48437,0.43237 l 28.82874,16.64363 0.61651,-0.35575 -28.96088,-16.72025 z m -2.55437,1.87512 c -0.19025,0.11663 -0.39188,0.23713 -0.60513,0.3625 l 28.60225,16.514 0.61688,-0.35575 -28.614,-16.52075 z m -0.93688,0.5535 c -0.21537,0.12263 -0.4255,0.2385 -0.631,0.34763 l 28.61712,16.52237 0.6165,-0.356 -28.60262,-16.514 z m -4.26325,1.917 c -0.48013,0.15338 -0.74837,0.21225 -0.74837,0.21225 l 12.20212,7.04475 17.06275,9.8515 0.55813,-0.3225 -29.07463,-16.786 z m 2.25638,-0.88587 c -0.24563,0.11262 -0.47938,0.21512 -0.6995,0.3075 l 28.79687,16.626 0.61613,-0.35575 -28.71351,-16.57775 z m 34.79062,13.0695 0.494,-0.28525 -17.0635,-9.8515 -12.20137,-7.04438 c 0,0 -0.0461,0.13288 -0.28563,0.405 l 29.0565,16.77613 z m -33.762,-13.5705 c -0.22788,0.11725 -0.44925,0.2275 -0.66225,0.3295 l 28.6785,16.5575 0.6165,-0.35575 -28.63275,-16.53125 z m -2.86512,1.2465 c 0.22175,-0.0776 0.47237,-0.16975 0.74837,-0.27925 l 28.85413,16.65825 -0.6165,0.35637 -28.986,-16.73537 z"
         style="fill:#d8d8d8;fill-opacity:1;fill-rule:nonzero;stroke:none"
         id="path5732"
         inkscape:connector-curvature="0" />
      <path
         d="m 283.48772,61.702075 0,52.927125 11.78425,-6.80388 0,-52.926745 -11.78425,6.8035 z"
         style="fill:#d97764;fill-opacity:1;fill-rule:nonzero;stroke:none"
         id="path5734"
         inkscape:connector-curvature="0" />
      <path
         d="m 251.22872,43.077455 0,52.92675 32.259,18.624995 0,-52.926745 -32.259,-18.625 z"
         style="fill:#c15a4c;fill-opacity:1;fill-rule:nonzero;stroke:none"
         id="path5736"
         inkscape:connector-curvature="0" />
      <path
         d="m 263.01297,36.273955 -1.41763,0.81812 30.48025,17.59788 -8.94863,5.16712 -30.48025,-17.59775 -1.418,0.81813 32.25926,18.625 11.784,-6.80388 -32.259,-18.62462 z"
         style="fill:#f6917a;fill-opacity:1;fill-rule:nonzero;stroke:none"
         id="path5738"
         inkscape:connector-curvature="0" />
      <path
         d="m 256.24359,71.732825 23.10438,13.33988"
         style="fill:none;stroke:#f6917a;stroke-width:2.50012493;stroke-linecap:butt;stroke-linejoin:miter;stroke-miterlimit:10.00000095;stroke-dasharray:none;stroke-opacity:1"
         id="path5740"
         inkscape:connector-curvature="0" />
      <path
         d="m 255.52709,78.896705 23.10487,13.33987"
         style="fill:none;stroke:#f6917a;stroke-width:2.50012493;stroke-linecap:butt;stroke-linejoin:miter;stroke-miterlimit:10.00000095;stroke-dasharray:none;stroke-opacity:1"
         id="path5742"
         inkscape:connector-curvature="0" />
      <path
         d="m 281.96159,81.172955 -4.58575,-7.35588 -4.58687,2.06 0,-20.16312 9.17262,5.2965 0,20.1625 z"
         style="fill:#8bd6f2;fill-opacity:1;fill-rule:nonzero;stroke:none"
         id="path5744"
         inkscape:connector-curvature="0" />
      <path
         d="m 206.69997,0.04932499 -1.9595,1.70825001 c -1.1225,0.97901 -2.41263,1.74788 -3.808,2.26976 l -3.18113,1.1885 29.35813,16.9395 8.9485,-5.1665 -29.358,-16.93950001 z"
         style="fill:#ffffff;fill-opacity:1;fill-rule:nonzero;stroke:none"
         id="path5746"
         inkscape:connector-curvature="0" />
      <path
         d="m 204.74409,1.964825 c -0.19312,0.13113 -0.40325,0.26863 -0.63213,0.4135 l 28.62638,16.52701 0.67425,-0.389 -28.6685,-16.5515 z m 0.84188,-0.60875 c -0.1595,0.12438 -0.33951,0.25725 -0.54113,0.39963 l 28.699,16.56925 0.61662,-0.35575 -28.77449,-16.61313 z m 0.76137,-0.65450001 c -0.1275,0.12513 -0.28762,0.26975 -0.48438,0.43238001 l 28.82875,16.64387 0.61688,-0.35575 -28.96125,-16.72050001 z m -2.554,1.87513001 c -0.19062,0.11662 -0.39225,0.23712 -0.6055,0.36212 l 28.60263,16.51438 0.6165,-0.35575 -28.61363,-16.52075 z m -0.93712,0.5535 c -0.21513,0.12262 -0.42525,0.2385 -0.63113,0.34762 l 28.61725,16.52275 0.61688,-0.35649 -28.603,-16.51388 z m -4.263,1.91687 c -0.48051,0.15388 -0.74838,0.21226 -0.74838,0.21226 l 12.20213,7.04487 17.0625,9.85137 0.558,-0.322 -29.07425,-16.7865 z m 2.25637,-0.88612 c -0.24587,0.113 -0.47937,0.21575 -0.69975,0.30787 l 28.79712,16.626 0.61588,-0.35575 -28.71325,-16.57812 z m 34.79038,13.06987 0.49387,-0.28525 -17.06312,-9.8515 -12.20138,-7.04437001 c 0,0 -0.0464,0.13287 -0.286,0.405 L 235.63997,17.230835 Z m -33.76175,-13.5705 c -0.22813,0.11725 -0.44963,0.22738 -0.66225,0.3295 l 28.67812,16.5575 0.61688,-0.35575 -28.63275,-16.53125 z m -2.8655,1.2465 c 0.22225,-0.0776 0.47237,-0.16975 0.74837,-0.27925 l 28.85463,16.65813 -0.617,0.3565 -28.986,-16.73538 z"
         style="fill:#d8d8d8;fill-opacity:1;fill-rule:nonzero;stroke:none"
         id="path5748"
         inkscape:connector-curvature="0" />
      <path
         d="m 227.47047,24.001325 0,52.92675 11.78437,-6.80349 0,-52.92713 -11.78437,6.80388 z"
         style="fill:#d97764;fill-opacity:1;fill-rule:nonzero;stroke:none"
         id="path5750"
         inkscape:connector-curvature="0" />
      <path
         d="m 195.21147,5.376325 0,52.92713 32.25937,18.62462 0,-52.92675 -32.25937,-18.625 z"
         style="fill:#c15a4c;fill-opacity:1;fill-rule:nonzero;stroke:none"
         id="path5752"
         inkscape:connector-curvature="0" />
      <path
         d="m 206.99622,-1.427175 -1.41813,0.81812999 30.48025,17.59787001 -8.94863,5.16675 -30.48024,-17.59737 -1.41763,0.81812 32.259,18.625 11.78425,-6.80387 -32.25887,-18.62463 z"
         style="fill:#f6917a;fill-opacity:1;fill-rule:nonzero;stroke:none"
         id="path5754"
         inkscape:connector-curvature="0" />
      <path
         d="m 200.22634,34.031705 23.10488,13.33987"
         style="fill:none;stroke:#f6917a;stroke-width:2.50012493;stroke-linecap:butt;stroke-linejoin:miter;stroke-miterlimit:10.00000095;stroke-dasharray:none;stroke-opacity:1"
         id="path5756"
         inkscape:connector-curvature="0" />
      <path
         d="m 199.50984,41.195575 23.10487,13.33988"
         style="fill:none;stroke:#f6917a;stroke-width:2.50012493;stroke-linecap:butt;stroke-linejoin:miter;stroke-miterlimit:10.00000095;stroke-dasharray:none;stroke-opacity:1"
         id="path5758"
         inkscape:connector-curvature="0" />
      <path
         d="m 225.94472,43.471825 -4.58613,-7.35587 -4.58612,2.06 0,-20.16275 9.17225,5.29575 0,20.16287 z"
         style="fill:#8bd6f2;fill-opacity:1;fill-rule:nonzero;stroke:none"
         id="path5760"
         inkscape:connector-curvature="0" />
      <path
         d="m 278.61072,-34.858295 -29.42688,-16.98975 -53.61975,30.55425 29.42637,16.98975 53.62026,-30.55425 z m -59.74513,-34.49375 -30.318,-17.50425 -53.62013,30.55387 30.31825,17.50438 53.61988,-30.554 z m -113.365,-3.93975 -30.318247,-17.50437 53.620877,-30.553885 30.31787,17.50425 -53.6205,30.554005 z"
         style="fill:#54bedb;fill-opacity:1;fill-rule:nonzero;stroke:none"
         id="path5762"
         inkscape:connector-curvature="0" />
      <path
         d="m 312.56084,-15.516795 -33.94987,-19.3415 -53.62013,30.55387 30.31838,17.504 57.25162,-28.71637 z m -63.377,-36.33063 -30.318,-17.505 -53.62012,30.55438 30.31837,17.50425 53.61975,-30.55363 z m -114.256,-4.45499 -29.42687,-16.98938 53.61987,-30.553635 29.42675,16.989135 -53.61975,30.55388 z"
         style="fill:#443560;fill-opacity:1;fill-rule:nonzero;stroke:none"
         id="path5764"
         inkscape:connector-curvature="0" />
      <path
         d="m 211.79559,2.495955 13.63363,-6.77338 -29.74613,-17.00962 -13.63388,6.80387 c 0,10.83438 6.7135,23.71038 14.83938,28.00875 l 0.1265,0 c 8.12575,5.01413 14.7805,-0.19525 14.7805,-11.02962 z m -60.11262,-34.57413 13.63362,-6.733 -30.36613,-17.504 -13.63362,6.733 c 0,10.83438 6.66962,23.42025 14.7955,28.11188 l 0.974,0.51525 c 8.12588,4.69137 14.59662,-0.28875 14.59662,-11.12313 z m -74.215877,-23.37062 -0.91137,-0.51488 c -8.12551,-4.692 -14.73238,-17.27825 -14.73238,-28.11225 l 13.63425,-6.73337 30.366497,17.50437 -13.634247,6.733 c 0,10.83438 -6.59688,15.8145 -14.72275,11.12313"
         style="fill:#8bd6f2;fill-opacity:1;fill-rule:nonzero;stroke:none"
         id="path5766"
         inkscape:connector-curvature="0" />
      <path
         d="m 242.16172,19.919455 13.63362,-6.733 -30.36612,-17.50388 -13.63363,6.73263 c 0,10.83463 6.56575,23.42125 14.69163,28.1125 l 0.8695,0.5145 c 8.12662,4.69175 14.805,-0.28837 14.805,-11.12275 z m -60.1125,-34.49375 13.6335,-6.733 -30.36613,-17.50425 -13.63362,6.73337 c 0,10.834 6.65725,23.42088 14.78312,28.11225 l 0.96263,0.51476 c 8.12587,4.69137 14.6205,-0.288 14.6205,-11.12313 z m -75.30488,-24.19375 0.079,0 c -8.125867,-4.29838 -14.633867,-17.00675 -14.633867,-27.8415 l 13.634617,-6.71413 29.12638,16.999 -13.63363,6.7 c 0,10.83438 -6.44662,15.87088 -14.5725,10.85663"
         style="fill:#725d95;fill-opacity:1;fill-rule:nonzero;stroke:none"
         id="path5768"
         inkscape:connector-curvature="0" />
    </g>
  </g>
</svg>
