<?xml version="1.0" encoding="UTF-8" standalone="no"?>
<!-- Created with Inkscape (http://www.inkscape.org/) -->

<svg
   xmlns:dc="http://purl.org/dc/elements/1.1/"
   xmlns:cc="http://creativecommons.org/ns#"
   xmlns:rdf="http://www.w3.org/1999/02/22-rdf-syntax-ns#"
   xmlns:svg="http://www.w3.org/2000/svg"
   xmlns="http://www.w3.org/2000/svg"
   xmlns:sodipodi="http://sodipodi.sourceforge.net/DTD/sodipodi-0.dtd"
   xmlns:inkscape="http://www.inkscape.org/namespaces/inkscape"
   width="475.64685mm"
   height="260.25287mm"
   viewBox="0 0 1685.3628 922.15582"
   id="svg2"
   version="1.1"
   inkscape:version="0.91 r13725"
   sodipodi:docname="oftalmolaser.svg">
  <defs
     id="defs4">
    <clipPath
       clipPathUnits="userSpaceOnUse"
       id="clipPath54">
      <path
         d="m 27.81038,0 c 0,0 -5.75944,-2.62269 -9.40367,-5.29617 -2.8327,-2.0781 -6.01068,-5.54733 -6.01068,-5.54733 -0.26841,1.33097 2.38099,4.32081 3.33465,5.50737 -6.64844,-4.56327 -6.79041,-9.69425 -6.79041,-9.69425 -3.23709,-1.28946 -5.77778,-4.88209 -7.66905,-9.27598 0,0 3.31936,4.18224 5.135,4.90692 C 3.92069,-23.91965 0,-31.97109 0.74857,-39.59461 c 0.66692,6.68369 2.47893,12.92584 6.54761,18.83504 -0.82961,-18.87864 2.75839,-30.21505 9.22077,-39.06909 -7.47386,13.36326 -8.02509,28.18588 -5.5301,41.92179 0.11444,-0.06678 6.84224,-4.06191 11.67104,-6.70888 4.15864,-2.27955 13.07265,-7.30052 13.07265,-7.30052 l -22.3549,16.8666 c 0,0 4.59699,2.95471 11.84713,5.51739 6.63255,2.34435 14.03246,3.17018 17.34229,3.4055 3.05071,0.21693 9.63638,0.30829 9.63638,0.30829 0,0 -3.31912,0.28178 -4.47505,0.34717 -1.15554,0.06535 -7.6618,0.43699 -12.73179,-0.086 -7.44288,-0.73677 -14.60176,-2.37521 -21.36307,-5.86464 2.00361,2.78973 4.66801,5.12767 6.90846,6.89039 C 22.98308,-2.60956 27.81038,0 27.81038,0 Z"
         id="path56"
         inkscape:connector-curvature="0"
         style="clip-rule:evenodd" />
    </clipPath>
    <clipPath
       clipPathUnits="userSpaceOnUse"
       id="clipPath58">
      <path
         d="m 0,-59.82866 52.20144,0 L 52.20144,0 0,0 0,-59.82866 Z"
         id="path60"
         inkscape:connector-curvature="0" />
    </clipPath>
    <linearGradient
       x1="7.89569"
       y1="-15.16594"
       x2="40.83923"
       y2="-36.34597"
       gradientUnits="userSpaceOnUse"
       spreadMethod="pad"
       id="linearGradient62">
      <stop
         style="stop-opacity:1;stop-color:#ff3300"
         offset="0"
         id="stop64" />
      <stop
         style="stop-opacity:1;stop-color:#ffff00"
         offset="1"
         id="stop66" />
    </linearGradient>
    <clipPath
       clipPathUnits="userSpaceOnUse"
       id="clipPath54-1">
      <path
         d="m 27.81038,0 c 0,0 -5.75944,-2.62269 -9.40367,-5.29617 -2.8327,-2.0781 -6.01068,-5.54733 -6.01068,-5.54733 -0.26841,1.33097 2.38099,4.32081 3.33465,5.50737 -6.64844,-4.56327 -6.79041,-9.69425 -6.79041,-9.69425 -3.23709,-1.28946 -5.77778,-4.88209 -7.66905,-9.27598 0,0 3.31936,4.18224 5.135,4.90692 C 3.92069,-23.91965 0,-31.97109 0.74857,-39.59461 c 0.66692,6.68369 2.47893,12.92584 6.54761,18.83504 -0.82961,-18.87864 2.75839,-30.21505 9.22077,-39.06909 -7.47386,13.36326 -8.02509,28.18588 -5.5301,41.92179 0.11444,-0.06678 6.84224,-4.06191 11.67104,-6.70888 4.15864,-2.27955 13.07265,-7.30052 13.07265,-7.30052 l -22.3549,16.8666 c 0,0 4.59699,2.95471 11.84713,5.51739 6.63255,2.34435 14.03246,3.17018 17.34229,3.4055 3.05071,0.21693 9.63638,0.30829 9.63638,0.30829 0,0 -3.31912,0.28178 -4.47505,0.34717 -1.15554,0.06535 -7.6618,0.43699 -12.73179,-0.086 -7.44288,-0.73677 -14.60176,-2.37521 -21.36307,-5.86464 2.00361,2.78973 4.66801,5.12767 6.90846,6.89039 C 22.98308,-2.60956 27.81038,0 27.81038,0 Z"
         id="path56-6"
         inkscape:connector-curvature="0"
         style="clip-rule:evenodd" />
    </clipPath>
    <clipPath
       clipPathUnits="userSpaceOnUse"
       id="clipPath58-5">
      <path
         d="m 0,-59.82866 52.20144,0 L 52.20144,0 0,0 0,-59.82866 Z"
         id="path60-6"
         inkscape:connector-curvature="0" />
    </clipPath>
    <linearGradient
       x1="7.89569"
       y1="-15.16594"
       x2="40.83923"
       y2="-36.34597"
       gradientUnits="userSpaceOnUse"
       spreadMethod="pad"
       id="linearGradient62-1">
      <stop
         style="stop-opacity:1;stop-color:#ff3300"
         offset="0"
         id="stop64-4" />
      <stop
         style="stop-opacity:1;stop-color:#ffff00"
         offset="1"
         id="stop66-8" />
    </linearGradient>
  </defs>
  <sodipodi:namedview
     id="base"
     pagecolor="#ffffff"
     bordercolor="#666666"
     borderopacity="1.0"
     inkscape:pageopacity="0.0"
     inkscape:pageshadow="2"
     inkscape:zoom="0.08"
     inkscape:cx="279.52442"
     inkscape:cy="806.22403"
     inkscape:document-units="px"
     inkscape:current-layer="layer1"
     showgrid="false"
     inkscape:window-width="1366"
     inkscape:window-height="705"
     inkscape:window-x="-8"
     inkscape:window-y="-8"
     inkscape:window-maximized="1"
     showguides="true"
     inkscape:snap-bbox="true"
     inkscape:snap-global="false"
     inkscape:bbox-paths="true"
     inkscape:bbox-nodes="true"
     inkscape:snap-bbox-edge-midpoints="true"
     inkscape:object-paths="true"
     inkscape:snap-intersection-paths="true"
     inkscape:object-nodes="true"
     inkscape:snap-smooth-nodes="true"
     inkscape:snap-midpoints="true"
     fit-margin-top="0"
     fit-margin-left="0"
     fit-margin-right="0"
     fit-margin-bottom="0" />
  <metadata
     id="metadata7">
    <rdf:RDF>
      <cc:Work
         rdf:about="">
        <dc:format>image/svg+xml</dc:format>
        <dc:type
           rdf:resource="http://purl.org/dc/dcmitype/StillImage" />
        <dc:title></dc:title>
      </cc:Work>
    </rdf:RDF>
  </metadata>
  <g
     inkscape:label="Capa 1"
     inkscape:groupmode="layer"
     id="layer1"
     transform="translate(-1242.8431,357.05868)">
    <g
       id="g4253"
       transform="matrix(0.75313437,0,0,0.75313437,314.42731,-86.01271)">
      <g
         style="stroke:none;stroke-opacity:1"
         id="g84"
         transform="matrix(20.465511,0,0,-20.465511,1140.6876,945.46552)">
        <g
           style="stroke:none;stroke-opacity:1"
           id="g86"
           transform="translate(76.9094,46.47452)">
          <path
             inkscape:connector-curvature="0"
             id="path88"
             style="fill:#ee1d27;fill-opacity:0.86000001;fill-rule:evenodd;stroke:none;stroke-opacity:1"
             d="m 13.48363,-0.00549 c -0.28491,-0.00804 -0.68336,-0.1658 -1.18314,-0.51313 -0.84176,-0.58497 -1.84267,-1.64487 -1.84267,-1.64487 0,0 0.98426,0.1422 2.27067,0.72718 1.28642,0.58497 1.38242,0.94914 1.17595,1.24953 C 13.82059,-0.06474 13.67863,0 13.48363,-0.00549 Z M 5.81976,-0.02905 c 0,0 -0.50787,-0.0708 -0.97636,-0.10242 C 4.37486,-0.16309 4.00164,-0.13995 3.96988,-0.14786 3.93815,-0.15576 3.88227,-0.17871 3.90611,-0.21034 3.92995,-0.24196 4.00149,-0.44802 3.99355,-0.59032 3.98561,-0.73261 3.62843,-1.871 3.40606,-2.47177 3.18373,-3.07256 2.66777,-4.29769 2.45337,-4.74039 2.23897,-5.18308 1.48498,-6.81138 1.11175,-7.62561 0.73853,-8.4398 0.30152,-9.14354 0.17446,-9.79178 0.04741,-10.43995 0,-10.93047 0.29381,-11.1202 c 0.29382,-0.18966 0.97634,-0.55327 1.34162,-0.36354 0.36529,0.18966 0.65767,0.36548 0.65767,0.36548 0.20129,0.12661 0.40979,0.13865 0.40979,0.13865 0.11341,0.02169 0.0536,0.2124 -0.04272,0.18413 -0.07942,-0.02371 -0.37339,-0.07105 -0.54015,0.03171 -0.16676,0.10283 -0.4136,0.18195 -0.4136,0.90131 0,0.71937 0.17511,1.06645 0.34981,1.49333 0.1747,0.4268 1.84256,3.98435 2.31903,4.9725 0.47646,0.98812 1.08755,2.25276 1.2305,2.6322 0.14292,0.37944 0.26207,0.56152 0.25413,0.62476 -0.00793,0.06324 -0.04013,0.11062 -0.04013,0.11062 l 0,0 z m 22.29511,-3.03062 c -0.52626,9.9e-4 -1.19567,-0.07584 -2.04524,-0.27347 -3.39877,-0.79049 -5.05079,-3.49367 -5.05079,-5.26439 0,-1.77078 1.84304,-2.92517 3.39952,-2.92517 1.55625,0 2.35017,0.36338 2.55663,0.44251 0.20647,0.07897 0.88894,0.3482 0.88894,0.3482 l 0.79414,1.56497 c -0.59293,-0.46158 -1.51261,-1.71462 -3.3828,-1.84968 -1.52445,-0.0175 -2.37799,0.54833 -2.57313,1.42258 -0.22237,0.99607 0.23871,2.35569 0.23871,2.35569 0,0 0.35331,0.09889 0.95681,0.14238 0.6035,0.04346 1.39336,-0.03186 3.09263,0.44245 3.39877,0.94859 3.08184,2.27721 3.03414,2.62501 -0.0357,0.2609 -0.33051,0.96595 -1.90956,0.96892 l 0,0 z M 10.68416,-3.08836 c -0.0267,-5.1e-4 -0.05392,-0.00181 -0.08129,-0.00305 -0.96874,-0.0438 -2.68421,-0.27946 -3.95693,-0.20997 -0.11119,0.01579 -0.09466,-0.0164 -0.09466,-0.0164 0,0 -0.55584,-1.16971 -0.61938,-1.31199 -0.0635,-0.1423 0.0537,-0.11726 0.0537,-0.11726 1.50877,1.02767 1.85139,1.02967 3.36002,1.08205 1.36584,0.04742 1.49378,-0.93335 1.46199,-1.50252 -0.01785,-0.31972 -0.12765,-0.72054 -0.20572,-0.97298 -0.5954,0.01597 -1.83952,-0.0248 -3.35204,-0.49673 C 5.1217,-7.30125 3.5645,-8.09168 3.31039,-9.86246 c -0.25411,-1.7707 1.79498,-1.88146 3.08142,-1.51785 0.96567,0.27297 2.19095,1.14206 2.74187,1.55884 -0.01552,-0.68302 0.1689,-1.18476 0.45066,-1.48001 0.30171,-0.3162 0.71501,-0.15773 0.71501,-0.15773 l 1.26962,0.80604 c 0,0 0.11197,0.25248 -0.06277,0.12602 -0.17467,-0.12646 -0.39756,0.03193 -0.63582,0.20581 -0.23827,0.17395 -0.09532,0.61698 0.25416,1.69203 0.34934,1.07512 0.78972,1.97906 1.20677,3.06648 0.41061,1.07042 0.03338,2.50718 -1.64715,2.47447 l 0,0 z m 7.65873,-0.0215 c -0.77179,-0.0014 -1.6134,-0.11249 -2.29437,-0.44451 -2.01726,-0.98363 -1.44541,-2.26148 -1.04838,-2.76739 0.39703,-0.50594 1.56368,-0.8991 2.52483,-1.28029 1.95352,-0.77464 1.59496,-2.2088 -0.06374,-3.05112 -1.59765,-0.8112 -3.52537,-0.07912 -4.01772,0.47422 -0.42605,0.47893 -0.54012,1.24855 -0.54012,1.24855 l -0.0792,-0.01541 -0.73054,-2.07089 c 0,0 0.4445,0.09498 0.95275,0.03171 0.47383,-0.05893 1.15908,-0.42501 2.55664,-0.42501 1.39771,0 2.36681,0.09274 3.33554,0.72513 0.96889,0.63238 1.50834,1.43843 1.50834,2.29218 0,0.85368 -0.34934,1.37546 -1.34987,1.73909 -1.00053,0.36364 -2.24119,0.69378 -2.66785,1.17065 -0.45035,0.50338 -0.25911,1.72364 1.47218,1.91292 1.73512,0.18973 2.09286,-0.30127 2.49821,-0.53843 0.45921,-0.26866 0.42898,-0.94843 0.42898,-0.94843 l 0.11122,0.03175 0.49273,1.58138 c -0.15877,-0.06322 -0.64309,-0.11258 -0.95366,0.03175 -0.26803,0.12452 -1.14369,0.30396 -2.13597,0.30215 z m 18.31964,-0.15056 c -1.79557,-0.00216 -2.90672,-1.29376 -3.00819,-1.3921 -0.10132,-0.09828 -0.28769,-0.31627 -0.60305,-0.62559 -0.20804,-0.20399 -0.21172,0.17145 -0.21172,0.17145 0,0 0.20242,0.6505 0.20242,1.02997 0,0.37942 -0.38166,0.39531 -0.38166,0.39531 l -1.50413,0 c -0.10709,0 -0.16927,-0.14246 -0.02992,-0.20484 0.43865,-0.19608 0.4556,-0.37896 0.47195,-0.73791 0.02745,-0.60357 -0.14474,-0.95407 -0.14474,-0.95407 l -2.54119,-5.72328 1.52476,0 c 0,0 1.27044,3.11438 1.49281,3.66772 0.22236,0.55334 0.36493,0.93323 1.17504,1.9767 0.80997,1.04348 1.33464,1.28008 2.04951,1.35913 0.71464,0.07906 1.12757,-0.25299 1.12757,-0.25299 l 0.6512,1.28128 c -0.0915,0.00667 -0.18232,0.00932 -0.27066,0.00922 l 0,0 z m -9.16706,-0.27347 c 0.33231,-0.00236 0.62982,-0.08875 0.86118,-0.28985 0.87356,-0.75886 -0.38128,-1.9764 -1.77884,-2.52978 -1.39756,-0.55335 -3.39824,-0.31545 -3.39824,-0.31545 0,0 0.5183,1.28902 1.74697,2.13444 0.74246,0.51087 1.71187,0.97934 2.50218,0.99964 0.02243,5.4e-4 0.04463,0.00117 0.06675,10e-4 l 0,0 z M 9.69541,-6.68945 c 0.15824,-5.9e-4 0.30748,-0.00994 0.4445,-0.02767 0.16522,-1.11849 -1.76009,-3.56129 -3.19253,-4.01487 -1.61995,-0.47429 -2.25527,0.45851 -1.88999,1.62854 0.71849,1.62315 3.10876,2.41956 4.63802,2.414 z" />
        </g>
      </g>
      <g
         style="stroke:none;stroke-opacity:1"
         id="g90"
         transform="matrix(20.465511,0,0,-20.465511,1140.6876,945.46552)">
        <g
           style="stroke:none;stroke-opacity:1"
           id="g92"
           transform="translate(40.72434,32.80983)">
          <path
             inkscape:connector-curvature="0"
             id="path94"
             style="fill:#137578;fill-opacity:1;fill-rule:evenodd;stroke:none;stroke-opacity:1"
             d="m 31.57956,-0.0078 c -0.10095,-0.00154 -0.21704,-0.00674 -0.35189,-0.01434 -0.9592,-0.05407 -2.17092,-0.99392 -2.40139,-2.20613 -0.21516,-1.132 0.6056,-1.87632 1.85092,-1.82207 0.73939,-0.01368 1.24952,0.40853 1.69657,0.67803 0.14947,0.13123 0.01763,0.31446 -0.14099,0.21406 -0.84829,-0.62685 -1.27187,-0.62013 -1.54733,-0.63501 -0.81154,-0.04386 -1.45449,0.50888 -1.19957,1.6592 0.19431,0.87737 0.93018,1.6158 1.54425,1.78417 0.61392,0.16838 1.13643,0.12725 1.46611,-0.32672 0.0885,-0.14953 0.1122,-0.29128 0.10897,-0.37486 -0.003,-0.08358 0.12787,-0.18265 0.23466,-0.09115 0.10672,0.0915 0.04035,0.20907 0.0678,0.34721 0.02768,0.13814 0.09952,0.20513 0.09052,0.28575 -0.0092,0.08865 -0.07214,0.13629 -0.14804,0.15977 -0.55633,0.22839 -0.64625,0.33807 -1.17505,0.34209 -0.03045,3.3e-4 -0.06202,4.9e-4 -0.09554,0 z M 2.40339,-0.00983 C 1.51962,-0.02315 0.86684,-0.48911 0.856,-1.13134 0.86791,-1.55495 1.30655,-1.85603 1.54534,-2.02854 1.78411,-2.20104 2.28836,-2.51243 2.2964,-2.90833 2.3083,-3.49407 1.47292,-3.87225 1.06074,-3.83832 c -0.41216,0.03391 -0.56259,0.2338 -0.60496,0.38716 -0.04574,0.13379 -0.01774,0.26968 0,0.33082 0.01519,0.0251 0.02409,0.0551 0.02264,0.08706 C 0.4742,-2.95119 0.4075,-2.88803 0.32923,-2.89194 0.26046,-2.89539 0.20565,-2.94921 0.19548,-3.01792 l 0,-0.00101 C 0.19292,-3.02532 0.1913,-3.03162 0.19034,-3.03737 0.18264,-3.08337 0.1628,-3.24054 0.15124,-3.30571 0.13969,-3.3709 0.08631,-3.47385 0.02469,-3.56588 0.02436,-3.5663 0.0239,-3.56649 0.02367,-3.56689 0.01856,-3.57475 0.01412,-3.58353 0.01133,-3.59248 0.00409,-3.61152 0,-3.6323 0.00104,-3.65394 c 0.00316,-0.066 0.04818,-0.11952 0.10803,-0.13828 0.13863,-0.04214 0.40089,-0.38723 1.19037,-0.29907 1.03822,0.11596 1.50932,0.88198 1.50933,1.37655 0,0.49455 -0.36643,0.75107 -0.72843,1.06926 -0.362,0.31821 -0.75337,0.54408 -0.67595,0.82551 0.10501,0.38176 0.54038,0.52607 0.77884,0.54796 0.23845,0.02188 0.62002,-0.02836 0.67389,-0.24991 0.02846,-0.10826 0.04401,-0.20658 0.02573,-0.25605 -0.0139,-0.02031 -0.0228,-0.04481 -0.02367,-0.07067 -0.00184,-0.06644 0.05369,-0.13529 0.11729,-0.13212 0.05589,0.00279 0.10465,0.04681 0.11729,0.10242 3e-5,3.2e-4 0,8.2e-4 0,0.00101 0.00247,0.00517 0.004,0.00969 0.00514,0.01435 0.00919,0.03722 0.03482,0.16438 0.04835,0.21713 0.01353,0.05274 0.06359,0.13652 0.11936,0.21098 3.6e-4,3.3e-4 8.1e-4,6.9e-4 0.00101,0.00102 0.00466,0.00636 0.00849,0.01322 0.01132,0.02048 0.00707,0.01542 0.0118,0.03165 0.01235,0.04916 0.00168,0.05342 -0.03097,0.0975 -0.07819,0.11266 C 2.96009,-0.1794 2.84821,0 2.40339,-0.00983 l 0,0 z m 55.07518,-0.08296 c -0.12839,-4.3e-4 -0.34498,-0.03103 -0.3908,-0.04814 -0.03555,-0.01771 -0.35714,-0.01428 -0.43723,0.01229 -0.06015,0.01991 -0.10957,0.02742 -0.20474,0.02868 -0.03165,3.9e-4 -0.06263,-6.9e-4 -0.0915,-0.00512 -0.11557,-0.01771 -0.08662,-0.18613 -0.04222,-0.20382 0.06464,-0.03276 0.06562,0.01889 0.23451,-0.06965 0.16889,-0.08853 0.0405,-0.2818 0.0309,-0.39637 0,0 -0.6104,-2.18914 -0.67924,-2.44581 -0.06878,-0.25662 -0.12082,-0.38775 -0.23872,-0.47623 -0.15599,-0.05841 -0.37633,-0.07509 -0.39703,-0.16081 -0.0306,-0.12621 0.0043,-0.21231 0.15734,-0.17412 0.19559,0.0776 0.60448,0.11625 0.84686,0.06251 0.27682,-0.06143 0.37761,-0.06425 0.37964,0.07678 0.0036,0.14555 -0.26242,0.13265 -0.31574,0.19461 -0.07447,0.10036 -0.01552,0.29598 -0.01552,0.29598 0.04545,0.15702 0.77891,2.81297 0.80561,2.87496 0.15704,0.2453 0.33651,0.19767 0.40633,0.21507 0.0552,0.01382 0.0951,0.1751 0.04118,0.20792 -0.01358,0.00821 -0.0468,0.01141 -0.08963,0.01127 l 0,0 z m 2.50751,0 c -0.12854,-4.3e-4 -0.34513,-0.03103 -0.39125,-0.04814 -0.03555,-0.01771 -0.35684,-0.01428 -0.43723,0.01229 -0.05985,0.01991 -0.10957,0.02742 -0.20474,0.02868 -0.03165,3.9e-4 -0.06255,-6.9e-4 -0.0915,-0.00512 -0.11549,-0.01771 -0.08662,-0.18613 -0.04222,-0.20382 0.06465,-0.03276 0.06562,0.01889 0.23481,-0.06965 0.16889,-0.08853 0.0405,-0.2818 0.03068,-0.39637 0,0 -0.10312,-0.37066 -0.16965,-0.6094 -0.04304,-0.03405 -0.11219,-0.03174 -0.11219,-0.03174 l -1.58228,0 c -0.08954,0 -0.21014,-0.03497 -0.21014,-0.1434 0,-0.10841 0.10515,-0.11163 0.10515,-0.11163 0,0 1.4664,0.01536 1.57522,0.01536 0.0693,0 0.1044,-0.06012 0.1203,-0.10345 -0.17654,-0.63425 -0.36651,-1.31698 -0.40543,-1.46155 -0.06862,-0.25662 -0.12067,-0.38775 -0.23857,-0.47623 -0.15614,-0.05841 -0.37633,-0.07509 -0.3971,-0.16081 -0.03053,-0.12621 0.004,-0.21231 0.15741,-0.17412 0.19552,0.0776 0.6041,0.11625 0.84687,0.06251 0.27643,-0.06143 0.37745,-0.06425 0.37948,0.07678 0.0036,0.14555 -0.26242,0.13265 -0.31604,0.19461 -0.07402,0.10036 -0.01515,0.29598 -0.01515,0.29598 0.04553,0.15702 0.77869,2.81297 0.80532,2.87496 0.15696,0.2453 0.33688,0.19767 0.40655,0.21507 0.05535,0.01382 0.0951,0.1751 0.04118,0.20792 -0.01343,0.00821 -0.04665,0.01141 -0.08948,0.01127 l 0,0 z M 14.56133,-0.10508 c -0.03164,3.9e-4 -0.06277,-6.9e-4 -0.09149,-0.00512 -0.11572,-0.01771 -0.07132,-0.18612 -0.02685,-0.20382 0.04447,-0.01771 0.13349,-0.00876 0.30254,-0.0973 0.16889,-0.08854 0.06172,-0.38101 0.06172,-0.38101 0,0 -0.59607,-2.15141 -0.72949,-2.51442 -0.06435,-0.17515 -0.17804,-0.29006 -0.27884,-0.36256 -0.0031,-0.002 -0.0061,-0.0042 -0.0092,-0.00615 -0.17542,-0.10735 -0.46363,-0.15133 -0.58235,-0.15772 -0.39974,-0.02163 -0.6251,0.32007 -0.54425,0.67391 0.09854,0.43152 0.43033,0.74233 0.72019,0.83064 0.23901,0.07281 0.44638,0.06065 0.572,-0.06555 4.5e-4,-6.2e-4 6e-4,-0.00144 0.0011,-0.00203 0.02272,-0.03033 0.05894,-0.04905 0.09974,-0.04712 0.0654,0.00311 0.11632,0.05785 0.11325,0.12291 l 0,0.00101 c -0.0023,0.04259 -0.0276,0.07845 -0.06277,0.09731 -0.18382,0.1408 -0.33899,0.15278 -0.54425,0.1567 -0.01778,3.6e-4 -0.03563,0 -0.05453,0 -0.0189,0 -0.03885,-3.3e-4 -0.05864,-0.00102 -0.61348,-0.02671 -1.1875,-0.50165 -1.28297,-1.06108 -0.09555,-0.55941 0.32383,-0.99049 0.93723,-0.96379 0.37723,0 0.5762,0.12908 0.73362,0.23454 0.07942,-0.0545 0.14542,-0.20594 0.18824,-0.22017 0.0534,-0.0177 0.20429,0.12427 0.29324,0.13312 0.08894,0.00885 0.24861,-0.06218 0.36425,-0.07986 0.11557,-0.01771 0.16005,0.16839 0.1245,0.20379 -0.0357,0.03542 -0.20384,0.02611 -0.25731,0.08809 -0.0534,0.06198 -0.05355,0.33697 -0.05355,0.33697 0,0 0.81806,2.94816 0.84483,3.01013 0.02663,0.06198 0.11535,0.15004 0.07095,0.21201 -0.04447,0.06199 -0.19589,0.06175 -0.23159,0.04405 -0.0354,-0.01771 -0.28409,-0.04398 -0.36403,-0.01741 -0.06015,0.01991 -0.16027,0.03971 -0.25522,0.04096 l 0,-1e-5 z m 5.79244,0 c -0.0318,3.9e-4 -0.0627,-6.9e-4 -0.09165,-0.00512 -0.11549,-0.01771 -0.07117,-0.18612 -0.02677,-0.20382 0.04455,-0.01771 0.13364,-0.00876 0.30246,-0.0973 0.16904,-0.08854 0.06277,-0.38101 0.06277,-0.38101 0,0 -0.59599,-2.15141 -0.72941,-2.51442 -0.0645,-0.17542 -0.17887,-0.29009 -0.27974,-0.36256 -0.0031,-0.0019 -0.0053,-0.00433 -0.0083,-0.00615 -0.17542,-0.10735 -0.46475,-0.15133 -0.5834,-0.15772 -0.3998,-0.02163 -0.62509,0.32004 -0.54425,0.67391 0.09847,0.43152 0.43033,0.74233 0.72019,0.83064 0.23902,0.07281 0.44631,0.06065 0.572,-0.06555 3.8e-4,-6.2e-4 5.3e-4,-0.00144 9.8e-4,-0.00203 0.02287,-0.03033 0.05902,-0.04905 0.09989,-0.04712 0.0654,0.00311 0.11625,0.05785 0.1131,0.12291 l 0,0.00101 c -0.0023,0.04259 -0.0276,0.07845 -0.06277,0.09731 -0.18375,0.1408 -0.33891,0.15278 -0.54418,0.1567 -0.01785,3.6e-4 -0.03577,0 -0.05452,0 -0.01898,0 -0.03877,-3.3e-4 -0.05872,-0.00102 -0.61348,-0.02671 -1.1875,-0.50165 -1.2829,-1.06108 -0.09554,-0.55941 0.32376,-0.99049 0.93724,-0.96379 0.37678,0 0.57627,0.12914 0.73361,0.23454 0.07935,-0.0545 0.14542,-0.20594 0.18824,-0.22017 0.05333,-0.0177 0.2043,0.12427 0.29317,0.13312 0.08894,0.00885 0.24973,-0.06218 0.36523,-0.07986 0.11564,-0.01771 0.16004,0.16839 0.12449,0.20379 -0.03554,0.03542 -0.20489,0.02611 -0.25821,0.08809 -0.05332,0.06198 -0.05347,0.33697 -0.05347,0.33697 0,0 0.81799,2.94816 0.84461,3.01013 0.02677,0.06198 0.11557,0.15004 0.07102,0.21201 -0.0444,0.06199 -0.19476,0.06175 -0.23046,0.04405 -0.03555,-0.01771 -0.28514,-0.04398 -0.36524,-0.01741 -0.05999,0.01991 -0.16004,0.03971 -0.25506,0.04096 l 0,-1e-5 z m 4.00429,0 c -0.03172,3.9e-4 -0.06277,-6.9e-4 -0.09157,-0.00512 -0.11564,-0.01771 -0.07125,-0.18612 -0.02685,-0.20382 0.04448,-0.01772 0.13357,-0.00876 0.30261,-0.0973 0.16882,-0.08854 0.0627,-0.38101 0.0627,-0.38101 0,0 -0.59607,-2.15141 -0.72942,-2.51442 -0.06502,-0.17673 -0.18044,-0.29223 -0.28191,-0.36463 -0.0022,-0.00131 -0.0041,-0.00277 -0.0062,-0.00408 -0.17534,-0.10735 -0.46356,-0.15133 -0.58235,-0.15772 -0.39981,-0.02163 -0.6251,0.32007 -0.54425,0.67391 0.09847,0.43152 0.43025,0.74233 0.72019,0.83064 0.23902,0.07281 0.44646,0.06065 0.57207,-0.06555 4.5e-4,-6.2e-4 -3.7e-4,-0.00144 0,-0.00203 0.02273,-0.03033 0.05888,-0.04905 0.09983,-0.04712 0.06532,0.00311 0.11624,0.05785 0.11317,0.12291 l 0,0.00101 c -0.0023,0.0426 -0.0276,0.07845 -0.06285,0.09731 -0.18382,0.1408 -0.33891,0.15279 -0.54425,0.1567 -0.01733,3.6e-4 -0.03503,2e-5 -0.05347,0 l -0.001,0 c -0.0186,0 -0.03803,-3.7e-4 -0.05753,-0.00102 -0.61347,-0.02671 -1.18749,-0.50165 -1.28304,-1.06108 -0.09539,-0.55941 0.32384,-0.99052 0.93731,-0.96379 0.37678,0 0.57515,0.12914 0.73249,0.23454 0.0795,-0.0545 0.14542,-0.20594 0.18824,-0.22017 0.05332,-0.0177 0.20429,0.12427 0.29324,0.13312 0.08902,0.00885 0.24966,-0.06218 0.36538,-0.07986 0.1155,-0.01771 0.16004,0.16839 0.12442,0.20379 -0.03555,0.03542 -0.20481,0.02611 -0.25821,0.08809 -0.05332,0.06198 -0.05362,0.33697 -0.05362,0.33697 0,0 0.81806,2.94816 0.84483,3.01013 0.02655,0.06198 0.1164,0.15004 0.072,0.21201 -0.04455,0.06199 -0.19597,0.06175 -0.23152,0.04405 -0.03554,-0.01771 -0.28528,-0.04398 -0.36523,-0.01741 -0.06015,0.0199 -0.16019,0.03971 -0.25514,0.04096 l 0,-1e-5 z m 25.21408,0 c -0.03165,3.9e-4 -0.06285,-6.9e-4 -0.0915,-0.00512 -0.11594,-0.01771 -0.07155,-0.18612 -0.02707,-0.20382 0.04439,-0.01772 0.13364,-0.00876 0.30246,-0.0973 0.16904,-0.08854 0.06292,-0.38101 0.06292,-0.38101 0,0 -0.59615,-2.15141 -0.72957,-2.51442 -0.06479,-0.17676 -0.18029,-0.29223 -0.28176,-0.36463 -0.0019,-0.00131 -0.0039,-0.00277 -0.0062,-0.00408 -0.17557,-0.10735 -0.46356,-0.15133 -0.58243,-0.15772 -0.39973,-0.02163 -0.62487,0.32007 -0.54417,0.67391 0.09847,0.43152 0.43025,0.74233 0.72026,0.83064 0.23902,0.07281 0.44653,0.06065 0.57185,-0.06555 7.5e-4,-6.2e-4 -3e-4,-0.00144 0,-0.00203 0.02273,-0.03033 0.05903,-0.04905 0.09975,-0.04712 0.06555,0.00311 0.11654,0.05785 0.11339,0.12291 l 0,0.00101 c -0.0023,0.0426 -0.02775,0.07845 -0.06262,0.09731 -0.18404,0.1408 -0.33906,0.15279 -0.54447,0.1567 -0.01725,3.6e-4 -0.03503,2e-5 -0.0534,0 l -9.8e-4,0 c -0.01882,0 -0.03817,-3.7e-4 -0.05767,-0.00102 -0.61332,-0.02671 -1.18749,-0.50165 -1.28289,-1.06108 -0.09562,-0.55941 0.32384,-0.99052 0.93716,-0.96379 0.37663,0 0.5753,0.12914 0.73264,0.23454 0.07934,-0.0545 0.14542,-0.20594 0.18824,-0.22017 0.05332,-0.0177 0.20414,0.12427 0.29301,0.13312 0.08895,0.00885 0.24959,-0.06218 0.36553,-0.07986 0.1155,-0.01771 0.1599,0.16839 0.12435,0.20379 -0.03555,0.03542 -0.20504,0.02611 -0.25836,0.08809 -0.05333,0.06198 -0.05333,0.33697 -0.05333,0.33697 0,0 0.81777,2.94816 0.84476,3.01013 0.02663,0.06198 0.11625,0.15004 0.0717,0.21201 -0.0444,0.06199 -0.19574,0.06175 -0.23129,0.04405 -0.03562,-0.01771 -0.28513,-0.04398 -0.36523,-0.01741 -0.06015,0.01991 -0.15989,0.03971 -0.25506,0.04096 l 0,-1e-5 z m 4.83532,-0.01332 c -0.02324,-0.00124 -0.04237,-0.00526 -0.05234,-0.01024 -0.03555,-0.01771 -0.18404,-0.0507 -0.28514,-0.04507 -0.05985,0.01992 -0.16627,0.05303 -0.26091,0.05429 -0.03203,3.9e-4 -0.06293,-6.9e-4 -0.09202,-0.00512 -0.1155,-0.01771 -0.0711,-0.18612 -0.02655,-0.20382 0.0444,-0.01772 0.05954,0.00558 0.22844,-0.08296 0.16881,-0.08854 0.05797,-0.25929 0.04844,-0.37383 0,0 -0.60784,-2.1504 -0.71516,-2.5216 -0.10725,-0.37122 -0.12142,-0.42624 -0.22019,-0.43837 -0.1248,-0.00953 -0.35466,-0.02851 -0.39313,-0.1526 -0.03818,-0.12407 0,-0.21025 0.15344,-0.17206 0.19559,0.07762 0.5744,0.11726 0.81671,0.06352 0.27689,-0.06143 0.37071,-0.04068 0.37243,0.10035 0.03158,0.15951 -0.26241,0.11212 -0.31573,0.17413 -0.05332,0.06198 0.0043,0.33697 0.0043,0.33697 0,-5e-5 0.81776,2.9338 0.84438,2.99578 0.0267,0.06198 0.11662,0.16438 0.07215,0.22635 -0.02767,0.03874 -0.09749,0.05323 -0.15442,0.05428 -0.0085,0 -0.0168,4.3e-4 -0.02475,0 l 0,0 z m 11.15612,0 c -0.02347,-0.00124 -0.04252,-0.00526 -0.05265,-0.01024 -0.03555,-0.01771 -0.18374,-0.0507 -0.28483,-0.04507 -0.0603,0.01992 -0.16755,0.05303 -0.26242,0.05429 -0.03165,3.9e-4 -0.06292,-6.9e-4 -0.09149,-0.00512 -0.11602,-0.01771 -0.07148,-0.18612 -0.02708,-0.20382 0.04455,-0.01772 0.0606,0.00558 0.22949,-0.08296 0.16897,-0.08854 0.05797,-0.25929 0.04838,-0.37383 0,0 -0.60763,-2.1504 -0.7151,-2.5216 -0.10694,-0.37122 -0.12142,-0.42624 -0.22019,-0.43837 -0.12449,-0.00953 -0.35466,-0.02851 -0.39283,-0.1526 -0.03847,-0.12407 0,-0.21025 0.15314,-0.17206 0.19559,0.07762 0.5735,0.11726 0.81589,0.06352 0.27681,-0.06143 0.37168,-0.04068 0.37356,0.10035 0.03165,0.15951 -0.26241,0.11212 -0.31559,0.17413 -0.05384,0.06198 0.0039,0.33697 0.0039,0.33697 0,-5e-5 0.81807,2.9338 0.84477,2.99578 0.02662,0.06198 0.11624,0.16438 0.07169,0.22635 -0.0276,0.03874 -0.09697,0.05323 -0.15397,0.05428 -0.0086,0 -0.01717,4.3e-4 -0.02467,0 l 0,0 z M 43.55111,-0.59875 c -0.11137,-0.00138 -0.24164,-0.09451 -0.38593,-0.19869 -0.17737,-0.12823 -0.49775,-0.48876 -0.53158,-0.52747 -0.03427,-0.03871 -0.04185,-0.07768 -0.01057,-0.11882 0.0513,-0.05079 0.12247,0.01025 0.12247,0.01025 0,0 0.16454,0.15141 0.29331,0.2581 0.14594,0.12097 0.29211,0.21612 0.39418,0.24274 0.10192,0.02661 0.17707,-0.00265 0.27644,0.07476 0.09974,0.07743 0.04222,0.18812 -0.0843,0.24377 -0.0237,0.01043 -0.0483,0.01568 -0.07402,0.01536 l 0,0 z M 9.17531,-1.17435 C 9.04886,-1.17294 8.82267,-1.41506 8.81727,-1.5318 8.8118,-1.64854 8.95812,-1.79647 9.10016,-1.80014 9.24228,-1.80382 9.50417,-1.57549 9.49629,-1.44987 9.48909,-1.335 9.30168,-1.17578 9.17531,-1.17435 Z m 24.63577,0 c -0.12637,0.00141 -0.35248,-0.24071 -0.35818,-0.35745 -0.0053,-0.11674 0.14084,-0.26467 0.28311,-0.26834 0.14197,-0.00368 0.40401,0.22465 0.39606,0.35027 -0.0073,0.11487 -0.19447,0.27409 -0.32099,0.27552 z m 29.90353,0 c -0.12651,0.00141 -0.35263,-0.24071 -0.35795,-0.35745 -0.0055,-0.11674 0.14061,-0.26467 0.28288,-0.26834 0.1419,-0.00368 0.40401,0.22465 0.39606,0.35027 -0.0073,0.11487 -0.19462,0.27409 -0.32099,0.27552 z M 41.51608,-1.48366 c -0.03615,0.00153 -0.07867,-0.00106 -0.12532,-0.00717 -0.17122,-0.0222 -0.36396,-0.04862 -0.59705,-0.26015 -0.11317,-0.10292 -0.19484,-0.18619 -0.25499,-0.25605 -0.5552,-0.03874 -1.0621,-0.35118 -1.14917,-0.71798 -0.04672,-0.19712 0.03757,-0.37134 0.20977,-0.49058 -0.50211,-0.18411 -0.89681,-0.53913 -0.98343,-0.93714 -0.12307,-0.56379 0.4184,-0.99891 1.20767,-0.972 0.78948,0.02694 1.52753,0.50551 1.65045,1.06927 l 0.0019,0.00617 c 0.0771,0.3676 -0.12839,0.67983 -0.49993,0.84394 0.26557,0.13375 0.46146,0.33043 0.51253,0.54589 l 0.002,0.0041 c 0.07635,0.33566 -0.22656,0.60316 -0.69776,0.6473 0.02287,0.02293 0.04739,0.04549 0.07514,0.06658 0.15532,0.11797 0.32256,0.13821 0.38391,0.13007 0.06112,-0.00813 0.21659,-0.08544 0.29826,0 0.08167,0.08544 0.20864,0.15824 0.16762,0.23147 -0.03067,0.05491 -0.09285,0.0917 -0.20159,0.09628 l 0,0 z m -5.50115,-0.49265 c -0.0789,-0.00382 -0.16162,-0.02814 -0.20182,-0.0594 -0.09104,-0.07146 -0.33313,-0.34424 -0.47,-0.53259 -0.06367,-0.08714 -0.12614,-0.1267 -0.17587,-0.14441 0.04005,0.11113 0.0882,0.2186 0.13462,0.31443 0.05467,0.11292 -0.0474,0.18271 -0.11002,0.20996 -0.06247,0.02727 -0.19491,-0.03482 -0.28078,-0.03482 -0.08633,0 -0.1965,0.01946 -0.27487,0.03892 -0.01,0.00243 -0.01905,0.00311 -0.02865,0.00207 -0.06779,-0.00725 -0.13064,-0.09265 -0.15149,-0.15056 -0.0234,-0.0662 0.19259,-0.12154 0.25521,-0.12393 0.10177,-0.0039 0.07403,-0.15261 0.07403,-0.15261 0,0 -0.30419,-1.00657 -0.32001,-1.06108 -0.01545,-0.05453 -0.15307,-0.11717 -0.25079,-0.12496 -0.09795,-0.00777 -0.19897,-0.01161 -0.16372,-0.13622 0.02805,-0.14338 0.16499,-0.11035 0.38593,-0.06863 0.14587,0.02761 0.5396,0.02868 0.66132,-0.00715 0.09787,-0.02337 0.11752,0.14376 0.08242,0.1905 -0.03532,0.04674 -0.13334,0.01947 -0.20361,0.03892 -0.07042,0.01948 -0.08947,0.11161 -0.06577,0.17001 0.01087,0.02779 0.05624,0.19055 0.10364,0.36565 0.22297,0.35437 0.68652,0.70437 0.80479,0.81015 0.13027,0.11689 0.37161,0.18928 0.38488,0.34515 0.0072,0.08768 -0.08789,0.11554 -0.18944,0.11062 l 0,-2e-5 z M 16.84326,-1.98654 c -0.30637,0 -0.69297,-0.10117 -0.7181,-0.11369 -0.0252,-0.01256 -0.18854,-0.04545 -0.22626,-0.18334 -0.03787,-0.1379 0.05422,-0.1463 0.11722,-0.15465 0.06292,-0.00835 0.19386,0.08766 0.22326,0.10857 0.02933,0.02088 0.27689,0.14199 0.5834,0.10856 0.30636,-0.03343 0.26369,-0.30464 0.24277,-0.43837 -0.021,-0.1337 -0.2007,-0.54766 -0.30554,-0.82346 -0.07432,-0.19505 -0.34611,-0.3011 -0.50008,-0.34721 -0.06247,-0.00148 -0.12007,0 -0.16154,-0.00204 -0.35166,-0.01612 -0.56285,0.21406 -0.49175,0.47831 0.08662,0.32226 0.32436,0.51275 0.5792,0.57869 0.21029,0.05439 0.34213,0.01641 0.45275,-0.07783 0.0282,-0.0229 0.05865,-0.0376 0.08842,-0.03688 0.0576,0.00232 0.12382,0.02237 0.13784,0.10857 -0.11916,0.2227 -0.4556,0.20488 -0.62142,0.20176 -0.5396,-0.01995 -1.04462,-0.37495 -1.12862,-0.79273 -0.084,-0.41774 0.28551,-0.73896 0.82511,-0.71901 0.37273,0 0.5483,0.12124 0.6956,0.20282 0.07777,-0.01013 0.10439,-0.12684 0.19551,-0.14136 0.03772,-0.00416 0.15524,0.07862 0.26429,0.09114 0.10912,0.01256 0.20976,-0.06639 0.32316,-0.07475 0.11332,-0.00835 0.14324,0.10828 0.13049,0.17515 -0.01252,0.06686 -0.16439,0.08403 -0.27351,0.13418 -0.10919,0.05013 -0.07102,0.23762 -0.07102,0.23762 l 0.23976,0.73945 c 0,0 0.0753,0.13808 0.0627,0.30521 -0.02032,0.27099 -0.35721,0.4353 -0.66364,0.4353 l 0,-1e-5 z m 28.26238,0 c -0.30651,0 -0.69192,-0.10117 -0.71697,-0.11369 -0.02497,-0.01254 -0.18869,-0.04545 -0.22611,-0.18334 -0.03788,-0.1379 0.05422,-0.1463 0.11707,-0.15465 0.06292,-0.00835 0.19304,0.08766 0.22229,0.10857 0.02932,0.02088 0.27681,0.14199 0.5834,0.10856 0.30621,-0.03343 0.26466,-0.30464 0.24358,-0.43837 -0.02099,-0.1337 -0.20144,-0.54766 -0.30651,-0.82346 -0.07432,-0.19517 -0.34626,-0.30117 -0.50015,-0.34721 -0.0624,-0.00145 -0.11969,0 -0.16117,-0.00204 -0.35211,-0.01612 -0.563,0.21406 -0.4919,0.47831 0.08662,0.32226 0.32429,0.51275 0.57905,0.57869 0.21036,0.05439 0.34213,0.01641 0.45268,-0.07783 0.02835,-0.0229 0.05902,-0.0376 0.08864,-0.03688 0.0576,0.00232 0.12382,0.02237 0.13792,0.10857 -0.11924,0.2227 -0.45568,0.20488 -0.62149,0.20176 -0.53975,-0.01995 -1.04478,-0.37495 -1.12863,-0.79273 -0.08407,-0.41777 0.28537,-0.73896 0.82497,-0.71901 0.37303,0 0.54852,0.12124 0.69574,0.20282 0.07762,-0.01013 0.10424,-0.12684 0.19544,-0.14136 0.03765,-0.00416 0.15517,0.07862 0.26444,0.09114 0.10889,0.01256 0.20969,-0.06639 0.32301,-0.07475 0.11324,-0.00835 0.14317,0.10828 0.13072,0.17515 -0.0126,0.06686 -0.16365,0.08403 -0.27269,0.13418 -0.10927,0.05013 -0.07215,0.23762 -0.07215,0.23762 l 0.23977,0.73945 c 0,0 0.07544,0.13808 0.06284,0.30521 -0.02039,0.27099 -0.35728,0.4353 -0.66379,0.4353 l 0,-1e-5 z m 22.25816,0 c -0.30629,0 -0.6917,-0.10117 -0.71704,-0.11369 -0.02513,-0.01254 -0.18967,-0.04545 -0.22724,-0.18334 -0.03788,-0.1379 0.05437,-0.1463 0.11722,-0.15465 0.06292,-0.00835 0.19386,0.08766 0.22326,0.10857 0.02932,0.02088 0.27689,0.14199 0.5834,0.10856 0.30651,-0.03343 0.26369,-0.30464 0.24261,-0.43837 -0.0207,-0.1337 -0.20054,-0.54766 -0.30553,-0.82346 -0.07403,-0.19505 -0.34596,-0.3011 -0.49986,-0.34721 -0.06284,-0.00148 -0.12014,0 -0.16161,-0.00204 -0.35166,-0.01612 -0.563,0.21406 -0.49191,0.47831 0.08663,0.32226 0.32436,0.51275 0.57928,0.57869 0.21036,0.05439 0.34236,0.01641 0.45298,-0.07783 0.02805,-0.0229 0.05849,-0.0376 0.08819,-0.03688 0.05768,0.00232 0.12375,0.02237 0.13792,0.10857 -0.11917,0.2227 -0.4556,0.20488 -0.62127,0.20176 -0.5399,-0.01995 -1.04463,-0.37495 -1.12892,-0.79273 -0.08385,-0.41777 0.28581,-0.73896 0.82541,-0.71901 0.37273,0 0.54815,0.12124 0.69529,0.20282 0.07777,-0.01013 0.1044,-0.12684 0.19567,-0.14136 0.03787,-0.00416 0.15539,0.07862 0.26429,0.09114 0.10927,0.01256 0.20976,-0.06639 0.32301,-0.07475 0.11317,-0.00835 0.14324,0.10828 0.13064,0.17515 -0.01237,0.06686 -0.16447,0.08403 -0.27351,0.13418 -0.10935,0.05013 -0.07117,0.23762 -0.07117,0.23762 l 0.23976,0.73945 c 0,0 0.0753,0.13808 0.06285,0.30521 -0.02033,0.27099 -0.35721,0.4353 -0.66372,0.4353 l 0,-1e-5 z M 4.41378,-2.00192 c -0.0208,0 -0.04158,-0.00117 -0.06279,-0.00206 -0.68131,-0.02739 -1.31992,-0.51466 -1.42597,-1.08873 -0.10606,-0.57408 0.36089,-1.0168 1.04222,-0.98936 0.68135,0.0274 1.3189,0.51463 1.42495,1.08871 l 0.00204,0.00615 c 0.09825,0.55355 -0.3365,0.98379 -0.98048,0.98529 l 3e-5,0 z m 6.68444,-0.00716 c -0.40356,0.00341 -0.72304,-0.13288 -1.01861,-0.33697 -0.36373,-0.25117 -0.53802,-0.61377 -0.53802,-0.8552 0,-0.24146 0.07147,-0.59159 0.44645,-0.76509 0.47893,-0.21173 0.87101,-0.07672 1.08033,-0.01639 0.18254,0.05266 0.37918,0.17032 0.43723,0.20586 0.03847,0.01841 0.06397,0.05833 0.06172,0.10347 l 0,0.00101 c -0.0032,0.05985 -0.07252,0.07558 -0.13267,0.07273 -0.24479,-0.15958 -0.50945,-0.24397 -0.77989,-0.24686 -0.27186,0 -0.65637,0.18226 -0.65637,0.65345 0,0.43815 0.50998,0.96824 1.0936,0.9607 0.5606,-0.00722 0.5582,-0.46821 0.54845,-0.54999 -0.0098,-0.08177 -0.10117,-0.1001 -0.10912,-0.11369 -0.0079,-0.01359 -1.08745,0 -1.08745,0 l 0,-0.00203 c -0.0088,0.0018 -0.0174,0.00249 -0.02677,0.00203 -0.06045,-0.00288 -0.10785,-0.05355 -0.10492,-0.11369 0.0029,-0.06014 0.05482,-0.10631 0.11519,-0.10344 0.0015,0 0.0027,8.8e-4 0.0041,0.00101 l 0.0031,0 1.39719,-0.00308 c 0,0 0.23256,-0.01178 0.23256,0.37179 0,0.33684 -0.22176,0.6362 -0.67189,0.70875 -0.10275,0.01657 -0.20107,0.02483 -0.29421,0.0256 l 0,3e-5 z m 15.43174,0 c -0.4037,0.00341 -0.72304,-0.13288 -1.0186,-0.33697 -0.36373,-0.25117 -0.5381,-0.61377 -0.5381,-0.8552 0,-0.24146 0.07155,-0.59159 0.44645,-0.76509 0.47901,-0.21173 0.86996,-0.07672 1.07935,-0.01639 0.18255,0.05266 0.38024,0.17032 0.43836,0.20586 0.03847,0.01841 0.06375,0.05833 0.06172,0.10347 l 0,0.00101 c -0.0033,0.05985 -0.0726,0.07558 -0.13289,0.07273 -0.24464,-0.15958 -0.50938,-0.24397 -0.77974,-0.24686 -0.27194,0 -0.65637,0.18226 -0.65637,0.65345 0,0.43815 0.5099,0.96824 1.0936,0.9607 0.5606,-0.00722 0.55812,-0.46821 0.54845,-0.54999 -0.0098,-0.08177 -0.10125,-0.1001 -0.1092,-0.11369 -0.0078,-0.01359 -1.08737,0 -1.08737,0 l 0,-0.00203 c -0.0089,0.0018 -0.0174,0.00249 -0.02678,0.00203 -0.06044,-0.00288 -0.10784,-0.05355 -0.10499,-0.11369 0.0029,-0.06014 0.05482,-0.10631 0.11527,-0.10344 0.0014,0 0.0025,8.8e-4 0.0042,0.00101 l 0.003,0 1.39711,-0.00308 c 0,0 0.23264,-0.01178 0.23264,0.37179 0,0.33684 -0.22177,0.6362 -0.6719,0.70875 -0.10274,0.01657 -0.20106,0.02483 -0.29421,0.0256 l 0,3e-5 z m 25.2611,0 c -0.40326,0.00341 -0.72289,-0.13288 -1.0183,-0.33697 -0.36374,-0.25117 -0.53825,-0.61377 -0.53825,-0.8552 0,-0.24146 0.07139,-0.59159 0.44675,-0.76509 0.4787,-0.21173 0.87079,-0.07672 1.08018,-0.01639 0.18246,0.05266 0.37895,0.17032 0.43723,0.20586 0.03862,0.01841 0.06389,0.05833 0.06157,0.10347 l 0,0.00101 c -0.0033,0.05985 -0.07245,0.07558 -0.13275,0.07273 -0.24449,-0.15958 -0.50922,-0.24397 -0.77989,-0.24686 -0.27163,0 -0.65607,0.18226 -0.65607,0.65345 0,0.43815 0.50991,0.96824 1.0936,0.9607 0.56045,-0.00722 0.55813,-0.46821 0.5483,-0.54999 -0.0096,-0.08177 -0.10109,-0.1001 -0.10904,-0.11369 -0.008,-0.01359 -1.08738,0 -1.08738,0 l 0,-0.00203 c -0.009,0.0018 -0.01755,0.00249 -0.02677,0.00203 -0.0606,-0.00288 -0.10799,-0.05355 -0.10499,-0.11369 0.0029,-0.06014 0.05467,-0.10631 0.11526,-0.10344 0.0013,0 0.0025,8.8e-4 0.0039,0.00101 l 0.0033,0 1.39727,-0.00308 c 0,0 0.23249,-0.01178 0.23249,0.37179 0,0.33684 -0.22192,0.6362 -0.67205,0.70875 -0.10259,0.01657 -0.20107,0.02483 -0.29436,0.0256 l 0,3e-5 z M 7.05791,-2.01216 C 7.03709,-2.01249 7.01619,-2.01249 6.99413,-2.01317 6.31279,-2.04059 5.67523,-2.52784 5.56915,-3.10191 5.46311,-3.67597 5.92903,-4.11872 6.61034,-4.09129 c 0.52283,0 0.7398,0.20046 0.94039,0.30829 0.04702,0.01989 0.07642,0.06069 0.0741,0.1096 l 0,0.00101 C 7.62183,-3.6168 7.58088,-3.57961 7.52501,-3.58226 7.49433,-3.58371 7.46604,-3.59617 7.44374,-3.61605 7.26757,-3.76137 6.87522,-3.81856 6.72557,-3.82604 c -0.444,-0.02215 -0.77083,0.35895 -0.68107,0.72208 0.1094,0.4428 0.47749,0.76151 0.7994,0.85214 0.32193,0.0906 0.68343,0.01398 0.76645,-0.18947 C 7.6468,-2.52608 7.6819,-2.60127 7.67215,-2.64 7.6627,-2.65591 7.65858,-2.67506 7.66083,-2.69531 7.66682,-2.74733 7.71437,-2.78689 7.76785,-2.7844 c 0.04687,0.00218 0.08309,0.03634 0.08744,0.07987 -7e-5,3.3e-4 0,9e-4 0,0.00102 0.0015,0.00404 0.00173,0.00762 0.00203,0.01127 0.00352,0.02915 0.01102,0.12871 0.01642,0.17001 0.0054,0.0413 0.03855,0.10659 0.07717,0.16491 3e-4,3.2e-4 8e-5,7.4e-4 0,0.00101 0.00323,0.00498 0.0057,0.00967 0.0072,0.01537 0.00428,0.01206 0.00668,0.0252 0.00518,0.03892 -0.00473,0.04182 -0.03758,0.07621 -0.07928,0.08808 -0.33395,0.1451 -0.51405,0.20515 -0.82613,0.20175 l 3e-5,3e-5 z M 8.47979,-2.09103 C 8.41207,-2.09826 8.34907,-2.18365 8.32852,-2.24159 c -0.02347,-0.0662 0.19252,-0.12153 0.25514,-0.12392 0.10177,-0.00389 0.07409,-0.1526 0.07409,-0.1526 0,-2e-5 -0.33621,-1.09771 -0.35188,-1.15225 -0.0156,-0.0545 -0.12134,-0.07823 -0.21914,-0.08603 -0.09772,-0.00777 -0.23069,-0.05054 -0.19544,-0.17512 0.0213,-0.07846 0.16484,-0.11038 0.38578,-0.06863 0.1461,0.02761 0.53233,0.05428 0.65435,0.01843 0.09779,-0.02337 0.11752,0.14378 0.08234,0.19052 -0.03525,0.04674 -0.13334,0.01943 -0.20369,0.0389 -0.07042,0.01947 -0.08212,0.086 -0.05864,0.14443 0.02339,0.05838 0.22341,0.79449 0.26646,0.92689 0.04297,0.1324 0.10162,0.26092 0.15637,0.37384 0.05474,0.11293 -0.04755,0.18271 -0.1101,0.20996 -0.06262,0.02726 -0.19484,-0.03482 -0.28086,-0.03482 -0.0861,0 -0.19649,0.01945 -0.27471,0.03892 -0.00983,0.00242 -0.01913,0.00308 -0.0288,0.00203 l 0,1e-5 z m 24.6357,0 c -0.0675,-0.00723 -0.13072,-0.09262 -0.15112,-0.15056 -0.0234,-0.0662 0.19259,-0.12153 0.25506,-0.12392 0.10177,-0.00389 0.07417,-0.1526 0.07417,-0.1526 0,-2e-5 -0.33613,-1.09771 -0.35203,-1.15225 -0.01552,-0.0545 -0.12119,-0.07823 -0.21906,-0.08603 -0.09773,-0.00777 -0.23062,-0.05054 -0.19552,-0.17512 0.02145,-0.07846 0.16499,-0.11038 0.38593,-0.06863 0.14587,0.02761 0.53233,0.05428 0.65427,0.01843 0.09772,-0.02337 0.11752,0.14378 0.0822,0.19052 -0.0351,0.04674 -0.13327,0.01943 -0.20339,0.0389 -0.07042,0.01947 -0.08227,0.086 -0.05903,0.14443 0.02378,0.05838 0.22372,0.79449 0.26677,0.92689 0.04282,0.1324 0.10139,0.26092 0.15629,0.37384 0.05467,0.11293 -0.0477,0.18271 -0.11017,0.20996 -0.06255,0.02726 -0.19462,-0.03482 -0.28094,-0.03482 -0.08587,0 -0.19619,0.01945 -0.27456,0.03892 -0.0098,0.00242 -0.01905,0.00308 -0.02887,0.00203 l 0,1e-5 z m 9.24123,0 c -0.0678,-0.00723 -0.13072,-0.09262 -0.15127,-0.15056 -0.02355,-0.0662 0.19229,-0.12153 0.25521,-0.12392 0.10177,-0.00389 0.07417,-0.1526 0.07417,-0.1526 0,-2e-5 -0.33613,-1.09771 -0.35211,-1.15225 -0.01575,-0.0545 -0.12142,-0.07823 -0.21914,-0.08603 -0.09772,-0.00777 -0.23046,-0.05054 -0.19521,-0.17512 0.021,-0.07846 0.16484,-0.11038 0.38578,-0.06863 0.14587,0.02761 0.53203,0.05428 0.65419,0.01843 0.0978,-0.02337 0.1176,0.14378 0.08228,0.19052 -0.03525,0.04674 -0.13327,0.01943 -0.20369,0.0389 -0.07058,0.01947 -0.08198,0.086 -0.05873,0.14443 0.02348,0.05838 0.22357,0.79449 0.26677,0.92689 0.04282,0.1324 0.10139,0.26092 0.15599,0.37384 0.05497,0.11293 -0.0474,0.18271 -0.10987,0.20996 -0.06262,0.02726 -0.19507,-0.03482 -0.28094,-0.03482 -0.08587,0 -0.19649,0.01945 -0.27456,0.03892 -0.0098,0.00242 -0.01905,0.00308 -0.02887,0.00203 l 0,1e-5 z m 20.66215,0 c -0.0675,-0.00723 -0.13042,-0.09262 -0.15112,-0.15056 -0.0234,-0.0662 0.19259,-0.12153 0.25522,-0.12392 0.10162,-0.00389 0.07402,-0.1526 0.07402,-0.1526 0,-2e-5 -0.33614,-1.09771 -0.35189,-1.15225 -0.01552,-0.0545 -0.12119,-0.07823 -0.21891,-0.08603 -0.09787,-0.00777 -0.23092,-0.05054 -0.19559,-0.17512 0.02137,-0.07846 0.16492,-0.11038 0.38586,-0.06863 0.14586,0.02761 0.53232,0.05428 0.65412,0.01843 0.09787,-0.02337 0.11752,0.14378 0.08242,0.19052 -0.03533,0.04674 -0.1335,0.01943 -0.20362,0.0389 -0.07042,0.01947 -0.08227,0.086 -0.05857,0.14443 0.02347,0.05838 0.22326,0.79449 0.26639,0.92689 0.04319,0.1324 0.10177,0.26092 0.15636,0.37384 0.05468,0.11293 -0.04739,0.18271 -0.11002,0.20996 -0.06284,0.02726 -0.19484,-0.03482 -0.28101,-0.03482 -0.08602,0 -0.19626,0.01945 -0.27456,0.03892 -0.01,0.00242 -0.01927,0.00308 -0.0291,0.00203 l 0,1e-5 z M 36.46536,-2.15556 c -0.0046,3.3e-4 -0.0096,-4.9e-4 -0.01418,-10e-4 -0.06779,-0.00711 -0.12794,-0.05985 -0.14721,-0.11677 -0.02198,-0.06504 0.17091,-0.11953 0.23354,-0.12187 0.10177,-0.00384 0.13589,-0.14953 0.13589,-0.14954 -0.12277,-0.42423 -0.22544,-0.83754 -0.30059,-1.14814 -0.03944,-0.17774 0.11797,-0.34767 0.37866,-0.3554 0.24157,-0.00714 0.482,0.09236 0.6401,0.14647 0.15801,0.05408 0.26916,0.27105 0.0402,0.16285 -0.24209,-0.11428 -0.43536,-0.07764 -0.55393,-0.02356 -0.15112,0.15272 -0.02587,0.43941 0.06922,0.75585 0.09517,0.3165 0.15142,0.55787 0.20377,0.66882 0.05205,0.11095 -0.05107,0.11866 -0.11422,0.14543 -0.06322,0.02679 -0.19492,-0.01946 -0.28079,-0.01946 -0.08632,0 -0.19724,0.03413 -0.27606,0.05326 -0.0049,0.00118 -0.0095,0.00276 -0.0144,0.00309 l 0,-3e-5 z m 1.46941,0 c -0.005,3.3e-4 -0.0096,-5.2e-4 -0.01448,-10e-4 -0.06749,-0.00712 -0.12779,-0.05985 -0.14722,-0.11677 -0.02212,-0.06504 0.17092,-0.11953 0.23384,-0.12187 0.10162,-0.00384 0.1356,-0.14953 0.1356,-0.14954 0,0 -0.31184,-1.07818 -0.32631,-1.13175 -0.0849,-0.08154 -0.1086,-0.20078 -0.03488,-0.29087 0.15735,0.02589 0.51486,0.01845 0.63275,-0.01537 0.0984,-0.02294 0.1146,0.14151 0.0783,0.18744 -0.03608,0.04592 -0.13387,0.01878 -0.20467,0.03788 -0.07087,0.01914 -0.084,0.08398 -0.06195,0.14136 0.02243,0.05738 0.20579,0.78145 0.24599,0.91153 0.0402,0.13009 0.09585,0.25572 0.1482,0.36667 0.05234,0.11095 -0.05108,0.11763 -0.11437,0.14441 -0.06323,0.02678 -0.19447,-0.01844 -0.28079,-0.01844 -0.08587,0 -0.19694,0.03413 -0.27561,0.05326 -0.0049,0.00118 -0.0098,0.00276 -0.0144,0.00309 l 0,-3e-5 z m 22.01427,0 c -0.0049,3.3e-4 -0.0098,-4.9e-4 -0.0144,-10e-4 -0.06757,-0.00711 -0.12795,-0.05985 -0.14722,-0.11677 -0.02198,-0.06504 0.17092,-0.11953 0.23354,-0.12187 0.10177,-0.00384 0.13589,-0.14953 0.13589,-0.14954 -0.12247,-0.42423 -0.22544,-0.83754 -0.30058,-1.14814 -0.03953,-0.17774 0.11797,-0.34767 0.37865,-0.3554 0.24157,-0.00714 0.48201,0.09236 0.6401,0.14647 0.15802,0.05408 0.26916,0.27105 0.0402,0.16285 -0.24209,-0.11428 -0.43506,-0.07764 -0.55348,-0.02356 -0.15157,0.15272 -0.02632,0.43941 0.06877,0.75585 0.09518,0.3165 0.15142,0.55787 0.20377,0.66882 0.05205,0.11095 -0.05107,0.11866 -0.11422,0.14543 -0.06322,0.02679 -0.19492,-0.01946 -0.28079,-0.01946 -0.08632,0 -0.19724,0.03413 -0.27606,0.05326 -0.0049,0.00118 -0.0095,0.00276 -0.01417,0.00309 l 0,-3e-5 z m 1.46918,0 c -0.0046,3.3e-4 -0.0096,-5.2e-4 -0.01447,-10e-4 -0.06758,-0.00712 -0.1278,-0.05985 -0.14722,-0.11677 -0.02168,-0.06504 0.17091,-0.11953 0.23384,-0.12187 0.10162,-0.00384 0.13559,-0.14953 0.13559,-0.14954 0,0 -0.31184,-1.07818 -0.32601,-1.13175 -0.0852,-0.08154 -0.1089,-0.20078 -0.03517,-0.29087 0.15734,0.02589 0.51485,0.01845 0.63267,-0.01537 0.09847,-0.02294 0.11467,0.14151 0.07837,0.18744 -0.03615,0.04592 -0.13387,0.01878 -0.20467,0.03788 -0.07087,0.01914 -0.08407,0.08395 -0.06194,0.14136 0.02242,0.05735 0.20579,0.78145 0.24598,0.91153 0.0402,0.13009 0.09615,0.25572 0.1482,0.36667 0.05235,0.11095 -0.05107,0.11763 -0.11437,0.14441 -0.06322,0.02678 -0.19447,-0.01844 -0.28079,-0.01844 -0.08587,0 -0.19694,0.03413 -0.27561,0.05326 -0.0049,0.00118 -0.0098,0.00276 -0.0144,0.00309 l 0,-3e-5 z M 40.66119,-2.18013 c 0.29924,-0.01301 0.47436,-0.2219 0.39598,-0.48854 l -9.7e-4,-0.00308 c -0.08565,-0.28509 -0.42703,-0.52717 -0.76347,-0.54079 -0.33613,-0.01359 -0.5393,0.2055 -0.45365,0.4906 0.06877,0.22864 0.30186,0.4301 0.56487,0.508 -0.03382,-0.08225 -0.04019,-0.15959 0.0432,-0.19561 0,0 0.10237,-0.00851 0.14707,0.09319 0.01747,0.03915 0.03832,0.08653 0.06697,0.13623 l 0,0 z M 4.4467,-2.20062 C 4.86426,-2.20182 5.11293,-2.5497 5.0064,-2.99745 L 5.00432,-3.00256 C 4.8911,-3.46693 4.44005,-3.86121 3.99605,-3.8834 c -0.44403,-0.02215 -0.712,0.33555 -0.59881,0.79992 0.1132,0.46437 0.56424,0.85966 1.00827,0.88185 0.01384,6.8e-4 0.02769,0.00107 0.04116,0.00101 l 3e-5,0 z m 35.85331,-1.12046 c 0.47728,-0.00118 0.76279,-0.32676 0.64092,-0.74666 L 40.938,-4.07287 c -0.12936,-0.43547 -0.64467,-0.80471 -1.15232,-0.82549 -0.50757,-0.0208 -0.81484,0.31422 -0.68547,0.74971 0.12975,0.43549 0.64602,0.80574 1.15368,0.82652 0.01575,6.6e-4 0.03059,0.00105 0.04612,0.00102 l 0,3e-5 z" />
        </g>
      </g>
      <g
         style="stroke:none;stroke-opacity:1"
         id="g96"
         transform="matrix(20.465511,0,0,-20.465511,1140.6876,945.46552)">
        <g
           style="stroke:none;stroke-opacity:1"
           id="g98"
           transform="translate(11.52427,51.58122)">
          <path
             inkscape:connector-curvature="0"
             id="path100"
             style="fill:#137578;fill-opacity:1;fill-rule:evenodd;stroke:none;stroke-opacity:1"
             d="M 11.74971,-3.9e-4 C 11.61389,0 11.47658,-0.0038 11.33716,-0.01063 6.85852,-0.22996 2.297,-4.13163 1.14851,-8.72564 0,-13.31958 2.69889,-16.86607 7.17755,-16.64673 c 4.47864,0.21928 9.04128,4.12197 10.18971,8.71592 l 0.0123,0.05123 c 1.08122,4.42967 -1.41834,7.8672 -5.62985,7.87919 z m -0.24479,-0.89617 c 2.88362,-0.01071 4.41085,-3.0792 3.43215,-7.03223 l -0.01125,-0.04502 c -1.03353,-4.09969 -4.36765,-7.58209 -7.44679,-7.7778 -3.07915,-0.19572 -4.73743,2.96944 -3.70386,7.06905 1.03353,4.09962 4.36766,7.58105 7.44679,7.77678 0.09585,0.00608 0.18989,0.00956 0.28296,0.00922 l 0,0 z" />
        </g>
      </g>
      <g
         style="stroke:none;stroke-opacity:1"
         id="g102"
         transform="matrix(20.465511,0,0,-20.465511,1140.6876,945.46552)">
        <g
           style="stroke:none;stroke-opacity:1"
           id="g104"
           transform="translate(23.37831,46.5275)">
          <path
             inkscape:connector-curvature="0"
             id="path106"
             style="fill:#137578;fill-opacity:1;fill-rule:evenodd;stroke:none;stroke-opacity:1"
             d="m 5.07302,-3.84691 c 0,0 0.81118,-0.03649 1.44702,0.45756 0.69798,0.54228 1.29715,1.54978 1.62061,1.97345 0.32346,0.42367 1.18832,1.24643 2.02244,1.33117 0.83418,0.08473 1.86329,-0.07878 1.98246,-0.14657 0.11916,-0.06779 0.74134,-0.09069 0.74134,-0.09069 0,0 -0.21532,-0.55757 -0.47068,-0.98124 -0.25537,-0.42366 -0.57373,-0.92871 -0.67587,-1.01345 -0.10215,-0.08474 0.04342,0.82618 -0.09525,1.06933 -0.13867,0.24315 -0.38218,0.3907 -0.84183,0.3568 C 10.34368,-0.92444 9.85672,-1.27101 9.41409,-1.93193 8.97147,-2.59287 8.76717,-3.13555 8.76717,-3.13555 l -0.10214,-0.23686 1.73639,0.01696 c 0,0 -0.40858,-0.69484 -0.52767,-0.74566 C 9.75458,-4.15198 8.32454,-4.13504 8.32454,-4.13504 l -2.62162,-6.50758 c 0,0 -0.52773,-1.27099 -1.10654,-2.23699 -0.5788,-0.96594 -1.41296,-2.21995 -2.79187,-2.93168 C 0.42559,-16.52303 0,-16.45535 0,-16.45535 c 0,0 1.34487,1.25401 1.71939,1.88101 0.37451,0.62716 1.5832,2.67764 2.11093,4.08428 0.52772,1.40657 2.7238,6.37196 2.7238,6.37196 l -1.5662,0 0.0851,0.27119 z" />
        </g>
      </g>
      <g
         style="stroke:none;stroke-opacity:1"
         id="g108"
         transform="matrix(20.465511,0,0,-20.465511,1140.6876,945.46552)">
        <g
           style="stroke:none;stroke-opacity:1"
           id="g110"
           transform="translate(32.87093,46.43728)">
          <path
             inkscape:connector-curvature="0"
             id="path112"
             style="fill:#137578;fill-opacity:1;fill-rule:evenodd;stroke:none;stroke-opacity:1"
             d="m 21.2418,0 -3.58971,-0.18641 c 0,0 -0.06247,-0.18623 0.04118,-0.20688 l 0.76864,0 c 0,0 0.41465,-0.02026 0.41465,-0.53669 0,-0.51644 -0.56082,-1.61107 -0.56082,-1.61107 l -3.07111,-6.79663 c 0,0 -0.1287,-0.32876 -0.1203,-0.66163 0,-0.00105 -1.5e-4,-0.0021 0,-0.00307 -0.0074,-0.4526 0.1413,-1.47896 1.64003,-1.47896 l 2.34672,1.31712 c 0,0 0.17481,0.22758 0,0.20686 -0.17482,-0.02064 -0.89861,-0.76423 -1.69658,-0.24784 -0.20601,0.13334 -0.20009,0.51079 -0.13994,0.86236 3e-4,0.00104 9e-4,0.00209 10e-4,0.00314 0.07605,0.33332 0.20369,0.73873 0.41766,1.20031 0.62262,1.34276 3.17505,7.10597 3.17505,7.10597 0,0 0.41496,0.76487 0.37348,1.03342 l 0,0 z M 6.09511,-0.43119 4.24524,-0.90335 C 4.28113,-1.37995 4.0265,-2.00403 3.76991,-2.39458 3.7676,-2.39054 3.76499,-2.38632 3.76269,-2.3823 3.51426,-2.71898 3.24335,-3.05717 2.70093,-3.42803 2.15854,-3.79886 1.28215,-3.75678 1.28215,-3.75678 l -0.08539,-0.27142 1.52784,0 C 2.37717,-4.7646 1.43796,-6.77133 0.79448,-8.29711 0,-10.18082 0.34623,-11.48134 2.03631,-11.48134 c 1.87681,0 1.96448,0.63867 2.54228,1.17069 0.31165,0.28696 0.62271,0.39682 0.84366,0.43832 -0.0051,-0.17058 0.00375,-0.35029 0.02881,-0.53973 0.17656,-1.33597 3.17767,-1.63863 5.7307,0.42606 0.0378,-0.50937 0.26354,-1.49534 1.44856,-1.49534 l 1.95066,1.31712 c 0,0 0.14535,0.22758 0,0.20694 -0.14519,-0.02072 -0.74696,-0.41297 -1.09975,-0.14449 -0.30643,0.23326 -0.14286,1.16569 -0.09464,1.40732 0.32811,0.97738 0.97713,1.9814 1.17384,2.37305 0.39434,0.78499 0.6848,1.4867 0.24899,2.39563 -0.37903,0.7907 -1.26534,0.85558 -1.58437,0.85213 -0.07365,-7.9e-4 -0.1173,-0.00512 -0.1173,-0.00512 l -4.27488,0 -1.20377,-2.54001 c 0.87154,1.01221 2.42869,1.77596 3.46619,1.77596 1.03758,0 1.87379,-0.18593 1.84679,-1.25977 -0.01305,-0.5214 -0.10919,-0.72241 -0.17286,-0.90847 -0.62337,0.00324 -1.81087,-0.0689 -3.33443,-0.5377 -1.93161,-0.59437 -3.66438,-1.29987 -3.96727,-2.89849 -0.5568,-0.49539 -1.24832,-0.7774 -1.91472,-0.7774 -0.72223,0 -1.1029,0.27371 -1.10292,0.90648 0,0.63268 0.33354,1.58269 1.23359,3.24975 0.8084,1.49724 0.82309,2.05661 0.82309,2.05661 l 2.00729,0 c 0.39001,0.24446 0.46297,0.83677 0.46297,0.83677 l -2.03713,0 1.15542,2.74384 0,0 z m 22.18205,-2.54412 c -2.34462,-0.03859 -4.64844,-2.47857 -4.64844,-2.47857 0,0 0.24914,0.92902 0.35293,1.65203 0.10372,0.72301 -0.62239,0.64115 -0.62239,0.64115 L 21.2418,-3.22317 c 0,0 -0.12464,-0.22737 0.14505,-0.22737 0.26976,0 0.74809,-0.30941 0.74809,-0.90848 0,-0.59905 -0.27066,-1.28128 -0.27066,-1.28128 0,0 -1.86734,-3.9868 -2.11633,-4.52392 -0.24907,-0.53703 -0.37341,-1.00781 -0.37341,-1.00781 l 1.36936,0 c 0.45643,0 0.6224,0.49164 0.6224,0.49164 0,0 0.95486,2.56149 2.30367,4.27605 1.42516,1.81167 2.55236,2.27271 3.54854,2.27271 0.99603,0 0.89231,-0.92959 0.72619,-1.34274 -0.16597,-0.41316 -1.51433,-3.24371 -1.88782,-4.09066 -0.37363,-0.84695 -0.66461,-1.607 -0.66461,-1.607 l 1.68104,0 c 0.30134,0.38567 0.70122,1.40725 2.1575,4.00361 1.06788,1.90397 2.7391,3.05727 4.04659,3.05727 1.30705,0 0.72627,-1.48714 0.72627,-1.48714 0,0 -0.78814,-1.59059 -1.5144,-3.05727 -0.11595,-0.23408 -0.19125,-0.44879 -0.23669,-0.64421 -0.21847,-0.65475 -0.52843,-2.18157 1.34064,-2.18157 l 1.97338,1.17271 c 0,0 0.17482,0.22758 0,0.20686 -0.17482,-0.02064 -0.52513,-0.61982 -1.32324,-0.10343 -0.4217,0.27289 0.04545,1.57013 0.04545,1.57013 l -0.03412,-0.00613 1.84484,3.95135 c -3e-4,0 0.47817,1.71454 -1.57621,1.71454 -2.05445,0 -4.67011,-2.29321 -4.67011,-2.29321 0,0 0.93476,2.33452 -1.57605,2.29321 l 0,0 z m 12.94891,-0.05327 c -0.06945,2e-4 -0.13957,-0.00164 -0.21067,-0.00512 -2.28327,-0.1117 -4.51374,-2.09902 -4.98165,-4.4389 -0.46812,-2.3399 1.00286,-4.14605 3.28613,-4.03432 2.28282,0.11165 4.51329,2.09901 4.98165,4.43888 l 0.0052,0.0256 c 0.43783,2.25618 -0.92808,4.00776 -3.08063,4.01386 l 0,0 z m 0.09382,-0.87773 c 1.26369,-0.00485 1.88451,-1.39389 1.39306,-3.18323 l -0.0053,-0.02048 c -0.51762,-1.85575 -2.03503,-3.43164 -3.38774,-3.52019 -1.35286,-0.08862 -2.02941,1.3439 -1.51148,3.19959 0.5177,1.8557 2.03428,3.43159 3.38699,3.52023 0.04193,0.00274 0.0837,0.00423 0.1245,0.00408 l 0,0 z M 12.26404,-6.83142 c 0,0 -0.18599,-0.9739 -0.91046,-1.98291 -0.72454,-1.00901 -1.92786,-2.16879 -3.48681,-1.45638 -0.87082,0.39793 -0.37787,1.95415 1.13897,2.63627 1.5168,0.68216 3.2583,0.80302 3.2583,0.80302 z" />
        </g>
      </g>
      <g
         style="stroke:none;stroke-opacity:1"
         id="g114"
         transform="matrix(20.465511,0,0,-20.465511,1140.6876,945.46552)">
        <g
           style="stroke:none;stroke-opacity:1"
           id="g116"
           transform="translate(65.11264,27.34251)">
          <path
             inkscape:connector-curvature="0"
             id="path118"
             style="fill:#ee1d27;fill-opacity:1;fill-rule:evenodd;stroke:none;stroke-opacity:1"
             d="M 1.43911,-1.56124 1.89876,-1.63545 C 1.80899,-1.90087 1.6744,-2.10374 1.49501,-2.24405 1.31562,-2.38436 1.1055,-2.45452 0.86466,-2.45452 c -0.271,0 -0.48285,0.08713 -0.63558,0.26137 C 0.07636,-2.01892 0,-1.7664 0,-1.4356 c 0,0.26896 0.05118,0.51494 0.15355,0.73795 0.10237,0.22301 0.24424,0.39371 0.42562,0.5121 0.18138,0.1184 0.37891,0.1776 0.59259,0.1776 0.23985,0 0.43381,-0.06857 0.58191,-0.20569 0.14809,-0.13713 0.23521,-0.32391 0.26138,-0.56035 l -0.4368,-0.0456 c -0.02419,0.13784 -0.07082,0.23768 -0.13988,0.29953 -0.06908,0.06185 -0.1611,0.09277 -0.27605,0.09277 -0.12589,0 -0.2435,-0.04091 -0.35282,-0.12272 C 0.70017,-0.63183 0.6128,-0.7595 0.54737,-0.93304 0.48194,-1.10656 0.44922,-1.27991 0.44922,-1.45309 c 0,-0.18908 0.04257,-0.33523 0.12772,-0.43842 0.08514,-0.1032 0.19114,-0.1548 0.31803,-0.1548 0.11794,0 0.22602,0.04083 0.32425,0.12246 0.09822,0.08164 0.17152,0.20251 0.21989,0.36261 z m 0.68128,-0.13995 c 0,0.31702 0.08391,0.56989 0.25171,0.75862 0.16779,0.18872 0.38834,0.28309 0.66166,0.28309 0.23654,0 0.42138,-0.06963 0.55456,-0.20887 0.13318,-0.13925 0.19979,-0.32657 0.19979,-0.56194 0,-0.27744 -0.08317,-0.51723 -0.24946,-0.7194 -0.16633,-0.20215 -0.38911,-0.30323 -0.66839,-0.30323 -0.15106,0 -0.28508,0.03224 -0.40201,0.09675 -0.11694,0.0645 -0.20416,0.15586 -0.26164,0.27407 -0.05747,0.11822 -0.08622,0.24519 -0.08622,0.38091 z m 1.23685,0.33027 c 0,0.10956 -0.02996,0.19747 -0.08993,0.26374 -0.05996,0.06627 -0.13731,0.0994 -0.23206,0.0994 -0.09376,0 -0.17691,-0.03093 -0.24946,-0.09278 C 2.71323,-1.1624 2.65675,-1.25217 2.61633,-1.36986 2.57592,-1.48755 2.5557,-1.59587 2.5557,-1.69483 c 0,-0.12264 0.03132,-0.22 0.09393,-0.2921 0.06262,-0.0721 0.14113,-0.10815 0.23554,-0.10815 0.11894,0 0.21881,0.05444 0.29965,0.16327 0.11497,0.15375 0.17242,0.34071 0.17242,0.56089 z m 0.89798,0.67115 0.40847,0 -0.04075,-0.20835 c 0.15902,0.16576 0.32631,0.24864 0.50188,0.24864 0.12093,0 0.2141,-0.02695 0.27955,-0.08085 0.06542,-0.0539 0.10724,-0.12802 0.12547,-0.22239 0.05532,0.08588 0.13492,0.15789 0.23876,0.21603 0.10387,0.05814 0.21163,0.08721 0.32328,0.08721 0.1282,0 0.22808,-0.03658 0.29962,-0.10974 0.07158,-0.07316 0.10734,-0.17 0.10734,-0.29051 0,-0.05902 -0.01407,-0.16116 -0.04225,-0.30642 l -0.2057,-1.04649 -0.43382,0 0.20524,1.04649 c 0.02549,0.13112 0.03825,0.20534 0.03825,0.22265 0,0.04736 -0.01343,0.08473 -0.04026,0.11213 -0.02684,0.02739 -0.0669,0.04109 -0.12027,0.04109 -0.10765,0 -0.20389,-0.0608 -0.2887,-0.18237 C 5.54969,-1.2596 5.49738,-1.41386 5.45432,-1.63545 l -0.15307,-0.77719 -0.43382,0 0.20274,1.03536 c 0.02321,0.11946 0.03479,0.19685 0.03479,0.2322 0,0.04523 -0.01431,0.08234 -0.04299,0.11132 -0.02865,0.02898 -0.06832,0.04348 -0.11901,0.04348 -0.04705,0 -0.09582,-0.01503 -0.14635,-0.04507 C 4.74611,-1.06538 4.70196,-1.10674 4.66419,-1.1594 4.62643,-1.21206 4.59393,-1.27991 4.56677,-1.36297 4.55485,-1.40149 4.53513,-1.48914 4.50765,-1.62592 l -0.15406,-0.78672 -0.43382,0 0.33545,1.71287 z m 2.73509,0 0.41144,0 L 7.367,-0.87578 c 0.08743,0.0774 0.16948,0.1328 0.2462,0.1662 0.07672,0.0334 0.15892,0.0501 0.24674,0.0501 0.16829,0 0.30351,-0.06185 0.40573,-0.18555 0.10222,-0.1237 0.1533,-0.30818 0.1533,-0.55346 0,-0.30854 -0.08813,-0.56918 -0.26437,-0.78195 -0.15134,-0.18166 -0.33028,-0.27248 -0.53667,-0.27248 -0.21268,0 -0.37352,0.09189 -0.48252,0.27567 L 6.962,-3.06576 l -0.43383,0 0.46214,2.36599 z m 0.26187,-0.98234 c 0,-0.13324 0.03049,-0.23669 0.09143,-0.31039 0.06097,-0.07369 0.13269,-0.11054 0.21522,-0.11054 0.07147,0 0.14054,0.02766 0.20722,0.08298 0.06659,0.05531 0.12171,0.14719 0.16544,0.27567 0.04372,0.12846 0.06562,0.24765 0.06562,0.35757 0,0.12794 -0.02865,0.22601 -0.08602,0.29421 -0.0573,0.06822 -0.13035,0.10233 -0.21914,0.10233 -0.0828,0 -0.15817,-0.03146 -0.22609,-0.09437 C 7.39796,-1.14756 7.34537,-1.23998 7.30809,-1.36191 7.27081,-1.48384 7.25218,-1.59058 7.25218,-1.68211 Z m 1.60409,0.98234 0.40498,0 -0.06457,-0.33239 c 0.15104,0.24845 0.31469,0.37268 0.491,0.37268 0.06262,0 0.12967,-0.01679 0.20122,-0.05036 L 9.72241,-1.08889 c -0.03908,0.0152 -0.08085,0.0228 -0.12525,0.0228 -0.07447,0 -0.15037,-0.03014 -0.22754,-0.09039 C 9.29245,-1.21674 9.23223,-1.29706 9.18903,-1.39743 9.14576,-1.4978 9.10293,-1.65719 9.06049,-1.8756 l -0.10582,-0.53704 -0.43386,0 0.33546,1.71287 z m 0.96056,-1.00142 c 0,0.31702 0.08392,0.56989 0.25169,0.75862 0.16784,0.18872 0.3884,0.28309 0.66169,0.28309 0.23654,0 0.42141,-0.06963 0.5546,-0.20887 0.13312,-0.13925 0.19972,-0.32657 0.19972,-0.56194 0,-0.27744 -0.08318,-0.51723 -0.24944,-0.7194 -0.16635,-0.20215 -0.38909,-0.30323 -0.66837,-0.30323 -0.15105,0 -0.28506,0.03224 -0.40198,0.09675 -0.117,0.0645 -0.20422,0.15586 -0.26167,0.27407 -0.05752,0.11822 -0.08624,0.24519 -0.08624,0.38091 z m 1.23684,0.33027 c 0,0.10956 -0.02992,0.19747 -0.08992,0.26374 -0.06,0.06627 -0.13732,0.0994 -0.23204,0.0994 -0.09375,0 -0.17692,-0.03093 -0.24944,-0.09278 -0.0726,-0.06184 -0.12907,-0.15161 -0.16949,-0.2693 -0.04042,-0.11769 -0.0606,-0.22601 -0.0606,-0.32497 0,-0.12264 0.03128,-0.22 0.0939,-0.2921 0.06262,-0.0721 0.14114,-0.10815 0.23556,-0.10815 0.11895,0 0.21877,0.05444 0.29961,0.16327 0.11497,0.15375 0.17242,0.34071 0.17242,0.56089 z m 0.89801,0.67115 0.40851,0 -0.0408,-0.20835 c 0.15899,0.16576 0.32631,0.24864 0.50187,0.24864 0.12097,0 0.21412,-0.02695 0.27959,-0.08085 0.0654,-0.0539 0.10717,-0.12802 0.12547,-0.22239 0.05527,0.08588 0.13492,0.15789 0.23871,0.21603 0.10388,0.05814 0.21165,0.08721 0.32332,0.08721 0.12816,0 0.22806,-0.03658 0.29961,-0.10974 0.07154,-0.07316 0.10732,-0.17 0.10732,-0.29051 0,-0.05902 -0.01403,-0.16116 -0.04223,-0.30642 l -0.20571,-1.04649 -0.43386,0 0.20527,1.04649 c 0.0255,0.13112 0.03825,0.20534 0.03825,0.22265 0,0.04736 -0.01343,0.08473 -0.04028,0.11213 -0.02677,0.02739 -0.06689,0.04109 -0.12022,0.04109 -0.10769,0 -0.20391,-0.0608 -0.28873,-0.18237 -0.06165,-0.08695 -0.11392,-0.24121 -0.15705,-0.4628 l -0.15299,-0.77719 -0.43385,0 0.20271,1.03536 c 0.02318,0.11946 0.0348,0.19685 0.0348,0.2322 0,0.04523 -0.01432,0.08234 -0.04297,0.11132 -0.02865,0.02898 -0.06832,0.04348 -0.11902,0.04348 -0.04703,0 -0.09577,-0.01503 -0.14632,-0.04507 -0.05055,-0.03003 -0.09465,-0.07139 -0.13244,-0.12405 -0.0378,-0.05266 -0.07028,-0.12051 -0.09743,-0.20357 -0.01192,-0.03852 -0.03164,-0.12617 -0.05909,-0.26295 l -0.15405,-0.78672 -0.43385,0 0.33546,1.71287 z m 3.97639,-0.99983 -1.08827,0 c -0.0011,-0.01837 -0.0014,-0.03251 -0.0014,-0.04242 0,-0.11379 0.03045,-0.20559 0.09135,-0.2754 0.06105,-0.06979 0.13522,-0.1047 0.22266,-0.1047 0.14415,0 0.25664,0.07952 0.33749,0.23856 l 0.388,-0.06944 c -0.07545,-0.16682 -0.17654,-0.29184 -0.30291,-0.37507 -0.12637,-0.08323 -0.26819,-0.12485 -0.42561,-0.12485 -0.21561,0 -0.39095,0.0728 -0.52602,0.21842 -0.13492,0.1456 -0.20242,0.3384 -0.20242,0.57837 0,0.23432 0.0609,0.44283 0.18292,0.62555 0.16627,0.2474 0.40348,0.3711 0.71202,0.3711 0.19634,0 0.3527,-0.06477 0.46865,-0.1943 0.11594,-0.12953 0.17392,-0.3111 0.17392,-0.54471 0,-0.11168 -0.01013,-0.21205 -0.03038,-0.30111 z m -0.36568,0.28203 c 9e-4,0.0205 0.0015,0.03604 0.0015,0.04665 0,0.12688 -0.02677,0.22204 -0.08025,0.28548 -0.05354,0.06343 -0.12509,0.09516 -0.21441,0.09516 -0.08977,0 -0.17017,-0.03606 -0.24134,-0.10815 -0.0711,-0.0721 -0.1191,-0.17848 -0.14429,-0.31914 l 0.67879,0 z m 0.62855,0.37427 0.06667,0.34353 0.21164,0 0.05325,0.27407 0.49692,0.31914 -0.11639,-0.59321 0.26489,0 -0.06653,-0.34353 -0.26631,0 -0.14069,-0.71781 c -0.0252,-0.13005 -0.03773,-0.20426 -0.03773,-0.22264 0,-0.03534 0.0105,-0.063 0.0318,-0.08297 0.02108,-0.01996 0.0594,-0.02996 0.11475,-0.02996 0.01912,0 0.06712,0.0039 0.14362,0.01168 l -0.06765,-0.34354 c -0.07477,-0.01625 -0.15157,-0.02438 -0.23009,-0.02438 -0.15292,0 -0.26429,0.03145 -0.33381,0.09436 -0.06967,0.06291 -0.1044,0.15021 -0.1044,0.26188 0,0.05267 0.01868,0.17424 0.0561,0.36474 l 0.13417,0.68864 -0.21021,0 z m 1.37153,0.99506 0.43386,0 -0.08152,-0.41934 -0.43378,0 0.08144,0.41934 z m -0.12667,-0.65153 0.43378,0 -0.33591,-1.71287 -0.43385,0 0.33598,1.71287 z m 2.00609,-1.71287 -0.41151,0 0.0363,0.18556 c -0.07852,-0.08058 -0.15584,-0.13837 -0.23174,-0.17336 -0.07605,-0.03499 -0.16192,-0.05248 -0.25769,-0.05248 -0.16642,0 -0.30111,0.06043 -0.40453,0.1813 -0.10335,0.12088 -0.15509,0.2997 -0.15509,0.5365 0,0.2739 0.07252,0.52165 0.21771,0.74324 0.1452,0.2216 0.33704,0.3324 0.5759,0.3324 0.21569,0 0.37746,-0.09136 0.48553,-0.27408 l 0.17347,0.88532 0.43378,0 -0.46213,-2.3644 z m -1.00226,0.6966 c 0,-0.12263 0.02895,-0.21833 0.08692,-0.28707 0.05798,-0.06873 0.12922,-0.10311 0.21367,-0.10311 0.07852,0 0.15179,0.02873 0.21989,0.08616 0.0681,0.05742 0.12247,0.14534 0.16327,0.26373 0.04079,0.11841 0.06104,0.23185 0.06104,0.34035 0,0.1237 -0.03112,0.22371 -0.09359,0.30005 -0.06247,0.07634 -0.13447,0.11451 -0.21599,0.11451 -0.12682,0 -0.23107,-0.07528 -0.31274,-0.22583 -0.08167,-0.15057 -0.12247,-0.31348 -0.12247,-0.48879 z m 1.45899,0.01485 c 0,0.31702 0.08384,0.56989 0.25161,0.75862 0.16784,0.18872 0.38833,0.28309 0.66177,0.28309 0.23654,0 0.42126,-0.06963 0.55445,-0.20887 0.13319,-0.13925 0.19979,-0.32657 0.19979,-0.56194 0,-0.27744 -0.0831,-0.51723 -0.24936,-0.7194 -0.16642,-0.20215 -0.38909,-0.30323 -0.66845,-0.30323 -0.15104,0 -0.28514,0.03224 -0.40205,0.09675 -0.117,0.0645 -0.20415,0.15586 -0.26159,0.27407 -0.05753,0.11822 -0.08617,0.24519 -0.08617,0.38091 z m 1.23676,0.33027 c 0,0.10956 -0.02992,0.19747 -0.08992,0.26374 -0.05999,0.06627 -0.13732,0.0994 -0.23204,0.0994 -0.09382,0 -0.17699,-0.03093 -0.24943,-0.09278 -0.07253,-0.06184 -0.12907,-0.15161 -0.16942,-0.2693 -0.0405,-0.11769 -0.06075,-0.22601 -0.06075,-0.32497 0,-0.12264 0.03142,-0.22 0.09397,-0.2921 0.06262,-0.0721 0.14115,-0.10815 0.23557,-0.10815 0.11879,0 0.21876,0.05444 0.29953,0.16327 0.11512,0.15375 0.17249,0.34071 0.17249,0.56089 z m 0.52041,-0.563 0.42028,0.07104 c 0.03712,-0.09436 0.08339,-0.16117 0.13897,-0.20039 0.05549,-0.03924 0.13109,-0.05885 0.22686,-0.05885 0.0987,0 0.17767,0.0235 0.23691,0.07051 0.04155,0.03252 0.06218,0.07175 0.06218,0.11769 0,0.03146 -0.0105,0.05956 -0.0318,0.08429 -0.02228,0.02367 -0.08212,0.05265 -0.17984,0.08694 -0.26212,0.0926 -0.42418,0.16575 -0.48651,0.21947 -0.09779,0.08377 -0.14662,0.19333 -0.14662,0.32869 0,0.13536 0.0474,0.25198 0.14212,0.34989 0.13185,0.13677 0.32774,0.20516 0.5879,0.20516 0.20632,0 0.36246,-0.04038 0.46828,-0.12114 0.10582,-0.08076 0.17294,-0.18988 0.20114,-0.32735 l -0.40071,-0.07422 c -0.02107,0.0622 -0.05534,0.10903 -0.10274,0.14048 -0.06435,0.0417 -0.14182,0.06255 -0.23264,0.06255 -0.09067,0 -0.15599,-0.01607 -0.19582,-0.04823 -0.03974,-0.03217 -0.05954,-0.06928 -0.05954,-0.11134 0,-0.04311 0.02025,-0.07863 0.06059,-0.10655 0.02513,-0.01696 0.10612,-0.047 0.24307,-0.09013 0.21164,-0.06572 0.35331,-0.13022 0.42478,-0.19349 0.10079,-0.08906 0.15104,-0.1965 0.15104,-0.32233 0,-0.16257 -0.0639,-0.30349 -0.19184,-0.42278 -0.12779,-0.11926 -0.30824,-0.17891 -0.54103,-0.17891 -0.23188,0 -0.41105,0.04542 -0.53742,0.13624 -0.12637,0.09084 -0.21239,0.21842 -0.25761,0.38276 z m 3.72043,0.16645 0.4214,-0.07262 c -0.06952,-0.20004 -0.17234,-0.35218 -0.30838,-0.45644 -0.1359,-0.10425 -0.29362,-0.15639 -0.47278,-0.15639 -0.20474,0 -0.36711,0.06504 -0.48696,0.19509 -0.11999,0.13006 -0.17999,0.30907 -0.17999,0.53702 0,0.18591 0.0363,0.36164 0.1089,0.52722 0.07252,0.16558 0.18186,0.29599 0.32788,0.39124 0.14617,0.09524 0.30651,0.14287 0.48103,0.14287 0.18952,0 0.34079,-0.05275 0.45358,-0.15825 0.11272,-0.10549 0.17624,-0.24412 0.19057,-0.41588 L 25.49854,-1.2808 c -0.01,0.09578 -0.0375,0.16629 -0.08228,0.21153 -0.04499,0.04524 -0.10372,0.06785 -0.17624,0.06785 -0.08377,0 -0.16199,-0.03331 -0.23451,-0.09993 -0.0726,-0.06662 -0.1281,-0.16637 -0.16702,-0.29925 -0.03877,-0.1329 -0.05812,-0.2573 -0.05812,-0.37322 0,-0.10108 0.02325,-0.1791 0.06952,-0.23405 0.04642,-0.05497 0.1044,-0.08244 0.17392,-0.08244 0.06959,0 0.13664,0.02695 0.20114,0.08084 0.06434,0.05391 0.11482,0.13457 0.15127,0.242 z m 0.69221,0.06628 c 0,0.31702 0.08393,0.56989 0.25177,0.75862 0.16769,0.18872 0.38833,0.28309 0.66162,0.28309 0.23654,0 0.42133,-0.06963 0.5546,-0.20887 0.13319,-0.13925 0.19964,-0.32657 0.19964,-0.56194 0,-0.27744 -0.0831,-0.51723 -0.24937,-0.7194 -0.16626,-0.20215 -0.38908,-0.30323 -0.66844,-0.30323 -0.15104,0 -0.28499,0.03224 -0.40191,0.09675 -0.11699,0.0645 -0.20414,0.15586 -0.26173,0.27407 -0.05738,0.11822 -0.08618,0.24519 -0.08618,0.38091 z m 1.23677,0.33027 c 0,0.10956 -0.02992,0.19747 -0.08992,0.26374 -0.05985,0.06627 -0.13717,0.0994 -0.23204,0.0994 -0.09367,0 -0.17684,-0.03093 -0.24944,-0.09278 -0.07252,-0.06184 -0.12907,-0.15161 -0.16941,-0.2693 -0.0405,-0.11769 -0.0606,-0.22601 -0.0606,-0.32497 0,-0.12264 0.03127,-0.22 0.09382,-0.2921 0.06262,-0.0721 0.14114,-0.10815 0.23556,-0.10815 0.11902,0 0.21892,0.05444 0.29969,0.16327 0.11497,0.15375 0.17234,0.34071 0.17234,0.56089 z m 0.91796,0.67115 0.41091,0 -0.04215,-0.22266 c 0.10259,0.09436 0.19859,0.16178 0.28784,0.20225 0.08932,0.04046 0.18329,0.0607 0.28206,0.0607 0.13214,0 0.23624,-0.04038 0.31228,-0.12114 0.07605,-0.08076 0.11407,-0.18775 0.11407,-0.32099 0,-0.06008 -0.01672,-0.17406 -0.05017,-0.34194 l -0.18877,-0.96909 -0.43393,0 0.19042,0.97228 c 0.0285,0.14525 0.04267,0.23184 0.04267,0.25976 0,0.05902 -0.01635,0.10549 -0.04919,0.13942 -0.03278,0.03393 -0.07845,0.0509 -0.13717,0.0509 -0.06323,0 -0.13372,-0.02845 -0.21142,-0.08536 -0.07762,-0.05689 -0.13867,-0.13218 -0.18261,-0.22584 -0.03248,-0.06679 -0.06893,-0.20285 -0.10928,-0.4082 l -0.13724,-0.70296 -0.4337,0 0.33538,1.71287 z m 2.33749,-1.23415 0.42051,0.07104 c 0.03697,-0.09436 0.0834,-0.16117 0.13874,-0.20039 0.05558,-0.03924 0.13117,-0.05885 0.22687,-0.05885 0.09877,0 0.17781,0.0235 0.23714,0.07051 0.04132,0.03252 0.06202,0.07175 0.06202,0.11769 0,0.03146 -0.01058,0.05956 -0.0318,0.08429 -0.02212,0.02367 -0.08212,0.05265 -0.17984,0.08694 -0.26204,0.0926 -0.42426,0.16575 -0.48658,0.21947 -0.09757,0.08377 -0.14647,0.19333 -0.14647,0.32869 0,0.13536 0.04733,0.25198 0.14197,0.34989 0.13192,0.13677 0.32796,0.20516 0.5879,0.20516 0.20647,0 0.36261,-0.04038 0.4685,-0.12114 0.10582,-0.08076 0.17272,-0.18988 0.20092,-0.32735 l -0.40048,-0.07422 c -0.02123,0.0622 -0.0555,0.10903 -0.10297,0.14048 -0.0642,0.0417 -0.14167,0.06255 -0.23249,0.06255 -0.09075,0 -0.156,-0.01607 -0.19574,-0.04823 -0.03975,-0.03217 -0.0597,-0.06928 -0.0597,-0.11134 0,-0.04311 0.02025,-0.07863 0.06075,-0.10655 0.02512,-0.01696 0.10612,-0.047 0.24284,-0.09013 0.21171,-0.06572 0.35338,-0.13022 0.42493,-0.19349 0.10064,-0.08906 0.15111,-0.1965 0.15111,-0.32233 0,-0.16257 -0.06404,-0.30349 -0.19184,-0.42278 -0.12787,-0.11926 -0.30823,-0.17891 -0.54117,-0.17891 -0.23197,0 -0.41106,0.04542 -0.53743,0.13624 -0.12637,0.09084 -0.21224,0.21842 -0.25769,0.38276 z m 2.10606,1.23415 0.43385,0 -0.19836,-1.01468 c -0.02415,-0.12157 -0.0363,-0.19737 -0.0363,-0.22742 0,-0.04947 0.01725,-0.09189 0.05152,-0.12724 0.03435,-0.03533 0.07822,-0.05301 0.13155,-0.05301 0.03817,0 0.07604,0.00778 0.11324,0.02333 0.03757,0.01554 0.07575,0.03914 0.11489,0.07077 0.03923,0.03163 0.07478,0.06785 0.10598,0.10869 0.03127,0.04081 0.06059,0.09462 0.08767,0.16141 0.01905,0.04948 0.03974,0.13006 0.06217,0.24173 l 0.16004,0.81642 0.43356,0 -0.33509,-1.71287 -0.40528,0 0.04537,0.2322 c -0.17751,-0.18166 -0.37041,-0.27248 -0.57905,-0.27248 -0.13214,0 -0.23593,0.04028 -0.31161,0.12087 -0.07544,0.08058 -0.11317,0.18873 -0.11317,0.32444 0,0.05902 0.01703,0.17671 0.05115,0.35307 l 0.18787,0.95477 z m 3.51321,-1.71287 -0.48665,0 -0.39733,2.3644 0.4547,0 0.28109,-1.78867 0.91796,1.78867 0.4517,0 -1.22147,-2.3644 z m 1.29159,2.3644 0.43386,0 -0.08152,-0.41934 -0.43401,0 0.08167,0.41934 z m -0.12682,-0.65153 0.43401,0 -0.33614,-1.71287 -0.43355,0 0.33568,1.71287 z m 0.46731,-1.23415 0.42028,0.07104 c 0.0369,-0.09436 0.08347,-0.16117 0.13897,-0.20039 0.05534,-0.03924 0.13109,-0.05885 0.22686,-0.05885 0.0987,0 0.17752,0.0235 0.23707,0.07051 0.04109,0.03252 0.06194,0.07175 0.06194,0.11769 0,0.03146 -0.01057,0.05956 -0.03172,0.08429 -0.02235,0.02367 -0.08227,0.05265 -0.17999,0.08694 -0.26212,0.0926 -0.42403,0.16575 -0.48635,0.21947 -0.09773,0.08377 -0.14677,0.19333 -0.14677,0.32869 0,0.13536 0.04739,0.25198 0.14227,0.34989 0.13199,0.13677 0.32788,0.20516 0.58789,0.20516 0.20647,0 0.36261,-0.04038 0.46828,-0.12114 0.10597,-0.08076 0.17279,-0.18988 0.20114,-0.32735 l -0.40063,-0.07422 c -0.02115,0.0622 -0.05542,0.10903 -0.10282,0.14048 -0.0642,0.0417 -0.14182,0.06255 -0.23279,0.06255 -0.09052,0 -0.15599,-0.01607 -0.19544,-0.04823 -0.0399,-0.03217 -0.05977,-0.06928 -0.05977,-0.11134 0,-0.04311 0.0201,-0.07863 0.0606,-0.10655 0.02519,-0.01696 0.10612,-0.047 0.24306,-0.09013 0.21164,-0.06572 0.35323,-0.13022 0.42463,-0.19349 0.1008,-0.08906 0.15127,-0.1965 0.15127,-0.32233 0,-0.16257 -0.0639,-0.30349 -0.19177,-0.42278 -0.12794,-0.11926 -0.30838,-0.17891 -0.54117,-0.17891 -0.23219,0 -0.41121,0.04542 -0.53765,0.13624 -0.12615,0.09084 -0.21202,0.21842 -0.25739,0.38276 z m 2.23542,1.88568 0.43386,0 -0.08123,-0.41934 -0.43393,0 0.0813,0.41934 z m -0.12637,-0.65153 0.43356,0 -0.33584,-1.71287 -0.43393,0 0.33621,1.71287 z m 0.58625,-1.00142 c 0,0.31702 0.08377,0.56989 0.25161,0.75862 0.16785,0.18872 0.38849,0.28309 0.66177,0.28309 0.23639,0 0.42141,-0.06963 0.55445,-0.20887 0.13335,-0.13925 0.19979,-0.32657 0.19979,-0.56194 0,-0.27744 -0.08324,-0.51723 -0.24951,-0.7194 -0.16627,-0.20215 -0.38923,-0.30323 -0.66844,-0.30323 -0.15105,0 -0.28507,0.03224 -0.40191,0.09675 -0.117,0.0645 -0.20414,0.15586 -0.26174,0.27407 -0.05737,0.11822 -0.08602,0.24519 -0.08602,0.38091 z m 1.23662,0.33027 c 0,0.10956 -0.02993,0.19747 -0.08992,0.26374 -0.05985,0.06627 -0.13717,0.0994 -0.23204,0.0994 -0.09352,0 -0.17684,-0.03093 -0.24929,-0.09278 -0.07267,-0.06184 -0.12892,-0.15161 -0.16942,-0.2693 -0.04065,-0.11769 -0.0606,-0.22601 -0.0606,-0.32497 0,-0.12264 0.03128,-0.22 0.09383,-0.2921 0.06247,-0.0721 0.14114,-0.10815 0.23571,-0.10815 0.11879,0 0.21861,0.05444 0.29954,0.16327 0.11497,0.15375 0.17219,0.34071 0.17219,0.56089 z M 41.51713,0 l 0.4625,0 -0.48958,-0.48401 -0.28903,0 L 41.51713,0 Z m 1.14475,-0.69977 0.41083,0 -0.04208,-0.22266 c 0.1026,0.09436 0.19875,0.16178 0.28799,0.20225 0.08917,0.04046 0.18344,0.0607 0.28191,0.0607 0.1323,0 0.23639,-0.04038 0.31244,-0.12114 0.07605,-0.08076 0.11384,-0.18775 0.11384,-0.32099 0,-0.06008 -0.01635,-0.17406 -0.05002,-0.34194 l -0.18899,-0.96909 -0.43363,0 0.19027,0.97228 c 0.02834,0.14525 0.04282,0.23184 0.04282,0.25976 0,0.05902 -0.01635,0.10549 -0.04935,0.13942 -0.03262,0.03393 -0.0783,0.0509 -0.13687,0.0509 -0.06367,0 -0.13402,-0.02845 -0.21186,-0.08536 -0.07762,-0.05689 -0.13822,-0.13218 -0.18232,-0.22584 -0.03247,-0.06679 -0.06907,-0.20285 -0.10927,-0.4082 l -0.13739,-0.70296 -0.43386,0 0.33554,1.71287 z" />
        </g>
      </g>
      <g
         style="stroke:none;stroke-opacity:1"
         id="g120"
         transform="matrix(20.465511,0,0,-20.465511,1140.6876,945.46552)">
        <g
           style="stroke:none;stroke-opacity:1"
           id="g122"
           transform="translate(3.84259,63.78322)">
          <g
             style="stroke:none;stroke-opacity:1"
             id="g124">
            <g
               style="stroke:none;stroke-opacity:1"
               id="g126"
               clip-path="url(#clipPath54)">
              <g
                 style="stroke:none;stroke-opacity:1"
                 id="g128"
                 clip-path="url(#clipPath58)">
                <path
                   inkscape:connector-curvature="0"
                   id="path130"
                   style="fill:url(#linearGradient62);fill-rule:evenodd;stroke:none;stroke-opacity:1"
                   d="m 27.81038,0 c 0,0 -5.75944,-2.62269 -9.40367,-5.29617 -2.8327,-2.0781 -6.01068,-5.54733 -6.01068,-5.54733 -0.26841,1.33097 2.38099,4.32081 3.33465,5.50737 -6.64844,-4.56327 -6.79041,-9.69425 -6.79041,-9.69425 -3.23709,-1.28946 -5.77778,-4.88209 -7.66905,-9.27598 0,0 3.31936,4.18224 5.135,4.90692 C 3.92069,-23.91965 0,-31.97109 0.74857,-39.59461 c 0.66692,6.68369 2.47893,12.92584 6.54761,18.83504 -0.82961,-18.87864 2.75839,-30.21505 9.22077,-39.06909 -7.47386,13.36326 -8.02509,28.18588 -5.5301,41.92179 0.11444,-0.06678 6.84224,-4.06191 11.67104,-6.70888 4.15864,-2.27955 13.07265,-7.30052 13.07265,-7.30052 l -22.3549,16.8666 c 0,0 4.59699,2.95471 11.84713,5.51739 6.63255,2.34435 14.03246,3.17018 17.34229,3.4055 3.05071,0.21693 9.63638,0.30829 9.63638,0.30829 0,0 -3.31912,0.28178 -4.47505,0.34717 -1.15554,0.06535 -7.6618,0.43699 -12.73179,-0.086 -7.44288,-0.73677 -14.60176,-2.37521 -21.36307,-5.86464 2.00361,2.78973 4.66801,5.12767 6.90846,6.89039 C 22.98308,-2.60956 27.81038,0 27.81038,0 Z" />
              </g>
            </g>
          </g>
        </g>
      </g>
      <g
         style="stroke:none;stroke-opacity:1"
         id="g132"
         transform="matrix(20.465511,0,0,-20.465511,1140.6876,945.46552)">
        <g
           style="stroke:none;stroke-opacity:1"
           id="g134"
           transform="translate(8.68186,53.58008)">
          <path
             inkscape:connector-curvature="0"
             id="path136"
             style="fill:#ffffff;fill-opacity:1;fill-rule:evenodd;stroke:none;stroke-opacity:1"
             d="m 12.59822,0 c 0,0 -4.2511,-2.02696 -4.60921,-2.20512 C 7.6309,-2.38327 7.42934,-2.68373 7.42727,-2.95893 7.42464,-3.30568 8.06723,-2.93128 8.06723,-2.93128 L 12.59822,0 Z M 5.70704,-4.91821 C 5.59691,-4.9245 5.49039,-4.98619 5.39735,-5.14253 5.16142,-5.5388 5.46074,-5.80004 5.66177,-5.89022 c 0.20099,-0.09016 7.78534,-4.60889 7.78534,-4.60889 0,0 -7.02904,5.22482 -7.26888,5.38628 -0.14239,0.09587 -0.31024,0.20376 -0.47119,0.19462 z M 2.73879,-8.16392 C 2.53773,-8.17387 2.27098,-8.5125 2.11634,-8.85113 1.9457,-9.22491 0,-13.16619 0,-13.16619 l 2.66266,4.4164 c 0,0 0.34161,0.50966 0.13684,0.57764 -0.0192,0.00644 -0.0399,0.00928 -0.06071,0.00823 z" />
        </g>
      </g>
    </g>
  </g>
</svg>
