<?xml version="1.0" encoding="UTF-8" standalone="no"?>
<!-- Created with Inkscape (http://www.inkscape.org/) -->

<svg
   xmlns:dc="http://purl.org/dc/elements/1.1/"
   xmlns:cc="http://creativecommons.org/ns#"
   xmlns:rdf="http://www.w3.org/1999/02/22-rdf-syntax-ns#"
   xmlns:svg="http://www.w3.org/2000/svg"
   xmlns="http://www.w3.org/2000/svg"
   xmlns:sodipodi="http://sodipodi.sourceforge.net/DTD/sodipodi-0.dtd"
   xmlns:inkscape="http://www.inkscape.org/namespaces/inkscape"
   width="1.4111105mm"
   height="1.9722173mm"
   viewBox="0 0 4.9999981 6.9881716"
   id="svg2"
   version="1.1"
   inkscape:version="0.91 r13725"
   sodipodi:docname="publipan.svg">
  <defs
     id="defs4">
    <clipPath
       id="clipPath4160"
       clipPathUnits="userSpaceOnUse">
      <path
         style="clip-rule:evenodd"
         inkscape:connector-curvature="0"
         id="path4162"
         d="m 0.108,0.108 1114.1334,0 0,673.5521 -1114.1334,0 0,-673.5521 z" />
    </clipPath>
    <linearGradient
       id="linearGradient4164"
       spreadMethod="pad"
       gradientUnits="userSpaceOnUse"
       y2="822.96002"
       x2="266.35001"
       y1="-149.05"
       x1="846.95001">
      <stop
         id="stop4166"
         offset="0"
         style="stop-opacity:1;stop-color:#8988c1" />
      <stop
         id="stop4168"
         offset="0.02"
         style="stop-opacity:1;stop-color:#8988c1" />
      <stop
         id="stop4170"
         offset="0.41"
         style="stop-opacity:1;stop-color:#53447b" />
      <stop
         id="stop4172"
         offset="0.89"
         style="stop-opacity:1;stop-color:#4a3f60" />
      <stop
         id="stop4174"
         offset="1"
         style="stop-opacity:1;stop-color:#4a3f60" />
    </linearGradient>
    <pattern
       id="pattern4284"
       height="49.9997"
       width="225.9998"
       y="0"
       x="0"
       patternUnits="userSpaceOnUse"
       patternTransform="matrix(4.96541,0,0,54.23523,-199.9128,-249.776)" />
  </defs>
  <sodipodi:namedview
     id="base"
     pagecolor="#ffffff"
     bordercolor="#666666"
     borderopacity="1.0"
     inkscape:pageopacity="0.0"
     inkscape:pageshadow="2"
     inkscape:zoom="20.48"
     inkscape:cx="-1.8947858"
     inkscape:cy="3.5590229"
     inkscape:document-units="px"
     inkscape:current-layer="layer1"
     showgrid="false"
     fit-margin-top="0"
     fit-margin-left="0"
     fit-margin-right="0"
     fit-margin-bottom="0"
     inkscape:window-width="1366"
     inkscape:window-height="705"
     inkscape:window-x="-8"
     inkscape:window-y="-8"
     inkscape:window-maximized="1" />
  <metadata
     id="metadata7">
    <rdf:RDF>
      <cc:Work
         rdf:about="">
        <dc:format>image/svg+xml</dc:format>
        <dc:type
           rdf:resource="http://purl.org/dc/dcmitype/StillImage" />
        <dc:title></dc:title>
      </cc:Work>
    </rdf:RDF>
  </metadata>
  <g
     inkscape:label="Capa 1"
     inkscape:groupmode="layer"
     id="layer1"
     transform="translate(-446.80138,-66.927401)">
    <g
       id="g4321"
       transform="matrix(0.01016126,0,0,0.01016126,444.73283,69.697324)">
      <path
         d="M 432.6619,63.734776 558.36715,142.84365 329.27714,280.23254 203.57225,201.11979 432.6619,63.734776 Z"
         style="fill:#393151;fill-opacity:1;fill-rule:nonzero;stroke:none"
         id="path5446"
         inkscape:connector-curvature="0" />
      <path
         d="m 340.24151,-94.223114 0,360.273274 -80.21551,-46.31275 0,-360.27327 80.21551,46.312746 z"
         style="fill:#aa5b7f;fill-opacity:1;fill-rule:nonzero;stroke:none"
         id="path5448"
         inkscape:connector-curvature="0" />
      <path
         d="m 292.17051,201.18104 -32.14488,18.55875 80.21688,46.30962 -48.072,-64.86837 z"
         style="fill:#5295a6;fill-opacity:1;fill-rule:nonzero;stroke:none"
         id="path5450"
         inkscape:connector-curvature="0" />
      <path
         d="m 479.60439,-267.27887 0,360.273146 -219.58589,126.777764 0,-360.27215 -3.7e-4,-3.7e-4 3.78825,-11.01113 3.88025,4.20338 5.98113,-11.07425 5.65862,4.12262 6.62813,-10.508 4.203,4.0415 5.81987,-10.508 4.84975,4.0415 5.33513,-9.69951 3.87963,4.04113 4.52662,-8.72925 3.71825,3.71837 5.81988,-8.89162 3.07137,3.88 5.01163,-8.72963 3.39487,4.84963 5.17325,-9.86138 3.55675,4.85013 5.49638,-10.023 3.55675,4.36462 5.17325,-9.21462 3.55637,3.55637 5.65838,-8.4065 3.55637,4.04188 5.17325,-8.083 5.01164,2.1015 5.17325,-8.73 3.55637,3.88 5.65838,-9.53788 3.50287,3.87988 5.55025,-8.56813 3.39488,3.39488 6.30462,-9.53825 4.04175,3.5565 6.46663,-10.50813 5.17325,4.2035 5.65787,-8.72963 3.88,3.07125 5.98138,-10.18487 3.71837,3.23362 5.17363,-9.05312 3.55637,4.36462 6.345,-9.17425 4.32463,3.51638 2.90975,-6.79013 3.87987,4.365 1.13138,-5.81987 2.727,5.3175 z"
         style="fill:#253d39;fill-opacity:1;fill-rule:nonzero;stroke:none"
         id="path5452"
         inkscape:connector-curvature="0" />
      <path
         d="m 260.02563,-140.53373 34.9685,20.18662 -2.82362,321.52815 -32.14488,18.55875 0,-360.27352 z"
         style="fill:#818181;fill-opacity:1;fill-rule:nonzero;stroke:none"
         id="path5454"
         inkscape:connector-curvature="0" />
      <path
         d="m 340.24188,-94.223364 0,360.273524 -48.07137,-64.86912 2.82362,-321.52815 45.24776,26.123746 z"
         style="fill:#0d687d;fill-opacity:1;fill-rule:nonzero;stroke:none"
         id="path5456"
         inkscape:connector-curvature="0" />
      <path
         d="m 479.60327,-267.31687 34.96864,20.18625 45.24762,26.12413 0,360.27352 -48.07137,-64.869004 -32.14489,18.55837 0,-360.273266 z"
         style="fill:#0d687d;fill-opacity:1;fill-rule:nonzero;stroke:none"
         id="path5458"
         inkscape:connector-curvature="0" />
      <path
         d="m 559.82841,-221.00149 0,360.27314 -219.5859,126.77776 0,-360.272144 -6.2e-4,-6.3e-4 3.78812,-11.010876 3.88025,4.203 5.9815,-11.07387 5.65825,4.12238 6.62813,-10.50813 4.20312,4.04188 5.81988,-10.508 4.85001,4.04112 5.33487,-9.6995 3.87988,4.0415 4.52662,-8.72925 3.718,3.71837 5.81987,-8.89162 3.07125,3.88 5.012,-8.72975 3.3945,4.84975 5.17363,-9.86138 3.55637,4.84975 5.49675,-10.023 3.5565,4.36475 5.17313,-9.21437 3.5565,3.55637 5.65825,-8.4065 3.55637,4.0415 5.17363,-8.083 5.01137,2.1015 5.17313,-8.72963 3.55687,3.87988 5.65788,-9.53813 3.50287,3.87988 5.55025,-8.56813 3.39488,3.39488 6.305,-9.53825 4.0415,3.55687 6.46651,-10.50812 5.17325,4.20312 5.65825,-8.72962 3.88,3.07162 5.98138,-10.18487 3.71837,3.23325 5.17325,-9.05313 3.55638,4.365 6.34537,-9.17437 4.32425,3.51612 2.91012,-6.78975 3.87963,4.36463 1.13137,-5.8195 2.72725,5.3175 z"
         style="fill:#95a6a5;fill-opacity:1;fill-rule:nonzero;stroke:none"
         id="path5460"
         inkscape:connector-curvature="0" />
      <path
         d="m 458.87889,15.462146 0,158.573644 -96.65088,55.80137 0,-158.573634 0,0 c 0,0 96.65088,-55.80138 96.65088,-55.80138"
         style="fill:#0d687d;fill-opacity:1;fill-rule:nonzero;stroke:none"
         id="path5462"
         inkscape:connector-curvature="0" />
      <path
         d="m 504.79128,84.044646 0,60.967134 -37.15938,21.45413 0,-60.96726 0,0 c 0,0 37.15938,-21.454004 37.15938,-21.454004"
         style="fill:#0d687d;fill-opacity:1;fill-rule:nonzero;stroke:none"
         id="path5464"
         inkscape:connector-curvature="0" />
      <path
         d="m 545.75078,-67.872864 0,24.071 -186.10939,107.45051 0,-24.07075 0,0 c 0,0 186.10939,-107.45076 186.10939,-107.45076"
         style="fill:#0d687d;fill-opacity:1;fill-rule:nonzero;stroke:none"
         id="path5466"
         inkscape:connector-curvature="0" />
      <path
         d="m 545.75078,-105.77461 0,24.070746 -186.10939,107.45051 0,-24.0704998 0,0 c 0,0 186.10939,-107.4507562 186.10939,-107.4507562"
         style="fill:#0d687d;fill-opacity:1;fill-rule:nonzero;stroke:none"
         id="path5468"
         inkscape:connector-curvature="0" />
      <path
         d="m 545.75078,-143.67623 0,24.07075 -186.10939,107.450366 0,-24.07037 0,0 c 0,0 186.10939,-107.450756 186.10939,-107.450756"
         style="fill:#0d687d;fill-opacity:1;fill-rule:nonzero;stroke:none"
         id="path5470"
         inkscape:connector-curvature="0" />
      <g
         id="g5472"
         transform="matrix(1.2500001,0,0,-1.2500001,-490.53831,1314.6764)">
        <path
           d="m 745.8216,992.0115 c -0.036,-1.9052 -1.008,-3.9694 -2.1736,-4.6089 -1.1633,-0.6381 -2.0755,0.3926 -2.0395,2.2978 0.036,1.9066 1.0072,3.9685 2.1702,4.6066 1.1656,0.6395 2.0789,-0.389 2.0429,-2.2955"
           style="fill:#ffffff;fill-opacity:1;fill-rule:nonzero;stroke:none"
           id="path5474"
           inkscape:connector-curvature="0" />
        <path
           d="m 742.0674,983.2997 c -2.8879,-6.9712 -4.8146,-17.6881 -5.0394,-29.5483 -0.0343,-1.8184 -0.9607,-3.7823 -2.0701,-4.3909 l -0.007,-0.004 -0.009,-0.005 c -1.1084,-0.6077 -1.9812,0.3691 -1.9469,2.1872 0.0692,3.6508 -0.1562,11.9336 -3.7505,9.9621 -3.5915,-1.9703 -4.1411,-10.6784 -4.2103,-14.3288 -0.0343,-1.8185 -0.9629,-3.7834 -2.0713,-4.3915 -0.0397,-0.0218 -0.0816,-0.0379 -0.1222,-0.0564 -0.0408,-0.026 -0.083,-0.0561 -0.1224,-0.0779 -1.1086,-0.6081 -1.9814,0.369 -1.9468,2.1872 0.0691,3.6507 -0.1574,11.933 -3.7506,9.9621 -3.5937,-1.9715 -4.1434,-10.6796 -4.2125,-14.3303 -0.0343,-1.8181 -0.961,-3.7823 -2.0699,-4.3906 -1.1095,-0.6086 -1.9791,0.3702 -1.9446,2.1884 0.2614,13.8044 4.4862,20.9905 8.3518,23.1111 2.2303,1.2234 4.5187,0.8479 6.004,-2.3332 1.6407,4.896 3.9878,7.8143 6.2195,9.0386 1.7487,0.9592 3.5309,0.9337 4.9363,-0.6477 1.1514,7.7289 3.0055,14.5238 5.3711,19.7793 -3.8974,4.8755 -9.5619,6.1611 -15.9429,2.6606 -12.1941,-6.6892 -22.3844,-28.298 -22.7622,-48.2624 -0.3782,-19.9664 9.1989,-30.7299 21.393,-24.0409 12.195,6.6897 22.3849,28.2968 22.7631,48.2632 0.1346,7.1178 -0.9967,13.0646 -3.0609,17.4676"
           style="fill:#ffffff;fill-opacity:1;fill-rule:nonzero;stroke:none"
           id="path5476"
           inkscape:connector-curvature="0" />
      </g>
      <path
         d="m 606.57565,157.92715 -48.78074,30.69889 88.90013,53.31475 48.78075,-30.70025 -88.90014,-53.31339 z"
         style="fill:#393151;fill-opacity:1;fill-rule:nonzero;stroke:none"
         id="path5478"
         inkscape:connector-curvature="0" />
      <path
         d="M 641.56254,235.50616 663.13279,223.89191 638.64717,22.868026 617.07691,36.142276 641.56254,235.50616 Z"
         style="fill:#c86c8d;fill-opacity:1;fill-rule:nonzero;stroke:none"
         id="path5480"
         inkscape:connector-curvature="0" />
      <path
         d="m 563.80503,190.61316 77.75689,44.893 L 617.07828,36.142276 588.29066,19.521026 563.80503,190.61316 Z"
         style="fill:#aa5b7f;fill-opacity:1;fill-rule:nonzero;stroke:none"
         id="path5482"
         inkscape:connector-curvature="0" />
      <path
         d="m 638.64717,22.869026 -21.57027,13.274 -28.78762,-16.621 21.57025,-13.2742498 28.78764,16.6212498 z"
         style="fill:#c86c8d;fill-opacity:1;fill-rule:nonzero;stroke:none"
         id="path5484"
         inkscape:connector-curvature="0" />
      <path
         d="m 631.07654,28.892646 -13.66264,8.408 -18.23562,-10.52787 13.66263,-8.40863 18.23563,10.5285 z"
         style="fill:#93466c;fill-opacity:1;fill-rule:nonzero;stroke:none"
         id="path5486"
         inkscape:connector-curvature="0" />
      <path
         d="m 568.32591,-34.807484 c 0.67112,1.39325 2.33787,1.97187 3.7375,1.29725 1.39287,-0.6765 1.96837,-2.3415 1.29012,-3.73075 -0.67425,-1.40038 -2.33787,-1.98575 -3.729,-1.311 -1.39812,0.67812 -1.97712,2.34662 -1.29862,3.7445"
         style="fill:#f6917a;fill-opacity:1;fill-rule:nonzero;stroke:none"
         id="path5488"
         inkscape:connector-curvature="0" />
      <path
         d="m 611.53416,34.815646 c 0,0 18.12751,-147.937256 45.68488,-172.598006 L 611.53416,34.815646 Z"
         style="fill:#63c4b0;fill-opacity:1;fill-rule:nonzero;stroke:none"
         id="path5490"
         inkscape:connector-curvature="0" />
      <path
         d="m 655.20929,-114.70548 c -12.67438,4.97725 -18.93513,19.279866 -18.93513,19.279866 0,0 14.30613,6.24788 26.99113,1.28475 12.68112,-4.98087 18.92062,-19.282996 18.92062,-19.282996 0,0 -14.2955,-6.23975 -26.97662,-1.28162"
         style="fill:#63c4b0;fill-opacity:1;fill-rule:nonzero;stroke:none"
         id="path5492"
         inkscape:connector-curvature="0" />
      <path
         d="m 643.60667,-65.391864 c -12.67188,4.967 -18.92863,19.27275 -18.92863,19.27275 0,0 14.29513,6.2515 26.98688,1.28475 12.679,-4.96525 18.9205,-19.26737 18.9205,-19.26737 0,0 -14.29538,-6.25363 -26.97875,-1.29013"
         style="fill:#63c4b0;fill-opacity:1;fill-rule:nonzero;stroke:none"
         id="path5494"
         inkscape:connector-curvature="0" />
      <path
         d="m 634.90191,-16.070114 c -12.67412,4.96625 -18.92413,19.2710102 -18.92413,19.2710102 0,0 14.30251,6.23588 26.96776,1.27238 12.68462,-4.97199995 18.93437,-19.2723902 18.93437,-19.2723902 0,0 -14.29475,-6.2415 -26.978,-1.271"
         style="fill:#63c4b0;fill-opacity:1;fill-rule:nonzero;stroke:none"
         id="path5496"
         inkscape:connector-curvature="0" />
      <path
         d="m 640.54954,-128.61411 c 4.79375,12.74175 -1.63738,26.96425 -1.63738,26.96425 0,0 -14.20787,-6.44487 -19.01437,-19.19087 -4.80301,-12.74038 1.6405,-26.95713 1.6405,-26.95713 0,0 14.20475,6.43463 19.01125,19.18375"
         style="fill:#63c4b0;fill-opacity:1;fill-rule:nonzero;stroke:none"
         id="path5498"
         inkscape:connector-curvature="0" />
      <path
         d="m 670.46429,-140.74098 c -5.94638,6.492 -16.0175,6.914 -16.0175,6.914 0,0 -0.43587,-10.0715 5.50913,-16.54475 5.95162,-6.4885 16.01399,-6.91725 16.01399,-6.91725 0,0 0.44113,10.07112 -5.50562,16.548"
         style="fill:#63c4b0;fill-opacity:1;fill-rule:nonzero;stroke:none"
         id="path5500"
         inkscape:connector-curvature="0" />
      <path
         d="m 658.64554,-146.38548 c 1.0195,6.22562 -3.19925,12.094 -3.19925,12.094 0,0 -5.86988,-4.22963 -6.879,-10.44463 -1.01825,-6.22412 3.183,-12.08162 3.183,-12.08162 0,0 5.88787,4.2035 6.89525,10.43225"
         style="fill:#63c4b0;fill-opacity:1;fill-rule:nonzero;stroke:none"
         id="path5502"
         inkscape:connector-curvature="0" />
      <path
         d="m 617.96341,-80.077484 c 9.332,9.91625 8.85763,25.52812 8.85763,25.52812 0,0 -15.62001,-0.48325 -24.94351,-10.40275 -9.32525,-9.9245 -8.837,-25.52075 -8.837,-25.52075 0,0 15.58562,0.47587 24.92288,10.39537"
         style="fill:#63c4b0;fill-opacity:1;fill-rule:nonzero;stroke:none"
         id="path5504"
         inkscape:connector-curvature="0" />
      <path
         d="m 609.25853,-39.471864 c 9.34089,9.9195 8.86326,25.52775 8.86326,25.52775 0,0 -15.61676,-0.47412 -24.93489,-10.39362 -9.33387,-9.93051 -8.86362,-25.52138 -8.86362,-25.52138 0,0 15.60325,0.47663 24.93525,10.38725"
         style="fill:#63c4b0;fill-opacity:1;fill-rule:nonzero;stroke:none"
         id="path5506"
         inkscape:connector-curvature="0" />
      <path
         d="m 589.35791,-7.7607338 c 9.22787,3.53701 13.84937,13.87701 13.84937,13.87701 0,0 -10.33475,4.6112498 -19.5675,1.09312 -9.22,-3.53725 -13.84375,-13.88225 -13.84375,-13.88225 0,0 10.33125,-4.6056302 19.56188,-1.08788"
         style="fill:#63c4b0;fill-opacity:1;fill-rule:nonzero;stroke:none"
         id="path5508"
         inkscape:connector-curvature="0" />
      <path
         d="m 604.28378,-3.1019738 c -2.18625,6.9545 1.69088,14.3673698 1.69088,14.3673698 0,0 7.4175,-3.8773698 9.59175,-10.83886975 2.19288,-6.96088005 -1.68238,-14.37026025 -1.68238,-14.37026025 0,0 -7.409,3.87387 -9.60025,10.8417502"
         style="fill:#63c4b0;fill-opacity:1;fill-rule:nonzero;stroke:none"
         id="path5510"
         inkscape:connector-curvature="0" />
      <path
         d="m 619.20929,35.856646 c 0,0 -26.84913,-51.86513 -40.43339,-67.43438 l 40.43339,67.43438 z"
         style="fill:#63c4b0;fill-opacity:1;fill-rule:nonzero;stroke:none"
         id="path5512"
         inkscape:connector-curvature="0" />
      <path
         d="m 605.19553,-18.848734 c -2.52788,4.91237 -8.56175,6.83575 -8.56175,6.83575 0,0 -1.92475,-6.034 0.60838,-10.94138 2.5385,-4.90712 8.5685,-6.83087 8.5685,-6.83087 0,0 1.92325,6.02012 -0.61513,10.9365"
         style="fill:#63c4b0;fill-opacity:1;fill-rule:nonzero;stroke:none"
         id="path5514"
         inkscape:connector-curvature="0" />
      <path
         d="m 661.93166,273.60554 c 0,0 -94.669,-54.65688 -94.669,-54.65688 l -33.70438,-19.45912 -211.42277,122.064 162.07939,93.57701 211.42214,-122.06451 -33.70537,-19.4605 z"
         style="fill:#3a3056;fill-opacity:1;fill-rule:nonzero;stroke:none"
         id="path6432"
         inkscape:connector-curvature="0" />
      <path
         d="m 477.12052,409.26067 0,-20.69887 201.26552,-116.20064 0,20.6985 -201.26552,116.20101 z"
         style="fill:#7bb34e;fill-opacity:1;fill-rule:nonzero;stroke:none"
         id="path6434"
         inkscape:connector-curvature="0" />
      <path
         d="M 477.12052,388.5618 322.82789,299.48054 524.0934,183.27991 678.38604,272.36079 477.12052,388.5618 Z"
         style="fill:#88c24c;fill-opacity:1;fill-rule:nonzero;stroke:none"
         id="path6436"
         inkscape:connector-curvature="0" />
      <path
         d="m 322.82789,299.48054 0,20.699 154.29263,89.08151 0,-20.69963 -154.29263,-89.08088 z"
         style="fill:#7bb34e;fill-opacity:1;fill-rule:nonzero;stroke:none"
         id="path6438"
         inkscape:connector-curvature="0" />
      <path
         d="m 443.51864,333.24405 0,-9.30338 -16.11362,0 0,9.30338 16.11362,0 z m 9.25575,5.34362 0,-9.30262 -16.11275,0 0,9.30262 16.11275,0 z m 9.25413,5.343 0,-9.30262 -16.11288,0 0,9.30262 16.11288,0 z m 9.2565,5.34438 0,-9.30338 -16.1135,0 0,9.30338 16.1135,0 z m 9.25412,5.34287 0,-9.30325 -16.11362,0 0,9.30325 16.11362,0 z m 9.25613,5.34375 0,-9.30225 -16.11313,0 0,9.30225 16.11313,0 z m 9.25437,5.34288 -3.7e-4,-9.30263 -16.11238,0 0,9.30263 16.11275,0 z m 9.25589,5.34437 0,-9.303 -16.11326,0 0,9.303 16.11326,0 z m -138.8304,-80.15351 0,-9.30325 -16.11275,0 0,9.30325 16.11275,0 z m 9.25663,5.34363 0,-9.30325 -16.11363,0 0,9.30325 16.11363,0 z m 9.25363,5.343 0,-9.30325 -16.11313,0 0,9.30325 16.11313,0 z m 9.25663,5.34437 0,-9.303 -16.11363,0 0,9.303 16.11363,0 z m 9.254,5.343 0,-9.30337 -16.1135,0 0,9.30337 16.1135,0 z m 9.25588,5.34363 0,-9.303 -16.11288,0 0,9.303 16.11288,0 z m 9.25399,5.34287 0,-9.30325 -16.11287,0 3.7e-4,9.30325 16.1125,0 z m -6.857,5.34376 0,-9.30263 16.11351,0 0,9.30326 -16.11351,-6.3e-4 z"
         style="fill:none;stroke:#7bb34e;stroke-width:2.50012493;stroke-linecap:butt;stroke-linejoin:miter;stroke-miterlimit:10.00000095;stroke-dasharray:none;stroke-opacity:1"
         id="path6440"
         inkscape:connector-curvature="0" />
      <path
         d="m 553.7594,275.02716 c -1.69612,0.93713 -4.0085,1.13063 -5.16437,0.429 -1.15337,-0.69975 -0.70975,-2.02737 0.9865,-2.96425 1.69763,-0.938 4.0075,-1.13137 5.16075,-0.43125 1.15625,0.70163 0.71475,2.02888 -0.98287,2.9665"
         style="fill:#ee2e6b;fill-opacity:1;fill-rule:nonzero;stroke:none"
         id="path6442"
         inkscape:connector-curvature="0" />
      <path
         d="m 544.17765,276.15066 c -7.60862,1.00138 -18.02737,4.75413 -28.5875,10.58713 -1.61887,0.89425 -3.81962,1.07712 -4.91987,0.40925 l -0.006,-0.004 -0.009,-0.005 c -1.09912,-0.66688 -0.68237,-1.9325 0.9365,-2.82688 3.25038,-1.79537 10.43125,-6.20575 6.867,-8.36887 -3.56175,-2.1615 -11.51075,1.78262 -14.76137,3.578 -1.61901,0.89437 -3.82188,1.07575 -4.92101,0.40887 -0.0394,-0.0238 -0.0747,-0.0528 -0.11163,-0.079 -0.0436,-0.0226 -0.0917,-0.0446 -0.13112,-0.0684 -1.09913,-0.66687 -0.68238,-1.9325 0.9365,-2.82687 3.25063,-1.79537 10.43013,-6.2065 6.86701,-8.36887 -3.56388,-2.16288 -11.51302,1.78112 -14.76364,3.57662 -1.61887,0.89425 -3.81962,1.07713 -4.9195,0.4095 -1.10025,-0.6675 -0.68025,-1.931 0.93863,-2.82537 12.29101,-6.78938 20.76876,-6.72275 24.60188,-4.39626 2.21213,1.34225 3.04475,3.54863 0.99813,6.47475 5.14675,-1.04487 8.91037,-0.46175 11.1235,0.88163 1.73412,1.05225 2.61825,2.63475 1.93962,4.67675 7.39313,-2.91613 14.32025,-4.73813 20.15188,-5.327 2.31275,-5.912 0.5645,-11.55475 -5.7635,-15.395 -12.09225,-7.33813 -36.30613,-5.32525 -54.08226,4.494 -17.7775,9.81987 -22.38763,23.7285 -10.29538,31.06662 12.09325,7.33925 36.30539,5.32675 54.08288,-4.49325 6.33751,-3.50075 11.00013,-7.521 13.82851,-11.57812"
         style="fill:#ee2e6b;fill-opacity:1;fill-rule:nonzero;stroke:none"
         id="path6444"
         inkscape:connector-curvature="0" />
      <path
         d="m 322.82789,299.48054 6.10124,13.97237 -6.10124,6.72663 0,-20.699 z"
         style="fill:#0d687d;fill-opacity:1;fill-rule:nonzero;stroke:none"
         id="path6446"
         inkscape:connector-curvature="0" />
      <path
         d="m 477.12052,388.5618 -6.55625,8.63825 6.55625,12.061 0,-20.69925 z"
         style="fill:#0d687d;fill-opacity:1;fill-rule:nonzero;stroke:none"
         id="path6448"
         inkscape:connector-curvature="0" />
      <path
         d="m 328.92913,313.45291 141.63514,83.74714 6.55625,12.061 -154.29263,-89.08151 6.10124,-6.72663 z"
         style="fill:#88c24c;fill-opacity:1;fill-rule:nonzero;stroke:none"
         id="path6450"
         inkscape:connector-curvature="0" />
      <g
         id="g6452"
         transform="matrix(1.2500001,0,0,-1.2500001,-490.53831,1314.6764)">
        <g
           id="g6454">
          <path
             d="m 835.7851,772.6601 c -0.006,-0.3385 -0.1789,-0.705 -0.3858,-0.8187 -0.2067,-0.1131 -0.3688,0.0697 -0.3623,0.4082 0.006,0.3385 0.1789,0.7047 0.3855,0.8181 0.2069,0.1137 0.3691,-0.0692 0.3626,-0.4076"
             style="fill:#ffffff;fill-opacity:1;fill-rule:nonzero;stroke:none"
             id="path6456"
             inkscape:connector-curvature="0" />
          <path
             d="m 835.1184,771.1129 c -0.5128,-1.2382 -0.855,-3.1413 -0.8949,-5.2478 -0.006,-0.3228 -0.1707,-0.6718 -0.3677,-0.7798 l -0.001,-5e-4 -0.002,-9e-4 c -0.1967,-0.108 -0.3518,0.0655 -0.3456,0.3884 0.0122,0.6482 -0.0277,2.1194 -0.6661,1.7691 -0.6378,-0.3498 -0.7356,-1.8964 -0.7478,-2.5447 -0.006,-0.3229 -0.1709,-0.6718 -0.3679,-0.7798 -0.007,-0.004 -0.0145,-0.007 -0.0216,-0.0102 -0.007,-0.005 -0.0147,-0.01 -0.0218,-0.0136 -0.1967,-0.108 -0.3518,0.0655 -0.3458,0.3883 0.0125,0.6483 -0.0278,2.1192 -0.6659,1.7691 -0.6383,-0.3501 -0.7359,-1.8966 -0.7483,-2.5449 -0.006,-0.3229 -0.1707,-0.6718 -0.3677,-0.7798 -0.197,-0.108 -0.3515,0.0657 -0.3452,0.3886 0.0464,2.4517 0.7968,3.7278 1.4833,4.1046 0.396,0.2174 0.8025,0.1505 1.0661,-0.4145 0.2914,0.8697 0.7084,1.3879 1.1047,1.6053 0.3107,0.1704 0.627,0.1658 0.8768,-0.1151 0.2043,1.3728 0.5337,2.5795 0.9538,3.513 -0.6922,0.8657 -1.6982,1.0942 -2.8315,0.4722 -2.1657,-1.1877 -3.9753,-5.0255 -4.0425,-8.5711 -0.0672,-3.5461 1.6339,-5.4575 3.7993,-4.2695 2.1659,1.188 3.9756,5.0252 4.0427,8.5714 0.0239,1.2639 -0.1768,2.3201 -0.5436,3.1022"
             style="fill:#ffffff;fill-opacity:1;fill-rule:nonzero;stroke:none"
             id="path6458"
             inkscape:connector-curvature="0" />
        </g>
        <text
           transform="matrix(0.57931362,0.3374462,-0.00584093,-0.94134481,836.6539,768.4951)"
           style="font-variant:normal;font-weight:bold;font-size:5.86824799px;font-family:'Century Gothic';-inkscape-font-specification:CenturyGothic-Bold;writing-mode:lr-tb;fill:#ffffff;fill-opacity:1;fill-rule:nonzero;stroke:none"
           id="text6460">
          <tspan
             x="0 5.5161533 7.1592627 10.914941 12.558051 16.431095 18.074203 20.538868 22.181978"
             y="0"
             sodipodi:role="line"
             id="tspan6462">m e p ´ s</tspan>
        </text>
        <text
           transform="matrix(0.57931362,0.3374462,-0.00584093,-0.94134481,852.88139,777.94697)"
           style="font-variant:normal;font-weight:normal;font-size:5.86824799px;font-family:'Century Gothic';-inkscape-font-specification:CenturyGothic;writing-mode:lr-tb;fill:#ffffff;fill-opacity:1;fill-rule:nonzero;stroke:none"
           id="text6464">
          <tspan
             x="0 5.5044165 7.1299214 10.944283 12.569787 16.589537 18.215042 19.388691 21.014196 24.857899 26.483402 28.760283 32.011292 35.825653 37.45116 39.293789 40.919292 44.733654 46.359158 50.155914 51.781422 53.770756 55.396259 56.569912 58.195415 61.446426 63.07193 66.915634 68.541138 70.818016 74.069023 78.071175 79.696678 83.264572 84.890076 88.89222 90.517723 91.691376 93.316879 94.490532 96.116035 99.912788 101.53829 102.71194 104.33745 106.32678 107.95229 111.9603 113.58581 115.35215 116.97765 118.15131 119.77681 123.62051 125.24602 127.5229"
             y="0"
             sodipodi:role="line"
             id="tspan6466">m e d i o s e f e c t i v o s p u b l i c i t a r i o s</tspan>
        </text>
        <text
           transform="matrix(0.57931362,0.3374462,-0.00584093,-0.94134481,836.7687,765.2605)"
           style="font-style:italic;font-variant:normal;font-size:2.27874851px;font-family:'Century Gothic';-inkscape-font-specification:CenturyGothic-Italic;writing-mode:lr-tb;fill:#ffffff;fill-opacity:1;fill-rule:nonzero;stroke:none"
           id="text6468">
          <tspan
             x="0 0.51499712 1.1462104 3.2836764 3.9148898 5.468996 6.1002097 7.4856887 8.1169014 8.5726519 9.2038651 10.088019 10.719233 12.275618 12.906831 14.296867 14.928081 16.489023 17.120237 18.612818 19.875244 20.330994 20.962206 22.523149 23.154362 24.63555 25.266762 26.823147 27.454361"
             y="0"
             sodipodi:role="line"
             id="tspan6470">I m p u l s a n d o i d e a s</tspan>
        </text>
      </g>
      <path
         d="m 524.0934,183.27991 9.44575,-0.99637 2.62213,7.96362 10.90338,-0.0649 4.04362,8.69425 9.26475,-0.904 1.96088,7.38537 8.80512,-0.89325 2.15675,7.222 8.66375,-0.45925 1.373,6.25388 7.0665,-0.95238 1.615,5.96475 7.69038,-0.338 2.16537,6.02825 7.57275,-0.0773 1.8765,5.53288 8.40264,-0.4475 1.94312,6.42075 8.76863,0.28775 1.27412,5.51025 7.21988,-0.69525 1.75212,5.87512 7.1745,-0.35712 2.01863,5.665 6.58312,-0.36275 1.35425,4.94537 7.13975,-0.59037 1.66825,5.67575 5.8245,-1.21263 1.16038,5.24525 5.051,-0.91637 -0.26788,3.67837 -5.61475,3.241 -154.58913,-88.90975 5.91125,-3.4125 z"
         style="fill:#88c24c;fill-opacity:1;fill-rule:nonzero;stroke:none"
         id="path6472"
         inkscape:connector-curvature="0" />
      <path
         d="m 571.3044,-35.411614 c -0.002,0.0125 -0.0172,0.0225 -0.0311,0.0312 -0.16087,-0.18987 -0.33875,-0.36987 -0.511,-0.55062 0.0259,-0.0312 0.0433,-0.0687 0.0716,-0.11 0.14275,0.22812 0.3015,0.43225 0.47049,0.62962 z m -13.71712,8.84375 c 1.9775,4.08825 6.8935,5.7915 10.96937,3.8165 0.62426,-0.30187 1.18063,-0.69775 1.68413,-1.12637 2.35162,2.8395 6.40838,3.837 9.87975,2.16025 4.07588,-1.97388 5.776,-6.892 3.802,-10.96938 -0.3015,-0.62075 -0.6885,-1.17525 -1.10875,-1.68262 2.835,-2.36375 3.83038,-6.40675 2.153,-9.87913 -1.97512,-4.0815 -6.8865,-5.78625 -10.97087,-3.80975 -1.255,0.6105 -2.26275,1.5275 -3.033,2.5855 -2.25963,-3.286 -6.60938,-4.54812 -10.31425,-2.75775 -4.08075,1.97863 -5.78975,6.8865 -3.80688,10.974 0.40963,0.84575 0.969,1.57463 1.60188,2.20075 -1.7855,2.38288 -2.24188,5.63063 -0.85638,8.488"
         style="fill:#ee3338;fill-opacity:1;fill-rule:nonzero;stroke:none"
         id="path8878"
         inkscape:connector-curvature="0" />
    </g>
  </g>
</svg>
