<?xml version="1.0" encoding="UTF-8" standalone="no"?>
<!-- Created with Inkscape (http://www.inkscape.org/) -->

<svg
   xmlns:dc="http://purl.org/dc/elements/1.1/"
   xmlns:cc="http://creativecommons.org/ns#"
   xmlns:rdf="http://www.w3.org/1999/02/22-rdf-syntax-ns#"
   xmlns:svg="http://www.w3.org/2000/svg"
   xmlns="http://www.w3.org/2000/svg"
   xmlns:sodipodi="http://sodipodi.sourceforge.net/DTD/sodipodi-0.dtd"
   xmlns:inkscape="http://www.inkscape.org/namespaces/inkscape"
   width="31.99498mm"
   height="44.717331mm"
   viewBox="0 0 113.36804 158.44723"
   id="svg10678"
   version="1.1"
   inkscape:version="0.91 r13725"
   sodipodi:docname="quees.svg">
  <defs
     id="defs10680" />
  <sodipodi:namedview
     id="base"
     pagecolor="#ffffff"
     bordercolor="#666666"
     borderopacity="1.0"
     inkscape:pageopacity="0.0"
     inkscape:pageshadow="2"
     inkscape:zoom="0.35"
     inkscape:cx="254.5412"
     inkscape:cy="-254.69063"
     inkscape:document-units="px"
     inkscape:current-layer="layer1"
     showgrid="false"
     fit-margin-top="0"
     fit-margin-left="0"
     fit-margin-right="0"
     fit-margin-bottom="0"
     inkscape:window-width="1366"
     inkscape:window-height="705"
     inkscape:window-x="-8"
     inkscape:window-y="-8"
     inkscape:window-maximized="1" />
  <metadata
     id="metadata10683">
    <rdf:RDF>
      <cc:Work
         rdf:about="">
        <dc:format>image/svg+xml</dc:format>
        <dc:type
           rdf:resource="http://purl.org/dc/dcmitype/StillImage" />
        <dc:title></dc:title>
      </cc:Work>
    </rdf:RDF>
  </metadata>
  <g
     inkscape:label="Capa 1"
     inkscape:groupmode="layer"
     id="layer1"
     transform="translate(-120.4588,-119.22434)">
    <g
       id="g3528"
       transform="matrix(0.33136631,0,0,-0.33136631,-307.5892,1183.33)">
      <g
         id="g9638">
        <path
           inkscape:connector-curvature="0"
           id="path3530"
           style="fill:#393151;fill-opacity:1;fill-rule:nonzero;stroke:none"
           d="m 1451.0486,2977.4222 87.4001,-55.0029 -159.2816,-95.5239 -87.4003,55.0055 159.2818,95.5213 z" />
        <path
           inkscape:connector-curvature="0"
           id="path3532"
           style="fill:#aa5b7f;fill-opacity:1;fill-rule:nonzero;stroke:none"
           d="m 1386.7903,3087.2474 0,-250.4911 -55.7722,32.2004 0,250.4912 55.7722,-32.2005 z" />
        <path
           inkscape:connector-curvature="0"
           id="path3534"
           style="fill:#f8aea0;fill-opacity:1;fill-rule:evenodd;stroke:none"
           d="m 1353.3676,2881.8586 -22.3498,-12.9036 55.7731,-32.1981 -33.4233,45.1017 z" />
        <path
           inkscape:connector-curvature="0"
           id="path3536"
           style="fill:#f8aea0;fill-opacity:1;fill-rule:nonzero;stroke:none"
           d="m 1483.6867,3207.5696 0,-250.4911 -152.6737,-88.1461 0,250.4902 -6e-4,6e-4 2.634,7.6558 2.6977,-2.9225 4.1587,7.6995 3.9342,-2.8662 4.6086,7.3061 2.9222,-2.8103 4.0465,7.3063 3.3721,-2.81 3.7091,6.7439 2.6977,-2.81 3.1474,6.0693 2.5849,-2.5852 4.0464,6.1821 2.1356,-2.6975 3.4847,6.0696 2.3601,-3.3721 3.5969,6.8564 2.4729,-3.3721 3.8217,6.969 2.4727,-3.0348 3.5968,6.4069 2.473,-2.473 3.9339,5.8451 2.473,-2.8103 3.5968,5.62 3.4844,-1.461 3.5969,6.0696 2.4726,-2.6978 3.9342,6.6317 2.4356,-2.6975 3.8588,5.957 2.3604,-2.3601 4.3835,6.6317 2.8102,-2.473 4.4961,7.306 3.5968,-2.9222 3.934,6.0695 2.6977,-2.1356 4.1587,7.0812 2.5852,-2.2481 3.5969,6.2946 2.4729,-3.0348 4.4116,6.3788 3.0067,-2.4448 2.0234,4.7208 2.6974,-3.0348 0.7866,4.0465 1.8961,-3.6973 z" />
        <path
           inkscape:connector-curvature="0"
           id="path3538"
           style="fill:#fdc282;fill-opacity:1;fill-rule:evenodd;stroke:none"
           d="m 1331.0178,3119.4462 24.3128,-14.0352 -1.963,-223.5524 -22.3498,-12.9036 0,250.4912 z" />
        <path
           inkscape:connector-curvature="0"
           id="path3540"
           style="fill:#ca633a;fill-opacity:1;fill-rule:evenodd;stroke:none"
           d="m 1386.7906,3087.2474 0,-250.4911 -33.423,45.1023 1.963,223.5524 31.46,-18.1636 z" />
        <path
           inkscape:connector-curvature="0"
           id="path3542"
           style="fill:#ca633a;fill-opacity:1;fill-rule:evenodd;stroke:none"
           d="m 1483.6859,3207.5963 24.3127,-14.0355 31.4601,-18.1633 0,-250.4914 -33.4231,45.1024 -22.3497,-12.9036 0,250.4914 z" />
        <path
           inkscape:connector-curvature="0"
           id="path3544"
           style="fill:#fdc282;fill-opacity:1;fill-rule:nonzero;stroke:none"
           d="m 1539.4649,3175.3941 0,-250.4911 -152.674,-88.1461 0,250.4902 -3e-4,3e-4 2.634,7.6558 2.6977,-2.9225 4.1587,7.6998 3.9342,-2.8664 4.6083,7.306 2.9222,-2.81 4.0468,7.306 3.3718,-2.81 3.7094,6.7439 2.6974,-2.8097 3.1473,6.0693 2.5852,-2.5852 4.0465,6.1821 2.1356,-2.6978 3.4844,6.0696 2.3604,-3.3718 3.5969,6.8564 2.4726,-3.3721 3.8217,6.9687 2.4729,-3.0348 3.5969,6.4069 2.4727,-2.4726 3.9342,5.8447 2.4726,-2.81 3.5969,5.62 3.4844,-1.4613 3.5969,6.0699 2.4729,-2.6978 3.9339,6.6317 2.4355,-2.6978 3.8591,5.9573 2.3602,-2.3604 4.3837,6.6317 2.81,-2.4727 4.4961,7.306 3.5968,-2.9225 3.9342,6.0696 2.6975,-2.1354 4.159,7.0813 2.5852,-2.2482 3.5969,6.2943 2.4726,-3.0347 4.4119,6.3788 3.0067,-2.4446 2.0231,4.7208 2.6977,-3.0348 0.7866,4.0462 1.8961,-3.697 z" />
        <path
           inkscape:connector-curvature="0"
           id="path3546"
           style="fill:#ca633a;fill-opacity:1;fill-rule:nonzero;stroke:none"
           d="m 1469.2765,3010.9853 0,-110.2533 -67.1995,-38.7975 0,110.253 0,2e-4 c 0,-2e-4 67.1995,38.7976 67.1995,38.7976" />
        <path
           inkscape:connector-curvature="0"
           id="path3548"
           style="fill:#ca633a;fill-opacity:1;fill-rule:nonzero;stroke:none"
           d="m 1501.1986,2963.3011 0,-42.3893 -25.8364,-14.9164 0,42.3893 0,0 c 0,0 25.8364,14.9164 25.8364,14.9164" />
        <path
           inkscape:connector-curvature="0"
           id="path3550"
           style="fill:#ca633a;fill-opacity:1;fill-rule:nonzero;stroke:none"
           d="m 1529.6772,3068.9265 0,-16.736 -129.3985,-74.7082 0,16.7357 0,0 c 0,0 129.3985,74.7085 129.3985,74.7085" />
        <path
           inkscape:connector-curvature="0"
           id="path3552"
           style="fill:#ca633a;fill-opacity:1;fill-rule:nonzero;stroke:none"
           d="m 1529.6772,3095.2788 0,-16.736 -129.3985,-74.7082 0,16.7357 0,0 c 0,0 129.3985,74.7085 129.3985,74.7085" />
        <path
           inkscape:connector-curvature="0"
           id="path3554"
           style="fill:#ca633a;fill-opacity:1;fill-rule:nonzero;stroke:none"
           d="m 1529.6772,3121.6311 0,-16.736 -129.3985,-74.7082 0,16.7357 0,0 c 0,0 129.3985,74.7085 129.3985,74.7085" />
        <path
           inkscape:connector-curvature="0"
           id="path3556"
           style="fill:#ffffff;fill-opacity:1;fill-rule:nonzero;stroke:none"
           d="m 1457.3594,2969.8248 c -0.031,-1.6557 -0.8759,-3.4498 -1.889,-4.0054 -1.0111,-0.5547 -1.804,0.341 -1.7725,1.9967 0.031,1.6572 0.875,3.4492 1.8862,4.0037 1.0131,0.5559 1.8068,-0.3379 1.7753,-1.995" />
        <path
           inkscape:connector-curvature="0"
           id="path3558"
           style="fill:#ffffff;fill-opacity:1;fill-rule:nonzero;stroke:none"
           d="m 1454.0967,2962.2534 c -2.5101,-6.0587 -4.1845,-15.3728 -4.3798,-25.6804 -0.03,-1.5803 -0.8348,-3.2871 -1.7991,-3.816 l -0.01,0 -0.01,0 c -0.9632,-0.5284 -1.722,0.3206 -1.692,1.9009 0.06,3.1728 -0.1358,10.3714 -3.2595,8.6579 -3.1215,-1.7124 -3.5992,-9.2804 -3.6593,-12.4532 -0.03,-1.5803 -0.8368,-3.2882 -1.8,-3.8166 -0.035,-0.019 -0.071,-0.033 -0.1063,-0.049 -0.035,-0.023 -0.072,-0.049 -0.1066,-0.068 -0.9632,-0.5283 -1.7217,0.3206 -1.692,1.901 0.06,3.1728 -0.1366,10.3711 -3.2592,8.6581 -3.1235,-1.7135 -3.6012,-9.2818 -3.6613,-12.4546 -0.03,-1.5803 -0.835,-3.287 -1.7991,-3.816 -0.9641,-0.5289 -1.7198,0.3218 -1.69,1.9021 0.2273,11.9973 3.899,18.2429 7.2587,20.0857 1.9383,1.0636 3.9271,0.737 5.2183,-2.0276 1.4255,4.2551 3.4653,6.7912 5.4051,7.8553 1.5196,0.8337 3.0687,0.8116 4.2899,-0.5626 1.0009,6.7172 2.6124,12.6224 4.6681,17.1898 -3.3868,4.2375 -8.31,5.3547 -13.856,2.3125 -10.5976,-5.8135 -19.4539,-24.5939 -19.7825,-41.9451 -0.3285,-17.3525 7.9949,-26.7071 18.5928,-20.8936 10.5987,5.8139 19.4547,24.5928 19.7832,41.9454 0.1171,6.1861 -0.8662,11.3545 -2.66,15.1812" />
        <path
           inkscape:connector-curvature="0"
           id="path3560"
           style="fill:#393151;fill-opacity:1;fill-rule:nonzero;stroke:none"
           d="m 1571.9672,2911.932 -33.9162,-21.3441 61.8106,-37.0689 33.9162,21.3454 -61.8106,37.0676 z" />
        <path
           inkscape:connector-curvature="0"
           id="path3562"
           style="fill:#c86c8d;fill-opacity:1;fill-rule:nonzero;stroke:none"
           d="m 1596.293,2857.9929 14.9973,8.0751 -17.024,139.7681 -14.9976,-9.2293 17.0243,-138.6139 z" />
        <path
           inkscape:connector-curvature="0"
           id="path3564"
           style="fill:#975579;fill-opacity:1;fill-rule:nonzero;stroke:none"
           d="m 1542.2298,2889.2063 54.0629,-31.2134 -17.0229,138.6139 -20.0157,11.5566 -17.0243,-118.9571 z" />
        <path
           inkscape:connector-curvature="0"
           id="path3566"
           style="fill:#c86c8d;fill-opacity:1;fill-rule:nonzero;stroke:none"
           d="m 1594.2663,3005.8356 -14.9976,-9.2294 -20.0157,11.5563 14.9975,9.2293 20.0158,-11.5562 z" />
        <path
           inkscape:connector-curvature="0"
           id="path3568"
           style="fill:#93466c;fill-opacity:1;fill-rule:nonzero;stroke:none"
           d="m 1589.0023,3001.6474 -9.4992,-5.8459 -12.679,7.3199 9.4994,5.8462 12.6788,-7.3202 z" />
        <path
           inkscape:connector-curvature="0"
           id="path3570"
           style="fill:#f6917a;fill-opacity:1;fill-rule:nonzero;stroke:none"
           d="m 1545.3729,3045.9367 c 0.4666,-0.9686 1.6256,-1.3708 2.5988,-0.902 0.9686,0.4706 1.3685,1.628 0.8969,2.5943 -0.4689,0.9734 -1.6254,1.3805 -2.5926,0.9113 -0.972,-0.4716 -1.3748,-1.6316 -0.9031,-2.6036" />
        <path
           inkscape:connector-curvature="0"
           id="path3572"
           style="fill:#63c4b0;fill-opacity:1;fill-rule:nonzero;stroke:none"
           d="m 1575.415,2997.5292 c 0,0 12.6037,102.8579 31.7636,120.0041 l -31.7636,-120.0041 z" />
        <path
           inkscape:connector-curvature="0"
           id="path3574"
           style="fill:#63c4b0;fill-opacity:1;fill-rule:nonzero;stroke:none"
           d="m 1605.7812,3101.4884 c -8.8121,-3.4608 -13.165,-13.405 -13.165,-13.405 0,0 9.9465,-4.3441 18.7662,-0.8932 8.8169,3.4631 13.1553,13.4073 13.1553,13.4073 0,0 -9.9397,4.3381 -18.7565,0.8909" />
        <path
           inkscape:connector-curvature="0"
           id="path3576"
           style="fill:#63c4b0;fill-opacity:1;fill-rule:nonzero;stroke:none"
           d="m 1597.7143,3067.2017 c -8.8106,-3.4535 -13.161,-13.4003 -13.161,-13.4003 0,0 9.9392,-4.3463 18.7637,-0.8932 8.8155,3.4524 13.155,13.3963 13.155,13.3963 0,0 -9.9394,4.3481 -18.7577,0.8972" />
        <path
           inkscape:connector-curvature="0"
           id="path3578"
           style="fill:#63c4b0;fill-opacity:1;fill-rule:nonzero;stroke:none"
           d="m 1591.6621,3032.909 c -8.8121,-3.4529 -13.1576,-13.3986 -13.1576,-13.3986 0,0 9.9442,-4.3358 18.7503,-0.8846 8.8192,3.4568 13.1647,13.3996 13.1647,13.3996 0,0 -9.9391,4.3396 -18.7574,0.8836" />
        <path
           inkscape:connector-curvature="0"
           id="path3580"
           style="fill:#63c4b0;fill-opacity:1;fill-rule:nonzero;stroke:none"
           d="m 1595.5886,3111.1588 c 3.3333,-8.8594 -1.1384,-18.7478 -1.1384,-18.7478 0,0 -9.8784,4.481 -13.2202,13.343 -3.3395,8.8582 1.1407,18.7429 1.1407,18.7429 0,0 9.8762,-4.4739 13.2179,-13.3381" />
        <path
           inkscape:connector-curvature="0"
           id="path3582"
           style="fill:#63c4b0;fill-opacity:1;fill-rule:nonzero;stroke:none"
           d="m 1616.3878,3119.5904 c -4.1343,-4.5138 -11.1367,-4.8072 -11.1367,-4.8072 0,0 -0.303,7.0024 3.8304,11.5032 4.138,4.5114 11.1345,4.8096 11.1345,4.8096 0,0 0.3064,-7.0024 -3.8282,-11.5056" />
        <path
           inkscape:connector-curvature="0"
           id="path3584"
           style="fill:#63c4b0;fill-opacity:1;fill-rule:nonzero;stroke:none"
           d="m 1608.1705,3123.515 c 0.7089,-4.3285 -2.2244,-8.4087 -2.2244,-8.4087 0,0 -4.081,2.9407 -4.7826,7.2618 -0.7084,4.3274 2.213,8.4002 2.213,8.4002 0,0 4.0935,-2.9228 4.794,-7.2533" />
        <path
           inkscape:connector-curvature="0"
           id="path3586"
           style="fill:#63c4b0;fill-opacity:1;fill-rule:nonzero;stroke:none"
           d="m 1579.885,3077.4121 c 6.4885,-6.8945 6.1585,-17.7492 6.1585,-17.7492 0,0 -10.8601,0.3359 -17.3426,7.2329 -6.4837,6.9004 -6.1441,17.744 -6.1441,17.744 0,0 10.836,-0.3308 17.3282,-7.2277" />
        <path
           inkscape:connector-curvature="0"
           id="path3588"
           style="fill:#63c4b0;fill-opacity:1;fill-rule:nonzero;stroke:none"
           d="m 1573.8327,3049.1798 c 6.4945,-6.8969 6.1622,-17.7488 6.1622,-17.7488 0,0 -10.8578,0.3294 -17.3364,7.2263 -6.4899,6.9047 -6.1628,17.7446 -6.1628,17.7446 0,0 10.8485,-0.3313 17.337,-7.2221" />
        <path
           inkscape:connector-curvature="0"
           id="path3590"
           style="fill:#63c4b0;fill-opacity:1;fill-rule:nonzero;stroke:none"
           d="m 1559.9962,3027.1317 c 6.416,-2.4591 9.6293,-9.6486 9.6293,-9.6486 0,0 -7.1855,-3.206 -13.6049,-0.76 -6.4108,2.4594 -9.6256,9.6523 -9.6256,9.6523 0,0 7.1833,3.2023 13.6012,0.7563" />
        <path
           inkscape:connector-curvature="0"
           id="path3592"
           style="fill:#63c4b0;fill-opacity:1;fill-rule:nonzero;stroke:none"
           d="m 1570.3739,3023.8925 c -1.5202,-4.8353 1.1755,-9.9893 1.1755,-9.9893 0,0 5.1574,2.6958 6.6688,7.5362 1.525,4.8396 -1.1696,9.9913 -1.1696,9.9913 0,0 -5.1514,-2.6935 -6.6747,-7.5382" />
        <path
           inkscape:connector-curvature="0"
           id="path3594"
           style="fill:#63c4b0;fill-opacity:1;fill-rule:nonzero;stroke:none"
           d="m 1580.7512,2996.8055 c 0,0 -18.6675,36.0607 -28.1126,46.8859 l 28.1126,-46.8859 z" />
        <path
           inkscape:connector-curvature="0"
           id="path3596"
           style="fill:#63c4b0;fill-opacity:1;fill-rule:nonzero;stroke:none"
           d="m 1571.0077,3034.8411 c -1.7575,-3.4158 -5.9528,-4.7529 -5.9528,-4.7529 0,0 -1.3382,4.1953 0.423,7.6074 1.7651,3.412 5.9576,4.7491 5.9576,4.7491 0,0 1.3373,-4.1856 -0.4278,-7.6036" />
        <path
           inkscape:connector-curvature="0"
           id="path3598"
           style="fill:#3a3056;fill-opacity:1;fill-rule:nonzero;stroke:none"
           d="m 1610.4552,2831.5031 c 0,0 -65.8213,38.0019 -65.8213,38.0019 l -23.4343,13.5294 -146.9979,-84.8687 112.6907,-65.0622 146.9974,84.8693 -23.4346,13.5303 z" />
        <path
           inkscape:connector-curvature="0"
           id="path3600"
           style="fill:#5295a6;fill-opacity:1;fill-rule:nonzero;stroke:none"
           d="m 1481.9596,2737.1846 0,14.3917 139.9359,80.7923 0,-14.3915 -139.9359,-80.7925 z" />
        <path
           inkscape:connector-curvature="0"
           id="path3602"
           style="fill:#74ccd4;fill-opacity:1;fill-rule:nonzero;stroke:none"
           d="m 1481.9596,2751.5763 -107.2766,61.9365 139.9359,80.7922 107.2766,-61.9364 -139.9359,-80.7923 z" />
        <path
           inkscape:connector-curvature="0"
           id="path3604"
           style="fill:#66a5b3;fill-opacity:1;fill-rule:nonzero;stroke:none"
           d="m 1374.6827,2813.5128 0,-14.3918 107.2769,-61.9367 0,14.3923 -107.2769,61.9362 z" />
        <path
           inkscape:connector-curvature="0"
           id="path3606"
           style="fill:none;stroke:#ffffff;stroke-width:2.0000999;stroke-linecap:butt;stroke-linejoin:miter;stroke-miterlimit:10.00000095;stroke-dasharray:none;stroke-opacity:1"
           d="m 1458.4743,2790.1082 0,6.2873 -10.8896,0 0,-6.2873 10.8896,0 z m 6.2555,-3.611 0,6.2867 -10.8896,0 0,-6.2867 10.8896,0 z m 6.254,-3.6111 0,6.287 -10.8895,0 0,-6.287 10.8895,0 z m 6.2555,-3.6116 0,6.287 -10.8895,0 0,-6.287 10.8895,0 z m 6.2541,-3.611 0,6.2872 -10.8896,0 0,-6.2872 10.8896,0 z m 6.2555,-3.6114 0,6.2867 -10.8896,0 0,-6.2867 10.8896,0 z m 6.2546,-3.6108 -5e-4,6.2867 -10.889,0 0,-6.2867 10.8895,0 z m 6.255,-3.6119 0,6.2873 -10.8896,0 0,-6.2873 10.8896,0 z m -93.824,54.1693 0,6.2872 -10.8895,0 0,-6.2872 10.8895,0 z m 6.2555,-3.6114 0,6.2873 -10.8895,0 0,-6.2873 10.8895,0 z m 6.2541,-3.6107 0,6.2872 -10.8896,0 0,-6.2872 10.8896,0 z m 6.2555,-3.6119 0,6.2872 -10.8896,0 0,-6.2872 10.8896,0 z m 6.2541,-3.6108 0,6.2872 -10.8896,0 0,-6.2872 10.8896,0 z m 6.2555,-3.6114 0,6.287 -10.8896,0 0,-6.287 10.8896,0 z m 6.2541,-3.611 0,6.2872 -10.8896,0 6e-4,-6.2872 10.889,0 z m -4.6341,-3.6111 0,6.2867 10.8896,0 0,-6.2872 -10.8896,5e-4 z" />
        <path
           inkscape:connector-curvature="0"
           id="path3608"
           style="fill:#ee2e6b;fill-opacity:1;fill-rule:nonzero;stroke:none"
           d="m 1535.2452,2830.5147 c -1.1792,-0.6514 -2.787,-0.786 -3.5906,-0.2985 -0.8022,0.4867 -0.4935,1.41 0.6857,2.0614 1.1803,0.6519 2.7865,0.7863 3.5884,0.2996 0.8036,-0.4876 0.4969,-1.4105 -0.6835,-2.0625" />
        <path
           inkscape:connector-curvature="0"
           id="path3610"
           style="fill:#ee2e6b;fill-opacity:1;fill-rule:nonzero;stroke:none"
           d="m 1528.5833,2829.7335 c -5.2901,-0.6962 -12.5343,-3.3052 -19.8763,-7.361 -1.1256,-0.6217 -2.6558,-0.7489 -3.4208,-0.2846 l -0.01,0 -0.01,0 c -0.7642,0.4637 -0.4748,1.3436 0.6511,1.9655 2.2598,1.2484 7.2524,4.3149 4.7744,5.8187 -2.4764,1.5029 -8.0034,-1.2393 -10.2634,-2.4877 -1.1257,-0.6219 -2.6572,-0.748 -3.4214,-0.2843 -0.027,0.017 -0.052,0.037 -0.078,0.055 -0.03,0.016 -0.064,0.031 -0.091,0.047 -0.7642,0.4641 -0.4745,1.3439 0.6511,1.9656 2.2601,1.2484 7.2519,4.3154 4.7744,5.8187 -2.478,1.504 -8.0047,-1.2382 -10.2648,-2.4866 -1.1256,-0.6219 -2.6558,-0.7489 -3.4206,-0.2849 -0.7648,0.4643 -0.4728,1.3428 0.6528,1.9647 8.5457,4.7203 14.44,4.6738 17.1052,3.0563 1.538,-0.9331 2.1169,-2.4672 0.6942,-4.5017 3.5781,0.7266 6.1948,0.3209 7.7337,-0.6128 1.2056,-0.7316 1.8201,-1.8321 1.3487,-3.2516 5.1401,2.0273 9.9565,3.2941 14.0111,3.7037 1.6078,4.1102 0.3923,8.0337 -4.0073,10.7036 -8.4076,5.1024 -25.2428,3.7026 -37.6021,-3.1243 -12.3605,-6.8275 -15.5659,-16.4979 -7.1584,-21.6003 8.4081,-5.1026 25.2425,-3.7035 37.6027,3.1241 4.4065,2.4341 7.6482,5.2293 9.6149,8.0501" />
        <path
           inkscape:connector-curvature="0"
           id="path3612"
           style="fill:#5295a6;fill-opacity:1;fill-rule:evenodd;stroke:none"
           d="m 1481.9596,2751.5763 -4.5584,-6.006 4.5584,-8.386 0,14.392 z" />
        <path
           inkscape:connector-curvature="0"
           id="path3614"
           style="fill:#74ccd4;fill-opacity:1;fill-rule:evenodd;stroke:none"
           d="m 1378.925,2803.7982 98.4762,-58.2279 4.5584,-8.386 -107.2769,61.9367 4.2423,4.6772 z" />
        <g
           transform="translate(683.67124,71.114739)"
           id="g3616">
          <g
             id="g3618">
            <path
               inkscape:connector-curvature="0"
               id="path3620"
               style="fill:#ffffff;fill-opacity:1;fill-rule:nonzero;stroke:none"
               d="m 851.8757,2708.0717 c -0.006,-0.2943 -0.1557,-0.6129 -0.3357,-0.7115 -0.1794,-0.098 -0.3203,0.061 -0.3146,0.3546 0.006,0.2942 0.1553,0.6125 0.335,0.7109 0.1798,0.099 0.3209,-0.06 0.3153,-0.354" />
            <path
               inkscape:connector-curvature="0"
               id="path3622"
               style="fill:#ffffff;fill-opacity:1;fill-rule:nonzero;stroke:none"
               d="m 851.2963,2706.7269 c -0.4459,-1.076 -0.7433,-2.7303 -0.7779,-4.5609 -0.005,-0.2807 -0.1482,-0.5837 -0.3194,-0.6775 l -10e-4,-6e-4 -10e-4,-8e-4 c -0.1709,-0.094 -0.3058,0.057 -0.3005,0.3376 0.0108,0.5635 -0.0241,1.8419 -0.5788,1.5375 -0.5545,-0.3039 -0.6392,-1.6481 -0.65,-2.2116 -0.005,-0.2806 -0.1485,-0.584 -0.3194,-0.6778 -0.006,0 -0.0128,-0.01 -0.019,-0.01 -0.006,0 -0.0128,-0.01 -0.019,-0.012 -0.171,-0.094 -0.3059,0.057 -0.3005,0.3376 0.0108,0.5636 -0.0241,1.8417 -0.5788,1.5375 -0.5548,-0.3041 -0.6395,-1.6483 -0.6503,-2.2118 -0.005,-0.2807 -0.1483,-0.5837 -0.3195,-0.6778 -0.1712,-0.094 -0.3053,0.057 -0.3002,0.3379 0.0406,2.1308 0.6925,3.24 1.2892,3.5671 0.3442,0.1891 0.6974,0.131 0.9267,-0.36 0.2534,0.7557 0.6157,1.2062 0.9601,1.3949 0.2698,0.1483 0.5448,0.1443 0.7619,-0.1 0.1778,1.1928 0.4638,2.2416 0.8289,3.0529 -0.6015,0.7526 -1.4757,0.951 -2.4608,0.4107 -1.8822,-1.0326 -3.4548,-4.3679 -3.5132,-7.4494 -0.0584,-3.0819 1.4198,-4.7432 3.302,-3.7106 1.8822,1.0324 3.4552,4.3676 3.5133,7.4492 0.021,1.0987 -0.1536,2.0165 -0.4722,2.6963" />
          </g>
          <text
             id="text3624"
             style="font-variant:normal;font-weight:bold;font-size:5.0998764px;font-family:'Century Gothic';-inkscape-font-specification:CenturyGothic-Bold;writing-mode:lr-tb;fill:#ffffff;fill-opacity:1;fill-rule:nonzero;stroke:none"
             transform="matrix(0.57931362,0.3374462,-0.00584093,-0.94134481,852.6305,2704.4518)">
            <tspan
               id="tspan3626"
               sodipodi:role="line"
               y="0"
               x="0 4.7938838 6.2218494 9.4857702 10.913736 14.279655 15.70762 17.849567 19.277534">m e p ´ s</tspan>
          </text>
          <text
             id="text3628"
             style="font-variant:normal;font-weight:normal;font-size:5.0998764px;font-family:'Century Gothic';-inkscape-font-specification:CenturyGothic;writing-mode:lr-tb;fill:#ffffff;fill-opacity:1;fill-rule:nonzero;stroke:none"
             transform="matrix(0.57931362,0.3374462,-0.00584093,-0.94134481,866.73356,2712.6662)">
            <tspan
               id="tspan3630"
               sodipodi:role="line"
               y="0"
               x="0 4.7836843 6.1963501 9.5112696 10.923936 14.417351 15.830017 16.849993 18.262659 21.603077 23.015743 24.994495 27.819826 31.134747 32.547413 34.148773 35.56144 38.876358 40.289024 43.588646 45.001312 46.730171 48.142834 49.162811 50.575478 53.400806 54.813473 58.153893 59.566559 61.545311 64.370644 67.848755 69.261421 72.362152 73.774818 77.25293 78.665596 79.68557 81.098236 82.11821 83.530876 86.830498 88.243164 89.263138 90.675804 92.404663 93.817329 97.300545 98.713211 100.24828 101.66094 102.68092 104.09358 107.434 108.84666 110.82542">m e d i o s e f e c t i v o s p u b l i c i t a r i o s</tspan>
          </text>
          <text
             id="text3632"
             style="font-style:italic;font-variant:normal;font-size:1.98119283px;font-family:'Century Gothic';-inkscape-font-specification:CenturyGothic-Italic;writing-mode:lr-tb;fill:#ffffff;fill-opacity:1;fill-rule:nonzero;stroke:none"
             transform="matrix(0.57931362,0.3374462,-0.00584093,-0.94134481,852.7303,2701.6404)">
            <tspan
               id="tspan3634"
               sodipodi:role="line"
               y="0"
               x="0 0.44774958 0.99654001 2.8548989 3.4036894 4.7548628 5.3036532 6.5082183 7.0570087 7.4532475 8.002038 8.7707405 9.3195314 10.672686 11.221477 12.430004 12.978794 14.335912 14.884702 16.182383 17.279964 17.676203 18.224993 19.582109 20.130899 21.418676 21.967466 23.320621 23.869411">I m p u l s a n d o i d e a s</tspan>
          </text>
        </g>
        <path
           inkscape:connector-curvature="0"
           id="path3636"
           style="fill:#74ccd4;fill-opacity:1;fill-rule:evenodd;stroke:none"
           d="m 1514.6189,2894.305 6.5676,0.6928 1.823,-5.5369 7.581,0.045 2.8114,-6.0449 6.4417,0.6284 1.3632,-5.1347 6.122,0.6208 1.4998,-5.0213 6.0236,0.3195 0.9547,-4.3483 4.913,0.6621 1.1231,-4.1471 5.347,0.235 1.5052,-4.1913 5.2654,0.054 1.3047,-3.8472 5.8422,0.3112 1.351,-4.464 6.0968,-0.2001 0.8855,-3.8313 5.0202,0.4833 1.218,-4.0847 4.9882,0.2483 1.404,-3.9387 4.5768,0.2523 0.9417,-3.4385 4.964,0.4105 1.1599,-3.9464 4.0496,0.843 0.8067,-3.6468 3.5119,0.637 -0.1863,-2.5571 -3.9035,-2.2539 -107.483,61.8174 4.1099,2.3729 z" />
        <path
           inkscape:connector-curvature="0"
           id="path3638"
           style="fill:#ee2e6b;fill-opacity:1;fill-rule:nonzero;stroke:none"
           d="m 1547.4439,3046.3568 c -10e-4,-0.01 -0.012,-0.016 -0.022,-0.021 -0.1114,0.1318 -0.2352,0.2571 -0.3551,0.3826 0.018,0.022 0.03,0.048 0.05,0.077 0.099,-0.1588 0.2095,-0.3008 0.3272,-0.438 z m -9.5372,-6.1489 c 1.3748,-2.8423 4.7928,-4.0269 7.6266,-2.6535 0.434,0.21 0.8209,0.4853 1.171,0.7832 1.6353,-1.9743 4.4558,-2.6677 6.8692,-1.5021 2.8341,1.3726 4.0158,4.792 2.6436,7.6269 -0.2095,0.4314 -0.4785,0.817 -0.771,1.1699 1.9712,1.6435 2.6631,4.4543 1.4969,6.8686 -1.3733,2.8378 -4.788,4.0232 -7.6277,2.649 -0.8728,-0.4244 -1.5732,-1.0622 -2.109,-1.7978 -1.5709,2.2848 -4.5952,3.1624 -7.1711,1.9177 -2.8372,-1.376 -4.0254,-4.788 -2.647,-7.6303 0.2849,-0.5879 0.6738,-1.0948 1.1141,-1.5299 -1.2416,-1.6568 -1.5591,-3.9149 -0.5956,-5.9017" />
      </g>
    </g>
  </g>
</svg>
