<?xml version="1.0" encoding="UTF-8" standalone="no"?>
<!-- Created with Inkscape (http://www.inkscape.org/) -->

<svg
   xmlns:dc="http://purl.org/dc/elements/1.1/"
   xmlns:cc="http://creativecommons.org/ns#"
   xmlns:rdf="http://www.w3.org/1999/02/22-rdf-syntax-ns#"
   xmlns:svg="http://www.w3.org/2000/svg"
   xmlns="http://www.w3.org/2000/svg"
   xmlns:sodipodi="http://sodipodi.sourceforge.net/DTD/sodipodi-0.dtd"
   xmlns:inkscape="http://www.inkscape.org/namespaces/inkscape"
   width="30.233133mm"
   height="22.559898mm"
   viewBox="0 0 107.12528 79.936647"
   id="svg12776"
   version="1.1"
   inkscape:version="0.91 r13725"
   sodipodi:docname="valoresagregados.svg">
  <defs
     id="defs12778" />
  <sodipodi:namedview
     id="base"
     pagecolor="#ffffff"
     bordercolor="#666666"
     borderopacity="1.0"
     inkscape:pageopacity="0.0"
     inkscape:pageshadow="2"
     inkscape:zoom="0.35"
     inkscape:cx="61.419752"
     inkscape:cy="-345.43496"
     inkscape:document-units="px"
     inkscape:current-layer="layer1"
     showgrid="false"
     fit-margin-top="0"
     fit-margin-left="0"
     fit-margin-right="0"
     fit-margin-bottom="0"
     inkscape:window-width="1366"
     inkscape:window-height="705"
     inkscape:window-x="-8"
     inkscape:window-y="-8"
     inkscape:window-maximized="1" />
  <metadata
     id="metadata12781">
    <rdf:RDF>
      <cc:Work
         rdf:about="">
        <dc:format>image/svg+xml</dc:format>
        <dc:type
           rdf:resource="http://purl.org/dc/dcmitype/StillImage" />
        <dc:title></dc:title>
      </cc:Work>
    </rdf:RDF>
  </metadata>
  <g
     inkscape:label="Capa 1"
     inkscape:groupmode="layer"
     id="layer1"
     transform="translate(-313.58025,-106.9906)">
    <g
       transform="matrix(0.23361548,0,0,0.23361548,-34.502227,-290.96926)"
       id="g9802">
      <g
         transform="matrix(1.25,0,0,-1.25,636.2046,3200.3369)"
         id="g4822">
        <path
           inkscape:connector-curvature="0"
           id="path4824"
           style="fill:#4d4d4e;fill-opacity:1;fill-rule:nonzero;stroke:none"
           d="M 863.7191,1099.3504 688.953,989.3639 798.87,923.7461 l 174.7659,109.9868 -109.9168,65.6175 z" />
        <g
           id="g4826">
          <path
             inkscape:connector-curvature="0"
             id="path4828"
             style="fill:#aa5a7f;fill-opacity:1;fill-rule:nonzero;stroke:none"
             d="m 683.0206,1098.9031 108.9859,-65.969 0,-105.0732 -108.9859,65.969 0,105.0732 z" />
          <path
             inkscape:connector-curvature="0"
             id="path4830"
             style="fill:#f9a879;fill-opacity:1;fill-rule:nonzero;stroke:none"
             d="m 683.0206,1098.9031 108.9859,-65.969 0,-21.4155 -108.9859,65.9693 0,21.4152 z" />
          <path
             inkscape:connector-curvature="0"
             id="path4832"
             style="fill:#aa5a7f;fill-opacity:1;fill-rule:nonzero;stroke:none"
             d="m 828.7393,1182.5512 108.9861,-65.969 0,-105.0732 -108.9861,65.969 0,105.0732 z" />
          <path
             inkscape:connector-curvature="0"
             id="path4834"
             style="fill:#f494be;fill-opacity:1;fill-rule:nonzero;stroke:none"
             d="m 842.243,1190.7785 108.9859,-65.969 -159.2224,-91.8754 -108.9859,65.969 159.2224,91.8754 z" />
          <g
             id="g4836">
            <path
               inkscape:connector-curvature="0"
               id="path4838"
               style="fill:#c76c8d;fill-opacity:1;fill-rule:nonzero;stroke:none"
               d="m 805.5638,935.3157 -13.5573,-7.795 0,85.8419 13.5573,7.795 0,-85.8419 z" />
            <path
               inkscape:connector-curvature="0"
               id="path4840"
               style="fill:#c76c8d;fill-opacity:1;fill-rule:nonzero;stroke:none"
               d="m 951.2289,1019.4154 -13.5035,-7.7961 0,85.8418 13.5035,7.7962 0,-85.8419 z" />
          </g>
          <path
             inkscape:connector-curvature="0"
             id="path4842"
             style="fill:#aa5a7f;fill-opacity:1;fill-rule:nonzero;stroke:none"
             d="m 855.8495,987.4653 -50.2857,-29.0325 0,62.142 50.2857,29.0324 0,-62.1419 z" />
          <path
             inkscape:connector-curvature="0"
             id="path4844"
             style="fill:#f69079;fill-opacity:1;fill-rule:nonzero;stroke:none"
             d="m 809.0847,1019.3902 0,-17.6638 43.2439,24.967 0,17.6638 -43.2439,-24.967 z m 31.0362,7.9378 0,0 -18.8285,-10.8706 0,2.2981 18.8285,10.8706 0,-2.2981 z m -31.0362,-26.9606 0,0 0,-17.6641 43.2439,24.967 0,17.6638 -43.2439,-24.9667 z m 31.0362,7.9376 0,0 -18.8285,-10.8706 0,2.2981 18.8285,10.8708 0,-2.2983 z m -31.0362,-26.9606 0,0 0,-17.6615 43.2439,24.967 0,17.6612 -43.2439,-24.9667 z m 31.0362,7.9376 0,0 -18.8285,-10.8703 0,2.2977 18.8285,10.8709 0,-2.2983 z" />
          <path
             inkscape:connector-curvature="0"
             id="path4846"
             style="fill:#fcbc80;fill-opacity:1;fill-rule:nonzero;stroke:none"
             d="m 951.2289,1103.4258 -159.2224,-91.8947 0,21.6706 159.2224,91.8944 0,-21.6703 z" />
        </g>
      </g>
      <path
         inkscape:connector-curvature="0"
         id="path4848"
         style="fill:#4d4d4e;fill-opacity:1;fill-rule:nonzero;stroke:none"
         d="m 1656.6264,1780.375 -101.5349,59.1393 58.1981,32.8485 101.4953,-59.1088 -58.1585,-32.879 z" />
      <g
         transform="matrix(1.25,0,0,-1.25,636.2046,3200.3369)"
         id="g4850">
        <path
           inkscape:connector-curvature="0"
           id="path4852"
           style="fill:#4d4d4e;fill-opacity:1;fill-rule:nonzero;stroke:none"
           d="m 820.2506,1097.6641 c 6.204,-3.5819 16.2624,-3.5819 22.4663,0 6.2042,3.5819 6.2042,9.3892 3e-4,12.971 -6.2039,3.5819 -16.2626,3.5819 -22.4666,0 -6.2039,-3.5818 -6.2039,-9.3891 0,-12.971 z m 2.7995,1.6163 0,0 c -4.6578,2.6892 -4.6578,7.0492 0,9.7384 4.6579,2.6893 12.2097,2.6893 16.8676,0 4.6576,-2.6892 4.6576,-7.0492 -3e-4,-9.7384 -4.6576,-2.6892 -12.2094,-2.6892 -16.8673,0" />
        <path
           inkscape:connector-curvature="0"
           id="path4854"
           style="fill:#4d4d4e;fill-opacity:1;fill-rule:nonzero;stroke:none"
           d="m 843.0265,1099.5248 -3.532,-2.0393 8.257,-4.7673 3.5323,2.0392 -8.2573,4.7674 z" />
        <path
           inkscape:connector-curvature="0"
           id="path4856"
           style="fill:#4d4d4e;fill-opacity:1;fill-rule:nonzero;stroke:none"
           d="m 848.7626,1097.0654 -5.0085,-2.8916 13.2027,-7.6227 c 1.597,-0.9221 4.013,-1.0221 5.396,-0.2236 l 0,0 c 1.383,0.7985 1.2095,2.1934 -0.3875,3.1153 l -13.2027,7.6226 z" />
      </g>
      <g
         transform="matrix(1.25,0,0,-1.25,636.2046,3200.3369)"
         id="g4858">
        <path
           inkscape:connector-curvature="0"
           id="path4860"
           style="fill:#aa5a7f;fill-opacity:1;fill-rule:nonzero;stroke:none"
           d="m 771.2232,1116.2015 -32.946,-19.0213 -8.6995,-5.195 46.8232,-27.0335 8.7662,5.2336 32.8949,18.9953 -0.028,-0.01 -46.8108,27.026 z" />
        <path
           inkscape:connector-curvature="0"
           id="path4862"
           style="fill:#aa5a7f;fill-opacity:1;fill-rule:nonzero;stroke:none"
           d="m 808.8622,1138.2426 -4.7257,-3.0353 -32.8949,-18.995 0.0281,0 46.8107,-27.026 32.9463,19.0216 4.6584,2.9967 -46.8229,27.0332 z" />
      </g>
      <path
         inkscape:connector-curvature="0"
         id="path4864"
         style="fill:#f28a7c;fill-opacity:1;fill-rule:nonzero;stroke:none"
         d="m 1705.811,1811.3252 -99.1053,57.8221 0,2.52 99.1053,-57.8219 0,-2.5202 z" />
      <path
         inkscape:connector-curvature="0"
         id="path4866"
         style="fill:#e884ad;fill-opacity:1;fill-rule:nonzero;stroke:none"
         d="m 1548.1767,1835.3554 0,2.52 58.529,33.7919 0,-2.52 -58.529,-33.7919 z" />
      <path
         inkscape:connector-curvature="0"
         id="path4868"
         style="fill:#f2d2cf;fill-opacity:1;fill-rule:nonzero;stroke:none"
         d="m 1554.6479,1830.2144 0,8.1602 48.184,27.8189 0,-8.1602 -48.184,-27.8189 z" />
      <path
         inkscape:connector-curvature="0"
         id="path4870"
         style="fill:#e0bccd;fill-opacity:1;fill-rule:nonzero;stroke:none"
         d="m 1684.9544,1810.6164 c -10.5782,6.7699 -17.8608,13.8426 -22.063,18.518 -2.3132,2.5733 -8.29,3.1061 -11.8404,1.0564 l -46.0406,-26.5817 c -0.1099,0.033 -0.2215,0.068 -0.3299,0.1 -4.4569,1.3356 -5.3799,4.7859 -1.8295,6.8358 l 0.029,0 48.1708,27.8114 c 3.5504,2.0498 9.5273,1.517 11.8404,-1.0563 4.2023,-4.6754 11.4849,-11.7477 22.063,-18.518 l 14.2806,-8.2449 0,-8.1602 -14.2806,8.2449 z" />
      <path
         inkscape:connector-curvature="0"
         id="path4872"
         style="fill:#fee6db;fill-opacity:1;fill-rule:nonzero;stroke:none"
         d="m 1699.235,1802.3715 -14.2806,8.2449 c -10.5782,6.7699 -17.8608,13.8426 -22.063,18.518 -2.3132,2.5733 -8.29,3.1061 -11.8404,1.0564 l -48.1709,-27.8119 -0.029,0 c -3.5504,-2.0499 -2.6274,-5.5006 1.8295,-6.8361 8.0858,-2.4225 20.3116,-6.6181 32.0215,-12.7109 l 14.3494,-8.2846 48.1836,27.8189 z" />
      <path
         inkscape:connector-curvature="0"
         id="path4874"
         style="fill:#e0bccd;fill-opacity:1;fill-rule:nonzero;stroke:none"
         d="m 1653.1809,1841.739 c 0.033,-0.2356 0.034,-0.4733 0,-0.71 l 0,-8.3682 -7.3754,5.4265 c -7.898,2.5105 -18.4539,6.3695 -28.6243,11.6613 l -14.3493,8.2847 0,8.1602 14.3493,-8.2846 c 11.7099,-6.0926 23.9358,-10.2883 32.0217,-12.7113 2.3991,-0.7185 3.7721,-2.0505 3.9766,-3.4468 l 10e-4,-4e-4 0,-0.013 z" />
      <path
         inkscape:connector-curvature="0"
         id="path4876"
         style="fill:#ebeded;fill-opacity:1;fill-rule:nonzero;stroke:none"
         d="m 1554.6479,1830.2144 14.2806,-8.2449 c 10.5785,-6.7701 17.8607,-13.8426 22.0635,-18.518 2.313,-2.5731 8.2895,-3.1061 11.8402,-1.0562 l 48.1709,27.8114 0.029,0 c 3.5504,2.0498 2.6274,5.5006 -1.8294,6.8357 -8.0858,2.423 -20.3117,6.6186 -32.0216,12.7113 l -14.3494,8.2846 -48.184,-27.8189 z" />
      <path
         inkscape:connector-curvature="0"
         id="path4878"
         style="fill:#e884ad;fill-opacity:1;fill-rule:nonzero;stroke:none"
         d="m 1626.2216,1807.4253 33.1221,-19.1229 1.3983,0.8073 -33.1221,19.1228 -1.3983,-0.8072 z m 4.6935,2.71 0,0 33.1221,-19.1233 -1.3982,-0.8071 -33.1218,19.1231 1.3979,0.8073 z m 3.2953,1.9023 0,0 33.1221,-19.1228 -1.3979,-0.8072 -33.1221,19.1229 1.3979,0.8071 z m 3.2956,1.9028 0,0 33.1217,-19.1233 -1.3977,-0.8071 -33.1221,19.1233 1.3981,0.8071 z m 3.2952,1.9024 0,0 33.1222,-19.1229 -1.3982,-0.8071 -33.1221,19.1228 1.3981,0.8072 z m 3.2953,1.9023 0,0 33.1221,-19.1228 -1.3981,-0.8072 -33.1221,19.1233 1.3981,0.8067 z" />
      <path
         inkscape:connector-curvature="0"
         id="path4880"
         style="fill:#44355f;fill-opacity:1;fill-rule:nonzero;stroke:none"
         d="m 1663.7895,1819.0431 c 7.7552,4.477 20.3284,4.477 28.0832,-3e-4 7.7549,-4.4774 7.7549,-11.7361 0,-16.2135 -7.7548,-4.4773 -20.328,-4.4773 -28.0828,0 -7.7549,4.4773 -7.7553,11.7365 -4e-4,16.2138 z m 3.4994,-2.0203 0,0 c -5.822,-3.3616 -5.822,-8.8115 3e-4,-12.1731 5.8224,-3.3615 15.2622,-3.3615 21.0842,-3e-4 5.8223,3.3615 5.8223,8.8118 0,12.1734 -5.8224,3.3611 -15.2622,3.3611 -21.0845,0" />
      <path
         inkscape:connector-curvature="0"
         id="path4882"
         style="fill:#725c94;fill-opacity:1;fill-rule:nonzero;stroke:none"
         d="m 1663.7895,1816.7711 c 7.7552,4.4774 20.3284,4.4774 28.0832,0 7.7549,-4.4773 7.7549,-11.7364 0,-16.2138 -7.7548,-4.4773 -20.328,-4.4773 -28.0828,0 -7.7549,4.4774 -7.7553,11.7365 -4e-4,16.2138 z m 3.4994,-2.0203 0,0 c -5.822,-3.3615 -5.822,-8.8115 3e-4,-12.173 5.8224,-3.3616 15.2622,-3.3616 21.0842,0 5.8223,3.3615 5.8223,8.8115 0,12.173 -5.8224,3.3615 -15.2622,3.3615 -21.0845,0" />
      <path
         inkscape:connector-curvature="0"
         id="path4884"
         style="fill:#1ab59d;fill-opacity:1;fill-rule:nonzero;stroke:none"
         d="m 1687.8444,1816.9944 0,2.272 10.3216,5.9591 4.415,-2.5491 -14.7366,-5.682 z" />
      <path
         inkscape:connector-curvature="0"
         id="path4886"
         style="fill:#62c4b0;fill-opacity:1;fill-rule:nonzero;stroke:none"
         d="m 1692.2596,1814.4453 -4.4152,2.5491 10.3216,5.9591 4.415,-2.5491 -10.3214,-5.9591 z" />
      <path
         inkscape:connector-curvature="0"
         id="path4888"
         style="fill:#44355f;fill-opacity:1;fill-rule:nonzero;stroke:none"
         d="m 1717.5844,1829.3598 -3.797,-1.2792 -14.3575,-8.2895 -3.7762,2.1802 -2.4848,-0.8373 0,2.272 16.5032,9.5283 c 1.9964,1.1522 5.0164,1.2777 6.7451,0.2796 0.7438,-0.4295 1.1254,-0.9971 1.1622,-1.5959 l 0,0 0,-2.256 z" />
      <path
         inkscape:connector-curvature="0"
         id="path4890"
         style="fill:#725c94;fill-opacity:1;fill-rule:nonzero;stroke:none"
         d="m 1699.4299,1817.5195 -6.261,3.6145 16.5032,9.5283 c 1.9964,1.1527 5.0164,1.2777 6.7451,0.2796 1.7292,-0.9981 1.5123,-2.7418 -0.484,-3.8941 l -16.5033,-9.5283 z" />
      <path
         inkscape:connector-curvature="0"
         id="path4892"
         style="fill:#4d4d4e;fill-opacity:1;fill-rule:nonzero;stroke:none"
         d="m 1713.9716,1751.0109 -4.7937,3.0791 -33.368,19.2681 0.029,0 47.4838,27.4149 33.4202,-19.2951 4.7254,-3.0398 -47.4963,-27.4223 z" />
      <g
         transform="matrix(1.25,0,0,-1.25,636.2046,3200.3369)"
         id="g4894">
        <path
           inkscape:connector-curvature="0"
           id="path4896"
           style="fill:#7b6490;fill-opacity:1;fill-rule:nonzero;stroke:none"
           d="m 891.4895,1140.5392 -31.0787,-17.9433 0,9.4882 31.0787,17.6334 0,-9.1783 z" />
        <g
           id="g4898">
          <path
             inkscape:connector-curvature="0"
             id="path4900"
             style="fill:#ffffff;fill-opacity:0.5;fill-rule:nonzero;stroke:none"
             d="m 862.8735,1124.0178 -0.3555,-0.2052 0,9.4881 0.3555,0.2052 0,-9.4881 z m 0.762,9.9281 0,0 -0.3555,-0.2053 0,-9.4884 0.3555,0.2052 0,9.4885 z m 12.0362,6.9491 0,0 -0.3555,-0.2052 0,-9.4884 0.3555,0.2052 0,9.4884 z m 0.7616,0.4396 0,0 -0.3554,-0.2052 0,-9.4881 0.3554,0.2052 0,9.4881 z m 12.0362,6.9492 0,0 -0.3552,-0.2052 0,-9.4882 0.3552,0.2053 0,9.4881 z m 0.762,0.4399 0,0 -0.3555,-0.2052 0,-9.4884 0.3555,0.2055 0,9.4881 z" />
        </g>
        <path
           inkscape:connector-curvature="0"
           id="path4902"
           style="fill:#ffffff;fill-opacity:1;fill-rule:nonzero;stroke:none"
           d="m 858.9214,1131.3043 0,-6.8332 -25.1078,15.0326 0,6.833 25.1078,-15.0324 z" />
        <path
           inkscape:connector-curvature="0"
           id="path4904"
           style="fill:#48395f;fill-opacity:1;fill-rule:nonzero;stroke:none"
           d="m 860.4145,1131.6385 -27.51,16.4109 31.2792,15.2761 27.3058,-13.608 -31.075,-18.079 z" />
        <path
           inkscape:connector-curvature="0"
           id="path4906"
           style="fill:#c6d0ce;fill-opacity:1;fill-rule:nonzero;stroke:none"
           d="m 859.3617,1124.9005 -25.5481,15.2963 0,0.3439 25.5481,-15.2964 0,-0.3438 z m 0,1.3269 0,0 -25.5481,15.2963 0,-0.3438 25.5481,-15.2961 0,0.3436 z m 0,0.9831 0,0 -25.5481,15.2963 0,-0.3439 25.5481,-15.296 0,0.3436 z m 0,0.9833 0,0 -25.5481,15.296 0,-0.3438 25.5481,-15.296 0,0.3438 z m 0,0.9831 0,0 -25.5481,15.296 0,-0.3436 25.5481,-15.2963 0,0.3439 z m 0,0.983 0,0 -25.5481,15.296 0,-0.3435 25.5481,-15.2963 0,0.3438 z" />
        <path
           inkscape:connector-curvature="0"
           id="path4908"
           style="fill:#b39bc9;fill-opacity:1;fill-rule:nonzero;stroke:none"
           d="m 832.9045,1139.095 0,0.953 26.0169,-15.5769 0,6.8332 -26.0169,15.5766 0,1.1685 27.51,-16.4109 0,-9.0426 -27.51,16.4991 z" />
      </g>
      <g
         transform="matrix(1.25,0,0,-1.25,636.2046,3200.3369)"
         id="g4910">
        <path
           inkscape:connector-curvature="0"
           id="path4912"
           style="fill:#128cac;fill-opacity:1;fill-rule:nonzero;stroke:none"
           d="m 835.9407,1148.6384 26.2437,-15.152 0,8.0124 -26.2437,14.8901 0,-7.7505 z" />
        <g
           id="g4914">
          <path
             inkscape:connector-curvature="0"
             id="path4916"
             style="fill:#ffffff;fill-opacity:0.5;fill-rule:nonzero;stroke:none"
             d="m 860.1046,1142.6992 0.3002,-0.1732 0,-8.0121 -0.3002,0.1732 0,8.0121 z m -0.6432,-7.6407 0,0 0.3002,-0.1732 0,8.0121 -0.3002,0.1732 0,-8.0121 z m -10.1636,5.8682 0,0 0.3002,-0.1734 0,8.0121 -0.3002,0.1735 0,-8.0122 z m -0.6434,0.3714 0,0 0.3002,-0.1735 0,8.0121 -0.3002,0.1735 0,-8.0121 z m -10.1637,5.868 0,0 0.3002,-0.1732 0,8.0121 -0.3002,0.1732 0,-8.0121 z m -0.6431,0.3713 0,0 0.3001,-0.1732 0,8.0121 -0.3001,0.1732 0,-8.0121 z" />
        </g>
        <path
           inkscape:connector-curvature="0"
           id="path4918"
           style="fill:#ffffff;fill-opacity:1;fill-rule:nonzero;stroke:none"
           d="m 863.4421,1140.84 0,-5.7699 21.2018,12.6938 0,5.7702 -21.2018,-12.6941 z" />
        <path
           inkscape:connector-curvature="0"
           id="path4920"
           style="fill:#8bd6f2;fill-opacity:1;fill-rule:nonzero;stroke:none"
           d="m 862.1813,1141.1223 23.2302,13.8578 -26.4129,12.8996 -23.0579,-11.4908 26.2406,-15.2666 z" />
        <path
           inkscape:connector-curvature="0"
           id="path4922"
           style="fill:#c6d0ce;fill-opacity:1;fill-rule:nonzero;stroke:none"
           d="m 863.0702,1135.7229 21.5737,12.9166 0,-0.2902 -21.5737,-12.9167 0,0.2903 z m 0,0.54 0,0 21.5737,12.9163 0,0.2903 -21.5737,-12.9163 0,-0.2903 z m 0,0.8303 0,0 21.5737,12.9163 0,0.2903 -21.5737,-12.9167 0,-0.2899 z m 0,0.8299 0,0 21.5737,12.9167 0,0.2902 -21.5737,-12.9166 0,-0.2903 z m 0,0.8303 0,0 21.5737,12.9164 0,0.2902 -21.5737,-12.9163 0,-0.2903 z m 0,0.83 0,0 21.5737,12.9166 0,0.2903 -21.5737,-12.9166 0,-0.2903 z" />
        <path
           inkscape:connector-curvature="0"
           id="path4924"
           style="fill:#128cac;fill-opacity:1;fill-rule:nonzero;stroke:none"
           d="m 885.4115,1147.4189 0,0.8045 -21.9694,-13.1533 0,5.7699 21.9694,13.1536 0,0.9865 -23.2302,-13.8578 0,-7.6359 23.2302,13.9325 z" />
      </g>
      <path
         inkscape:connector-curvature="0"
         id="path4926"
         style="fill:#ffffff;fill-opacity:1;fill-rule:nonzero;stroke:none"
         d="m 1703.1125,1704.6726 -1.5793,1.3773 c -0.905,0.7895 -1.9453,1.4091 -3.0703,1.8294 l -2.565,0.9585 23.6686,13.6566 7.2142,-4.1651 -23.6682,-13.6567 z" />
      <path
         inkscape:connector-curvature="0"
         id="path4928"
         style="fill:#d8d8d8;fill-opacity:1;fill-rule:nonzero;stroke:none"
         d="m 1696.9272,1708.589 c 0.179,-0.062 0.3809,-0.1375 0.6035,-0.2257 l 23.2614,13.4302 -0.4967,0.287 -23.3682,-13.4915 z m 2.3099,-1.0052 0,0 c -0.1842,0.095 -0.3621,0.1832 -0.5342,0.2653 l 23.1207,13.3488 0.4971,-0.2866 -23.0836,-13.3275 z m 27.2183,10.9403 0,0 0.3982,-0.23 -13.7557,-7.9423 -9.837,-5.6792 c 0,0 -0.037,0.1075 -0.2307,0.327 l 23.4252,13.5245 z m -28.0474,-10.5363 0,0 c -0.198,0.09 -0.3866,0.1732 -0.5645,0.248 l 23.2157,13.4036 0.4972,-0.287 -23.1484,-13.3646 z m -1.8191,0.7142 0,0 c -0.3873,0.1238 -0.6034,0.1709 -0.6034,0.1709 l 9.8369,5.6795 13.7558,7.942 0.45,-0.2597 -23.4393,-13.5327 z m 3.4366,-1.5455 0,0 c -0.1733,0.099 -0.343,0.1924 -0.5084,0.2806 l 23.0708,13.3197 0.4971,-0.2866 -23.0595,-13.3137 z m 0.7551,-0.4461 0,0 c -0.1531,0.094 -0.3154,0.1912 -0.4879,0.2919 l 23.0594,13.3133 0.4969,-0.287 -23.0684,-13.3182 z m 2.0598,-1.512 0,0 c -0.1032,0.1012 -0.2322,0.2176 -0.3902,0.3488 l 23.2409,13.4181 0.4971,-0.287 -23.3478,-13.4799 z m -0.6142,0.528 0,0 c -0.129,0.1 -0.2735,0.2072 -0.4357,0.3221 l 23.1364,13.3579 0.4971,-0.287 -23.1978,-13.393 z m -0.6788,0.4904 0,0 c -0.1555,0.105 -0.3249,0.2165 -0.5095,0.3333 l 23.0782,13.3243 0.5435,-0.3139 -23.1122,-13.3437 z" />
      <path
         inkscape:connector-curvature="0"
         id="path4930"
         style="fill:#aa5a7f;fill-opacity:1;fill-rule:nonzero;stroke:none"
         d="m 1719.8695,1723.9823 0,42.6691 9.5002,-5.485 0,-42.6692 -9.5002,5.4851 z" />
      <path
         inkscape:connector-curvature="0"
         id="path4932"
         style="fill:#e884ad;fill-opacity:1;fill-rule:nonzero;stroke:none"
         d="m 1693.8626,1708.9674 0,42.6689 26.0069,15.0151 0,-42.6691 -26.0069,-15.0149 z" />
      <g
         transform="matrix(0.1545375,0,0,-0.1545375,636.2046,3200.3369)"
         id="g4934">
        <path
           inkscape:connector-curvature="0"
           id="path4936"
           style="fill:none;stroke:#aa5a7f;stroke-width:17.19669914;stroke-linecap:round;stroke-linejoin:round;stroke-miterlimit:10.00000286;stroke-dasharray:323.48, 8.09, 80.87;stroke-dashoffset:0;stroke-opacity:1"
           d="m 6866.0354,9602.0481 0,-204.1852 124.4506,-71.8495" />
      </g>
      <path
         inkscape:connector-curvature="0"
         id="path4938"
         style="fill:#fdc181;fill-opacity:1;fill-rule:nonzero;stroke:none"
         d="m 1703.363,1703.4824 -1.1428,0.6598 24.5725,14.1871 -7.2145,4.1651 -24.5725,-14.1871 -1.1431,0.6601 26.0069,15.0149 9.5002,-5.4851 -26.0067,-15.0148 z" />
      <path
         inkscape:connector-curvature="0"
         id="path4940"
         style="fill:#fdc181;fill-opacity:1;fill-rule:nonzero;stroke:none"
         d="m 1718.6392,1739.4895 -3.6971,-5.9297 -3.6974,1.6604 0,-16.2549 7.3945,4.2692 0,16.255 z" />
      <path
         inkscape:connector-curvature="0"
         id="path4942"
         style="fill:#4d4d4e;fill-opacity:1;fill-rule:nonzero;stroke:none"
         d="m 1614.3746,1843.3867 -32.6491,-19.6763 5.1254,-2.959 32.6487,19.6763 -5.125,2.959 z" />
      <g
         transform="matrix(1.25,0,0,-1.25,636.2046,3200.3369)"
         id="g4944">
        <g
           id="g4946">
          <path
             inkscape:connector-curvature="0"
             id="path4948"
             style="fill:#128cac;fill-opacity:1;fill-rule:nonzero;stroke:none"
             d="m 764.0583,1101.4943 -3.3378,-1.9273 0,19.6662 3.3378,1.9276 0,-19.6665 z" />
          <path
             inkscape:connector-curvature="0"
             id="path4950"
             style="fill:#0d687d;fill-opacity:1;fill-rule:nonzero;stroke:none"
             d="m 760.7205,1099.567 -3.9557,2.3085 0,19.6662 3.9557,-2.3085 0,-19.6662 z" />
          <path
             inkscape:connector-curvature="0"
             id="path4952"
             style="fill:#53bddb;fill-opacity:1;fill-rule:nonzero;stroke:none"
             d="m 760.6372,1119.2125 -3.9986,2.3085 3.3741,1.9483 3.9986,-2.3085 -3.3741,-1.9483 z" />
        </g>
        <g
           id="g4954">
          <path
             inkscape:connector-curvature="0"
             id="path4956"
             style="fill:#128cac;fill-opacity:1;fill-rule:nonzero;stroke:none"
             d="m 769.4974,1098.578 -3.4613,-1.9273 0,12.5374 3.4613,1.9275 0,-12.5376 z" />
          <path
             inkscape:connector-curvature="0"
             id="path4958"
             style="fill:#0d687d;fill-opacity:1;fill-rule:nonzero;stroke:none"
             d="m 766.0361,1096.6507 -3.9558,2.3085 0,12.5377 3.9558,-2.3088 0,-12.5374 z" />
          <path
             inkscape:connector-curvature="0"
             id="path4960"
             style="fill:#53bddb;fill-opacity:1;fill-rule:nonzero;stroke:none"
             d="m 766.0916,1109.1677 -3.9985,2.3085 3.374,1.948 3.9989,-2.3086 -3.3744,-1.9479 z" />
        </g>
        <g
           id="g4962">
          <path
             inkscape:connector-curvature="0"
             id="path4964"
             style="fill:#128cac;fill-opacity:1;fill-rule:nonzero;stroke:none"
             d="m 774.9366,1094.9057 -3.3375,-1.9276 0,19.6665 3.3375,1.9273 0,-19.6662 z" />
          <path
             inkscape:connector-curvature="0"
             id="path4966"
             style="fill:#0d687d;fill-opacity:1;fill-rule:nonzero;stroke:none"
             d="m 771.5991,1092.9781 -3.9558,2.3089 0,19.6662 3.9558,-2.3086 0,-19.6665 z" />
          <path
             inkscape:connector-curvature="0"
             id="path4968"
             style="fill:#53bddb;fill-opacity:1;fill-rule:nonzero;stroke:none"
             d="m 771.5463,1112.6239 -3.9988,2.3086 3.3744,1.9479 3.9985,-2.3085 -3.3741,-1.948 z" />
        </g>
        <g
           id="g4970">
          <path
             inkscape:connector-curvature="0"
             id="path4972"
             style="fill:#128cac;fill-opacity:1;fill-rule:nonzero;stroke:none"
             d="m 780.376,1091.5574 -3.4614,-1.9275 0,14.3197 3.4614,1.9276 0,-14.3198 z" />
          <path
             inkscape:connector-curvature="0"
             id="path4974"
             style="fill:#0d687d;fill-opacity:1;fill-rule:nonzero;stroke:none"
             d="m 776.9146,1089.6299 -3.9558,2.3088 0,14.3195 3.9558,-2.3086 0,-14.3197 z" />
          <path
             inkscape:connector-curvature="0"
             id="path4976"
             style="fill:#53bddb;fill-opacity:1;fill-rule:nonzero;stroke:none"
             d="m 776.9602,1103.9289 -3.9985,2.3086 3.374,1.9482 3.9989,-2.3085 -3.3744,-1.9483 z" />
        </g>
        <g
           id="g4978">
          <path
             inkscape:connector-curvature="0"
             id="path4980"
             style="fill:#128cac;fill-opacity:1;fill-rule:nonzero;stroke:none"
             d="m 785.9387,1088.263 -3.585,-1.9273 0,7.7851 3.585,1.9273 0,-7.7851 z" />
          <path
             inkscape:connector-curvature="0"
             id="path4982"
             style="fill:#0d687d;fill-opacity:1;fill-rule:nonzero;stroke:none"
             d="m 782.4773,1086.3357 -4.0793,2.3086 0,7.785 4.0793,-2.3085 0,-7.7851 z" />
          <path
             inkscape:connector-curvature="0"
             id="path4984"
             style="fill:#53bddb;fill-opacity:1;fill-rule:nonzero;stroke:none"
             d="m 782.4013,1094.1001 -3.9985,2.3085 3.3741,1.948 3.9988,-2.3085 -3.3744,-1.948 z" />
        </g>
      </g>
      <g
         transform="matrix(1.25,0,0,-1.25,636.2046,3200.3369)"
         id="g4986">
        <path
           inkscape:connector-curvature="0"
           id="path4988"
           style="fill:#eb4538;fill-opacity:1;fill-rule:evenodd;stroke:none"
           d="m 782.2809,1091.0333 c -12.5096,2.6013 -23.3136,9.2684 -22.2639,23.6962 0.3784,-14.3898 9.5162,-20.2666 22.4096,-22.765 0.2571,-0.04 0.4328,-0.2812 0.3925,-0.5383 -0.0402,-0.2571 -0.2811,-0.4329 -0.5382,-0.3929" />
      </g>
      <g
         transform="matrix(1.25,0,0,-1.25,636.2046,3200.3369)"
         id="g4990">
        <path
           inkscape:connector-curvature="0"
           id="path4992"
           style="fill:#eb4538;fill-opacity:1;fill-rule:evenodd;stroke:none"
           d="m 758.5764,1113.5316 c 2.3973,3.4288 1.1993,2.2768 2.8259,-0.2537 0.1343,-0.1199 0.1933,-0.3115 0.1355,-0.4944 -0.0786,-0.248 -0.3436,-0.3852 -0.5916,-0.3064 -0.343,0.1568 -0.6761,0.868 -0.9287,1.4975 -0.1542,-0.2763 -0.2052,-0.3078 -0.8336,-1.163 -0.1987,-0.1678 -0.4961,-0.1426 -0.6639,0.056 -0.1678,0.199 -0.1426,0.4961 0.0564,0.6639" />
      </g>
      <path
         inkscape:connector-curvature="0"
         id="path4994"
         style="fill:#4a3f5f;fill-opacity:1;fill-rule:nonzero;stroke:none"
         d="m 1853.6084,1995.2008 -46.35,-26.8339 22.7402,-13.1286 46.3504,26.8335 -22.7406,13.129 z" />
      <path
         inkscape:connector-curvature="0"
         id="path4996"
         style="fill:#4a3f5f;fill-opacity:1;fill-rule:nonzero;stroke:none"
         d="m 1925.7941,1993.799 -46.3504,-26.8335 22.7405,-13.129 46.35,26.8335 -22.7401,13.129 z" />
      <path
         inkscape:connector-curvature="0"
         id="path4998"
         style="fill:#4a3f5f;fill-opacity:1;fill-rule:nonzero;stroke:none"
         d="m 1870.6467,2043.558 46.35,-26.8335 -22.7398,-13.1294 -46.3504,26.8339 22.7402,13.129 z" />
      <g
         transform="matrix(1.25,0,0,-1.25,636.2046,3200.3369)"
         id="g5000">
        <path
           inkscape:connector-curvature="0"
           id="path5002"
           style="fill:#81546d;fill-opacity:1;fill-rule:nonzero;stroke:none"
           d="m 966.7638,936.2976 18.3439,-10.3918 0,14.9752 -18.3439,10.3915 0,-14.9749 z" />
        <path
           inkscape:connector-curvature="0"
           id="path5004"
           style="fill:#995b80;fill-opacity:1;fill-rule:nonzero;stroke:none"
           d="m 984.8166,925.9058 36.974,21.4668 0,14.9751 -36.974,-21.4667 0,-14.9752 z" />
        <path
           inkscape:connector-curvature="0"
           id="path5006"
           style="fill:#bc71a0;fill-opacity:1;fill-rule:nonzero;stroke:none"
           d="m 984.8166,940.7696 37.08,21.4667 -18.1919,10.5033 -37.0803,-21.4671 18.1922,-10.5029 z" />
        <path
           inkscape:connector-curvature="0"
           id="path5008"
           style="fill:#fedcc0;fill-opacity:1;fill-rule:nonzero;stroke:none"
           d="m 1008.9848,969.5852 -37.0307,-21.3883 0,-4.1235 5.989,-3.4526 0,4.1238 37.0803,21.4668 -6.0386,3.3738 z" />
      </g>
      <g
         transform="matrix(1.25,0,0,-1.25,636.2046,3200.3369)"
         id="g5010">
        <path
           inkscape:connector-curvature="0"
           id="path5012"
           style="fill:#81546d;fill-opacity:1;fill-rule:nonzero;stroke:none"
           d="m 1045.9191,975.3837 -18.3439,-10.3915 0,14.9751 18.3439,10.3918 0,-14.9754 z" />
        <path
           inkscape:connector-curvature="0"
           id="path5014"
           style="fill:#995b80;fill-opacity:1;fill-rule:nonzero;stroke:none"
           d="m 1027.866,964.9922 -36.9739,21.4668 0,14.9751 36.9739,-21.4668 0,-14.9751 z" />
        <path
           inkscape:connector-curvature="0"
           id="path5016"
           style="fill:#bc71a0;fill-opacity:1;fill-rule:nonzero;stroke:none"
           d="m 1027.866,979.8559 -37.08,21.4668 18.192,10.5032 37.0805,-21.4668 -18.1925,-10.5032 z" />
        <path
           inkscape:connector-curvature="0"
           id="path5018"
           style="fill:#fedcc0;fill-opacity:1;fill-rule:nonzero;stroke:none"
           d="m 1003.6981,1008.6715 37.0304,-21.3879 0,-4.1239 -5.989,-3.4526 0,4.1239 -37.0803,21.4667 6.0389,3.3738 z" />
      </g>
      <g
         transform="matrix(1.25,0,0,-1.25,636.2046,3200.3369)"
         id="g5020">
        <path
           inkscape:connector-curvature="0"
           id="path5022"
           style="fill:#81546d;fill-opacity:1;fill-rule:nonzero;stroke:none"
           d="m 988.0515,974.2141 -18.3442,-10.3915 0,14.9752 18.3442,10.3915 0,-14.9752 z" />
        <path
           inkscape:connector-curvature="0"
           id="path5024"
           style="fill:#995b80;fill-opacity:1;fill-rule:nonzero;stroke:none"
           d="m 969.9985,963.8226 -36.9737,21.4668 0,14.9751 36.9737,-21.4667 0,-14.9752 z" />
        <path
           inkscape:connector-curvature="0"
           id="path5026"
           style="fill:#bc71a0;fill-opacity:1;fill-rule:nonzero;stroke:none"
           d="m 969.9985,978.6864 -37.08,21.4667 18.1921,10.5032 37.08,-21.467 -18.1921,-10.5029 z" />
        <path
           inkscape:connector-curvature="0"
           id="path5028"
           style="fill:#fedcc0;fill-opacity:1;fill-rule:nonzero;stroke:none"
           d="m 945.8306,1007.502 37.0303,-21.3883 0,-4.1236 -5.989,-3.4526 0,4.1239 -37.08,21.4668 6.0387,3.3738 z" />
      </g>
    </g>
  </g>
</svg>
