<?xml version="1.0" encoding="UTF-8" standalone="no"?>
<!-- Created with Inkscape (http://www.inkscape.org/) -->

<svg
   xmlns:dc="http://purl.org/dc/elements/1.1/"
   xmlns:cc="http://creativecommons.org/ns#"
   xmlns:rdf="http://www.w3.org/1999/02/22-rdf-syntax-ns#"
   xmlns:svg="http://www.w3.org/2000/svg"
   xmlns="http://www.w3.org/2000/svg"
   xmlns:sodipodi="http://sodipodi.sourceforge.net/DTD/sodipodi-0.dtd"
   xmlns:inkscape="http://www.inkscape.org/namespaces/inkscape"
   width="27.276426mm"
   height="36.781124mm"
   viewBox="0 0 96.648755 130.32682"
   id="svg13080"
   version="1.1"
   inkscape:version="0.91 r13725"
   sodipodi:docname="ventajas-1.svg">
  <defs
     id="defs13082" />
  <sodipodi:namedview
     id="base"
     pagecolor="#ffffff"
     bordercolor="#666666"
     borderopacity="1.0"
     inkscape:pageopacity="0.0"
     inkscape:pageshadow="2"
     inkscape:zoom="0.35"
     inkscape:cx="56.664081"
     inkscape:cy="-118.45082"
     inkscape:document-units="px"
     inkscape:current-layer="layer1"
     showgrid="false"
     fit-margin-top="0"
     fit-margin-left="0"
     fit-margin-right="0"
     fit-margin-bottom="0"
     inkscape:window-width="1366"
     inkscape:window-height="705"
     inkscape:window-x="-8"
     inkscape:window-y="-8"
     inkscape:window-maximized="1" />
  <metadata
     id="metadata13085">
    <rdf:RDF>
      <cc:Work
         rdf:about="">
        <dc:format>image/svg+xml</dc:format>
        <dc:type
           rdf:resource="http://purl.org/dc/dcmitype/StillImage" />
        <dc:title></dc:title>
      </cc:Work>
    </rdf:RDF>
  </metadata>
  <g
     inkscape:label="Capa 1"
     inkscape:groupmode="layer"
     id="layer1"
     transform="translate(-318.33592,-283.58457)">
    <g
       id="g6366"
       transform="matrix(0.50843386,0,0,-0.50843386,278.20676,486.74178)">
      <path
         d="m 147.4512,248.0666 -19.0576,-10.8921 120.867,-69.7824 19.0576,10.8918 -120.867,69.7827 z"
         style="fill:#44355f;fill-opacity:1;fill-rule:nonzero;stroke:none"
         id="path6368"
         inkscape:connector-curvature="0" />
      <g
         id="g6370">
        <path
           d="m 208.0712,253.1024 15.0449,8.1813 12.9214,-64.5794 -15.0448,-8.1814 -12.9215,64.5795 z m -37.8496,-35.3954 0,0 15.0449,8.1814 12.5393,48.7369 -15.0449,-8.1814 -12.5393,-48.7369 z"
           style="fill:#f2d2cf;fill-opacity:1;fill-rule:nonzero;stroke:none"
           id="path6372"
           inkscape:connector-curvature="0" />
        <path
           d="m 212.023,193.5731 -12.8891,64.6895 8.9373,-5.1602 12.9215,-64.5795 -0.4867,0.1525 -8.483,4.8977 z m -41.8014,24.1339 0,0 12.8891,49.8062 -8.9373,5.1602 -12.9212,-49.6594 8.9694,-5.307 z"
           style="fill:#fee6db;fill-opacity:1;fill-rule:nonzero;stroke:none"
           id="path6374"
           inkscape:connector-curvature="0" />
        <g
           id="g6376">
          <path
             d="m 253.9732,226.057 -120.867,69.7828 0,7.3411 120.867,-69.7824 0,-7.3415 z"
             style="fill:#f494be;fill-opacity:1;fill-rule:nonzero;stroke:none"
             id="path6378"
             inkscape:connector-curvature="0" />
          <g
             id="g6380">
            <path
               d="m 253.9732,225.5406 -120.867,69.7827 0,7.3415 120.867,-69.7828 0,-7.3414 z"
               style="fill:#128cac;fill-opacity:1;fill-rule:nonzero;stroke:none"
               id="path6382"
               inkscape:connector-curvature="0" />
            <path
               d="m 269.0181,241.0637 -15.0449,-8.1817 0,-7.3414 15.0449,8.1816 0,7.3415 z"
               style="fill:#53bddb;fill-opacity:1;fill-rule:nonzero;stroke:none"
               id="path6384"
               inkscape:connector-curvature="0" />
            <path
               d="m 148.1511,310.8461 -15.0449,-8.1813 120.867,-69.7828 15.0449,8.1817 -120.867,69.7824 z"
               style="fill:#8bd6f2;fill-opacity:1;fill-rule:nonzero;stroke:none"
               id="path6386"
               inkscape:connector-curvature="0" />
          </g>
          <path
             d="m 259.4472,246.4058 -15.0449,-8.1813 0,81.5703 15.0449,8.1816 0,-81.5706 z"
             style="fill:#f2d2cf;fill-opacity:1;fill-rule:nonzero;stroke:none"
             id="path6388"
             inkscape:connector-curvature="0" />
          <path
             d="m 244.4023,238.2245 -101.7252,58.731 0,81.5703 101.7252,-58.731 0,-81.5703 z"
             style="fill:#fee6db;fill-opacity:1;fill-rule:nonzero;stroke:none"
             id="path6390"
             inkscape:connector-curvature="0" />
          <g
             id="g6392">
            <path
               d="m 253.9732,314.2692 -120.867,69.7825 0,7.3414 120.867,-69.7827 0,-7.3412 z"
               style="fill:#128cac;fill-opacity:1;fill-rule:nonzero;stroke:none"
               id="path6394"
               inkscape:connector-curvature="0" />
            <path
               d="m 269.0181,329.792 -15.0449,-8.1816 0,-7.3412 15.0449,8.1814 0,7.3414 z"
               style="fill:#53bddb;fill-opacity:1;fill-rule:nonzero;stroke:none"
               id="path6396"
               inkscape:connector-curvature="0" />
            <path
               d="m 148.1511,399.5745 -15.0449,-8.1814 120.867,-69.7827 15.0449,8.1816 -120.867,69.7825 z"
               style="fill:#8bd6f2;fill-opacity:1;fill-rule:nonzero;stroke:none"
               id="path6398"
               inkscape:connector-curvature="0" />
          </g>
        </g>
      </g>
      <g
         id="g6400">
        <path
           d="M 115.0265,197.79 142.1379,184.1525 106.812,160.7431 79.7009,174.3806 115.0265,197.79 Z"
           style="fill:#44355f;fill-opacity:1;fill-rule:nonzero;stroke:none"
           id="path6402"
           inkscape:connector-curvature="0" />
        <path
           d="m 121.3756,198.7625 29.808,-11.6107 -30.0719,-25.7369 -29.8089,11.6107 30.0728,25.7369 z"
           style="fill:#44355f;fill-opacity:1;fill-rule:nonzero;stroke:none"
           id="path6404"
           inkscape:connector-curvature="0" />
      </g>
      <path
         d="m 230.991,312.3797 -9.1916,2.2294 2.7621,-4.4235 -35.6159,-17.4829 -14.1942,27.2375 -25.1507,-9.5533 1.9156,-3.8169 21.7511,7.932 14.3232,-27.4859 39.2533,19.5145 3.1731,-5.0816 0.974,10.9307 z"
         style="fill:#c59bb0;fill-opacity:1;fill-rule:nonzero;stroke:none"
         id="path6406"
         inkscape:connector-curvature="0" />
      <g
         id="g6408">
        <g
           id="g6410">
          <path
             d="m 111.5192,228.6363 25.0135,-12.5824 -32.5925,-21.5981 -25.0132,12.5825 32.5922,21.598 z"
             style="fill:#f7f8f9;fill-opacity:1;fill-rule:nonzero;stroke:none"
             id="path6412"
             inkscape:connector-curvature="0" />
          <path
             d="M 109.7365,200.1682 87.9333,211.1355"
             style="fill:none;stroke:#d4d4d4;stroke-width:0.6979;stroke-linecap:butt;stroke-linejoin:miter;stroke-miterlimit:10.00000286;stroke-dasharray:none;stroke-opacity:1"
             id="path6414"
             inkscape:connector-curvature="0" />
          <path
             d="m 99.3129,201.0728 6.702,-3.371"
             style="fill:none;stroke:#d4d4d4;stroke-width:0.6979;stroke-linecap:butt;stroke-linejoin:miter;stroke-miterlimit:10.00000286;stroke-dasharray:none;stroke-opacity:1"
             id="path6416"
             inkscape:connector-curvature="0" />
          <path
             d="M 111.5291,201.3559 89.7259,212.3235"
             style="fill:none;stroke:#d4d4d4;stroke-width:0.6979;stroke-linecap:butt;stroke-linejoin:miter;stroke-miterlimit:10.00000286;stroke-dasharray:none;stroke-opacity:1"
             id="path6418"
             inkscape:connector-curvature="0" />
          <path
             d="M 113.3218,202.5439 91.5185,213.5115"
             style="fill:none;stroke:#d4d4d4;stroke-width:0.6979;stroke-linecap:butt;stroke-linejoin:miter;stroke-miterlimit:10.00000286;stroke-dasharray:none;stroke-opacity:1"
             id="path6420"
             inkscape:connector-curvature="0" />
          <path
             d="M 115.1144,203.7319 93.3111,214.6992"
             style="fill:none;stroke:#d4d4d4;stroke-width:0.6979;stroke-linecap:butt;stroke-linejoin:miter;stroke-miterlimit:10.00000286;stroke-dasharray:none;stroke-opacity:1"
             id="path6422"
             inkscape:connector-curvature="0" />
          <path
             d="M 116.907,204.9197 95.1038,215.8872"
             style="fill:none;stroke:#d4d4d4;stroke-width:0.6979;stroke-linecap:butt;stroke-linejoin:miter;stroke-miterlimit:10.00000286;stroke-dasharray:none;stroke-opacity:1"
             id="path6424"
             inkscape:connector-curvature="0" />
          <path
             d="M 118.6997,206.1077 96.8964,217.0749"
             style="fill:none;stroke:#d4d4d4;stroke-width:0.6979;stroke-linecap:butt;stroke-linejoin:miter;stroke-miterlimit:10.00000286;stroke-dasharray:none;stroke-opacity:1"
             id="path6426"
             inkscape:connector-curvature="0" />
          <path
             d="M 120.4923,207.2954 98.689,218.2629"
             style="fill:none;stroke:#d4d4d4;stroke-width:0.6979;stroke-linecap:butt;stroke-linejoin:miter;stroke-miterlimit:10.00000286;stroke-dasharray:none;stroke-opacity:1"
             id="path6428"
             inkscape:connector-curvature="0" />
          <path
             d="m 122.2849,208.4834 -21.8035,10.9675"
             style="fill:none;stroke:#d4d4d4;stroke-width:0.6979;stroke-linecap:butt;stroke-linejoin:miter;stroke-miterlimit:10.00000286;stroke-dasharray:none;stroke-opacity:1"
             id="path6430"
             inkscape:connector-curvature="0" />
          <path
             d="m 102.274,220.6386 21.8035,-10.9675"
             style="fill:none;stroke:#d4d4d4;stroke-width:0.6979;stroke-linecap:butt;stroke-linejoin:miter;stroke-miterlimit:10.00000286;stroke-dasharray:none;stroke-opacity:1"
             id="path6432"
             inkscape:connector-curvature="0" />
          <path
             d="m 125.8702,210.8591 -21.8036,10.9675"
             style="fill:none;stroke:#d4d4d4;stroke-width:0.6979;stroke-linecap:butt;stroke-linejoin:miter;stroke-miterlimit:10.00000286;stroke-dasharray:none;stroke-opacity:1"
             id="path6434"
             inkscape:connector-curvature="0" />
          <path
             d="m 105.8593,223.0146 21.8035,-10.9675"
             style="fill:none;stroke:#d4d4d4;stroke-width:0.6979;stroke-linecap:butt;stroke-linejoin:miter;stroke-miterlimit:10.00000286;stroke-dasharray:none;stroke-opacity:1"
             id="path6436"
             inkscape:connector-curvature="0" />
          <path
             d="m 107.6519,224.2023 21.8035,-10.9675"
             style="fill:none;stroke:#d4d4d4;stroke-width:0.6979;stroke-linecap:butt;stroke-linejoin:miter;stroke-miterlimit:10.00000286;stroke-dasharray:none;stroke-opacity:1"
             id="path6438"
             inkscape:connector-curvature="0" />
          <path
             d="m 131.2478,214.4228 -21.8033,10.9678"
             style="fill:none;stroke:#d4d4d4;stroke-width:0.6979;stroke-linecap:butt;stroke-linejoin:miter;stroke-miterlimit:10.00000286;stroke-dasharray:none;stroke-opacity:1"
             id="path6440"
             inkscape:connector-curvature="0" />
        </g>
        <path
           d="m 103.9402,162.7903 0,31.6655 -25.0132,12.5825 0,-31.8949 25.0132,-12.3531 z"
           style="fill:#e0bccd;fill-opacity:1;fill-rule:nonzero;stroke:none"
           id="path6442"
           inkscape:connector-curvature="0" />
        <path
           d="m 103.9402,162.7903 0,31.6655 32.5925,21.5981 0,-31.6656 -32.5925,-21.598 z"
           style="fill:#c59bb0;fill-opacity:1;fill-rule:nonzero;stroke:none"
           id="path6444"
           inkscape:connector-curvature="0" />
        <g
           id="g6446">
          <path
             d="m 117.377,229.5334 27.5017,-10.7124 -27.7452,-23.7452 -27.5023,10.7121 27.7458,23.7455 z"
             style="fill:#f7f8f9;fill-opacity:1;fill-rule:nonzero;stroke:none"
             id="path6448"
             inkscape:connector-curvature="0" />
          <path
             d="m 121.6701,201.1561 -23.9729,9.3373"
             style="fill:none;stroke:#d4d4d4;stroke-width:0.6979;stroke-linecap:butt;stroke-linejoin:miter;stroke-miterlimit:10.00000286;stroke-dasharray:none;stroke-opacity:1"
             id="path6450"
             inkscape:connector-curvature="0" />
          <path
             d="m 111.1329,201.3143 7.3683,-2.8701"
             style="fill:none;stroke:#d4d4d4;stroke-width:0.6979;stroke-linecap:butt;stroke-linejoin:miter;stroke-miterlimit:10.00000286;stroke-dasharray:none;stroke-opacity:1"
             id="path6452"
             inkscape:connector-curvature="0" />
          <path
             d="m 123.1963,202.462 -23.9729,9.3373"
             style="fill:none;stroke:#d4d4d4;stroke-width:0.6979;stroke-linecap:butt;stroke-linejoin:miter;stroke-miterlimit:10.00000286;stroke-dasharray:none;stroke-opacity:1"
             id="path6454"
             inkscape:connector-curvature="0" />
          <path
             d="m 124.7221,203.7682 -23.9726,9.3373"
             style="fill:none;stroke:#d4d4d4;stroke-width:0.6979;stroke-linecap:butt;stroke-linejoin:miter;stroke-miterlimit:10.00000286;stroke-dasharray:none;stroke-opacity:1"
             id="path6456"
             inkscape:connector-curvature="0" />
          <path
             d="m 102.2757,214.4115 23.9726,-9.3374"
             style="fill:none;stroke:#d4d4d4;stroke-width:0.6979;stroke-linecap:butt;stroke-linejoin:miter;stroke-miterlimit:10.00000286;stroke-dasharray:none;stroke-opacity:1"
             id="path6458"
             inkscape:connector-curvature="0" />
          <path
             d="m 127.7748,206.3803 -23.9729,9.3374"
             style="fill:none;stroke:#d4d4d4;stroke-width:0.6979;stroke-linecap:butt;stroke-linejoin:miter;stroke-miterlimit:10.00000286;stroke-dasharray:none;stroke-opacity:1"
             id="path6460"
             inkscape:connector-curvature="0" />
          <path
             d="m 129.3007,207.6866 -23.9726,9.3373"
             style="fill:none;stroke:#d4d4d4;stroke-width:0.6979;stroke-linecap:butt;stroke-linejoin:miter;stroke-miterlimit:10.00000286;stroke-dasharray:none;stroke-opacity:1"
             id="path6462"
             inkscape:connector-curvature="0" />
          <path
             d="m 130.8271,208.9928 -23.9729,9.337"
             style="fill:none;stroke:#d4d4d4;stroke-width:0.6979;stroke-linecap:butt;stroke-linejoin:miter;stroke-miterlimit:10.00000286;stroke-dasharray:none;stroke-opacity:1"
             id="path6464"
             inkscape:connector-curvature="0" />
          <path
             d="m 108.3804,219.636 23.9729,-9.3373"
             style="fill:none;stroke:#d4d4d4;stroke-width:0.6979;stroke-linecap:butt;stroke-linejoin:miter;stroke-miterlimit:10.00000286;stroke-dasharray:none;stroke-opacity:1"
             id="path6466"
             inkscape:connector-curvature="0" />
          <path
             d="m 133.8792,211.6049 -23.9726,9.337"
             style="fill:none;stroke:#d4d4d4;stroke-width:0.6979;stroke-linecap:butt;stroke-linejoin:miter;stroke-miterlimit:10.00000286;stroke-dasharray:none;stroke-opacity:1"
             id="path6468"
             inkscape:connector-curvature="0" />
          <path
             d="m 135.4028,212.9094 -23.97,9.3387"
             style="fill:none;stroke:#d4d4d4;stroke-width:0.6979;stroke-linecap:butt;stroke-linejoin:miter;stroke-miterlimit:10.00000286;stroke-dasharray:none;stroke-opacity:1"
             id="path6470"
             inkscape:connector-curvature="0" />
          <path
             d="m 136.929,214.2153 -23.9701,9.3387"
             style="fill:none;stroke:#d4d4d4;stroke-width:0.6979;stroke-linecap:butt;stroke-linejoin:miter;stroke-miterlimit:10.00000286;stroke-dasharray:none;stroke-opacity:1"
             id="path6472"
             inkscape:connector-curvature="0" />
          <path
             d="m 138.4551,215.5215 -23.9728,9.3371"
             style="fill:none;stroke:#d4d4d4;stroke-width:0.6979;stroke-linecap:butt;stroke-linejoin:miter;stroke-miterlimit:10.00000286;stroke-dasharray:none;stroke-opacity:1"
             id="path6474"
             inkscape:connector-curvature="0" />
          <path
             d="m 139.9816,216.8277 -23.9729,9.3373"
             style="fill:none;stroke:#d4d4d4;stroke-width:0.6979;stroke-linecap:butt;stroke-linejoin:miter;stroke-miterlimit:10.00000286;stroke-dasharray:none;stroke-opacity:1"
             id="path6476"
             inkscape:connector-curvature="0" />
        </g>
        <path
           d="m 144.8787,218.821 0,-31.6655 -27.7452,-23.7453 0,31.6656 27.7452,23.7452 z"
           style="fill:#f2d2cf;fill-opacity:1;fill-rule:nonzero;stroke:none"
           id="path6478"
           inkscape:connector-curvature="0" />
        <path
           d="m 89.6312,205.7879 0,-31.6655 27.5023,-10.7122 0,31.6656 -27.5023,10.7121 z"
           style="fill:#fee6db;fill-opacity:1;fill-rule:nonzero;stroke:none"
           id="path6480"
           inkscape:connector-curvature="0" />
      </g>
      <g
         id="g6482">
        <path
           d="m 192.8625,186.1036 -25.0135,-12.5825 32.5925,-21.598 25.0135,12.5824 -32.5925,21.5981 z"
           style="fill:#44355f;fill-opacity:1;fill-rule:nonzero;stroke:none"
           id="path6484"
           inkscape:connector-curvature="0" />
        <path
           d="m 187.005,187.0007 -27.502,-10.7124 27.7455,-23.7452 27.502,10.7121 -27.7455,23.7455 z"
           style="fill:#44355f;fill-opacity:1;fill-rule:nonzero;stroke:none"
           id="path6486"
           inkscape:connector-curvature="0" />
      </g>
      <g
         id="g6488">
        <path
           d="m 190.9276,187.2643 -25.0135,-12.5821 32.5925,-21.598 25.0134,12.5821 -32.5924,21.598 z"
           style="fill:#53bddb;fill-opacity:1;fill-rule:nonzero;stroke:none"
           id="path6490"
           inkscape:connector-curvature="0" />
        <path
           d="m 185.0698,188.1618 -27.5018,-10.7124 27.7453,-23.7453 27.5023,10.7122 -27.7458,23.7455 z"
           style="fill:#8bd6f2;fill-opacity:1;fill-rule:nonzero;stroke:none"
           id="path6492"
           inkscape:connector-curvature="0" />
      </g>
      <g
         id="g6494">
        <path
           d="m 179.7304,153.5043 c 5.3595,-3.0946 14.0494,-3.0946 19.4088,0 5.3598,3.0943 5.3598,8.1113 3e-4,11.2059 -5.3597,3.0943 -14.0493,3.0943 -19.4091,-3e-4 -5.3597,-3.0943 -5.3597,-8.1113 0,-11.2056 z m 2.4185,1.3963 0,0 c -4.024,2.3233 -4.024,6.09 0,8.413 4.0238,2.3233 10.548,2.3233 14.5721,3e-4 4.0238,-2.3233 4.0238,-6.09 -3e-4,-8.4133 -4.0238,-2.3232 -10.548,-2.3232 -14.5718,0"
           style="fill:#4d4d4e;fill-opacity:1;fill-rule:nonzero;stroke:none"
           id="path6496"
           inkscape:connector-curvature="0" />
        <path
           d="m 199.4068,155.1115 -3.0515,-1.7617 7.1334,-4.1185 3.0515,1.7618 -7.1334,4.1184 z"
           style="fill:#4d4d4e;fill-opacity:1;fill-rule:nonzero;stroke:none"
           id="path6498"
           inkscape:connector-curvature="0" />
        <path
           d="m 204.3624,152.987 -4.3271,-2.4982 11.4057,-6.5852 c 1.3799,-0.7965 3.4671,-0.8833 4.6619,-0.1933 l 0,0 c 1.1948,0.69 1.0451,1.895 -0.3348,2.6915 l -11.4057,6.5852 z"
           style="fill:#4d4d4e;fill-opacity:1;fill-rule:nonzero;stroke:none"
           id="path6500"
           inkscape:connector-curvature="0" />
      </g>
      <path
         d="m 181.3005,159.872 c 5.3595,-3.0943 14.0494,-3.0943 19.4089,3e-4 5.3597,3.0943 5.3597,8.1114 2e-4,11.2057 -5.3597,3.0945 -14.0493,3.0945 -19.4091,0 -5.3597,-3.0943 -5.3597,-8.1114 0,-11.206 z m 2.4186,1.3964 0,0 c -4.0241,2.3233 -4.0241,6.0899 0,8.4132 4.024,2.3233 10.548,2.3233 14.572,0 4.0238,-2.3233 4.0238,-6.0899 0,-8.4132 -4.024,-2.323 -10.5483,-2.323 -14.572,0"
         style="fill:#44355f;fill-opacity:1;fill-rule:nonzero;stroke:none"
         id="path6502"
         inkscape:connector-curvature="0" />
      <path
         d="m 181.3005,161.4424 c 5.3595,-3.0946 14.0494,-3.0946 19.4089,0 5.3597,3.0943 5.3597,8.1114 2e-4,11.2057 -5.3597,3.0945 -14.0493,3.0945 -19.4091,0 -5.3597,-3.0943 -5.3597,-8.1114 0,-11.2057 z m 2.4186,1.3961 0,0 c -4.0241,2.3233 -4.0241,6.0899 0,8.4132 4.024,2.3233 10.548,2.3233 14.572,0 4.0238,-2.323 4.0238,-6.0899 0,-8.4132 -4.024,-2.323 -10.5483,-2.323 -14.572,0"
         style="fill:#725c94;fill-opacity:1;fill-rule:nonzero;stroke:none"
         id="path6504"
         inkscape:connector-curvature="0" />
      <path
         d="m 197.9254,161.2879 0,-1.5701 7.1334,-4.1184 3.0515,1.7617 -10.1849,3.9268 z"
         style="fill:#1ab59d;fill-opacity:1;fill-rule:nonzero;stroke:none"
         id="path6506"
         inkscape:connector-curvature="0" />
      <path
         d="m 200.9769,163.0497 -3.0515,-1.7618 7.1334,-4.1184 3.0515,1.7617 -7.1334,4.1185 z"
         style="fill:#62c4b0;fill-opacity:1;fill-rule:nonzero;stroke:none"
         id="path6508"
         inkscape:connector-curvature="0" />
      <path
         d="m 218.4797,152.7418 -2.6243,0.8841 -9.9229,5.7291 -2.6096,-1.5066 -1.7175,0.5785 0,-1.5701 11.4057,-6.5851 c 1.38,-0.7969 3.4671,-0.8833 4.6619,-0.1934 0.5139,0.2968 0.7776,0.6891 0.8031,1.103 l 0.004,0.001 0,1.5591 z"
         style="fill:#44355f;fill-opacity:1;fill-rule:nonzero;stroke:none"
         id="path6510"
         inkscape:connector-curvature="0" />
      <path
         d="m 205.9325,160.9251 -4.3271,-2.4982 11.406,-6.5851 c 1.3797,-0.7966 3.4668,-0.8833 4.6616,-0.1934 1.1948,0.69 1.0451,1.895 -0.3348,2.6915 l -11.4057,6.5852 z"
         style="fill:#725c94;fill-opacity:1;fill-rule:nonzero;stroke:none"
         id="path6512"
         inkscape:connector-curvature="0" />
    </g>
  </g>
</svg>
