<?xml version="1.0" encoding="UTF-8" standalone="no"?>
<!-- Created with Inkscape (http://www.inkscape.org/) -->

<svg
   xmlns:dc="http://purl.org/dc/elements/1.1/"
   xmlns:cc="http://creativecommons.org/ns#"
   xmlns:rdf="http://www.w3.org/1999/02/22-rdf-syntax-ns#"
   xmlns:svg="http://www.w3.org/2000/svg"
   xmlns="http://www.w3.org/2000/svg"
   xmlns:sodipodi="http://sodipodi.sourceforge.net/DTD/sodipodi-0.dtd"
   xmlns:inkscape="http://www.inkscape.org/namespaces/inkscape"
   width="30.821146mm"
   height="40.739471mm"
   viewBox="0 0 109.20879 144.35246"
   id="svg13409"
   version="1.1"
   inkscape:version="0.91 r13725"
   sodipodi:docname="ventajas-2.svg">
  <defs
     id="defs13411">
    <clipPath
       id="clipPath5160"
       clipPathUnits="userSpaceOnUse">
      <path
         inkscape:connector-curvature="0"
         id="path5162"
         d="m 473.3895,314.5255 -0.1738,-61.0963 36.3861,-20.4831 0.1724,61.0965 -36.3847,20.4829 z" />
    </clipPath>
    <clipPath
       id="clipPath3634"
       clipPathUnits="userSpaceOnUse">
      <path
         inkscape:connector-curvature="0"
         id="path3636"
         d="m 102.9416,209.882 -0.1738,-61.0963 36.3861,-20.4831 0.1723,61.0965 -36.3846,20.4829 z" />
    </clipPath>
  </defs>
  <sodipodi:namedview
     id="base"
     pagecolor="#ffffff"
     bordercolor="#666666"
     borderopacity="1.0"
     inkscape:pageopacity="0.0"
     inkscape:pageshadow="2"
     inkscape:zoom="1.979899"
     inkscape:cx="102.27321"
     inkscape:cy="75.619249"
     inkscape:document-units="px"
     inkscape:current-layer="layer1"
     showgrid="false"
     fit-margin-top="0"
     fit-margin-left="0"
     fit-margin-right="0"
     fit-margin-bottom="0"
     inkscape:window-width="1366"
     inkscape:window-height="705"
     inkscape:window-x="-8"
     inkscape:window-y="-8"
     inkscape:window-maximized="1" />
  <metadata
     id="metadata13414">
    <rdf:RDF>
      <cc:Work
         rdf:about="">
        <dc:format>image/svg+xml</dc:format>
        <dc:type
           rdf:resource="http://purl.org/dc/dcmitype/StillImage" />
        <dc:title></dc:title>
      </cc:Work>
    </rdf:RDF>
  </metadata>
  <g
     inkscape:label="Capa 1"
     inkscape:groupmode="layer"
     id="layer1"
     transform="translate(-166.92625,-252.28692)">
    <g
       transform="matrix(0.51351795,0,0,-0.51351795,166.92625,396.63938)"
       inkscape:label="panaderito"
       id="g3502">
      <g
         id="g3504">
        <g
           id="g3506">
          <g
             id="g3508">
            <path
               inkscape:connector-curvature="0"
               id="path3510"
               style="fill:#bdbdbf;fill-opacity:1;fill-rule:nonzero;stroke:none"
               d="M 212.6679,77.6242 128.2493,28.5661 43.2788,77.6237 127.6971,126.6823 212.6679,77.6242 Z" />
          </g>
        </g>
        <g
           id="g3512">
          <path
             inkscape:connector-curvature="0"
             id="path3514"
             style="fill:#482e2e;fill-opacity:1;fill-rule:nonzero;stroke:none"
             d="m 108.2134,67.0246 33.1827,19.2853 0.1749,18.46 -33.1841,-19.2838 -0.1735,-18.4615 z" />
        </g>
        <g
           id="g3516">
          <path
             inkscape:connector-curvature="0"
             id="path3518"
             style="fill:#bf3d39;fill-opacity:1;fill-rule:nonzero;stroke:none"
             d="M 108.3869,85.4861 141.571,104.7699 123.1271,115.105 89.9442,95.8198 108.3869,85.4861 Z" />
        </g>
        <g
           id="g3520">
          <path
             inkscape:connector-curvature="0"
             id="path3522"
             style="fill:#e24b3f;fill-opacity:1;fill-rule:nonzero;stroke:none"
             d="M 89.9442,95.8198 89.7693,77.3583 108.2134,67.0246 108.3869,85.4861 89.9442,95.8198 Z" />
        </g>
        <g
           id="g3524">
          <path
             inkscape:connector-curvature="0"
             id="path3526"
             style="fill:#482e2e;fill-opacity:1;fill-rule:nonzero;stroke:none"
             d="m 130.6789,54.5967 33.1826,19.2852 0.1752,18.4601 -33.1841,-19.2838 -0.1737,-18.4615 z" />
        </g>
        <g
           id="g3528">
          <path
             inkscape:connector-curvature="0"
             id="path3530"
             style="fill:#bf3d39;fill-opacity:1;fill-rule:nonzero;stroke:none"
             d="m 130.8526,73.0582 33.1841,19.2838 -18.4428,10.3351 -33.184,-19.2852 18.4427,-10.3337 z" />
        </g>
        <g
           id="g3532">
          <path
             inkscape:connector-curvature="0"
             id="path3534"
             style="fill:#e24b3f;fill-opacity:1;fill-rule:nonzero;stroke:none"
             d="m 112.4099,83.3919 -0.1749,-18.4615 18.4439,-10.3337 0.1737,18.4615 -18.4427,10.3337 z" />
        </g>
        <g
           id="g3536">
          <g
             id="g3538">
            <path
               inkscape:connector-curvature="0"
               id="path3540"
               style="fill:#fcbc85;fill-opacity:1;fill-rule:nonzero;stroke:none"
               d="m 101.3238,145.9579 11.3593,6.5653 0.1049,39.3982 -11.3593,-6.5653 -0.1049,-39.3982 z" />
          </g>
          <g
             id="g3542">
            <path
               inkscape:connector-curvature="0"
               id="path3544"
               style="fill:#dedfe1;fill-opacity:1;fill-rule:nonzero;stroke:none"
               d="m 101.4287,185.3561 11.3593,6.5653 -11.0781,6.2059 -11.3578,-6.5653 11.0766,-6.2059 z" />
          </g>
          <g
             id="g3546">
            <path
               inkscape:connector-curvature="0"
               id="path3548"
               style="fill:#fdcd9c;fill-opacity:1;fill-rule:nonzero;stroke:none"
               d="m 90.3521,191.562 -0.1049,-39.3982 11.0766,-6.2059 0.1049,39.3982 -11.0766,6.2059 z" />
          </g>
        </g>
        <g
           id="g3550">
          <path
             inkscape:connector-curvature="0"
             id="path3552"
             style="fill:#cfd2d3;fill-opacity:1;fill-rule:nonzero;stroke:none"
             d="m 105.1637,154.0672 11.7669,6.8383 0.0646,51.0736 -11.7669,-6.8386 -0.0646,-51.0733 z" />
        </g>
        <path
           inkscape:connector-curvature="0"
           id="path3554"
           style="fill:#482e2e;fill-opacity:1;fill-rule:nonzero;stroke:none"
           d="m 99.2149,208.59 c -0.144,0.0739 -0.288,0.1454 -0.4309,0.2114 -0.0162,0.008 -0.0337,0.0162 -0.0337,0.0162 -0.1656,0.0754 -0.3121,0.1372 -0.4575,0.1978 -0.1562,0.0632 -0.311,0.1225 -0.4644,0.1763 -0.0391,0.0134 -0.0768,0.0295 -0.1145,0.0431 -0.191,0.0647 -0.3793,0.1225 -0.5663,0.1735 -0.1106,0.0309 -0.2194,0.0564 -0.3286,0.0822 -0.051,0.0119 -0.1023,0.0255 -0.1519,0.0377 -0.1602,0.0335 -0.3192,0.0632 -0.4751,0.0873 l -0.0176,0.003 c -0.1426,0.0215 -0.2854,0.0377 -0.4255,0.051 -0.047,0.004 -0.0941,0.007 -0.1397,0.0108 -0.1023,0.007 -0.2032,0.0121 -0.303,0.0161 -0.0442,10e-4 -0.0888,10e-4 -0.133,0.003 -0.1037,0 -0.2075,-0.001 -0.3095,-0.005 -0.0352,-0.002 -0.0714,-0.002 -0.1066,-0.004 -0.1332,-0.007 -0.2636,-0.019 -0.3929,-0.0352 -0.0269,-0.002 -0.0538,-0.008 -0.0822,-0.0107 -0.1034,-0.0148 -0.2086,-0.0323 -0.3109,-0.051 -0.0349,-0.007 -0.0701,-0.0151 -0.1049,-0.0219 -0.1171,-0.0252 -0.2328,-0.0536 -0.3473,-0.0859 l -0.0147,-0.003 c -0.1279,-0.0377 -0.2463,-0.078 -0.3623,-0.121 -0.032,-0.0108 -0.0629,-0.023 -0.0941,-0.0349 -0.0927,-0.0377 -0.1857,-0.0768 -0.2772,-0.1188 -0.0241,-0.0105 -0.0485,-0.0212 -0.0726,-0.0334 -0.1171,-0.0564 -0.2327,-0.1171 -0.3458,-0.1817 l 11.7669,6.8371 c 0.019,0.0119 0.0377,0.023 0.0377,0.023 0.1145,0.0629 0.2115,0.1128 0.3084,0.1599 0.0241,0.0122 0.0485,0.0218 0.0726,0.0337 0.055,0.0244 0.1091,0.051 0.1655,0.074 0.0363,0.0161 0.0754,0.0298 0.1117,0.0431 0.0309,0.0122 0.0621,0.0255 0.0941,0.0363 0.1145,0.043 0.2302,0.0822 0.3487,0.117 l 0.004,0 0.0244,0.007 c 0.1142,0.0323 0.2302,0.0607 0.3473,0.0862 0.0348,0.007 0.07,0.0133 0.1048,0.0201 0.0363,0.008 0.0729,0.0162 0.1092,0.023 0.0672,0.0108 0.1343,0.0201 0.2018,0.0295 0.0281,0.003 0.0553,0.008 0.0819,0.0107 0.116,0.0151 0.233,0.0258 0.3512,0.0338 0.0136,0.001 0.0272,0 0.042,0.001 0.0351,0.001 0.07,0.002 0.1063,0.004 0.1023,0.004 0.2046,0.005 0.3095,0.004 0.0445,0 0.0888,-0.001 0.1333,-0.001 0,0 0.0686,-0.001 0.1034,-0.003 0.0661,-0.003 0.1321,-0.009 0.1993,-0.0148 0.0459,-0.003 0.093,-0.005 0.14,-0.009 0.1401,-0.0136 0.2826,-0.0298 0.4252,-0.0513 l 0.0111,-0.002 0.008,-0.001 c 0.1562,-0.0244 0.3135,-0.0538 0.4737,-0.0887 0.0499,-0.0111 0.1023,-0.0244 0.1522,-0.0366 0.0998,-0.0229 0.1979,-0.0456 0.2988,-0.0725 l 0.0297,-0.009 c 0.1854,-0.0513 0.3753,-0.1091 0.5664,-0.1738 0.0377,-0.0136 0.0754,-0.0294 0.1131,-0.0431 0.1548,-0.0549 0.3095,-0.1131 0.4657,-0.1763 0.0202,-0.009 0.0403,-0.0147 0.0607,-0.0241 0.1264,-0.0524 0.2528,-0.1077 0.3793,-0.1655 0,0 0.0351,-0.0162 0.0513,-0.0244 0.1426,-0.0672 0.2866,-0.1372 0.4306,-0.2112 0.0416,-0.0215 0.0836,-0.0431 0.1253,-0.0646 0.1612,-0.0848 0.3217,-0.1723 0.4844,-0.265 l 5.4037,-3.1198 -11.7669,-6.8386 -5.4037,3.1198 c -0.1616,0.0944 -0.3232,0.1803 -0.4847,0.265 -0.0417,0.0216 -0.0834,0.0431 -0.125,0.0647" />
        <g
           id="g3556">
          <path
             inkscape:connector-curvature="0"
             id="path3558"
             style="fill:#672d2c;fill-opacity:1;fill-rule:nonzero;stroke:none"
             d="m 99.8246,208.2603 c -5.7997,3.3486 -10.5182,0.6607 -10.5372,-6.0052 l -0.0295,-39.005 15.9058,-9.1829 0.0646,51.0733 -5.4037,3.1198 z" />
        </g>
        <g
           id="g3560">
          <g
             id="g3562">
            <path
               inkscape:connector-curvature="0"
               id="path3564"
               style="fill:#fcbc85;fill-opacity:1;fill-rule:nonzero;stroke:none"
               d="m 120.7165,92.922 18.2115,10.525 0.1681,25.4236 -18.2112,-10.5247 -0.1684,-25.4239 z" />
          </g>
          <g
             id="g3566">
            <path
               inkscape:connector-curvature="0"
               id="path3568"
               style="fill:#d2b69a;fill-opacity:1;fill-rule:nonzero;stroke:none"
               d="m 120.8849,118.3459 18.2112,10.5247 -17.7588,9.9502 -18.2115,-10.5247 17.7591,-9.9502 z" />
          </g>
          <g
             id="g3570">
            <path
               inkscape:connector-curvature="0"
               id="path3572"
               style="fill:#fdcd9c;fill-opacity:1;fill-rule:nonzero;stroke:none"
               d="m 103.1258,128.2961 -0.1681,-25.424 17.7588,-9.9501 0.1684,25.4239 -17.7591,9.9502 z" />
          </g>
        </g>
        <g
           id="g3574">
          <g
             id="g3576">
            <path
               inkscape:connector-curvature="0"
               id="path3578"
               style="fill:#fcbc85;fill-opacity:1;fill-rule:nonzero;stroke:none"
               d="m 143.407,80.7823 18.2098,10.5248 0.1681,25.4236 -18.2098,-10.5247 -0.1681,-25.4237 z" />
          </g>
          <g
             id="g3580">
            <path
               inkscape:connector-curvature="0"
               id="path3582"
               style="fill:#d2b69a;fill-opacity:1;fill-rule:nonzero;stroke:none"
               d="m 143.5751,106.206 18.2098,10.5247 -17.7588,9.9516 -18.2112,-10.525 17.7602,-9.9513 z" />
          </g>
          <g
             id="g3584">
            <path
               inkscape:connector-curvature="0"
               id="path3586"
               style="fill:#fdcd9c;fill-opacity:1;fill-rule:nonzero;stroke:none"
               d="m 125.8149,116.1573 -0.1684,-25.4237 17.7605,-9.9513 0.1681,25.4237 -17.7602,9.9513 z" />
          </g>
        </g>
        <g
           id="g3588">
          <g
             id="g3590">
            <path
               inkscape:connector-curvature="0"
               id="path3592"
               style="fill:#29302f;fill-opacity:1;fill-rule:nonzero;stroke:none"
               d="m 120.7165,117.7778 18.2115,10.5248 0.1681,25.4239 -18.2112,-10.525 -0.1684,-25.4237 z" />
          </g>
          <g
             id="g3594">
            <path
               inkscape:connector-curvature="0"
               id="path3596"
               style="fill:#dedfe1;fill-opacity:1;fill-rule:nonzero;stroke:none"
               d="m 120.8849,143.2015 18.2112,10.525 -17.7588,9.9502 -18.2115,-10.525 17.7591,-9.9502 z" />
          </g>
          <g
             id="g3598">
            <path
               inkscape:connector-curvature="0"
               id="path3600"
               style="fill:#253d39;fill-opacity:1;fill-rule:nonzero;stroke:none"
               d="m 103.1258,153.1517 -0.1681,-25.4237 17.7588,-9.9502 0.1684,25.4237 -17.7591,9.9502 z" />
          </g>
        </g>
        <g
           id="g3602">
          <g
             id="g3604">
            <path
               inkscape:connector-curvature="0"
               id="path3606"
               style="fill:#29302f;fill-opacity:1;fill-rule:nonzero;stroke:none"
               d="m 143.407,105.6379 18.2098,10.5247 0.1681,25.424 -18.2098,-10.5248 -0.1681,-25.4239 z" />
          </g>
          <g
             id="g3608">
            <path
               inkscape:connector-curvature="0"
               id="path3610"
               style="fill:#dedfe1;fill-opacity:1;fill-rule:nonzero;stroke:none"
               d="m 143.5751,131.0618 18.2098,10.5248 -17.7588,9.9513 -18.2112,-10.5248 17.7602,-9.9513 z" />
          </g>
          <g
             id="g3612">
            <path
               inkscape:connector-curvature="0"
               id="path3614"
               style="fill:#253d39;fill-opacity:1;fill-rule:nonzero;stroke:none"
               d="m 125.8149,141.0131 -0.1684,-25.4236 17.7605,-9.9516 0.1681,25.4239 -17.7602,9.9513 z" />
          </g>
        </g>
        <g
           id="g3616">
          <path
             inkscape:connector-curvature="0"
             id="path3618"
             style="fill:#482e2e;fill-opacity:1;fill-rule:nonzero;stroke:none"
             d="m 139.1539,128.3026 25.4681,14.6568 0.1738,61.0963 -25.4696,-14.6566 -0.1723,-61.0965 z" />
        </g>
        <g
           id="g3620">
          <path
             inkscape:connector-curvature="0"
             id="path3622"
             style="fill:#482e2e;fill-opacity:1;fill-rule:nonzero;stroke:none"
             d="m 139.3262,189.3991 25.4696,14.6566 -36.3861,20.4845 -25.4681,-14.6582 36.3846,-20.4829 z" />
        </g>
        <g
           id="g3624">
          <path
             inkscape:connector-curvature="0"
             id="path3626"
             style="fill:#fcbc85;fill-opacity:1;fill-rule:nonzero;stroke:none"
             d="m 131.2988,193.9178 10.7368,6.1787 -15.3386,8.6352 -10.7362,-6.1793 15.338,-8.6346 z" />
        </g>
        <path
           inkscape:connector-curvature="0"
           id="path3628"
           style="fill:#672d2c;fill-opacity:1;fill-rule:nonzero;stroke:none"
           d="m 102.9416,209.882 -0.1738,-61.0963 36.3861,-20.4831 0.1723,61.0965 -36.3846,20.4829 z" />
        <g
           id="g3630">
          <g
             clip-path="url(#clipPath3634)"
             id="g3632">
            <g
               id="g3638">
              <path
                 inkscape:connector-curvature="0"
                 id="path3640"
                 style="fill:#ffffff;fill-opacity:1;fill-rule:evenodd;stroke:none"
                 d="m 108.3526,191.7896 2.7593,0 0,16.77 -2.7593,0 0,-16.77 z" />
              <path
                 inkscape:connector-curvature="0"
                 id="path3642"
                 style="fill:#ffffff;fill-opacity:1;fill-rule:evenodd;stroke:none"
                 d="m 131.1106,179.1567 2.7592,0 0,16.77 -2.7592,0 0,-16.77 z" />
              <path
                 inkscape:connector-curvature="0"
                 id="path3644"
                 style="fill:#ffffff;fill-opacity:1;fill-rule:evenodd;stroke:none"
                 d="m 102.1887,177.2932 8.4436,-4.875 -1.3125,-2.2734 -8.4438,4.875 1.3127,2.2734 z" />
              <path
                 inkscape:connector-curvature="0"
                 id="path3646"
                 style="fill:#ffffff;fill-opacity:1;fill-rule:evenodd;stroke:none"
                 d="m 132.9389,163.512 8.4436,-4.875 -1.3125,-2.2734 -8.4438,4.875 1.3127,2.2734 z" />
            </g>
          </g>
        </g>
        <g
           id="g3648">
          <g
             id="g3650">
            <path
               inkscape:connector-curvature="0"
               id="path3652"
               style="fill:#fcbc85;fill-opacity:1;fill-rule:nonzero;stroke:none"
               d="m 160.1872,118.8935 11.3582,6.5639 0.1049,39.3982 -11.3582,-6.5639 -0.1049,-39.3982 z" />
          </g>
          <g
             id="g3654">
            <path
               inkscape:connector-curvature="0"
               id="path3656"
               style="fill:#dedfe1;fill-opacity:1;fill-rule:nonzero;stroke:none"
               d="m 160.2921,158.2917 11.3582,6.5639 -11.0767,6.207 -11.3593,-6.565 11.0778,-6.2059 z" />
          </g>
          <g
             id="g3658">
            <path
               inkscape:connector-curvature="0"
               id="path3660"
               style="fill:#fdcd9c;fill-opacity:1;fill-rule:nonzero;stroke:none"
               d="m 149.2143,164.4976 -0.1049,-39.3982 11.0778,-6.2059 0.1049,39.3982 -11.0778,6.2059 z" />
          </g>
        </g>
        <path
           inkscape:connector-curvature="0"
           id="path3662"
           style="fill:#482e2e;fill-opacity:1;fill-rule:nonzero;stroke:none"
           d="m 162.4122,167.3844 c -0.007,0.1347 -0.0151,0.2704 -0.0256,0.4065 -0.005,0.0686 -0.0107,0.1386 -0.0161,0.2072 -0.0122,0.1347 -0.0258,0.2693 -0.042,0.4039 -0.007,0.0647 -0.0133,0.129 -0.0215,0.1937 -0.0119,0.0943 -0.0269,0.1885 -0.0403,0.284 -0.019,0.14 -0.0402,0.2815 -0.0632,0.424 -0.0161,0.0942 -0.0337,0.1897 -0.0513,0.2852 -0.0241,0.1361 -0.051,0.2733 -0.0793,0.4105 -0.0216,0.1091 -0.0457,0.2194 -0.0701,0.3285 -0.0198,0.0916 -0.0402,0.1843 -0.0632,0.2758 -0.0283,0.1199 -0.0578,0.2395 -0.0887,0.3609 -0.0244,0.0901 -0.0471,0.1803 -0.0714,0.2704 -0.0389,0.1454 -0.0808,0.2908 -0.1239,0.4348 -0.0162,0.055 -0.0309,0.1089 -0.0471,0.1627 -0.0603,0.1993 -0.1236,0.3972 -0.1896,0.595 -0.0969,0.2934 -0.2032,0.584 -0.3135,0.8762 -0.0272,0.0712 -0.0553,0.144 -0.0836,0.2166 -0.097,0.2463 -0.1965,0.4926 -0.3016,0.7376 -0.0159,0.0362 -0.0309,0.0739 -0.0471,0.1116 -0.1182,0.2708 -0.2421,0.5398 -0.3699,0.8076 -0.0338,0.07 -0.0675,0.1401 -0.1023,0.2101 -0.1038,0.2112 -0.2098,0.4212 -0.3204,0.631 -0.0337,0.0646 -0.0674,0.1292 -0.1009,0.1939 -0.1414,0.2625 -0.2854,0.5235 -0.4345,0.7806 -0.0287,0.0485 -0.0581,0.097 -0.0876,0.1454 -0.1321,0.2248 -0.2682,0.4468 -0.4065,0.6662 -0.0405,0.0646 -0.0808,0.1292 -0.1227,0.1925 -0.1721,0.2692 -0.3498,0.5343 -0.5315,0.7939 -0.027,0.0392 -0.0565,0.0783 -0.0834,0.1174 -0.1899,0.269 -0.3849,0.5326 -0.5842,0.7926 -0.0309,0.0391 -0.0607,0.0807 -0.0916,0.1199 -0.0632,0.0805 -0.1264,0.1587 -0.1896,0.2381 -0.0808,0.0995 -0.159,0.1993 -0.2409,0.2973 -0.0647,0.0794 -0.1321,0.1576 -0.1993,0.237 -0.078,0.0916 -0.1562,0.1828 -0.2342,0.2733 -0.1627,0.1856 -0.3282,0.3688 -0.4952,0.5476 0,0 -0.0175,0.0187 -0.0258,0.0284 -0.176,0.1885 -0.3552,0.3702 -0.5369,0.5505 -0.1131,0.1131 -0.2287,0.2233 -0.3444,0.3336 -0.0337,0.0312 -0.066,0.0635 -0.0983,0.0944 -0.1534,0.1426 -0.3081,0.2823 -0.4629,0.4184 -0.0431,0.0377 -0.0862,0.0728 -0.1293,0.1102 -0.1145,0.0984 -0.2287,0.1954 -0.3444,0.2909 -0.0581,0.047 -0.1173,0.093 -0.1752,0.14 -0.1023,0.0819 -0.2058,0.1627 -0.3092,0.2424 -0.0621,0.0482 -0.1253,0.0941 -0.1874,0.1411 -0.1037,0.0769 -0.2072,0.1508 -0.3107,0.2248 -0.0621,0.0431 -0.1239,0.0873 -0.1859,0.1304 -0.1117,0.0768 -0.2248,0.1508 -0.3379,0.2237 -0.0539,0.0363 -0.1075,0.0711 -0.1613,0.1063 -0.167,0.1049 -0.3354,0.2072 -0.5049,0.3056 l -5.4022,3.1195 11.7669,6.8371 5.4025,-3.1183 c 0.1695,-0.0981 0.3379,-0.2005 0.5046,-0.3056 0.0538,-0.0349 0.1077,-0.0712 0.1616,-0.1063 0.1131,-0.0726 0.2262,-0.1466 0.3378,-0.2234 0.0618,-0.0431 0.1236,-0.0873 0.1857,-0.1307 0.1038,-0.074 0.2072,-0.1494 0.311,-0.2248 0.0621,-0.047 0.125,-0.0941 0.1871,-0.1411 0.1037,-0.0794 0.2072,-0.1602 0.3095,-0.2421 0.0578,-0.0473 0.1171,-0.093 0.1749,-0.14 0.1157,-0.0958 0.2302,-0.1925 0.3447,-0.2923 0.0431,-0.0363 0.0859,-0.0711 0.129,-0.1088 0.155,-0.1361 0.3095,-0.2761 0.4632,-0.4187 0.0323,-0.0309 0.0632,-0.0618 0.0955,-0.0927 0.102,-0.0958 0.2044,-0.1928 0.3041,-0.2908 0.0148,-0.0148 0.0295,-0.0309 0.0295,-0.0309 0.1953,-0.1939 0.3742,-0.377 0.5505,-0.5641 0,0 0.0176,-0.0202 0.0269,-0.0295 0.167,-0.1792 0.3311,-0.3609 0.4938,-0.5465 0.0151,-0.0173 0.0312,-0.0338 0.0474,-0.0525 0.0632,-0.0725 0.1238,-0.1479 0.1871,-0.2208 0.0671,-0.0794 0.1332,-0.1573 0.199,-0.2367 0.0822,-0.0983 0.1604,-0.1978 0.2398,-0.2976 0.0646,-0.0794 0.1275,-0.1573 0.191,-0.2381 0.0108,-0.0148 0.023,-0.0295 0.0349,-0.0445 0.019,-0.0241 0.0363,-0.0511 0.0567,-0.0766 0.199,-0.2585 0.3943,-0.5235 0.5839,-0.7914 0.019,-0.0269 0.0391,-0.0524 0.0578,-0.0794 l 0.0258,-0.0377 c 0.1817,-0.261 0.3592,-0.525 0.5315,-0.7942 0.0162,-0.0256 0.0338,-0.0497 0.0511,-0.0752 0.0243,-0.0391 0.0473,-0.0796 0.0714,-0.117 0.1386,-0.2209 0.2747,-0.4428 0.4065,-0.6665 0.0215,-0.0348 0.0445,-0.07 0.0646,-0.1048 0.008,-0.0136 0.0147,-0.027 0.0147,-0.027 0.1577,-0.2718 0.3017,-0.5317 0.4428,-0.794 0.0108,-0.0218 0.0244,-0.0416 0.0352,-0.0635 0.0226,-0.0428 0.0431,-0.0873 0.0657,-0.1303 0.1106,-0.2101 0.2169,-0.4199 0.3203,-0.6313 0.0216,-0.0445 0.046,-0.0873 0.0661,-0.1318 0.0133,-0.0255 0.0244,-0.0525 0.0363,-0.0794 0.1281,-0.2665 0.2517,-0.5357 0.3702,-0.8062 l 0.0108,-0.0258 c 0.0133,-0.0294 0.024,-0.0589 0.0362,-0.0873 0.1049,-0.2449 0.2047,-0.4898 0.3002,-0.7347 0.0162,-0.0406 0.0338,-0.0797 0.0496,-0.1199 0.0122,-0.0338 0.023,-0.0661 0.0352,-0.0995 0.1103,-0.2909 0.2166,-0.5828 0.3135,-0.8751 l 0.004,-0.0107 c 0.0658,-0.1979 0.1279,-0.3915 0.1857,-0.584 0.0162,-0.0538 0.0309,-0.1077 0.0471,-0.163 0.0323,-0.1088 0.0657,-0.2194 0.0955,-0.3296 0.0108,-0.0349 0.019,-0.0701 0.0283,-0.1049 0.0244,-0.0905 0.0471,-0.1803 0.0701,-0.2707 0.0323,-0.1197 0.0618,-0.241 0.0901,-0.3606 0.023,-0.093 0.0431,-0.1845 0.0632,-0.2758 0.0148,-0.0635 0.0309,-0.1281 0.0442,-0.1928 0.01,-0.0456 0.0165,-0.0901 0.0258,-0.1357 0.0284,-0.1372 0.055,-0.2747 0.0794,-0.4119 0.0176,-0.0941 0.0349,-0.1897 0.051,-0.2841 0.023,-0.1425 0.0445,-0.2837 0.0632,-0.4237 0.01,-0.0675 0.0219,-0.1333 0.0312,-0.2007 0.003,-0.027 0.005,-0.055 0.009,-0.0834 0.008,-0.0646 0.0147,-0.1292 0.0218,-0.1939 0.0159,-0.1346 0.0292,-0.2692 0.0414,-0.4036 0.005,-0.0686 0.0108,-0.1386 0.0161,-0.2072 0.0108,-0.1361 0.019,-0.2721 0.0256,-0.4065 0.003,-0.0607 0.007,-0.1225 0.008,-0.1831 0.008,-0.1939 0.0122,-0.3864 0.0107,-0.5774 l -0.0297,-39.0062 -11.7669,-6.8386 0.0309,39.0065 c 0,0.191 -0.004,0.3835 -0.0122,0.5774 -0.001,0.0604 -0.005,0.1221 -0.008,0.1828" />
        <g
           id="g3664">
          <path
             inkscape:connector-curvature="0"
             id="path3666"
             style="fill:#672d2c;fill-opacity:1;fill-rule:nonzero;stroke:none"
             d="m 146.5617,187.8729 -0.0647,-51.0735 15.9044,-9.1817 0.0309,39.0065 c 0.0187,6.6659 -4.669,14.7818 -10.4684,18.1304 l -5.4022,3.1183 z" />
        </g>
        <g
           id="g3668">
          <path
             inkscape:connector-curvature="0"
             id="path3670"
             style="fill:#957757;fill-opacity:1;fill-rule:nonzero;stroke:none"
             d="m 135.8926,196.6683 10.533,6.0619 0.0714,9.6026 -10.5329,-6.0619 -0.0715,-9.6026 z" />
        </g>
        <g
           id="g3672">
          <path
             inkscape:connector-curvature="0"
             id="path3674"
             style="fill:#dedfe1;fill-opacity:1;fill-rule:nonzero;stroke:none"
             d="m 135.9641,206.2709 10.5329,6.0619 -15.0482,8.4725 -10.533,-6.0619 15.0483,-8.4725 z" />
        </g>
        <g
           id="g3676">
          <path
             inkscape:connector-curvature="0"
             id="path3678"
             style="fill:#bd9764;fill-opacity:1;fill-rule:nonzero;stroke:none"
             d="m 120.9158,214.7434 -0.0715,-9.6029 15.0483,-8.4722 0.0715,9.6026 -15.0483,8.4725 z" />
        </g>
        <g
           id="g3680">
          <path
             inkscape:connector-curvature="0"
             id="path3682"
             style="fill:#fcbc85;fill-opacity:1;fill-rule:nonzero;stroke:none"
             d="m 141.645,196.6683 27.2758,15.6968 0.1842,46.8032 -27.2741,-15.6969 -0.1859,-46.8031 z" />
        </g>
        <g
           id="g3684">
          <path
             inkscape:connector-curvature="0"
             id="path3686"
             style="fill:#844b33;fill-opacity:1;fill-rule:nonzero;stroke:none"
             d="m 141.8309,243.4714 27.2741,15.6969 -38.9659,21.9367 -27.2743,-15.6957 38.9661,-21.9379 z" />
        </g>
        <g
           id="g3688">
          <path
             inkscape:connector-curvature="0"
             id="path3690"
             style="fill:#fdcd9c;fill-opacity:1;fill-rule:nonzero;stroke:none"
             d="m 102.8648,265.4093 -0.1857,-46.8045 38.9659,-21.9365 0.1859,46.8031 -38.9661,21.9379 z" />
        </g>
        <path
           inkscape:connector-curvature="0"
           id="path3692"
           style="fill:#844b33;fill-opacity:1;fill-rule:nonzero;stroke:none"
           d="m 102.8648,265.4093 0,-17.9688 2.7464,-1.5857 c 0.0117,0.6205 0.2333,12.412 4.7056,9.8302 4.4685,-2.5801 6.0414,-8.3369 9.6392,-10.4142 3.4718,-2.0046 4.1986,-2.4242 4.267,-2.4636 3.5294,-2.0378 5.1332,1.8854 9.6018,-0.6947 4.4685,-2.5798 4.6261,-14.5905 4.6343,-15.2226 l 3.3718,-1.961 0,18.5425 -38.9661,21.9379 z" />
        <path
           inkscape:connector-curvature="0"
           id="path3694"
           style="fill:#3b312c;fill-opacity:1;fill-rule:nonzero;stroke:none"
           d="m 141.7606,225.8073 0.07,-0.8784 c 0,0 0.8218,6.1097 5.4599,6.1097 4.6383,0 3.7286,-9.9745 1.0006,-11.9588 -2.7286,-1.9842 0.4708,-18.3155 0.4708,-18.3155 l 20.1589,11.6008 0.1842,46.8034 -27.2744,-15.6974 -0.07,-17.6638 z" />
        <g
           id="g3696">
          <path
             inkscape:connector-curvature="0"
             id="path3698"
             style="fill:#3b312c;fill-opacity:1;fill-rule:evenodd;stroke:none"
             d="m 114.4131,235.3201 c 0.6372,1.1166 0.142,2.4831 -1.1061,3.0523 -1.2481,0.5695 -2.7765,0.1262 -3.4137,-0.9901 -0.637,-1.1166 -0.1418,-2.4832 1.1063,-3.0523 1.2481,-0.5695 2.7766,-0.1262 3.4135,0.9901" />
          <path
             inkscape:connector-curvature="0"
             id="path3700"
             style="fill:#ffffff;fill-opacity:1;fill-rule:evenodd;stroke:none"
             d="m 112.3532,237.3849 c 0.174,0.3047 0.0124,0.6899 -0.3609,0.86 -0.373,0.1703 -0.8166,0.0612 -0.9907,-0.2435 -0.174,-0.3047 -0.0125,-0.69 0.3609,-0.8603 0.3733,-0.1701 0.8169,-0.0613 0.9907,0.2438" />
        </g>
        <path
           inkscape:connector-curvature="0"
           id="path3702"
           style="fill:#844b33;fill-opacity:1;fill-rule:evenodd;stroke:none"
           d="m 108.0833,240.8706 c 1.1373,-0.4813 3.1859,1.7547 7.361,-0.0893 0.7611,-0.3362 1.4769,3.0107 -3.1498,2.9322 -4.0065,-0.0681 -4.8986,-2.5523 -4.2112,-2.8429" />
        <g
           id="g3704">
          <path
             inkscape:connector-curvature="0"
             id="path3706"
             style="fill:#3b312c;fill-opacity:1;fill-rule:evenodd;stroke:none"
             d="m 132.351,227.829 c 0.6373,1.1165 0.142,2.4831 -1.1061,3.0523 -1.248,0.5695 -2.7765,0.1262 -3.4137,-0.9901 -0.637,-1.1166 -0.1418,-2.4832 1.1063,-3.0524 1.2481,-0.5694 2.7766,-0.1261 3.4135,0.9902" />
          <path
             inkscape:connector-curvature="0"
             id="path3708"
             style="fill:#ffffff;fill-opacity:1;fill-rule:evenodd;stroke:none"
             d="m 130.2911,229.8937 c 0.174,0.3048 0.0125,0.69 -0.3609,0.8601 -0.373,0.1703 -0.8166,0.0612 -0.9907,-0.2435 -0.174,-0.3048 -0.0124,-0.69 0.3609,-0.8603 0.3733,-0.1701 0.8169,-0.0613 0.9907,0.2437" />
        </g>
        <path
           inkscape:connector-curvature="0"
           id="path3710"
           style="fill:#844b33;fill-opacity:1;fill-rule:evenodd;stroke:none"
           d="m 135.1627,230.4099 c -1.2339,0.4652 -0.9672,3.225 -5.5584,4.8855 -0.8371,0.3028 1.3138,2.8559 4.7001,-0.2987 2.9313,-2.7309 1.6033,-4.8683 0.8583,-4.5868" />
        <path
           inkscape:connector-curvature="0"
           id="path3712"
           style="fill:#fcbc85;fill-opacity:1;fill-rule:evenodd;stroke:none"
           d="m 118.5021,226.6795 c -2.323,0.7929 -3.0833,2.7029 -3.3925,2.0098 -0.309,-0.6928 -0.2245,-2.2391 2.8258,-3.2803 3.0504,-1.0411 4.3095,0.0465 4.6185,0.7396 0.309,0.6928 -1.7291,-0.2619 -4.0518,0.5309" />
        <path
           inkscape:connector-curvature="0"
           id="path3714"
           style="fill:#fcbc85;fill-opacity:1;fill-rule:evenodd;stroke:none"
           d="m 116.7715,217.0882 c -0.7923,0.3053 -1.0295,0.9757 -1.1457,0.7401 -0.1163,-0.2355 -0.108,-0.771 0.9326,-1.1721 1.0403,-0.4008 1.4899,-0.0416 1.6061,0.1939 0.1162,0.2356 -0.6013,-0.0672 -1.393,0.2381" />
        <path
           inkscape:connector-curvature="0"
           id="path3716"
           style="fill:#ca633a;fill-opacity:1;fill-rule:evenodd;stroke:none"
           d="m 117.7174,219.0773 c -3.6303,1.3989 -5.2177,3.4571 -5.3696,3.149 -0.152,-0.3078 0.2996,-1.9244 5.0672,-3.7619 4.7673,-1.8371 6.4154,-1.0295 6.5673,-0.7219 0.1519,0.3086 -2.6348,-0.0644 -6.2649,1.3348" />
        <path
           inkscape:connector-curvature="0"
           id="path3718"
           style="fill:#844b33;fill-opacity:1;fill-rule:evenodd;stroke:none"
           d="m 102.6927,222.0228 18.199,-10.1415 20.768,-11.573 -0.0147,-3.64 -38.9659,21.9365 0.0136,3.418 z" />
        <path
           inkscape:connector-curvature="0"
           id="path3720"
           style="fill:#844b33;fill-opacity:1;fill-rule:evenodd;stroke:none"
           d="m 137.2343,205.5144 4.4359,-2.5158 -0.0128,-3.2301 -4.4495,2.1943 0.0264,3.5516 z" />
        <path
           inkscape:connector-curvature="0"
           id="path3722"
           style="fill:#844b33;fill-opacity:1;fill-rule:evenodd;stroke:none"
           d="m 102.7108,225.2259 4.411,-2.4834 0.0267,-3.2695 -4.464,2.2014 0.0263,3.5515 z" />
        <path
           inkscape:connector-curvature="0"
           id="path3724"
           style="fill:#844b33;fill-opacity:1;fill-rule:evenodd;stroke:none"
           d="m 148.7619,200.7643 -0.8073,4.8442 -6.2844,-2.6099 -0.0252,-6.3303 7.1169,4.096 z" />
        <path
           inkscape:connector-curvature="0"
           id="path3726"
           style="fill:#ffffff;fill-opacity:1;fill-rule:nonzero;stroke:none"
           d="m 108.3526,197.6913 -0.1219,-59.0817 25.5116,-14.3614 0.121,59.0819 -25.5107,14.3612 z" />
        <path
           inkscape:connector-curvature="0"
           id="path3728"
           style="fill:#9a9a9a;fill-opacity:1;fill-rule:nonzero;stroke:none"
           d="M 121.5604,0 0,70.2 51.656,100.0236 173.2164,29.8236 121.5604,0 Z" />
        <path
           inkscape:connector-curvature="0"
           id="path3730"
           style="fill:#f3d2d0;fill-opacity:1;fill-rule:nonzero;stroke:none"
           d="m 110.8423,112.3325 40.0161,-23.103 0,-6.7813 -40.0161,23.1032 0,6.7811 z" />
        <path
           inkscape:connector-curvature="0"
           id="path3732"
           style="fill:#bd9764;fill-opacity:1;fill-rule:nonzero;stroke:none"
           d="m 168.0792,31.2602 -50.1619,-28.9327 0,54.256 50.1619,28.9327 0,-54.256 z" />
        <path
           inkscape:connector-curvature="0"
           id="path3734"
           style="fill:#d2b69a;fill-opacity:1;fill-rule:nonzero;stroke:none"
           d="m 73.7643,85.5998 -50.1619,-28.9324 0,54.2557 50.1619,28.9326 0,-54.2559 z" />
        <path
           inkscape:connector-curvature="0"
           id="path3736"
           style="fill:#bd9764;fill-opacity:1;fill-rule:nonzero;stroke:none"
           d="M 122.4485,61.1963 4.5207,129.2987 54.6333,158.2313 172.5613,90.1287 122.4485,61.1963 Z" />
        <path
           inkscape:connector-curvature="0"
           id="path3738"
           style="fill:#fee6db;fill-opacity:1;fill-rule:nonzero;stroke:none"
           d="m 122.3994,53.7369 -117.8787,68.0576 0,7.5042 117.8787,-68.0573 0,-7.5045 z" />
        <path
           inkscape:connector-curvature="0"
           id="path3740"
           style="fill:#844b33;fill-opacity:1;fill-rule:nonzero;stroke:none"
           d="m 9.0026,119.4656 0,-54.256 14.5998,-8.4291 0,36.6316 79.7153,-46.0239 0,-36.6313 14.5996,-8.4291 0,54.2557 -108.9147,62.8821 z" />
        <path
           inkscape:connector-curvature="0"
           id="path3742"
           style="fill:#f2d2cf;fill-opacity:1;fill-rule:nonzero;stroke:none"
           d="m 172.5613,82.6696 -50.1619,-28.9327 0,7.5045 50.1619,28.8873 0,-7.4591 z" />
        <path
           inkscape:connector-curvature="0"
           id="path3744"
           style="fill:#aa5b7f;fill-opacity:1;fill-rule:nonzero;stroke:none"
           d="m 142.1702,89.0782 -11.7388,5.9051 m -0.9655,-0.6398 11.7391,-5.9048 m -12.704,5.2653 11.7388,-5.9048 m -0.9649,-0.6398 -11.7391,5.9051 m -0.9655,-0.6395 11.7391,-5.9051 m -0.9649,-0.6395 -11.7391,5.9049 m 10.7739,-6.5447 -11.7391,5.9052 m 10.7739,-6.5444 -11.7388,5.9049 m 10.7736,-6.5447 -11.7391,5.9052 m 10.7739,-6.5447 -11.7388,5.9049 m 10.7737,-6.5446 -11.7389,5.9051 m 10.7739,-6.5446 -11.7391,5.9051 m 5.1619,-6.0576 3.6079,-1.8151 m 2.0041,1.3281 -11.7388,5.9048 11.7388,-5.9048 z" />
        <path
           inkscape:connector-curvature="0"
           id="path3746"
           style="fill:#aa5b7f;fill-opacity:1;fill-rule:nonzero;stroke:none"
           d="m 134.7021,97.2139 14.807,-5.7677 -14.9383,-12.7845 -14.8073,5.7674 14.9386,12.7848 z" />
        <path
           inkscape:connector-curvature="0"
           id="path3748"
           style="fill:#aa5b7f;fill-opacity:1;fill-rule:nonzero;stroke:none"
           d="m 146.8723,90.373 -12.9069,5.0273 m 12.0852,-5.7305 -12.907,5.0272 m 12.0852,-5.7305 -12.9056,5.0281 m 12.0841,-5.7314 -12.9055,5.0281 m 12.0852,-5.7302 -12.907,5.0272 m -0.8218,-0.7033 12.907,-5.0272 m -0.8215,-0.7033 -12.9069,5.0273 m 12.0849,-5.7306 -12.9067,5.0276 m 12.0852,-5.7308 -12.907,5.0275 m -0.8217,-0.7033 12.907,-5.0272 m -0.8218,-0.7033 -12.907,5.0272 m 12.0855,-5.7302 -12.9073,5.027 m 6.4123,-5.6452 3.9671,-1.5452 m 1.7061,1.4601 -12.9069,5.0273 12.9069,-5.0273 z" />
        <path
           inkscape:connector-curvature="0"
           id="path3750"
           style="fill:#f9fafa;fill-opacity:1;fill-rule:nonzero;stroke:none"
           d="m 133.7978,97.2139 14.8071,-5.7677 -14.938,-12.7845 -14.8074,5.7674 14.9383,12.7848 z" />
        <path
           inkscape:connector-curvature="0"
           id="path3752"
           style="fill:none;stroke:#d4d4d4;stroke-width:0.6979;stroke-linecap:butt;stroke-linejoin:miter;stroke-miterlimit:10.00000095;stroke-dasharray:none;stroke-opacity:1"
           d="m 145.9684,90.373 -12.9073,5.0273 m 12.0852,-5.7305 -12.907,5.0272 m 12.0853,-5.7305 -12.9053,5.0281 m 12.0838,-5.7314 -12.9056,5.0281 m 12.0852,-5.7302 -12.907,5.0272 m -0.8217,-0.7033 12.9073,-5.0272 m -0.8218,-0.7033 -12.9073,5.0273 m 12.0855,-5.7306 -12.907,5.0276 m 12.0856,-5.7308 -12.9073,5.0275 m -0.8215,-0.7033 12.9067,-5.0272 m -0.8218,-0.7033 -12.9067,5.0272 m 12.0853,-5.7302 -12.907,5.027 m 6.4119,-5.6452 3.9671,-1.5452 m 1.7062,1.4601 -12.907,5.0273" />
        <path
           inkscape:connector-curvature="0"
           id="path3754"
           style="fill:#844b33;fill-opacity:1;fill-rule:nonzero;stroke:none"
           d="m 42.2093,150.1155 13.7577,-8.6579 -25.0725,-15.0364 -13.7574,8.6585 25.0722,15.0358 z" />
        <path
           inkscape:connector-curvature="0"
           id="path3756"
           style="fill:#aa5b7f;fill-opacity:1;fill-rule:nonzero;stroke:none"
           d="m 32.0947,167.4028 0,-39.4293 -8.7792,5.0686 0,39.4294 8.7792,-5.0687 z" />
        <path
           inkscape:connector-curvature="0"
           id="path3758"
           style="fill:#f8aea0;fill-opacity:1;fill-rule:evenodd;stroke:none"
           d="m 26.8336,135.0729 -3.5181,-2.0311 8.7792,-5.0683 -5.2611,7.0994 z" />
        <path
           inkscape:connector-curvature="0"
           id="path3760"
           style="fill:#f8aea0;fill-opacity:1;fill-rule:nonzero;stroke:none"
           d="m 47.3468,186.3425 0,-39.4293 -24.0321,-13.8751 0,39.4294 0,0 0.4147,1.205 0.4246,-0.4601 0.6545,1.2121 0.6194,-0.4512 0.7254,1.15 0.4601,-0.4422 0.6369,1.15 0.5306,-0.4422 0.584,1.0616 0.4246,-0.4425 0.4955,0.9555 0.4068,-0.407 0.6369,0.9731 0.3362,-0.4246 0.5485,0.9553 0.3716,-0.5307 0.5661,1.0792 0.3892,-0.5307 0.6015,1.097 0.3895,-0.4779 0.5661,1.0086 0.3892,-0.3892 0.6194,0.9201 0.3891,-0.4425 0.5661,0.8847 0.5485,-0.2299 0.5661,0.9553 0.3895,-0.4246 0.6191,1.044 0.3835,-0.4247 0.6072,0.9377 0.3716,-0.3716 0.69,1.044 0.4424,-0.3895 0.7076,1.15 0.5663,-0.4597 0.6191,0.9552 0.4247,-0.3362 0.6548,1.1146 0.4067,-0.3537 0.5664,0.9907 0.3892,-0.4777 0.6945,1.0041 0.4731,-0.3847 0.3186,0.743 0.4246,-0.4777 0.1239,0.637 0.2982,-0.582 z" />
        <path
           inkscape:connector-curvature="0"
           id="path3762"
           style="fill:#fdc282;fill-opacity:1;fill-rule:evenodd;stroke:none"
           d="m 23.3155,172.4712 3.8271,-2.2093 -0.309,-35.189 -3.5181,-2.0311 0,39.4294 z" />
        <path
           inkscape:connector-curvature="0"
           id="path3764"
           style="fill:#ca633a;fill-opacity:1;fill-rule:evenodd;stroke:none"
           d="m 32.0947,167.4028 0,-39.4293 -5.2611,7.0994 0.309,35.189 4.9521,-2.8591 z" />
        <path
           inkscape:connector-curvature="0"
           id="path3766"
           style="fill:#ca633a;fill-opacity:1;fill-rule:evenodd;stroke:none"
           d="m 47.3468,186.3468 3.8271,-2.2094 4.9521,-2.859 0,-39.4293 -5.2611,7.0993 -3.5181,-2.031 0,39.4294 z" />
        <path
           inkscape:connector-curvature="0"
           id="path3768"
           style="fill:#fdc282;fill-opacity:1;fill-rule:nonzero;stroke:none"
           d="m 56.1268,181.2779 0,-39.4294 -24.0321,-13.875 0,39.4293 0,0 0.4144,1.205 0.4249,-0.46 0.6546,1.2121 0.6193,-0.4513 0.7254,1.15 0.4598,-0.4422 0.6369,1.15 0.531,-0.4422 0.5839,1.0613 0.4246,-0.4422 0.4953,0.9553 0.407,-0.4068 0.637,0.9731 0.3361,-0.4246 0.5485,0.9553 0.3714,-0.5307 0.5663,1.0792 0.3892,-0.5307 0.6016,1.0968 0.3892,-0.4777 0.5663,1.0086 0.3892,-0.3892 0.6191,0.9198 0.3892,-0.4422 0.5664,0.8847 0.5485,-0.2301 0.566,0.9555 0.3892,-0.4246 0.6194,1.0437 0.3833,-0.4246 0.6074,0.938 0.3716,-0.3717 0.69,1.0438 0.4422,-0.3892 0.7078,1.15 0.5661,-0.4601 0.6194,0.9556 0.4246,-0.3362 0.6545,1.1146 0.4071,-0.3538 0.566,0.9907 0.3892,-0.4776 0.6945,1.004 0.4734,-0.3847 0.3183,0.743 0.4247,-0.4776 0.1238,0.6369 0.2985,-0.5819 z" />
        <path
           inkscape:connector-curvature="0"
           id="path3770"
           style="fill:#ca633a;fill-opacity:1;fill-rule:nonzero;stroke:none"
           d="m 45.0785,155.3984 0,-17.3546 -10.5777,-6.1072 0,17.3548 0,0 c 0,0 10.5777,6.107 10.5777,6.107" />
        <path
           inkscape:connector-curvature="0"
           id="path3772"
           style="fill:#ca633a;fill-opacity:1;fill-rule:nonzero;stroke:none"
           d="m 50.1035,147.8925 0,-6.6724 -4.0669,-2.348 0,6.6725 0,0 c 0,0 4.0669,2.3479 4.0669,2.3479" />
        <path
           inkscape:connector-curvature="0"
           id="path3774"
           style="fill:#ca633a;fill-opacity:1;fill-rule:nonzero;stroke:none"
           d="m 54.5862,164.5189 0,-2.6343 -20.3683,-11.7598 0,2.6343 0,0 c 0,0 20.3683,11.7598 20.3683,11.7598" />
        <path
           inkscape:connector-curvature="0"
           id="path3776"
           style="fill:#ca633a;fill-opacity:1;fill-rule:nonzero;stroke:none"
           d="m 54.5862,168.6671 0,-2.6345 -20.3683,-11.7596 0,2.6343 0,0 c 0,0 20.3683,11.7598 20.3683,11.7598" />
        <path
           inkscape:connector-curvature="0"
           id="path3778"
           style="fill:#ca633a;fill-opacity:1;fill-rule:nonzero;stroke:none"
           d="m 54.5862,172.815 0,-2.6342 -20.3683,-11.7598 0,2.6342 0,0 c 0,0 20.3683,11.7598 20.3683,11.7598" />
        <path
           inkscape:connector-curvature="0"
           id="path3780"
           style="fill:#ffffff;fill-opacity:1;fill-rule:nonzero;stroke:none"
           d="m 43.2028,148.9195 c -0.0051,-0.2608 -0.138,-0.5431 -0.2973,-0.6304 -0.1593,-0.0873 -0.2841,0.0536 -0.2789,0.3141 0.0048,0.2611 0.1377,0.5431 0.2967,0.6304 0.1593,0.0873 0.2844,-0.0533 0.2795,-0.3141" />
        <path
           inkscape:connector-curvature="0"
           id="path3782"
           style="fill:#ffffff;fill-opacity:1;fill-rule:nonzero;stroke:none"
           d="m 42.6892,147.7278 c -0.3952,-0.9538 -0.6588,-2.4199 -0.6894,-4.0424 -0.0048,-0.2486 -0.1315,-0.5174 -0.2832,-0.6007 l -8e-4,-6e-4 -0.0014,-5e-4 c -0.1514,-0.0831 -0.271,0.0504 -0.2662,0.2993 0.0093,0.4992 -0.0216,1.6325 -0.5131,1.3626 -0.4915,-0.2696 -0.5666,-1.4607 -0.576,-1.9601 -0.0048,-0.2489 -0.1318,-0.5177 -0.2834,-0.6007 -0.0054,-0.003 -0.0111,-0.005 -0.0168,-0.008 -0.0054,-0.003 -0.0113,-0.008 -0.0167,-0.0105 -0.1516,-0.0834 -0.271,0.0504 -0.2662,0.299 0.0094,0.4995 -0.0215,1.6325 -0.513,1.3629 -0.4919,-0.2696 -0.567,-1.461 -0.5763,-1.9604 -0.0048,-0.2486 -0.1316,-0.5173 -0.2832,-0.6007 -0.1519,-0.083 -0.271,0.0508 -0.2662,0.2994 0.0357,1.8887 0.6137,2.8717 1.1427,3.1617 0.305,0.1675 0.6182,0.116 0.8212,-0.3192 0.2245,0.6699 0.5456,1.069 0.8509,1.2365 0.2393,0.1313 0.483,0.1279 0.6752,-0.0884 0.1576,1.0573 0.4113,1.9868 0.7348,2.7056 -0.5329,0.667 -1.3079,0.8431 -2.181,0.364 -1.6682,-0.915 -3.0623,-3.8713 -3.1139,-6.6024 -0.0518,-2.7315 1.2586,-4.2038 2.9265,-3.2888 1.6685,0.915 3.0626,3.871 3.1142,6.6025 0.0184,0.9737 -0.1364,1.7875 -0.4187,2.3898" />
        <path
           inkscape:connector-curvature="0"
           id="path3784"
           style="fill:#844b33;fill-opacity:1;fill-rule:nonzero;stroke:none"
           d="m 52.4143,127.2504 9.9748,-6.2776 -18.1788,-10.9021 -9.9749,6.2779 18.1789,10.9018 z" />
        <path
           inkscape:connector-curvature="0"
           id="path3786"
           style="fill:#aa5b7f;fill-opacity:1;fill-rule:nonzero;stroke:none"
           d="m 45.0805,139.7846 0,-28.5885 -6.3655,3.6751 0,28.5882 6.3655,-3.6748 z" />
        <path
           inkscape:connector-curvature="0"
           id="path3788"
           style="fill:#f8aea0;fill-opacity:1;fill-rule:evenodd;stroke:none"
           d="m 41.2659,116.3435 -2.5509,-1.4726 6.3655,-3.6748 -3.8146,5.1474 z" />
        <path
           inkscape:connector-curvature="0"
           id="path3790"
           style="fill:#f8aea0;fill-opacity:1;fill-rule:nonzero;stroke:none"
           d="m 56.139,153.5168 0,-28.5883 -17.4245,-10.0602 0,28.5883 0,3e-4 0.3007,0.8736 0.3079,-0.3336 0.4745,0.8787 0.449,-0.3271 0.5261,0.834 0.3333,-0.3209 0.4621,0.8339 0.3847,-0.3206 0.4235,0.7696 0.3078,-0.3206 0.3591,0.6925 0.2951,-0.295 0.4618,0.7055 0.2438,-0.3078 0.3977,0.6927 0.2693,-0.3849 0.4104,0.7826 0.2824,-0.3849 0.4362,0.7954 0.2821,-0.3464 0.4104,0.7313 0.2823,-0.2823 0.449,0.667 0.2821,-0.3206 0.4107,0.6415 0.3977,-0.1667 0.4105,0.6925 0.282,-0.3078 0.449,0.7568 0.2781,-0.3078 0.4405,0.68 0.2693,-0.2696 0.5003,0.7569 0.3206,-0.2821 0.5131,0.8337 0.4107,-0.3333 0.4491,0.6925 0.3078,-0.2435 0.4745,0.8081 0.2951,-0.2565 0.4105,0.7183 0.2823,-0.3464 0.5034,0.7279 0.3433,-0.2789 0.2307,0.5389 0.3079,-0.3464 0.0898,0.4617 0.2163,-0.422 z" />
        <path
           inkscape:connector-curvature="0"
           id="path3792"
           style="fill:#fdc282;fill-opacity:1;fill-rule:evenodd;stroke:none"
           d="m 38.715,143.4594 2.7749,-1.6018 -0.224,-25.5141 -2.5509,-1.4726 0,28.5885 z" />
        <path
           inkscape:connector-curvature="0"
           id="path3794"
           style="fill:#ca633a;fill-opacity:1;fill-rule:evenodd;stroke:none"
           d="m 45.0805,139.7846 0,-28.5885 -3.8146,5.1474 0.224,25.5141 3.5906,-2.073 z" />
        <path
           inkscape:connector-curvature="0"
           id="path3796"
           style="fill:#ca633a;fill-opacity:1;fill-rule:evenodd;stroke:none"
           d="m 56.139,153.5199 2.7749,-1.6019 3.5906,-2.073 0,-28.5885 -3.8146,5.1477 -2.5509,-1.4729 0,28.5886 z" />
        <path
           inkscape:connector-curvature="0"
           id="path3798"
           style="fill:#fdc282;fill-opacity:1;fill-rule:nonzero;stroke:none"
           d="m 62.5051,149.8448 0,-28.5886 -17.4246,-10.0601 0,28.5885 0,0 0.3005,0.8736 0.3078,-0.3333 0.4748,0.8787 0.449,-0.3271 0.5259,0.8337 0.3336,-0.3206 0.4618,0.8336 0.3849,-0.3206 0.4232,0.7697 0.3079,-0.3206 0.3591,0.6927 0.2951,-0.295 0.462,0.7055 0.2435,-0.3078 0.3977,0.6925 0.2696,-0.3847 0.4105,0.7824 0.282,-0.3847 0.4363,0.7951 0.2823,-0.3461 0.4105,0.7311 0.2823,-0.2821 0.4487,0.667 0.2823,-0.3209 0.4105,0.6415 0.3977,-0.1667 0.4105,0.6928 0.2823,-0.3078 0.449,0.7568 0.2778,-0.3081 0.4405,0.68 0.2693,-0.2693 0.5003,0.7569 0.3209,-0.2823 0.5131,0.8339 0.4104,-0.3336 0.449,0.6928 0.3079,-0.2438 0.4748,0.8081 0.2951,-0.2565 0.4104,0.7183 0.2821,-0.3464 0.5037,0.7282 0.343,-0.2792 0.231,0.5389 0.3078,-0.3464 0.0899,0.4618 0.2163,-0.4218 z" />
        <path
           inkscape:connector-curvature="0"
           id="path3800"
           style="fill:#ca633a;fill-opacity:1;fill-rule:nonzero;stroke:none"
           d="m 54.4946,131.0808 0,-12.5833 -7.6694,-4.4277 0,12.583 -3e-4,0 c 3e-4,0 7.6697,4.428 7.6697,4.428" />
        <path
           inkscape:connector-curvature="0"
           id="path3802"
           style="fill:#ca633a;fill-opacity:1;fill-rule:nonzero;stroke:none"
           d="m 58.1377,125.6386 0,-4.8379 -2.9486,-1.7025 0,4.8379 0,0 c 0,0 2.9486,1.7025 2.9486,1.7025" />
        <path
           inkscape:connector-curvature="0"
           id="path3804"
           style="fill:#ca633a;fill-opacity:1;fill-rule:nonzero;stroke:none"
           d="m 61.3879,137.6935 0,-1.91 -14.7682,-8.5263 0,1.9099 0,0 c 0,0 14.7682,8.5264 14.7682,8.5264" />
        <path
           inkscape:connector-curvature="0"
           id="path3806"
           style="fill:#ca633a;fill-opacity:1;fill-rule:nonzero;stroke:none"
           d="m 61.3879,140.701 0,-1.9099 -14.7682,-8.5264 0,1.91 0,0 c 0,0 14.7682,8.5263 14.7682,8.5263" />
        <path
           inkscape:connector-curvature="0"
           id="path3808"
           style="fill:#ca633a;fill-opacity:1;fill-rule:nonzero;stroke:none"
           d="m 61.3879,143.7089 0,-1.9103 -14.7682,-8.5263 0,1.91 0,0 c 0,0 14.7682,8.5266 14.7682,8.5266" />
        <path
           inkscape:connector-curvature="0"
           id="path3810"
           style="fill:#ffffff;fill-opacity:1;fill-rule:nonzero;stroke:none"
           d="m 53.1346,126.3832 c -0.0037,-0.189 -0.1001,-0.3937 -0.2157,-0.4572 -0.1154,-0.0632 -0.2058,0.0389 -0.2024,0.2279 0.0037,0.1891 0.1,0.3938 0.2154,0.457 0.1157,0.0635 0.2061,-0.0386 0.2027,-0.2277" />
        <path
           inkscape:connector-curvature="0"
           id="path3812"
           style="fill:#ffffff;fill-opacity:1;fill-rule:nonzero;stroke:none"
           d="m 52.7621,125.519 c -0.2866,-0.6914 -0.4776,-1.7544 -0.5,-2.9308 -0.0034,-0.1805 -0.0953,-0.3753 -0.2052,-0.4357 l -6e-4,-2e-4 -9e-4,-6e-4 c -0.11,-0.0601 -0.1967,0.0366 -0.1933,0.2171 0.0071,0.362 -0.0153,1.1838 -0.3719,0.9882 -0.3563,-0.1956 -0.4107,-1.0593 -0.4175,-1.4213 -0.0034,-0.1806 -0.0956,-0.3753 -0.2056,-0.4357 -0.0039,-0.002 -0.0082,-0.004 -0.0121,-0.006 -0.004,-0.002 -0.0083,-0.005 -0.0122,-0.008 -0.1097,-0.0604 -0.1965,0.0365 -0.1931,0.2168 0.0068,0.3623 -0.0156,1.1838 -0.3719,0.9882 -0.3566,-0.1956 -0.411,-1.0593 -0.4178,-1.4213 -0.0034,-0.1803 -0.0952,-0.3753 -0.2055,-0.4357 -0.11,-0.0604 -0.1962,0.0369 -0.1928,0.2171 0.0258,1.3695 0.4451,2.0821 0.8283,2.2924 0.2214,0.1213 0.4485,0.0842 0.5956,-0.2313 0.1627,0.4856 0.3957,0.775 0.6171,0.8966 0.1735,0.095 0.3501,0.0924 0.4895,-0.0643 0.1143,0.7667 0.2982,1.4405 0.5327,1.9618 -0.3864,0.4836 -0.9482,0.6112 -1.5812,0.2639 -1.2096,-0.6636 -2.2204,-2.8068 -2.2578,-4.7871 -0.0377,-1.9803 0.9125,-3.0481 2.122,-2.3845 1.2095,0.6636 2.2204,2.8066 2.2578,4.7871 0.0133,0.7061 -0.0989,1.296 -0.3036,1.7326" />
        <path
           inkscape:connector-curvature="0"
           id="path3814"
           style="fill:#844b33;fill-opacity:1;fill-rule:nonzero;stroke:none"
           d="m 137.4355,89.422 13.7577,-8.6578 -25.0724,-15.0364 -13.7574,8.6584 25.0721,15.0358 z" />
        <path
           inkscape:connector-curvature="0"
           id="path3816"
           style="fill:#aa5b7f;fill-opacity:1;fill-rule:nonzero;stroke:none"
           d="m 127.3209,106.7094 0,-39.4294 -8.7791,5.0687 0,39.4293 8.7791,-5.0686 z" />
        <path
           inkscape:connector-curvature="0"
           id="path3818"
           style="fill:#f8aea0;fill-opacity:1;fill-rule:evenodd;stroke:none"
           d="m 122.0598,74.3794 -3.518,-2.031 8.7791,-5.0684 -5.2611,7.0994 z" />
        <path
           inkscape:connector-curvature="0"
           id="path3820"
           style="fill:#f8aea0;fill-opacity:1;fill-rule:nonzero;stroke:none"
           d="m 142.573,125.6491 0,-39.4294 -24.0321,-13.875 0,39.4293 0,0 0.4147,1.2051 0.4247,-0.4601 0.6545,1.2121 0.6193,-0.4513 0.7254,1.15 0.4601,-0.4422 0.6369,1.15 0.5307,-0.4422 0.5839,1.0616 0.4246,-0.4425 0.4955,0.9556 0.4068,-0.4071 0.637,0.9732 0.3361,-0.4247 0.5486,0.9553 0.3716,-0.5306 0.5661,1.0791 0.3892,-0.5306 0.6015,1.097 0.3894,-0.478 0.5661,1.0086 0.3892,-0.3892 0.6194,0.9201 0.3892,-0.4424 0.5661,0.8846 0.5485,-0.2298 0.566,0.9552 0.3895,-0.4246 0.6191,1.044 0.3835,-0.4246 0.6072,0.9377 0.3716,-0.3716 0.69,1.044 0.4425,-0.3895 0.7075,1.15 0.5664,-0.4598 0.6191,0.9553 0.4246,-0.3362 0.6548,1.1146 0.4068,-0.3538 0.5663,0.9907 0.3892,-0.4776 0.6945,1.004 0.4731,-0.3846 0.3186,0.7429 0.4247,-0.4776 0.1238,0.6369 0.2982,-0.5819 z" />
        <path
           inkscape:connector-curvature="0"
           id="path3822"
           style="fill:#fdc282;fill-opacity:1;fill-rule:evenodd;stroke:none"
           d="m 118.5418,111.7777 3.827,-2.2093 -0.309,-35.189 -3.518,-2.031 0,39.4293 z" />
        <path
           inkscape:connector-curvature="0"
           id="path3824"
           style="fill:#ca633a;fill-opacity:1;fill-rule:evenodd;stroke:none"
           d="m 127.3209,106.7094 0,-39.4294 -5.2611,7.0994 0.309,35.189 4.9521,-2.859 z" />
        <path
           inkscape:connector-curvature="0"
           id="path3826"
           style="fill:#ca633a;fill-opacity:1;fill-rule:evenodd;stroke:none"
           d="m 142.573,125.6533 3.8271,-2.2093 4.9521,-2.859 0,-39.4294 -5.2611,7.0994 -3.5181,-2.031 0,39.4293 z" />
        <path
           inkscape:connector-curvature="0"
           id="path3828"
           style="fill:#fdc282;fill-opacity:1;fill-rule:nonzero;stroke:none"
           d="m 151.3531,120.5844 0,-39.4293 -24.0322,-13.8751 0,39.4294 0,0 0.4145,1.205 0.4249,-0.4601 0.6545,1.2121 0.6194,-0.4513 0.7254,1.1501 0.4597,-0.4422 0.637,1.15 0.5309,-0.4422 0.5839,1.0613 0.4247,-0.4422 0.4952,0.9552 0.407,-0.4067 0.637,0.9731 0.3362,-0.4246 0.5485,0.9552 0.3713,-0.5306 0.5664,1.0791 0.3892,-0.5306 0.6015,1.0967 0.3892,-0.4776 0.5664,1.0086 0.3892,-0.3892 0.619,0.9198 0.3892,-0.4422 0.5664,0.8847 0.5485,-0.2302 0.5661,0.9556 0.3892,-0.4247 0.6193,1.0438 0.3833,-0.4247 0.6075,0.938 0.3716,-0.3716 0.6899,1.0437 0.4422,-0.3892 0.7078,1.15 0.5661,-0.46 0.6194,0.9555 0.4246,-0.3362 0.6545,1.1146 0.4071,-0.3537 0.5661,0.9907 0.3892,-0.4777 0.6945,1.0041 0.4733,-0.3847 0.3184,0.743 0.4246,-0.4777 0.1239,0.637 0.2985,-0.582 z" />
        <path
           inkscape:connector-curvature="0"
           id="path3830"
           style="fill:#ca633a;fill-opacity:1;fill-rule:nonzero;stroke:none"
           d="m 140.3048,94.7049 0,-17.3545 -10.5778,-6.1073 0,17.3549 0,0 c 0,0 10.5778,6.1069 10.5778,6.1069" />
        <path
           inkscape:connector-curvature="0"
           id="path3832"
           style="fill:#ca633a;fill-opacity:1;fill-rule:nonzero;stroke:none"
           d="m 145.3297,87.1991 0,-6.6725 -4.0668,-2.3479 0,6.6724 0,0 c 0,0 4.0668,2.348 4.0668,2.348" />
        <path
           inkscape:connector-curvature="0"
           id="path3834"
           style="fill:#ca633a;fill-opacity:1;fill-rule:nonzero;stroke:none"
           d="m 149.8124,103.8254 0,-2.6342 -20.3683,-11.7598 0,2.6342 0,0 c 0,0 20.3683,11.7598 20.3683,11.7598" />
        <path
           inkscape:connector-curvature="0"
           id="path3836"
           style="fill:#ca633a;fill-opacity:1;fill-rule:nonzero;stroke:none"
           d="m 149.8124,107.9736 0,-2.6345 -20.3683,-11.7595 0,2.6342 0,0 c 0,0 20.3683,11.7598 20.3683,11.7598" />
        <path
           inkscape:connector-curvature="0"
           id="path3838"
           style="fill:#ca633a;fill-opacity:1;fill-rule:nonzero;stroke:none"
           d="m 149.8124,112.1216 0,-2.6343 -20.3683,-11.7598 0,2.6343 0,0 c 0,0 20.3683,11.7598 20.3683,11.7598" />
        <path
           inkscape:connector-curvature="0"
           id="path3840"
           style="fill:#ffffff;fill-opacity:1;fill-rule:nonzero;stroke:none"
           d="m 138.4291,88.2261 c -0.005,-0.2608 -0.1381,-0.5431 -0.2974,-0.6304 -0.1593,-0.0874 -0.284,0.0535 -0.2789,0.314 0.005,0.2611 0.1378,0.5432 0.2968,0.6305 0.1593,0.0873 0.2843,-0.0533 0.2795,-0.3141" />
        <path
           inkscape:connector-curvature="0"
           id="path3842"
           style="fill:#ffffff;fill-opacity:1;fill-rule:nonzero;stroke:none"
           d="m 137.9154,87.0344 c -0.3951,-0.9539 -0.6587,-2.4199 -0.6894,-4.0425 -0.005,-0.2486 -0.1315,-0.5173 -0.2831,-0.6007 l -9e-4,-5e-4 -0.001,-6e-4 c -0.1514,-0.083 -0.271,0.0505 -0.2662,0.2993 0.009,0.4992 -0.0215,1.6325 -0.513,1.3627 -0.4916,-0.2696 -0.5667,-1.4607 -0.576,-1.9602 -0.005,-0.2489 -0.1319,-0.5176 -0.2835,-0.6007 -0.005,-0.0031 -0.0111,-0.0053 -0.0167,-0.0079 -0.005,-0.0034 -0.0114,-0.0076 -0.0168,-0.0105 -0.1516,-0.0833 -0.271,0.0505 -0.2661,0.2991 0.009,0.4994 -0.0216,1.6324 -0.5131,1.3629 -0.4918,-0.2696 -0.5669,-1.461 -0.5763,-1.9605 -0.005,-0.2486 -0.1315,-0.5173 -0.2832,-0.6006 -0.1519,-0.0831 -0.271,0.0507 -0.2661,0.2993 0.0357,1.8887 0.6137,2.8718 1.1426,3.1618 0.305,0.1675 0.6182,0.1159 0.8212,-0.3192 0.2245,0.6698 0.5457,1.0689 0.851,1.2365 0.2392,0.1312 0.483,0.1278 0.6752,-0.0885 0.1576,1.0573 0.4113,1.9868 0.7347,2.7057 -0.5329,0.667 -1.3079,0.843 -2.181,0.364 -1.6682,-0.9151 -3.0622,-3.8713 -3.1138,-6.6025 -0.0519,-2.7315 1.2586,-4.2038 2.9265,-3.2888 1.6684,0.9151 3.0625,3.871 3.1141,6.6025 0.0184,0.9737 -0.1363,1.7875 -0.4187,2.3899" />
        <path
           inkscape:connector-curvature="0"
           id="path3844"
           style="fill:#ffffff;fill-opacity:1;fill-rule:evenodd;stroke:none"
           d="m 139.2347,156.8514 7.2924,3.5853 0.004,2.9886 -7.2876,-3.5561 -0.008,-3.0178 z" />
      </g>
    </g>
  </g>
</svg>
